%TF.GenerationSoftware,KiCad,Pcbnew,10.0.5*%
%TF.CreationDate,2026-09-01T20:24:32+07:00*%
%TF.ProjectId,vsmart-module-esp32-s3-mini,76736d61-7274-42d6-9d6f-64756c652d65,rev?*%
%TF.SameCoordinates,Original*%
%TF.FileFunction,Legend,Bot*%
%TF.FilePolarity,Positive*%
%FSLAX46Y46*%
G04 Gerber Fmt 4.6, Leading zero omitted, Abs format (unit mm)*
G04 Created by KiCad (PCBNEW 10.0.5) date 2026-09-01 20:24:32*
%MOMM*%
%LPD*%
G01*
G04 APERTURE LIST*
%ADD10C,0.120000*%
G04 APERTURE END LIST*
D10*
X42928571Y-79652974D02*
X42500000Y-79652974D01*
X43014285Y-79910117D02*
X42714285Y-79010117D01*
X42714285Y-79010117D02*
X42414285Y-79910117D01*
X42114285Y-79910117D02*
X42114285Y-79010117D01*
X42114285Y-79010117D02*
X41599999Y-79910117D01*
X41599999Y-79910117D02*
X41599999Y-79010117D01*
X41299999Y-79010117D02*
X40785714Y-79010117D01*
X41042856Y-79910117D02*
X41042856Y-79010117D01*
X39800000Y-79910117D02*
X39800000Y-79010117D01*
X39285714Y-79910117D02*
X39671428Y-79395831D01*
X39285714Y-79010117D02*
X39800000Y-79524402D01*
X38900000Y-79438688D02*
X38600000Y-79438688D01*
X38471428Y-79910117D02*
X38900000Y-79910117D01*
X38900000Y-79910117D02*
X38900000Y-79010117D01*
X38900000Y-79010117D02*
X38471428Y-79010117D01*
X38085714Y-79438688D02*
X37785714Y-79438688D01*
X37657142Y-79910117D02*
X38085714Y-79910117D01*
X38085714Y-79910117D02*
X38085714Y-79010117D01*
X38085714Y-79010117D02*
X37657142Y-79010117D01*
X37271428Y-79910117D02*
X37271428Y-79010117D01*
X37271428Y-79010117D02*
X36928571Y-79010117D01*
X36928571Y-79010117D02*
X36842856Y-79052974D01*
X36842856Y-79052974D02*
X36799999Y-79095831D01*
X36799999Y-79095831D02*
X36757142Y-79181545D01*
X36757142Y-79181545D02*
X36757142Y-79310117D01*
X36757142Y-79310117D02*
X36799999Y-79395831D01*
X36799999Y-79395831D02*
X36842856Y-79438688D01*
X36842856Y-79438688D02*
X36928571Y-79481545D01*
X36928571Y-79481545D02*
X37271428Y-79481545D01*
X36371428Y-79567260D02*
X35685714Y-79567260D01*
X35085713Y-79010117D02*
X34914285Y-79010117D01*
X34914285Y-79010117D02*
X34828570Y-79052974D01*
X34828570Y-79052974D02*
X34742856Y-79138688D01*
X34742856Y-79138688D02*
X34699999Y-79310117D01*
X34699999Y-79310117D02*
X34699999Y-79610117D01*
X34699999Y-79610117D02*
X34742856Y-79781545D01*
X34742856Y-79781545D02*
X34828570Y-79867260D01*
X34828570Y-79867260D02*
X34914285Y-79910117D01*
X34914285Y-79910117D02*
X35085713Y-79910117D01*
X35085713Y-79910117D02*
X35171428Y-79867260D01*
X35171428Y-79867260D02*
X35257142Y-79781545D01*
X35257142Y-79781545D02*
X35299999Y-79610117D01*
X35299999Y-79610117D02*
X35299999Y-79310117D01*
X35299999Y-79310117D02*
X35257142Y-79138688D01*
X35257142Y-79138688D02*
X35171428Y-79052974D01*
X35171428Y-79052974D02*
X35085713Y-79010117D01*
X34314285Y-79010117D02*
X34314285Y-79738688D01*
X34314285Y-79738688D02*
X34271428Y-79824402D01*
X34271428Y-79824402D02*
X34228571Y-79867260D01*
X34228571Y-79867260D02*
X34142856Y-79910117D01*
X34142856Y-79910117D02*
X33971428Y-79910117D01*
X33971428Y-79910117D02*
X33885713Y-79867260D01*
X33885713Y-79867260D02*
X33842856Y-79824402D01*
X33842856Y-79824402D02*
X33799999Y-79738688D01*
X33799999Y-79738688D02*
X33799999Y-79010117D01*
X33499999Y-79010117D02*
X32985714Y-79010117D01*
X33242856Y-79910117D02*
X33242856Y-79010117D01*
M02*
