M48
; DRILL file KiCad 10.0.5 date 2026-08-30T12:15:25
; FORMAT={-:-/ absolute / metric / decimal}
; #@! TF.CreationDate,2026-08-30T12:15:25+07:00
; #@! TF.GenerationSoftware,Kicad,Pcbnew,10.0.5
; #@! TF.FileFunction,Plated,1,2,PTH
FMAT,2
METRIC
; #@! TA.AperFunction,Plated,PTH,ViaDrill
T1C0.300
; #@! TA.AperFunction,Plated,PTH,ViaDrill
T2C0.400
; #@! TA.AperFunction,Plated,PTH,ComponentDrill
T3C0.762
; #@! TA.AperFunction,Plated,PTH,ComponentDrill
T4C0.800
; #@! TA.AperFunction,Plated,PTH,ComponentDrill
T5C1.000
; #@! TA.AperFunction,Plated,PTH,ComponentDrill
T6C1.750
%
G90
G05
T1
X25.45Y-30.45
X25.45Y-35.45
X25.45Y-40.45
X25.45Y-45.45
X25.45Y-50.45
X25.45Y-55.45
X25.45Y-60.45
X25.45Y-65.45
X25.45Y-80.45
X25.45Y-85.45
X25.45Y-90.45
X25.45Y-95.45
X30.45Y-25.45
X30.45Y-30.45
X30.45Y-35.45
X30.45Y-40.45
X30.45Y-45.45
X30.45Y-50.45
X30.45Y-55.45
X30.45Y-60.45
X30.45Y-65.45
X30.45Y-70.45
X30.45Y-75.45
X30.45Y-80.45
X30.45Y-85.45
X30.45Y-90.45
X30.45Y-95.45
X30.45Y-100.45
X35.45Y-25.45
X35.45Y-30.45
X35.45Y-35.45
X35.45Y-40.45
X35.45Y-45.45
X35.45Y-50.45
X35.45Y-55.45
X35.45Y-60.45
X35.45Y-65.45
X35.45Y-70.45
X35.45Y-75.45
X35.45Y-80.45
X35.45Y-85.45
X35.45Y-90.45
X35.45Y-95.45
X35.45Y-100.45
X40.45Y-25.45
X40.45Y-30.45
X40.45Y-35.45
X40.45Y-40.45
X40.45Y-50.45
X40.45Y-55.45
X40.45Y-60.45
X40.45Y-65.45
X40.45Y-70.45
X40.45Y-75.45
X40.45Y-80.45
X40.45Y-85.45
X40.45Y-90.45
X40.45Y-95.45
X40.45Y-100.45
X45.45Y-25.45
X45.45Y-30.45
X45.45Y-35.45
X45.45Y-40.45
X45.45Y-100.45
X46.968Y-64.816
X47.934Y-64.557
X50.45Y-25.45
X50.45Y-30.45
X50.45Y-35.45
X50.45Y-40.45
X50.45Y-50.45
X50.45Y-55.45
X50.45Y-60.45
X50.45Y-65.45
X50.45Y-80.45
X50.45Y-85.45
X50.45Y-90.45
X50.45Y-95.45
X50.45Y-100.45
X55.45Y-25.45
X55.45Y-30.45
X55.45Y-35.45
X55.45Y-40.45
X55.45Y-50.45
X55.45Y-55.45
X55.45Y-60.45
X55.45Y-75.45
X55.45Y-85.45
X55.45Y-90.45
X55.45Y-95.45
X55.45Y-100.45
X60.45Y-25.45
X60.45Y-30.45
X60.45Y-35.45
X60.45Y-40.45
X60.45Y-50.45
X60.45Y-55.45
X60.45Y-65.45
X60.45Y-75.45
X60.45Y-85.45
X60.45Y-90.45
X60.45Y-95.45
X60.45Y-100.45
X62.28Y-41.185
X63.246Y-40.926
X64.316Y-41.035
X65.216Y-41.035
X65.292Y-68.11
X65.45Y-30.45
X65.45Y-35.45
X65.45Y-85.45
X65.45Y-90.45
X65.45Y-95.45
X65.45Y-100.45
X66.292Y-68.11
X70.45Y-25.45
X70.45Y-30.45
X70.45Y-35.45
X70.45Y-45.45
X70.45Y-50.45
X70.45Y-55.45
X70.45Y-60.45
X70.45Y-65.45
X70.45Y-75.45
X70.45Y-85.45
X70.45Y-90.45
X70.45Y-95.45
X70.45Y-100.45
X75.45Y-25.45
X75.45Y-30.45
X75.45Y-35.45
X75.45Y-45.45
X75.45Y-50.45
X75.45Y-55.45
X75.45Y-60.45
X75.45Y-65.45
X75.45Y-75.45
X75.45Y-85.45
X75.45Y-90.45
X75.45Y-95.45
X75.45Y-100.45
X80.45Y-25.45
X80.45Y-30.45
X80.45Y-35.45
X80.45Y-45.45
X80.45Y-50.45
X80.45Y-55.45
X80.45Y-60.45
X80.45Y-65.45
X80.45Y-70.45
X80.45Y-75.45
X80.45Y-85.45
X80.45Y-95.45
X80.45Y-100.45
X85.45Y-25.45
X85.45Y-30.45
X85.45Y-35.45
X85.45Y-45.45
X85.45Y-50.45
X85.45Y-55.45
X85.45Y-60.45
X85.45Y-65.45
X85.45Y-70.45
X85.45Y-75.45
X85.45Y-85.45
X85.45Y-95.45
X85.45Y-100.45
X90.45Y-25.45
X90.45Y-30.45
X90.45Y-35.45
X90.45Y-45.45
X90.45Y-50.45
X90.45Y-55.45
X90.45Y-60.45
X90.45Y-65.45
X90.45Y-70.45
X90.45Y-95.45
X90.45Y-100.45
X95.45Y-25.45
X95.45Y-30.45
X95.45Y-35.45
X95.45Y-45.45
X95.45Y-50.45
X95.45Y-55.45
X95.45Y-60.45
X95.45Y-65.45
X95.45Y-70.45
X95.45Y-75.45
X95.45Y-80.45
X95.45Y-85.45
X95.45Y-90.45
X95.45Y-100.45
X100.45Y-25.45
X100.45Y-30.45
X100.45Y-35.45
X100.45Y-45.45
X100.45Y-50.45
X100.45Y-55.45
X100.45Y-60.45
X100.45Y-65.45
X100.45Y-70.45
X100.45Y-75.45
X100.45Y-80.45
X100.45Y-85.45
X100.45Y-90.45
X100.45Y-95.45
X100.45Y-100.45
X105.45Y-25.45
X105.45Y-30.45
X105.45Y-35.45
X105.45Y-45.45
X105.45Y-50.45
X105.45Y-55.45
X105.45Y-60.45
X105.45Y-65.45
X105.45Y-70.45
X105.45Y-75.45
X105.45Y-80.45
X105.45Y-85.45
X105.45Y-90.45
X105.45Y-95.45
X105.45Y-100.45
X110.45Y-25.45
X110.45Y-30.45
X110.45Y-35.45
X110.45Y-45.45
X110.45Y-50.45
X110.45Y-55.45
X110.45Y-60.45
X110.45Y-65.45
X110.45Y-70.45
X110.45Y-75.45
X110.45Y-80.45
X110.45Y-85.45
X110.45Y-90.45
X110.45Y-95.45
X110.45Y-100.45
X115.45Y-25.45
X115.45Y-30.45
X115.45Y-35.45
X115.45Y-45.45
X115.45Y-50.45
X115.45Y-55.45
X115.45Y-60.45
X115.45Y-65.45
X115.45Y-70.45
X115.45Y-90.45
X115.45Y-95.45
X115.45Y-100.45
X120.45Y-25.45
X120.45Y-30.45
X120.45Y-35.45
X120.45Y-40.45
X120.45Y-45.45
X120.45Y-50.45
X120.45Y-55.45
X120.45Y-60.45
X120.45Y-65.45
X120.45Y-70.45
X120.45Y-75.45
X120.45Y-80.45
X120.45Y-85.45
X120.45Y-90.45
X120.45Y-95.45
T2
X21.95Y-21.95
X21.95Y-31.95
X21.95Y-41.95
X21.95Y-81.95
X23.0Y-38.0
X31.95Y-21.95
X31.95Y-31.95
X31.95Y-41.95
X31.95Y-51.95
X31.95Y-61.95
X31.95Y-81.95
X31.95Y-91.95
X33.0Y-38.0
X33.0Y-48.0
X33.0Y-58.0
X38.895Y-65.376
X41.95Y-21.95
X41.95Y-41.95
X41.95Y-51.95
X41.95Y-61.95
X44.74Y-94.76
X105.5Y-63.0
X105.5Y-73.0
X105.5Y-83.0
X112.0Y-27.0
X112.0Y-37.0
X112.0Y-47.0
X115.5Y-63.0
X122.0Y-27.0
X122.0Y-47.0
T3
X65.0Y-59.22
X65.0Y-61.76
X65.0Y-64.3
X65.0Y-66.84
X65.0Y-69.38
X65.0Y-71.92
X65.0Y-74.46
X65.0Y-77.0
T4
X23.0Y-48.0
X23.0Y-50.54
X23.0Y-53.08
X23.0Y-55.62
X23.0Y-58.16
X23.0Y-60.7
X23.0Y-63.24
X23.0Y-65.78
X23.0Y-68.32
X23.0Y-70.86
X23.0Y-73.4
X23.0Y-75.94
X23.0Y-78.48
X23.0Y-81.02
X23.0Y-83.56
X23.0Y-86.1
X23.0Y-88.64
X23.0Y-91.18
X23.0Y-93.72
X48.396Y-91.177
X48.396Y-93.717
X48.4Y-48.0
X48.4Y-50.54
X48.4Y-53.08
X48.4Y-55.62
X48.4Y-58.16
X48.4Y-60.7
X48.4Y-63.24
X48.4Y-65.78
X48.4Y-68.32
X48.4Y-70.86
X48.4Y-73.4
X48.4Y-75.94
X48.4Y-78.48
X48.4Y-81.02
X48.4Y-83.56
X48.4Y-86.1
X48.4Y-88.64
X55.0Y-34.0
X58.5Y-34.0
T5
X81.0Y-91.0
X86.0Y-91.0
X93.426Y-70.476
X93.426Y-73.016
X93.426Y-75.556
X93.426Y-78.096
X93.426Y-80.636
X93.426Y-83.176
X115.5Y-73.0
X115.5Y-75.54
X115.5Y-78.08
X115.5Y-80.62
X115.5Y-83.16
X115.5Y-85.7
X122.0Y-31.92
X122.0Y-34.46
X122.0Y-37.0
X122.0Y-39.54
X122.0Y-42.08
T6
X60.0Y-98.0
X65.4Y-98.0
X105.0Y-98.0
X110.4Y-98.0
M30
