M48
; DRILL file KiCad 10.0.5 date 2026-09-10T11:57:11
; FORMAT={-:-/ absolute / metric / decimal}
; #@! TF.CreationDate,2026-09-10T11:57:11+07:00
; #@! TF.GenerationSoftware,Kicad,Pcbnew,10.0.5
; #@! TF.FileFunction,Plated,1,2,PTH
FMAT,2
METRIC
; #@! TA.AperFunction,Plated,PTH,ViaDrill
T1C0.300
; #@! TA.AperFunction,Plated,PTH,ComponentDrill
T2C0.800
; #@! TA.AperFunction,Plated,PTH,ComponentDrill
T3C1.000
; #@! TA.AperFunction,Plated,PTH,ComponentDrill
T4C1.750
%
G90
G05
T1
X25.45Y-30.45
X25.45Y-35.45
X25.45Y-55.45
X25.45Y-60.45
X25.45Y-65.45
X25.45Y-75.45
X25.45Y-80.45
X30.45Y-25.45
X30.45Y-30.45
X30.45Y-35.45
X30.45Y-45.45
X30.45Y-50.45
X30.45Y-55.45
X31.325Y-40.893
X32.811Y-61.338
X34.411Y-61.338
X35.45Y-25.45
X35.45Y-30.45
X35.45Y-35.45
X35.45Y-45.45
X35.45Y-50.45
X35.45Y-55.45
X40.45Y-25.45
X40.45Y-30.45
X40.45Y-35.45
X40.45Y-45.45
X40.45Y-50.45
X40.45Y-55.45
X44.0Y-72.5
X44.0Y-74.1
X45.45Y-25.45
X45.45Y-30.45
X45.45Y-45.45
X45.45Y-50.45
X47.164Y-68.606
X47.987Y-70.119
X48.1Y-68.771
X48.4Y-77.12
X48.565Y-78.056
X49.102Y-71.733
X49.427Y-70.84
X50.45Y-25.45
X50.45Y-45.45
X50.45Y-50.45
X55.45Y-25.45
X55.45Y-35.45
X55.45Y-45.45
X55.45Y-50.45
X55.45Y-55.45
X55.45Y-75.45
X55.45Y-80.45
X60.45Y-25.45
X60.45Y-30.45
X60.45Y-35.45
X60.45Y-45.45
X60.45Y-50.45
X60.45Y-55.45
X60.45Y-80.45
X65.45Y-25.45
X65.45Y-30.45
X65.45Y-35.45
X65.45Y-45.45
X65.45Y-50.45
X65.45Y-55.45
X65.45Y-65.45
X65.45Y-75.45
X65.45Y-80.45
X70.45Y-25.45
X70.45Y-30.45
X70.45Y-35.45
X70.45Y-45.45
X70.45Y-50.45
X70.45Y-55.45
X70.45Y-65.45
X70.45Y-75.45
X70.45Y-80.45
X75.45Y-25.45
X75.45Y-30.45
X75.45Y-35.45
X75.45Y-65.45
X75.45Y-75.45
X75.45Y-80.45
X76.95Y-57.8
X76.95Y-60.0
X80.45Y-25.45
X80.45Y-30.45
X80.45Y-35.45
X80.45Y-45.45
X80.45Y-50.45
X80.45Y-55.45
X80.45Y-60.45
X80.45Y-65.45
X80.45Y-75.45
X80.45Y-80.45
X85.45Y-25.45
X85.45Y-30.45
X85.45Y-35.45
X85.45Y-40.45
X85.45Y-45.45
X85.45Y-50.45
X85.45Y-55.45
X85.45Y-60.45
X85.45Y-65.45
X85.45Y-70.45
X85.45Y-75.45
X85.45Y-80.45
X90.45Y-30.45
X90.45Y-35.45
X90.45Y-50.45
X90.45Y-55.45
X90.45Y-60.45
X90.45Y-65.45
X90.45Y-70.45
X90.45Y-80.45
T2
X45.5Y-36.0
X49.0Y-36.0
T3
X26.7Y-32.22
X26.7Y-34.76
X26.7Y-37.3
X26.7Y-39.84
X26.7Y-42.38
X26.7Y-44.92
X26.7Y-47.46
X26.7Y-50.0
X30.38Y-59.34
X30.38Y-61.88
X30.38Y-64.42
X30.38Y-66.96
X30.38Y-69.5
X30.38Y-72.04
X30.38Y-74.58
X30.38Y-77.12
X30.38Y-79.66
X45.62Y-59.34
X45.62Y-61.88
X45.62Y-64.42
X45.62Y-66.96
X45.62Y-69.5
X45.62Y-72.04
X45.62Y-74.58
X45.62Y-77.12
X45.62Y-79.66
X51.0Y-66.0
X56.0Y-66.0
X61.126Y-64.746
X61.126Y-67.286
X61.126Y-69.826
X61.126Y-72.366
X61.126Y-74.906
X61.126Y-77.446
X83.2Y-62.222
X83.2Y-64.762
X83.2Y-67.302
X83.2Y-69.842
X83.2Y-72.382
X83.2Y-74.922
X88.0Y-38.69
X88.0Y-41.23
X88.0Y-43.77
X88.0Y-46.31
T4
X33.0Y-24.0
X38.4Y-24.0
X50.5Y-78.5
X55.9Y-78.5
M30
