%TF.GenerationSoftware,KiCad,Pcbnew,10.0.5*%
%TF.CreationDate,2026-08-30T11:49:37+07:00*%
%TF.ProjectId,vsmart-module-esp32-s3-mini,76736d61-7274-42d6-9d6f-64756c652d65,rev?*%
%TF.SameCoordinates,Original*%
%TF.FileFunction,Copper,L1,Top*%
%TF.FilePolarity,Positive*%
%FSLAX46Y46*%
G04 Gerber Fmt 4.6, Leading zero omitted, Abs format (unit mm)*
G04 Created by KiCad (PCBNEW 10.0.5) date 2026-08-30 11:49:37*
%MOMM*%
%LPD*%
G01*
G04 APERTURE LIST*
G04 Aperture macros list*
%AMRoundRect*
0 Rectangle with rounded corners*
0 $1 Rounding radius*
0 $2 $3 $4 $5 $6 $7 $8 $9 X,Y pos of 4 corners*
0 Add a 4 corners polygon primitive as box body*
4,1,4,$2,$3,$4,$5,$6,$7,$8,$9,$2,$3,0*
0 Add four circle primitives for the rounded corners*
1,1,$1+$1,$2,$3*
1,1,$1+$1,$4,$5*
1,1,$1+$1,$6,$7*
1,1,$1+$1,$8,$9*
0 Add four rect primitives between the rounded corners*
20,1,$1+$1,$2,$3,$4,$5,0*
20,1,$1+$1,$4,$5,$6,$7,0*
20,1,$1+$1,$6,$7,$8,$9,0*
20,1,$1+$1,$8,$9,$2,$3,0*%
G04 Aperture macros list end*
%TA.AperFunction,ComponentPad*%
%ADD10RoundRect,0.250000X-1.125000X-1.125000X1.125000X-1.125000X1.125000X1.125000X-1.125000X1.125000X0*%
%TD*%
%TA.AperFunction,ComponentPad*%
%ADD11C,2.750000*%
%TD*%
%TA.AperFunction,ComponentPad*%
%ADD12RoundRect,0.250000X-0.550000X-0.550000X0.550000X-0.550000X0.550000X0.550000X-0.550000X0.550000X0*%
%TD*%
%TA.AperFunction,ComponentPad*%
%ADD13C,1.600000*%
%TD*%
%TA.AperFunction,ComponentPad*%
%ADD14C,1.800000*%
%TD*%
%TA.AperFunction,ComponentPad*%
%ADD15R,1.800000X1.800000*%
%TD*%
%TA.AperFunction,ComponentPad*%
%ADD16RoundRect,0.250000X-0.750000X-0.750000X0.750000X-0.750000X0.750000X0.750000X-0.750000X0.750000X0*%
%TD*%
%TA.AperFunction,ComponentPad*%
%ADD17C,2.000000*%
%TD*%
%TA.AperFunction,ComponentPad*%
%ADD18C,1.524000*%
%TD*%
%TA.AperFunction,ComponentPad*%
%ADD19O,1.800000X1.800000*%
%TD*%
%TA.AperFunction,ComponentPad*%
%ADD20RoundRect,0.250000X1.125000X-1.125000X1.125000X1.125000X-1.125000X1.125000X-1.125000X-1.125000X0*%
%TD*%
%TA.AperFunction,ComponentPad*%
%ADD21R,1.700000X1.700000*%
%TD*%
%TA.AperFunction,ComponentPad*%
%ADD22O,1.700000X1.700000*%
%TD*%
%TA.AperFunction,ViaPad*%
%ADD23C,0.600000*%
%TD*%
%TA.AperFunction,Conductor*%
%ADD24C,2.000000*%
%TD*%
%TA.AperFunction,Conductor*%
%ADD25C,1.000000*%
%TD*%
%TA.AperFunction,Conductor*%
%ADD26C,0.400000*%
%TD*%
%TA.AperFunction,Conductor*%
%ADD27C,0.300000*%
%TD*%
%TA.AperFunction,Conductor*%
%ADD28C,0.250000*%
%TD*%
G04 APERTURE END LIST*
D10*
%TO.P,J2,1*%
%TO.N,+5V_SIM*%
X50500000Y-78500000D03*
D11*
%TO.P,J2,2*%
%TO.N,GND*%
X55900000Y-78500000D03*
%TD*%
D12*
%TO.P,C3,1*%
%TO.N,+5V*%
X52500000Y-42000000D03*
D13*
%TO.P,C3,2*%
%TO.N,GND*%
X56000000Y-42000000D03*
%TD*%
D14*
%TO.P,U1,1*%
%TO.N,N/C*%
X30380000Y-64420000D03*
%TO.P,U1,2*%
X30380000Y-66960000D03*
%TO.P,U1,3*%
X30380000Y-69500000D03*
%TO.P,U1,3V3*%
%TO.N,+3V3*%
X45620000Y-64420000D03*
%TO.P,U1,4*%
%TO.N,N/C*%
X30380000Y-72040000D03*
%TO.P,U1,5*%
X30380000Y-74580000D03*
D15*
%TO.P,U1,5V*%
%TO.N,+5V*%
X45620000Y-59340000D03*
D14*
%TO.P,U1,6*%
%TO.N,SIM_RX*%
X30380000Y-77120000D03*
%TO.P,U1,7*%
%TO.N,SIM_TX*%
X30380000Y-79660000D03*
%TO.P,U1,8*%
%TO.N,I2C_SDA*%
X45620000Y-79660000D03*
%TO.P,U1,9*%
%TO.N,I2C_SCL*%
X45620000Y-77120000D03*
%TO.P,U1,10*%
%TO.N,MPU_INT*%
X45620000Y-74580000D03*
%TO.P,U1,11*%
%TO.N,SIM_DTR*%
X45620000Y-72040000D03*
%TO.P,U1,12*%
%TO.N,SIM_RST*%
X45620000Y-69500000D03*
%TO.P,U1,13*%
%TO.N,SIM_RI*%
X45620000Y-66960000D03*
%TO.P,U1,GND*%
%TO.N,GND*%
X45620000Y-61880000D03*
%TO.P,U1,RX*%
%TO.N,GPS_RX*%
X30380000Y-61880000D03*
%TO.P,U1,TX*%
%TO.N,GPS_TX*%
X30380000Y-59340000D03*
%TD*%
D16*
%TO.P,C1,1*%
%TO.N,+5V_SIM*%
X51000000Y-66000000D03*
D17*
%TO.P,C1,2*%
%TO.N,GND*%
X56000000Y-66000000D03*
%TD*%
D18*
%TO.P,U2,1*%
%TO.N,+3V3*%
X26700000Y-32220000D03*
%TO.P,U2,2*%
%TO.N,GND*%
X26700000Y-34760000D03*
%TO.P,U2,3*%
%TO.N,I2C_SCL*%
X26700000Y-37300000D03*
%TO.P,U2,4*%
%TO.N,I2C_SDA*%
X26700000Y-39840000D03*
%TO.P,U2,5*%
%TO.N,N/C*%
X26700000Y-42380000D03*
%TO.P,U2,6*%
X26700000Y-44920000D03*
%TO.P,U2,7*%
%TO.N,GND*%
X26700000Y-47460000D03*
%TO.P,U2,8*%
%TO.N,MPU_INT*%
X26700000Y-50000000D03*
%TD*%
D15*
%TO.P,U3,1*%
%TO.N,+3V3*%
X83500000Y-38690000D03*
D19*
%TO.P,U3,2*%
%TO.N,GPS_TX*%
X83500000Y-41230000D03*
%TO.P,U3,3*%
%TO.N,GPS_RX*%
X83500000Y-43770000D03*
%TO.P,U3,4*%
%TO.N,GND*%
X83500000Y-46310000D03*
%TD*%
D20*
%TO.P,J1,1*%
%TO.N,+5V*%
X53500000Y-30000000D03*
D11*
%TO.P,J1,2*%
%TO.N,GND*%
X53500000Y-24600000D03*
%TD*%
D21*
%TO.P,U4,1*%
%TO.N,SIM_RI*%
X83200000Y-65000000D03*
D22*
%TO.P,U4,2*%
%TO.N,SIM_DTR*%
X83200000Y-67540000D03*
%TO.P,U4,3*%
%TO.N,N/C*%
X83200000Y-70080000D03*
%TO.P,U4,4*%
X83200000Y-72620000D03*
%TO.P,U4,5*%
X83200000Y-75160000D03*
%TO.P,U4,6*%
X83200000Y-77700000D03*
D21*
%TO.P,U4,7*%
X61126400Y-62476000D03*
D22*
%TO.P,U4,8*%
%TO.N,+5V_SIM*%
X61126400Y-65016000D03*
%TO.P,U4,9*%
%TO.N,SIM_RST*%
X61126400Y-67556000D03*
%TO.P,U4,10*%
%TO.N,SIM_TX*%
X61126400Y-70096000D03*
%TO.P,U4,11*%
%TO.N,SIM_RX*%
X61126400Y-72636000D03*
%TO.P,U4,12*%
%TO.N,GND*%
X61126400Y-75176000D03*
%TD*%
D23*
%TO.N,GND*%
X26950000Y-66950000D03*
X71950000Y-66950000D03*
X46500000Y-62500000D03*
X66950000Y-41950000D03*
X76900000Y-60000000D03*
X26950000Y-21950000D03*
X81950000Y-51950000D03*
X61950000Y-26950000D03*
X66950000Y-46950000D03*
X21950000Y-46950000D03*
X71950000Y-76950000D03*
X66950000Y-21950000D03*
X91950000Y-61950000D03*
X81950000Y-31950000D03*
X36950000Y-46950000D03*
X91950000Y-66950000D03*
X61950000Y-51950000D03*
X21950000Y-21950000D03*
X71950000Y-61950000D03*
X47200000Y-58100000D03*
X71950000Y-21950000D03*
X76950000Y-51950000D03*
X26950000Y-51950000D03*
X21950000Y-71950000D03*
X56950000Y-21950000D03*
X76950000Y-61950000D03*
X76900000Y-57800000D03*
X86950000Y-26950000D03*
X61950000Y-41950000D03*
X91950000Y-56950000D03*
X36950000Y-61950000D03*
X36950000Y-66950000D03*
X41950000Y-36950000D03*
X26950000Y-56950000D03*
X46950000Y-46950000D03*
X61950000Y-21950000D03*
X41950000Y-31950000D03*
X41950000Y-41950000D03*
X81950000Y-21950000D03*
X71950000Y-51950000D03*
X86950000Y-51950000D03*
X91950000Y-31950000D03*
X46950000Y-41950000D03*
X71950000Y-36950000D03*
X31950000Y-36950000D03*
X21950000Y-26950000D03*
X91950000Y-41950000D03*
X61950000Y-46950000D03*
X48400000Y-78000000D03*
X86950000Y-66950000D03*
X76950000Y-66950000D03*
X46950000Y-36950000D03*
X41950000Y-51950000D03*
X36950000Y-26950000D03*
X91950000Y-36950000D03*
X46950000Y-26950000D03*
X36950000Y-31950000D03*
X32200000Y-59700000D03*
X91950000Y-51950000D03*
X76950000Y-56950000D03*
X66950000Y-51950000D03*
X56950000Y-71950000D03*
X81950000Y-61950000D03*
X91950000Y-21950000D03*
X66950000Y-66950000D03*
X76950000Y-26950000D03*
X81950000Y-56950000D03*
X26950000Y-26950000D03*
X76950000Y-21950000D03*
X46950000Y-21950000D03*
X86950000Y-41950000D03*
X56950000Y-51950000D03*
X91950000Y-26950000D03*
X26950000Y-61950000D03*
X81950000Y-36950000D03*
X31950000Y-21950000D03*
X46950000Y-51950000D03*
X21950000Y-56950000D03*
X51950000Y-61950000D03*
X61950000Y-36950000D03*
X86950000Y-21950000D03*
X21950000Y-41950000D03*
X86950000Y-76950000D03*
X71950000Y-41950000D03*
X31950000Y-41950000D03*
X66950000Y-26950000D03*
X46950000Y-31950000D03*
X36950000Y-51950000D03*
X71950000Y-46950000D03*
X91950000Y-46950000D03*
X81950000Y-26950000D03*
X66950000Y-76950000D03*
X31950000Y-46950000D03*
X21950000Y-66950000D03*
X56950000Y-46950000D03*
X31950000Y-26950000D03*
X86950000Y-31950000D03*
X66950000Y-71950000D03*
X33800000Y-59700000D03*
X31950000Y-31950000D03*
X26950000Y-71950000D03*
X41950000Y-26950000D03*
X71950000Y-71950000D03*
X36950000Y-21950000D03*
X21950000Y-31950000D03*
X41950000Y-61950000D03*
X66950000Y-61950000D03*
X66950000Y-36950000D03*
X56950000Y-61950000D03*
X86950000Y-46950000D03*
X76950000Y-36950000D03*
X91950000Y-71950000D03*
X86950000Y-56950000D03*
X44000000Y-62300000D03*
X36950000Y-41950000D03*
X36950000Y-36950000D03*
X56950000Y-26950000D03*
X76950000Y-76950000D03*
X21950000Y-51950000D03*
X26950000Y-76950000D03*
X56950000Y-36950000D03*
X21950000Y-61950000D03*
X76950000Y-46950000D03*
X41950000Y-46950000D03*
X51950000Y-26950000D03*
X86950000Y-71950000D03*
X86950000Y-36950000D03*
X31950000Y-51950000D03*
X41950000Y-21950000D03*
X21950000Y-36950000D03*
X41950000Y-66950000D03*
X81950000Y-46950000D03*
X51950000Y-21950000D03*
X76950000Y-71950000D03*
X71950000Y-26950000D03*
X86950000Y-61950000D03*
%TO.N,+3V3*%
X31000000Y-40000000D03*
%TO.N,I2C_SCL*%
X48400000Y-77120000D03*
%TO.N,MPU_INT*%
X44000000Y-72500000D03*
X44000000Y-74100000D03*
%TO.N,SIM_RI*%
X47200000Y-59000000D03*
X47200000Y-62000000D03*
%TO.N,GPS_RX*%
X76000000Y-57800000D03*
X33800000Y-60610000D03*
X32200000Y-60610000D03*
X76000000Y-60000000D03*
%TD*%
%TO.N,+5V_SIM*%
D24*
X51000000Y-66000000D02*
X51000000Y-63500000D01*
X51000000Y-63500000D02*
X58500000Y-63500000D01*
X51000000Y-66000000D02*
X51000000Y-69500000D01*
X51000000Y-69500000D02*
X51000000Y-78500000D01*
X58500000Y-63500000D02*
X58500000Y-65016000D01*
X58500000Y-65016000D02*
X61126400Y-65016000D01*
X51000000Y-78500000D02*
X50500000Y-78500000D01*
%TO.N,+5V*%
D25*
X45620000Y-56000000D02*
X45620000Y-59340000D01*
X51000000Y-32500000D02*
X51000000Y-42000000D01*
X51000000Y-42000000D02*
X52500000Y-42000000D01*
X53500000Y-30000000D02*
X51000000Y-30000000D01*
X52500000Y-42000000D02*
X52500000Y-56000000D01*
X51000000Y-30000000D02*
X51000000Y-32500000D01*
X52500000Y-56000000D02*
X45620000Y-56000000D01*
%TO.N,+3V3*%
D26*
X29000000Y-32220000D02*
X26700000Y-32220000D01*
X43000000Y-64420000D02*
X43000000Y-65690000D01*
D27*
X43000000Y-65690000D02*
X29000000Y-65690000D01*
D26*
X45620000Y-64420000D02*
X43000000Y-64420000D01*
X29000000Y-65690000D02*
X29000000Y-40000000D01*
X29000000Y-40000000D02*
X29000000Y-32220000D01*
X29000000Y-40000000D02*
X31000000Y-40000000D01*
%TO.N,I2C_SDA*%
D28*
X47400000Y-75870000D02*
X27800000Y-75870000D01*
X47400000Y-79660000D02*
X47400000Y-75870000D01*
X27800000Y-39840000D02*
X26700000Y-39840000D01*
X27800000Y-75870000D02*
X27800000Y-39840000D01*
X45620000Y-79660000D02*
X47400000Y-79660000D01*
%TO.N,I2C_SCL*%
X48400000Y-70770000D02*
X28400000Y-70770000D01*
X28400000Y-37300000D02*
X26700000Y-37300000D01*
X28400000Y-70770000D02*
X28400000Y-37300000D01*
X48400000Y-77120000D02*
X48400000Y-70770000D01*
%TO.N,MPU_INT*%
X44000000Y-74100000D02*
X44000000Y-72500000D01*
%TO.N,SIM_RI*%
X47200000Y-62000000D02*
X47200000Y-59000000D01*
%TO.N,GPS_RX*%
X76000000Y-60000000D02*
X76000000Y-57800000D01*
X32200000Y-60610000D02*
X33800000Y-60610000D01*
%TD*%
%TA.AperFunction,Conductor*%
%TO.N,GND*%
G36*
X91002992Y-20500681D02*
G01*
X91295309Y-20518362D01*
X91307164Y-20519802D01*
X91592280Y-20572051D01*
X91603882Y-20574911D01*
X91880623Y-20661147D01*
X91891786Y-20665380D01*
X92152200Y-20782583D01*
X92156118Y-20784347D01*
X92166690Y-20789895D01*
X92414770Y-20939864D01*
X92424583Y-20946638D01*
X92652755Y-21125400D01*
X92661704Y-21133327D01*
X92866672Y-21338295D01*
X92874599Y-21347244D01*
X93053356Y-21575409D01*
X93060138Y-21585233D01*
X93210100Y-21833303D01*
X93215652Y-21843881D01*
X93334616Y-22108206D01*
X93338855Y-22119384D01*
X93425087Y-22396114D01*
X93427948Y-22407722D01*
X93480196Y-22692828D01*
X93481637Y-22704695D01*
X93499319Y-22997006D01*
X93499500Y-23002984D01*
X93499500Y-78997015D01*
X93499319Y-79002993D01*
X93481637Y-79295304D01*
X93480196Y-79307171D01*
X93427948Y-79592277D01*
X93425087Y-79603885D01*
X93338855Y-79880615D01*
X93334616Y-79891793D01*
X93215652Y-80156118D01*
X93210096Y-80166703D01*
X93060142Y-80414758D01*
X93053356Y-80424590D01*
X92874599Y-80652755D01*
X92866672Y-80661704D01*
X92661704Y-80866672D01*
X92652755Y-80874599D01*
X92424590Y-81053356D01*
X92414758Y-81060142D01*
X92177212Y-81203744D01*
X92166703Y-81210097D01*
X92156118Y-81215652D01*
X91891793Y-81334616D01*
X91880615Y-81338855D01*
X91603885Y-81425087D01*
X91592277Y-81427948D01*
X91307171Y-81480196D01*
X91295304Y-81481637D01*
X91023993Y-81498048D01*
X91002991Y-81499319D01*
X90997015Y-81499500D01*
X44599000Y-81499500D01*
X44540809Y-81480593D01*
X44504845Y-81431093D01*
X44500000Y-81400500D01*
X44500000Y-80465555D01*
X44518907Y-80407364D01*
X44568407Y-80371400D01*
X44629593Y-80371400D01*
X44679091Y-80407362D01*
X44704310Y-80442073D01*
X44837927Y-80575690D01*
X44990801Y-80686760D01*
X45159168Y-80772547D01*
X45338882Y-80830940D01*
X45338883Y-80830940D01*
X45338886Y-80830941D01*
X45525516Y-80860500D01*
X45525519Y-80860500D01*
X45714484Y-80860500D01*
X45901113Y-80830941D01*
X45901114Y-80830940D01*
X45901118Y-80830940D01*
X46080832Y-80772547D01*
X46249199Y-80686760D01*
X46402073Y-80575690D01*
X46535690Y-80442073D01*
X46646760Y-80289199D01*
X46723007Y-80139554D01*
X46766272Y-80096290D01*
X46811217Y-80085500D01*
X47456016Y-80085500D01*
X47456018Y-80085500D01*
X47564237Y-80056503D01*
X47564239Y-80056501D01*
X47564241Y-80056501D01*
X47593064Y-80039859D01*
X47661263Y-80000485D01*
X47740485Y-79921263D01*
X47780718Y-79851578D01*
X47796501Y-79824241D01*
X47796501Y-79824239D01*
X47796503Y-79824237D01*
X47825500Y-79716018D01*
X47825500Y-77633743D01*
X47844407Y-77575552D01*
X47893907Y-77539588D01*
X47955093Y-77539588D01*
X47994501Y-77563737D01*
X48031284Y-77600520D01*
X48168216Y-77679577D01*
X48320943Y-77720500D01*
X48320945Y-77720500D01*
X48479055Y-77720500D01*
X48479057Y-77720500D01*
X48631784Y-77679577D01*
X48676000Y-77654048D01*
X48735848Y-77641327D01*
X48791744Y-77666213D01*
X48822337Y-77719201D01*
X48824500Y-77739785D01*
X48824500Y-79668106D01*
X48835123Y-79756565D01*
X48890637Y-79897339D01*
X48890638Y-79897341D01*
X48890639Y-79897342D01*
X48982078Y-80017922D01*
X49102658Y-80109361D01*
X49102659Y-80109361D01*
X49102660Y-80109362D01*
X49131746Y-80120832D01*
X49243436Y-80164877D01*
X49331898Y-80175500D01*
X49331900Y-80175500D01*
X51668100Y-80175500D01*
X51668102Y-80175500D01*
X51756564Y-80164877D01*
X51897342Y-80109361D01*
X52017922Y-80017922D01*
X52109361Y-79897342D01*
X52164877Y-79756564D01*
X52175500Y-79668102D01*
X52175500Y-79081314D01*
X52186291Y-79036368D01*
X52205220Y-78999219D01*
X52268477Y-78804534D01*
X52274547Y-78766211D01*
X52300500Y-78602355D01*
X52300500Y-78377105D01*
X54025000Y-78377105D01*
X54025000Y-78622894D01*
X54057081Y-78866571D01*
X54057081Y-78866576D01*
X54120695Y-79103984D01*
X54120699Y-79103997D01*
X54214753Y-79331067D01*
X54214755Y-79331072D01*
X54337647Y-79543926D01*
X54409229Y-79637215D01*
X55127545Y-78918898D01*
X55220343Y-79057780D01*
X55342220Y-79179657D01*
X55481099Y-79272452D01*
X54762783Y-79990769D01*
X54856073Y-80062352D01*
X55068927Y-80185244D01*
X55068932Y-80185246D01*
X55296002Y-80279300D01*
X55296015Y-80279304D01*
X55533425Y-80342918D01*
X55777105Y-80374999D01*
X55777107Y-80375000D01*
X56022893Y-80375000D01*
X56022894Y-80374999D01*
X56266571Y-80342918D01*
X56266576Y-80342918D01*
X56503984Y-80279304D01*
X56503997Y-80279300D01*
X56731067Y-80185246D01*
X56731072Y-80185244D01*
X56943922Y-80062355D01*
X57037215Y-79990769D01*
X56318899Y-79272453D01*
X56457780Y-79179657D01*
X56579657Y-79057780D01*
X56672453Y-78918899D01*
X57390769Y-79637215D01*
X57462355Y-79543922D01*
X57585244Y-79331072D01*
X57585246Y-79331067D01*
X57679300Y-79103997D01*
X57679304Y-79103984D01*
X57742918Y-78866576D01*
X57742918Y-78866571D01*
X57774999Y-78622894D01*
X57775000Y-78622893D01*
X57775000Y-78477579D01*
X60225900Y-78477579D01*
X60225900Y-78674420D01*
X60256689Y-78868821D01*
X60317516Y-79056025D01*
X60390450Y-79199168D01*
X60406876Y-79231405D01*
X60522572Y-79390646D01*
X60661754Y-79529828D01*
X60820995Y-79645524D01*
X60996375Y-79734884D01*
X61183574Y-79795709D01*
X61183575Y-79795709D01*
X61183578Y-79795710D01*
X61377980Y-79826500D01*
X61377983Y-79826500D01*
X61574820Y-79826500D01*
X61769221Y-79795710D01*
X61769222Y-79795709D01*
X61769226Y-79795709D01*
X61956425Y-79734884D01*
X62131805Y-79645524D01*
X62291046Y-79529828D01*
X62430228Y-79390646D01*
X62545924Y-79231405D01*
X62635284Y-79056025D01*
X62696109Y-78868826D01*
X62696110Y-78868821D01*
X62726900Y-78674420D01*
X62726900Y-78477579D01*
X62696110Y-78283178D01*
X62679659Y-78232547D01*
X62635284Y-78095975D01*
X62545924Y-77920595D01*
X62430228Y-77761354D01*
X62291046Y-77622172D01*
X62273536Y-77609450D01*
X82049500Y-77609450D01*
X82049500Y-77790549D01*
X82077828Y-77969406D01*
X82133788Y-78141637D01*
X82210513Y-78292219D01*
X82216004Y-78302994D01*
X82322447Y-78449501D01*
X82450499Y-78577553D01*
X82597006Y-78683996D01*
X82758361Y-78766211D01*
X82930591Y-78822171D01*
X83002136Y-78833502D01*
X83109451Y-78850500D01*
X83109454Y-78850500D01*
X83290549Y-78850500D01*
X83379977Y-78836335D01*
X83469409Y-78822171D01*
X83641639Y-78766211D01*
X83802994Y-78683996D01*
X83949501Y-78577553D01*
X84077553Y-78449501D01*
X84183996Y-78302994D01*
X84266211Y-78141639D01*
X84322171Y-77969409D01*
X84338333Y-77867364D01*
X84350500Y-77790549D01*
X84350500Y-77609450D01*
X84322171Y-77430593D01*
X84322171Y-77430591D01*
X84266211Y-77258361D01*
X84183996Y-77097006D01*
X84077553Y-76950499D01*
X84005764Y-76878710D01*
X88149500Y-76878710D01*
X88149500Y-77121289D01*
X88181161Y-77361781D01*
X88181161Y-77361786D01*
X88243944Y-77596092D01*
X88243948Y-77596105D01*
X88336772Y-77820204D01*
X88336774Y-77820208D01*
X88336776Y-77820212D01*
X88422915Y-77969409D01*
X88458066Y-78030292D01*
X88605729Y-78222731D01*
X88605731Y-78222733D01*
X88605735Y-78222738D01*
X88777262Y-78394265D01*
X88777266Y-78394268D01*
X88777268Y-78394270D01*
X88969707Y-78541933D01*
X88969711Y-78541936D01*
X89179788Y-78663224D01*
X89403900Y-78756054D01*
X89638211Y-78818838D01*
X89878712Y-78850500D01*
X89878713Y-78850500D01*
X90121287Y-78850500D01*
X90121288Y-78850500D01*
X90361789Y-78818838D01*
X90596100Y-78756054D01*
X90820212Y-78663224D01*
X91030289Y-78541936D01*
X91222738Y-78394265D01*
X91394265Y-78222738D01*
X91541936Y-78030289D01*
X91663224Y-77820212D01*
X91756054Y-77596100D01*
X91818838Y-77361789D01*
X91850500Y-77121288D01*
X91850500Y-76878712D01*
X91818838Y-76638211D01*
X91756054Y-76403900D01*
X91678391Y-76216406D01*
X91663227Y-76179795D01*
X91663226Y-76179794D01*
X91663224Y-76179788D01*
X91541936Y-75969711D01*
X91495736Y-75909502D01*
X91394270Y-75777268D01*
X91394268Y-75777266D01*
X91394265Y-75777262D01*
X91222738Y-75605735D01*
X91222733Y-75605731D01*
X91222731Y-75605729D01*
X91030292Y-75458066D01*
X91006795Y-75444500D01*
X90820212Y-75336776D01*
X90820208Y-75336774D01*
X90820204Y-75336772D01*
X90596105Y-75243948D01*
X90596104Y-75243947D01*
X90596100Y-75243946D01*
X90361789Y-75181162D01*
X90361786Y-75181161D01*
X90361784Y-75181161D01*
X90121289Y-75149500D01*
X90121288Y-75149500D01*
X89878712Y-75149500D01*
X89878710Y-75149500D01*
X89638218Y-75181161D01*
X89638213Y-75181161D01*
X89403907Y-75243944D01*
X89403894Y-75243948D01*
X89179795Y-75336772D01*
X88969707Y-75458066D01*
X88777268Y-75605729D01*
X88605729Y-75777268D01*
X88458066Y-75969707D01*
X88336772Y-76179795D01*
X88243948Y-76403894D01*
X88243944Y-76403907D01*
X88181161Y-76638213D01*
X88181161Y-76638218D01*
X88149500Y-76878710D01*
X84005764Y-76878710D01*
X83949501Y-76822447D01*
X83802994Y-76716004D01*
X83802993Y-76716003D01*
X83802991Y-76716002D01*
X83641637Y-76633788D01*
X83469406Y-76577828D01*
X83290549Y-76549500D01*
X83290546Y-76549500D01*
X83109454Y-76549500D01*
X83109451Y-76549500D01*
X82930593Y-76577828D01*
X82758362Y-76633788D01*
X82597008Y-76716002D01*
X82548451Y-76751281D01*
X82450499Y-76822447D01*
X82322447Y-76950499D01*
X82300717Y-76980408D01*
X82216002Y-77097008D01*
X82133788Y-77258362D01*
X82077828Y-77430593D01*
X82049500Y-77609450D01*
X62273536Y-77609450D01*
X62131805Y-77506476D01*
X62131804Y-77506475D01*
X62131802Y-77506474D01*
X61956425Y-77417116D01*
X61769221Y-77356289D01*
X61574820Y-77325500D01*
X61574817Y-77325500D01*
X61377983Y-77325500D01*
X61377980Y-77325500D01*
X61183578Y-77356289D01*
X60996374Y-77417116D01*
X60820997Y-77506474D01*
X60661755Y-77622171D01*
X60522571Y-77761355D01*
X60406874Y-77920597D01*
X60317516Y-78095974D01*
X60256689Y-78283178D01*
X60225900Y-78477579D01*
X57775000Y-78477579D01*
X57775000Y-78377107D01*
X57774999Y-78377105D01*
X57742918Y-78133428D01*
X57742918Y-78133423D01*
X57679304Y-77896015D01*
X57679300Y-77896002D01*
X57585246Y-77668932D01*
X57585244Y-77668927D01*
X57462352Y-77456073D01*
X57390768Y-77362783D01*
X56672452Y-78081098D01*
X56579657Y-77942220D01*
X56457780Y-77820343D01*
X56318898Y-77727545D01*
X57037215Y-77009229D01*
X56943926Y-76937647D01*
X56731072Y-76814755D01*
X56731067Y-76814753D01*
X56503997Y-76720699D01*
X56503984Y-76720695D01*
X56266574Y-76657081D01*
X56022894Y-76625000D01*
X55777105Y-76625000D01*
X55533428Y-76657081D01*
X55533423Y-76657081D01*
X55296015Y-76720695D01*
X55296002Y-76720699D01*
X55068932Y-76814753D01*
X55068927Y-76814755D01*
X54856078Y-76937644D01*
X54762783Y-77009229D01*
X55481100Y-77727546D01*
X55342220Y-77820343D01*
X55220343Y-77942220D01*
X55127546Y-78081100D01*
X54409229Y-77362783D01*
X54337644Y-77456078D01*
X54214755Y-77668927D01*
X54214753Y-77668932D01*
X54120699Y-77896002D01*
X54120695Y-77896015D01*
X54057081Y-78133423D01*
X54057081Y-78133428D01*
X54025000Y-78377105D01*
X52300500Y-78377105D01*
X52300500Y-74925999D01*
X59799168Y-74925999D01*
X59799169Y-74926000D01*
X60693388Y-74926000D01*
X60660475Y-74983007D01*
X60626400Y-75110174D01*
X60626400Y-75241826D01*
X60660475Y-75368993D01*
X60693388Y-75426000D01*
X59799169Y-75426000D01*
X59809641Y-75492122D01*
X59875304Y-75694215D01*
X59971775Y-75883552D01*
X60096677Y-76055464D01*
X60246935Y-76205722D01*
X60418847Y-76330624D01*
X60608184Y-76427095D01*
X60810277Y-76492758D01*
X60876399Y-76503231D01*
X60876400Y-76503230D01*
X60876400Y-75609012D01*
X60933407Y-75641925D01*
X61060574Y-75676000D01*
X61192226Y-75676000D01*
X61319393Y-75641925D01*
X61376400Y-75609012D01*
X61376400Y-76503231D01*
X61442522Y-76492758D01*
X61644615Y-76427095D01*
X61833952Y-76330624D01*
X62005864Y-76205722D01*
X62156122Y-76055464D01*
X62281024Y-75883552D01*
X62377495Y-75694215D01*
X62443158Y-75492122D01*
X62453631Y-75426000D01*
X61559412Y-75426000D01*
X61592325Y-75368993D01*
X61626400Y-75241826D01*
X61626400Y-75110174D01*
X61615488Y-75069450D01*
X82049500Y-75069450D01*
X82049500Y-75250549D01*
X82077828Y-75429406D01*
X82125490Y-75576099D01*
X82133789Y-75601639D01*
X82216004Y-75762994D01*
X82322447Y-75909501D01*
X82450499Y-76037553D01*
X82597006Y-76143996D01*
X82758361Y-76226211D01*
X82930591Y-76282171D01*
X83002136Y-76293502D01*
X83109451Y-76310500D01*
X83109454Y-76310500D01*
X83290549Y-76310500D01*
X83379977Y-76296335D01*
X83469409Y-76282171D01*
X83641639Y-76226211D01*
X83802994Y-76143996D01*
X83949501Y-76037553D01*
X84077553Y-75909501D01*
X84183996Y-75762994D01*
X84266211Y-75601639D01*
X84322171Y-75429409D01*
X84340306Y-75314907D01*
X84350500Y-75250549D01*
X84350500Y-75069450D01*
X84322171Y-74890593D01*
X84322171Y-74890591D01*
X84266211Y-74718361D01*
X84183996Y-74557006D01*
X84077553Y-74410499D01*
X83949501Y-74282447D01*
X83802994Y-74176004D01*
X83802993Y-74176003D01*
X83802991Y-74176002D01*
X83641637Y-74093788D01*
X83469406Y-74037828D01*
X83290549Y-74009500D01*
X83290546Y-74009500D01*
X83109454Y-74009500D01*
X83109451Y-74009500D01*
X82930593Y-74037828D01*
X82758362Y-74093788D01*
X82597008Y-74176002D01*
X82523752Y-74229225D01*
X82450499Y-74282447D01*
X82322447Y-74410499D01*
X82280346Y-74468447D01*
X82216002Y-74557008D01*
X82133788Y-74718362D01*
X82077828Y-74890593D01*
X82049500Y-75069450D01*
X61615488Y-75069450D01*
X61592325Y-74983007D01*
X61559412Y-74926000D01*
X62453631Y-74926000D01*
X62453631Y-74925999D01*
X62443158Y-74859877D01*
X62377495Y-74657784D01*
X62281024Y-74468447D01*
X62156122Y-74296535D01*
X62005864Y-74146277D01*
X61833952Y-74021375D01*
X61644615Y-73924904D01*
X61553415Y-73895272D01*
X61503915Y-73859308D01*
X61485008Y-73801117D01*
X61503915Y-73742926D01*
X61553413Y-73706962D01*
X61553417Y-73706962D01*
X61553418Y-73706962D01*
X61568033Y-73702213D01*
X61568033Y-73702212D01*
X61568039Y-73702211D01*
X61729394Y-73619996D01*
X61875901Y-73513553D01*
X62003953Y-73385501D01*
X62110396Y-73238994D01*
X62192611Y-73077639D01*
X62248571Y-72905409D01*
X62272270Y-72755779D01*
X62276900Y-72726549D01*
X62276900Y-72545452D01*
X62276203Y-72541052D01*
X62276203Y-72541051D01*
X62274366Y-72529450D01*
X82049500Y-72529450D01*
X82049500Y-72710549D01*
X82077828Y-72889406D01*
X82133788Y-73061637D01*
X82210513Y-73212219D01*
X82216004Y-73222994D01*
X82322447Y-73369501D01*
X82450499Y-73497553D01*
X82597006Y-73603996D01*
X82758361Y-73686211D01*
X82930591Y-73742171D01*
X83002136Y-73753502D01*
X83109451Y-73770500D01*
X83109454Y-73770500D01*
X83290549Y-73770500D01*
X83379977Y-73756335D01*
X83469409Y-73742171D01*
X83641639Y-73686211D01*
X83802994Y-73603996D01*
X83949501Y-73497553D01*
X84077553Y-73369501D01*
X84183996Y-73222994D01*
X84266211Y-73061639D01*
X84322171Y-72889409D01*
X84343336Y-72755779D01*
X84350500Y-72710549D01*
X84350500Y-72529450D01*
X84322171Y-72350593D01*
X84322171Y-72350591D01*
X84266211Y-72178361D01*
X84183996Y-72017006D01*
X84077553Y-71870499D01*
X83949501Y-71742447D01*
X83802994Y-71636004D01*
X83802993Y-71636003D01*
X83802991Y-71636002D01*
X83641637Y-71553788D01*
X83469406Y-71497828D01*
X83290549Y-71469500D01*
X83290546Y-71469500D01*
X83109454Y-71469500D01*
X83109451Y-71469500D01*
X82930593Y-71497828D01*
X82758362Y-71553788D01*
X82597008Y-71636002D01*
X82523752Y-71689225D01*
X82450499Y-71742447D01*
X82322447Y-71870499D01*
X82301377Y-71899500D01*
X82216002Y-72017008D01*
X82133788Y-72178362D01*
X82077828Y-72350593D01*
X82049500Y-72529450D01*
X62274366Y-72529450D01*
X62248571Y-72366593D01*
X62248571Y-72366591D01*
X62192611Y-72194361D01*
X62110396Y-72033006D01*
X62003953Y-71886499D01*
X61875901Y-71758447D01*
X61729394Y-71652004D01*
X61729393Y-71652003D01*
X61729391Y-71652002D01*
X61568037Y-71569788D01*
X61395806Y-71513828D01*
X61216949Y-71485500D01*
X61216946Y-71485500D01*
X61035854Y-71485500D01*
X61035851Y-71485500D01*
X60856993Y-71513828D01*
X60684762Y-71569788D01*
X60523408Y-71652002D01*
X60450152Y-71705225D01*
X60376899Y-71758447D01*
X60248847Y-71886499D01*
X60205970Y-71945515D01*
X60142402Y-72033008D01*
X60060188Y-72194362D01*
X60004228Y-72366593D01*
X59975900Y-72545450D01*
X59975900Y-72726549D01*
X60004228Y-72905406D01*
X60060188Y-73077637D01*
X60134251Y-73222994D01*
X60142404Y-73238994D01*
X60248847Y-73385501D01*
X60376899Y-73513553D01*
X60523406Y-73619996D01*
X60684761Y-73702211D01*
X60694139Y-73705258D01*
X60699383Y-73706962D01*
X60748883Y-73742926D01*
X60767791Y-73801116D01*
X60748884Y-73859307D01*
X60699385Y-73895271D01*
X60699384Y-73895272D01*
X60608184Y-73924904D01*
X60418847Y-74021375D01*
X60246935Y-74146277D01*
X60096677Y-74296535D01*
X59971775Y-74468447D01*
X59875304Y-74657784D01*
X59809641Y-74859877D01*
X59799168Y-74925999D01*
X52300500Y-74925999D01*
X52300500Y-70005450D01*
X59975900Y-70005450D01*
X59975900Y-70186549D01*
X60004228Y-70365406D01*
X60060188Y-70537637D01*
X60134251Y-70682994D01*
X60142404Y-70698994D01*
X60248847Y-70845501D01*
X60376899Y-70973553D01*
X60523406Y-71079996D01*
X60684761Y-71162211D01*
X60856991Y-71218171D01*
X60928536Y-71229502D01*
X61035851Y-71246500D01*
X61035854Y-71246500D01*
X61216949Y-71246500D01*
X61317966Y-71230500D01*
X61395809Y-71218171D01*
X61568039Y-71162211D01*
X61729394Y-71079996D01*
X61875901Y-70973553D01*
X62003953Y-70845501D01*
X62110396Y-70698994D01*
X62192611Y-70537639D01*
X62248571Y-70365409D01*
X62272408Y-70214907D01*
X62276900Y-70186549D01*
X62276900Y-70005452D01*
X62276203Y-70001052D01*
X62276203Y-70001051D01*
X62274366Y-69989450D01*
X82049500Y-69989450D01*
X82049500Y-70170549D01*
X82077828Y-70349406D01*
X82133788Y-70521637D01*
X82176652Y-70605763D01*
X82216004Y-70682994D01*
X82322447Y-70829501D01*
X82450499Y-70957553D01*
X82597006Y-71063996D01*
X82758361Y-71146211D01*
X82930591Y-71202171D01*
X83002136Y-71213502D01*
X83109451Y-71230500D01*
X83109454Y-71230500D01*
X83290549Y-71230500D01*
X83379977Y-71216335D01*
X83469409Y-71202171D01*
X83641639Y-71146211D01*
X83802994Y-71063996D01*
X83949501Y-70957553D01*
X84077553Y-70829501D01*
X84183996Y-70682994D01*
X84266211Y-70521639D01*
X84322171Y-70349409D01*
X84347845Y-70187309D01*
X84350500Y-70170549D01*
X84350500Y-69989450D01*
X84322171Y-69810593D01*
X84322171Y-69810591D01*
X84266211Y-69638361D01*
X84183996Y-69477006D01*
X84077553Y-69330499D01*
X83949501Y-69202447D01*
X83802994Y-69096004D01*
X83802993Y-69096003D01*
X83802991Y-69096002D01*
X83641637Y-69013788D01*
X83469406Y-68957828D01*
X83290549Y-68929500D01*
X83290546Y-68929500D01*
X83109454Y-68929500D01*
X83109451Y-68929500D01*
X82930593Y-68957828D01*
X82758362Y-69013788D01*
X82597008Y-69096002D01*
X82523752Y-69149225D01*
X82450499Y-69202447D01*
X82322447Y-69330499D01*
X82273661Y-69397648D01*
X82216002Y-69477008D01*
X82133788Y-69638362D01*
X82077828Y-69810593D01*
X82049500Y-69989450D01*
X62274366Y-69989450D01*
X62248571Y-69826593D01*
X62248571Y-69826591D01*
X62192611Y-69654361D01*
X62110396Y-69493006D01*
X62003953Y-69346499D01*
X61875901Y-69218447D01*
X61729394Y-69112004D01*
X61729393Y-69112003D01*
X61729391Y-69112002D01*
X61568037Y-69029788D01*
X61395806Y-68973828D01*
X61216949Y-68945500D01*
X61216946Y-68945500D01*
X61035854Y-68945500D01*
X61035851Y-68945500D01*
X60856993Y-68973828D01*
X60684762Y-69029788D01*
X60523408Y-69112002D01*
X60450152Y-69165225D01*
X60376899Y-69218447D01*
X60248847Y-69346499D01*
X60211685Y-69397648D01*
X60142402Y-69493008D01*
X60060188Y-69654362D01*
X60004228Y-69826593D01*
X59975900Y-70005450D01*
X52300500Y-70005450D01*
X52300500Y-64899500D01*
X52319407Y-64841309D01*
X52368907Y-64805345D01*
X52399500Y-64800500D01*
X55113045Y-64800500D01*
X55171236Y-64819407D01*
X55183049Y-64829496D01*
X55870591Y-65517037D01*
X55807007Y-65534075D01*
X55692993Y-65599901D01*
X55599901Y-65692993D01*
X55534075Y-65807007D01*
X55517037Y-65870591D01*
X54777339Y-65130893D01*
X54717088Y-65213823D01*
X54609894Y-65424203D01*
X54609892Y-65424206D01*
X54536935Y-65648743D01*
X54536934Y-65648747D01*
X54500000Y-65881943D01*
X54500000Y-66118056D01*
X54536934Y-66351252D01*
X54536935Y-66351256D01*
X54609892Y-66575793D01*
X54609894Y-66575796D01*
X54717084Y-66786169D01*
X54777339Y-66869105D01*
X55517036Y-66129407D01*
X55534075Y-66192993D01*
X55599901Y-66307007D01*
X55692993Y-66400099D01*
X55807007Y-66465925D01*
X55870590Y-66482962D01*
X55130893Y-67222659D01*
X55213825Y-67282913D01*
X55213829Y-67282915D01*
X55424203Y-67390105D01*
X55424206Y-67390107D01*
X55648743Y-67463064D01*
X55648747Y-67463065D01*
X55881944Y-67500000D01*
X56118056Y-67500000D01*
X56351252Y-67463065D01*
X56351256Y-67463064D01*
X56575793Y-67390107D01*
X56575796Y-67390105D01*
X56786170Y-67282915D01*
X56786176Y-67282911D01*
X56869105Y-67222659D01*
X56869105Y-67222658D01*
X56129409Y-66482962D01*
X56192993Y-66465925D01*
X56307007Y-66400099D01*
X56400099Y-66307007D01*
X56465925Y-66192993D01*
X56482962Y-66129408D01*
X57222658Y-66869105D01*
X57222659Y-66869105D01*
X57282911Y-66786176D01*
X57282915Y-66786170D01*
X57390105Y-66575796D01*
X57390107Y-66575793D01*
X57463064Y-66351256D01*
X57463065Y-66351252D01*
X57500000Y-66118056D01*
X57500000Y-66091262D01*
X57518907Y-66033071D01*
X57568407Y-65997107D01*
X57629593Y-65997107D01*
X57657186Y-66011166D01*
X57818390Y-66128287D01*
X58000781Y-66221220D01*
X58195466Y-66284477D01*
X58195467Y-66284477D01*
X58195470Y-66284478D01*
X58397645Y-66316500D01*
X60612495Y-66316500D01*
X60670686Y-66335407D01*
X60706650Y-66384907D01*
X60706650Y-66446093D01*
X60670686Y-66495593D01*
X60657440Y-66503710D01*
X60523408Y-66572002D01*
X60450152Y-66625225D01*
X60376899Y-66678447D01*
X60248847Y-66806499D01*
X60205970Y-66865515D01*
X60142402Y-66953008D01*
X60060188Y-67114362D01*
X60004228Y-67286593D01*
X59975900Y-67465450D01*
X59975900Y-67646549D01*
X60004228Y-67825406D01*
X60060188Y-67997637D01*
X60134251Y-68142994D01*
X60142404Y-68158994D01*
X60248847Y-68305501D01*
X60376899Y-68433553D01*
X60523406Y-68539996D01*
X60684761Y-68622211D01*
X60856991Y-68678171D01*
X60928536Y-68689502D01*
X61035851Y-68706500D01*
X61035854Y-68706500D01*
X61216949Y-68706500D01*
X61317966Y-68690500D01*
X61395809Y-68678171D01*
X61568039Y-68622211D01*
X61729394Y-68539996D01*
X61875901Y-68433553D01*
X62003953Y-68305501D01*
X62110396Y-68158994D01*
X62192611Y-67997639D01*
X62248571Y-67825409D01*
X62276900Y-67646546D01*
X62276900Y-67465454D01*
X62276899Y-67465450D01*
X62276203Y-67461052D01*
X62276203Y-67461051D01*
X62274366Y-67449450D01*
X82049500Y-67449450D01*
X82049500Y-67630549D01*
X82077828Y-67809406D01*
X82133788Y-67981637D01*
X82210513Y-68132219D01*
X82216004Y-68142994D01*
X82322447Y-68289501D01*
X82450499Y-68417553D01*
X82597006Y-68523996D01*
X82758361Y-68606211D01*
X82930591Y-68662171D01*
X83002136Y-68673502D01*
X83109451Y-68690500D01*
X83109454Y-68690500D01*
X83290549Y-68690500D01*
X83379977Y-68676335D01*
X83469409Y-68662171D01*
X83641639Y-68606211D01*
X83802994Y-68523996D01*
X83949501Y-68417553D01*
X84077553Y-68289501D01*
X84183996Y-68142994D01*
X84266211Y-67981639D01*
X84322171Y-67809409D01*
X84336335Y-67719977D01*
X84350500Y-67630549D01*
X84350500Y-67449450D01*
X84324123Y-67282915D01*
X84322171Y-67270591D01*
X84266211Y-67098361D01*
X84183996Y-66937006D01*
X84077553Y-66790499D01*
X83949501Y-66662447D01*
X83802994Y-66556004D01*
X83802993Y-66556003D01*
X83802991Y-66556002D01*
X83641637Y-66473788D01*
X83469406Y-66417828D01*
X83290549Y-66389500D01*
X83290546Y-66389500D01*
X83109454Y-66389500D01*
X83109451Y-66389500D01*
X82930593Y-66417828D01*
X82758362Y-66473788D01*
X82597008Y-66556002D01*
X82523752Y-66609225D01*
X82450499Y-66662447D01*
X82322447Y-66790499D01*
X82269225Y-66863752D01*
X82216002Y-66937008D01*
X82133788Y-67098362D01*
X82077828Y-67270593D01*
X82049500Y-67449450D01*
X62274366Y-67449450D01*
X62248571Y-67286593D01*
X62248571Y-67286591D01*
X62192611Y-67114361D01*
X62110396Y-66953006D01*
X62003953Y-66806499D01*
X61875901Y-66678447D01*
X61729394Y-66572004D01*
X61729393Y-66572003D01*
X61729391Y-66572002D01*
X61568037Y-66489788D01*
X61473322Y-66459014D01*
X61423822Y-66423050D01*
X61404914Y-66364860D01*
X61423821Y-66306669D01*
X61473321Y-66270705D01*
X61473321Y-66270704D01*
X61625619Y-66221220D01*
X61808010Y-66128287D01*
X61973619Y-66007966D01*
X62118366Y-65863219D01*
X62238687Y-65697610D01*
X62331620Y-65515219D01*
X62394877Y-65320534D01*
X62408479Y-65234655D01*
X62426900Y-65118355D01*
X62426900Y-64913644D01*
X62394878Y-64711470D01*
X62394877Y-64711466D01*
X62331620Y-64516781D01*
X62238687Y-64334390D01*
X62238685Y-64334386D01*
X62118370Y-64168786D01*
X62118368Y-64168784D01*
X62118366Y-64168781D01*
X62054715Y-64105130D01*
X82049500Y-64105130D01*
X82049500Y-65894860D01*
X82049501Y-65894863D01*
X82052414Y-65919990D01*
X82058264Y-65933238D01*
X82097794Y-66022765D01*
X82177235Y-66102206D01*
X82280009Y-66147585D01*
X82305135Y-66150500D01*
X84094864Y-66150499D01*
X84119991Y-66147585D01*
X84222765Y-66102206D01*
X84302206Y-66022765D01*
X84347585Y-65919991D01*
X84350500Y-65894865D01*
X84350499Y-64105136D01*
X84347585Y-64080009D01*
X84302206Y-63977235D01*
X84222765Y-63897794D01*
X84119991Y-63852415D01*
X84119990Y-63852414D01*
X84119988Y-63852414D01*
X84094868Y-63849500D01*
X82305139Y-63849500D01*
X82305136Y-63849501D01*
X82280009Y-63852414D01*
X82177235Y-63897794D01*
X82097794Y-63977235D01*
X82052414Y-64080011D01*
X82049500Y-64105130D01*
X62054715Y-64105130D01*
X61973619Y-64024034D01*
X61973615Y-64024031D01*
X61973613Y-64024029D01*
X61808013Y-63903714D01*
X61808009Y-63903712D01*
X61631367Y-63813709D01*
X61588102Y-63770444D01*
X61578531Y-63710012D01*
X61606308Y-63655495D01*
X61660825Y-63627718D01*
X61676309Y-63626499D01*
X62021264Y-63626499D01*
X62046391Y-63623585D01*
X62149165Y-63578206D01*
X62228606Y-63498765D01*
X62273985Y-63395991D01*
X62276900Y-63370865D01*
X62276899Y-61581136D01*
X62273985Y-61556009D01*
X62228606Y-61453235D01*
X62149165Y-61373794D01*
X62046391Y-61328415D01*
X62046390Y-61328414D01*
X62046388Y-61328414D01*
X62021268Y-61325500D01*
X60231539Y-61325500D01*
X60231536Y-61325501D01*
X60206409Y-61328414D01*
X60103635Y-61373794D01*
X60024194Y-61453235D01*
X59978814Y-61556011D01*
X59975900Y-61581130D01*
X59975900Y-63247171D01*
X59956993Y-63305362D01*
X59907493Y-63341326D01*
X59846307Y-63341326D01*
X59796807Y-63305362D01*
X59779119Y-63262657D01*
X59776965Y-63249060D01*
X59768477Y-63195466D01*
X59705220Y-63000781D01*
X59612287Y-62818390D01*
X59612285Y-62818386D01*
X59491970Y-62652786D01*
X59491968Y-62652784D01*
X59491966Y-62652781D01*
X59347219Y-62508034D01*
X59347215Y-62508031D01*
X59347213Y-62508029D01*
X59181613Y-62387714D01*
X59181609Y-62387712D01*
X58999219Y-62294780D01*
X58804529Y-62231521D01*
X58602355Y-62199500D01*
X58602352Y-62199500D01*
X51102352Y-62199500D01*
X50897648Y-62199500D01*
X50897645Y-62199500D01*
X50695470Y-62231521D01*
X50500780Y-62294780D01*
X50318390Y-62387712D01*
X50318386Y-62387714D01*
X50152786Y-62508029D01*
X50008029Y-62652786D01*
X49887714Y-62818386D01*
X49887712Y-62818390D01*
X49794780Y-63000780D01*
X49731521Y-63195470D01*
X49699500Y-63397644D01*
X49699500Y-76725500D01*
X49680593Y-76783691D01*
X49631093Y-76819655D01*
X49600500Y-76824500D01*
X49331893Y-76824500D01*
X49243434Y-76835123D01*
X49102656Y-76890639D01*
X49093548Y-76897546D01*
X49035756Y-76917638D01*
X48977191Y-76899924D01*
X48947999Y-76868162D01*
X48880520Y-76751284D01*
X48880517Y-76751281D01*
X48854495Y-76725258D01*
X48826719Y-76670741D01*
X48825500Y-76655256D01*
X48825500Y-70713983D01*
X48821483Y-70698991D01*
X48796503Y-70605763D01*
X48796501Y-70605760D01*
X48796501Y-70605758D01*
X48740486Y-70508739D01*
X48740485Y-70508737D01*
X48661263Y-70429515D01*
X48661260Y-70429513D01*
X48564240Y-70373498D01*
X48564242Y-70373498D01*
X48522251Y-70362247D01*
X48456018Y-70344500D01*
X48456016Y-70344500D01*
X46684633Y-70344500D01*
X46626442Y-70325593D01*
X46590478Y-70276093D01*
X46590478Y-70214907D01*
X46604540Y-70187309D01*
X46646760Y-70129199D01*
X46732547Y-69960832D01*
X46790940Y-69781118D01*
X46813550Y-69638362D01*
X46820500Y-69594484D01*
X46820500Y-69405515D01*
X46790941Y-69218886D01*
X46790799Y-69218449D01*
X46732547Y-69039168D01*
X46646760Y-68870801D01*
X46535690Y-68717927D01*
X46402073Y-68584310D01*
X46249199Y-68473240D01*
X46249198Y-68473239D01*
X46249196Y-68473238D01*
X46080832Y-68387453D01*
X45901113Y-68329058D01*
X45893046Y-68327781D01*
X45838529Y-68300004D01*
X45810751Y-68245488D01*
X45820322Y-68185056D01*
X45863586Y-68141791D01*
X45893046Y-68132219D01*
X45901113Y-68130941D01*
X45901114Y-68130940D01*
X45901118Y-68130940D01*
X46080832Y-68072547D01*
X46249199Y-67986760D01*
X46402073Y-67875690D01*
X46535690Y-67742073D01*
X46646760Y-67589199D01*
X46732547Y-67420832D01*
X46790940Y-67241118D01*
X46813550Y-67098362D01*
X46820500Y-67054484D01*
X46820500Y-66865515D01*
X46790941Y-66678886D01*
X46790799Y-66678449D01*
X46732547Y-66499168D01*
X46646760Y-66330801D01*
X46535690Y-66177927D01*
X46402073Y-66044310D01*
X46249199Y-65933240D01*
X46249198Y-65933239D01*
X46249196Y-65933238D01*
X46080832Y-65847453D01*
X45901113Y-65789058D01*
X45893046Y-65787781D01*
X45838529Y-65760004D01*
X45810751Y-65705488D01*
X45820322Y-65645056D01*
X45863586Y-65601791D01*
X45893046Y-65592219D01*
X45901113Y-65590941D01*
X45901114Y-65590940D01*
X45901118Y-65590940D01*
X46080832Y-65532547D01*
X46249199Y-65446760D01*
X46402073Y-65335690D01*
X46535690Y-65202073D01*
X46646760Y-65049199D01*
X46732547Y-64880832D01*
X46790940Y-64701118D01*
X46820500Y-64514481D01*
X46820500Y-64325519D01*
X46820500Y-64325515D01*
X46790941Y-64138886D01*
X46790940Y-64138882D01*
X46732547Y-63959168D01*
X46646760Y-63790801D01*
X46535690Y-63637927D01*
X46402073Y-63504310D01*
X46255261Y-63397644D01*
X46249195Y-63393237D01*
X46249193Y-63393236D01*
X46164652Y-63350160D01*
X46121388Y-63306896D01*
X46111817Y-63246463D01*
X46139595Y-63191947D01*
X46164653Y-63173741D01*
X46353757Y-63077388D01*
X46417513Y-63031067D01*
X45749408Y-62362962D01*
X45812993Y-62345925D01*
X45927007Y-62280099D01*
X46020099Y-62187007D01*
X46085925Y-62072993D01*
X46102962Y-62009408D01*
X46771067Y-62677513D01*
X46817387Y-62613758D01*
X46825638Y-62597564D01*
X46868900Y-62554297D01*
X46929332Y-62544722D01*
X46963348Y-62556766D01*
X46968216Y-62559577D01*
X47120943Y-62600500D01*
X47120945Y-62600500D01*
X47279055Y-62600500D01*
X47279057Y-62600500D01*
X47431784Y-62559577D01*
X47568716Y-62480520D01*
X47680520Y-62368716D01*
X47759577Y-62231784D01*
X47800500Y-62079057D01*
X47800500Y-61920943D01*
X47759577Y-61768216D01*
X47680520Y-61631284D01*
X47680517Y-61631281D01*
X47654495Y-61605258D01*
X47626719Y-61550741D01*
X47625500Y-61535256D01*
X47625500Y-59464743D01*
X47644407Y-59406552D01*
X47654490Y-59394745D01*
X47680520Y-59368716D01*
X47759577Y-59231784D01*
X47800500Y-59079057D01*
X47800500Y-58920943D01*
X47759577Y-58768216D01*
X47680520Y-58631284D01*
X47568716Y-58519480D01*
X47431784Y-58440423D01*
X47279057Y-58399500D01*
X47120943Y-58399500D01*
X46968216Y-58440423D01*
X46968214Y-58440424D01*
X46968212Y-58440424D01*
X46965172Y-58442180D01*
X46962713Y-58442702D01*
X46962222Y-58442906D01*
X46962184Y-58442814D01*
X46905323Y-58454899D01*
X46849428Y-58430011D01*
X46818838Y-58377022D01*
X46817846Y-58370969D01*
X46817585Y-58370010D01*
X46817585Y-58370009D01*
X46772206Y-58267235D01*
X46692765Y-58187794D01*
X46589991Y-58142415D01*
X46589990Y-58142414D01*
X46589988Y-58142414D01*
X46564869Y-58139500D01*
X46564865Y-58139500D01*
X46519500Y-58139500D01*
X46461309Y-58120593D01*
X46425345Y-58071093D01*
X46420500Y-58040500D01*
X46420500Y-57720943D01*
X75399500Y-57720943D01*
X75399500Y-57879057D01*
X75440423Y-58031784D01*
X75519480Y-58168716D01*
X75545505Y-58194741D01*
X75573281Y-58249256D01*
X75574500Y-58264743D01*
X75574500Y-59535256D01*
X75555593Y-59593447D01*
X75545505Y-59605258D01*
X75519482Y-59631281D01*
X75519480Y-59631283D01*
X75519480Y-59631284D01*
X75440423Y-59768216D01*
X75399500Y-59920943D01*
X75399500Y-60079057D01*
X75440423Y-60231784D01*
X75519480Y-60368716D01*
X75631284Y-60480520D01*
X75768216Y-60559577D01*
X75920943Y-60600500D01*
X75920945Y-60600500D01*
X76079055Y-60600500D01*
X76079057Y-60600500D01*
X76231784Y-60559577D01*
X76368716Y-60480520D01*
X76480520Y-60368716D01*
X76559577Y-60231784D01*
X76600500Y-60079057D01*
X76600500Y-59920943D01*
X76559577Y-59768216D01*
X76480520Y-59631284D01*
X76470349Y-59621113D01*
X76454495Y-59605258D01*
X76426719Y-59550741D01*
X76425500Y-59535256D01*
X76425500Y-58264743D01*
X76444407Y-58206552D01*
X76454490Y-58194745D01*
X76480520Y-58168716D01*
X76559577Y-58031784D01*
X76600500Y-57879057D01*
X76600500Y-57720943D01*
X76559577Y-57568216D01*
X76480520Y-57431284D01*
X76368716Y-57319480D01*
X76231784Y-57240423D01*
X76079057Y-57199500D01*
X75920943Y-57199500D01*
X75768216Y-57240423D01*
X75631284Y-57319480D01*
X75519480Y-57431284D01*
X75440423Y-57568216D01*
X75399500Y-57720943D01*
X46420500Y-57720943D01*
X46420500Y-56899500D01*
X46439407Y-56841309D01*
X46488907Y-56805345D01*
X46519500Y-56800500D01*
X52578841Y-56800500D01*
X52578842Y-56800500D01*
X52733497Y-56769737D01*
X52879179Y-56709394D01*
X53010289Y-56621789D01*
X53121789Y-56510289D01*
X53209394Y-56379179D01*
X53269737Y-56233497D01*
X53300500Y-56078842D01*
X53300500Y-46059999D01*
X82122144Y-46059999D01*
X82122145Y-46060000D01*
X83066988Y-46060000D01*
X83034075Y-46117007D01*
X83000000Y-46244174D01*
X83000000Y-46375826D01*
X83034075Y-46502993D01*
X83066988Y-46560000D01*
X82122144Y-46560000D01*
X82134471Y-46637829D01*
X82202569Y-46847413D01*
X82302611Y-47043757D01*
X82432139Y-47222037D01*
X82587962Y-47377860D01*
X82766242Y-47507388D01*
X82962586Y-47607430D01*
X83172169Y-47675528D01*
X83249999Y-47687854D01*
X83250000Y-47687853D01*
X83250000Y-46743012D01*
X83307007Y-46775925D01*
X83434174Y-46810000D01*
X83565826Y-46810000D01*
X83692993Y-46775925D01*
X83750000Y-46743012D01*
X83750000Y-47687854D01*
X83827830Y-47675528D01*
X84037413Y-47607430D01*
X84233757Y-47507388D01*
X84412037Y-47377860D01*
X84567860Y-47222037D01*
X84697388Y-47043757D01*
X84797430Y-46847413D01*
X84865528Y-46637829D01*
X84877855Y-46560000D01*
X83933012Y-46560000D01*
X83965925Y-46502993D01*
X84000000Y-46375826D01*
X84000000Y-46244174D01*
X83965925Y-46117007D01*
X83933012Y-46060000D01*
X84877855Y-46060000D01*
X84877855Y-46059999D01*
X84865528Y-45982170D01*
X84797430Y-45772586D01*
X84697388Y-45576242D01*
X84567860Y-45397962D01*
X84412037Y-45242139D01*
X84233757Y-45112611D01*
X84044653Y-45016258D01*
X84001388Y-44972993D01*
X83991817Y-44912561D01*
X84019594Y-44858044D01*
X84044653Y-44839838D01*
X84129199Y-44796760D01*
X84282073Y-44685690D01*
X84415690Y-44552073D01*
X84526760Y-44399199D01*
X84612547Y-44230832D01*
X84670940Y-44051118D01*
X84670941Y-44051113D01*
X84700500Y-43864484D01*
X84700500Y-43675515D01*
X84670941Y-43488886D01*
X84655869Y-43442499D01*
X84612547Y-43309168D01*
X84526760Y-43140801D01*
X84415690Y-42987927D01*
X84282073Y-42854310D01*
X84129199Y-42743240D01*
X84129198Y-42743239D01*
X84129196Y-42743238D01*
X83960832Y-42657453D01*
X83781113Y-42599058D01*
X83773046Y-42597781D01*
X83718529Y-42570004D01*
X83690751Y-42515488D01*
X83700322Y-42455056D01*
X83743586Y-42411791D01*
X83773046Y-42402219D01*
X83781113Y-42400941D01*
X83781114Y-42400940D01*
X83781118Y-42400940D01*
X83960832Y-42342547D01*
X84129199Y-42256760D01*
X84282073Y-42145690D01*
X84415690Y-42012073D01*
X84526760Y-41859199D01*
X84612547Y-41690832D01*
X84670940Y-41511118D01*
X84672547Y-41500972D01*
X84700500Y-41324484D01*
X84700500Y-41135515D01*
X84670941Y-40948886D01*
X84661726Y-40920524D01*
X84612547Y-40769168D01*
X84526760Y-40600801D01*
X84415690Y-40447927D01*
X84282073Y-40314310D01*
X84129199Y-40203240D01*
X84129198Y-40203239D01*
X84129196Y-40203238D01*
X83960832Y-40117453D01*
X83856810Y-40083654D01*
X83807310Y-40047690D01*
X83788403Y-39989499D01*
X83807310Y-39931308D01*
X83856811Y-39895344D01*
X83887401Y-39890499D01*
X84444864Y-39890499D01*
X84469991Y-39887585D01*
X84572765Y-39842206D01*
X84652206Y-39762765D01*
X84697585Y-39659991D01*
X84700500Y-39634865D01*
X84700499Y-37745136D01*
X84697585Y-37720009D01*
X84652206Y-37617235D01*
X84572765Y-37537794D01*
X84469991Y-37492415D01*
X84469990Y-37492414D01*
X84469988Y-37492414D01*
X84444868Y-37489500D01*
X82555139Y-37489500D01*
X82555136Y-37489501D01*
X82530009Y-37492414D01*
X82427235Y-37537794D01*
X82347794Y-37617235D01*
X82302414Y-37720011D01*
X82299500Y-37745130D01*
X82299500Y-39634860D01*
X82299501Y-39634863D01*
X82302414Y-39659990D01*
X82327756Y-39717385D01*
X82347794Y-39762765D01*
X82427235Y-39842206D01*
X82530009Y-39887585D01*
X82555135Y-39890500D01*
X83112597Y-39890499D01*
X83170786Y-39909406D01*
X83206750Y-39958906D01*
X83206750Y-40020092D01*
X83170786Y-40069592D01*
X83143188Y-40083653D01*
X83039174Y-40117449D01*
X83039171Y-40117451D01*
X82870803Y-40203238D01*
X82717928Y-40314309D01*
X82584309Y-40447928D01*
X82473238Y-40600803D01*
X82387453Y-40769167D01*
X82329058Y-40948886D01*
X82299500Y-41135515D01*
X82299500Y-41324484D01*
X82329058Y-41511113D01*
X82387453Y-41690832D01*
X82393499Y-41702699D01*
X82473240Y-41859199D01*
X82584310Y-42012073D01*
X82717927Y-42145690D01*
X82870801Y-42256760D01*
X83039168Y-42342547D01*
X83218882Y-42400940D01*
X83218883Y-42400940D01*
X83218886Y-42400941D01*
X83226954Y-42402219D01*
X83281471Y-42429996D01*
X83309248Y-42484513D01*
X83299677Y-42544945D01*
X83256412Y-42588210D01*
X83226954Y-42597781D01*
X83218886Y-42599058D01*
X83039167Y-42657453D01*
X82870803Y-42743238D01*
X82717928Y-42854309D01*
X82584309Y-42987928D01*
X82473238Y-43140803D01*
X82387453Y-43309167D01*
X82329058Y-43488886D01*
X82299500Y-43675515D01*
X82299500Y-43864484D01*
X82329058Y-44051113D01*
X82387453Y-44230832D01*
X82393499Y-44242699D01*
X82473240Y-44399199D01*
X82584310Y-44552073D01*
X82717927Y-44685690D01*
X82870801Y-44796760D01*
X82870803Y-44796761D01*
X82955346Y-44839838D01*
X82998611Y-44883103D01*
X83008182Y-44943535D01*
X82980404Y-44998052D01*
X82955346Y-45016258D01*
X82766242Y-45112611D01*
X82587962Y-45242139D01*
X82432139Y-45397962D01*
X82302611Y-45576242D01*
X82202569Y-45772586D01*
X82134471Y-45982170D01*
X82122144Y-46059999D01*
X53300500Y-46059999D01*
X53300500Y-43100096D01*
X53305039Y-43086125D01*
X53304738Y-43071439D01*
X53314256Y-43057757D01*
X53319407Y-43041905D01*
X53339681Y-43021212D01*
X53416631Y-42962859D01*
X53442922Y-42942922D01*
X53534361Y-42822342D01*
X53589877Y-42681564D01*
X53600500Y-42593102D01*
X53600500Y-41897684D01*
X54700000Y-41897684D01*
X54700000Y-42102315D01*
X54732008Y-42304412D01*
X54795243Y-42499027D01*
X54888139Y-42681348D01*
X54888143Y-42681353D01*
X54920523Y-42725920D01*
X54920524Y-42725920D01*
X55600000Y-42046444D01*
X55600000Y-42052661D01*
X55627259Y-42154394D01*
X55679920Y-42245606D01*
X55754394Y-42320080D01*
X55845606Y-42372741D01*
X55947339Y-42400000D01*
X55953553Y-42400000D01*
X55274078Y-43079475D01*
X55318647Y-43111858D01*
X55500972Y-43204756D01*
X55695587Y-43267991D01*
X55897685Y-43300000D01*
X56102315Y-43300000D01*
X56304412Y-43267991D01*
X56499027Y-43204756D01*
X56681342Y-43111863D01*
X56681350Y-43111858D01*
X56725920Y-43079475D01*
X56046445Y-42400000D01*
X56052661Y-42400000D01*
X56154394Y-42372741D01*
X56245606Y-42320080D01*
X56320080Y-42245606D01*
X56372741Y-42154394D01*
X56400000Y-42052661D01*
X56400000Y-42046445D01*
X57079475Y-42725920D01*
X57111858Y-42681350D01*
X57111863Y-42681342D01*
X57204756Y-42499027D01*
X57267991Y-42304412D01*
X57300000Y-42102315D01*
X57300000Y-41897684D01*
X57267991Y-41695587D01*
X57204756Y-41500972D01*
X57111858Y-41318647D01*
X57079475Y-41274078D01*
X56400000Y-41953553D01*
X56400000Y-41947339D01*
X56372741Y-41845606D01*
X56320080Y-41754394D01*
X56245606Y-41679920D01*
X56154394Y-41627259D01*
X56052661Y-41600000D01*
X56046445Y-41600000D01*
X56725920Y-40920524D01*
X56725920Y-40920523D01*
X56681353Y-40888143D01*
X56681348Y-40888139D01*
X56499027Y-40795243D01*
X56304412Y-40732008D01*
X56102315Y-40700000D01*
X55897685Y-40700000D01*
X55695587Y-40732008D01*
X55500972Y-40795243D01*
X55318651Y-40888139D01*
X55318647Y-40888141D01*
X55274078Y-40920523D01*
X55953555Y-41600000D01*
X55947339Y-41600000D01*
X55845606Y-41627259D01*
X55754394Y-41679920D01*
X55679920Y-41754394D01*
X55627259Y-41845606D01*
X55600000Y-41947339D01*
X55600000Y-41953555D01*
X54920523Y-41274078D01*
X54888141Y-41318647D01*
X54888139Y-41318651D01*
X54795243Y-41500972D01*
X54732008Y-41695587D01*
X54700000Y-41897684D01*
X53600500Y-41897684D01*
X53600500Y-41406898D01*
X53589877Y-41318436D01*
X53534361Y-41177658D01*
X53442922Y-41057078D01*
X53322342Y-40965639D01*
X53322341Y-40965638D01*
X53322339Y-40965637D01*
X53181565Y-40910123D01*
X53093106Y-40899500D01*
X53093102Y-40899500D01*
X51906898Y-40899500D01*
X51906891Y-40899500D01*
X51905400Y-40899589D01*
X51905058Y-40899500D01*
X51903939Y-40899500D01*
X51903939Y-40899208D01*
X51846186Y-40884183D01*
X51807336Y-40836914D01*
X51800500Y-40800765D01*
X51800500Y-31572869D01*
X51819407Y-31514678D01*
X51868907Y-31478714D01*
X51930093Y-31478714D01*
X51978384Y-31513051D01*
X51982078Y-31517922D01*
X52102658Y-31609361D01*
X52102659Y-31609361D01*
X52102660Y-31609362D01*
X52173047Y-31637119D01*
X52243436Y-31664877D01*
X52331898Y-31675500D01*
X52331900Y-31675500D01*
X54668100Y-31675500D01*
X54668102Y-31675500D01*
X54756564Y-31664877D01*
X54897342Y-31609361D01*
X55017922Y-31517922D01*
X55109361Y-31397342D01*
X55164877Y-31256564D01*
X55175500Y-31168102D01*
X55175500Y-28831898D01*
X55164877Y-28743436D01*
X55109361Y-28602658D01*
X55017922Y-28482078D01*
X54897342Y-28390639D01*
X54897341Y-28390638D01*
X54897339Y-28390637D01*
X54756565Y-28335123D01*
X54668106Y-28324500D01*
X54668102Y-28324500D01*
X52331898Y-28324500D01*
X52331893Y-28324500D01*
X52243434Y-28335123D01*
X52102660Y-28390637D01*
X52102656Y-28390640D01*
X51982081Y-28482075D01*
X51982075Y-28482081D01*
X51890640Y-28602656D01*
X51890637Y-28602660D01*
X51835123Y-28743434D01*
X51824500Y-28831893D01*
X51824500Y-29100500D01*
X51805593Y-29158691D01*
X51756093Y-29194655D01*
X51725500Y-29199500D01*
X50921155Y-29199500D01*
X50766503Y-29230263D01*
X50766501Y-29230263D01*
X50620825Y-29290603D01*
X50620814Y-29290609D01*
X50489711Y-29378211D01*
X50489707Y-29378214D01*
X50378214Y-29489707D01*
X50378211Y-29489711D01*
X50290609Y-29620814D01*
X50290603Y-29620825D01*
X50230263Y-29766501D01*
X50230263Y-29766503D01*
X50199500Y-29921155D01*
X50199500Y-42078844D01*
X50230263Y-42233496D01*
X50230263Y-42233498D01*
X50290603Y-42379174D01*
X50290609Y-42379185D01*
X50341305Y-42455056D01*
X50378211Y-42510289D01*
X50489711Y-42621789D01*
X50543086Y-42657453D01*
X50620814Y-42709390D01*
X50620825Y-42709396D01*
X50674638Y-42731685D01*
X50766503Y-42769737D01*
X50921158Y-42800500D01*
X51399904Y-42800500D01*
X51458095Y-42819407D01*
X51478786Y-42839679D01*
X51557078Y-42942922D01*
X51616427Y-42987928D01*
X51660319Y-43021212D01*
X51695262Y-43071439D01*
X51699500Y-43100096D01*
X51699500Y-55100500D01*
X51680593Y-55158691D01*
X51631093Y-55194655D01*
X51600500Y-55199500D01*
X45541155Y-55199500D01*
X45386503Y-55230263D01*
X45386501Y-55230263D01*
X45240825Y-55290603D01*
X45240814Y-55290609D01*
X45109711Y-55378211D01*
X45109707Y-55378214D01*
X44998214Y-55489707D01*
X44998211Y-55489711D01*
X44910609Y-55620814D01*
X44910603Y-55620825D01*
X44850263Y-55766501D01*
X44850263Y-55766503D01*
X44819500Y-55921155D01*
X44819500Y-58040500D01*
X44800593Y-58098691D01*
X44751093Y-58134655D01*
X44720502Y-58139500D01*
X44675139Y-58139500D01*
X44675135Y-58139501D01*
X44650009Y-58142414D01*
X44547235Y-58187794D01*
X44467794Y-58267235D01*
X44422414Y-58370011D01*
X44419500Y-58395130D01*
X44419500Y-60284860D01*
X44419501Y-60284863D01*
X44422414Y-60309990D01*
X44427281Y-60321012D01*
X44467794Y-60412765D01*
X44547235Y-60492206D01*
X44650009Y-60537585D01*
X44675135Y-60540500D01*
X44777150Y-60540499D01*
X44835339Y-60559406D01*
X44871303Y-60608905D01*
X44871304Y-60670091D01*
X44835341Y-60719591D01*
X44835340Y-60719592D01*
X44822485Y-60728931D01*
X45490591Y-61397037D01*
X45427007Y-61414075D01*
X45312993Y-61479901D01*
X45219901Y-61572993D01*
X45154075Y-61687007D01*
X45137037Y-61750591D01*
X44468931Y-61082485D01*
X44422613Y-61146239D01*
X44322569Y-61342586D01*
X44254471Y-61552170D01*
X44220000Y-61769814D01*
X44220000Y-61990185D01*
X44254471Y-62207829D01*
X44322569Y-62417413D01*
X44422609Y-62613753D01*
X44468932Y-62677512D01*
X45137036Y-62009407D01*
X45154075Y-62072993D01*
X45219901Y-62187007D01*
X45312993Y-62280099D01*
X45427007Y-62345925D01*
X45490589Y-62362962D01*
X44822485Y-63031067D01*
X44886241Y-63077387D01*
X45075346Y-63173741D01*
X45118611Y-63217006D01*
X45128182Y-63277438D01*
X45100405Y-63331954D01*
X45075347Y-63350160D01*
X44990806Y-63393236D01*
X44990804Y-63393237D01*
X44837928Y-63504309D01*
X44704309Y-63637928D01*
X44593238Y-63790803D01*
X44555207Y-63865445D01*
X44511942Y-63908710D01*
X44466997Y-63919500D01*
X43065892Y-63919500D01*
X42934108Y-63919500D01*
X42856200Y-63940375D01*
X42806809Y-63953609D01*
X42692690Y-64019496D01*
X42599496Y-64112690D01*
X42533609Y-64226809D01*
X42533608Y-64226814D01*
X42504784Y-64334390D01*
X42499500Y-64354109D01*
X42499500Y-65140500D01*
X42480593Y-65198691D01*
X42431093Y-65234655D01*
X42400500Y-65239500D01*
X31462797Y-65239500D01*
X31404606Y-65220593D01*
X31368642Y-65171093D01*
X31368642Y-65109907D01*
X31382704Y-65082310D01*
X31406758Y-65049202D01*
X31406760Y-65049199D01*
X31492547Y-64880832D01*
X31550940Y-64701118D01*
X31580500Y-64514481D01*
X31580500Y-64325519D01*
X31580500Y-64325515D01*
X31550941Y-64138886D01*
X31550940Y-64138882D01*
X31492547Y-63959168D01*
X31406760Y-63790801D01*
X31295690Y-63637927D01*
X31162073Y-63504310D01*
X31009199Y-63393240D01*
X31009198Y-63393239D01*
X31009196Y-63393238D01*
X30840832Y-63307453D01*
X30661113Y-63249058D01*
X30653046Y-63247781D01*
X30598529Y-63220004D01*
X30570751Y-63165488D01*
X30580322Y-63105056D01*
X30623586Y-63061791D01*
X30653046Y-63052219D01*
X30661113Y-63050941D01*
X30661114Y-63050940D01*
X30661118Y-63050940D01*
X30840832Y-62992547D01*
X31009199Y-62906760D01*
X31162073Y-62795690D01*
X31295690Y-62662073D01*
X31406760Y-62509199D01*
X31492547Y-62340832D01*
X31550940Y-62161118D01*
X31563937Y-62079057D01*
X31580500Y-61974484D01*
X31580500Y-61785517D01*
X31579851Y-61781421D01*
X31579851Y-61781419D01*
X31579850Y-61781415D01*
X31550941Y-61598886D01*
X31545174Y-61581136D01*
X31492547Y-61419168D01*
X31406760Y-61250801D01*
X31295690Y-61097927D01*
X31162073Y-60964310D01*
X31009199Y-60853240D01*
X31009198Y-60853239D01*
X31009196Y-60853238D01*
X30840832Y-60767453D01*
X30661113Y-60709058D01*
X30653046Y-60707781D01*
X30598529Y-60680004D01*
X30570751Y-60625488D01*
X30580322Y-60565056D01*
X30614434Y-60530943D01*
X31599500Y-60530943D01*
X31599500Y-60689057D01*
X31640423Y-60841784D01*
X31719480Y-60978716D01*
X31831284Y-61090520D01*
X31968216Y-61169577D01*
X32120943Y-61210500D01*
X32120945Y-61210500D01*
X32279055Y-61210500D01*
X32279057Y-61210500D01*
X32431784Y-61169577D01*
X32568716Y-61090520D01*
X32581730Y-61077506D01*
X32594742Y-61064495D01*
X32649259Y-61036719D01*
X32664744Y-61035500D01*
X33335256Y-61035500D01*
X33393447Y-61054407D01*
X33405258Y-61064495D01*
X33423249Y-61082485D01*
X33431284Y-61090520D01*
X33568216Y-61169577D01*
X33720943Y-61210500D01*
X33720945Y-61210500D01*
X33879055Y-61210500D01*
X33879057Y-61210500D01*
X34031784Y-61169577D01*
X34168716Y-61090520D01*
X34280520Y-60978716D01*
X34359577Y-60841784D01*
X34400500Y-60689057D01*
X34400500Y-60530943D01*
X34359577Y-60378216D01*
X34280520Y-60241284D01*
X34168716Y-60129480D01*
X34031784Y-60050423D01*
X33879057Y-60009500D01*
X33720943Y-60009500D01*
X33568216Y-60050423D01*
X33444114Y-60122073D01*
X33431281Y-60129482D01*
X33405258Y-60155505D01*
X33350741Y-60183281D01*
X33335256Y-60184500D01*
X32664744Y-60184500D01*
X32606553Y-60165593D01*
X32594742Y-60155505D01*
X32568718Y-60129482D01*
X32568716Y-60129480D01*
X32431784Y-60050423D01*
X32279057Y-60009500D01*
X32120943Y-60009500D01*
X31968216Y-60050423D01*
X31831284Y-60129480D01*
X31719480Y-60241284D01*
X31640423Y-60378216D01*
X31599500Y-60530943D01*
X30614434Y-60530943D01*
X30623586Y-60521791D01*
X30653046Y-60512219D01*
X30661113Y-60510941D01*
X30661114Y-60510940D01*
X30661118Y-60510940D01*
X30840832Y-60452547D01*
X30853857Y-60445910D01*
X30872824Y-60436247D01*
X30872829Y-60436244D01*
X30918911Y-60412764D01*
X31009199Y-60366760D01*
X31162073Y-60255690D01*
X31295690Y-60122073D01*
X31406760Y-59969199D01*
X31492547Y-59800832D01*
X31550940Y-59621118D01*
X31558044Y-59576264D01*
X31580500Y-59434484D01*
X31580500Y-59245515D01*
X31550941Y-59058886D01*
X31550940Y-59058882D01*
X31492547Y-58879168D01*
X31406760Y-58710801D01*
X31295690Y-58557927D01*
X31162073Y-58424310D01*
X31009199Y-58313240D01*
X31009198Y-58313239D01*
X31009196Y-58313238D01*
X30840832Y-58227453D01*
X30661113Y-58169058D01*
X30474484Y-58139500D01*
X30474481Y-58139500D01*
X30285519Y-58139500D01*
X30285516Y-58139500D01*
X30098886Y-58169058D01*
X29919167Y-58227453D01*
X29750803Y-58313238D01*
X29657691Y-58380889D01*
X29599500Y-58399796D01*
X29541309Y-58380889D01*
X29505345Y-58331389D01*
X29500500Y-58300796D01*
X29500500Y-40599500D01*
X29519407Y-40541309D01*
X29568907Y-40505345D01*
X29599500Y-40500500D01*
X30639364Y-40500500D01*
X30688862Y-40513762D01*
X30768216Y-40559577D01*
X30920943Y-40600500D01*
X30920945Y-40600500D01*
X31079055Y-40600500D01*
X31079057Y-40600500D01*
X31231784Y-40559577D01*
X31368716Y-40480520D01*
X31480520Y-40368716D01*
X31559577Y-40231784D01*
X31600500Y-40079057D01*
X31600500Y-39920943D01*
X31559577Y-39768216D01*
X31480520Y-39631284D01*
X31368716Y-39519480D01*
X31231784Y-39440423D01*
X31079057Y-39399500D01*
X30920943Y-39399500D01*
X30768216Y-39440423D01*
X30688862Y-39486237D01*
X30639364Y-39499500D01*
X29599500Y-39499500D01*
X29541309Y-39480593D01*
X29505345Y-39431093D01*
X29500500Y-39400500D01*
X29500500Y-32154109D01*
X29500500Y-32154108D01*
X29466392Y-32026814D01*
X29466390Y-32026811D01*
X29466390Y-32026809D01*
X29400503Y-31912690D01*
X29400501Y-31912688D01*
X29400500Y-31912686D01*
X29307314Y-31819500D01*
X29307311Y-31819498D01*
X29307309Y-31819496D01*
X29193189Y-31753609D01*
X29193191Y-31753609D01*
X29143799Y-31740375D01*
X29065892Y-31719500D01*
X29065890Y-31719500D01*
X27696351Y-31719500D01*
X27638160Y-31700593D01*
X27614035Y-31675501D01*
X27525300Y-31542699D01*
X27525298Y-31542696D01*
X27377304Y-31394702D01*
X27203282Y-31278425D01*
X27203283Y-31278425D01*
X27203281Y-31278424D01*
X27009923Y-31198332D01*
X27009917Y-31198330D01*
X26804649Y-31157500D01*
X26804647Y-31157500D01*
X26595353Y-31157500D01*
X26595350Y-31157500D01*
X26390082Y-31198330D01*
X26390076Y-31198332D01*
X26196718Y-31278424D01*
X26022699Y-31394699D01*
X25874699Y-31542699D01*
X25758424Y-31716718D01*
X25678332Y-31910076D01*
X25678330Y-31910082D01*
X25637500Y-32115350D01*
X25637500Y-32324649D01*
X25678330Y-32529917D01*
X25678332Y-32529923D01*
X25758424Y-32723281D01*
X25769199Y-32739407D01*
X25874702Y-32897304D01*
X26022696Y-33045298D01*
X26196718Y-33161575D01*
X26390080Y-33241669D01*
X26595353Y-33282500D01*
X26595354Y-33282500D01*
X26804646Y-33282500D01*
X26804647Y-33282500D01*
X27009920Y-33241669D01*
X27203282Y-33161575D01*
X27377304Y-33045298D01*
X27525298Y-32897304D01*
X27614035Y-32764499D01*
X27662085Y-32726619D01*
X27696351Y-32720500D01*
X28400500Y-32720500D01*
X28458691Y-32739407D01*
X28494655Y-32788907D01*
X28499500Y-32819500D01*
X28499500Y-36775500D01*
X28480593Y-36833691D01*
X28431093Y-36869655D01*
X28400500Y-36874500D01*
X27739943Y-36874500D01*
X27681752Y-36855593D01*
X27648479Y-36813385D01*
X27641576Y-36796720D01*
X27627397Y-36775500D01*
X27525298Y-36622696D01*
X27377304Y-36474702D01*
X27203282Y-36358425D01*
X27203283Y-36358425D01*
X27203281Y-36358424D01*
X27009923Y-36278332D01*
X27009917Y-36278330D01*
X26804649Y-36237500D01*
X26804647Y-36237500D01*
X26595353Y-36237500D01*
X26595350Y-36237500D01*
X26390082Y-36278330D01*
X26390076Y-36278332D01*
X26196718Y-36358424D01*
X26022699Y-36474699D01*
X25874699Y-36622699D01*
X25758424Y-36796718D01*
X25678332Y-36990076D01*
X25678330Y-36990082D01*
X25637500Y-37195350D01*
X25637500Y-37404649D01*
X25678330Y-37609917D01*
X25678332Y-37609923D01*
X25758424Y-37803281D01*
X25758425Y-37803282D01*
X25874702Y-37977304D01*
X26022696Y-38125298D01*
X26196718Y-38241575D01*
X26390080Y-38321669D01*
X26595353Y-38362500D01*
X26595354Y-38362500D01*
X26804646Y-38362500D01*
X26804647Y-38362500D01*
X27009920Y-38321669D01*
X27203282Y-38241575D01*
X27377304Y-38125298D01*
X27525298Y-37977304D01*
X27641575Y-37803282D01*
X27648479Y-37786615D01*
X27688215Y-37740089D01*
X27739943Y-37725500D01*
X27875500Y-37725500D01*
X27933691Y-37744407D01*
X27969655Y-37793907D01*
X27974500Y-37824500D01*
X27974500Y-39317228D01*
X27955593Y-39375419D01*
X27906093Y-39411383D01*
X27862822Y-39412520D01*
X27862450Y-39415347D01*
X27856018Y-39414500D01*
X27856017Y-39414500D01*
X27739943Y-39414500D01*
X27681752Y-39395593D01*
X27648479Y-39353385D01*
X27641576Y-39336720D01*
X27525300Y-39162699D01*
X27525298Y-39162696D01*
X27377304Y-39014702D01*
X27203282Y-38898425D01*
X27203283Y-38898425D01*
X27203281Y-38898424D01*
X27009923Y-38818332D01*
X27009917Y-38818330D01*
X26804649Y-38777500D01*
X26804647Y-38777500D01*
X26595353Y-38777500D01*
X26595350Y-38777500D01*
X26390082Y-38818330D01*
X26390076Y-38818332D01*
X26196718Y-38898424D01*
X26022699Y-39014699D01*
X25874699Y-39162699D01*
X25758424Y-39336718D01*
X25678332Y-39530076D01*
X25678330Y-39530082D01*
X25637500Y-39735350D01*
X25637500Y-39944649D01*
X25678330Y-40149917D01*
X25678332Y-40149923D01*
X25758424Y-40343281D01*
X25850123Y-40480519D01*
X25874702Y-40517304D01*
X26022696Y-40665298D01*
X26196718Y-40781575D01*
X26390080Y-40861669D01*
X26595353Y-40902500D01*
X26595354Y-40902500D01*
X26804646Y-40902500D01*
X26804647Y-40902500D01*
X27009920Y-40861669D01*
X27203282Y-40781575D01*
X27220497Y-40770071D01*
X27279385Y-40753463D01*
X27336789Y-40774640D01*
X27370783Y-40825513D01*
X27374500Y-40852387D01*
X27374500Y-41367612D01*
X27355593Y-41425803D01*
X27306093Y-41461767D01*
X27244907Y-41461767D01*
X27220502Y-41449930D01*
X27203282Y-41438424D01*
X27009923Y-41358332D01*
X27009917Y-41358330D01*
X26804649Y-41317500D01*
X26804647Y-41317500D01*
X26595353Y-41317500D01*
X26595350Y-41317500D01*
X26390082Y-41358330D01*
X26390076Y-41358332D01*
X26196718Y-41438424D01*
X26022699Y-41554699D01*
X25874699Y-41702699D01*
X25758424Y-41876718D01*
X25678332Y-42070076D01*
X25678330Y-42070082D01*
X25637500Y-42275350D01*
X25637500Y-42484649D01*
X25678330Y-42689917D01*
X25678332Y-42689923D01*
X25758424Y-42883281D01*
X25865127Y-43042974D01*
X25874702Y-43057304D01*
X26022696Y-43205298D01*
X26196718Y-43321575D01*
X26390080Y-43401669D01*
X26595353Y-43442500D01*
X26595354Y-43442500D01*
X26804646Y-43442500D01*
X26804647Y-43442500D01*
X27009920Y-43401669D01*
X27203282Y-43321575D01*
X27220497Y-43310071D01*
X27279385Y-43293463D01*
X27336789Y-43314640D01*
X27370783Y-43365513D01*
X27374500Y-43392387D01*
X27374500Y-43907612D01*
X27355593Y-43965803D01*
X27306093Y-44001767D01*
X27244907Y-44001767D01*
X27220502Y-43989930D01*
X27203282Y-43978424D01*
X27009923Y-43898332D01*
X27009917Y-43898330D01*
X26804649Y-43857500D01*
X26804647Y-43857500D01*
X26595353Y-43857500D01*
X26595350Y-43857500D01*
X26390082Y-43898330D01*
X26390076Y-43898332D01*
X26196718Y-43978424D01*
X26022699Y-44094699D01*
X25874699Y-44242699D01*
X25758424Y-44416718D01*
X25678332Y-44610076D01*
X25678330Y-44610082D01*
X25637500Y-44815350D01*
X25637500Y-45024649D01*
X25678330Y-45229917D01*
X25678332Y-45229923D01*
X25758424Y-45423281D01*
X25758425Y-45423282D01*
X25874702Y-45597304D01*
X26022696Y-45745298D01*
X26196718Y-45861575D01*
X26390080Y-45941669D01*
X26595353Y-45982500D01*
X26595354Y-45982500D01*
X26804646Y-45982500D01*
X26804647Y-45982500D01*
X27009920Y-45941669D01*
X27203282Y-45861575D01*
X27220497Y-45850071D01*
X27279385Y-45833463D01*
X27336789Y-45854640D01*
X27370783Y-45905513D01*
X27374500Y-45932387D01*
X27374500Y-46225745D01*
X27355593Y-46283936D01*
X27306093Y-46319900D01*
X27244907Y-46319900D01*
X27230556Y-46313955D01*
X27184443Y-46290460D01*
X26995514Y-46229073D01*
X26799325Y-46198000D01*
X26600675Y-46198000D01*
X26404485Y-46229073D01*
X26215559Y-46290459D01*
X26038567Y-46380641D01*
X26001283Y-46407728D01*
X26672554Y-47079000D01*
X26649840Y-47079000D01*
X26552939Y-47104964D01*
X26466060Y-47155124D01*
X26395124Y-47226060D01*
X26344964Y-47312939D01*
X26319000Y-47409840D01*
X26319000Y-47432555D01*
X25647728Y-46761283D01*
X25620641Y-46798567D01*
X25530459Y-46975559D01*
X25469073Y-47164485D01*
X25438000Y-47360674D01*
X25438000Y-47559325D01*
X25469073Y-47755514D01*
X25530459Y-47944440D01*
X25620637Y-48121425D01*
X25647729Y-48158714D01*
X26319000Y-47487443D01*
X26319000Y-47510160D01*
X26344964Y-47607061D01*
X26395124Y-47693940D01*
X26466060Y-47764876D01*
X26552939Y-47815036D01*
X26649840Y-47841000D01*
X26672553Y-47841000D01*
X26001283Y-48512270D01*
X26038564Y-48539357D01*
X26038568Y-48539359D01*
X26215559Y-48629540D01*
X26404485Y-48690926D01*
X26600675Y-48722000D01*
X26799325Y-48722000D01*
X26995514Y-48690926D01*
X27184440Y-48629540D01*
X27230553Y-48606044D01*
X27290985Y-48596472D01*
X27345502Y-48624248D01*
X27373281Y-48678764D01*
X27374500Y-48694253D01*
X27374500Y-48987612D01*
X27355593Y-49045803D01*
X27306093Y-49081767D01*
X27244907Y-49081767D01*
X27220502Y-49069930D01*
X27203282Y-49058424D01*
X27009923Y-48978332D01*
X27009917Y-48978330D01*
X26804649Y-48937500D01*
X26804647Y-48937500D01*
X26595353Y-48937500D01*
X26595350Y-48937500D01*
X26390082Y-48978330D01*
X26390076Y-48978332D01*
X26196718Y-49058424D01*
X26022699Y-49174699D01*
X25874699Y-49322699D01*
X25758424Y-49496718D01*
X25678332Y-49690076D01*
X25678330Y-49690082D01*
X25637500Y-49895350D01*
X25637500Y-50104649D01*
X25678330Y-50309917D01*
X25678332Y-50309923D01*
X25758424Y-50503281D01*
X25758425Y-50503282D01*
X25874702Y-50677304D01*
X26022696Y-50825298D01*
X26196718Y-50941575D01*
X26390080Y-51021669D01*
X26595353Y-51062500D01*
X26595354Y-51062500D01*
X26804646Y-51062500D01*
X26804647Y-51062500D01*
X27009920Y-51021669D01*
X27203282Y-50941575D01*
X27220497Y-50930071D01*
X27279385Y-50913463D01*
X27336789Y-50934640D01*
X27370783Y-50985513D01*
X27374500Y-51012387D01*
X27374500Y-75926018D01*
X27400072Y-76021455D01*
X27403498Y-76034241D01*
X27459513Y-76131260D01*
X27459515Y-76131263D01*
X27538737Y-76210485D01*
X27538739Y-76210486D01*
X27635759Y-76266501D01*
X27635757Y-76266501D01*
X27635761Y-76266502D01*
X27635763Y-76266503D01*
X27743982Y-76295500D01*
X27856018Y-76295500D01*
X29300836Y-76295500D01*
X29359027Y-76314407D01*
X29394991Y-76363907D01*
X29394991Y-76425093D01*
X29380929Y-76452691D01*
X29353238Y-76490803D01*
X29267453Y-76659167D01*
X29209058Y-76838886D01*
X29179500Y-77025515D01*
X29179500Y-77214484D01*
X29209058Y-77401113D01*
X29267453Y-77580832D01*
X29340698Y-77724585D01*
X29353240Y-77749199D01*
X29464310Y-77902073D01*
X29597927Y-78035690D01*
X29750801Y-78146760D01*
X29919168Y-78232547D01*
X30098882Y-78290940D01*
X30098883Y-78290940D01*
X30098886Y-78290941D01*
X30106954Y-78292219D01*
X30161471Y-78319996D01*
X30189248Y-78374513D01*
X30179677Y-78434945D01*
X30136412Y-78478210D01*
X30106954Y-78487781D01*
X30098886Y-78489058D01*
X29919167Y-78547453D01*
X29750803Y-78633238D01*
X29597928Y-78744309D01*
X29464309Y-78877928D01*
X29353238Y-79030803D01*
X29267453Y-79199167D01*
X29209058Y-79378886D01*
X29179500Y-79565515D01*
X29179500Y-79754484D01*
X29209058Y-79941113D01*
X29267453Y-80120832D01*
X29295307Y-80175500D01*
X29353240Y-80289199D01*
X29464310Y-80442073D01*
X29597927Y-80575690D01*
X29750801Y-80686760D01*
X29919168Y-80772547D01*
X30098882Y-80830940D01*
X30098883Y-80830940D01*
X30098886Y-80830941D01*
X30285516Y-80860500D01*
X30285519Y-80860500D01*
X30474484Y-80860500D01*
X30661113Y-80830941D01*
X30661114Y-80830940D01*
X30661118Y-80830940D01*
X30840832Y-80772547D01*
X31009199Y-80686760D01*
X31162073Y-80575690D01*
X31295690Y-80442073D01*
X31320908Y-80407362D01*
X31370407Y-80371400D01*
X31431593Y-80371400D01*
X31481093Y-80407364D01*
X31500000Y-80465555D01*
X31500000Y-81400500D01*
X31481093Y-81458691D01*
X31431593Y-81494655D01*
X31401000Y-81499500D01*
X23002985Y-81499500D01*
X22997008Y-81499319D01*
X22973564Y-81497900D01*
X22704695Y-81481637D01*
X22692828Y-81480196D01*
X22407722Y-81427948D01*
X22396114Y-81425087D01*
X22119384Y-81338855D01*
X22108206Y-81334616D01*
X21843881Y-81215652D01*
X21833303Y-81210100D01*
X21585233Y-81060138D01*
X21575413Y-81053359D01*
X21347244Y-80874599D01*
X21338295Y-80866672D01*
X21133327Y-80661704D01*
X21125400Y-80652755D01*
X21065023Y-80575690D01*
X20946638Y-80424583D01*
X20939864Y-80414770D01*
X20789895Y-80166690D01*
X20784347Y-80156118D01*
X20752564Y-80085500D01*
X20665380Y-79891786D01*
X20661147Y-79880623D01*
X20574911Y-79603882D01*
X20572051Y-79592277D01*
X20519802Y-79307164D01*
X20518362Y-79295303D01*
X20514684Y-79234500D01*
X20500681Y-79002992D01*
X20500500Y-78997015D01*
X20500500Y-76878710D01*
X21649500Y-76878710D01*
X21649500Y-77121289D01*
X21681161Y-77361781D01*
X21681161Y-77361786D01*
X21743944Y-77596092D01*
X21743948Y-77596105D01*
X21836772Y-77820204D01*
X21836774Y-77820208D01*
X21836776Y-77820212D01*
X21922915Y-77969409D01*
X21958066Y-78030292D01*
X22105729Y-78222731D01*
X22105731Y-78222733D01*
X22105735Y-78222738D01*
X22277262Y-78394265D01*
X22277266Y-78394268D01*
X22277268Y-78394270D01*
X22469707Y-78541933D01*
X22469711Y-78541936D01*
X22679788Y-78663224D01*
X22903900Y-78756054D01*
X23138211Y-78818838D01*
X23378712Y-78850500D01*
X23378713Y-78850500D01*
X23621287Y-78850500D01*
X23621288Y-78850500D01*
X23861789Y-78818838D01*
X24096100Y-78756054D01*
X24320212Y-78663224D01*
X24530289Y-78541936D01*
X24722738Y-78394265D01*
X24894265Y-78222738D01*
X25041936Y-78030289D01*
X25163224Y-77820212D01*
X25256054Y-77596100D01*
X25318838Y-77361789D01*
X25350500Y-77121288D01*
X25350500Y-76878712D01*
X25318838Y-76638211D01*
X25256054Y-76403900D01*
X25178391Y-76216406D01*
X25163227Y-76179795D01*
X25163226Y-76179794D01*
X25163224Y-76179788D01*
X25041936Y-75969711D01*
X24995736Y-75909502D01*
X24894270Y-75777268D01*
X24894268Y-75777266D01*
X24894265Y-75777262D01*
X24722738Y-75605735D01*
X24722733Y-75605731D01*
X24722731Y-75605729D01*
X24530292Y-75458066D01*
X24506795Y-75444500D01*
X24320212Y-75336776D01*
X24320208Y-75336774D01*
X24320204Y-75336772D01*
X24096105Y-75243948D01*
X24096104Y-75243947D01*
X24096100Y-75243946D01*
X23861789Y-75181162D01*
X23861786Y-75181161D01*
X23861784Y-75181161D01*
X23621289Y-75149500D01*
X23621288Y-75149500D01*
X23378712Y-75149500D01*
X23378710Y-75149500D01*
X23138218Y-75181161D01*
X23138213Y-75181161D01*
X22903907Y-75243944D01*
X22903894Y-75243948D01*
X22679795Y-75336772D01*
X22469707Y-75458066D01*
X22277268Y-75605729D01*
X22105729Y-75777268D01*
X21958066Y-75969707D01*
X21836772Y-76179795D01*
X21743948Y-76403894D01*
X21743944Y-76403907D01*
X21681161Y-76638213D01*
X21681161Y-76638218D01*
X21649500Y-76878710D01*
X20500500Y-76878710D01*
X20500500Y-34660674D01*
X25438000Y-34660674D01*
X25438000Y-34859325D01*
X25469073Y-35055514D01*
X25530459Y-35244440D01*
X25620637Y-35421425D01*
X25647729Y-35458714D01*
X26319000Y-34787443D01*
X26319000Y-34810160D01*
X26344964Y-34907061D01*
X26395124Y-34993940D01*
X26466060Y-35064876D01*
X26552939Y-35115036D01*
X26649840Y-35141000D01*
X26672553Y-35141000D01*
X26001283Y-35812270D01*
X26038564Y-35839357D01*
X26038568Y-35839359D01*
X26215559Y-35929540D01*
X26404485Y-35990926D01*
X26600675Y-36022000D01*
X26799325Y-36022000D01*
X26995514Y-35990926D01*
X27184440Y-35929540D01*
X27361434Y-35839357D01*
X27398715Y-35812270D01*
X26727445Y-35141000D01*
X26750160Y-35141000D01*
X26847061Y-35115036D01*
X26933940Y-35064876D01*
X27004876Y-34993940D01*
X27055036Y-34907061D01*
X27081000Y-34810160D01*
X27081000Y-34787445D01*
X27752270Y-35458715D01*
X27779357Y-35421434D01*
X27869540Y-35244440D01*
X27930926Y-35055514D01*
X27962000Y-34859325D01*
X27962000Y-34660674D01*
X27930926Y-34464485D01*
X27869540Y-34275559D01*
X27779359Y-34098568D01*
X27779357Y-34098564D01*
X27752270Y-34061283D01*
X27081000Y-34732553D01*
X27081000Y-34709840D01*
X27055036Y-34612939D01*
X27004876Y-34526060D01*
X26933940Y-34455124D01*
X26847061Y-34404964D01*
X26750160Y-34379000D01*
X26727443Y-34379000D01*
X27398714Y-33707729D01*
X27361425Y-33680637D01*
X27184440Y-33590459D01*
X26995514Y-33529073D01*
X26799325Y-33498000D01*
X26600675Y-33498000D01*
X26404485Y-33529073D01*
X26215559Y-33590459D01*
X26038567Y-33680641D01*
X26001283Y-33707728D01*
X26672555Y-34379000D01*
X26649840Y-34379000D01*
X26552939Y-34404964D01*
X26466060Y-34455124D01*
X26395124Y-34526060D01*
X26344964Y-34612939D01*
X26319000Y-34709840D01*
X26319000Y-34732555D01*
X25647728Y-34061283D01*
X25620641Y-34098567D01*
X25530459Y-34275559D01*
X25469073Y-34464485D01*
X25438000Y-34660674D01*
X20500500Y-34660674D01*
X20500500Y-24878710D01*
X22149500Y-24878710D01*
X22149500Y-25121289D01*
X22181161Y-25361781D01*
X22181161Y-25361786D01*
X22243944Y-25596092D01*
X22243948Y-25596105D01*
X22336772Y-25820204D01*
X22336774Y-25820208D01*
X22336776Y-25820212D01*
X22458064Y-26030289D01*
X22458066Y-26030292D01*
X22605729Y-26222731D01*
X22605731Y-26222733D01*
X22605735Y-26222738D01*
X22777262Y-26394265D01*
X22777266Y-26394268D01*
X22777268Y-26394270D01*
X22840668Y-26442918D01*
X22969711Y-26541936D01*
X23179788Y-26663224D01*
X23403900Y-26756054D01*
X23638211Y-26818838D01*
X23878712Y-26850500D01*
X23878713Y-26850500D01*
X24121287Y-26850500D01*
X24121288Y-26850500D01*
X24361789Y-26818838D01*
X24596100Y-26756054D01*
X24820212Y-26663224D01*
X25030289Y-26541936D01*
X25222738Y-26394265D01*
X25394265Y-26222738D01*
X25541936Y-26030289D01*
X25663224Y-25820212D01*
X25756054Y-25596100D01*
X25818838Y-25361789D01*
X25850500Y-25121288D01*
X25850500Y-24878712D01*
X25818838Y-24638211D01*
X25775669Y-24477105D01*
X51625000Y-24477105D01*
X51625000Y-24722894D01*
X51657081Y-24966571D01*
X51657081Y-24966576D01*
X51720695Y-25203984D01*
X51720699Y-25203997D01*
X51814753Y-25431067D01*
X51814755Y-25431072D01*
X51937647Y-25643926D01*
X52009229Y-25737215D01*
X52727545Y-25018898D01*
X52820343Y-25157780D01*
X52942220Y-25279657D01*
X53081099Y-25372452D01*
X52362783Y-26090769D01*
X52456073Y-26162352D01*
X52668927Y-26285244D01*
X52668932Y-26285246D01*
X52896002Y-26379300D01*
X52896015Y-26379304D01*
X53133425Y-26442918D01*
X53377105Y-26474999D01*
X53377107Y-26475000D01*
X53622893Y-26475000D01*
X53622894Y-26474999D01*
X53866571Y-26442918D01*
X53866576Y-26442918D01*
X54103984Y-26379304D01*
X54103997Y-26379300D01*
X54331067Y-26285246D01*
X54331072Y-26285244D01*
X54543922Y-26162355D01*
X54637215Y-26090769D01*
X53918899Y-25372453D01*
X54057780Y-25279657D01*
X54179657Y-25157780D01*
X54272453Y-25018899D01*
X54990769Y-25737215D01*
X55062355Y-25643922D01*
X55185244Y-25431072D01*
X55185246Y-25431067D01*
X55279300Y-25203997D01*
X55279304Y-25203984D01*
X55342918Y-24966576D01*
X55342918Y-24966571D01*
X55354486Y-24878710D01*
X88149500Y-24878710D01*
X88149500Y-25121289D01*
X88181161Y-25361781D01*
X88181161Y-25361786D01*
X88243944Y-25596092D01*
X88243948Y-25596105D01*
X88336772Y-25820204D01*
X88336774Y-25820208D01*
X88336776Y-25820212D01*
X88458064Y-26030289D01*
X88458066Y-26030292D01*
X88605729Y-26222731D01*
X88605731Y-26222733D01*
X88605735Y-26222738D01*
X88777262Y-26394265D01*
X88777266Y-26394268D01*
X88777268Y-26394270D01*
X88840668Y-26442918D01*
X88969711Y-26541936D01*
X89179788Y-26663224D01*
X89403900Y-26756054D01*
X89638211Y-26818838D01*
X89878712Y-26850500D01*
X89878713Y-26850500D01*
X90121287Y-26850500D01*
X90121288Y-26850500D01*
X90361789Y-26818838D01*
X90596100Y-26756054D01*
X90820212Y-26663224D01*
X91030289Y-26541936D01*
X91222738Y-26394265D01*
X91394265Y-26222738D01*
X91541936Y-26030289D01*
X91663224Y-25820212D01*
X91756054Y-25596100D01*
X91818838Y-25361789D01*
X91850500Y-25121288D01*
X91850500Y-24878712D01*
X91818838Y-24638211D01*
X91756054Y-24403900D01*
X91663224Y-24179788D01*
X91541936Y-23969711D01*
X91394265Y-23777262D01*
X91222738Y-23605735D01*
X91222733Y-23605731D01*
X91222731Y-23605729D01*
X91030292Y-23458066D01*
X91030289Y-23458064D01*
X90820212Y-23336776D01*
X90820208Y-23336774D01*
X90820204Y-23336772D01*
X90596105Y-23243948D01*
X90596104Y-23243947D01*
X90596100Y-23243946D01*
X90361789Y-23181162D01*
X90361786Y-23181161D01*
X90361784Y-23181161D01*
X90121289Y-23149500D01*
X90121288Y-23149500D01*
X89878712Y-23149500D01*
X89878710Y-23149500D01*
X89638218Y-23181161D01*
X89638213Y-23181161D01*
X89403907Y-23243944D01*
X89403894Y-23243948D01*
X89179795Y-23336772D01*
X88969707Y-23458066D01*
X88777268Y-23605729D01*
X88605729Y-23777268D01*
X88458066Y-23969707D01*
X88336772Y-24179795D01*
X88243948Y-24403894D01*
X88243944Y-24403907D01*
X88181161Y-24638213D01*
X88181161Y-24638218D01*
X88149500Y-24878710D01*
X55354486Y-24878710D01*
X55356614Y-24862549D01*
X55374999Y-24722894D01*
X55375000Y-24722893D01*
X55375000Y-24477107D01*
X55374999Y-24477105D01*
X55342918Y-24233428D01*
X55342918Y-24233423D01*
X55279304Y-23996015D01*
X55279300Y-23996002D01*
X55185246Y-23768932D01*
X55185244Y-23768927D01*
X55062352Y-23556073D01*
X54990768Y-23462783D01*
X54272452Y-24181098D01*
X54179657Y-24042220D01*
X54057780Y-23920343D01*
X53918898Y-23827545D01*
X54637215Y-23109229D01*
X54543926Y-23037647D01*
X54331072Y-22914755D01*
X54331067Y-22914753D01*
X54103997Y-22820699D01*
X54103984Y-22820695D01*
X53866574Y-22757081D01*
X53622894Y-22725000D01*
X53377105Y-22725000D01*
X53133428Y-22757081D01*
X53133423Y-22757081D01*
X52896015Y-22820695D01*
X52896002Y-22820699D01*
X52668932Y-22914753D01*
X52668927Y-22914755D01*
X52456078Y-23037644D01*
X52362783Y-23109229D01*
X53081100Y-23827546D01*
X52942220Y-23920343D01*
X52820343Y-24042220D01*
X52727546Y-24181100D01*
X52009229Y-23462783D01*
X51937644Y-23556078D01*
X51814755Y-23768927D01*
X51814753Y-23768932D01*
X51720699Y-23996002D01*
X51720695Y-23996015D01*
X51657081Y-24233423D01*
X51657081Y-24233428D01*
X51625000Y-24477105D01*
X25775669Y-24477105D01*
X25756054Y-24403900D01*
X25663224Y-24179788D01*
X25541936Y-23969711D01*
X25394265Y-23777262D01*
X25222738Y-23605735D01*
X25222733Y-23605731D01*
X25222731Y-23605729D01*
X25030292Y-23458066D01*
X25030289Y-23458064D01*
X24820212Y-23336776D01*
X24820208Y-23336774D01*
X24820204Y-23336772D01*
X24596105Y-23243948D01*
X24596104Y-23243947D01*
X24596100Y-23243946D01*
X24596089Y-23243943D01*
X24593100Y-23243142D01*
X24593099Y-23243142D01*
X24361789Y-23181162D01*
X24361786Y-23181161D01*
X24361784Y-23181161D01*
X24121289Y-23149500D01*
X24121288Y-23149500D01*
X23878712Y-23149500D01*
X23878710Y-23149500D01*
X23638218Y-23181161D01*
X23638213Y-23181161D01*
X23403907Y-23243944D01*
X23403894Y-23243948D01*
X23179795Y-23336772D01*
X22969707Y-23458066D01*
X22777268Y-23605729D01*
X22605729Y-23777268D01*
X22458066Y-23969707D01*
X22336772Y-24179795D01*
X22243948Y-24403894D01*
X22243944Y-24403907D01*
X22181161Y-24638213D01*
X22181161Y-24638218D01*
X22149500Y-24878710D01*
X20500500Y-24878710D01*
X20500500Y-23002984D01*
X20500681Y-22997007D01*
X20510902Y-22828031D01*
X20518362Y-22704688D01*
X20519801Y-22692837D01*
X20572052Y-22407715D01*
X20574912Y-22396114D01*
X20661148Y-22119370D01*
X20665378Y-22108218D01*
X20784350Y-21843875D01*
X20789891Y-21833315D01*
X20939868Y-21585221D01*
X20946632Y-21575424D01*
X21125407Y-21347235D01*
X21133319Y-21338303D01*
X21338303Y-21133319D01*
X21347235Y-21125407D01*
X21575424Y-20946632D01*
X21585221Y-20939868D01*
X21833315Y-20789891D01*
X21843875Y-20784350D01*
X22108218Y-20665378D01*
X22119370Y-20661148D01*
X22396121Y-20574910D01*
X22407715Y-20572052D01*
X22692837Y-20519801D01*
X22704688Y-20518362D01*
X22997008Y-20500681D01*
X23002985Y-20500500D01*
X23065892Y-20500500D01*
X90934108Y-20500500D01*
X90997015Y-20500500D01*
X91002992Y-20500681D01*
G37*
%TD.AperFunction*%
%TA.AperFunction,Conductor*%
G36*
X44525188Y-64939407D02*
G01*
X44555207Y-64974555D01*
X44578107Y-65019500D01*
X44593240Y-65049199D01*
X44704310Y-65202073D01*
X44837927Y-65335690D01*
X44990801Y-65446760D01*
X45159168Y-65532547D01*
X45338882Y-65590940D01*
X45338883Y-65590940D01*
X45338886Y-65590941D01*
X45346954Y-65592219D01*
X45401471Y-65619996D01*
X45429248Y-65674513D01*
X45419677Y-65734945D01*
X45376412Y-65778210D01*
X45346954Y-65787781D01*
X45338886Y-65789058D01*
X45159167Y-65847453D01*
X44990803Y-65933238D01*
X44837928Y-66044309D01*
X44704309Y-66177928D01*
X44593238Y-66330803D01*
X44507453Y-66499167D01*
X44449058Y-66678886D01*
X44419500Y-66865515D01*
X44419500Y-67054484D01*
X44449058Y-67241113D01*
X44507453Y-67420832D01*
X44527945Y-67461051D01*
X44593240Y-67589199D01*
X44704310Y-67742073D01*
X44837927Y-67875690D01*
X44990801Y-67986760D01*
X45159168Y-68072547D01*
X45338882Y-68130940D01*
X45338883Y-68130940D01*
X45338886Y-68130941D01*
X45346954Y-68132219D01*
X45401471Y-68159996D01*
X45429248Y-68214513D01*
X45419677Y-68274945D01*
X45376412Y-68318210D01*
X45346954Y-68327781D01*
X45338886Y-68329058D01*
X45159167Y-68387453D01*
X44990803Y-68473238D01*
X44837928Y-68584309D01*
X44704309Y-68717928D01*
X44593238Y-68870803D01*
X44507453Y-69039167D01*
X44449058Y-69218886D01*
X44419500Y-69405515D01*
X44419500Y-69594484D01*
X44449058Y-69781113D01*
X44507453Y-69960832D01*
X44527945Y-70001051D01*
X44593240Y-70129199D01*
X44634907Y-70186549D01*
X44635460Y-70187309D01*
X44654367Y-70245500D01*
X44635460Y-70303691D01*
X44585960Y-70339655D01*
X44555367Y-70344500D01*
X31444633Y-70344500D01*
X31386442Y-70325593D01*
X31350478Y-70276093D01*
X31350478Y-70214907D01*
X31364540Y-70187309D01*
X31406760Y-70129199D01*
X31492547Y-69960832D01*
X31550940Y-69781118D01*
X31573550Y-69638362D01*
X31580500Y-69594484D01*
X31580500Y-69405515D01*
X31550941Y-69218886D01*
X31550799Y-69218449D01*
X31492547Y-69039168D01*
X31406760Y-68870801D01*
X31295690Y-68717927D01*
X31162073Y-68584310D01*
X31009199Y-68473240D01*
X31009198Y-68473239D01*
X31009196Y-68473238D01*
X30840832Y-68387453D01*
X30661113Y-68329058D01*
X30653046Y-68327781D01*
X30598529Y-68300004D01*
X30570751Y-68245488D01*
X30580322Y-68185056D01*
X30623586Y-68141791D01*
X30653046Y-68132219D01*
X30661113Y-68130941D01*
X30661114Y-68130940D01*
X30661118Y-68130940D01*
X30840832Y-68072547D01*
X31009199Y-67986760D01*
X31162073Y-67875690D01*
X31295690Y-67742073D01*
X31406760Y-67589199D01*
X31492547Y-67420832D01*
X31550940Y-67241118D01*
X31573550Y-67098362D01*
X31580500Y-67054484D01*
X31580500Y-66865515D01*
X31550941Y-66678886D01*
X31550799Y-66678449D01*
X31492547Y-66499168D01*
X31406760Y-66330801D01*
X31406758Y-66330797D01*
X31382704Y-66297690D01*
X31363797Y-66239500D01*
X31382705Y-66181309D01*
X31432205Y-66145345D01*
X31462797Y-66140500D01*
X42752761Y-66140500D01*
X42802258Y-66153761D01*
X42806814Y-66156392D01*
X42934108Y-66190500D01*
X42934110Y-66190500D01*
X43065890Y-66190500D01*
X43065892Y-66190500D01*
X43193186Y-66156392D01*
X43193188Y-66156390D01*
X43193190Y-66156390D01*
X43307309Y-66090503D01*
X43307309Y-66090502D01*
X43307314Y-66090500D01*
X43400500Y-65997314D01*
X43437493Y-65933240D01*
X43466390Y-65883190D01*
X43466390Y-65883188D01*
X43466392Y-65883186D01*
X43500500Y-65755892D01*
X43500500Y-65019500D01*
X43519407Y-64961309D01*
X43568907Y-64925345D01*
X43599500Y-64920500D01*
X44466997Y-64920500D01*
X44525188Y-64939407D01*
G37*
%TD.AperFunction*%
%TA.AperFunction,Conductor*%
G36*
X46749275Y-60542033D02*
G01*
X46773989Y-60598005D01*
X46774500Y-60608050D01*
X46774500Y-61038045D01*
X46755593Y-61096236D01*
X46745504Y-61108049D01*
X46102962Y-61750589D01*
X46085925Y-61687007D01*
X46020099Y-61572993D01*
X45927007Y-61479901D01*
X45812993Y-61414075D01*
X45749407Y-61397036D01*
X46417513Y-60728931D01*
X46404659Y-60719593D01*
X46368694Y-60670093D01*
X46368693Y-60608908D01*
X46404656Y-60559407D01*
X46462845Y-60540499D01*
X46564864Y-60540499D01*
X46589991Y-60537585D01*
X46635511Y-60517485D01*
X46696381Y-60511277D01*
X46749275Y-60542033D01*
G37*
%TD.AperFunction*%
%TD*%
M02*
