%TF.GenerationSoftware,KiCad,Pcbnew,10.0.5*%
%TF.CreationDate,2026-08-30T11:49:37+07:00*%
%TF.ProjectId,vsmart-module-esp32-s3-mini,76736d61-7274-42d6-9d6f-64756c652d65,rev?*%
%TF.SameCoordinates,Original*%
%TF.FileFunction,Legend,Top*%
%TF.FilePolarity,Positive*%
%FSLAX46Y46*%
G04 Gerber Fmt 4.6, Leading zero omitted, Abs format (unit mm)*
G04 Created by KiCad (PCBNEW 10.0.5) date 2026-08-30 11:49:37*
%MOMM*%
%LPD*%
G01*
G04 APERTURE LIST*
%ADD10C,0.130000*%
%ADD11C,0.150000*%
%ADD12C,0.170000*%
%ADD13C,0.100000*%
%ADD14C,0.127000*%
%ADD15C,0.120000*%
%ADD16C,0.200000*%
G04 APERTURE END LIST*
D10*
X31390476Y-27363335D02*
X31390476Y-26563335D01*
X31390476Y-26563335D02*
X31657142Y-27134763D01*
X31657142Y-27134763D02*
X31923809Y-26563335D01*
X31923809Y-26563335D02*
X31923809Y-27363335D01*
X32304762Y-27363335D02*
X32304762Y-26563335D01*
X32304762Y-26563335D02*
X32609524Y-26563335D01*
X32609524Y-26563335D02*
X32685714Y-26601430D01*
X32685714Y-26601430D02*
X32723809Y-26639525D01*
X32723809Y-26639525D02*
X32761905Y-26715716D01*
X32761905Y-26715716D02*
X32761905Y-26830001D01*
X32761905Y-26830001D02*
X32723809Y-26906192D01*
X32723809Y-26906192D02*
X32685714Y-26944287D01*
X32685714Y-26944287D02*
X32609524Y-26982382D01*
X32609524Y-26982382D02*
X32304762Y-26982382D01*
X33104762Y-26563335D02*
X33104762Y-27210954D01*
X33104762Y-27210954D02*
X33142857Y-27287144D01*
X33142857Y-27287144D02*
X33180952Y-27325240D01*
X33180952Y-27325240D02*
X33257143Y-27363335D01*
X33257143Y-27363335D02*
X33409524Y-27363335D01*
X33409524Y-27363335D02*
X33485714Y-27325240D01*
X33485714Y-27325240D02*
X33523809Y-27287144D01*
X33523809Y-27287144D02*
X33561905Y-27210954D01*
X33561905Y-27210954D02*
X33561905Y-26563335D01*
X34285714Y-26563335D02*
X34133333Y-26563335D01*
X34133333Y-26563335D02*
X34057142Y-26601430D01*
X34057142Y-26601430D02*
X34019047Y-26639525D01*
X34019047Y-26639525D02*
X33942857Y-26753811D01*
X33942857Y-26753811D02*
X33904761Y-26906192D01*
X33904761Y-26906192D02*
X33904761Y-27210954D01*
X33904761Y-27210954D02*
X33942857Y-27287144D01*
X33942857Y-27287144D02*
X33980952Y-27325240D01*
X33980952Y-27325240D02*
X34057142Y-27363335D01*
X34057142Y-27363335D02*
X34209523Y-27363335D01*
X34209523Y-27363335D02*
X34285714Y-27325240D01*
X34285714Y-27325240D02*
X34323809Y-27287144D01*
X34323809Y-27287144D02*
X34361904Y-27210954D01*
X34361904Y-27210954D02*
X34361904Y-27020478D01*
X34361904Y-27020478D02*
X34323809Y-26944287D01*
X34323809Y-26944287D02*
X34285714Y-26906192D01*
X34285714Y-26906192D02*
X34209523Y-26868097D01*
X34209523Y-26868097D02*
X34057142Y-26868097D01*
X34057142Y-26868097D02*
X33980952Y-26906192D01*
X33980952Y-26906192D02*
X33942857Y-26944287D01*
X33942857Y-26944287D02*
X33904761Y-27020478D01*
X34857143Y-26563335D02*
X34933333Y-26563335D01*
X34933333Y-26563335D02*
X35009524Y-26601430D01*
X35009524Y-26601430D02*
X35047619Y-26639525D01*
X35047619Y-26639525D02*
X35085714Y-26715716D01*
X35085714Y-26715716D02*
X35123809Y-26868097D01*
X35123809Y-26868097D02*
X35123809Y-27058573D01*
X35123809Y-27058573D02*
X35085714Y-27210954D01*
X35085714Y-27210954D02*
X35047619Y-27287144D01*
X35047619Y-27287144D02*
X35009524Y-27325240D01*
X35009524Y-27325240D02*
X34933333Y-27363335D01*
X34933333Y-27363335D02*
X34857143Y-27363335D01*
X34857143Y-27363335D02*
X34780952Y-27325240D01*
X34780952Y-27325240D02*
X34742857Y-27287144D01*
X34742857Y-27287144D02*
X34704762Y-27210954D01*
X34704762Y-27210954D02*
X34666666Y-27058573D01*
X34666666Y-27058573D02*
X34666666Y-26868097D01*
X34666666Y-26868097D02*
X34704762Y-26715716D01*
X34704762Y-26715716D02*
X34742857Y-26639525D01*
X34742857Y-26639525D02*
X34780952Y-26601430D01*
X34780952Y-26601430D02*
X34857143Y-26563335D01*
X35847619Y-26563335D02*
X35466667Y-26563335D01*
X35466667Y-26563335D02*
X35428571Y-26944287D01*
X35428571Y-26944287D02*
X35466667Y-26906192D01*
X35466667Y-26906192D02*
X35542857Y-26868097D01*
X35542857Y-26868097D02*
X35733333Y-26868097D01*
X35733333Y-26868097D02*
X35809524Y-26906192D01*
X35809524Y-26906192D02*
X35847619Y-26944287D01*
X35847619Y-26944287D02*
X35885714Y-27020478D01*
X35885714Y-27020478D02*
X35885714Y-27210954D01*
X35885714Y-27210954D02*
X35847619Y-27287144D01*
X35847619Y-27287144D02*
X35809524Y-27325240D01*
X35809524Y-27325240D02*
X35733333Y-27363335D01*
X35733333Y-27363335D02*
X35542857Y-27363335D01*
X35542857Y-27363335D02*
X35466667Y-27325240D01*
X35466667Y-27325240D02*
X35428571Y-27287144D01*
X36380953Y-26563335D02*
X36457143Y-26563335D01*
X36457143Y-26563335D02*
X36533334Y-26601430D01*
X36533334Y-26601430D02*
X36571429Y-26639525D01*
X36571429Y-26639525D02*
X36609524Y-26715716D01*
X36609524Y-26715716D02*
X36647619Y-26868097D01*
X36647619Y-26868097D02*
X36647619Y-27058573D01*
X36647619Y-27058573D02*
X36609524Y-27210954D01*
X36609524Y-27210954D02*
X36571429Y-27287144D01*
X36571429Y-27287144D02*
X36533334Y-27325240D01*
X36533334Y-27325240D02*
X36457143Y-27363335D01*
X36457143Y-27363335D02*
X36380953Y-27363335D01*
X36380953Y-27363335D02*
X36304762Y-27325240D01*
X36304762Y-27325240D02*
X36266667Y-27287144D01*
X36266667Y-27287144D02*
X36228572Y-27210954D01*
X36228572Y-27210954D02*
X36190476Y-27058573D01*
X36190476Y-27058573D02*
X36190476Y-26868097D01*
X36190476Y-26868097D02*
X36228572Y-26715716D01*
X36228572Y-26715716D02*
X36266667Y-26639525D01*
X36266667Y-26639525D02*
X36304762Y-26601430D01*
X36304762Y-26601430D02*
X36380953Y-26563335D01*
X35028571Y-54444287D02*
X35295237Y-54444287D01*
X35409523Y-54863335D02*
X35028571Y-54863335D01*
X35028571Y-54863335D02*
X35028571Y-54063335D01*
X35028571Y-54063335D02*
X35409523Y-54063335D01*
X35714285Y-54825240D02*
X35828571Y-54863335D01*
X35828571Y-54863335D02*
X36019047Y-54863335D01*
X36019047Y-54863335D02*
X36095238Y-54825240D01*
X36095238Y-54825240D02*
X36133333Y-54787144D01*
X36133333Y-54787144D02*
X36171428Y-54710954D01*
X36171428Y-54710954D02*
X36171428Y-54634763D01*
X36171428Y-54634763D02*
X36133333Y-54558573D01*
X36133333Y-54558573D02*
X36095238Y-54520478D01*
X36095238Y-54520478D02*
X36019047Y-54482382D01*
X36019047Y-54482382D02*
X35866666Y-54444287D01*
X35866666Y-54444287D02*
X35790476Y-54406192D01*
X35790476Y-54406192D02*
X35752381Y-54368097D01*
X35752381Y-54368097D02*
X35714285Y-54291906D01*
X35714285Y-54291906D02*
X35714285Y-54215716D01*
X35714285Y-54215716D02*
X35752381Y-54139525D01*
X35752381Y-54139525D02*
X35790476Y-54101430D01*
X35790476Y-54101430D02*
X35866666Y-54063335D01*
X35866666Y-54063335D02*
X36057143Y-54063335D01*
X36057143Y-54063335D02*
X36171428Y-54101430D01*
X36514286Y-54863335D02*
X36514286Y-54063335D01*
X36514286Y-54063335D02*
X36819048Y-54063335D01*
X36819048Y-54063335D02*
X36895238Y-54101430D01*
X36895238Y-54101430D02*
X36933333Y-54139525D01*
X36933333Y-54139525D02*
X36971429Y-54215716D01*
X36971429Y-54215716D02*
X36971429Y-54330001D01*
X36971429Y-54330001D02*
X36933333Y-54406192D01*
X36933333Y-54406192D02*
X36895238Y-54444287D01*
X36895238Y-54444287D02*
X36819048Y-54482382D01*
X36819048Y-54482382D02*
X36514286Y-54482382D01*
X37238095Y-54063335D02*
X37733333Y-54063335D01*
X37733333Y-54063335D02*
X37466667Y-54368097D01*
X37466667Y-54368097D02*
X37580952Y-54368097D01*
X37580952Y-54368097D02*
X37657143Y-54406192D01*
X37657143Y-54406192D02*
X37695238Y-54444287D01*
X37695238Y-54444287D02*
X37733333Y-54520478D01*
X37733333Y-54520478D02*
X37733333Y-54710954D01*
X37733333Y-54710954D02*
X37695238Y-54787144D01*
X37695238Y-54787144D02*
X37657143Y-54825240D01*
X37657143Y-54825240D02*
X37580952Y-54863335D01*
X37580952Y-54863335D02*
X37352381Y-54863335D01*
X37352381Y-54863335D02*
X37276190Y-54825240D01*
X37276190Y-54825240D02*
X37238095Y-54787144D01*
X38038095Y-54139525D02*
X38076191Y-54101430D01*
X38076191Y-54101430D02*
X38152381Y-54063335D01*
X38152381Y-54063335D02*
X38342857Y-54063335D01*
X38342857Y-54063335D02*
X38419048Y-54101430D01*
X38419048Y-54101430D02*
X38457143Y-54139525D01*
X38457143Y-54139525D02*
X38495238Y-54215716D01*
X38495238Y-54215716D02*
X38495238Y-54291906D01*
X38495238Y-54291906D02*
X38457143Y-54406192D01*
X38457143Y-54406192D02*
X38000000Y-54863335D01*
X38000000Y-54863335D02*
X38495238Y-54863335D01*
X38838096Y-54558573D02*
X39447620Y-54558573D01*
X39790476Y-54825240D02*
X39904762Y-54863335D01*
X39904762Y-54863335D02*
X40095238Y-54863335D01*
X40095238Y-54863335D02*
X40171429Y-54825240D01*
X40171429Y-54825240D02*
X40209524Y-54787144D01*
X40209524Y-54787144D02*
X40247619Y-54710954D01*
X40247619Y-54710954D02*
X40247619Y-54634763D01*
X40247619Y-54634763D02*
X40209524Y-54558573D01*
X40209524Y-54558573D02*
X40171429Y-54520478D01*
X40171429Y-54520478D02*
X40095238Y-54482382D01*
X40095238Y-54482382D02*
X39942857Y-54444287D01*
X39942857Y-54444287D02*
X39866667Y-54406192D01*
X39866667Y-54406192D02*
X39828572Y-54368097D01*
X39828572Y-54368097D02*
X39790476Y-54291906D01*
X39790476Y-54291906D02*
X39790476Y-54215716D01*
X39790476Y-54215716D02*
X39828572Y-54139525D01*
X39828572Y-54139525D02*
X39866667Y-54101430D01*
X39866667Y-54101430D02*
X39942857Y-54063335D01*
X39942857Y-54063335D02*
X40133334Y-54063335D01*
X40133334Y-54063335D02*
X40247619Y-54101430D01*
X40514286Y-54063335D02*
X41009524Y-54063335D01*
X41009524Y-54063335D02*
X40742858Y-54368097D01*
X40742858Y-54368097D02*
X40857143Y-54368097D01*
X40857143Y-54368097D02*
X40933334Y-54406192D01*
X40933334Y-54406192D02*
X40971429Y-54444287D01*
X40971429Y-54444287D02*
X41009524Y-54520478D01*
X41009524Y-54520478D02*
X41009524Y-54710954D01*
X41009524Y-54710954D02*
X40971429Y-54787144D01*
X40971429Y-54787144D02*
X40933334Y-54825240D01*
X40933334Y-54825240D02*
X40857143Y-54863335D01*
X40857143Y-54863335D02*
X40628572Y-54863335D01*
X40628572Y-54863335D02*
X40552381Y-54825240D01*
X40552381Y-54825240D02*
X40514286Y-54787144D01*
X66838095Y-21763335D02*
X66571428Y-21382382D01*
X66380952Y-21763335D02*
X66380952Y-20963335D01*
X66380952Y-20963335D02*
X66685714Y-20963335D01*
X66685714Y-20963335D02*
X66761904Y-21001430D01*
X66761904Y-21001430D02*
X66799999Y-21039525D01*
X66799999Y-21039525D02*
X66838095Y-21115716D01*
X66838095Y-21115716D02*
X66838095Y-21230001D01*
X66838095Y-21230001D02*
X66799999Y-21306192D01*
X66799999Y-21306192D02*
X66761904Y-21344287D01*
X66761904Y-21344287D02*
X66685714Y-21382382D01*
X66685714Y-21382382D02*
X66380952Y-21382382D01*
X67180952Y-21344287D02*
X67447618Y-21344287D01*
X67561904Y-21763335D02*
X67180952Y-21763335D01*
X67180952Y-21763335D02*
X67180952Y-20963335D01*
X67180952Y-20963335D02*
X67561904Y-20963335D01*
X67790476Y-20963335D02*
X68057143Y-21763335D01*
X68057143Y-21763335D02*
X68323809Y-20963335D01*
X69466666Y-21344287D02*
X69580952Y-21382382D01*
X69580952Y-21382382D02*
X69619047Y-21420478D01*
X69619047Y-21420478D02*
X69657143Y-21496668D01*
X69657143Y-21496668D02*
X69657143Y-21610954D01*
X69657143Y-21610954D02*
X69619047Y-21687144D01*
X69619047Y-21687144D02*
X69580952Y-21725240D01*
X69580952Y-21725240D02*
X69504762Y-21763335D01*
X69504762Y-21763335D02*
X69200000Y-21763335D01*
X69200000Y-21763335D02*
X69200000Y-20963335D01*
X69200000Y-20963335D02*
X69466666Y-20963335D01*
X69466666Y-20963335D02*
X69542857Y-21001430D01*
X69542857Y-21001430D02*
X69580952Y-21039525D01*
X69580952Y-21039525D02*
X69619047Y-21115716D01*
X69619047Y-21115716D02*
X69619047Y-21191906D01*
X69619047Y-21191906D02*
X69580952Y-21268097D01*
X69580952Y-21268097D02*
X69542857Y-21306192D01*
X69542857Y-21306192D02*
X69466666Y-21344287D01*
X69466666Y-21344287D02*
X69200000Y-21344287D01*
X69590475Y-25601430D02*
X69514285Y-25563335D01*
X69514285Y-25563335D02*
X69399999Y-25563335D01*
X69399999Y-25563335D02*
X69285713Y-25601430D01*
X69285713Y-25601430D02*
X69209523Y-25677620D01*
X69209523Y-25677620D02*
X69171428Y-25753811D01*
X69171428Y-25753811D02*
X69133332Y-25906192D01*
X69133332Y-25906192D02*
X69133332Y-26020478D01*
X69133332Y-26020478D02*
X69171428Y-26172859D01*
X69171428Y-26172859D02*
X69209523Y-26249049D01*
X69209523Y-26249049D02*
X69285713Y-26325240D01*
X69285713Y-26325240D02*
X69399999Y-26363335D01*
X69399999Y-26363335D02*
X69476190Y-26363335D01*
X69476190Y-26363335D02*
X69590475Y-26325240D01*
X69590475Y-26325240D02*
X69628571Y-26287144D01*
X69628571Y-26287144D02*
X69628571Y-26020478D01*
X69628571Y-26020478D02*
X69476190Y-26020478D01*
X69971428Y-26363335D02*
X69971428Y-25563335D01*
X69971428Y-25563335D02*
X70276190Y-25563335D01*
X70276190Y-25563335D02*
X70352380Y-25601430D01*
X70352380Y-25601430D02*
X70390475Y-25639525D01*
X70390475Y-25639525D02*
X70428571Y-25715716D01*
X70428571Y-25715716D02*
X70428571Y-25830001D01*
X70428571Y-25830001D02*
X70390475Y-25906192D01*
X70390475Y-25906192D02*
X70352380Y-25944287D01*
X70352380Y-25944287D02*
X70276190Y-25982382D01*
X70276190Y-25982382D02*
X69971428Y-25982382D01*
X70733332Y-26325240D02*
X70847618Y-26363335D01*
X70847618Y-26363335D02*
X71038094Y-26363335D01*
X71038094Y-26363335D02*
X71114285Y-26325240D01*
X71114285Y-26325240D02*
X71152380Y-26287144D01*
X71152380Y-26287144D02*
X71190475Y-26210954D01*
X71190475Y-26210954D02*
X71190475Y-26134763D01*
X71190475Y-26134763D02*
X71152380Y-26058573D01*
X71152380Y-26058573D02*
X71114285Y-26020478D01*
X71114285Y-26020478D02*
X71038094Y-25982382D01*
X71038094Y-25982382D02*
X70885713Y-25944287D01*
X70885713Y-25944287D02*
X70809523Y-25906192D01*
X70809523Y-25906192D02*
X70771428Y-25868097D01*
X70771428Y-25868097D02*
X70733332Y-25791906D01*
X70733332Y-25791906D02*
X70733332Y-25715716D01*
X70733332Y-25715716D02*
X70771428Y-25639525D01*
X70771428Y-25639525D02*
X70809523Y-25601430D01*
X70809523Y-25601430D02*
X70885713Y-25563335D01*
X70885713Y-25563335D02*
X71076190Y-25563335D01*
X71076190Y-25563335D02*
X71190475Y-25601430D01*
X72142857Y-26363335D02*
X72142857Y-25563335D01*
X72142857Y-25563335D02*
X72600000Y-26363335D01*
X72600000Y-26363335D02*
X72600000Y-25563335D01*
X72980952Y-25944287D02*
X73247618Y-25944287D01*
X73361904Y-26363335D02*
X72980952Y-26363335D01*
X72980952Y-26363335D02*
X72980952Y-25563335D01*
X72980952Y-25563335D02*
X73361904Y-25563335D01*
X73857143Y-25563335D02*
X74009524Y-25563335D01*
X74009524Y-25563335D02*
X74085714Y-25601430D01*
X74085714Y-25601430D02*
X74161905Y-25677620D01*
X74161905Y-25677620D02*
X74200000Y-25830001D01*
X74200000Y-25830001D02*
X74200000Y-26096668D01*
X74200000Y-26096668D02*
X74161905Y-26249049D01*
X74161905Y-26249049D02*
X74085714Y-26325240D01*
X74085714Y-26325240D02*
X74009524Y-26363335D01*
X74009524Y-26363335D02*
X73857143Y-26363335D01*
X73857143Y-26363335D02*
X73780952Y-26325240D01*
X73780952Y-26325240D02*
X73704762Y-26249049D01*
X73704762Y-26249049D02*
X73666666Y-26096668D01*
X73666666Y-26096668D02*
X73666666Y-25830001D01*
X73666666Y-25830001D02*
X73704762Y-25677620D01*
X73704762Y-25677620D02*
X73780952Y-25601430D01*
X73780952Y-25601430D02*
X73857143Y-25563335D01*
X74542857Y-26058573D02*
X75152381Y-26058573D01*
X75457142Y-25563335D02*
X75990476Y-25563335D01*
X75990476Y-25563335D02*
X75647618Y-26363335D01*
X76295238Y-26363335D02*
X76295238Y-25563335D01*
X76295238Y-25563335D02*
X76561904Y-26134763D01*
X76561904Y-26134763D02*
X76828571Y-25563335D01*
X76828571Y-25563335D02*
X76828571Y-26363335D01*
X73066666Y-81725240D02*
X73180952Y-81763335D01*
X73180952Y-81763335D02*
X73371428Y-81763335D01*
X73371428Y-81763335D02*
X73447619Y-81725240D01*
X73447619Y-81725240D02*
X73485714Y-81687144D01*
X73485714Y-81687144D02*
X73523809Y-81610954D01*
X73523809Y-81610954D02*
X73523809Y-81534763D01*
X73523809Y-81534763D02*
X73485714Y-81458573D01*
X73485714Y-81458573D02*
X73447619Y-81420478D01*
X73447619Y-81420478D02*
X73371428Y-81382382D01*
X73371428Y-81382382D02*
X73219047Y-81344287D01*
X73219047Y-81344287D02*
X73142857Y-81306192D01*
X73142857Y-81306192D02*
X73104762Y-81268097D01*
X73104762Y-81268097D02*
X73066666Y-81191906D01*
X73066666Y-81191906D02*
X73066666Y-81115716D01*
X73066666Y-81115716D02*
X73104762Y-81039525D01*
X73104762Y-81039525D02*
X73142857Y-81001430D01*
X73142857Y-81001430D02*
X73219047Y-80963335D01*
X73219047Y-80963335D02*
X73409524Y-80963335D01*
X73409524Y-80963335D02*
X73523809Y-81001430D01*
X73866667Y-81763335D02*
X73866667Y-80963335D01*
X74247619Y-81763335D02*
X74247619Y-80963335D01*
X74247619Y-80963335D02*
X74514285Y-81534763D01*
X74514285Y-81534763D02*
X74780952Y-80963335D01*
X74780952Y-80963335D02*
X74780952Y-81763335D01*
X76152381Y-80963335D02*
X75771429Y-80963335D01*
X75771429Y-80963335D02*
X75733333Y-81344287D01*
X75733333Y-81344287D02*
X75771429Y-81306192D01*
X75771429Y-81306192D02*
X75847619Y-81268097D01*
X75847619Y-81268097D02*
X76038095Y-81268097D01*
X76038095Y-81268097D02*
X76114286Y-81306192D01*
X76114286Y-81306192D02*
X76152381Y-81344287D01*
X76152381Y-81344287D02*
X76190476Y-81420478D01*
X76190476Y-81420478D02*
X76190476Y-81610954D01*
X76190476Y-81610954D02*
X76152381Y-81687144D01*
X76152381Y-81687144D02*
X76114286Y-81725240D01*
X76114286Y-81725240D02*
X76038095Y-81763335D01*
X76038095Y-81763335D02*
X75847619Y-81763335D01*
X75847619Y-81763335D02*
X75771429Y-81725240D01*
X75771429Y-81725240D02*
X75733333Y-81687144D01*
X76419048Y-80963335D02*
X76685715Y-81763335D01*
X76685715Y-81763335D02*
X76952381Y-80963335D01*
X77790476Y-81039525D02*
X77828572Y-81001430D01*
X77828572Y-81001430D02*
X77904762Y-80963335D01*
X77904762Y-80963335D02*
X78095238Y-80963335D01*
X78095238Y-80963335D02*
X78171429Y-81001430D01*
X78171429Y-81001430D02*
X78209524Y-81039525D01*
X78209524Y-81039525D02*
X78247619Y-81115716D01*
X78247619Y-81115716D02*
X78247619Y-81191906D01*
X78247619Y-81191906D02*
X78209524Y-81306192D01*
X78209524Y-81306192D02*
X77752381Y-81763335D01*
X77752381Y-81763335D02*
X78247619Y-81763335D01*
X78552381Y-81534763D02*
X78933334Y-81534763D01*
X78476191Y-81763335D02*
X78742858Y-80963335D01*
X78742858Y-80963335D02*
X79009524Y-81763335D01*
X75833333Y-27563335D02*
X76100000Y-28363335D01*
X76100000Y-28363335D02*
X76366666Y-27563335D01*
X77090476Y-28287144D02*
X77052380Y-28325240D01*
X77052380Y-28325240D02*
X76938095Y-28363335D01*
X76938095Y-28363335D02*
X76861904Y-28363335D01*
X76861904Y-28363335D02*
X76747618Y-28325240D01*
X76747618Y-28325240D02*
X76671428Y-28249049D01*
X76671428Y-28249049D02*
X76633333Y-28172859D01*
X76633333Y-28172859D02*
X76595237Y-28020478D01*
X76595237Y-28020478D02*
X76595237Y-27906192D01*
X76595237Y-27906192D02*
X76633333Y-27753811D01*
X76633333Y-27753811D02*
X76671428Y-27677620D01*
X76671428Y-27677620D02*
X76747618Y-27601430D01*
X76747618Y-27601430D02*
X76861904Y-27563335D01*
X76861904Y-27563335D02*
X76938095Y-27563335D01*
X76938095Y-27563335D02*
X77052380Y-27601430D01*
X77052380Y-27601430D02*
X77090476Y-27639525D01*
X77890476Y-28287144D02*
X77852380Y-28325240D01*
X77852380Y-28325240D02*
X77738095Y-28363335D01*
X77738095Y-28363335D02*
X77661904Y-28363335D01*
X77661904Y-28363335D02*
X77547618Y-28325240D01*
X77547618Y-28325240D02*
X77471428Y-28249049D01*
X77471428Y-28249049D02*
X77433333Y-28172859D01*
X77433333Y-28172859D02*
X77395237Y-28020478D01*
X77395237Y-28020478D02*
X77395237Y-27906192D01*
X77395237Y-27906192D02*
X77433333Y-27753811D01*
X77433333Y-27753811D02*
X77471428Y-27677620D01*
X77471428Y-27677620D02*
X77547618Y-27601430D01*
X77547618Y-27601430D02*
X77661904Y-27563335D01*
X77661904Y-27563335D02*
X77738095Y-27563335D01*
X77738095Y-27563335D02*
X77852380Y-27601430D01*
X77852380Y-27601430D02*
X77890476Y-27639525D01*
X78233333Y-27944287D02*
X78842857Y-27944287D01*
X78842857Y-28172859D02*
X78233333Y-28172859D01*
X79147618Y-27563335D02*
X79642856Y-27563335D01*
X79642856Y-27563335D02*
X79376190Y-27868097D01*
X79376190Y-27868097D02*
X79490475Y-27868097D01*
X79490475Y-27868097D02*
X79566666Y-27906192D01*
X79566666Y-27906192D02*
X79604761Y-27944287D01*
X79604761Y-27944287D02*
X79642856Y-28020478D01*
X79642856Y-28020478D02*
X79642856Y-28210954D01*
X79642856Y-28210954D02*
X79604761Y-28287144D01*
X79604761Y-28287144D02*
X79566666Y-28325240D01*
X79566666Y-28325240D02*
X79490475Y-28363335D01*
X79490475Y-28363335D02*
X79261904Y-28363335D01*
X79261904Y-28363335D02*
X79185713Y-28325240D01*
X79185713Y-28325240D02*
X79147618Y-28287144D01*
X79871428Y-27563335D02*
X80138095Y-28363335D01*
X80138095Y-28363335D02*
X80404761Y-27563335D01*
X80595237Y-27563335D02*
X81090475Y-27563335D01*
X81090475Y-27563335D02*
X80823809Y-27868097D01*
X80823809Y-27868097D02*
X80938094Y-27868097D01*
X80938094Y-27868097D02*
X81014285Y-27906192D01*
X81014285Y-27906192D02*
X81052380Y-27944287D01*
X81052380Y-27944287D02*
X81090475Y-28020478D01*
X81090475Y-28020478D02*
X81090475Y-28210954D01*
X81090475Y-28210954D02*
X81052380Y-28287144D01*
X81052380Y-28287144D02*
X81014285Y-28325240D01*
X81014285Y-28325240D02*
X80938094Y-28363335D01*
X80938094Y-28363335D02*
X80709523Y-28363335D01*
X80709523Y-28363335D02*
X80633332Y-28325240D01*
X80633332Y-28325240D02*
X80595237Y-28287144D01*
D11*
X48185713Y-81115700D02*
X48871428Y-81115700D01*
X48528570Y-81458557D02*
X48528570Y-80772842D01*
X49728571Y-80558557D02*
X49299999Y-80558557D01*
X49299999Y-80558557D02*
X49257142Y-80987128D01*
X49257142Y-80987128D02*
X49299999Y-80944271D01*
X49299999Y-80944271D02*
X49385714Y-80901414D01*
X49385714Y-80901414D02*
X49599999Y-80901414D01*
X49599999Y-80901414D02*
X49685714Y-80944271D01*
X49685714Y-80944271D02*
X49728571Y-80987128D01*
X49728571Y-80987128D02*
X49771428Y-81072842D01*
X49771428Y-81072842D02*
X49771428Y-81287128D01*
X49771428Y-81287128D02*
X49728571Y-81372842D01*
X49728571Y-81372842D02*
X49685714Y-81415700D01*
X49685714Y-81415700D02*
X49599999Y-81458557D01*
X49599999Y-81458557D02*
X49385714Y-81458557D01*
X49385714Y-81458557D02*
X49299999Y-81415700D01*
X49299999Y-81415700D02*
X49257142Y-81372842D01*
X50028571Y-80558557D02*
X50328571Y-81458557D01*
X50328571Y-81458557D02*
X50628571Y-80558557D01*
X51571428Y-80644271D02*
X51614285Y-80601414D01*
X51614285Y-80601414D02*
X51700000Y-80558557D01*
X51700000Y-80558557D02*
X51914285Y-80558557D01*
X51914285Y-80558557D02*
X52000000Y-80601414D01*
X52000000Y-80601414D02*
X52042857Y-80644271D01*
X52042857Y-80644271D02*
X52085714Y-80729985D01*
X52085714Y-80729985D02*
X52085714Y-80815700D01*
X52085714Y-80815700D02*
X52042857Y-80944271D01*
X52042857Y-80944271D02*
X51528571Y-81458557D01*
X51528571Y-81458557D02*
X52085714Y-81458557D01*
X52428571Y-81201414D02*
X52857143Y-81201414D01*
X52342857Y-81458557D02*
X52642857Y-80558557D01*
X52642857Y-80558557D02*
X52942857Y-81458557D01*
X55214286Y-80601414D02*
X55128572Y-80558557D01*
X55128572Y-80558557D02*
X55000000Y-80558557D01*
X55000000Y-80558557D02*
X54871429Y-80601414D01*
X54871429Y-80601414D02*
X54785714Y-80687128D01*
X54785714Y-80687128D02*
X54742857Y-80772842D01*
X54742857Y-80772842D02*
X54700000Y-80944271D01*
X54700000Y-80944271D02*
X54700000Y-81072842D01*
X54700000Y-81072842D02*
X54742857Y-81244271D01*
X54742857Y-81244271D02*
X54785714Y-81329985D01*
X54785714Y-81329985D02*
X54871429Y-81415700D01*
X54871429Y-81415700D02*
X55000000Y-81458557D01*
X55000000Y-81458557D02*
X55085714Y-81458557D01*
X55085714Y-81458557D02*
X55214286Y-81415700D01*
X55214286Y-81415700D02*
X55257143Y-81372842D01*
X55257143Y-81372842D02*
X55257143Y-81072842D01*
X55257143Y-81072842D02*
X55085714Y-81072842D01*
X55642857Y-81458557D02*
X55642857Y-80558557D01*
X55642857Y-80558557D02*
X56157143Y-81458557D01*
X56157143Y-81458557D02*
X56157143Y-80558557D01*
X56585714Y-81458557D02*
X56585714Y-80558557D01*
X56585714Y-80558557D02*
X56800000Y-80558557D01*
X56800000Y-80558557D02*
X56928571Y-80601414D01*
X56928571Y-80601414D02*
X57014286Y-80687128D01*
X57014286Y-80687128D02*
X57057143Y-80772842D01*
X57057143Y-80772842D02*
X57100000Y-80944271D01*
X57100000Y-80944271D02*
X57100000Y-81072842D01*
X57100000Y-81072842D02*
X57057143Y-81244271D01*
X57057143Y-81244271D02*
X57014286Y-81329985D01*
X57014286Y-81329985D02*
X56928571Y-81415700D01*
X56928571Y-81415700D02*
X56800000Y-81458557D01*
X56800000Y-81458557D02*
X56585714Y-81458557D01*
X56114286Y-24151414D02*
X56028572Y-24108557D01*
X56028572Y-24108557D02*
X55900000Y-24108557D01*
X55900000Y-24108557D02*
X55771429Y-24151414D01*
X55771429Y-24151414D02*
X55685714Y-24237128D01*
X55685714Y-24237128D02*
X55642857Y-24322842D01*
X55642857Y-24322842D02*
X55600000Y-24494271D01*
X55600000Y-24494271D02*
X55600000Y-24622842D01*
X55600000Y-24622842D02*
X55642857Y-24794271D01*
X55642857Y-24794271D02*
X55685714Y-24879985D01*
X55685714Y-24879985D02*
X55771429Y-24965700D01*
X55771429Y-24965700D02*
X55900000Y-25008557D01*
X55900000Y-25008557D02*
X55985714Y-25008557D01*
X55985714Y-25008557D02*
X56114286Y-24965700D01*
X56114286Y-24965700D02*
X56157143Y-24922842D01*
X56157143Y-24922842D02*
X56157143Y-24622842D01*
X56157143Y-24622842D02*
X55985714Y-24622842D01*
X56542857Y-25008557D02*
X56542857Y-24108557D01*
X56542857Y-24108557D02*
X57057143Y-25008557D01*
X57057143Y-25008557D02*
X57057143Y-24108557D01*
X57485714Y-25008557D02*
X57485714Y-24108557D01*
X57485714Y-24108557D02*
X57700000Y-24108557D01*
X57700000Y-24108557D02*
X57828571Y-24151414D01*
X57828571Y-24151414D02*
X57914286Y-24237128D01*
X57914286Y-24237128D02*
X57957143Y-24322842D01*
X57957143Y-24322842D02*
X58000000Y-24494271D01*
X58000000Y-24494271D02*
X58000000Y-24622842D01*
X58000000Y-24622842D02*
X57957143Y-24794271D01*
X57957143Y-24794271D02*
X57914286Y-24879985D01*
X57914286Y-24879985D02*
X57828571Y-24965700D01*
X57828571Y-24965700D02*
X57700000Y-25008557D01*
X57700000Y-25008557D02*
X57485714Y-25008557D01*
X55285713Y-30065700D02*
X55971428Y-30065700D01*
X55628570Y-30408557D02*
X55628570Y-29722842D01*
X56828571Y-29508557D02*
X56399999Y-29508557D01*
X56399999Y-29508557D02*
X56357142Y-29937128D01*
X56357142Y-29937128D02*
X56399999Y-29894271D01*
X56399999Y-29894271D02*
X56485714Y-29851414D01*
X56485714Y-29851414D02*
X56699999Y-29851414D01*
X56699999Y-29851414D02*
X56785714Y-29894271D01*
X56785714Y-29894271D02*
X56828571Y-29937128D01*
X56828571Y-29937128D02*
X56871428Y-30022842D01*
X56871428Y-30022842D02*
X56871428Y-30237128D01*
X56871428Y-30237128D02*
X56828571Y-30322842D01*
X56828571Y-30322842D02*
X56785714Y-30365700D01*
X56785714Y-30365700D02*
X56699999Y-30408557D01*
X56699999Y-30408557D02*
X56485714Y-30408557D01*
X56485714Y-30408557D02*
X56399999Y-30365700D01*
X56399999Y-30365700D02*
X56357142Y-30322842D01*
X57128571Y-29508557D02*
X57428571Y-30408557D01*
X57428571Y-30408557D02*
X57728571Y-29508557D01*
X59185714Y-30408557D02*
X58671428Y-30408557D01*
X58928571Y-30408557D02*
X58928571Y-29508557D01*
X58928571Y-29508557D02*
X58842857Y-29637128D01*
X58842857Y-29637128D02*
X58757142Y-29722842D01*
X58757142Y-29722842D02*
X58671428Y-29765700D01*
X59528571Y-30151414D02*
X59957143Y-30151414D01*
X59442857Y-30408557D02*
X59742857Y-29508557D01*
X59742857Y-29508557D02*
X60042857Y-30408557D01*
D12*
X52573809Y-20800040D02*
X52940476Y-21900040D01*
X52940476Y-21900040D02*
X53307143Y-20800040D01*
X53621428Y-21847660D02*
X53778571Y-21900040D01*
X53778571Y-21900040D02*
X54040476Y-21900040D01*
X54040476Y-21900040D02*
X54145238Y-21847660D01*
X54145238Y-21847660D02*
X54197619Y-21795279D01*
X54197619Y-21795279D02*
X54250000Y-21690517D01*
X54250000Y-21690517D02*
X54250000Y-21585755D01*
X54250000Y-21585755D02*
X54197619Y-21480993D01*
X54197619Y-21480993D02*
X54145238Y-21428612D01*
X54145238Y-21428612D02*
X54040476Y-21376231D01*
X54040476Y-21376231D02*
X53830952Y-21323850D01*
X53830952Y-21323850D02*
X53726190Y-21271469D01*
X53726190Y-21271469D02*
X53673809Y-21219088D01*
X53673809Y-21219088D02*
X53621428Y-21114326D01*
X53621428Y-21114326D02*
X53621428Y-21009564D01*
X53621428Y-21009564D02*
X53673809Y-20904802D01*
X53673809Y-20904802D02*
X53726190Y-20852421D01*
X53726190Y-20852421D02*
X53830952Y-20800040D01*
X53830952Y-20800040D02*
X54092857Y-20800040D01*
X54092857Y-20800040D02*
X54250000Y-20852421D01*
X54721428Y-21900040D02*
X54721428Y-20800040D01*
X54721428Y-20800040D02*
X55088095Y-21585755D01*
X55088095Y-21585755D02*
X55454762Y-20800040D01*
X55454762Y-20800040D02*
X55454762Y-21900040D01*
X55926190Y-21585755D02*
X56450000Y-21585755D01*
X55821428Y-21900040D02*
X56188095Y-20800040D01*
X56188095Y-20800040D02*
X56554762Y-21900040D01*
X57550000Y-21900040D02*
X57183333Y-21376231D01*
X56921428Y-21900040D02*
X56921428Y-20800040D01*
X56921428Y-20800040D02*
X57340476Y-20800040D01*
X57340476Y-20800040D02*
X57445238Y-20852421D01*
X57445238Y-20852421D02*
X57497619Y-20904802D01*
X57497619Y-20904802D02*
X57550000Y-21009564D01*
X57550000Y-21009564D02*
X57550000Y-21166707D01*
X57550000Y-21166707D02*
X57497619Y-21271469D01*
X57497619Y-21271469D02*
X57445238Y-21323850D01*
X57445238Y-21323850D02*
X57340476Y-21376231D01*
X57340476Y-21376231D02*
X56921428Y-21376231D01*
X57864285Y-20800040D02*
X58492857Y-20800040D01*
X58178571Y-21900040D02*
X58178571Y-20800040D01*
X59645237Y-21847660D02*
X59802380Y-21900040D01*
X59802380Y-21900040D02*
X60064285Y-21900040D01*
X60064285Y-21900040D02*
X60169047Y-21847660D01*
X60169047Y-21847660D02*
X60221428Y-21795279D01*
X60221428Y-21795279D02*
X60273809Y-21690517D01*
X60273809Y-21690517D02*
X60273809Y-21585755D01*
X60273809Y-21585755D02*
X60221428Y-21480993D01*
X60221428Y-21480993D02*
X60169047Y-21428612D01*
X60169047Y-21428612D02*
X60064285Y-21376231D01*
X60064285Y-21376231D02*
X59854761Y-21323850D01*
X59854761Y-21323850D02*
X59749999Y-21271469D01*
X59749999Y-21271469D02*
X59697618Y-21219088D01*
X59697618Y-21219088D02*
X59645237Y-21114326D01*
X59645237Y-21114326D02*
X59645237Y-21009564D01*
X59645237Y-21009564D02*
X59697618Y-20904802D01*
X59697618Y-20904802D02*
X59749999Y-20852421D01*
X59749999Y-20852421D02*
X59854761Y-20800040D01*
X59854761Y-20800040D02*
X60116666Y-20800040D01*
X60116666Y-20800040D02*
X60273809Y-20852421D01*
X60640475Y-20800040D02*
X61321428Y-20800040D01*
X61321428Y-20800040D02*
X60954761Y-21219088D01*
X60954761Y-21219088D02*
X61111904Y-21219088D01*
X61111904Y-21219088D02*
X61216666Y-21271469D01*
X61216666Y-21271469D02*
X61269047Y-21323850D01*
X61269047Y-21323850D02*
X61321428Y-21428612D01*
X61321428Y-21428612D02*
X61321428Y-21690517D01*
X61321428Y-21690517D02*
X61269047Y-21795279D01*
X61269047Y-21795279D02*
X61216666Y-21847660D01*
X61216666Y-21847660D02*
X61111904Y-21900040D01*
X61111904Y-21900040D02*
X60797618Y-21900040D01*
X60797618Y-21900040D02*
X60692856Y-21847660D01*
X60692856Y-21847660D02*
X60640475Y-21795279D01*
D11*
X22666667Y-21304819D02*
X22666667Y-20304819D01*
X22666667Y-20304819D02*
X23000000Y-21019104D01*
X23000000Y-21019104D02*
X23333333Y-20304819D01*
X23333333Y-20304819D02*
X23333333Y-21304819D01*
X23809524Y-21304819D02*
X23809524Y-20304819D01*
X23809524Y-20781009D02*
X24380952Y-20781009D01*
X24380952Y-21304819D02*
X24380952Y-20304819D01*
X25380952Y-21304819D02*
X24809524Y-21304819D01*
X25095238Y-21304819D02*
X25095238Y-20304819D01*
X25095238Y-20304819D02*
X25000000Y-20447676D01*
X25000000Y-20447676D02*
X24904762Y-20542914D01*
X24904762Y-20542914D02*
X24809524Y-20590533D01*
X52866666Y-75374819D02*
X52866666Y-76089104D01*
X52866666Y-76089104D02*
X52819047Y-76231961D01*
X52819047Y-76231961D02*
X52723809Y-76327200D01*
X52723809Y-76327200D02*
X52580952Y-76374819D01*
X52580952Y-76374819D02*
X52485714Y-76374819D01*
X53295238Y-75470057D02*
X53342857Y-75422438D01*
X53342857Y-75422438D02*
X53438095Y-75374819D01*
X53438095Y-75374819D02*
X53676190Y-75374819D01*
X53676190Y-75374819D02*
X53771428Y-75422438D01*
X53771428Y-75422438D02*
X53819047Y-75470057D01*
X53819047Y-75470057D02*
X53866666Y-75565295D01*
X53866666Y-75565295D02*
X53866666Y-75660533D01*
X53866666Y-75660533D02*
X53819047Y-75803390D01*
X53819047Y-75803390D02*
X53247619Y-76374819D01*
X53247619Y-76374819D02*
X53866666Y-76374819D01*
X22166667Y-73304819D02*
X22166667Y-72304819D01*
X22166667Y-72304819D02*
X22500000Y-73019104D01*
X22500000Y-73019104D02*
X22833333Y-72304819D01*
X22833333Y-72304819D02*
X22833333Y-73304819D01*
X23309524Y-73304819D02*
X23309524Y-72304819D01*
X23309524Y-72781009D02*
X23880952Y-72781009D01*
X23880952Y-73304819D02*
X23880952Y-72304819D01*
X24261905Y-72304819D02*
X24880952Y-72304819D01*
X24880952Y-72304819D02*
X24547619Y-72685771D01*
X24547619Y-72685771D02*
X24690476Y-72685771D01*
X24690476Y-72685771D02*
X24785714Y-72733390D01*
X24785714Y-72733390D02*
X24833333Y-72781009D01*
X24833333Y-72781009D02*
X24880952Y-72876247D01*
X24880952Y-72876247D02*
X24880952Y-73114342D01*
X24880952Y-73114342D02*
X24833333Y-73209580D01*
X24833333Y-73209580D02*
X24785714Y-73257200D01*
X24785714Y-73257200D02*
X24690476Y-73304819D01*
X24690476Y-73304819D02*
X24404762Y-73304819D01*
X24404762Y-73304819D02*
X24309524Y-73257200D01*
X24309524Y-73257200D02*
X24261905Y-73209580D01*
X88666667Y-73304819D02*
X88666667Y-72304819D01*
X88666667Y-72304819D02*
X89000000Y-73019104D01*
X89000000Y-73019104D02*
X89333333Y-72304819D01*
X89333333Y-72304819D02*
X89333333Y-73304819D01*
X89809524Y-73304819D02*
X89809524Y-72304819D01*
X89809524Y-72781009D02*
X90380952Y-72781009D01*
X90380952Y-73304819D02*
X90380952Y-72304819D01*
X91285714Y-72638152D02*
X91285714Y-73304819D01*
X91047619Y-72257200D02*
X90809524Y-72971485D01*
X90809524Y-72971485D02*
X91428571Y-72971485D01*
X54083333Y-37109580D02*
X54035714Y-37157200D01*
X54035714Y-37157200D02*
X53892857Y-37204819D01*
X53892857Y-37204819D02*
X53797619Y-37204819D01*
X53797619Y-37204819D02*
X53654762Y-37157200D01*
X53654762Y-37157200D02*
X53559524Y-37061961D01*
X53559524Y-37061961D02*
X53511905Y-36966723D01*
X53511905Y-36966723D02*
X53464286Y-36776247D01*
X53464286Y-36776247D02*
X53464286Y-36633390D01*
X53464286Y-36633390D02*
X53511905Y-36442914D01*
X53511905Y-36442914D02*
X53559524Y-36347676D01*
X53559524Y-36347676D02*
X53654762Y-36252438D01*
X53654762Y-36252438D02*
X53797619Y-36204819D01*
X53797619Y-36204819D02*
X53892857Y-36204819D01*
X53892857Y-36204819D02*
X54035714Y-36252438D01*
X54035714Y-36252438D02*
X54083333Y-36300057D01*
X54416667Y-36204819D02*
X55035714Y-36204819D01*
X55035714Y-36204819D02*
X54702381Y-36585771D01*
X54702381Y-36585771D02*
X54845238Y-36585771D01*
X54845238Y-36585771D02*
X54940476Y-36633390D01*
X54940476Y-36633390D02*
X54988095Y-36681009D01*
X54988095Y-36681009D02*
X55035714Y-36776247D01*
X55035714Y-36776247D02*
X55035714Y-37014342D01*
X55035714Y-37014342D02*
X54988095Y-37109580D01*
X54988095Y-37109580D02*
X54940476Y-37157200D01*
X54940476Y-37157200D02*
X54845238Y-37204819D01*
X54845238Y-37204819D02*
X54559524Y-37204819D01*
X54559524Y-37204819D02*
X54464286Y-37157200D01*
X54464286Y-37157200D02*
X54416667Y-37109580D01*
X88666667Y-21304819D02*
X88666667Y-20304819D01*
X88666667Y-20304819D02*
X89000000Y-21019104D01*
X89000000Y-21019104D02*
X89333333Y-20304819D01*
X89333333Y-20304819D02*
X89333333Y-21304819D01*
X89809524Y-21304819D02*
X89809524Y-20304819D01*
X89809524Y-20781009D02*
X90380952Y-20781009D01*
X90380952Y-21304819D02*
X90380952Y-20304819D01*
X90809524Y-20400057D02*
X90857143Y-20352438D01*
X90857143Y-20352438D02*
X90952381Y-20304819D01*
X90952381Y-20304819D02*
X91190476Y-20304819D01*
X91190476Y-20304819D02*
X91285714Y-20352438D01*
X91285714Y-20352438D02*
X91333333Y-20400057D01*
X91333333Y-20400057D02*
X91380952Y-20495295D01*
X91380952Y-20495295D02*
X91380952Y-20590533D01*
X91380952Y-20590533D02*
X91333333Y-20733390D01*
X91333333Y-20733390D02*
X90761905Y-21304819D01*
X90761905Y-21304819D02*
X91380952Y-21304819D01*
X31163095Y-54119819D02*
X31163095Y-54929342D01*
X31163095Y-54929342D02*
X31210714Y-55024580D01*
X31210714Y-55024580D02*
X31258333Y-55072200D01*
X31258333Y-55072200D02*
X31353571Y-55119819D01*
X31353571Y-55119819D02*
X31544047Y-55119819D01*
X31544047Y-55119819D02*
X31639285Y-55072200D01*
X31639285Y-55072200D02*
X31686904Y-55024580D01*
X31686904Y-55024580D02*
X31734523Y-54929342D01*
X31734523Y-54929342D02*
X31734523Y-54119819D01*
X32734523Y-55119819D02*
X32163095Y-55119819D01*
X32448809Y-55119819D02*
X32448809Y-54119819D01*
X32448809Y-54119819D02*
X32353571Y-54262676D01*
X32353571Y-54262676D02*
X32258333Y-54357914D01*
X32258333Y-54357914D02*
X32163095Y-54405533D01*
X53333333Y-60109580D02*
X53285714Y-60157200D01*
X53285714Y-60157200D02*
X53142857Y-60204819D01*
X53142857Y-60204819D02*
X53047619Y-60204819D01*
X53047619Y-60204819D02*
X52904762Y-60157200D01*
X52904762Y-60157200D02*
X52809524Y-60061961D01*
X52809524Y-60061961D02*
X52761905Y-59966723D01*
X52761905Y-59966723D02*
X52714286Y-59776247D01*
X52714286Y-59776247D02*
X52714286Y-59633390D01*
X52714286Y-59633390D02*
X52761905Y-59442914D01*
X52761905Y-59442914D02*
X52809524Y-59347676D01*
X52809524Y-59347676D02*
X52904762Y-59252438D01*
X52904762Y-59252438D02*
X53047619Y-59204819D01*
X53047619Y-59204819D02*
X53142857Y-59204819D01*
X53142857Y-59204819D02*
X53285714Y-59252438D01*
X53285714Y-59252438D02*
X53333333Y-59300057D01*
X54285714Y-60204819D02*
X53714286Y-60204819D01*
X54000000Y-60204819D02*
X54000000Y-59204819D01*
X54000000Y-59204819D02*
X53904762Y-59347676D01*
X53904762Y-59347676D02*
X53809524Y-59442914D01*
X53809524Y-59442914D02*
X53714286Y-59490533D01*
X27208095Y-29134819D02*
X27208095Y-29944342D01*
X27208095Y-29944342D02*
X27255714Y-30039580D01*
X27255714Y-30039580D02*
X27303333Y-30087200D01*
X27303333Y-30087200D02*
X27398571Y-30134819D01*
X27398571Y-30134819D02*
X27589047Y-30134819D01*
X27589047Y-30134819D02*
X27684285Y-30087200D01*
X27684285Y-30087200D02*
X27731904Y-30039580D01*
X27731904Y-30039580D02*
X27779523Y-29944342D01*
X27779523Y-29944342D02*
X27779523Y-29134819D01*
X28208095Y-29230057D02*
X28255714Y-29182438D01*
X28255714Y-29182438D02*
X28350952Y-29134819D01*
X28350952Y-29134819D02*
X28589047Y-29134819D01*
X28589047Y-29134819D02*
X28684285Y-29182438D01*
X28684285Y-29182438D02*
X28731904Y-29230057D01*
X28731904Y-29230057D02*
X28779523Y-29325295D01*
X28779523Y-29325295D02*
X28779523Y-29420533D01*
X28779523Y-29420533D02*
X28731904Y-29563390D01*
X28731904Y-29563390D02*
X28160476Y-30134819D01*
X28160476Y-30134819D02*
X28779523Y-30134819D01*
X29176667Y-31674819D02*
X29510000Y-32674819D01*
X29510000Y-32674819D02*
X29843333Y-31674819D01*
X30748095Y-32579580D02*
X30700476Y-32627200D01*
X30700476Y-32627200D02*
X30557619Y-32674819D01*
X30557619Y-32674819D02*
X30462381Y-32674819D01*
X30462381Y-32674819D02*
X30319524Y-32627200D01*
X30319524Y-32627200D02*
X30224286Y-32531961D01*
X30224286Y-32531961D02*
X30176667Y-32436723D01*
X30176667Y-32436723D02*
X30129048Y-32246247D01*
X30129048Y-32246247D02*
X30129048Y-32103390D01*
X30129048Y-32103390D02*
X30176667Y-31912914D01*
X30176667Y-31912914D02*
X30224286Y-31817676D01*
X30224286Y-31817676D02*
X30319524Y-31722438D01*
X30319524Y-31722438D02*
X30462381Y-31674819D01*
X30462381Y-31674819D02*
X30557619Y-31674819D01*
X30557619Y-31674819D02*
X30700476Y-31722438D01*
X30700476Y-31722438D02*
X30748095Y-31770057D01*
X31748095Y-32579580D02*
X31700476Y-32627200D01*
X31700476Y-32627200D02*
X31557619Y-32674819D01*
X31557619Y-32674819D02*
X31462381Y-32674819D01*
X31462381Y-32674819D02*
X31319524Y-32627200D01*
X31319524Y-32627200D02*
X31224286Y-32531961D01*
X31224286Y-32531961D02*
X31176667Y-32436723D01*
X31176667Y-32436723D02*
X31129048Y-32246247D01*
X31129048Y-32246247D02*
X31129048Y-32103390D01*
X31129048Y-32103390D02*
X31176667Y-31912914D01*
X31176667Y-31912914D02*
X31224286Y-31817676D01*
X31224286Y-31817676D02*
X31319524Y-31722438D01*
X31319524Y-31722438D02*
X31462381Y-31674819D01*
X31462381Y-31674819D02*
X31557619Y-31674819D01*
X31557619Y-31674819D02*
X31700476Y-31722438D01*
X31700476Y-31722438D02*
X31748095Y-31770057D01*
X29748095Y-34262438D02*
X29652857Y-34214819D01*
X29652857Y-34214819D02*
X29510000Y-34214819D01*
X29510000Y-34214819D02*
X29367143Y-34262438D01*
X29367143Y-34262438D02*
X29271905Y-34357676D01*
X29271905Y-34357676D02*
X29224286Y-34452914D01*
X29224286Y-34452914D02*
X29176667Y-34643390D01*
X29176667Y-34643390D02*
X29176667Y-34786247D01*
X29176667Y-34786247D02*
X29224286Y-34976723D01*
X29224286Y-34976723D02*
X29271905Y-35071961D01*
X29271905Y-35071961D02*
X29367143Y-35167200D01*
X29367143Y-35167200D02*
X29510000Y-35214819D01*
X29510000Y-35214819D02*
X29605238Y-35214819D01*
X29605238Y-35214819D02*
X29748095Y-35167200D01*
X29748095Y-35167200D02*
X29795714Y-35119580D01*
X29795714Y-35119580D02*
X29795714Y-34786247D01*
X29795714Y-34786247D02*
X29605238Y-34786247D01*
X30224286Y-35214819D02*
X30224286Y-34214819D01*
X30224286Y-34214819D02*
X30795714Y-35214819D01*
X30795714Y-35214819D02*
X30795714Y-34214819D01*
X31271905Y-35214819D02*
X31271905Y-34214819D01*
X31271905Y-34214819D02*
X31510000Y-34214819D01*
X31510000Y-34214819D02*
X31652857Y-34262438D01*
X31652857Y-34262438D02*
X31748095Y-34357676D01*
X31748095Y-34357676D02*
X31795714Y-34452914D01*
X31795714Y-34452914D02*
X31843333Y-34643390D01*
X31843333Y-34643390D02*
X31843333Y-34786247D01*
X31843333Y-34786247D02*
X31795714Y-34976723D01*
X31795714Y-34976723D02*
X31748095Y-35071961D01*
X31748095Y-35071961D02*
X31652857Y-35167200D01*
X31652857Y-35167200D02*
X31510000Y-35214819D01*
X31510000Y-35214819D02*
X31271905Y-35214819D01*
X29319524Y-37707200D02*
X29462381Y-37754819D01*
X29462381Y-37754819D02*
X29700476Y-37754819D01*
X29700476Y-37754819D02*
X29795714Y-37707200D01*
X29795714Y-37707200D02*
X29843333Y-37659580D01*
X29843333Y-37659580D02*
X29890952Y-37564342D01*
X29890952Y-37564342D02*
X29890952Y-37469104D01*
X29890952Y-37469104D02*
X29843333Y-37373866D01*
X29843333Y-37373866D02*
X29795714Y-37326247D01*
X29795714Y-37326247D02*
X29700476Y-37278628D01*
X29700476Y-37278628D02*
X29510000Y-37231009D01*
X29510000Y-37231009D02*
X29414762Y-37183390D01*
X29414762Y-37183390D02*
X29367143Y-37135771D01*
X29367143Y-37135771D02*
X29319524Y-37040533D01*
X29319524Y-37040533D02*
X29319524Y-36945295D01*
X29319524Y-36945295D02*
X29367143Y-36850057D01*
X29367143Y-36850057D02*
X29414762Y-36802438D01*
X29414762Y-36802438D02*
X29510000Y-36754819D01*
X29510000Y-36754819D02*
X29748095Y-36754819D01*
X29748095Y-36754819D02*
X29890952Y-36802438D01*
X30890952Y-37659580D02*
X30843333Y-37707200D01*
X30843333Y-37707200D02*
X30700476Y-37754819D01*
X30700476Y-37754819D02*
X30605238Y-37754819D01*
X30605238Y-37754819D02*
X30462381Y-37707200D01*
X30462381Y-37707200D02*
X30367143Y-37611961D01*
X30367143Y-37611961D02*
X30319524Y-37516723D01*
X30319524Y-37516723D02*
X30271905Y-37326247D01*
X30271905Y-37326247D02*
X30271905Y-37183390D01*
X30271905Y-37183390D02*
X30319524Y-36992914D01*
X30319524Y-36992914D02*
X30367143Y-36897676D01*
X30367143Y-36897676D02*
X30462381Y-36802438D01*
X30462381Y-36802438D02*
X30605238Y-36754819D01*
X30605238Y-36754819D02*
X30700476Y-36754819D01*
X30700476Y-36754819D02*
X30843333Y-36802438D01*
X30843333Y-36802438D02*
X30890952Y-36850057D01*
X31795714Y-37754819D02*
X31319524Y-37754819D01*
X31319524Y-37754819D02*
X31319524Y-36754819D01*
X29295714Y-40247200D02*
X29438571Y-40294819D01*
X29438571Y-40294819D02*
X29676666Y-40294819D01*
X29676666Y-40294819D02*
X29771904Y-40247200D01*
X29771904Y-40247200D02*
X29819523Y-40199580D01*
X29819523Y-40199580D02*
X29867142Y-40104342D01*
X29867142Y-40104342D02*
X29867142Y-40009104D01*
X29867142Y-40009104D02*
X29819523Y-39913866D01*
X29819523Y-39913866D02*
X29771904Y-39866247D01*
X29771904Y-39866247D02*
X29676666Y-39818628D01*
X29676666Y-39818628D02*
X29486190Y-39771009D01*
X29486190Y-39771009D02*
X29390952Y-39723390D01*
X29390952Y-39723390D02*
X29343333Y-39675771D01*
X29343333Y-39675771D02*
X29295714Y-39580533D01*
X29295714Y-39580533D02*
X29295714Y-39485295D01*
X29295714Y-39485295D02*
X29343333Y-39390057D01*
X29343333Y-39390057D02*
X29390952Y-39342438D01*
X29390952Y-39342438D02*
X29486190Y-39294819D01*
X29486190Y-39294819D02*
X29724285Y-39294819D01*
X29724285Y-39294819D02*
X29867142Y-39342438D01*
X30295714Y-40294819D02*
X30295714Y-39294819D01*
X30295714Y-39294819D02*
X30533809Y-39294819D01*
X30533809Y-39294819D02*
X30676666Y-39342438D01*
X30676666Y-39342438D02*
X30771904Y-39437676D01*
X30771904Y-39437676D02*
X30819523Y-39532914D01*
X30819523Y-39532914D02*
X30867142Y-39723390D01*
X30867142Y-39723390D02*
X30867142Y-39866247D01*
X30867142Y-39866247D02*
X30819523Y-40056723D01*
X30819523Y-40056723D02*
X30771904Y-40151961D01*
X30771904Y-40151961D02*
X30676666Y-40247200D01*
X30676666Y-40247200D02*
X30533809Y-40294819D01*
X30533809Y-40294819D02*
X30295714Y-40294819D01*
X31248095Y-40009104D02*
X31724285Y-40009104D01*
X31152857Y-40294819D02*
X31486190Y-39294819D01*
X31486190Y-39294819D02*
X31819523Y-40294819D01*
X29248095Y-41834819D02*
X29914761Y-42834819D01*
X29914761Y-41834819D02*
X29248095Y-42834819D01*
X30295714Y-42834819D02*
X30295714Y-41834819D01*
X30295714Y-41834819D02*
X30533809Y-41834819D01*
X30533809Y-41834819D02*
X30676666Y-41882438D01*
X30676666Y-41882438D02*
X30771904Y-41977676D01*
X30771904Y-41977676D02*
X30819523Y-42072914D01*
X30819523Y-42072914D02*
X30867142Y-42263390D01*
X30867142Y-42263390D02*
X30867142Y-42406247D01*
X30867142Y-42406247D02*
X30819523Y-42596723D01*
X30819523Y-42596723D02*
X30771904Y-42691961D01*
X30771904Y-42691961D02*
X30676666Y-42787200D01*
X30676666Y-42787200D02*
X30533809Y-42834819D01*
X30533809Y-42834819D02*
X30295714Y-42834819D01*
X31248095Y-42549104D02*
X31724285Y-42549104D01*
X31152857Y-42834819D02*
X31486190Y-41834819D01*
X31486190Y-41834819D02*
X31819523Y-42834819D01*
X29271905Y-44374819D02*
X29938571Y-45374819D01*
X29938571Y-44374819D02*
X29271905Y-45374819D01*
X30890952Y-45279580D02*
X30843333Y-45327200D01*
X30843333Y-45327200D02*
X30700476Y-45374819D01*
X30700476Y-45374819D02*
X30605238Y-45374819D01*
X30605238Y-45374819D02*
X30462381Y-45327200D01*
X30462381Y-45327200D02*
X30367143Y-45231961D01*
X30367143Y-45231961D02*
X30319524Y-45136723D01*
X30319524Y-45136723D02*
X30271905Y-44946247D01*
X30271905Y-44946247D02*
X30271905Y-44803390D01*
X30271905Y-44803390D02*
X30319524Y-44612914D01*
X30319524Y-44612914D02*
X30367143Y-44517676D01*
X30367143Y-44517676D02*
X30462381Y-44422438D01*
X30462381Y-44422438D02*
X30605238Y-44374819D01*
X30605238Y-44374819D02*
X30700476Y-44374819D01*
X30700476Y-44374819D02*
X30843333Y-44422438D01*
X30843333Y-44422438D02*
X30890952Y-44470057D01*
X31795714Y-45374819D02*
X31319524Y-45374819D01*
X31319524Y-45374819D02*
X31319524Y-44374819D01*
X29271905Y-47629104D02*
X29748095Y-47629104D01*
X29176667Y-47914819D02*
X29510000Y-46914819D01*
X29510000Y-46914819D02*
X29843333Y-47914819D01*
X30176667Y-47914819D02*
X30176667Y-46914819D01*
X30176667Y-46914819D02*
X30414762Y-46914819D01*
X30414762Y-46914819D02*
X30557619Y-46962438D01*
X30557619Y-46962438D02*
X30652857Y-47057676D01*
X30652857Y-47057676D02*
X30700476Y-47152914D01*
X30700476Y-47152914D02*
X30748095Y-47343390D01*
X30748095Y-47343390D02*
X30748095Y-47486247D01*
X30748095Y-47486247D02*
X30700476Y-47676723D01*
X30700476Y-47676723D02*
X30652857Y-47771961D01*
X30652857Y-47771961D02*
X30557619Y-47867200D01*
X30557619Y-47867200D02*
X30414762Y-47914819D01*
X30414762Y-47914819D02*
X30176667Y-47914819D01*
X31176667Y-47914819D02*
X31176667Y-46914819D01*
X31176667Y-46914819D02*
X31414762Y-46914819D01*
X31414762Y-46914819D02*
X31557619Y-46962438D01*
X31557619Y-46962438D02*
X31652857Y-47057676D01*
X31652857Y-47057676D02*
X31700476Y-47152914D01*
X31700476Y-47152914D02*
X31748095Y-47343390D01*
X31748095Y-47343390D02*
X31748095Y-47486247D01*
X31748095Y-47486247D02*
X31700476Y-47676723D01*
X31700476Y-47676723D02*
X31652857Y-47771961D01*
X31652857Y-47771961D02*
X31557619Y-47867200D01*
X31557619Y-47867200D02*
X31414762Y-47914819D01*
X31414762Y-47914819D02*
X31176667Y-47914819D01*
X29605238Y-50454819D02*
X29605238Y-49454819D01*
X30081428Y-50454819D02*
X30081428Y-49454819D01*
X30081428Y-49454819D02*
X30652856Y-50454819D01*
X30652856Y-50454819D02*
X30652856Y-49454819D01*
X30986190Y-49454819D02*
X31557618Y-49454819D01*
X31271904Y-50454819D02*
X31271904Y-49454819D01*
X72238095Y-27454819D02*
X72238095Y-28264342D01*
X72238095Y-28264342D02*
X72285714Y-28359580D01*
X72285714Y-28359580D02*
X72333333Y-28407200D01*
X72333333Y-28407200D02*
X72428571Y-28454819D01*
X72428571Y-28454819D02*
X72619047Y-28454819D01*
X72619047Y-28454819D02*
X72714285Y-28407200D01*
X72714285Y-28407200D02*
X72761904Y-28359580D01*
X72761904Y-28359580D02*
X72809523Y-28264342D01*
X72809523Y-28264342D02*
X72809523Y-27454819D01*
X73190476Y-27454819D02*
X73809523Y-27454819D01*
X73809523Y-27454819D02*
X73476190Y-27835771D01*
X73476190Y-27835771D02*
X73619047Y-27835771D01*
X73619047Y-27835771D02*
X73714285Y-27883390D01*
X73714285Y-27883390D02*
X73761904Y-27931009D01*
X73761904Y-27931009D02*
X73809523Y-28026247D01*
X73809523Y-28026247D02*
X73809523Y-28264342D01*
X73809523Y-28264342D02*
X73761904Y-28359580D01*
X73761904Y-28359580D02*
X73714285Y-28407200D01*
X73714285Y-28407200D02*
X73619047Y-28454819D01*
X73619047Y-28454819D02*
X73333333Y-28454819D01*
X73333333Y-28454819D02*
X73238095Y-28407200D01*
X73238095Y-28407200D02*
X73190476Y-28359580D01*
X63685715Y-51908557D02*
X63685715Y-52508557D01*
X63300000Y-51908557D02*
X63300000Y-52379985D01*
X63300000Y-52379985D02*
X63342857Y-52465700D01*
X63342857Y-52465700D02*
X63428572Y-52508557D01*
X63428572Y-52508557D02*
X63557143Y-52508557D01*
X63557143Y-52508557D02*
X63642857Y-52465700D01*
X63642857Y-52465700D02*
X63685715Y-52422842D01*
X64114286Y-52422842D02*
X64157143Y-52465700D01*
X64157143Y-52465700D02*
X64114286Y-52508557D01*
X64114286Y-52508557D02*
X64071429Y-52465700D01*
X64071429Y-52465700D02*
X64114286Y-52422842D01*
X64114286Y-52422842D02*
X64114286Y-52508557D01*
X64842857Y-52037128D02*
X64542857Y-52037128D01*
X64542857Y-52508557D02*
X64542857Y-51608557D01*
X64542857Y-51608557D02*
X64971429Y-51608557D01*
X65742858Y-52508557D02*
X65314286Y-52508557D01*
X65314286Y-52508557D02*
X65314286Y-51608557D01*
X66685714Y-52251414D02*
X67114286Y-52251414D01*
X66600000Y-52508557D02*
X66900000Y-51608557D01*
X66900000Y-51608557D02*
X67200000Y-52508557D01*
X67500000Y-52508557D02*
X67500000Y-51608557D01*
X67500000Y-51608557D02*
X68014286Y-52508557D01*
X68014286Y-52508557D02*
X68014286Y-51608557D01*
X68314286Y-51608557D02*
X68828572Y-51608557D01*
X68571429Y-52508557D02*
X68571429Y-51608557D01*
X87284398Y-38198557D02*
X87584398Y-39098557D01*
X87584398Y-39098557D02*
X87884398Y-38198557D01*
X88698684Y-39012842D02*
X88655827Y-39055700D01*
X88655827Y-39055700D02*
X88527255Y-39098557D01*
X88527255Y-39098557D02*
X88441541Y-39098557D01*
X88441541Y-39098557D02*
X88312970Y-39055700D01*
X88312970Y-39055700D02*
X88227255Y-38969985D01*
X88227255Y-38969985D02*
X88184398Y-38884271D01*
X88184398Y-38884271D02*
X88141541Y-38712842D01*
X88141541Y-38712842D02*
X88141541Y-38584271D01*
X88141541Y-38584271D02*
X88184398Y-38412842D01*
X88184398Y-38412842D02*
X88227255Y-38327128D01*
X88227255Y-38327128D02*
X88312970Y-38241414D01*
X88312970Y-38241414D02*
X88441541Y-38198557D01*
X88441541Y-38198557D02*
X88527255Y-38198557D01*
X88527255Y-38198557D02*
X88655827Y-38241414D01*
X88655827Y-38241414D02*
X88698684Y-38284271D01*
X89598684Y-39012842D02*
X89555827Y-39055700D01*
X89555827Y-39055700D02*
X89427255Y-39098557D01*
X89427255Y-39098557D02*
X89341541Y-39098557D01*
X89341541Y-39098557D02*
X89212970Y-39055700D01*
X89212970Y-39055700D02*
X89127255Y-38969985D01*
X89127255Y-38969985D02*
X89084398Y-38884271D01*
X89084398Y-38884271D02*
X89041541Y-38712842D01*
X89041541Y-38712842D02*
X89041541Y-38584271D01*
X89041541Y-38584271D02*
X89084398Y-38412842D01*
X89084398Y-38412842D02*
X89127255Y-38327128D01*
X89127255Y-38327128D02*
X89212970Y-38241414D01*
X89212970Y-38241414D02*
X89341541Y-38198557D01*
X89341541Y-38198557D02*
X89427255Y-38198557D01*
X89427255Y-38198557D02*
X89555827Y-38241414D01*
X89555827Y-38241414D02*
X89598684Y-38284271D01*
X87927255Y-41638557D02*
X87627255Y-41209985D01*
X87412969Y-41638557D02*
X87412969Y-40738557D01*
X87412969Y-40738557D02*
X87755826Y-40738557D01*
X87755826Y-40738557D02*
X87841541Y-40781414D01*
X87841541Y-40781414D02*
X87884398Y-40824271D01*
X87884398Y-40824271D02*
X87927255Y-40909985D01*
X87927255Y-40909985D02*
X87927255Y-41038557D01*
X87927255Y-41038557D02*
X87884398Y-41124271D01*
X87884398Y-41124271D02*
X87841541Y-41167128D01*
X87841541Y-41167128D02*
X87755826Y-41209985D01*
X87755826Y-41209985D02*
X87412969Y-41209985D01*
X88227255Y-40738557D02*
X88827255Y-41638557D01*
X88827255Y-40738557D02*
X88227255Y-41638557D01*
X87284398Y-43278557D02*
X87798684Y-43278557D01*
X87541541Y-44178557D02*
X87541541Y-43278557D01*
X88012969Y-43278557D02*
X88612969Y-44178557D01*
X88612969Y-43278557D02*
X88012969Y-44178557D01*
X87884398Y-45861414D02*
X87798684Y-45818557D01*
X87798684Y-45818557D02*
X87670112Y-45818557D01*
X87670112Y-45818557D02*
X87541541Y-45861414D01*
X87541541Y-45861414D02*
X87455826Y-45947128D01*
X87455826Y-45947128D02*
X87412969Y-46032842D01*
X87412969Y-46032842D02*
X87370112Y-46204271D01*
X87370112Y-46204271D02*
X87370112Y-46332842D01*
X87370112Y-46332842D02*
X87412969Y-46504271D01*
X87412969Y-46504271D02*
X87455826Y-46589985D01*
X87455826Y-46589985D02*
X87541541Y-46675700D01*
X87541541Y-46675700D02*
X87670112Y-46718557D01*
X87670112Y-46718557D02*
X87755826Y-46718557D01*
X87755826Y-46718557D02*
X87884398Y-46675700D01*
X87884398Y-46675700D02*
X87927255Y-46632842D01*
X87927255Y-46632842D02*
X87927255Y-46332842D01*
X87927255Y-46332842D02*
X87755826Y-46332842D01*
X88312969Y-46718557D02*
X88312969Y-45818557D01*
X88312969Y-45818557D02*
X88827255Y-46718557D01*
X88827255Y-46718557D02*
X88827255Y-45818557D01*
X89255826Y-46718557D02*
X89255826Y-45818557D01*
X89255826Y-45818557D02*
X89470112Y-45818557D01*
X89470112Y-45818557D02*
X89598683Y-45861414D01*
X89598683Y-45861414D02*
X89684398Y-45947128D01*
X89684398Y-45947128D02*
X89727255Y-46032842D01*
X89727255Y-46032842D02*
X89770112Y-46204271D01*
X89770112Y-46204271D02*
X89770112Y-46332842D01*
X89770112Y-46332842D02*
X89727255Y-46504271D01*
X89727255Y-46504271D02*
X89684398Y-46589985D01*
X89684398Y-46589985D02*
X89598683Y-46675700D01*
X89598683Y-46675700D02*
X89470112Y-46718557D01*
X89470112Y-46718557D02*
X89255826Y-46718557D01*
X50374819Y-27633333D02*
X51089104Y-27633333D01*
X51089104Y-27633333D02*
X51231961Y-27680952D01*
X51231961Y-27680952D02*
X51327200Y-27776190D01*
X51327200Y-27776190D02*
X51374819Y-27919047D01*
X51374819Y-27919047D02*
X51374819Y-28014285D01*
X51374819Y-26633333D02*
X51374819Y-27204761D01*
X51374819Y-26919047D02*
X50374819Y-26919047D01*
X50374819Y-26919047D02*
X50517676Y-27014285D01*
X50517676Y-27014285D02*
X50612914Y-27109523D01*
X50612914Y-27109523D02*
X50660533Y-27204761D01*
D13*
X72038095Y-62457419D02*
X72038095Y-63266942D01*
X72038095Y-63266942D02*
X72085714Y-63362180D01*
X72085714Y-63362180D02*
X72133333Y-63409800D01*
X72133333Y-63409800D02*
X72228571Y-63457419D01*
X72228571Y-63457419D02*
X72419047Y-63457419D01*
X72419047Y-63457419D02*
X72514285Y-63409800D01*
X72514285Y-63409800D02*
X72561904Y-63362180D01*
X72561904Y-63362180D02*
X72609523Y-63266942D01*
X72609523Y-63266942D02*
X72609523Y-62457419D01*
X73514285Y-62790752D02*
X73514285Y-63457419D01*
X73276190Y-62409800D02*
X73038095Y-63124085D01*
X73038095Y-63124085D02*
X73657142Y-63124085D01*
D14*
X62730313Y-62666919D02*
X62972218Y-62666919D01*
X62681932Y-62895491D02*
X62851266Y-62095491D01*
X62851266Y-62095491D02*
X63020599Y-62895491D01*
X63189933Y-62895491D02*
X63189933Y-62095491D01*
X63189933Y-62095491D02*
X63480219Y-62895491D01*
X63480219Y-62895491D02*
X63480219Y-62095491D01*
X63649551Y-62095491D02*
X63939837Y-62095491D01*
X63794694Y-62895491D02*
X63794694Y-62095491D01*
X62781932Y-64595491D02*
X62951266Y-65395491D01*
X62951266Y-65395491D02*
X63120599Y-64595491D01*
X63580219Y-65319300D02*
X63556028Y-65357396D01*
X63556028Y-65357396D02*
X63483457Y-65395491D01*
X63483457Y-65395491D02*
X63435076Y-65395491D01*
X63435076Y-65395491D02*
X63362504Y-65357396D01*
X63362504Y-65357396D02*
X63314123Y-65281205D01*
X63314123Y-65281205D02*
X63289933Y-65205015D01*
X63289933Y-65205015D02*
X63265742Y-65052634D01*
X63265742Y-65052634D02*
X63265742Y-64938348D01*
X63265742Y-64938348D02*
X63289933Y-64785967D01*
X63289933Y-64785967D02*
X63314123Y-64709776D01*
X63314123Y-64709776D02*
X63362504Y-64633586D01*
X63362504Y-64633586D02*
X63435076Y-64595491D01*
X63435076Y-64595491D02*
X63483457Y-64595491D01*
X63483457Y-64595491D02*
X63556028Y-64633586D01*
X63556028Y-64633586D02*
X63580219Y-64671681D01*
X64088219Y-65319300D02*
X64064028Y-65357396D01*
X64064028Y-65357396D02*
X63991457Y-65395491D01*
X63991457Y-65395491D02*
X63943076Y-65395491D01*
X63943076Y-65395491D02*
X63870504Y-65357396D01*
X63870504Y-65357396D02*
X63822123Y-65281205D01*
X63822123Y-65281205D02*
X63797933Y-65205015D01*
X63797933Y-65205015D02*
X63773742Y-65052634D01*
X63773742Y-65052634D02*
X63773742Y-64938348D01*
X63773742Y-64938348D02*
X63797933Y-64785967D01*
X63797933Y-64785967D02*
X63822123Y-64709776D01*
X63822123Y-64709776D02*
X63870504Y-64633586D01*
X63870504Y-64633586D02*
X63943076Y-64595491D01*
X63943076Y-64595491D02*
X63991457Y-64595491D01*
X63991457Y-64595491D02*
X64064028Y-64633586D01*
X64064028Y-64633586D02*
X64088219Y-64671681D01*
X63144790Y-67995491D02*
X62975456Y-67614538D01*
X62854504Y-67995491D02*
X62854504Y-67195491D01*
X62854504Y-67195491D02*
X63048028Y-67195491D01*
X63048028Y-67195491D02*
X63096409Y-67233586D01*
X63096409Y-67233586D02*
X63120599Y-67271681D01*
X63120599Y-67271681D02*
X63144790Y-67347872D01*
X63144790Y-67347872D02*
X63144790Y-67462157D01*
X63144790Y-67462157D02*
X63120599Y-67538348D01*
X63120599Y-67538348D02*
X63096409Y-67576443D01*
X63096409Y-67576443D02*
X63048028Y-67614538D01*
X63048028Y-67614538D02*
X62854504Y-67614538D01*
X63338313Y-67957396D02*
X63410885Y-67995491D01*
X63410885Y-67995491D02*
X63531837Y-67995491D01*
X63531837Y-67995491D02*
X63580218Y-67957396D01*
X63580218Y-67957396D02*
X63604409Y-67919300D01*
X63604409Y-67919300D02*
X63628599Y-67843110D01*
X63628599Y-67843110D02*
X63628599Y-67766919D01*
X63628599Y-67766919D02*
X63604409Y-67690729D01*
X63604409Y-67690729D02*
X63580218Y-67652634D01*
X63580218Y-67652634D02*
X63531837Y-67614538D01*
X63531837Y-67614538D02*
X63435075Y-67576443D01*
X63435075Y-67576443D02*
X63386694Y-67538348D01*
X63386694Y-67538348D02*
X63362504Y-67500253D01*
X63362504Y-67500253D02*
X63338313Y-67424062D01*
X63338313Y-67424062D02*
X63338313Y-67347872D01*
X63338313Y-67347872D02*
X63362504Y-67271681D01*
X63362504Y-67271681D02*
X63386694Y-67233586D01*
X63386694Y-67233586D02*
X63435075Y-67195491D01*
X63435075Y-67195491D02*
X63556028Y-67195491D01*
X63556028Y-67195491D02*
X63628599Y-67233586D01*
X63773742Y-67195491D02*
X64064028Y-67195491D01*
X63918885Y-67995491D02*
X63918885Y-67195491D01*
X63194790Y-70445491D02*
X63025456Y-70064538D01*
X62904504Y-70445491D02*
X62904504Y-69645491D01*
X62904504Y-69645491D02*
X63098028Y-69645491D01*
X63098028Y-69645491D02*
X63146409Y-69683586D01*
X63146409Y-69683586D02*
X63170599Y-69721681D01*
X63170599Y-69721681D02*
X63194790Y-69797872D01*
X63194790Y-69797872D02*
X63194790Y-69912157D01*
X63194790Y-69912157D02*
X63170599Y-69988348D01*
X63170599Y-69988348D02*
X63146409Y-70026443D01*
X63146409Y-70026443D02*
X63098028Y-70064538D01*
X63098028Y-70064538D02*
X62904504Y-70064538D01*
X63364123Y-69645491D02*
X63702790Y-70445491D01*
X63702790Y-69645491D02*
X63364123Y-70445491D01*
X63896314Y-70445491D02*
X63896314Y-69645491D01*
X63896314Y-69645491D02*
X64017266Y-69645491D01*
X64017266Y-69645491D02*
X64089838Y-69683586D01*
X64089838Y-69683586D02*
X64138219Y-69759776D01*
X64138219Y-69759776D02*
X64162409Y-69835967D01*
X64162409Y-69835967D02*
X64186600Y-69988348D01*
X64186600Y-69988348D02*
X64186600Y-70102634D01*
X64186600Y-70102634D02*
X64162409Y-70255015D01*
X64162409Y-70255015D02*
X64138219Y-70331205D01*
X64138219Y-70331205D02*
X64089838Y-70407396D01*
X64089838Y-70407396D02*
X64017266Y-70445491D01*
X64017266Y-70445491D02*
X63896314Y-70445491D01*
X62831932Y-72095491D02*
X63122218Y-72095491D01*
X62977075Y-72895491D02*
X62977075Y-72095491D01*
X63243171Y-72095491D02*
X63581838Y-72895491D01*
X63581838Y-72095491D02*
X63243171Y-72895491D01*
X63775362Y-72895491D02*
X63775362Y-72095491D01*
X63775362Y-72095491D02*
X63896314Y-72095491D01*
X63896314Y-72095491D02*
X63968886Y-72133586D01*
X63968886Y-72133586D02*
X64017267Y-72209776D01*
X64017267Y-72209776D02*
X64041457Y-72285967D01*
X64041457Y-72285967D02*
X64065648Y-72438348D01*
X64065648Y-72438348D02*
X64065648Y-72552634D01*
X64065648Y-72552634D02*
X64041457Y-72705015D01*
X64041457Y-72705015D02*
X64017267Y-72781205D01*
X64017267Y-72781205D02*
X63968886Y-72857396D01*
X63968886Y-72857396D02*
X63896314Y-72895491D01*
X63896314Y-72895491D02*
X63775362Y-72895491D01*
X63220599Y-74833586D02*
X63172218Y-74795491D01*
X63172218Y-74795491D02*
X63099647Y-74795491D01*
X63099647Y-74795491D02*
X63027075Y-74833586D01*
X63027075Y-74833586D02*
X62978694Y-74909776D01*
X62978694Y-74909776D02*
X62954504Y-74985967D01*
X62954504Y-74985967D02*
X62930313Y-75138348D01*
X62930313Y-75138348D02*
X62930313Y-75252634D01*
X62930313Y-75252634D02*
X62954504Y-75405015D01*
X62954504Y-75405015D02*
X62978694Y-75481205D01*
X62978694Y-75481205D02*
X63027075Y-75557396D01*
X63027075Y-75557396D02*
X63099647Y-75595491D01*
X63099647Y-75595491D02*
X63148028Y-75595491D01*
X63148028Y-75595491D02*
X63220599Y-75557396D01*
X63220599Y-75557396D02*
X63244790Y-75519300D01*
X63244790Y-75519300D02*
X63244790Y-75252634D01*
X63244790Y-75252634D02*
X63148028Y-75252634D01*
X63462504Y-75595491D02*
X63462504Y-74795491D01*
X63462504Y-74795491D02*
X63752790Y-75595491D01*
X63752790Y-75595491D02*
X63752790Y-74795491D01*
X63994694Y-75595491D02*
X63994694Y-74795491D01*
X63994694Y-74795491D02*
X64115646Y-74795491D01*
X64115646Y-74795491D02*
X64188218Y-74833586D01*
X64188218Y-74833586D02*
X64236599Y-74909776D01*
X64236599Y-74909776D02*
X64260789Y-74985967D01*
X64260789Y-74985967D02*
X64284980Y-75138348D01*
X64284980Y-75138348D02*
X64284980Y-75252634D01*
X64284980Y-75252634D02*
X64260789Y-75405015D01*
X64260789Y-75405015D02*
X64236599Y-75481205D01*
X64236599Y-75481205D02*
X64188218Y-75557396D01*
X64188218Y-75557396D02*
X64115646Y-75595491D01*
X64115646Y-75595491D02*
X63994694Y-75595491D01*
X80180313Y-78057396D02*
X80252885Y-78095491D01*
X80252885Y-78095491D02*
X80373837Y-78095491D01*
X80373837Y-78095491D02*
X80422218Y-78057396D01*
X80422218Y-78057396D02*
X80446409Y-78019300D01*
X80446409Y-78019300D02*
X80470599Y-77943110D01*
X80470599Y-77943110D02*
X80470599Y-77866919D01*
X80470599Y-77866919D02*
X80446409Y-77790729D01*
X80446409Y-77790729D02*
X80422218Y-77752634D01*
X80422218Y-77752634D02*
X80373837Y-77714538D01*
X80373837Y-77714538D02*
X80277075Y-77676443D01*
X80277075Y-77676443D02*
X80228694Y-77638348D01*
X80228694Y-77638348D02*
X80204504Y-77600253D01*
X80204504Y-77600253D02*
X80180313Y-77524062D01*
X80180313Y-77524062D02*
X80180313Y-77447872D01*
X80180313Y-77447872D02*
X80204504Y-77371681D01*
X80204504Y-77371681D02*
X80228694Y-77333586D01*
X80228694Y-77333586D02*
X80277075Y-77295491D01*
X80277075Y-77295491D02*
X80398028Y-77295491D01*
X80398028Y-77295491D02*
X80470599Y-77333586D01*
X80688314Y-78095491D02*
X80688314Y-77295491D01*
X80688314Y-77295491D02*
X80881838Y-77295491D01*
X80881838Y-77295491D02*
X80930219Y-77333586D01*
X80930219Y-77333586D02*
X80954409Y-77371681D01*
X80954409Y-77371681D02*
X80978600Y-77447872D01*
X80978600Y-77447872D02*
X80978600Y-77562157D01*
X80978600Y-77562157D02*
X80954409Y-77638348D01*
X80954409Y-77638348D02*
X80930219Y-77676443D01*
X80930219Y-77676443D02*
X80881838Y-77714538D01*
X80881838Y-77714538D02*
X80688314Y-77714538D01*
X81196314Y-78095491D02*
X81196314Y-77295491D01*
X81486600Y-78095491D02*
X81268885Y-77638348D01*
X81486600Y-77295491D02*
X81196314Y-77752634D01*
X81704314Y-78095491D02*
X81704314Y-77295491D01*
X81704314Y-77295491D02*
X81994600Y-78095491D01*
X81994600Y-78095491D02*
X81994600Y-77295491D01*
X80254504Y-72995491D02*
X80254504Y-72195491D01*
X80254504Y-72195491D02*
X80423837Y-72766919D01*
X80423837Y-72766919D02*
X80593171Y-72195491D01*
X80593171Y-72195491D02*
X80593171Y-72995491D01*
X80835075Y-72995491D02*
X80835075Y-72195491D01*
X81367266Y-72919300D02*
X81343075Y-72957396D01*
X81343075Y-72957396D02*
X81270504Y-72995491D01*
X81270504Y-72995491D02*
X81222123Y-72995491D01*
X81222123Y-72995491D02*
X81149551Y-72957396D01*
X81149551Y-72957396D02*
X81101170Y-72881205D01*
X81101170Y-72881205D02*
X81076980Y-72805015D01*
X81076980Y-72805015D02*
X81052789Y-72652634D01*
X81052789Y-72652634D02*
X81052789Y-72538348D01*
X81052789Y-72538348D02*
X81076980Y-72385967D01*
X81076980Y-72385967D02*
X81101170Y-72309776D01*
X81101170Y-72309776D02*
X81149551Y-72233586D01*
X81149551Y-72233586D02*
X81222123Y-72195491D01*
X81222123Y-72195491D02*
X81270504Y-72195491D01*
X81270504Y-72195491D02*
X81343075Y-72233586D01*
X81343075Y-72233586D02*
X81367266Y-72271681D01*
X81584980Y-72995491D02*
X81584980Y-72195491D01*
X81584980Y-72195491D02*
X81875266Y-72995491D01*
X81875266Y-72995491D02*
X81875266Y-72195491D01*
X80230313Y-75507396D02*
X80302885Y-75545491D01*
X80302885Y-75545491D02*
X80423837Y-75545491D01*
X80423837Y-75545491D02*
X80472218Y-75507396D01*
X80472218Y-75507396D02*
X80496409Y-75469300D01*
X80496409Y-75469300D02*
X80520599Y-75393110D01*
X80520599Y-75393110D02*
X80520599Y-75316919D01*
X80520599Y-75316919D02*
X80496409Y-75240729D01*
X80496409Y-75240729D02*
X80472218Y-75202634D01*
X80472218Y-75202634D02*
X80423837Y-75164538D01*
X80423837Y-75164538D02*
X80327075Y-75126443D01*
X80327075Y-75126443D02*
X80278694Y-75088348D01*
X80278694Y-75088348D02*
X80254504Y-75050253D01*
X80254504Y-75050253D02*
X80230313Y-74974062D01*
X80230313Y-74974062D02*
X80230313Y-74897872D01*
X80230313Y-74897872D02*
X80254504Y-74821681D01*
X80254504Y-74821681D02*
X80278694Y-74783586D01*
X80278694Y-74783586D02*
X80327075Y-74745491D01*
X80327075Y-74745491D02*
X80448028Y-74745491D01*
X80448028Y-74745491D02*
X80520599Y-74783586D01*
X80738314Y-75545491D02*
X80738314Y-74745491D01*
X80738314Y-74745491D02*
X80931838Y-74745491D01*
X80931838Y-74745491D02*
X80980219Y-74783586D01*
X80980219Y-74783586D02*
X81004409Y-74821681D01*
X81004409Y-74821681D02*
X81028600Y-74897872D01*
X81028600Y-74897872D02*
X81028600Y-75012157D01*
X81028600Y-75012157D02*
X81004409Y-75088348D01*
X81004409Y-75088348D02*
X80980219Y-75126443D01*
X80980219Y-75126443D02*
X80931838Y-75164538D01*
X80931838Y-75164538D02*
X80738314Y-75164538D01*
X81246314Y-75545491D02*
X81246314Y-74745491D01*
X81536600Y-75545491D02*
X81318885Y-75088348D01*
X81536600Y-74745491D02*
X81246314Y-75202634D01*
X81754314Y-75545491D02*
X81754314Y-74745491D01*
X81754314Y-74745491D02*
X81947838Y-74745491D01*
X81947838Y-74745491D02*
X81996219Y-74783586D01*
X81996219Y-74783586D02*
X82020409Y-74821681D01*
X82020409Y-74821681D02*
X82044600Y-74897872D01*
X82044600Y-74897872D02*
X82044600Y-75012157D01*
X82044600Y-75012157D02*
X82020409Y-75088348D01*
X82020409Y-75088348D02*
X81996219Y-75126443D01*
X81996219Y-75126443D02*
X81947838Y-75164538D01*
X81947838Y-75164538D02*
X81754314Y-75164538D01*
X80304504Y-70345491D02*
X80304504Y-69545491D01*
X80304504Y-69545491D02*
X80473837Y-70116919D01*
X80473837Y-70116919D02*
X80643171Y-69545491D01*
X80643171Y-69545491D02*
X80643171Y-70345491D01*
X80885075Y-70345491D02*
X80885075Y-69545491D01*
X81417266Y-70269300D02*
X81393075Y-70307396D01*
X81393075Y-70307396D02*
X81320504Y-70345491D01*
X81320504Y-70345491D02*
X81272123Y-70345491D01*
X81272123Y-70345491D02*
X81199551Y-70307396D01*
X81199551Y-70307396D02*
X81151170Y-70231205D01*
X81151170Y-70231205D02*
X81126980Y-70155015D01*
X81126980Y-70155015D02*
X81102789Y-70002634D01*
X81102789Y-70002634D02*
X81102789Y-69888348D01*
X81102789Y-69888348D02*
X81126980Y-69735967D01*
X81126980Y-69735967D02*
X81151170Y-69659776D01*
X81151170Y-69659776D02*
X81199551Y-69583586D01*
X81199551Y-69583586D02*
X81272123Y-69545491D01*
X81272123Y-69545491D02*
X81320504Y-69545491D01*
X81320504Y-69545491D02*
X81393075Y-69583586D01*
X81393075Y-69583586D02*
X81417266Y-69621681D01*
X81634980Y-70345491D02*
X81634980Y-69545491D01*
X81634980Y-69545491D02*
X81828504Y-69545491D01*
X81828504Y-69545491D02*
X81876885Y-69583586D01*
X81876885Y-69583586D02*
X81901075Y-69621681D01*
X81901075Y-69621681D02*
X81925266Y-69697872D01*
X81925266Y-69697872D02*
X81925266Y-69812157D01*
X81925266Y-69812157D02*
X81901075Y-69888348D01*
X81901075Y-69888348D02*
X81876885Y-69926443D01*
X81876885Y-69926443D02*
X81828504Y-69964538D01*
X81828504Y-69964538D02*
X81634980Y-69964538D01*
X80744790Y-65445491D02*
X80575456Y-65064538D01*
X80454504Y-65445491D02*
X80454504Y-64645491D01*
X80454504Y-64645491D02*
X80648028Y-64645491D01*
X80648028Y-64645491D02*
X80696409Y-64683586D01*
X80696409Y-64683586D02*
X80720599Y-64721681D01*
X80720599Y-64721681D02*
X80744790Y-64797872D01*
X80744790Y-64797872D02*
X80744790Y-64912157D01*
X80744790Y-64912157D02*
X80720599Y-64988348D01*
X80720599Y-64988348D02*
X80696409Y-65026443D01*
X80696409Y-65026443D02*
X80648028Y-65064538D01*
X80648028Y-65064538D02*
X80454504Y-65064538D01*
X80962504Y-65445491D02*
X80962504Y-64645491D01*
X80454504Y-67845491D02*
X80454504Y-67045491D01*
X80454504Y-67045491D02*
X80575456Y-67045491D01*
X80575456Y-67045491D02*
X80648028Y-67083586D01*
X80648028Y-67083586D02*
X80696409Y-67159776D01*
X80696409Y-67159776D02*
X80720599Y-67235967D01*
X80720599Y-67235967D02*
X80744790Y-67388348D01*
X80744790Y-67388348D02*
X80744790Y-67502634D01*
X80744790Y-67502634D02*
X80720599Y-67655015D01*
X80720599Y-67655015D02*
X80696409Y-67731205D01*
X80696409Y-67731205D02*
X80648028Y-67807396D01*
X80648028Y-67807396D02*
X80575456Y-67845491D01*
X80575456Y-67845491D02*
X80454504Y-67845491D01*
X80889932Y-67045491D02*
X81180218Y-67045491D01*
X81035075Y-67845491D02*
X81035075Y-67045491D01*
X81639838Y-67845491D02*
X81470504Y-67464538D01*
X81349552Y-67845491D02*
X81349552Y-67045491D01*
X81349552Y-67045491D02*
X81543076Y-67045491D01*
X81543076Y-67045491D02*
X81591457Y-67083586D01*
X81591457Y-67083586D02*
X81615647Y-67121681D01*
X81615647Y-67121681D02*
X81639838Y-67197872D01*
X81639838Y-67197872D02*
X81639838Y-67312157D01*
X81639838Y-67312157D02*
X81615647Y-67388348D01*
X81615647Y-67388348D02*
X81591457Y-67426443D01*
X81591457Y-67426443D02*
X81543076Y-67464538D01*
X81543076Y-67464538D02*
X81349552Y-67464538D01*
%TO.C,C3*%
D15*
X49840302Y-39685000D02*
X50640302Y-39685000D01*
X50240302Y-39285000D02*
X50240302Y-40085000D01*
X54250000Y-37920000D02*
X54250000Y-46080000D01*
X54290000Y-37920000D02*
X54290000Y-46080000D01*
X54330000Y-37921000D02*
X54330000Y-46079000D01*
X54370000Y-37922000D02*
X54370000Y-46078000D01*
X54410000Y-37923000D02*
X54410000Y-46077000D01*
X54450000Y-37925000D02*
X54450000Y-46075000D01*
X54490000Y-37927000D02*
X54490000Y-46073000D01*
X54530000Y-37930000D02*
X54530000Y-46070000D01*
X54570000Y-37932000D02*
X54570000Y-46068000D01*
X54610000Y-37936000D02*
X54610000Y-46064000D01*
X54650000Y-37939000D02*
X54650000Y-46061000D01*
X54690000Y-37944000D02*
X54690000Y-46056000D01*
X54730000Y-37948000D02*
X54730000Y-46052000D01*
X54770000Y-37953000D02*
X54770000Y-46047000D01*
X54810000Y-37958000D02*
X54810000Y-46042000D01*
X54850000Y-37964000D02*
X54850000Y-46036000D01*
X54890000Y-37970000D02*
X54890000Y-46030000D01*
X54930000Y-37977000D02*
X54930000Y-46023000D01*
X54970000Y-37983000D02*
X54970000Y-40960000D01*
X54970000Y-43040000D02*
X54970000Y-46017000D01*
X55010000Y-37991000D02*
X55010000Y-40960000D01*
X55010000Y-43040000D02*
X55010000Y-46009000D01*
X55050000Y-37998000D02*
X55050000Y-40960000D01*
X55050000Y-43040000D02*
X55050000Y-46002000D01*
X55090000Y-38007000D02*
X55090000Y-40960000D01*
X55090000Y-43040000D02*
X55090000Y-45993000D01*
X55130000Y-38015000D02*
X55130000Y-40960000D01*
X55130000Y-43040000D02*
X55130000Y-45985000D01*
X55170000Y-38024000D02*
X55170000Y-40960000D01*
X55170000Y-43040000D02*
X55170000Y-45976000D01*
X55210000Y-38033000D02*
X55210000Y-40960000D01*
X55210000Y-43040000D02*
X55210000Y-45967000D01*
X55250000Y-38043000D02*
X55250000Y-40960000D01*
X55250000Y-43040000D02*
X55250000Y-45957000D01*
X55290000Y-38053000D02*
X55290000Y-40960000D01*
X55290000Y-43040000D02*
X55290000Y-45947000D01*
X55330000Y-38064000D02*
X55330000Y-40960000D01*
X55330000Y-43040000D02*
X55330000Y-45936000D01*
X55370000Y-38075000D02*
X55370000Y-40960000D01*
X55370000Y-43040000D02*
X55370000Y-45925000D01*
X55410000Y-38087000D02*
X55410000Y-40960000D01*
X55410000Y-43040000D02*
X55410000Y-45913000D01*
X55450000Y-38099000D02*
X55450000Y-40960000D01*
X55450000Y-43040000D02*
X55450000Y-45901000D01*
X55490000Y-38111000D02*
X55490000Y-40960000D01*
X55490000Y-43040000D02*
X55490000Y-45889000D01*
X55530000Y-38124000D02*
X55530000Y-40960000D01*
X55530000Y-43040000D02*
X55530000Y-45876000D01*
X55570000Y-38137000D02*
X55570000Y-40960000D01*
X55570000Y-43040000D02*
X55570000Y-45863000D01*
X55610000Y-38151000D02*
X55610000Y-40960000D01*
X55610000Y-43040000D02*
X55610000Y-45849000D01*
X55650000Y-38165000D02*
X55650000Y-40960000D01*
X55650000Y-43040000D02*
X55650000Y-45835000D01*
X55690000Y-38180000D02*
X55690000Y-40960000D01*
X55690000Y-43040000D02*
X55690000Y-45820000D01*
X55730000Y-38195000D02*
X55730000Y-40960000D01*
X55730000Y-43040000D02*
X55730000Y-45805000D01*
X55770000Y-38211000D02*
X55770000Y-40960000D01*
X55770000Y-43040000D02*
X55770000Y-45789000D01*
X55810000Y-38227000D02*
X55810000Y-40960000D01*
X55810000Y-43040000D02*
X55810000Y-45773000D01*
X55850000Y-38243000D02*
X55850000Y-40960000D01*
X55850000Y-43040000D02*
X55850000Y-45757000D01*
X55890000Y-38260000D02*
X55890000Y-40960000D01*
X55890000Y-43040000D02*
X55890000Y-45740000D01*
X55930000Y-38278000D02*
X55930000Y-40960000D01*
X55930000Y-43040000D02*
X55930000Y-45722000D01*
X55970000Y-38296000D02*
X55970000Y-40960000D01*
X55970000Y-43040000D02*
X55970000Y-45704000D01*
X56010000Y-38315000D02*
X56010000Y-40960000D01*
X56010000Y-43040000D02*
X56010000Y-45685000D01*
X56050000Y-38334000D02*
X56050000Y-40960000D01*
X56050000Y-43040000D02*
X56050000Y-45666000D01*
X56090000Y-38354000D02*
X56090000Y-40960000D01*
X56090000Y-43040000D02*
X56090000Y-45646000D01*
X56130000Y-38374000D02*
X56130000Y-40960000D01*
X56130000Y-43040000D02*
X56130000Y-45626000D01*
X56170000Y-38395000D02*
X56170000Y-40960000D01*
X56170000Y-43040000D02*
X56170000Y-45605000D01*
X56210000Y-38416000D02*
X56210000Y-40960000D01*
X56210000Y-43040000D02*
X56210000Y-45584000D01*
X56250000Y-38438000D02*
X56250000Y-40960000D01*
X56250000Y-43040000D02*
X56250000Y-45562000D01*
X56290000Y-38461000D02*
X56290000Y-40960000D01*
X56290000Y-43040000D02*
X56290000Y-45539000D01*
X56330000Y-38484000D02*
X56330000Y-40960000D01*
X56330000Y-43040000D02*
X56330000Y-45516000D01*
X56370000Y-38507000D02*
X56370000Y-40960000D01*
X56370000Y-43040000D02*
X56370000Y-45493000D01*
X56410000Y-38532000D02*
X56410000Y-40960000D01*
X56410000Y-43040000D02*
X56410000Y-45468000D01*
X56450000Y-38557000D02*
X56450000Y-40960000D01*
X56450000Y-43040000D02*
X56450000Y-45443000D01*
X56490000Y-38582000D02*
X56490000Y-40960000D01*
X56490000Y-43040000D02*
X56490000Y-45418000D01*
X56530000Y-38608000D02*
X56530000Y-40960000D01*
X56530000Y-43040000D02*
X56530000Y-45392000D01*
X56570000Y-38635000D02*
X56570000Y-40960000D01*
X56570000Y-43040000D02*
X56570000Y-45365000D01*
X56610000Y-38663000D02*
X56610000Y-40960000D01*
X56610000Y-43040000D02*
X56610000Y-45337000D01*
X56650000Y-38691000D02*
X56650000Y-40960000D01*
X56650000Y-43040000D02*
X56650000Y-45309000D01*
X56690000Y-38720000D02*
X56690000Y-40960000D01*
X56690000Y-43040000D02*
X56690000Y-45280000D01*
X56730000Y-38750000D02*
X56730000Y-40960000D01*
X56730000Y-43040000D02*
X56730000Y-45250000D01*
X56770000Y-38781000D02*
X56770000Y-40960000D01*
X56770000Y-43040000D02*
X56770000Y-45219000D01*
X56810000Y-38812000D02*
X56810000Y-40960000D01*
X56810000Y-43040000D02*
X56810000Y-45188000D01*
X56850000Y-38844000D02*
X56850000Y-40960000D01*
X56850000Y-43040000D02*
X56850000Y-45156000D01*
X56890000Y-38877000D02*
X56890000Y-40960000D01*
X56890000Y-43040000D02*
X56890000Y-45123000D01*
X56930000Y-38911000D02*
X56930000Y-40960000D01*
X56930000Y-43040000D02*
X56930000Y-45089000D01*
X56970000Y-38945000D02*
X56970000Y-40960000D01*
X56970000Y-43040000D02*
X56970000Y-45055000D01*
X57010000Y-38981000D02*
X57010000Y-40960000D01*
X57010000Y-43040000D02*
X57010000Y-45019000D01*
X57050000Y-39018000D02*
X57050000Y-44982000D01*
X57090000Y-39055000D02*
X57090000Y-44945000D01*
X57130000Y-39094000D02*
X57130000Y-44906000D01*
X57170000Y-39133000D02*
X57170000Y-44867000D01*
X57210000Y-39174000D02*
X57210000Y-44826000D01*
X57250000Y-39216000D02*
X57250000Y-44784000D01*
X57290000Y-39259000D02*
X57290000Y-44741000D01*
X57330000Y-39304000D02*
X57330000Y-44696000D01*
X57370000Y-39349000D02*
X57370000Y-44651000D01*
X57410000Y-39396000D02*
X57410000Y-44604000D01*
X57450000Y-39445000D02*
X57450000Y-44555000D01*
X57490000Y-39495000D02*
X57490000Y-44505000D01*
X57530000Y-39547000D02*
X57530000Y-44453000D01*
X57570000Y-39600000D02*
X57570000Y-44400000D01*
X57610000Y-39656000D02*
X57610000Y-44344000D01*
X57650000Y-39713000D02*
X57650000Y-44287000D01*
X57690000Y-39773000D02*
X57690000Y-44227000D01*
X57730000Y-39835000D02*
X57730000Y-44165000D01*
X57770000Y-39899000D02*
X57770000Y-44101000D01*
X57810000Y-39966000D02*
X57810000Y-44034000D01*
X57850000Y-40036000D02*
X57850000Y-43964000D01*
X57890000Y-40110000D02*
X57890000Y-43890000D01*
X57930000Y-40187000D02*
X57930000Y-43813000D01*
X57970000Y-40269000D02*
X57970000Y-43731000D01*
X58010000Y-40356000D02*
X58010000Y-43644000D01*
X58050000Y-40448000D02*
X58050000Y-43552000D01*
X58090000Y-40547000D02*
X58090000Y-43453000D01*
X58130000Y-40654000D02*
X58130000Y-43346000D01*
X58170000Y-40772000D02*
X58170000Y-43228000D01*
X58210000Y-40903000D02*
X58210000Y-43097000D01*
X58250000Y-41053000D02*
X58250000Y-42947000D01*
X58290000Y-41232000D02*
X58290000Y-42768000D01*
X58330000Y-41467000D02*
X58330000Y-42533000D01*
X58370000Y-42000000D02*
G75*
G02*
X50130000Y-42000000I-4120000J0D01*
G01*
X50130000Y-42000000D02*
G75*
G02*
X58370000Y-42000000I4120000J0D01*
G01*
%TO.C,U1*%
D14*
X29000000Y-80250000D02*
X29000000Y-58750000D01*
X30000000Y-57750000D02*
X33390000Y-57750000D01*
X33390000Y-57750000D02*
X42330000Y-57750000D01*
X42330000Y-57750000D02*
X46000000Y-57750000D01*
X46000000Y-81250000D02*
X30000000Y-81250000D01*
X47000000Y-58750000D02*
X47000000Y-80250000D01*
X29000000Y-58750000D02*
G75*
G02*
X30000000Y-57750000I999999J1D01*
G01*
X30000000Y-81250000D02*
G75*
G02*
X29000000Y-80250000I-1J999999D01*
G01*
X46000000Y-57750000D02*
G75*
G02*
X47000000Y-58750000I0J-1000000D01*
G01*
X47000000Y-80250000D02*
G75*
G02*
X46000000Y-81250000I-1000000J0D01*
G01*
D16*
X28350000Y-59340000D02*
G75*
G02*
X28150000Y-59340000I-100000J0D01*
G01*
X28150000Y-59340000D02*
G75*
G02*
X28350000Y-59340000I100000J0D01*
G01*
%TO.C,C1*%
D15*
X48020354Y-63125000D02*
X49020354Y-63125000D01*
X48520354Y-62625000D02*
X48520354Y-63625000D01*
X53500000Y-60920000D02*
X53500000Y-71080000D01*
X53540000Y-60920000D02*
X53540000Y-71080000D01*
X53580000Y-60921000D02*
X53580000Y-71079000D01*
X53620000Y-60921000D02*
X53620000Y-71079000D01*
X53660000Y-60923000D02*
X53660000Y-71077000D01*
X53700000Y-60924000D02*
X53700000Y-71076000D01*
X53740000Y-60926000D02*
X53740000Y-71074000D01*
X53780000Y-60928000D02*
X53780000Y-71072000D01*
X53820000Y-60930000D02*
X53820000Y-71070000D01*
X53860000Y-60933000D02*
X53860000Y-71067000D01*
X53900000Y-60936000D02*
X53900000Y-71064000D01*
X53940000Y-60939000D02*
X53940000Y-71061000D01*
X53980000Y-60943000D02*
X53980000Y-71057000D01*
X54020000Y-60946000D02*
X54020000Y-71054000D01*
X54060000Y-60951000D02*
X54060000Y-71049000D01*
X54100000Y-60955000D02*
X54100000Y-71045000D01*
X54140000Y-60960000D02*
X54140000Y-71040000D01*
X54180000Y-60965000D02*
X54180000Y-71035000D01*
X54220000Y-60971000D02*
X54220000Y-71029000D01*
X54260000Y-60977000D02*
X54260000Y-71023000D01*
X54300000Y-60983000D02*
X54300000Y-71017000D01*
X54340000Y-60989000D02*
X54340000Y-71011000D01*
X54380000Y-60996000D02*
X54380000Y-71004000D01*
X54420000Y-61003000D02*
X54420000Y-70997000D01*
X54460000Y-61011000D02*
X54460000Y-70989000D01*
X54500000Y-61019000D02*
X54500000Y-70981000D01*
X54540000Y-61027000D02*
X54540000Y-70973000D01*
X54580000Y-61035000D02*
X54580000Y-70965000D01*
X54620000Y-61044000D02*
X54620000Y-70956000D01*
X54660000Y-61053000D02*
X54660000Y-70947000D01*
X54700000Y-61063000D02*
X54700000Y-70937000D01*
X54740000Y-61072000D02*
X54740000Y-70928000D01*
X54780000Y-61083000D02*
X54780000Y-64760000D01*
X54780000Y-67240000D02*
X54780000Y-70917000D01*
X54820000Y-61093000D02*
X54820000Y-64760000D01*
X54820000Y-67240000D02*
X54820000Y-70907000D01*
X54860000Y-61104000D02*
X54860000Y-64760000D01*
X54860000Y-67240000D02*
X54860000Y-70896000D01*
X54900000Y-61115000D02*
X54900000Y-64760000D01*
X54900000Y-67240000D02*
X54900000Y-70885000D01*
X54940000Y-61127000D02*
X54940000Y-64760000D01*
X54940000Y-67240000D02*
X54940000Y-70873000D01*
X54980000Y-61139000D02*
X54980000Y-64760000D01*
X54980000Y-67240000D02*
X54980000Y-70861000D01*
X55020000Y-61151000D02*
X55020000Y-64760000D01*
X55020000Y-67240000D02*
X55020000Y-70849000D01*
X55060000Y-61163000D02*
X55060000Y-64760000D01*
X55060000Y-67240000D02*
X55060000Y-70837000D01*
X55100000Y-61176000D02*
X55100000Y-64760000D01*
X55100000Y-67240000D02*
X55100000Y-70824000D01*
X55140000Y-61190000D02*
X55140000Y-64760000D01*
X55140000Y-67240000D02*
X55140000Y-70810000D01*
X55180000Y-61203000D02*
X55180000Y-64760000D01*
X55180000Y-67240000D02*
X55180000Y-70797000D01*
X55220000Y-61218000D02*
X55220000Y-64760000D01*
X55220000Y-67240000D02*
X55220000Y-70782000D01*
X55260000Y-61232000D02*
X55260000Y-64760000D01*
X55260000Y-67240000D02*
X55260000Y-70768000D01*
X55300000Y-61247000D02*
X55300000Y-64760000D01*
X55300000Y-67240000D02*
X55300000Y-70753000D01*
X55340000Y-61262000D02*
X55340000Y-64760000D01*
X55340000Y-67240000D02*
X55340000Y-70738000D01*
X55380000Y-61278000D02*
X55380000Y-64760000D01*
X55380000Y-67240000D02*
X55380000Y-70722000D01*
X55420000Y-61294000D02*
X55420000Y-64760000D01*
X55420000Y-67240000D02*
X55420000Y-70706000D01*
X55460000Y-61310000D02*
X55460000Y-64760000D01*
X55460000Y-67240000D02*
X55460000Y-70690000D01*
X55500000Y-61327000D02*
X55500000Y-64760000D01*
X55500000Y-67240000D02*
X55500000Y-70673000D01*
X55540000Y-61344000D02*
X55540000Y-64760000D01*
X55540000Y-67240000D02*
X55540000Y-70656000D01*
X55580000Y-61362000D02*
X55580000Y-64760000D01*
X55580000Y-67240000D02*
X55580000Y-70638000D01*
X55620000Y-61380000D02*
X55620000Y-64760000D01*
X55620000Y-67240000D02*
X55620000Y-70620000D01*
X55660000Y-61398000D02*
X55660000Y-64760000D01*
X55660000Y-67240000D02*
X55660000Y-70602000D01*
X55700000Y-61417000D02*
X55700000Y-64760000D01*
X55700000Y-67240000D02*
X55700000Y-70583000D01*
X55740000Y-61436000D02*
X55740000Y-64760000D01*
X55740000Y-67240000D02*
X55740000Y-70564000D01*
X55780000Y-61456000D02*
X55780000Y-64760000D01*
X55780000Y-67240000D02*
X55780000Y-70544000D01*
X55820000Y-61476000D02*
X55820000Y-64760000D01*
X55820000Y-67240000D02*
X55820000Y-70524000D01*
X55860000Y-61496000D02*
X55860000Y-64760000D01*
X55860000Y-67240000D02*
X55860000Y-70504000D01*
X55900000Y-61517000D02*
X55900000Y-64760000D01*
X55900000Y-67240000D02*
X55900000Y-70483000D01*
X55940000Y-61539000D02*
X55940000Y-64760000D01*
X55940000Y-67240000D02*
X55940000Y-70461000D01*
X55980000Y-61561000D02*
X55980000Y-64760000D01*
X55980000Y-67240000D02*
X55980000Y-70439000D01*
X56020000Y-61583000D02*
X56020000Y-64760000D01*
X56020000Y-67240000D02*
X56020000Y-70417000D01*
X56060000Y-61606000D02*
X56060000Y-64760000D01*
X56060000Y-67240000D02*
X56060000Y-70394000D01*
X56100000Y-61629000D02*
X56100000Y-64760000D01*
X56100000Y-67240000D02*
X56100000Y-70371000D01*
X56140000Y-61653000D02*
X56140000Y-64760000D01*
X56140000Y-67240000D02*
X56140000Y-70347000D01*
X56180000Y-61677000D02*
X56180000Y-64760000D01*
X56180000Y-67240000D02*
X56180000Y-70323000D01*
X56220000Y-61702000D02*
X56220000Y-64760000D01*
X56220000Y-67240000D02*
X56220000Y-70298000D01*
X56260000Y-61728000D02*
X56260000Y-64760000D01*
X56260000Y-67240000D02*
X56260000Y-70272000D01*
X56300000Y-61753000D02*
X56300000Y-64760000D01*
X56300000Y-67240000D02*
X56300000Y-70247000D01*
X56340000Y-61780000D02*
X56340000Y-64760000D01*
X56340000Y-67240000D02*
X56340000Y-70220000D01*
X56380000Y-61807000D02*
X56380000Y-64760000D01*
X56380000Y-67240000D02*
X56380000Y-70193000D01*
X56420000Y-61834000D02*
X56420000Y-64760000D01*
X56420000Y-67240000D02*
X56420000Y-70166000D01*
X56460000Y-61862000D02*
X56460000Y-64760000D01*
X56460000Y-67240000D02*
X56460000Y-70138000D01*
X56500000Y-61891000D02*
X56500000Y-64760000D01*
X56500000Y-67240000D02*
X56500000Y-70109000D01*
X56540000Y-61920000D02*
X56540000Y-64760000D01*
X56540000Y-67240000D02*
X56540000Y-70080000D01*
X56580000Y-61950000D02*
X56580000Y-64760000D01*
X56580000Y-67240000D02*
X56580000Y-70050000D01*
X56620000Y-61980000D02*
X56620000Y-64760000D01*
X56620000Y-67240000D02*
X56620000Y-70020000D01*
X56660000Y-62012000D02*
X56660000Y-64760000D01*
X56660000Y-67240000D02*
X56660000Y-69988000D01*
X56700000Y-62043000D02*
X56700000Y-64760000D01*
X56700000Y-67240000D02*
X56700000Y-69957000D01*
X56740000Y-62076000D02*
X56740000Y-64760000D01*
X56740000Y-67240000D02*
X56740000Y-69924000D01*
X56780000Y-62109000D02*
X56780000Y-64760000D01*
X56780000Y-67240000D02*
X56780000Y-69891000D01*
X56820000Y-62142000D02*
X56820000Y-64760000D01*
X56820000Y-67240000D02*
X56820000Y-69858000D01*
X56860000Y-62177000D02*
X56860000Y-64760000D01*
X56860000Y-67240000D02*
X56860000Y-69823000D01*
X56900000Y-62212000D02*
X56900000Y-64760000D01*
X56900000Y-67240000D02*
X56900000Y-69788000D01*
X56940000Y-62248000D02*
X56940000Y-64760000D01*
X56940000Y-67240000D02*
X56940000Y-69752000D01*
X56980000Y-62284000D02*
X56980000Y-64760000D01*
X56980000Y-67240000D02*
X56980000Y-69716000D01*
X57020000Y-62322000D02*
X57020000Y-64760000D01*
X57020000Y-67240000D02*
X57020000Y-69678000D01*
X57060000Y-62360000D02*
X57060000Y-64760000D01*
X57060000Y-67240000D02*
X57060000Y-69640000D01*
X57100000Y-62399000D02*
X57100000Y-64760000D01*
X57100000Y-67240000D02*
X57100000Y-69601000D01*
X57140000Y-62439000D02*
X57140000Y-64760000D01*
X57140000Y-67240000D02*
X57140000Y-69561000D01*
X57180000Y-62480000D02*
X57180000Y-64760000D01*
X57180000Y-67240000D02*
X57180000Y-69520000D01*
X57220000Y-62522000D02*
X57220000Y-64760000D01*
X57220000Y-67240000D02*
X57220000Y-69478000D01*
X57260000Y-62565000D02*
X57260000Y-69435000D01*
X57300000Y-62609000D02*
X57300000Y-69391000D01*
X57340000Y-62653000D02*
X57340000Y-69347000D01*
X57380000Y-62699000D02*
X57380000Y-69301000D01*
X57420000Y-62746000D02*
X57420000Y-69254000D01*
X57460000Y-62795000D02*
X57460000Y-69205000D01*
X57500000Y-62844000D02*
X57500000Y-69156000D01*
X57540000Y-62895000D02*
X57540000Y-69105000D01*
X57580000Y-62947000D02*
X57580000Y-69053000D01*
X57620000Y-63000000D02*
X57620000Y-69000000D01*
X57660000Y-63055000D02*
X57660000Y-68945000D01*
X57700000Y-63112000D02*
X57700000Y-68888000D01*
X57740000Y-63170000D02*
X57740000Y-68830000D01*
X57780000Y-63230000D02*
X57780000Y-68770000D01*
X57820000Y-63292000D02*
X57820000Y-68708000D01*
X57860000Y-63356000D02*
X57860000Y-68644000D01*
X57900000Y-63422000D02*
X57900000Y-68578000D01*
X57940000Y-63490000D02*
X57940000Y-68510000D01*
X57980000Y-63561000D02*
X57980000Y-68439000D01*
X58020000Y-63635000D02*
X58020000Y-68365000D01*
X58060000Y-63712000D02*
X58060000Y-68288000D01*
X58100000Y-63792000D02*
X58100000Y-68208000D01*
X58140000Y-63876000D02*
X58140000Y-68124000D01*
X58180000Y-63963000D02*
X58180000Y-68037000D01*
X58220000Y-64056000D02*
X58220000Y-67944000D01*
X58260000Y-64154000D02*
X58260000Y-67846000D01*
X58300000Y-64258000D02*
X58300000Y-67742000D01*
X58340000Y-64370000D02*
X58340000Y-67630000D01*
X58380000Y-64491000D02*
X58380000Y-67509000D01*
X58420000Y-64623000D02*
X58420000Y-67377000D01*
X58460000Y-64770000D02*
X58460000Y-67230000D01*
X58500000Y-64938000D02*
X58500000Y-67062000D01*
X58540000Y-65138000D02*
X58540000Y-66862000D01*
X58580000Y-65401000D02*
X58580000Y-66599000D01*
X58620000Y-66000000D02*
G75*
G02*
X48380000Y-66000000I-5120000J0D01*
G01*
X48380000Y-66000000D02*
G75*
G02*
X58620000Y-66000000I5120000J0D01*
G01*
%TO.C,U2*%
X25430000Y-30696000D02*
X41940000Y-30696000D01*
X25430000Y-51270000D02*
X25430000Y-30696000D01*
X41940000Y-30696000D02*
X41940000Y-51270000D01*
X41940000Y-51270000D02*
X25430000Y-51270000D01*
X40767832Y-32982000D02*
G75*
G02*
X38032168Y-32982000I-1367832J0D01*
G01*
X38032168Y-32982000D02*
G75*
G02*
X40767832Y-32982000I1367832J0D01*
G01*
X40767832Y-48984000D02*
G75*
G02*
X38032168Y-48984000I-1367832J0D01*
G01*
X38032168Y-48984000D02*
G75*
G02*
X40767832Y-48984000I1367832J0D01*
G01*
%TO.C,U3*%
D11*
X60500000Y-50500000D02*
X64500000Y-50500000D01*
X81900000Y-36900000D02*
X85100000Y-36900000D01*
X60500000Y-30000000D02*
X85500000Y-30000000D01*
X85500000Y-55000000D01*
X60500000Y-55000000D01*
X60500000Y-30000000D01*
%TD*%
M02*
