%TF.GenerationSoftware,KiCad,Pcbnew,10.0.5*%
%TF.CreationDate,2026-08-31T10:10:09+07:00*%
%TF.ProjectId,vsmart-module-carrier,76736d61-7274-42d6-9d6f-64756c652d63,rev?*%
%TF.SameCoordinates,Original*%
%TF.FileFunction,Legend,Top*%
%TF.FilePolarity,Positive*%
%FSLAX46Y46*%
G04 Gerber Fmt 4.6, Leading zero omitted, Abs format (unit mm)*
G04 Created by KiCad (PCBNEW 10.0.5) date 2026-08-31 10:10:09*
%MOMM*%
%LPD*%
G01*
G04 APERTURE LIST*
%ADD10C,0.140000*%
%ADD11C,0.150000*%
%ADD12C,0.160000*%
%ADD13C,0.100000*%
%ADD14C,0.127000*%
%ADD15C,0.120000*%
G04 APERTURE END LIST*
D10*
X92154762Y-22076423D02*
X92073809Y-22035947D01*
X92073809Y-22035947D02*
X91952381Y-22035947D01*
X91952381Y-22035947D02*
X91830952Y-22076423D01*
X91830952Y-22076423D02*
X91750000Y-22157375D01*
X91750000Y-22157375D02*
X91709523Y-22238328D01*
X91709523Y-22238328D02*
X91669047Y-22400232D01*
X91669047Y-22400232D02*
X91669047Y-22521661D01*
X91669047Y-22521661D02*
X91709523Y-22683566D01*
X91709523Y-22683566D02*
X91750000Y-22764518D01*
X91750000Y-22764518D02*
X91830952Y-22845471D01*
X91830952Y-22845471D02*
X91952381Y-22885947D01*
X91952381Y-22885947D02*
X92033333Y-22885947D01*
X92033333Y-22885947D02*
X92154762Y-22845471D01*
X92154762Y-22845471D02*
X92195238Y-22804994D01*
X92195238Y-22804994D02*
X92195238Y-22521661D01*
X92195238Y-22521661D02*
X92033333Y-22521661D01*
X92559523Y-22885947D02*
X92559523Y-22035947D01*
X92559523Y-22035947D02*
X92883333Y-22035947D01*
X92883333Y-22035947D02*
X92964285Y-22076423D01*
X92964285Y-22076423D02*
X93004762Y-22116899D01*
X93004762Y-22116899D02*
X93045238Y-22197851D01*
X93045238Y-22197851D02*
X93045238Y-22319280D01*
X93045238Y-22319280D02*
X93004762Y-22400232D01*
X93004762Y-22400232D02*
X92964285Y-22440709D01*
X92964285Y-22440709D02*
X92883333Y-22481185D01*
X92883333Y-22481185D02*
X92559523Y-22481185D01*
X93369047Y-22845471D02*
X93490476Y-22885947D01*
X93490476Y-22885947D02*
X93692857Y-22885947D01*
X93692857Y-22885947D02*
X93773809Y-22845471D01*
X93773809Y-22845471D02*
X93814285Y-22804994D01*
X93814285Y-22804994D02*
X93854762Y-22724042D01*
X93854762Y-22724042D02*
X93854762Y-22643090D01*
X93854762Y-22643090D02*
X93814285Y-22562137D01*
X93814285Y-22562137D02*
X93773809Y-22521661D01*
X93773809Y-22521661D02*
X93692857Y-22481185D01*
X93692857Y-22481185D02*
X93530952Y-22440709D01*
X93530952Y-22440709D02*
X93450000Y-22400232D01*
X93450000Y-22400232D02*
X93409523Y-22359756D01*
X93409523Y-22359756D02*
X93369047Y-22278804D01*
X93369047Y-22278804D02*
X93369047Y-22197851D01*
X93369047Y-22197851D02*
X93409523Y-22116899D01*
X93409523Y-22116899D02*
X93450000Y-22076423D01*
X93450000Y-22076423D02*
X93530952Y-22035947D01*
X93530952Y-22035947D02*
X93733333Y-22035947D01*
X93733333Y-22035947D02*
X93854762Y-22076423D01*
X94745238Y-22035947D02*
X95028571Y-22885947D01*
X95028571Y-22885947D02*
X95311905Y-22035947D01*
X96080952Y-22804994D02*
X96040476Y-22845471D01*
X96040476Y-22845471D02*
X95919047Y-22885947D01*
X95919047Y-22885947D02*
X95838095Y-22885947D01*
X95838095Y-22885947D02*
X95716666Y-22845471D01*
X95716666Y-22845471D02*
X95635714Y-22764518D01*
X95635714Y-22764518D02*
X95595237Y-22683566D01*
X95595237Y-22683566D02*
X95554761Y-22521661D01*
X95554761Y-22521661D02*
X95554761Y-22400232D01*
X95554761Y-22400232D02*
X95595237Y-22238328D01*
X95595237Y-22238328D02*
X95635714Y-22157375D01*
X95635714Y-22157375D02*
X95716666Y-22076423D01*
X95716666Y-22076423D02*
X95838095Y-22035947D01*
X95838095Y-22035947D02*
X95919047Y-22035947D01*
X95919047Y-22035947D02*
X96040476Y-22076423D01*
X96040476Y-22076423D02*
X96080952Y-22116899D01*
X96930952Y-22804994D02*
X96890476Y-22845471D01*
X96890476Y-22845471D02*
X96769047Y-22885947D01*
X96769047Y-22885947D02*
X96688095Y-22885947D01*
X96688095Y-22885947D02*
X96566666Y-22845471D01*
X96566666Y-22845471D02*
X96485714Y-22764518D01*
X96485714Y-22764518D02*
X96445237Y-22683566D01*
X96445237Y-22683566D02*
X96404761Y-22521661D01*
X96404761Y-22521661D02*
X96404761Y-22400232D01*
X96404761Y-22400232D02*
X96445237Y-22238328D01*
X96445237Y-22238328D02*
X96485714Y-22157375D01*
X96485714Y-22157375D02*
X96566666Y-22076423D01*
X96566666Y-22076423D02*
X96688095Y-22035947D01*
X96688095Y-22035947D02*
X96769047Y-22035947D01*
X96769047Y-22035947D02*
X96890476Y-22076423D01*
X96890476Y-22076423D02*
X96930952Y-22116899D01*
X97295237Y-22440709D02*
X97942857Y-22440709D01*
X97942857Y-22683566D02*
X97295237Y-22683566D01*
X98266666Y-22035947D02*
X98792857Y-22035947D01*
X98792857Y-22035947D02*
X98509523Y-22359756D01*
X98509523Y-22359756D02*
X98630952Y-22359756D01*
X98630952Y-22359756D02*
X98711904Y-22400232D01*
X98711904Y-22400232D02*
X98752380Y-22440709D01*
X98752380Y-22440709D02*
X98792857Y-22521661D01*
X98792857Y-22521661D02*
X98792857Y-22724042D01*
X98792857Y-22724042D02*
X98752380Y-22804994D01*
X98752380Y-22804994D02*
X98711904Y-22845471D01*
X98711904Y-22845471D02*
X98630952Y-22885947D01*
X98630952Y-22885947D02*
X98388095Y-22885947D01*
X98388095Y-22885947D02*
X98307142Y-22845471D01*
X98307142Y-22845471D02*
X98266666Y-22804994D01*
X99035714Y-22035947D02*
X99319047Y-22885947D01*
X99319047Y-22885947D02*
X99602381Y-22035947D01*
X99804761Y-22035947D02*
X100330952Y-22035947D01*
X100330952Y-22035947D02*
X100047618Y-22359756D01*
X100047618Y-22359756D02*
X100169047Y-22359756D01*
X100169047Y-22359756D02*
X100249999Y-22400232D01*
X100249999Y-22400232D02*
X100290475Y-22440709D01*
X100290475Y-22440709D02*
X100330952Y-22521661D01*
X100330952Y-22521661D02*
X100330952Y-22724042D01*
X100330952Y-22724042D02*
X100290475Y-22804994D01*
X100290475Y-22804994D02*
X100249999Y-22845471D01*
X100249999Y-22845471D02*
X100169047Y-22885947D01*
X100169047Y-22885947D02*
X99926190Y-22885947D01*
X99926190Y-22885947D02*
X99845237Y-22845471D01*
X99845237Y-22845471D02*
X99804761Y-22804994D01*
D11*
X57685713Y-93265700D02*
X58371428Y-93265700D01*
X58028570Y-93608557D02*
X58028570Y-92922842D01*
X59228571Y-92708557D02*
X58799999Y-92708557D01*
X58799999Y-92708557D02*
X58757142Y-93137128D01*
X58757142Y-93137128D02*
X58799999Y-93094271D01*
X58799999Y-93094271D02*
X58885714Y-93051414D01*
X58885714Y-93051414D02*
X59099999Y-93051414D01*
X59099999Y-93051414D02*
X59185714Y-93094271D01*
X59185714Y-93094271D02*
X59228571Y-93137128D01*
X59228571Y-93137128D02*
X59271428Y-93222842D01*
X59271428Y-93222842D02*
X59271428Y-93437128D01*
X59271428Y-93437128D02*
X59228571Y-93522842D01*
X59228571Y-93522842D02*
X59185714Y-93565700D01*
X59185714Y-93565700D02*
X59099999Y-93608557D01*
X59099999Y-93608557D02*
X58885714Y-93608557D01*
X58885714Y-93608557D02*
X58799999Y-93565700D01*
X58799999Y-93565700D02*
X58757142Y-93522842D01*
X59528571Y-92708557D02*
X59828571Y-93608557D01*
X59828571Y-93608557D02*
X60128571Y-92708557D01*
X61585714Y-93608557D02*
X61071428Y-93608557D01*
X61328571Y-93608557D02*
X61328571Y-92708557D01*
X61328571Y-92708557D02*
X61242857Y-92837128D01*
X61242857Y-92837128D02*
X61157142Y-92922842D01*
X61157142Y-92922842D02*
X61071428Y-92965700D01*
X61928571Y-93351414D02*
X62357143Y-93351414D01*
X61842857Y-93608557D02*
X62142857Y-92708557D01*
X62142857Y-92708557D02*
X62442857Y-93608557D01*
X64714286Y-92751414D02*
X64628572Y-92708557D01*
X64628572Y-92708557D02*
X64500000Y-92708557D01*
X64500000Y-92708557D02*
X64371429Y-92751414D01*
X64371429Y-92751414D02*
X64285714Y-92837128D01*
X64285714Y-92837128D02*
X64242857Y-92922842D01*
X64242857Y-92922842D02*
X64200000Y-93094271D01*
X64200000Y-93094271D02*
X64200000Y-93222842D01*
X64200000Y-93222842D02*
X64242857Y-93394271D01*
X64242857Y-93394271D02*
X64285714Y-93479985D01*
X64285714Y-93479985D02*
X64371429Y-93565700D01*
X64371429Y-93565700D02*
X64500000Y-93608557D01*
X64500000Y-93608557D02*
X64585714Y-93608557D01*
X64585714Y-93608557D02*
X64714286Y-93565700D01*
X64714286Y-93565700D02*
X64757143Y-93522842D01*
X64757143Y-93522842D02*
X64757143Y-93222842D01*
X64757143Y-93222842D02*
X64585714Y-93222842D01*
X65142857Y-93608557D02*
X65142857Y-92708557D01*
X65142857Y-92708557D02*
X65657143Y-93608557D01*
X65657143Y-93608557D02*
X65657143Y-92708557D01*
X66085714Y-93608557D02*
X66085714Y-92708557D01*
X66085714Y-92708557D02*
X66300000Y-92708557D01*
X66300000Y-92708557D02*
X66428571Y-92751414D01*
X66428571Y-92751414D02*
X66514286Y-92837128D01*
X66514286Y-92837128D02*
X66557143Y-92922842D01*
X66557143Y-92922842D02*
X66600000Y-93094271D01*
X66600000Y-93094271D02*
X66600000Y-93222842D01*
X66600000Y-93222842D02*
X66557143Y-93394271D01*
X66557143Y-93394271D02*
X66514286Y-93479985D01*
X66514286Y-93479985D02*
X66428571Y-93565700D01*
X66428571Y-93565700D02*
X66300000Y-93608557D01*
X66300000Y-93608557D02*
X66085714Y-93608557D01*
X102685713Y-93265700D02*
X103371428Y-93265700D01*
X103028570Y-93608557D02*
X103028570Y-92922842D01*
X104228571Y-92708557D02*
X103799999Y-92708557D01*
X103799999Y-92708557D02*
X103757142Y-93137128D01*
X103757142Y-93137128D02*
X103799999Y-93094271D01*
X103799999Y-93094271D02*
X103885714Y-93051414D01*
X103885714Y-93051414D02*
X104099999Y-93051414D01*
X104099999Y-93051414D02*
X104185714Y-93094271D01*
X104185714Y-93094271D02*
X104228571Y-93137128D01*
X104228571Y-93137128D02*
X104271428Y-93222842D01*
X104271428Y-93222842D02*
X104271428Y-93437128D01*
X104271428Y-93437128D02*
X104228571Y-93522842D01*
X104228571Y-93522842D02*
X104185714Y-93565700D01*
X104185714Y-93565700D02*
X104099999Y-93608557D01*
X104099999Y-93608557D02*
X103885714Y-93608557D01*
X103885714Y-93608557D02*
X103799999Y-93565700D01*
X103799999Y-93565700D02*
X103757142Y-93522842D01*
X104528571Y-92708557D02*
X104828571Y-93608557D01*
X104828571Y-93608557D02*
X105128571Y-92708557D01*
X106071428Y-92794271D02*
X106114285Y-92751414D01*
X106114285Y-92751414D02*
X106200000Y-92708557D01*
X106200000Y-92708557D02*
X106414285Y-92708557D01*
X106414285Y-92708557D02*
X106500000Y-92751414D01*
X106500000Y-92751414D02*
X106542857Y-92794271D01*
X106542857Y-92794271D02*
X106585714Y-92879985D01*
X106585714Y-92879985D02*
X106585714Y-92965700D01*
X106585714Y-92965700D02*
X106542857Y-93094271D01*
X106542857Y-93094271D02*
X106028571Y-93608557D01*
X106028571Y-93608557D02*
X106585714Y-93608557D01*
X106928571Y-93351414D02*
X107357143Y-93351414D01*
X106842857Y-93608557D02*
X107142857Y-92708557D01*
X107142857Y-92708557D02*
X107442857Y-93608557D01*
X109714286Y-92751414D02*
X109628572Y-92708557D01*
X109628572Y-92708557D02*
X109500000Y-92708557D01*
X109500000Y-92708557D02*
X109371429Y-92751414D01*
X109371429Y-92751414D02*
X109285714Y-92837128D01*
X109285714Y-92837128D02*
X109242857Y-92922842D01*
X109242857Y-92922842D02*
X109200000Y-93094271D01*
X109200000Y-93094271D02*
X109200000Y-93222842D01*
X109200000Y-93222842D02*
X109242857Y-93394271D01*
X109242857Y-93394271D02*
X109285714Y-93479985D01*
X109285714Y-93479985D02*
X109371429Y-93565700D01*
X109371429Y-93565700D02*
X109500000Y-93608557D01*
X109500000Y-93608557D02*
X109585714Y-93608557D01*
X109585714Y-93608557D02*
X109714286Y-93565700D01*
X109714286Y-93565700D02*
X109757143Y-93522842D01*
X109757143Y-93522842D02*
X109757143Y-93222842D01*
X109757143Y-93222842D02*
X109585714Y-93222842D01*
X110142857Y-93608557D02*
X110142857Y-92708557D01*
X110142857Y-92708557D02*
X110657143Y-93608557D01*
X110657143Y-93608557D02*
X110657143Y-92708557D01*
X111085714Y-93608557D02*
X111085714Y-92708557D01*
X111085714Y-92708557D02*
X111300000Y-92708557D01*
X111300000Y-92708557D02*
X111428571Y-92751414D01*
X111428571Y-92751414D02*
X111514286Y-92837128D01*
X111514286Y-92837128D02*
X111557143Y-92922842D01*
X111557143Y-92922842D02*
X111600000Y-93094271D01*
X111600000Y-93094271D02*
X111600000Y-93222842D01*
X111600000Y-93222842D02*
X111557143Y-93394271D01*
X111557143Y-93394271D02*
X111514286Y-93479985D01*
X111514286Y-93479985D02*
X111428571Y-93565700D01*
X111428571Y-93565700D02*
X111300000Y-93608557D01*
X111300000Y-93608557D02*
X111085714Y-93608557D01*
D12*
X101333333Y-58406680D02*
X101476190Y-58454299D01*
X101476190Y-58454299D02*
X101714285Y-58454299D01*
X101714285Y-58454299D02*
X101809523Y-58406680D01*
X101809523Y-58406680D02*
X101857142Y-58359060D01*
X101857142Y-58359060D02*
X101904761Y-58263822D01*
X101904761Y-58263822D02*
X101904761Y-58168584D01*
X101904761Y-58168584D02*
X101857142Y-58073346D01*
X101857142Y-58073346D02*
X101809523Y-58025727D01*
X101809523Y-58025727D02*
X101714285Y-57978108D01*
X101714285Y-57978108D02*
X101523809Y-57930489D01*
X101523809Y-57930489D02*
X101428571Y-57882870D01*
X101428571Y-57882870D02*
X101380952Y-57835251D01*
X101380952Y-57835251D02*
X101333333Y-57740013D01*
X101333333Y-57740013D02*
X101333333Y-57644775D01*
X101333333Y-57644775D02*
X101380952Y-57549537D01*
X101380952Y-57549537D02*
X101428571Y-57501918D01*
X101428571Y-57501918D02*
X101523809Y-57454299D01*
X101523809Y-57454299D02*
X101761904Y-57454299D01*
X101761904Y-57454299D02*
X101904761Y-57501918D01*
X102333333Y-58454299D02*
X102333333Y-57454299D01*
X102809523Y-58454299D02*
X102809523Y-57454299D01*
X102809523Y-57454299D02*
X103142856Y-58168584D01*
X103142856Y-58168584D02*
X103476189Y-57454299D01*
X103476189Y-57454299D02*
X103476189Y-58454299D01*
X105190475Y-57454299D02*
X104714285Y-57454299D01*
X104714285Y-57454299D02*
X104666666Y-57930489D01*
X104666666Y-57930489D02*
X104714285Y-57882870D01*
X104714285Y-57882870D02*
X104809523Y-57835251D01*
X104809523Y-57835251D02*
X105047618Y-57835251D01*
X105047618Y-57835251D02*
X105142856Y-57882870D01*
X105142856Y-57882870D02*
X105190475Y-57930489D01*
X105190475Y-57930489D02*
X105238094Y-58025727D01*
X105238094Y-58025727D02*
X105238094Y-58263822D01*
X105238094Y-58263822D02*
X105190475Y-58359060D01*
X105190475Y-58359060D02*
X105142856Y-58406680D01*
X105142856Y-58406680D02*
X105047618Y-58454299D01*
X105047618Y-58454299D02*
X104809523Y-58454299D01*
X104809523Y-58454299D02*
X104714285Y-58406680D01*
X104714285Y-58406680D02*
X104666666Y-58359060D01*
X105523809Y-57454299D02*
X105857142Y-58454299D01*
X105857142Y-58454299D02*
X106190475Y-57454299D01*
X107238095Y-57549537D02*
X107285714Y-57501918D01*
X107285714Y-57501918D02*
X107380952Y-57454299D01*
X107380952Y-57454299D02*
X107619047Y-57454299D01*
X107619047Y-57454299D02*
X107714285Y-57501918D01*
X107714285Y-57501918D02*
X107761904Y-57549537D01*
X107761904Y-57549537D02*
X107809523Y-57644775D01*
X107809523Y-57644775D02*
X107809523Y-57740013D01*
X107809523Y-57740013D02*
X107761904Y-57882870D01*
X107761904Y-57882870D02*
X107190476Y-58454299D01*
X107190476Y-58454299D02*
X107809523Y-58454299D01*
X108190476Y-58168584D02*
X108666666Y-58168584D01*
X108095238Y-58454299D02*
X108428571Y-57454299D01*
X108428571Y-57454299D02*
X108761904Y-58454299D01*
D13*
X89910695Y-66091419D02*
X89910695Y-66900942D01*
X89910695Y-66900942D02*
X89958314Y-66996180D01*
X89958314Y-66996180D02*
X90005933Y-67043800D01*
X90005933Y-67043800D02*
X90101171Y-67091419D01*
X90101171Y-67091419D02*
X90291647Y-67091419D01*
X90291647Y-67091419D02*
X90386885Y-67043800D01*
X90386885Y-67043800D02*
X90434504Y-66996180D01*
X90434504Y-66996180D02*
X90482123Y-66900942D01*
X90482123Y-66900942D02*
X90482123Y-66091419D01*
X91386885Y-66424752D02*
X91386885Y-67091419D01*
X91148790Y-66043800D02*
X90910695Y-66758085D01*
X90910695Y-66758085D02*
X91529742Y-66758085D01*
D14*
X80668056Y-84028516D02*
X81072818Y-84028516D01*
X80587104Y-84271373D02*
X80870437Y-83421373D01*
X80870437Y-83421373D02*
X81153771Y-84271373D01*
X81437103Y-84271373D02*
X81437103Y-83421373D01*
X81437103Y-83421373D02*
X81922818Y-84271373D01*
X81922818Y-84271373D02*
X81922818Y-83421373D01*
X82206151Y-83421373D02*
X82691865Y-83421373D01*
X82449008Y-84271373D02*
X82449008Y-83421373D01*
X81294247Y-79211373D02*
X81010913Y-78806611D01*
X80808532Y-79211373D02*
X80808532Y-78361373D01*
X80808532Y-78361373D02*
X81132342Y-78361373D01*
X81132342Y-78361373D02*
X81213294Y-78401849D01*
X81213294Y-78401849D02*
X81253771Y-78442325D01*
X81253771Y-78442325D02*
X81294247Y-78523277D01*
X81294247Y-78523277D02*
X81294247Y-78644706D01*
X81294247Y-78644706D02*
X81253771Y-78725658D01*
X81253771Y-78725658D02*
X81213294Y-78766135D01*
X81213294Y-78766135D02*
X81132342Y-78806611D01*
X81132342Y-78806611D02*
X80808532Y-78806611D01*
X81618056Y-79170897D02*
X81739485Y-79211373D01*
X81739485Y-79211373D02*
X81941866Y-79211373D01*
X81941866Y-79211373D02*
X82022818Y-79170897D01*
X82022818Y-79170897D02*
X82063294Y-79130420D01*
X82063294Y-79130420D02*
X82103771Y-79049468D01*
X82103771Y-79049468D02*
X82103771Y-78968516D01*
X82103771Y-78968516D02*
X82063294Y-78887563D01*
X82063294Y-78887563D02*
X82022818Y-78847087D01*
X82022818Y-78847087D02*
X81941866Y-78806611D01*
X81941866Y-78806611D02*
X81779961Y-78766135D01*
X81779961Y-78766135D02*
X81699009Y-78725658D01*
X81699009Y-78725658D02*
X81658532Y-78685182D01*
X81658532Y-78685182D02*
X81618056Y-78604230D01*
X81618056Y-78604230D02*
X81618056Y-78523277D01*
X81618056Y-78523277D02*
X81658532Y-78442325D01*
X81658532Y-78442325D02*
X81699009Y-78401849D01*
X81699009Y-78401849D02*
X81779961Y-78361373D01*
X81779961Y-78361373D02*
X81982342Y-78361373D01*
X81982342Y-78361373D02*
X82103771Y-78401849D01*
X82346628Y-78361373D02*
X82832342Y-78361373D01*
X82589485Y-79211373D02*
X82589485Y-78361373D01*
X80687104Y-80841373D02*
X80970437Y-81691373D01*
X80970437Y-81691373D02*
X81253771Y-80841373D01*
X82022818Y-81610420D02*
X81982342Y-81650897D01*
X81982342Y-81650897D02*
X81860913Y-81691373D01*
X81860913Y-81691373D02*
X81779961Y-81691373D01*
X81779961Y-81691373D02*
X81658532Y-81650897D01*
X81658532Y-81650897D02*
X81577580Y-81569944D01*
X81577580Y-81569944D02*
X81537103Y-81488992D01*
X81537103Y-81488992D02*
X81496627Y-81327087D01*
X81496627Y-81327087D02*
X81496627Y-81205658D01*
X81496627Y-81205658D02*
X81537103Y-81043754D01*
X81537103Y-81043754D02*
X81577580Y-80962801D01*
X81577580Y-80962801D02*
X81658532Y-80881849D01*
X81658532Y-80881849D02*
X81779961Y-80841373D01*
X81779961Y-80841373D02*
X81860913Y-80841373D01*
X81860913Y-80841373D02*
X81982342Y-80881849D01*
X81982342Y-80881849D02*
X82022818Y-80922325D01*
X82872818Y-81610420D02*
X82832342Y-81650897D01*
X82832342Y-81650897D02*
X82710913Y-81691373D01*
X82710913Y-81691373D02*
X82629961Y-81691373D01*
X82629961Y-81691373D02*
X82508532Y-81650897D01*
X82508532Y-81650897D02*
X82427580Y-81569944D01*
X82427580Y-81569944D02*
X82387103Y-81488992D01*
X82387103Y-81488992D02*
X82346627Y-81327087D01*
X82346627Y-81327087D02*
X82346627Y-81205658D01*
X82346627Y-81205658D02*
X82387103Y-81043754D01*
X82387103Y-81043754D02*
X82427580Y-80962801D01*
X82427580Y-80962801D02*
X82508532Y-80881849D01*
X82508532Y-80881849D02*
X82629961Y-80841373D01*
X82629961Y-80841373D02*
X82710913Y-80841373D01*
X82710913Y-80841373D02*
X82832342Y-80881849D01*
X82832342Y-80881849D02*
X82872818Y-80922325D01*
X80737104Y-73101373D02*
X81222818Y-73101373D01*
X80979961Y-73951373D02*
X80979961Y-73101373D01*
X81425199Y-73101373D02*
X81991866Y-73951373D01*
X81991866Y-73101373D02*
X81425199Y-73951373D01*
X82315675Y-73951373D02*
X82315675Y-73101373D01*
X82315675Y-73101373D02*
X82518056Y-73101373D01*
X82518056Y-73101373D02*
X82639485Y-73141849D01*
X82639485Y-73141849D02*
X82720437Y-73222801D01*
X82720437Y-73222801D02*
X82760914Y-73303754D01*
X82760914Y-73303754D02*
X82801390Y-73465658D01*
X82801390Y-73465658D02*
X82801390Y-73587087D01*
X82801390Y-73587087D02*
X82760914Y-73748992D01*
X82760914Y-73748992D02*
X82720437Y-73829944D01*
X82720437Y-73829944D02*
X82639485Y-73910897D01*
X82639485Y-73910897D02*
X82518056Y-73951373D01*
X82518056Y-73951373D02*
X82315675Y-73951373D01*
X81344247Y-76581373D02*
X81060913Y-76176611D01*
X80858532Y-76581373D02*
X80858532Y-75731373D01*
X80858532Y-75731373D02*
X81182342Y-75731373D01*
X81182342Y-75731373D02*
X81263294Y-75771849D01*
X81263294Y-75771849D02*
X81303771Y-75812325D01*
X81303771Y-75812325D02*
X81344247Y-75893277D01*
X81344247Y-75893277D02*
X81344247Y-76014706D01*
X81344247Y-76014706D02*
X81303771Y-76095658D01*
X81303771Y-76095658D02*
X81263294Y-76136135D01*
X81263294Y-76136135D02*
X81182342Y-76176611D01*
X81182342Y-76176611D02*
X80858532Y-76176611D01*
X81627580Y-75731373D02*
X82194247Y-76581373D01*
X82194247Y-75731373D02*
X81627580Y-76581373D01*
X82518056Y-76581373D02*
X82518056Y-75731373D01*
X82518056Y-75731373D02*
X82720437Y-75731373D01*
X82720437Y-75731373D02*
X82841866Y-75771849D01*
X82841866Y-75771849D02*
X82922818Y-75852801D01*
X82922818Y-75852801D02*
X82963295Y-75933754D01*
X82963295Y-75933754D02*
X83003771Y-76095658D01*
X83003771Y-76095658D02*
X83003771Y-76217087D01*
X83003771Y-76217087D02*
X82963295Y-76378992D01*
X82963295Y-76378992D02*
X82922818Y-76459944D01*
X82922818Y-76459944D02*
X82841866Y-76540897D01*
X82841866Y-76540897D02*
X82720437Y-76581373D01*
X82720437Y-76581373D02*
X82518056Y-76581373D01*
X81353771Y-70761849D02*
X81272818Y-70721373D01*
X81272818Y-70721373D02*
X81151390Y-70721373D01*
X81151390Y-70721373D02*
X81029961Y-70761849D01*
X81029961Y-70761849D02*
X80949009Y-70842801D01*
X80949009Y-70842801D02*
X80908532Y-70923754D01*
X80908532Y-70923754D02*
X80868056Y-71085658D01*
X80868056Y-71085658D02*
X80868056Y-71207087D01*
X80868056Y-71207087D02*
X80908532Y-71368992D01*
X80908532Y-71368992D02*
X80949009Y-71449944D01*
X80949009Y-71449944D02*
X81029961Y-71530897D01*
X81029961Y-71530897D02*
X81151390Y-71571373D01*
X81151390Y-71571373D02*
X81232342Y-71571373D01*
X81232342Y-71571373D02*
X81353771Y-71530897D01*
X81353771Y-71530897D02*
X81394247Y-71490420D01*
X81394247Y-71490420D02*
X81394247Y-71207087D01*
X81394247Y-71207087D02*
X81232342Y-71207087D01*
X81758532Y-71571373D02*
X81758532Y-70721373D01*
X81758532Y-70721373D02*
X82244247Y-71571373D01*
X82244247Y-71571373D02*
X82244247Y-70721373D01*
X82649008Y-71571373D02*
X82649008Y-70721373D01*
X82649008Y-70721373D02*
X82851389Y-70721373D01*
X82851389Y-70721373D02*
X82972818Y-70761849D01*
X82972818Y-70761849D02*
X83053770Y-70842801D01*
X83053770Y-70842801D02*
X83094247Y-70923754D01*
X83094247Y-70923754D02*
X83134723Y-71085658D01*
X83134723Y-71085658D02*
X83134723Y-71207087D01*
X83134723Y-71207087D02*
X83094247Y-71368992D01*
X83094247Y-71368992D02*
X83053770Y-71449944D01*
X83053770Y-71449944D02*
X82972818Y-71530897D01*
X82972818Y-71530897D02*
X82851389Y-71571373D01*
X82851389Y-71571373D02*
X82649008Y-71571373D01*
X96918056Y-69032897D02*
X97039485Y-69073373D01*
X97039485Y-69073373D02*
X97241866Y-69073373D01*
X97241866Y-69073373D02*
X97322818Y-69032897D01*
X97322818Y-69032897D02*
X97363294Y-68992420D01*
X97363294Y-68992420D02*
X97403771Y-68911468D01*
X97403771Y-68911468D02*
X97403771Y-68830516D01*
X97403771Y-68830516D02*
X97363294Y-68749563D01*
X97363294Y-68749563D02*
X97322818Y-68709087D01*
X97322818Y-68709087D02*
X97241866Y-68668611D01*
X97241866Y-68668611D02*
X97079961Y-68628135D01*
X97079961Y-68628135D02*
X96999009Y-68587658D01*
X96999009Y-68587658D02*
X96958532Y-68547182D01*
X96958532Y-68547182D02*
X96918056Y-68466230D01*
X96918056Y-68466230D02*
X96918056Y-68385277D01*
X96918056Y-68385277D02*
X96958532Y-68304325D01*
X96958532Y-68304325D02*
X96999009Y-68263849D01*
X96999009Y-68263849D02*
X97079961Y-68223373D01*
X97079961Y-68223373D02*
X97282342Y-68223373D01*
X97282342Y-68223373D02*
X97403771Y-68263849D01*
X97768056Y-69073373D02*
X97768056Y-68223373D01*
X97768056Y-68223373D02*
X98091866Y-68223373D01*
X98091866Y-68223373D02*
X98172818Y-68263849D01*
X98172818Y-68263849D02*
X98213295Y-68304325D01*
X98213295Y-68304325D02*
X98253771Y-68385277D01*
X98253771Y-68385277D02*
X98253771Y-68506706D01*
X98253771Y-68506706D02*
X98213295Y-68587658D01*
X98213295Y-68587658D02*
X98172818Y-68628135D01*
X98172818Y-68628135D02*
X98091866Y-68668611D01*
X98091866Y-68668611D02*
X97768056Y-68668611D01*
X98618056Y-69073373D02*
X98618056Y-68223373D01*
X99103771Y-69073373D02*
X98739485Y-68587658D01*
X99103771Y-68223373D02*
X98618056Y-68709087D01*
X99468056Y-69073373D02*
X99468056Y-68223373D01*
X99468056Y-68223373D02*
X99953771Y-69073373D01*
X99953771Y-69073373D02*
X99953771Y-68223373D01*
X96968056Y-71432897D02*
X97089485Y-71473373D01*
X97089485Y-71473373D02*
X97291866Y-71473373D01*
X97291866Y-71473373D02*
X97372818Y-71432897D01*
X97372818Y-71432897D02*
X97413294Y-71392420D01*
X97413294Y-71392420D02*
X97453771Y-71311468D01*
X97453771Y-71311468D02*
X97453771Y-71230516D01*
X97453771Y-71230516D02*
X97413294Y-71149563D01*
X97413294Y-71149563D02*
X97372818Y-71109087D01*
X97372818Y-71109087D02*
X97291866Y-71068611D01*
X97291866Y-71068611D02*
X97129961Y-71028135D01*
X97129961Y-71028135D02*
X97049009Y-70987658D01*
X97049009Y-70987658D02*
X97008532Y-70947182D01*
X97008532Y-70947182D02*
X96968056Y-70866230D01*
X96968056Y-70866230D02*
X96968056Y-70785277D01*
X96968056Y-70785277D02*
X97008532Y-70704325D01*
X97008532Y-70704325D02*
X97049009Y-70663849D01*
X97049009Y-70663849D02*
X97129961Y-70623373D01*
X97129961Y-70623373D02*
X97332342Y-70623373D01*
X97332342Y-70623373D02*
X97453771Y-70663849D01*
X97818056Y-71473373D02*
X97818056Y-70623373D01*
X97818056Y-70623373D02*
X98141866Y-70623373D01*
X98141866Y-70623373D02*
X98222818Y-70663849D01*
X98222818Y-70663849D02*
X98263295Y-70704325D01*
X98263295Y-70704325D02*
X98303771Y-70785277D01*
X98303771Y-70785277D02*
X98303771Y-70906706D01*
X98303771Y-70906706D02*
X98263295Y-70987658D01*
X98263295Y-70987658D02*
X98222818Y-71028135D01*
X98222818Y-71028135D02*
X98141866Y-71068611D01*
X98141866Y-71068611D02*
X97818056Y-71068611D01*
X98668056Y-71473373D02*
X98668056Y-70623373D01*
X99153771Y-71473373D02*
X98789485Y-70987658D01*
X99153771Y-70623373D02*
X98668056Y-71109087D01*
X99518056Y-71473373D02*
X99518056Y-70623373D01*
X99518056Y-70623373D02*
X99841866Y-70623373D01*
X99841866Y-70623373D02*
X99922818Y-70663849D01*
X99922818Y-70663849D02*
X99963295Y-70704325D01*
X99963295Y-70704325D02*
X100003771Y-70785277D01*
X100003771Y-70785277D02*
X100003771Y-70906706D01*
X100003771Y-70906706D02*
X99963295Y-70987658D01*
X99963295Y-70987658D02*
X99922818Y-71028135D01*
X99922818Y-71028135D02*
X99841866Y-71068611D01*
X99841866Y-71068611D02*
X99518056Y-71068611D01*
X97008532Y-73973373D02*
X97008532Y-73123373D01*
X97008532Y-73123373D02*
X97291866Y-73730516D01*
X97291866Y-73730516D02*
X97575199Y-73123373D01*
X97575199Y-73123373D02*
X97575199Y-73973373D01*
X97979961Y-73973373D02*
X97979961Y-73123373D01*
X98870438Y-73892420D02*
X98829962Y-73932897D01*
X98829962Y-73932897D02*
X98708533Y-73973373D01*
X98708533Y-73973373D02*
X98627581Y-73973373D01*
X98627581Y-73973373D02*
X98506152Y-73932897D01*
X98506152Y-73932897D02*
X98425200Y-73851944D01*
X98425200Y-73851944D02*
X98384723Y-73770992D01*
X98384723Y-73770992D02*
X98344247Y-73609087D01*
X98344247Y-73609087D02*
X98344247Y-73487658D01*
X98344247Y-73487658D02*
X98384723Y-73325754D01*
X98384723Y-73325754D02*
X98425200Y-73244801D01*
X98425200Y-73244801D02*
X98506152Y-73163849D01*
X98506152Y-73163849D02*
X98627581Y-73123373D01*
X98627581Y-73123373D02*
X98708533Y-73123373D01*
X98708533Y-73123373D02*
X98829962Y-73163849D01*
X98829962Y-73163849D02*
X98870438Y-73204325D01*
X99234723Y-73973373D02*
X99234723Y-73123373D01*
X99234723Y-73123373D02*
X99720438Y-73973373D01*
X99720438Y-73973373D02*
X99720438Y-73123373D01*
X97058532Y-76623373D02*
X97058532Y-75773373D01*
X97058532Y-75773373D02*
X97341866Y-76380516D01*
X97341866Y-76380516D02*
X97625199Y-75773373D01*
X97625199Y-75773373D02*
X97625199Y-76623373D01*
X98029961Y-76623373D02*
X98029961Y-75773373D01*
X98920438Y-76542420D02*
X98879962Y-76582897D01*
X98879962Y-76582897D02*
X98758533Y-76623373D01*
X98758533Y-76623373D02*
X98677581Y-76623373D01*
X98677581Y-76623373D02*
X98556152Y-76582897D01*
X98556152Y-76582897D02*
X98475200Y-76501944D01*
X98475200Y-76501944D02*
X98434723Y-76420992D01*
X98434723Y-76420992D02*
X98394247Y-76259087D01*
X98394247Y-76259087D02*
X98394247Y-76137658D01*
X98394247Y-76137658D02*
X98434723Y-75975754D01*
X98434723Y-75975754D02*
X98475200Y-75894801D01*
X98475200Y-75894801D02*
X98556152Y-75813849D01*
X98556152Y-75813849D02*
X98677581Y-75773373D01*
X98677581Y-75773373D02*
X98758533Y-75773373D01*
X98758533Y-75773373D02*
X98879962Y-75813849D01*
X98879962Y-75813849D02*
X98920438Y-75854325D01*
X99284723Y-76623373D02*
X99284723Y-75773373D01*
X99284723Y-75773373D02*
X99608533Y-75773373D01*
X99608533Y-75773373D02*
X99689485Y-75813849D01*
X99689485Y-75813849D02*
X99729962Y-75854325D01*
X99729962Y-75854325D02*
X99770438Y-75935277D01*
X99770438Y-75935277D02*
X99770438Y-76056706D01*
X99770438Y-76056706D02*
X99729962Y-76137658D01*
X99729962Y-76137658D02*
X99689485Y-76178135D01*
X99689485Y-76178135D02*
X99608533Y-76218611D01*
X99608533Y-76218611D02*
X99284723Y-76218611D01*
X97208532Y-79173373D02*
X97208532Y-78323373D01*
X97208532Y-78323373D02*
X97410913Y-78323373D01*
X97410913Y-78323373D02*
X97532342Y-78363849D01*
X97532342Y-78363849D02*
X97613294Y-78444801D01*
X97613294Y-78444801D02*
X97653771Y-78525754D01*
X97653771Y-78525754D02*
X97694247Y-78687658D01*
X97694247Y-78687658D02*
X97694247Y-78809087D01*
X97694247Y-78809087D02*
X97653771Y-78970992D01*
X97653771Y-78970992D02*
X97613294Y-79051944D01*
X97613294Y-79051944D02*
X97532342Y-79132897D01*
X97532342Y-79132897D02*
X97410913Y-79173373D01*
X97410913Y-79173373D02*
X97208532Y-79173373D01*
X97937104Y-78323373D02*
X98422818Y-78323373D01*
X98179961Y-79173373D02*
X98179961Y-78323373D01*
X99191866Y-79173373D02*
X98908532Y-78768611D01*
X98706151Y-79173373D02*
X98706151Y-78323373D01*
X98706151Y-78323373D02*
X99029961Y-78323373D01*
X99029961Y-78323373D02*
X99110913Y-78363849D01*
X99110913Y-78363849D02*
X99151390Y-78404325D01*
X99151390Y-78404325D02*
X99191866Y-78485277D01*
X99191866Y-78485277D02*
X99191866Y-78606706D01*
X99191866Y-78606706D02*
X99151390Y-78687658D01*
X99151390Y-78687658D02*
X99110913Y-78728135D01*
X99110913Y-78728135D02*
X99029961Y-78768611D01*
X99029961Y-78768611D02*
X98706151Y-78768611D01*
X97694247Y-81723373D02*
X97410913Y-81318611D01*
X97208532Y-81723373D02*
X97208532Y-80873373D01*
X97208532Y-80873373D02*
X97532342Y-80873373D01*
X97532342Y-80873373D02*
X97613294Y-80913849D01*
X97613294Y-80913849D02*
X97653771Y-80954325D01*
X97653771Y-80954325D02*
X97694247Y-81035277D01*
X97694247Y-81035277D02*
X97694247Y-81156706D01*
X97694247Y-81156706D02*
X97653771Y-81237658D01*
X97653771Y-81237658D02*
X97613294Y-81278135D01*
X97613294Y-81278135D02*
X97532342Y-81318611D01*
X97532342Y-81318611D02*
X97208532Y-81318611D01*
X98058532Y-81723373D02*
X98058532Y-80873373D01*
D11*
X55508095Y-40134819D02*
X55508095Y-40944342D01*
X55508095Y-40944342D02*
X55555714Y-41039580D01*
X55555714Y-41039580D02*
X55603333Y-41087200D01*
X55603333Y-41087200D02*
X55698571Y-41134819D01*
X55698571Y-41134819D02*
X55889047Y-41134819D01*
X55889047Y-41134819D02*
X55984285Y-41087200D01*
X55984285Y-41087200D02*
X56031904Y-41039580D01*
X56031904Y-41039580D02*
X56079523Y-40944342D01*
X56079523Y-40944342D02*
X56079523Y-40134819D01*
X56508095Y-40230057D02*
X56555714Y-40182438D01*
X56555714Y-40182438D02*
X56650952Y-40134819D01*
X56650952Y-40134819D02*
X56889047Y-40134819D01*
X56889047Y-40134819D02*
X56984285Y-40182438D01*
X56984285Y-40182438D02*
X57031904Y-40230057D01*
X57031904Y-40230057D02*
X57079523Y-40325295D01*
X57079523Y-40325295D02*
X57079523Y-40420533D01*
X57079523Y-40420533D02*
X57031904Y-40563390D01*
X57031904Y-40563390D02*
X56460476Y-41134819D01*
X56460476Y-41134819D02*
X57079523Y-41134819D01*
X57476667Y-42674819D02*
X57810000Y-43674819D01*
X57810000Y-43674819D02*
X58143333Y-42674819D01*
X59048095Y-43579580D02*
X59000476Y-43627200D01*
X59000476Y-43627200D02*
X58857619Y-43674819D01*
X58857619Y-43674819D02*
X58762381Y-43674819D01*
X58762381Y-43674819D02*
X58619524Y-43627200D01*
X58619524Y-43627200D02*
X58524286Y-43531961D01*
X58524286Y-43531961D02*
X58476667Y-43436723D01*
X58476667Y-43436723D02*
X58429048Y-43246247D01*
X58429048Y-43246247D02*
X58429048Y-43103390D01*
X58429048Y-43103390D02*
X58476667Y-42912914D01*
X58476667Y-42912914D02*
X58524286Y-42817676D01*
X58524286Y-42817676D02*
X58619524Y-42722438D01*
X58619524Y-42722438D02*
X58762381Y-42674819D01*
X58762381Y-42674819D02*
X58857619Y-42674819D01*
X58857619Y-42674819D02*
X59000476Y-42722438D01*
X59000476Y-42722438D02*
X59048095Y-42770057D01*
X60048095Y-43579580D02*
X60000476Y-43627200D01*
X60000476Y-43627200D02*
X59857619Y-43674819D01*
X59857619Y-43674819D02*
X59762381Y-43674819D01*
X59762381Y-43674819D02*
X59619524Y-43627200D01*
X59619524Y-43627200D02*
X59524286Y-43531961D01*
X59524286Y-43531961D02*
X59476667Y-43436723D01*
X59476667Y-43436723D02*
X59429048Y-43246247D01*
X59429048Y-43246247D02*
X59429048Y-43103390D01*
X59429048Y-43103390D02*
X59476667Y-42912914D01*
X59476667Y-42912914D02*
X59524286Y-42817676D01*
X59524286Y-42817676D02*
X59619524Y-42722438D01*
X59619524Y-42722438D02*
X59762381Y-42674819D01*
X59762381Y-42674819D02*
X59857619Y-42674819D01*
X59857619Y-42674819D02*
X60000476Y-42722438D01*
X60000476Y-42722438D02*
X60048095Y-42770057D01*
X58048095Y-45262438D02*
X57952857Y-45214819D01*
X57952857Y-45214819D02*
X57810000Y-45214819D01*
X57810000Y-45214819D02*
X57667143Y-45262438D01*
X57667143Y-45262438D02*
X57571905Y-45357676D01*
X57571905Y-45357676D02*
X57524286Y-45452914D01*
X57524286Y-45452914D02*
X57476667Y-45643390D01*
X57476667Y-45643390D02*
X57476667Y-45786247D01*
X57476667Y-45786247D02*
X57524286Y-45976723D01*
X57524286Y-45976723D02*
X57571905Y-46071961D01*
X57571905Y-46071961D02*
X57667143Y-46167200D01*
X57667143Y-46167200D02*
X57810000Y-46214819D01*
X57810000Y-46214819D02*
X57905238Y-46214819D01*
X57905238Y-46214819D02*
X58048095Y-46167200D01*
X58048095Y-46167200D02*
X58095714Y-46119580D01*
X58095714Y-46119580D02*
X58095714Y-45786247D01*
X58095714Y-45786247D02*
X57905238Y-45786247D01*
X58524286Y-46214819D02*
X58524286Y-45214819D01*
X58524286Y-45214819D02*
X59095714Y-46214819D01*
X59095714Y-46214819D02*
X59095714Y-45214819D01*
X59571905Y-46214819D02*
X59571905Y-45214819D01*
X59571905Y-45214819D02*
X59810000Y-45214819D01*
X59810000Y-45214819D02*
X59952857Y-45262438D01*
X59952857Y-45262438D02*
X60048095Y-45357676D01*
X60048095Y-45357676D02*
X60095714Y-45452914D01*
X60095714Y-45452914D02*
X60143333Y-45643390D01*
X60143333Y-45643390D02*
X60143333Y-45786247D01*
X60143333Y-45786247D02*
X60095714Y-45976723D01*
X60095714Y-45976723D02*
X60048095Y-46071961D01*
X60048095Y-46071961D02*
X59952857Y-46167200D01*
X59952857Y-46167200D02*
X59810000Y-46214819D01*
X59810000Y-46214819D02*
X59571905Y-46214819D01*
X57619524Y-48707200D02*
X57762381Y-48754819D01*
X57762381Y-48754819D02*
X58000476Y-48754819D01*
X58000476Y-48754819D02*
X58095714Y-48707200D01*
X58095714Y-48707200D02*
X58143333Y-48659580D01*
X58143333Y-48659580D02*
X58190952Y-48564342D01*
X58190952Y-48564342D02*
X58190952Y-48469104D01*
X58190952Y-48469104D02*
X58143333Y-48373866D01*
X58143333Y-48373866D02*
X58095714Y-48326247D01*
X58095714Y-48326247D02*
X58000476Y-48278628D01*
X58000476Y-48278628D02*
X57810000Y-48231009D01*
X57810000Y-48231009D02*
X57714762Y-48183390D01*
X57714762Y-48183390D02*
X57667143Y-48135771D01*
X57667143Y-48135771D02*
X57619524Y-48040533D01*
X57619524Y-48040533D02*
X57619524Y-47945295D01*
X57619524Y-47945295D02*
X57667143Y-47850057D01*
X57667143Y-47850057D02*
X57714762Y-47802438D01*
X57714762Y-47802438D02*
X57810000Y-47754819D01*
X57810000Y-47754819D02*
X58048095Y-47754819D01*
X58048095Y-47754819D02*
X58190952Y-47802438D01*
X59190952Y-48659580D02*
X59143333Y-48707200D01*
X59143333Y-48707200D02*
X59000476Y-48754819D01*
X59000476Y-48754819D02*
X58905238Y-48754819D01*
X58905238Y-48754819D02*
X58762381Y-48707200D01*
X58762381Y-48707200D02*
X58667143Y-48611961D01*
X58667143Y-48611961D02*
X58619524Y-48516723D01*
X58619524Y-48516723D02*
X58571905Y-48326247D01*
X58571905Y-48326247D02*
X58571905Y-48183390D01*
X58571905Y-48183390D02*
X58619524Y-47992914D01*
X58619524Y-47992914D02*
X58667143Y-47897676D01*
X58667143Y-47897676D02*
X58762381Y-47802438D01*
X58762381Y-47802438D02*
X58905238Y-47754819D01*
X58905238Y-47754819D02*
X59000476Y-47754819D01*
X59000476Y-47754819D02*
X59143333Y-47802438D01*
X59143333Y-47802438D02*
X59190952Y-47850057D01*
X60095714Y-48754819D02*
X59619524Y-48754819D01*
X59619524Y-48754819D02*
X59619524Y-47754819D01*
X57595714Y-51247200D02*
X57738571Y-51294819D01*
X57738571Y-51294819D02*
X57976666Y-51294819D01*
X57976666Y-51294819D02*
X58071904Y-51247200D01*
X58071904Y-51247200D02*
X58119523Y-51199580D01*
X58119523Y-51199580D02*
X58167142Y-51104342D01*
X58167142Y-51104342D02*
X58167142Y-51009104D01*
X58167142Y-51009104D02*
X58119523Y-50913866D01*
X58119523Y-50913866D02*
X58071904Y-50866247D01*
X58071904Y-50866247D02*
X57976666Y-50818628D01*
X57976666Y-50818628D02*
X57786190Y-50771009D01*
X57786190Y-50771009D02*
X57690952Y-50723390D01*
X57690952Y-50723390D02*
X57643333Y-50675771D01*
X57643333Y-50675771D02*
X57595714Y-50580533D01*
X57595714Y-50580533D02*
X57595714Y-50485295D01*
X57595714Y-50485295D02*
X57643333Y-50390057D01*
X57643333Y-50390057D02*
X57690952Y-50342438D01*
X57690952Y-50342438D02*
X57786190Y-50294819D01*
X57786190Y-50294819D02*
X58024285Y-50294819D01*
X58024285Y-50294819D02*
X58167142Y-50342438D01*
X58595714Y-51294819D02*
X58595714Y-50294819D01*
X58595714Y-50294819D02*
X58833809Y-50294819D01*
X58833809Y-50294819D02*
X58976666Y-50342438D01*
X58976666Y-50342438D02*
X59071904Y-50437676D01*
X59071904Y-50437676D02*
X59119523Y-50532914D01*
X59119523Y-50532914D02*
X59167142Y-50723390D01*
X59167142Y-50723390D02*
X59167142Y-50866247D01*
X59167142Y-50866247D02*
X59119523Y-51056723D01*
X59119523Y-51056723D02*
X59071904Y-51151961D01*
X59071904Y-51151961D02*
X58976666Y-51247200D01*
X58976666Y-51247200D02*
X58833809Y-51294819D01*
X58833809Y-51294819D02*
X58595714Y-51294819D01*
X59548095Y-51009104D02*
X60024285Y-51009104D01*
X59452857Y-51294819D02*
X59786190Y-50294819D01*
X59786190Y-50294819D02*
X60119523Y-51294819D01*
X57548095Y-52834819D02*
X58214761Y-53834819D01*
X58214761Y-52834819D02*
X57548095Y-53834819D01*
X58595714Y-53834819D02*
X58595714Y-52834819D01*
X58595714Y-52834819D02*
X58833809Y-52834819D01*
X58833809Y-52834819D02*
X58976666Y-52882438D01*
X58976666Y-52882438D02*
X59071904Y-52977676D01*
X59071904Y-52977676D02*
X59119523Y-53072914D01*
X59119523Y-53072914D02*
X59167142Y-53263390D01*
X59167142Y-53263390D02*
X59167142Y-53406247D01*
X59167142Y-53406247D02*
X59119523Y-53596723D01*
X59119523Y-53596723D02*
X59071904Y-53691961D01*
X59071904Y-53691961D02*
X58976666Y-53787200D01*
X58976666Y-53787200D02*
X58833809Y-53834819D01*
X58833809Y-53834819D02*
X58595714Y-53834819D01*
X59548095Y-53549104D02*
X60024285Y-53549104D01*
X59452857Y-53834819D02*
X59786190Y-52834819D01*
X59786190Y-52834819D02*
X60119523Y-53834819D01*
X57571905Y-55374819D02*
X58238571Y-56374819D01*
X58238571Y-55374819D02*
X57571905Y-56374819D01*
X59190952Y-56279580D02*
X59143333Y-56327200D01*
X59143333Y-56327200D02*
X59000476Y-56374819D01*
X59000476Y-56374819D02*
X58905238Y-56374819D01*
X58905238Y-56374819D02*
X58762381Y-56327200D01*
X58762381Y-56327200D02*
X58667143Y-56231961D01*
X58667143Y-56231961D02*
X58619524Y-56136723D01*
X58619524Y-56136723D02*
X58571905Y-55946247D01*
X58571905Y-55946247D02*
X58571905Y-55803390D01*
X58571905Y-55803390D02*
X58619524Y-55612914D01*
X58619524Y-55612914D02*
X58667143Y-55517676D01*
X58667143Y-55517676D02*
X58762381Y-55422438D01*
X58762381Y-55422438D02*
X58905238Y-55374819D01*
X58905238Y-55374819D02*
X59000476Y-55374819D01*
X59000476Y-55374819D02*
X59143333Y-55422438D01*
X59143333Y-55422438D02*
X59190952Y-55470057D01*
X60095714Y-56374819D02*
X59619524Y-56374819D01*
X59619524Y-56374819D02*
X59619524Y-55374819D01*
X57571905Y-58629104D02*
X58048095Y-58629104D01*
X57476667Y-58914819D02*
X57810000Y-57914819D01*
X57810000Y-57914819D02*
X58143333Y-58914819D01*
X58476667Y-58914819D02*
X58476667Y-57914819D01*
X58476667Y-57914819D02*
X58714762Y-57914819D01*
X58714762Y-57914819D02*
X58857619Y-57962438D01*
X58857619Y-57962438D02*
X58952857Y-58057676D01*
X58952857Y-58057676D02*
X59000476Y-58152914D01*
X59000476Y-58152914D02*
X59048095Y-58343390D01*
X59048095Y-58343390D02*
X59048095Y-58486247D01*
X59048095Y-58486247D02*
X59000476Y-58676723D01*
X59000476Y-58676723D02*
X58952857Y-58771961D01*
X58952857Y-58771961D02*
X58857619Y-58867200D01*
X58857619Y-58867200D02*
X58714762Y-58914819D01*
X58714762Y-58914819D02*
X58476667Y-58914819D01*
X59476667Y-58914819D02*
X59476667Y-57914819D01*
X59476667Y-57914819D02*
X59714762Y-57914819D01*
X59714762Y-57914819D02*
X59857619Y-57962438D01*
X59857619Y-57962438D02*
X59952857Y-58057676D01*
X59952857Y-58057676D02*
X60000476Y-58152914D01*
X60000476Y-58152914D02*
X60048095Y-58343390D01*
X60048095Y-58343390D02*
X60048095Y-58486247D01*
X60048095Y-58486247D02*
X60000476Y-58676723D01*
X60000476Y-58676723D02*
X59952857Y-58771961D01*
X59952857Y-58771961D02*
X59857619Y-58867200D01*
X59857619Y-58867200D02*
X59714762Y-58914819D01*
X59714762Y-58914819D02*
X59476667Y-58914819D01*
X57905238Y-61454819D02*
X57905238Y-60454819D01*
X58381428Y-61454819D02*
X58381428Y-60454819D01*
X58381428Y-60454819D02*
X58952856Y-61454819D01*
X58952856Y-61454819D02*
X58952856Y-60454819D01*
X59286190Y-60454819D02*
X59857618Y-60454819D01*
X59571904Y-61454819D02*
X59571904Y-60454819D01*
X69366666Y-82874819D02*
X69366666Y-83589104D01*
X69366666Y-83589104D02*
X69319047Y-83731961D01*
X69319047Y-83731961D02*
X69223809Y-83827200D01*
X69223809Y-83827200D02*
X69080952Y-83874819D01*
X69080952Y-83874819D02*
X68985714Y-83874819D01*
X69795238Y-82970057D02*
X69842857Y-82922438D01*
X69842857Y-82922438D02*
X69938095Y-82874819D01*
X69938095Y-82874819D02*
X70176190Y-82874819D01*
X70176190Y-82874819D02*
X70271428Y-82922438D01*
X70271428Y-82922438D02*
X70319047Y-82970057D01*
X70319047Y-82970057D02*
X70366666Y-83065295D01*
X70366666Y-83065295D02*
X70366666Y-83160533D01*
X70366666Y-83160533D02*
X70319047Y-83303390D01*
X70319047Y-83303390D02*
X69747619Y-83874819D01*
X69747619Y-83874819D02*
X70366666Y-83874819D01*
X68333333Y-68109580D02*
X68285714Y-68157200D01*
X68285714Y-68157200D02*
X68142857Y-68204819D01*
X68142857Y-68204819D02*
X68047619Y-68204819D01*
X68047619Y-68204819D02*
X67904762Y-68157200D01*
X67904762Y-68157200D02*
X67809524Y-68061961D01*
X67809524Y-68061961D02*
X67761905Y-67966723D01*
X67761905Y-67966723D02*
X67714286Y-67776247D01*
X67714286Y-67776247D02*
X67714286Y-67633390D01*
X67714286Y-67633390D02*
X67761905Y-67442914D01*
X67761905Y-67442914D02*
X67809524Y-67347676D01*
X67809524Y-67347676D02*
X67904762Y-67252438D01*
X67904762Y-67252438D02*
X68047619Y-67204819D01*
X68047619Y-67204819D02*
X68142857Y-67204819D01*
X68142857Y-67204819D02*
X68285714Y-67252438D01*
X68285714Y-67252438D02*
X68333333Y-67300057D01*
X69285714Y-68204819D02*
X68714286Y-68204819D01*
X69000000Y-68204819D02*
X69000000Y-67204819D01*
X69000000Y-67204819D02*
X68904762Y-67347676D01*
X68904762Y-67347676D02*
X68809524Y-67442914D01*
X68809524Y-67442914D02*
X68714286Y-67490533D01*
X56583333Y-22109580D02*
X56535714Y-22157200D01*
X56535714Y-22157200D02*
X56392857Y-22204819D01*
X56392857Y-22204819D02*
X56297619Y-22204819D01*
X56297619Y-22204819D02*
X56154762Y-22157200D01*
X56154762Y-22157200D02*
X56059524Y-22061961D01*
X56059524Y-22061961D02*
X56011905Y-21966723D01*
X56011905Y-21966723D02*
X55964286Y-21776247D01*
X55964286Y-21776247D02*
X55964286Y-21633390D01*
X55964286Y-21633390D02*
X56011905Y-21442914D01*
X56011905Y-21442914D02*
X56059524Y-21347676D01*
X56059524Y-21347676D02*
X56154762Y-21252438D01*
X56154762Y-21252438D02*
X56297619Y-21204819D01*
X56297619Y-21204819D02*
X56392857Y-21204819D01*
X56392857Y-21204819D02*
X56535714Y-21252438D01*
X56535714Y-21252438D02*
X56583333Y-21300057D01*
X56916667Y-21204819D02*
X57535714Y-21204819D01*
X57535714Y-21204819D02*
X57202381Y-21585771D01*
X57202381Y-21585771D02*
X57345238Y-21585771D01*
X57345238Y-21585771D02*
X57440476Y-21633390D01*
X57440476Y-21633390D02*
X57488095Y-21681009D01*
X57488095Y-21681009D02*
X57535714Y-21776247D01*
X57535714Y-21776247D02*
X57535714Y-22014342D01*
X57535714Y-22014342D02*
X57488095Y-22109580D01*
X57488095Y-22109580D02*
X57440476Y-22157200D01*
X57440476Y-22157200D02*
X57345238Y-22204819D01*
X57345238Y-22204819D02*
X57059524Y-22204819D01*
X57059524Y-22204819D02*
X56964286Y-22157200D01*
X56964286Y-22157200D02*
X56916667Y-22109580D01*
X34938095Y-31354819D02*
X34938095Y-32164342D01*
X34938095Y-32164342D02*
X34985714Y-32259580D01*
X34985714Y-32259580D02*
X35033333Y-32307200D01*
X35033333Y-32307200D02*
X35128571Y-32354819D01*
X35128571Y-32354819D02*
X35319047Y-32354819D01*
X35319047Y-32354819D02*
X35414285Y-32307200D01*
X35414285Y-32307200D02*
X35461904Y-32259580D01*
X35461904Y-32259580D02*
X35509523Y-32164342D01*
X35509523Y-32164342D02*
X35509523Y-31354819D01*
X36509523Y-32354819D02*
X35938095Y-32354819D01*
X36223809Y-32354819D02*
X36223809Y-31354819D01*
X36223809Y-31354819D02*
X36128571Y-31497676D01*
X36128571Y-31497676D02*
X36033333Y-31592914D01*
X36033333Y-31592914D02*
X35938095Y-31640533D01*
X35631009Y-66820475D02*
X35631009Y-66487142D01*
X36154819Y-66344285D02*
X36154819Y-66820475D01*
X36154819Y-66820475D02*
X35154819Y-66820475D01*
X35154819Y-66820475D02*
X35154819Y-66344285D01*
X36107200Y-65963332D02*
X36154819Y-65820475D01*
X36154819Y-65820475D02*
X36154819Y-65582380D01*
X36154819Y-65582380D02*
X36107200Y-65487142D01*
X36107200Y-65487142D02*
X36059580Y-65439523D01*
X36059580Y-65439523D02*
X35964342Y-65391904D01*
X35964342Y-65391904D02*
X35869104Y-65391904D01*
X35869104Y-65391904D02*
X35773866Y-65439523D01*
X35773866Y-65439523D02*
X35726247Y-65487142D01*
X35726247Y-65487142D02*
X35678628Y-65582380D01*
X35678628Y-65582380D02*
X35631009Y-65772856D01*
X35631009Y-65772856D02*
X35583390Y-65868094D01*
X35583390Y-65868094D02*
X35535771Y-65915713D01*
X35535771Y-65915713D02*
X35440533Y-65963332D01*
X35440533Y-65963332D02*
X35345295Y-65963332D01*
X35345295Y-65963332D02*
X35250057Y-65915713D01*
X35250057Y-65915713D02*
X35202438Y-65868094D01*
X35202438Y-65868094D02*
X35154819Y-65772856D01*
X35154819Y-65772856D02*
X35154819Y-65534761D01*
X35154819Y-65534761D02*
X35202438Y-65391904D01*
X36154819Y-64963332D02*
X35154819Y-64963332D01*
X35154819Y-64963332D02*
X35154819Y-64582380D01*
X35154819Y-64582380D02*
X35202438Y-64487142D01*
X35202438Y-64487142D02*
X35250057Y-64439523D01*
X35250057Y-64439523D02*
X35345295Y-64391904D01*
X35345295Y-64391904D02*
X35488152Y-64391904D01*
X35488152Y-64391904D02*
X35583390Y-64439523D01*
X35583390Y-64439523D02*
X35631009Y-64487142D01*
X35631009Y-64487142D02*
X35678628Y-64582380D01*
X35678628Y-64582380D02*
X35678628Y-64963332D01*
X35154819Y-64058570D02*
X35154819Y-63439523D01*
X35154819Y-63439523D02*
X35535771Y-63772856D01*
X35535771Y-63772856D02*
X35535771Y-63629999D01*
X35535771Y-63629999D02*
X35583390Y-63534761D01*
X35583390Y-63534761D02*
X35631009Y-63487142D01*
X35631009Y-63487142D02*
X35726247Y-63439523D01*
X35726247Y-63439523D02*
X35964342Y-63439523D01*
X35964342Y-63439523D02*
X36059580Y-63487142D01*
X36059580Y-63487142D02*
X36107200Y-63534761D01*
X36107200Y-63534761D02*
X36154819Y-63629999D01*
X36154819Y-63629999D02*
X36154819Y-63915713D01*
X36154819Y-63915713D02*
X36107200Y-64010951D01*
X36107200Y-64010951D02*
X36059580Y-64058570D01*
X35250057Y-63058570D02*
X35202438Y-63010951D01*
X35202438Y-63010951D02*
X35154819Y-62915713D01*
X35154819Y-62915713D02*
X35154819Y-62677618D01*
X35154819Y-62677618D02*
X35202438Y-62582380D01*
X35202438Y-62582380D02*
X35250057Y-62534761D01*
X35250057Y-62534761D02*
X35345295Y-62487142D01*
X35345295Y-62487142D02*
X35440533Y-62487142D01*
X35440533Y-62487142D02*
X35583390Y-62534761D01*
X35583390Y-62534761D02*
X36154819Y-63106189D01*
X36154819Y-63106189D02*
X36154819Y-62487142D01*
X35773866Y-62058570D02*
X35773866Y-61296666D01*
X36154819Y-60820475D02*
X35154819Y-60820475D01*
X35154819Y-60820475D02*
X35154819Y-60582380D01*
X35154819Y-60582380D02*
X35202438Y-60439523D01*
X35202438Y-60439523D02*
X35297676Y-60344285D01*
X35297676Y-60344285D02*
X35392914Y-60296666D01*
X35392914Y-60296666D02*
X35583390Y-60249047D01*
X35583390Y-60249047D02*
X35726247Y-60249047D01*
X35726247Y-60249047D02*
X35916723Y-60296666D01*
X35916723Y-60296666D02*
X36011961Y-60344285D01*
X36011961Y-60344285D02*
X36107200Y-60439523D01*
X36107200Y-60439523D02*
X36154819Y-60582380D01*
X36154819Y-60582380D02*
X36154819Y-60820475D01*
X36107200Y-59439523D02*
X36154819Y-59534761D01*
X36154819Y-59534761D02*
X36154819Y-59725237D01*
X36154819Y-59725237D02*
X36107200Y-59820475D01*
X36107200Y-59820475D02*
X36011961Y-59868094D01*
X36011961Y-59868094D02*
X35631009Y-59868094D01*
X35631009Y-59868094D02*
X35535771Y-59820475D01*
X35535771Y-59820475D02*
X35488152Y-59725237D01*
X35488152Y-59725237D02*
X35488152Y-59534761D01*
X35488152Y-59534761D02*
X35535771Y-59439523D01*
X35535771Y-59439523D02*
X35631009Y-59391904D01*
X35631009Y-59391904D02*
X35726247Y-59391904D01*
X35726247Y-59391904D02*
X35821485Y-59868094D01*
X35488152Y-59058570D02*
X36154819Y-58820475D01*
X36154819Y-58820475D02*
X35488152Y-58582380D01*
X36154819Y-58201427D02*
X35154819Y-58201427D01*
X36154819Y-57629999D02*
X35583390Y-58058570D01*
X35154819Y-57629999D02*
X35726247Y-58201427D01*
X36154819Y-57201427D02*
X35488152Y-57201427D01*
X35154819Y-57201427D02*
X35202438Y-57249046D01*
X35202438Y-57249046D02*
X35250057Y-57201427D01*
X35250057Y-57201427D02*
X35202438Y-57153808D01*
X35202438Y-57153808D02*
X35154819Y-57201427D01*
X35154819Y-57201427D02*
X35250057Y-57201427D01*
X35488152Y-56868094D02*
X35488152Y-56487142D01*
X35154819Y-56725237D02*
X36011961Y-56725237D01*
X36011961Y-56725237D02*
X36107200Y-56677618D01*
X36107200Y-56677618D02*
X36154819Y-56582380D01*
X36154819Y-56582380D02*
X36154819Y-56487142D01*
X36059580Y-55582380D02*
X36107200Y-55629999D01*
X36107200Y-55629999D02*
X36154819Y-55772856D01*
X36154819Y-55772856D02*
X36154819Y-55868094D01*
X36154819Y-55868094D02*
X36107200Y-56010951D01*
X36107200Y-56010951D02*
X36011961Y-56106189D01*
X36011961Y-56106189D02*
X35916723Y-56153808D01*
X35916723Y-56153808D02*
X35726247Y-56201427D01*
X35726247Y-56201427D02*
X35583390Y-56201427D01*
X35583390Y-56201427D02*
X35392914Y-56153808D01*
X35392914Y-56153808D02*
X35297676Y-56106189D01*
X35297676Y-56106189D02*
X35202438Y-56010951D01*
X35202438Y-56010951D02*
X35154819Y-55868094D01*
X35154819Y-55868094D02*
X35154819Y-55772856D01*
X35154819Y-55772856D02*
X35202438Y-55629999D01*
X35202438Y-55629999D02*
X35250057Y-55582380D01*
X35154819Y-54487141D02*
X35154819Y-53868094D01*
X35154819Y-53868094D02*
X35535771Y-54201427D01*
X35535771Y-54201427D02*
X35535771Y-54058570D01*
X35535771Y-54058570D02*
X35583390Y-53963332D01*
X35583390Y-53963332D02*
X35631009Y-53915713D01*
X35631009Y-53915713D02*
X35726247Y-53868094D01*
X35726247Y-53868094D02*
X35964342Y-53868094D01*
X35964342Y-53868094D02*
X36059580Y-53915713D01*
X36059580Y-53915713D02*
X36107200Y-53963332D01*
X36107200Y-53963332D02*
X36154819Y-54058570D01*
X36154819Y-54058570D02*
X36154819Y-54344284D01*
X36154819Y-54344284D02*
X36107200Y-54439522D01*
X36107200Y-54439522D02*
X36059580Y-54487141D01*
X35583390Y-53296665D02*
X35535771Y-53391903D01*
X35535771Y-53391903D02*
X35488152Y-53439522D01*
X35488152Y-53439522D02*
X35392914Y-53487141D01*
X35392914Y-53487141D02*
X35345295Y-53487141D01*
X35345295Y-53487141D02*
X35250057Y-53439522D01*
X35250057Y-53439522D02*
X35202438Y-53391903D01*
X35202438Y-53391903D02*
X35154819Y-53296665D01*
X35154819Y-53296665D02*
X35154819Y-53106189D01*
X35154819Y-53106189D02*
X35202438Y-53010951D01*
X35202438Y-53010951D02*
X35250057Y-52963332D01*
X35250057Y-52963332D02*
X35345295Y-52915713D01*
X35345295Y-52915713D02*
X35392914Y-52915713D01*
X35392914Y-52915713D02*
X35488152Y-52963332D01*
X35488152Y-52963332D02*
X35535771Y-53010951D01*
X35535771Y-53010951D02*
X35583390Y-53106189D01*
X35583390Y-53106189D02*
X35583390Y-53296665D01*
X35583390Y-53296665D02*
X35631009Y-53391903D01*
X35631009Y-53391903D02*
X35678628Y-53439522D01*
X35678628Y-53439522D02*
X35773866Y-53487141D01*
X35773866Y-53487141D02*
X35964342Y-53487141D01*
X35964342Y-53487141D02*
X36059580Y-53439522D01*
X36059580Y-53439522D02*
X36107200Y-53391903D01*
X36107200Y-53391903D02*
X36154819Y-53296665D01*
X36154819Y-53296665D02*
X36154819Y-53106189D01*
X36154819Y-53106189D02*
X36107200Y-53010951D01*
X36107200Y-53010951D02*
X36059580Y-52963332D01*
X36059580Y-52963332D02*
X35964342Y-52915713D01*
X35964342Y-52915713D02*
X35773866Y-52915713D01*
X35773866Y-52915713D02*
X35678628Y-52963332D01*
X35678628Y-52963332D02*
X35631009Y-53010951D01*
X35631009Y-53010951D02*
X35583390Y-53106189D01*
X35773866Y-52487141D02*
X35773866Y-51725237D01*
X35488152Y-51249046D02*
X36488152Y-51249046D01*
X35535771Y-51249046D02*
X35488152Y-51153808D01*
X35488152Y-51153808D02*
X35488152Y-50963332D01*
X35488152Y-50963332D02*
X35535771Y-50868094D01*
X35535771Y-50868094D02*
X35583390Y-50820475D01*
X35583390Y-50820475D02*
X35678628Y-50772856D01*
X35678628Y-50772856D02*
X35964342Y-50772856D01*
X35964342Y-50772856D02*
X36059580Y-50820475D01*
X36059580Y-50820475D02*
X36107200Y-50868094D01*
X36107200Y-50868094D02*
X36154819Y-50963332D01*
X36154819Y-50963332D02*
X36154819Y-51153808D01*
X36154819Y-51153808D02*
X36107200Y-51249046D01*
X36154819Y-50344284D02*
X35488152Y-50344284D01*
X35154819Y-50344284D02*
X35202438Y-50391903D01*
X35202438Y-50391903D02*
X35250057Y-50344284D01*
X35250057Y-50344284D02*
X35202438Y-50296665D01*
X35202438Y-50296665D02*
X35154819Y-50344284D01*
X35154819Y-50344284D02*
X35250057Y-50344284D01*
X35488152Y-49868094D02*
X36154819Y-49868094D01*
X35583390Y-49868094D02*
X35535771Y-49820475D01*
X35535771Y-49820475D02*
X35488152Y-49725237D01*
X35488152Y-49725237D02*
X35488152Y-49582380D01*
X35488152Y-49582380D02*
X35535771Y-49487142D01*
X35535771Y-49487142D02*
X35631009Y-49439523D01*
X35631009Y-49439523D02*
X36154819Y-49439523D01*
X25079289Y-79426099D02*
X24603099Y-79426099D01*
X24603099Y-79426099D02*
X24555480Y-79902289D01*
X24555480Y-79902289D02*
X24603099Y-79854670D01*
X24603099Y-79854670D02*
X24698337Y-79807051D01*
X24698337Y-79807051D02*
X24936432Y-79807051D01*
X24936432Y-79807051D02*
X25031670Y-79854670D01*
X25031670Y-79854670D02*
X25079289Y-79902289D01*
X25079289Y-79902289D02*
X25126908Y-79997527D01*
X25126908Y-79997527D02*
X25126908Y-80235622D01*
X25126908Y-80235622D02*
X25079289Y-80330860D01*
X25079289Y-80330860D02*
X25031670Y-80378480D01*
X25031670Y-80378480D02*
X24936432Y-80426099D01*
X24936432Y-80426099D02*
X24698337Y-80426099D01*
X24698337Y-80426099D02*
X24603099Y-80378480D01*
X24603099Y-80378480D02*
X24555480Y-80330860D01*
X25412623Y-79426099D02*
X25745956Y-80426099D01*
X25745956Y-80426099D02*
X26079289Y-79426099D01*
X24511541Y-33454819D02*
X25130588Y-33454819D01*
X25130588Y-33454819D02*
X24797255Y-33835771D01*
X24797255Y-33835771D02*
X24940112Y-33835771D01*
X24940112Y-33835771D02*
X25035350Y-33883390D01*
X25035350Y-33883390D02*
X25082969Y-33931009D01*
X25082969Y-33931009D02*
X25130588Y-34026247D01*
X25130588Y-34026247D02*
X25130588Y-34264342D01*
X25130588Y-34264342D02*
X25082969Y-34359580D01*
X25082969Y-34359580D02*
X25035350Y-34407200D01*
X25035350Y-34407200D02*
X24940112Y-34454819D01*
X24940112Y-34454819D02*
X24654398Y-34454819D01*
X24654398Y-34454819D02*
X24559160Y-34407200D01*
X24559160Y-34407200D02*
X24511541Y-34359580D01*
X25416303Y-33454819D02*
X25749636Y-34454819D01*
X25749636Y-34454819D02*
X26082969Y-33454819D01*
X26321065Y-33454819D02*
X26940112Y-33454819D01*
X26940112Y-33454819D02*
X26606779Y-33835771D01*
X26606779Y-33835771D02*
X26749636Y-33835771D01*
X26749636Y-33835771D02*
X26844874Y-33883390D01*
X26844874Y-33883390D02*
X26892493Y-33931009D01*
X26892493Y-33931009D02*
X26940112Y-34026247D01*
X26940112Y-34026247D02*
X26940112Y-34264342D01*
X26940112Y-34264342D02*
X26892493Y-34359580D01*
X26892493Y-34359580D02*
X26844874Y-34407200D01*
X26844874Y-34407200D02*
X26749636Y-34454819D01*
X26749636Y-34454819D02*
X26463922Y-34454819D01*
X26463922Y-34454819D02*
X26368684Y-34407200D01*
X26368684Y-34407200D02*
X26321065Y-34359580D01*
X24449636Y-38615427D02*
X24732969Y-39465427D01*
X24732969Y-39465427D02*
X25016303Y-38615427D01*
X25299635Y-39465427D02*
X25299635Y-38615427D01*
X25299635Y-38615427D02*
X25623445Y-38615427D01*
X25623445Y-38615427D02*
X25704397Y-38655903D01*
X25704397Y-38655903D02*
X25744874Y-38696379D01*
X25744874Y-38696379D02*
X25785350Y-38777331D01*
X25785350Y-38777331D02*
X25785350Y-38898760D01*
X25785350Y-38898760D02*
X25744874Y-38979712D01*
X25744874Y-38979712D02*
X25704397Y-39020189D01*
X25704397Y-39020189D02*
X25623445Y-39060665D01*
X25623445Y-39060665D02*
X25299635Y-39060665D01*
X26756778Y-38574951D02*
X26028207Y-39667808D01*
X27485350Y-38655903D02*
X27404397Y-38615427D01*
X27404397Y-38615427D02*
X27282969Y-38615427D01*
X27282969Y-38615427D02*
X27161540Y-38655903D01*
X27161540Y-38655903D02*
X27080588Y-38736855D01*
X27080588Y-38736855D02*
X27040111Y-38817808D01*
X27040111Y-38817808D02*
X26999635Y-38979712D01*
X26999635Y-38979712D02*
X26999635Y-39101141D01*
X26999635Y-39101141D02*
X27040111Y-39263046D01*
X27040111Y-39263046D02*
X27080588Y-39343998D01*
X27080588Y-39343998D02*
X27161540Y-39424951D01*
X27161540Y-39424951D02*
X27282969Y-39465427D01*
X27282969Y-39465427D02*
X27363921Y-39465427D01*
X27363921Y-39465427D02*
X27485350Y-39424951D01*
X27485350Y-39424951D02*
X27525826Y-39384474D01*
X27525826Y-39384474D02*
X27525826Y-39101141D01*
X27525826Y-39101141D02*
X27363921Y-39101141D01*
X27890111Y-39465427D02*
X27890111Y-38615427D01*
X27890111Y-38615427D02*
X28213921Y-38615427D01*
X28213921Y-38615427D02*
X28294873Y-38655903D01*
X28294873Y-38655903D02*
X28335350Y-38696379D01*
X28335350Y-38696379D02*
X28375826Y-38777331D01*
X28375826Y-38777331D02*
X28375826Y-38898760D01*
X28375826Y-38898760D02*
X28335350Y-38979712D01*
X28335350Y-38979712D02*
X28294873Y-39020189D01*
X28294873Y-39020189D02*
X28213921Y-39060665D01*
X28213921Y-39060665D02*
X27890111Y-39060665D01*
X28740111Y-39465427D02*
X28740111Y-38615427D01*
X29306778Y-38615427D02*
X29468683Y-38615427D01*
X29468683Y-38615427D02*
X29549635Y-38655903D01*
X29549635Y-38655903D02*
X29630588Y-38736855D01*
X29630588Y-38736855D02*
X29671064Y-38898760D01*
X29671064Y-38898760D02*
X29671064Y-39182093D01*
X29671064Y-39182093D02*
X29630588Y-39343998D01*
X29630588Y-39343998D02*
X29549635Y-39424951D01*
X29549635Y-39424951D02*
X29468683Y-39465427D01*
X29468683Y-39465427D02*
X29306778Y-39465427D01*
X29306778Y-39465427D02*
X29225826Y-39424951D01*
X29225826Y-39424951D02*
X29144873Y-39343998D01*
X29144873Y-39343998D02*
X29104397Y-39182093D01*
X29104397Y-39182093D02*
X29104397Y-38898760D01*
X29104397Y-38898760D02*
X29144873Y-38736855D01*
X29144873Y-38736855D02*
X29225826Y-38655903D01*
X29225826Y-38655903D02*
X29306778Y-38615427D01*
X29954397Y-38615427D02*
X30480588Y-38615427D01*
X30480588Y-38615427D02*
X30197254Y-38939236D01*
X30197254Y-38939236D02*
X30318683Y-38939236D01*
X30318683Y-38939236D02*
X30399635Y-38979712D01*
X30399635Y-38979712D02*
X30440111Y-39020189D01*
X30440111Y-39020189D02*
X30480588Y-39101141D01*
X30480588Y-39101141D02*
X30480588Y-39303522D01*
X30480588Y-39303522D02*
X30440111Y-39384474D01*
X30440111Y-39384474D02*
X30399635Y-39424951D01*
X30399635Y-39424951D02*
X30318683Y-39465427D01*
X30318683Y-39465427D02*
X30075826Y-39465427D01*
X30075826Y-39465427D02*
X29994873Y-39424951D01*
X29994873Y-39424951D02*
X29954397Y-39384474D01*
X31209159Y-38615427D02*
X31047254Y-38615427D01*
X31047254Y-38615427D02*
X30966302Y-38655903D01*
X30966302Y-38655903D02*
X30925826Y-38696379D01*
X30925826Y-38696379D02*
X30844873Y-38817808D01*
X30844873Y-38817808D02*
X30804397Y-38979712D01*
X30804397Y-38979712D02*
X30804397Y-39303522D01*
X30804397Y-39303522D02*
X30844873Y-39384474D01*
X30844873Y-39384474D02*
X30885350Y-39424951D01*
X30885350Y-39424951D02*
X30966302Y-39465427D01*
X30966302Y-39465427D02*
X31128207Y-39465427D01*
X31128207Y-39465427D02*
X31209159Y-39424951D01*
X31209159Y-39424951D02*
X31249635Y-39384474D01*
X31249635Y-39384474D02*
X31290112Y-39303522D01*
X31290112Y-39303522D02*
X31290112Y-39101141D01*
X31290112Y-39101141D02*
X31249635Y-39020189D01*
X31249635Y-39020189D02*
X31209159Y-38979712D01*
X31209159Y-38979712D02*
X31128207Y-38939236D01*
X31128207Y-38939236D02*
X30966302Y-38939236D01*
X30966302Y-38939236D02*
X30885350Y-38979712D01*
X30885350Y-38979712D02*
X30844873Y-39020189D01*
X30844873Y-39020189D02*
X30804397Y-39101141D01*
X24449636Y-41155427D02*
X24732969Y-42005427D01*
X24732969Y-42005427D02*
X25016303Y-41155427D01*
X25299635Y-42005427D02*
X25299635Y-41155427D01*
X25299635Y-41155427D02*
X25785350Y-42005427D01*
X25785350Y-42005427D02*
X25785350Y-41155427D01*
X26797254Y-41114951D02*
X26068683Y-42207808D01*
X27525826Y-41195903D02*
X27444873Y-41155427D01*
X27444873Y-41155427D02*
X27323445Y-41155427D01*
X27323445Y-41155427D02*
X27202016Y-41195903D01*
X27202016Y-41195903D02*
X27121064Y-41276855D01*
X27121064Y-41276855D02*
X27080587Y-41357808D01*
X27080587Y-41357808D02*
X27040111Y-41519712D01*
X27040111Y-41519712D02*
X27040111Y-41641141D01*
X27040111Y-41641141D02*
X27080587Y-41803046D01*
X27080587Y-41803046D02*
X27121064Y-41883998D01*
X27121064Y-41883998D02*
X27202016Y-41964951D01*
X27202016Y-41964951D02*
X27323445Y-42005427D01*
X27323445Y-42005427D02*
X27404397Y-42005427D01*
X27404397Y-42005427D02*
X27525826Y-41964951D01*
X27525826Y-41964951D02*
X27566302Y-41924474D01*
X27566302Y-41924474D02*
X27566302Y-41641141D01*
X27566302Y-41641141D02*
X27404397Y-41641141D01*
X27930587Y-42005427D02*
X27930587Y-41155427D01*
X27930587Y-41155427D02*
X28254397Y-41155427D01*
X28254397Y-41155427D02*
X28335349Y-41195903D01*
X28335349Y-41195903D02*
X28375826Y-41236379D01*
X28375826Y-41236379D02*
X28416302Y-41317331D01*
X28416302Y-41317331D02*
X28416302Y-41438760D01*
X28416302Y-41438760D02*
X28375826Y-41519712D01*
X28375826Y-41519712D02*
X28335349Y-41560189D01*
X28335349Y-41560189D02*
X28254397Y-41600665D01*
X28254397Y-41600665D02*
X27930587Y-41600665D01*
X28780587Y-42005427D02*
X28780587Y-41155427D01*
X29347254Y-41155427D02*
X29509159Y-41155427D01*
X29509159Y-41155427D02*
X29590111Y-41195903D01*
X29590111Y-41195903D02*
X29671064Y-41276855D01*
X29671064Y-41276855D02*
X29711540Y-41438760D01*
X29711540Y-41438760D02*
X29711540Y-41722093D01*
X29711540Y-41722093D02*
X29671064Y-41883998D01*
X29671064Y-41883998D02*
X29590111Y-41964951D01*
X29590111Y-41964951D02*
X29509159Y-42005427D01*
X29509159Y-42005427D02*
X29347254Y-42005427D01*
X29347254Y-42005427D02*
X29266302Y-41964951D01*
X29266302Y-41964951D02*
X29185349Y-41883998D01*
X29185349Y-41883998D02*
X29144873Y-41722093D01*
X29144873Y-41722093D02*
X29144873Y-41438760D01*
X29144873Y-41438760D02*
X29185349Y-41276855D01*
X29185349Y-41276855D02*
X29266302Y-41195903D01*
X29266302Y-41195903D02*
X29347254Y-41155427D01*
X29994873Y-41155427D02*
X30521064Y-41155427D01*
X30521064Y-41155427D02*
X30237730Y-41479236D01*
X30237730Y-41479236D02*
X30359159Y-41479236D01*
X30359159Y-41479236D02*
X30440111Y-41519712D01*
X30440111Y-41519712D02*
X30480587Y-41560189D01*
X30480587Y-41560189D02*
X30521064Y-41641141D01*
X30521064Y-41641141D02*
X30521064Y-41843522D01*
X30521064Y-41843522D02*
X30480587Y-41924474D01*
X30480587Y-41924474D02*
X30440111Y-41964951D01*
X30440111Y-41964951D02*
X30359159Y-42005427D01*
X30359159Y-42005427D02*
X30116302Y-42005427D01*
X30116302Y-42005427D02*
X30035349Y-41964951D01*
X30035349Y-41964951D02*
X29994873Y-41924474D01*
X30925826Y-42005427D02*
X31087730Y-42005427D01*
X31087730Y-42005427D02*
X31168683Y-41964951D01*
X31168683Y-41964951D02*
X31209159Y-41924474D01*
X31209159Y-41924474D02*
X31290111Y-41803046D01*
X31290111Y-41803046D02*
X31330588Y-41641141D01*
X31330588Y-41641141D02*
X31330588Y-41317331D01*
X31330588Y-41317331D02*
X31290111Y-41236379D01*
X31290111Y-41236379D02*
X31249635Y-41195903D01*
X31249635Y-41195903D02*
X31168683Y-41155427D01*
X31168683Y-41155427D02*
X31006778Y-41155427D01*
X31006778Y-41155427D02*
X30925826Y-41195903D01*
X30925826Y-41195903D02*
X30885349Y-41236379D01*
X30885349Y-41236379D02*
X30844873Y-41317331D01*
X30844873Y-41317331D02*
X30844873Y-41519712D01*
X30844873Y-41519712D02*
X30885349Y-41600665D01*
X30885349Y-41600665D02*
X30925826Y-41641141D01*
X30925826Y-41641141D02*
X31006778Y-41681617D01*
X31006778Y-41681617D02*
X31168683Y-41681617D01*
X31168683Y-41681617D02*
X31249635Y-41641141D01*
X31249635Y-41641141D02*
X31290111Y-41600665D01*
X31290111Y-41600665D02*
X31330588Y-41519712D01*
X25016303Y-43735903D02*
X24935350Y-43695427D01*
X24935350Y-43695427D02*
X24813922Y-43695427D01*
X24813922Y-43695427D02*
X24692493Y-43735903D01*
X24692493Y-43735903D02*
X24611541Y-43816855D01*
X24611541Y-43816855D02*
X24571064Y-43897808D01*
X24571064Y-43897808D02*
X24530588Y-44059712D01*
X24530588Y-44059712D02*
X24530588Y-44181141D01*
X24530588Y-44181141D02*
X24571064Y-44343046D01*
X24571064Y-44343046D02*
X24611541Y-44423998D01*
X24611541Y-44423998D02*
X24692493Y-44504951D01*
X24692493Y-44504951D02*
X24813922Y-44545427D01*
X24813922Y-44545427D02*
X24894874Y-44545427D01*
X24894874Y-44545427D02*
X25016303Y-44504951D01*
X25016303Y-44504951D02*
X25056779Y-44464474D01*
X25056779Y-44464474D02*
X25056779Y-44181141D01*
X25056779Y-44181141D02*
X24894874Y-44181141D01*
X25421064Y-44545427D02*
X25421064Y-43695427D01*
X25421064Y-43695427D02*
X25744874Y-43695427D01*
X25744874Y-43695427D02*
X25825826Y-43735903D01*
X25825826Y-43735903D02*
X25866303Y-43776379D01*
X25866303Y-43776379D02*
X25906779Y-43857331D01*
X25906779Y-43857331D02*
X25906779Y-43978760D01*
X25906779Y-43978760D02*
X25866303Y-44059712D01*
X25866303Y-44059712D02*
X25825826Y-44100189D01*
X25825826Y-44100189D02*
X25744874Y-44140665D01*
X25744874Y-44140665D02*
X25421064Y-44140665D01*
X26271064Y-44545427D02*
X26271064Y-43695427D01*
X26837731Y-43695427D02*
X26999636Y-43695427D01*
X26999636Y-43695427D02*
X27080588Y-43735903D01*
X27080588Y-43735903D02*
X27161541Y-43816855D01*
X27161541Y-43816855D02*
X27202017Y-43978760D01*
X27202017Y-43978760D02*
X27202017Y-44262093D01*
X27202017Y-44262093D02*
X27161541Y-44423998D01*
X27161541Y-44423998D02*
X27080588Y-44504951D01*
X27080588Y-44504951D02*
X26999636Y-44545427D01*
X26999636Y-44545427D02*
X26837731Y-44545427D01*
X26837731Y-44545427D02*
X26756779Y-44504951D01*
X26756779Y-44504951D02*
X26675826Y-44423998D01*
X26675826Y-44423998D02*
X26635350Y-44262093D01*
X26635350Y-44262093D02*
X26635350Y-43978760D01*
X26635350Y-43978760D02*
X26675826Y-43816855D01*
X26675826Y-43816855D02*
X26756779Y-43735903D01*
X26756779Y-43735903D02*
X26837731Y-43695427D01*
X27485350Y-43695427D02*
X28011541Y-43695427D01*
X28011541Y-43695427D02*
X27728207Y-44019236D01*
X27728207Y-44019236D02*
X27849636Y-44019236D01*
X27849636Y-44019236D02*
X27930588Y-44059712D01*
X27930588Y-44059712D02*
X27971064Y-44100189D01*
X27971064Y-44100189D02*
X28011541Y-44181141D01*
X28011541Y-44181141D02*
X28011541Y-44383522D01*
X28011541Y-44383522D02*
X27971064Y-44464474D01*
X27971064Y-44464474D02*
X27930588Y-44504951D01*
X27930588Y-44504951D02*
X27849636Y-44545427D01*
X27849636Y-44545427D02*
X27606779Y-44545427D01*
X27606779Y-44545427D02*
X27525826Y-44504951D01*
X27525826Y-44504951D02*
X27485350Y-44464474D01*
X28740112Y-43978760D02*
X28740112Y-44545427D01*
X28537731Y-43654951D02*
X28335350Y-44262093D01*
X28335350Y-44262093D02*
X28861541Y-44262093D01*
X25016303Y-46275903D02*
X24935350Y-46235427D01*
X24935350Y-46235427D02*
X24813922Y-46235427D01*
X24813922Y-46235427D02*
X24692493Y-46275903D01*
X24692493Y-46275903D02*
X24611541Y-46356855D01*
X24611541Y-46356855D02*
X24571064Y-46437808D01*
X24571064Y-46437808D02*
X24530588Y-46599712D01*
X24530588Y-46599712D02*
X24530588Y-46721141D01*
X24530588Y-46721141D02*
X24571064Y-46883046D01*
X24571064Y-46883046D02*
X24611541Y-46963998D01*
X24611541Y-46963998D02*
X24692493Y-47044951D01*
X24692493Y-47044951D02*
X24813922Y-47085427D01*
X24813922Y-47085427D02*
X24894874Y-47085427D01*
X24894874Y-47085427D02*
X25016303Y-47044951D01*
X25016303Y-47044951D02*
X25056779Y-47004474D01*
X25056779Y-47004474D02*
X25056779Y-46721141D01*
X25056779Y-46721141D02*
X24894874Y-46721141D01*
X25421064Y-47085427D02*
X25421064Y-46235427D01*
X25421064Y-46235427D02*
X25744874Y-46235427D01*
X25744874Y-46235427D02*
X25825826Y-46275903D01*
X25825826Y-46275903D02*
X25866303Y-46316379D01*
X25866303Y-46316379D02*
X25906779Y-46397331D01*
X25906779Y-46397331D02*
X25906779Y-46518760D01*
X25906779Y-46518760D02*
X25866303Y-46599712D01*
X25866303Y-46599712D02*
X25825826Y-46640189D01*
X25825826Y-46640189D02*
X25744874Y-46680665D01*
X25744874Y-46680665D02*
X25421064Y-46680665D01*
X26271064Y-47085427D02*
X26271064Y-46235427D01*
X26837731Y-46235427D02*
X26999636Y-46235427D01*
X26999636Y-46235427D02*
X27080588Y-46275903D01*
X27080588Y-46275903D02*
X27161541Y-46356855D01*
X27161541Y-46356855D02*
X27202017Y-46518760D01*
X27202017Y-46518760D02*
X27202017Y-46802093D01*
X27202017Y-46802093D02*
X27161541Y-46963998D01*
X27161541Y-46963998D02*
X27080588Y-47044951D01*
X27080588Y-47044951D02*
X26999636Y-47085427D01*
X26999636Y-47085427D02*
X26837731Y-47085427D01*
X26837731Y-47085427D02*
X26756779Y-47044951D01*
X26756779Y-47044951D02*
X26675826Y-46963998D01*
X26675826Y-46963998D02*
X26635350Y-46802093D01*
X26635350Y-46802093D02*
X26635350Y-46518760D01*
X26635350Y-46518760D02*
X26675826Y-46356855D01*
X26675826Y-46356855D02*
X26756779Y-46275903D01*
X26756779Y-46275903D02*
X26837731Y-46235427D01*
X27485350Y-46235427D02*
X28011541Y-46235427D01*
X28011541Y-46235427D02*
X27728207Y-46559236D01*
X27728207Y-46559236D02*
X27849636Y-46559236D01*
X27849636Y-46559236D02*
X27930588Y-46599712D01*
X27930588Y-46599712D02*
X27971064Y-46640189D01*
X27971064Y-46640189D02*
X28011541Y-46721141D01*
X28011541Y-46721141D02*
X28011541Y-46923522D01*
X28011541Y-46923522D02*
X27971064Y-47004474D01*
X27971064Y-47004474D02*
X27930588Y-47044951D01*
X27930588Y-47044951D02*
X27849636Y-47085427D01*
X27849636Y-47085427D02*
X27606779Y-47085427D01*
X27606779Y-47085427D02*
X27525826Y-47044951D01*
X27525826Y-47044951D02*
X27485350Y-47004474D01*
X28780588Y-46235427D02*
X28375826Y-46235427D01*
X28375826Y-46235427D02*
X28335350Y-46640189D01*
X28335350Y-46640189D02*
X28375826Y-46599712D01*
X28375826Y-46599712D02*
X28456779Y-46559236D01*
X28456779Y-46559236D02*
X28659160Y-46559236D01*
X28659160Y-46559236D02*
X28740112Y-46599712D01*
X28740112Y-46599712D02*
X28780588Y-46640189D01*
X28780588Y-46640189D02*
X28821065Y-46721141D01*
X28821065Y-46721141D02*
X28821065Y-46923522D01*
X28821065Y-46923522D02*
X28780588Y-47004474D01*
X28780588Y-47004474D02*
X28740112Y-47044951D01*
X28740112Y-47044951D02*
X28659160Y-47085427D01*
X28659160Y-47085427D02*
X28456779Y-47085427D01*
X28456779Y-47085427D02*
X28375826Y-47044951D01*
X28375826Y-47044951D02*
X28335350Y-47004474D01*
X25016303Y-48815903D02*
X24935350Y-48775427D01*
X24935350Y-48775427D02*
X24813922Y-48775427D01*
X24813922Y-48775427D02*
X24692493Y-48815903D01*
X24692493Y-48815903D02*
X24611541Y-48896855D01*
X24611541Y-48896855D02*
X24571064Y-48977808D01*
X24571064Y-48977808D02*
X24530588Y-49139712D01*
X24530588Y-49139712D02*
X24530588Y-49261141D01*
X24530588Y-49261141D02*
X24571064Y-49423046D01*
X24571064Y-49423046D02*
X24611541Y-49503998D01*
X24611541Y-49503998D02*
X24692493Y-49584951D01*
X24692493Y-49584951D02*
X24813922Y-49625427D01*
X24813922Y-49625427D02*
X24894874Y-49625427D01*
X24894874Y-49625427D02*
X25016303Y-49584951D01*
X25016303Y-49584951D02*
X25056779Y-49544474D01*
X25056779Y-49544474D02*
X25056779Y-49261141D01*
X25056779Y-49261141D02*
X24894874Y-49261141D01*
X25421064Y-49625427D02*
X25421064Y-48775427D01*
X25421064Y-48775427D02*
X25744874Y-48775427D01*
X25744874Y-48775427D02*
X25825826Y-48815903D01*
X25825826Y-48815903D02*
X25866303Y-48856379D01*
X25866303Y-48856379D02*
X25906779Y-48937331D01*
X25906779Y-48937331D02*
X25906779Y-49058760D01*
X25906779Y-49058760D02*
X25866303Y-49139712D01*
X25866303Y-49139712D02*
X25825826Y-49180189D01*
X25825826Y-49180189D02*
X25744874Y-49220665D01*
X25744874Y-49220665D02*
X25421064Y-49220665D01*
X26271064Y-49625427D02*
X26271064Y-48775427D01*
X26837731Y-48775427D02*
X26999636Y-48775427D01*
X26999636Y-48775427D02*
X27080588Y-48815903D01*
X27080588Y-48815903D02*
X27161541Y-48896855D01*
X27161541Y-48896855D02*
X27202017Y-49058760D01*
X27202017Y-49058760D02*
X27202017Y-49342093D01*
X27202017Y-49342093D02*
X27161541Y-49503998D01*
X27161541Y-49503998D02*
X27080588Y-49584951D01*
X27080588Y-49584951D02*
X26999636Y-49625427D01*
X26999636Y-49625427D02*
X26837731Y-49625427D01*
X26837731Y-49625427D02*
X26756779Y-49584951D01*
X26756779Y-49584951D02*
X26675826Y-49503998D01*
X26675826Y-49503998D02*
X26635350Y-49342093D01*
X26635350Y-49342093D02*
X26635350Y-49058760D01*
X26635350Y-49058760D02*
X26675826Y-48896855D01*
X26675826Y-48896855D02*
X26756779Y-48815903D01*
X26756779Y-48815903D02*
X26837731Y-48775427D01*
X27485350Y-48775427D02*
X28011541Y-48775427D01*
X28011541Y-48775427D02*
X27728207Y-49099236D01*
X27728207Y-49099236D02*
X27849636Y-49099236D01*
X27849636Y-49099236D02*
X27930588Y-49139712D01*
X27930588Y-49139712D02*
X27971064Y-49180189D01*
X27971064Y-49180189D02*
X28011541Y-49261141D01*
X28011541Y-49261141D02*
X28011541Y-49463522D01*
X28011541Y-49463522D02*
X27971064Y-49544474D01*
X27971064Y-49544474D02*
X27930588Y-49584951D01*
X27930588Y-49584951D02*
X27849636Y-49625427D01*
X27849636Y-49625427D02*
X27606779Y-49625427D01*
X27606779Y-49625427D02*
X27525826Y-49584951D01*
X27525826Y-49584951D02*
X27485350Y-49544474D01*
X28335350Y-48856379D02*
X28375826Y-48815903D01*
X28375826Y-48815903D02*
X28456779Y-48775427D01*
X28456779Y-48775427D02*
X28659160Y-48775427D01*
X28659160Y-48775427D02*
X28740112Y-48815903D01*
X28740112Y-48815903D02*
X28780588Y-48856379D01*
X28780588Y-48856379D02*
X28821065Y-48937331D01*
X28821065Y-48937331D02*
X28821065Y-49018284D01*
X28821065Y-49018284D02*
X28780588Y-49139712D01*
X28780588Y-49139712D02*
X28294874Y-49625427D01*
X28294874Y-49625427D02*
X28821065Y-49625427D01*
X25016303Y-51355903D02*
X24935350Y-51315427D01*
X24935350Y-51315427D02*
X24813922Y-51315427D01*
X24813922Y-51315427D02*
X24692493Y-51355903D01*
X24692493Y-51355903D02*
X24611541Y-51436855D01*
X24611541Y-51436855D02*
X24571064Y-51517808D01*
X24571064Y-51517808D02*
X24530588Y-51679712D01*
X24530588Y-51679712D02*
X24530588Y-51801141D01*
X24530588Y-51801141D02*
X24571064Y-51963046D01*
X24571064Y-51963046D02*
X24611541Y-52043998D01*
X24611541Y-52043998D02*
X24692493Y-52124951D01*
X24692493Y-52124951D02*
X24813922Y-52165427D01*
X24813922Y-52165427D02*
X24894874Y-52165427D01*
X24894874Y-52165427D02*
X25016303Y-52124951D01*
X25016303Y-52124951D02*
X25056779Y-52084474D01*
X25056779Y-52084474D02*
X25056779Y-51801141D01*
X25056779Y-51801141D02*
X24894874Y-51801141D01*
X25421064Y-52165427D02*
X25421064Y-51315427D01*
X25421064Y-51315427D02*
X25744874Y-51315427D01*
X25744874Y-51315427D02*
X25825826Y-51355903D01*
X25825826Y-51355903D02*
X25866303Y-51396379D01*
X25866303Y-51396379D02*
X25906779Y-51477331D01*
X25906779Y-51477331D02*
X25906779Y-51598760D01*
X25906779Y-51598760D02*
X25866303Y-51679712D01*
X25866303Y-51679712D02*
X25825826Y-51720189D01*
X25825826Y-51720189D02*
X25744874Y-51760665D01*
X25744874Y-51760665D02*
X25421064Y-51760665D01*
X26271064Y-52165427D02*
X26271064Y-51315427D01*
X26837731Y-51315427D02*
X26999636Y-51315427D01*
X26999636Y-51315427D02*
X27080588Y-51355903D01*
X27080588Y-51355903D02*
X27161541Y-51436855D01*
X27161541Y-51436855D02*
X27202017Y-51598760D01*
X27202017Y-51598760D02*
X27202017Y-51882093D01*
X27202017Y-51882093D02*
X27161541Y-52043998D01*
X27161541Y-52043998D02*
X27080588Y-52124951D01*
X27080588Y-52124951D02*
X26999636Y-52165427D01*
X26999636Y-52165427D02*
X26837731Y-52165427D01*
X26837731Y-52165427D02*
X26756779Y-52124951D01*
X26756779Y-52124951D02*
X26675826Y-52043998D01*
X26675826Y-52043998D02*
X26635350Y-51882093D01*
X26635350Y-51882093D02*
X26635350Y-51598760D01*
X26635350Y-51598760D02*
X26675826Y-51436855D01*
X26675826Y-51436855D02*
X26756779Y-51355903D01*
X26756779Y-51355903D02*
X26837731Y-51315427D01*
X27485350Y-51315427D02*
X28011541Y-51315427D01*
X28011541Y-51315427D02*
X27728207Y-51639236D01*
X27728207Y-51639236D02*
X27849636Y-51639236D01*
X27849636Y-51639236D02*
X27930588Y-51679712D01*
X27930588Y-51679712D02*
X27971064Y-51720189D01*
X27971064Y-51720189D02*
X28011541Y-51801141D01*
X28011541Y-51801141D02*
X28011541Y-52003522D01*
X28011541Y-52003522D02*
X27971064Y-52084474D01*
X27971064Y-52084474D02*
X27930588Y-52124951D01*
X27930588Y-52124951D02*
X27849636Y-52165427D01*
X27849636Y-52165427D02*
X27606779Y-52165427D01*
X27606779Y-52165427D02*
X27525826Y-52124951D01*
X27525826Y-52124951D02*
X27485350Y-52084474D01*
X28294874Y-51315427D02*
X28821065Y-51315427D01*
X28821065Y-51315427D02*
X28537731Y-51639236D01*
X28537731Y-51639236D02*
X28659160Y-51639236D01*
X28659160Y-51639236D02*
X28740112Y-51679712D01*
X28740112Y-51679712D02*
X28780588Y-51720189D01*
X28780588Y-51720189D02*
X28821065Y-51801141D01*
X28821065Y-51801141D02*
X28821065Y-52003522D01*
X28821065Y-52003522D02*
X28780588Y-52084474D01*
X28780588Y-52084474D02*
X28740112Y-52124951D01*
X28740112Y-52124951D02*
X28659160Y-52165427D01*
X28659160Y-52165427D02*
X28416303Y-52165427D01*
X28416303Y-52165427D02*
X28335350Y-52124951D01*
X28335350Y-52124951D02*
X28294874Y-52084474D01*
X25016303Y-53895903D02*
X24935350Y-53855427D01*
X24935350Y-53855427D02*
X24813922Y-53855427D01*
X24813922Y-53855427D02*
X24692493Y-53895903D01*
X24692493Y-53895903D02*
X24611541Y-53976855D01*
X24611541Y-53976855D02*
X24571064Y-54057808D01*
X24571064Y-54057808D02*
X24530588Y-54219712D01*
X24530588Y-54219712D02*
X24530588Y-54341141D01*
X24530588Y-54341141D02*
X24571064Y-54503046D01*
X24571064Y-54503046D02*
X24611541Y-54583998D01*
X24611541Y-54583998D02*
X24692493Y-54664951D01*
X24692493Y-54664951D02*
X24813922Y-54705427D01*
X24813922Y-54705427D02*
X24894874Y-54705427D01*
X24894874Y-54705427D02*
X25016303Y-54664951D01*
X25016303Y-54664951D02*
X25056779Y-54624474D01*
X25056779Y-54624474D02*
X25056779Y-54341141D01*
X25056779Y-54341141D02*
X24894874Y-54341141D01*
X25421064Y-54705427D02*
X25421064Y-53855427D01*
X25421064Y-53855427D02*
X25744874Y-53855427D01*
X25744874Y-53855427D02*
X25825826Y-53895903D01*
X25825826Y-53895903D02*
X25866303Y-53936379D01*
X25866303Y-53936379D02*
X25906779Y-54017331D01*
X25906779Y-54017331D02*
X25906779Y-54138760D01*
X25906779Y-54138760D02*
X25866303Y-54219712D01*
X25866303Y-54219712D02*
X25825826Y-54260189D01*
X25825826Y-54260189D02*
X25744874Y-54300665D01*
X25744874Y-54300665D02*
X25421064Y-54300665D01*
X26271064Y-54705427D02*
X26271064Y-53855427D01*
X26837731Y-53855427D02*
X26999636Y-53855427D01*
X26999636Y-53855427D02*
X27080588Y-53895903D01*
X27080588Y-53895903D02*
X27161541Y-53976855D01*
X27161541Y-53976855D02*
X27202017Y-54138760D01*
X27202017Y-54138760D02*
X27202017Y-54422093D01*
X27202017Y-54422093D02*
X27161541Y-54583998D01*
X27161541Y-54583998D02*
X27080588Y-54664951D01*
X27080588Y-54664951D02*
X26999636Y-54705427D01*
X26999636Y-54705427D02*
X26837731Y-54705427D01*
X26837731Y-54705427D02*
X26756779Y-54664951D01*
X26756779Y-54664951D02*
X26675826Y-54583998D01*
X26675826Y-54583998D02*
X26635350Y-54422093D01*
X26635350Y-54422093D02*
X26635350Y-54138760D01*
X26635350Y-54138760D02*
X26675826Y-53976855D01*
X26675826Y-53976855D02*
X26756779Y-53895903D01*
X26756779Y-53895903D02*
X26837731Y-53855427D01*
X27525826Y-53936379D02*
X27566302Y-53895903D01*
X27566302Y-53895903D02*
X27647255Y-53855427D01*
X27647255Y-53855427D02*
X27849636Y-53855427D01*
X27849636Y-53855427D02*
X27930588Y-53895903D01*
X27930588Y-53895903D02*
X27971064Y-53936379D01*
X27971064Y-53936379D02*
X28011541Y-54017331D01*
X28011541Y-54017331D02*
X28011541Y-54098284D01*
X28011541Y-54098284D02*
X27971064Y-54219712D01*
X27971064Y-54219712D02*
X27485350Y-54705427D01*
X27485350Y-54705427D02*
X28011541Y-54705427D01*
X28780588Y-53855427D02*
X28375826Y-53855427D01*
X28375826Y-53855427D02*
X28335350Y-54260189D01*
X28335350Y-54260189D02*
X28375826Y-54219712D01*
X28375826Y-54219712D02*
X28456779Y-54179236D01*
X28456779Y-54179236D02*
X28659160Y-54179236D01*
X28659160Y-54179236D02*
X28740112Y-54219712D01*
X28740112Y-54219712D02*
X28780588Y-54260189D01*
X28780588Y-54260189D02*
X28821065Y-54341141D01*
X28821065Y-54341141D02*
X28821065Y-54543522D01*
X28821065Y-54543522D02*
X28780588Y-54624474D01*
X28780588Y-54624474D02*
X28740112Y-54664951D01*
X28740112Y-54664951D02*
X28659160Y-54705427D01*
X28659160Y-54705427D02*
X28456779Y-54705427D01*
X28456779Y-54705427D02*
X28375826Y-54664951D01*
X28375826Y-54664951D02*
X28335350Y-54624474D01*
X25016303Y-56435903D02*
X24935350Y-56395427D01*
X24935350Y-56395427D02*
X24813922Y-56395427D01*
X24813922Y-56395427D02*
X24692493Y-56435903D01*
X24692493Y-56435903D02*
X24611541Y-56516855D01*
X24611541Y-56516855D02*
X24571064Y-56597808D01*
X24571064Y-56597808D02*
X24530588Y-56759712D01*
X24530588Y-56759712D02*
X24530588Y-56881141D01*
X24530588Y-56881141D02*
X24571064Y-57043046D01*
X24571064Y-57043046D02*
X24611541Y-57123998D01*
X24611541Y-57123998D02*
X24692493Y-57204951D01*
X24692493Y-57204951D02*
X24813922Y-57245427D01*
X24813922Y-57245427D02*
X24894874Y-57245427D01*
X24894874Y-57245427D02*
X25016303Y-57204951D01*
X25016303Y-57204951D02*
X25056779Y-57164474D01*
X25056779Y-57164474D02*
X25056779Y-56881141D01*
X25056779Y-56881141D02*
X24894874Y-56881141D01*
X25421064Y-57245427D02*
X25421064Y-56395427D01*
X25421064Y-56395427D02*
X25744874Y-56395427D01*
X25744874Y-56395427D02*
X25825826Y-56435903D01*
X25825826Y-56435903D02*
X25866303Y-56476379D01*
X25866303Y-56476379D02*
X25906779Y-56557331D01*
X25906779Y-56557331D02*
X25906779Y-56678760D01*
X25906779Y-56678760D02*
X25866303Y-56759712D01*
X25866303Y-56759712D02*
X25825826Y-56800189D01*
X25825826Y-56800189D02*
X25744874Y-56840665D01*
X25744874Y-56840665D02*
X25421064Y-56840665D01*
X26271064Y-57245427D02*
X26271064Y-56395427D01*
X26837731Y-56395427D02*
X26999636Y-56395427D01*
X26999636Y-56395427D02*
X27080588Y-56435903D01*
X27080588Y-56435903D02*
X27161541Y-56516855D01*
X27161541Y-56516855D02*
X27202017Y-56678760D01*
X27202017Y-56678760D02*
X27202017Y-56962093D01*
X27202017Y-56962093D02*
X27161541Y-57123998D01*
X27161541Y-57123998D02*
X27080588Y-57204951D01*
X27080588Y-57204951D02*
X26999636Y-57245427D01*
X26999636Y-57245427D02*
X26837731Y-57245427D01*
X26837731Y-57245427D02*
X26756779Y-57204951D01*
X26756779Y-57204951D02*
X26675826Y-57123998D01*
X26675826Y-57123998D02*
X26635350Y-56962093D01*
X26635350Y-56962093D02*
X26635350Y-56678760D01*
X26635350Y-56678760D02*
X26675826Y-56516855D01*
X26675826Y-56516855D02*
X26756779Y-56435903D01*
X26756779Y-56435903D02*
X26837731Y-56395427D01*
X27525826Y-56476379D02*
X27566302Y-56435903D01*
X27566302Y-56435903D02*
X27647255Y-56395427D01*
X27647255Y-56395427D02*
X27849636Y-56395427D01*
X27849636Y-56395427D02*
X27930588Y-56435903D01*
X27930588Y-56435903D02*
X27971064Y-56476379D01*
X27971064Y-56476379D02*
X28011541Y-56557331D01*
X28011541Y-56557331D02*
X28011541Y-56638284D01*
X28011541Y-56638284D02*
X27971064Y-56759712D01*
X27971064Y-56759712D02*
X27485350Y-57245427D01*
X27485350Y-57245427D02*
X28011541Y-57245427D01*
X28740112Y-56395427D02*
X28578207Y-56395427D01*
X28578207Y-56395427D02*
X28497255Y-56435903D01*
X28497255Y-56435903D02*
X28456779Y-56476379D01*
X28456779Y-56476379D02*
X28375826Y-56597808D01*
X28375826Y-56597808D02*
X28335350Y-56759712D01*
X28335350Y-56759712D02*
X28335350Y-57083522D01*
X28335350Y-57083522D02*
X28375826Y-57164474D01*
X28375826Y-57164474D02*
X28416303Y-57204951D01*
X28416303Y-57204951D02*
X28497255Y-57245427D01*
X28497255Y-57245427D02*
X28659160Y-57245427D01*
X28659160Y-57245427D02*
X28740112Y-57204951D01*
X28740112Y-57204951D02*
X28780588Y-57164474D01*
X28780588Y-57164474D02*
X28821065Y-57083522D01*
X28821065Y-57083522D02*
X28821065Y-56881141D01*
X28821065Y-56881141D02*
X28780588Y-56800189D01*
X28780588Y-56800189D02*
X28740112Y-56759712D01*
X28740112Y-56759712D02*
X28659160Y-56719236D01*
X28659160Y-56719236D02*
X28497255Y-56719236D01*
X28497255Y-56719236D02*
X28416303Y-56759712D01*
X28416303Y-56759712D02*
X28375826Y-56800189D01*
X28375826Y-56800189D02*
X28335350Y-56881141D01*
X25016303Y-58975903D02*
X24935350Y-58935427D01*
X24935350Y-58935427D02*
X24813922Y-58935427D01*
X24813922Y-58935427D02*
X24692493Y-58975903D01*
X24692493Y-58975903D02*
X24611541Y-59056855D01*
X24611541Y-59056855D02*
X24571064Y-59137808D01*
X24571064Y-59137808D02*
X24530588Y-59299712D01*
X24530588Y-59299712D02*
X24530588Y-59421141D01*
X24530588Y-59421141D02*
X24571064Y-59583046D01*
X24571064Y-59583046D02*
X24611541Y-59663998D01*
X24611541Y-59663998D02*
X24692493Y-59744951D01*
X24692493Y-59744951D02*
X24813922Y-59785427D01*
X24813922Y-59785427D02*
X24894874Y-59785427D01*
X24894874Y-59785427D02*
X25016303Y-59744951D01*
X25016303Y-59744951D02*
X25056779Y-59704474D01*
X25056779Y-59704474D02*
X25056779Y-59421141D01*
X25056779Y-59421141D02*
X24894874Y-59421141D01*
X25421064Y-59785427D02*
X25421064Y-58935427D01*
X25421064Y-58935427D02*
X25744874Y-58935427D01*
X25744874Y-58935427D02*
X25825826Y-58975903D01*
X25825826Y-58975903D02*
X25866303Y-59016379D01*
X25866303Y-59016379D02*
X25906779Y-59097331D01*
X25906779Y-59097331D02*
X25906779Y-59218760D01*
X25906779Y-59218760D02*
X25866303Y-59299712D01*
X25866303Y-59299712D02*
X25825826Y-59340189D01*
X25825826Y-59340189D02*
X25744874Y-59380665D01*
X25744874Y-59380665D02*
X25421064Y-59380665D01*
X26271064Y-59785427D02*
X26271064Y-58935427D01*
X26837731Y-58935427D02*
X26999636Y-58935427D01*
X26999636Y-58935427D02*
X27080588Y-58975903D01*
X27080588Y-58975903D02*
X27161541Y-59056855D01*
X27161541Y-59056855D02*
X27202017Y-59218760D01*
X27202017Y-59218760D02*
X27202017Y-59502093D01*
X27202017Y-59502093D02*
X27161541Y-59663998D01*
X27161541Y-59663998D02*
X27080588Y-59744951D01*
X27080588Y-59744951D02*
X26999636Y-59785427D01*
X26999636Y-59785427D02*
X26837731Y-59785427D01*
X26837731Y-59785427D02*
X26756779Y-59744951D01*
X26756779Y-59744951D02*
X26675826Y-59663998D01*
X26675826Y-59663998D02*
X26635350Y-59502093D01*
X26635350Y-59502093D02*
X26635350Y-59218760D01*
X26635350Y-59218760D02*
X26675826Y-59056855D01*
X26675826Y-59056855D02*
X26756779Y-58975903D01*
X26756779Y-58975903D02*
X26837731Y-58935427D01*
X27525826Y-59016379D02*
X27566302Y-58975903D01*
X27566302Y-58975903D02*
X27647255Y-58935427D01*
X27647255Y-58935427D02*
X27849636Y-58935427D01*
X27849636Y-58935427D02*
X27930588Y-58975903D01*
X27930588Y-58975903D02*
X27971064Y-59016379D01*
X27971064Y-59016379D02*
X28011541Y-59097331D01*
X28011541Y-59097331D02*
X28011541Y-59178284D01*
X28011541Y-59178284D02*
X27971064Y-59299712D01*
X27971064Y-59299712D02*
X27485350Y-59785427D01*
X27485350Y-59785427D02*
X28011541Y-59785427D01*
X28294874Y-58935427D02*
X28861541Y-58935427D01*
X28861541Y-58935427D02*
X28497255Y-59785427D01*
X25016303Y-61515903D02*
X24935350Y-61475427D01*
X24935350Y-61475427D02*
X24813922Y-61475427D01*
X24813922Y-61475427D02*
X24692493Y-61515903D01*
X24692493Y-61515903D02*
X24611541Y-61596855D01*
X24611541Y-61596855D02*
X24571064Y-61677808D01*
X24571064Y-61677808D02*
X24530588Y-61839712D01*
X24530588Y-61839712D02*
X24530588Y-61961141D01*
X24530588Y-61961141D02*
X24571064Y-62123046D01*
X24571064Y-62123046D02*
X24611541Y-62203998D01*
X24611541Y-62203998D02*
X24692493Y-62284951D01*
X24692493Y-62284951D02*
X24813922Y-62325427D01*
X24813922Y-62325427D02*
X24894874Y-62325427D01*
X24894874Y-62325427D02*
X25016303Y-62284951D01*
X25016303Y-62284951D02*
X25056779Y-62244474D01*
X25056779Y-62244474D02*
X25056779Y-61961141D01*
X25056779Y-61961141D02*
X24894874Y-61961141D01*
X25421064Y-62325427D02*
X25421064Y-61475427D01*
X25421064Y-61475427D02*
X25744874Y-61475427D01*
X25744874Y-61475427D02*
X25825826Y-61515903D01*
X25825826Y-61515903D02*
X25866303Y-61556379D01*
X25866303Y-61556379D02*
X25906779Y-61637331D01*
X25906779Y-61637331D02*
X25906779Y-61758760D01*
X25906779Y-61758760D02*
X25866303Y-61839712D01*
X25866303Y-61839712D02*
X25825826Y-61880189D01*
X25825826Y-61880189D02*
X25744874Y-61920665D01*
X25744874Y-61920665D02*
X25421064Y-61920665D01*
X26271064Y-62325427D02*
X26271064Y-61475427D01*
X26837731Y-61475427D02*
X26999636Y-61475427D01*
X26999636Y-61475427D02*
X27080588Y-61515903D01*
X27080588Y-61515903D02*
X27161541Y-61596855D01*
X27161541Y-61596855D02*
X27202017Y-61758760D01*
X27202017Y-61758760D02*
X27202017Y-62042093D01*
X27202017Y-62042093D02*
X27161541Y-62203998D01*
X27161541Y-62203998D02*
X27080588Y-62284951D01*
X27080588Y-62284951D02*
X26999636Y-62325427D01*
X26999636Y-62325427D02*
X26837731Y-62325427D01*
X26837731Y-62325427D02*
X26756779Y-62284951D01*
X26756779Y-62284951D02*
X26675826Y-62203998D01*
X26675826Y-62203998D02*
X26635350Y-62042093D01*
X26635350Y-62042093D02*
X26635350Y-61758760D01*
X26635350Y-61758760D02*
X26675826Y-61596855D01*
X26675826Y-61596855D02*
X26756779Y-61515903D01*
X26756779Y-61515903D02*
X26837731Y-61475427D01*
X28011541Y-62325427D02*
X27525826Y-62325427D01*
X27768683Y-62325427D02*
X27768683Y-61475427D01*
X27768683Y-61475427D02*
X27687731Y-61596855D01*
X27687731Y-61596855D02*
X27606779Y-61677808D01*
X27606779Y-61677808D02*
X27525826Y-61718284D01*
X28740112Y-61758760D02*
X28740112Y-62325427D01*
X28537731Y-61434951D02*
X28335350Y-62042093D01*
X28335350Y-62042093D02*
X28861541Y-62042093D01*
X29792493Y-61434951D02*
X29063922Y-62527808D01*
X30075826Y-62325427D02*
X30075826Y-61475427D01*
X30075826Y-61475427D02*
X30359160Y-62082570D01*
X30359160Y-62082570D02*
X30642493Y-61475427D01*
X30642493Y-61475427D02*
X30642493Y-62325427D01*
X30925827Y-61475427D02*
X31411541Y-61475427D01*
X31168684Y-62325427D02*
X31168684Y-61475427D01*
X31694874Y-62325427D02*
X31694874Y-61475427D01*
X31694874Y-61475427D02*
X31978208Y-62082570D01*
X31978208Y-62082570D02*
X32261541Y-61475427D01*
X32261541Y-61475427D02*
X32261541Y-62325427D01*
X32625827Y-62284951D02*
X32747256Y-62325427D01*
X32747256Y-62325427D02*
X32949637Y-62325427D01*
X32949637Y-62325427D02*
X33030589Y-62284951D01*
X33030589Y-62284951D02*
X33071065Y-62244474D01*
X33071065Y-62244474D02*
X33111542Y-62163522D01*
X33111542Y-62163522D02*
X33111542Y-62082570D01*
X33111542Y-62082570D02*
X33071065Y-62001617D01*
X33071065Y-62001617D02*
X33030589Y-61961141D01*
X33030589Y-61961141D02*
X32949637Y-61920665D01*
X32949637Y-61920665D02*
X32787732Y-61880189D01*
X32787732Y-61880189D02*
X32706780Y-61839712D01*
X32706780Y-61839712D02*
X32666303Y-61799236D01*
X32666303Y-61799236D02*
X32625827Y-61718284D01*
X32625827Y-61718284D02*
X32625827Y-61637331D01*
X32625827Y-61637331D02*
X32666303Y-61556379D01*
X32666303Y-61556379D02*
X32706780Y-61515903D01*
X32706780Y-61515903D02*
X32787732Y-61475427D01*
X32787732Y-61475427D02*
X32990113Y-61475427D01*
X32990113Y-61475427D02*
X33111542Y-61515903D01*
X25016303Y-64055903D02*
X24935350Y-64015427D01*
X24935350Y-64015427D02*
X24813922Y-64015427D01*
X24813922Y-64015427D02*
X24692493Y-64055903D01*
X24692493Y-64055903D02*
X24611541Y-64136855D01*
X24611541Y-64136855D02*
X24571064Y-64217808D01*
X24571064Y-64217808D02*
X24530588Y-64379712D01*
X24530588Y-64379712D02*
X24530588Y-64501141D01*
X24530588Y-64501141D02*
X24571064Y-64663046D01*
X24571064Y-64663046D02*
X24611541Y-64743998D01*
X24611541Y-64743998D02*
X24692493Y-64824951D01*
X24692493Y-64824951D02*
X24813922Y-64865427D01*
X24813922Y-64865427D02*
X24894874Y-64865427D01*
X24894874Y-64865427D02*
X25016303Y-64824951D01*
X25016303Y-64824951D02*
X25056779Y-64784474D01*
X25056779Y-64784474D02*
X25056779Y-64501141D01*
X25056779Y-64501141D02*
X24894874Y-64501141D01*
X25421064Y-64865427D02*
X25421064Y-64015427D01*
X25421064Y-64015427D02*
X25744874Y-64015427D01*
X25744874Y-64015427D02*
X25825826Y-64055903D01*
X25825826Y-64055903D02*
X25866303Y-64096379D01*
X25866303Y-64096379D02*
X25906779Y-64177331D01*
X25906779Y-64177331D02*
X25906779Y-64298760D01*
X25906779Y-64298760D02*
X25866303Y-64379712D01*
X25866303Y-64379712D02*
X25825826Y-64420189D01*
X25825826Y-64420189D02*
X25744874Y-64460665D01*
X25744874Y-64460665D02*
X25421064Y-64460665D01*
X26271064Y-64865427D02*
X26271064Y-64015427D01*
X26837731Y-64015427D02*
X26999636Y-64015427D01*
X26999636Y-64015427D02*
X27080588Y-64055903D01*
X27080588Y-64055903D02*
X27161541Y-64136855D01*
X27161541Y-64136855D02*
X27202017Y-64298760D01*
X27202017Y-64298760D02*
X27202017Y-64582093D01*
X27202017Y-64582093D02*
X27161541Y-64743998D01*
X27161541Y-64743998D02*
X27080588Y-64824951D01*
X27080588Y-64824951D02*
X26999636Y-64865427D01*
X26999636Y-64865427D02*
X26837731Y-64865427D01*
X26837731Y-64865427D02*
X26756779Y-64824951D01*
X26756779Y-64824951D02*
X26675826Y-64743998D01*
X26675826Y-64743998D02*
X26635350Y-64582093D01*
X26635350Y-64582093D02*
X26635350Y-64298760D01*
X26635350Y-64298760D02*
X26675826Y-64136855D01*
X26675826Y-64136855D02*
X26756779Y-64055903D01*
X26756779Y-64055903D02*
X26837731Y-64015427D01*
X28011541Y-64865427D02*
X27525826Y-64865427D01*
X27768683Y-64865427D02*
X27768683Y-64015427D01*
X27768683Y-64015427D02*
X27687731Y-64136855D01*
X27687731Y-64136855D02*
X27606779Y-64217808D01*
X27606779Y-64217808D02*
X27525826Y-64258284D01*
X28335350Y-64096379D02*
X28375826Y-64055903D01*
X28375826Y-64055903D02*
X28456779Y-64015427D01*
X28456779Y-64015427D02*
X28659160Y-64015427D01*
X28659160Y-64015427D02*
X28740112Y-64055903D01*
X28740112Y-64055903D02*
X28780588Y-64096379D01*
X28780588Y-64096379D02*
X28821065Y-64177331D01*
X28821065Y-64177331D02*
X28821065Y-64258284D01*
X28821065Y-64258284D02*
X28780588Y-64379712D01*
X28780588Y-64379712D02*
X28294874Y-64865427D01*
X28294874Y-64865427D02*
X28821065Y-64865427D01*
X29792493Y-63974951D02*
X29063922Y-65067808D01*
X30075826Y-64865427D02*
X30075826Y-64015427D01*
X30075826Y-64015427D02*
X30359160Y-64622570D01*
X30359160Y-64622570D02*
X30642493Y-64015427D01*
X30642493Y-64015427D02*
X30642493Y-64865427D01*
X30925827Y-64015427D02*
X31411541Y-64015427D01*
X31168684Y-64865427D02*
X31168684Y-64015427D01*
X31694874Y-64865427D02*
X31694874Y-64015427D01*
X31694874Y-64015427D02*
X31897255Y-64015427D01*
X31897255Y-64015427D02*
X32018684Y-64055903D01*
X32018684Y-64055903D02*
X32099636Y-64136855D01*
X32099636Y-64136855D02*
X32140113Y-64217808D01*
X32140113Y-64217808D02*
X32180589Y-64379712D01*
X32180589Y-64379712D02*
X32180589Y-64501141D01*
X32180589Y-64501141D02*
X32140113Y-64663046D01*
X32140113Y-64663046D02*
X32099636Y-64743998D01*
X32099636Y-64743998D02*
X32018684Y-64824951D01*
X32018684Y-64824951D02*
X31897255Y-64865427D01*
X31897255Y-64865427D02*
X31694874Y-64865427D01*
X32544874Y-64865427D02*
X32544874Y-64015427D01*
X25130588Y-66522438D02*
X25035350Y-66474819D01*
X25035350Y-66474819D02*
X24892493Y-66474819D01*
X24892493Y-66474819D02*
X24749636Y-66522438D01*
X24749636Y-66522438D02*
X24654398Y-66617676D01*
X24654398Y-66617676D02*
X24606779Y-66712914D01*
X24606779Y-66712914D02*
X24559160Y-66903390D01*
X24559160Y-66903390D02*
X24559160Y-67046247D01*
X24559160Y-67046247D02*
X24606779Y-67236723D01*
X24606779Y-67236723D02*
X24654398Y-67331961D01*
X24654398Y-67331961D02*
X24749636Y-67427200D01*
X24749636Y-67427200D02*
X24892493Y-67474819D01*
X24892493Y-67474819D02*
X24987731Y-67474819D01*
X24987731Y-67474819D02*
X25130588Y-67427200D01*
X25130588Y-67427200D02*
X25178207Y-67379580D01*
X25178207Y-67379580D02*
X25178207Y-67046247D01*
X25178207Y-67046247D02*
X24987731Y-67046247D01*
X25606779Y-67474819D02*
X25606779Y-66474819D01*
X25606779Y-66474819D02*
X26178207Y-67474819D01*
X26178207Y-67474819D02*
X26178207Y-66474819D01*
X26654398Y-67474819D02*
X26654398Y-66474819D01*
X26654398Y-66474819D02*
X26892493Y-66474819D01*
X26892493Y-66474819D02*
X27035350Y-66522438D01*
X27035350Y-66522438D02*
X27130588Y-66617676D01*
X27130588Y-66617676D02*
X27178207Y-66712914D01*
X27178207Y-66712914D02*
X27225826Y-66903390D01*
X27225826Y-66903390D02*
X27225826Y-67046247D01*
X27225826Y-67046247D02*
X27178207Y-67236723D01*
X27178207Y-67236723D02*
X27130588Y-67331961D01*
X27130588Y-67331961D02*
X27035350Y-67427200D01*
X27035350Y-67427200D02*
X26892493Y-67474819D01*
X26892493Y-67474819D02*
X26654398Y-67474819D01*
X25016303Y-69135903D02*
X24935350Y-69095427D01*
X24935350Y-69095427D02*
X24813922Y-69095427D01*
X24813922Y-69095427D02*
X24692493Y-69135903D01*
X24692493Y-69135903D02*
X24611541Y-69216855D01*
X24611541Y-69216855D02*
X24571064Y-69297808D01*
X24571064Y-69297808D02*
X24530588Y-69459712D01*
X24530588Y-69459712D02*
X24530588Y-69581141D01*
X24530588Y-69581141D02*
X24571064Y-69743046D01*
X24571064Y-69743046D02*
X24611541Y-69823998D01*
X24611541Y-69823998D02*
X24692493Y-69904951D01*
X24692493Y-69904951D02*
X24813922Y-69945427D01*
X24813922Y-69945427D02*
X24894874Y-69945427D01*
X24894874Y-69945427D02*
X25016303Y-69904951D01*
X25016303Y-69904951D02*
X25056779Y-69864474D01*
X25056779Y-69864474D02*
X25056779Y-69581141D01*
X25056779Y-69581141D02*
X24894874Y-69581141D01*
X25421064Y-69945427D02*
X25421064Y-69095427D01*
X25421064Y-69095427D02*
X25744874Y-69095427D01*
X25744874Y-69095427D02*
X25825826Y-69135903D01*
X25825826Y-69135903D02*
X25866303Y-69176379D01*
X25866303Y-69176379D02*
X25906779Y-69257331D01*
X25906779Y-69257331D02*
X25906779Y-69378760D01*
X25906779Y-69378760D02*
X25866303Y-69459712D01*
X25866303Y-69459712D02*
X25825826Y-69500189D01*
X25825826Y-69500189D02*
X25744874Y-69540665D01*
X25744874Y-69540665D02*
X25421064Y-69540665D01*
X26271064Y-69945427D02*
X26271064Y-69095427D01*
X26837731Y-69095427D02*
X26999636Y-69095427D01*
X26999636Y-69095427D02*
X27080588Y-69135903D01*
X27080588Y-69135903D02*
X27161541Y-69216855D01*
X27161541Y-69216855D02*
X27202017Y-69378760D01*
X27202017Y-69378760D02*
X27202017Y-69662093D01*
X27202017Y-69662093D02*
X27161541Y-69823998D01*
X27161541Y-69823998D02*
X27080588Y-69904951D01*
X27080588Y-69904951D02*
X26999636Y-69945427D01*
X26999636Y-69945427D02*
X26837731Y-69945427D01*
X26837731Y-69945427D02*
X26756779Y-69904951D01*
X26756779Y-69904951D02*
X26675826Y-69823998D01*
X26675826Y-69823998D02*
X26635350Y-69662093D01*
X26635350Y-69662093D02*
X26635350Y-69378760D01*
X26635350Y-69378760D02*
X26675826Y-69216855D01*
X26675826Y-69216855D02*
X26756779Y-69135903D01*
X26756779Y-69135903D02*
X26837731Y-69095427D01*
X28011541Y-69945427D02*
X27525826Y-69945427D01*
X27768683Y-69945427D02*
X27768683Y-69095427D01*
X27768683Y-69095427D02*
X27687731Y-69216855D01*
X27687731Y-69216855D02*
X27606779Y-69297808D01*
X27606779Y-69297808D02*
X27525826Y-69338284D01*
X28294874Y-69095427D02*
X28821065Y-69095427D01*
X28821065Y-69095427D02*
X28537731Y-69419236D01*
X28537731Y-69419236D02*
X28659160Y-69419236D01*
X28659160Y-69419236D02*
X28740112Y-69459712D01*
X28740112Y-69459712D02*
X28780588Y-69500189D01*
X28780588Y-69500189D02*
X28821065Y-69581141D01*
X28821065Y-69581141D02*
X28821065Y-69783522D01*
X28821065Y-69783522D02*
X28780588Y-69864474D01*
X28780588Y-69864474D02*
X28740112Y-69904951D01*
X28740112Y-69904951D02*
X28659160Y-69945427D01*
X28659160Y-69945427D02*
X28416303Y-69945427D01*
X28416303Y-69945427D02*
X28335350Y-69904951D01*
X28335350Y-69904951D02*
X28294874Y-69864474D01*
X29792493Y-69054951D02*
X29063922Y-70147808D01*
X30075826Y-69945427D02*
X30075826Y-69095427D01*
X30075826Y-69095427D02*
X30359160Y-69702570D01*
X30359160Y-69702570D02*
X30642493Y-69095427D01*
X30642493Y-69095427D02*
X30642493Y-69945427D01*
X30925827Y-69095427D02*
X31411541Y-69095427D01*
X31168684Y-69945427D02*
X31168684Y-69095427D01*
X32180589Y-69864474D02*
X32140113Y-69904951D01*
X32140113Y-69904951D02*
X32018684Y-69945427D01*
X32018684Y-69945427D02*
X31937732Y-69945427D01*
X31937732Y-69945427D02*
X31816303Y-69904951D01*
X31816303Y-69904951D02*
X31735351Y-69823998D01*
X31735351Y-69823998D02*
X31694874Y-69743046D01*
X31694874Y-69743046D02*
X31654398Y-69581141D01*
X31654398Y-69581141D02*
X31654398Y-69459712D01*
X31654398Y-69459712D02*
X31694874Y-69297808D01*
X31694874Y-69297808D02*
X31735351Y-69216855D01*
X31735351Y-69216855D02*
X31816303Y-69135903D01*
X31816303Y-69135903D02*
X31937732Y-69095427D01*
X31937732Y-69095427D02*
X32018684Y-69095427D01*
X32018684Y-69095427D02*
X32140113Y-69135903D01*
X32140113Y-69135903D02*
X32180589Y-69176379D01*
X32544874Y-69945427D02*
X32544874Y-69095427D01*
X33030589Y-69945427D02*
X32666303Y-69459712D01*
X33030589Y-69095427D02*
X32544874Y-69581141D01*
X24571064Y-72485427D02*
X24571064Y-71635427D01*
X24571064Y-71635427D02*
X24773445Y-71635427D01*
X24773445Y-71635427D02*
X24894874Y-71675903D01*
X24894874Y-71675903D02*
X24975826Y-71756855D01*
X24975826Y-71756855D02*
X25016303Y-71837808D01*
X25016303Y-71837808D02*
X25056779Y-71999712D01*
X25056779Y-71999712D02*
X25056779Y-72121141D01*
X25056779Y-72121141D02*
X25016303Y-72283046D01*
X25016303Y-72283046D02*
X24975826Y-72363998D01*
X24975826Y-72363998D02*
X24894874Y-72444951D01*
X24894874Y-72444951D02*
X24773445Y-72485427D01*
X24773445Y-72485427D02*
X24571064Y-72485427D01*
X25380588Y-71716379D02*
X25421064Y-71675903D01*
X25421064Y-71675903D02*
X25502017Y-71635427D01*
X25502017Y-71635427D02*
X25704398Y-71635427D01*
X25704398Y-71635427D02*
X25785350Y-71675903D01*
X25785350Y-71675903D02*
X25825826Y-71716379D01*
X25825826Y-71716379D02*
X25866303Y-71797331D01*
X25866303Y-71797331D02*
X25866303Y-71878284D01*
X25866303Y-71878284D02*
X25825826Y-71999712D01*
X25825826Y-71999712D02*
X25340112Y-72485427D01*
X25340112Y-72485427D02*
X25866303Y-72485427D01*
X24571064Y-75025427D02*
X24571064Y-74175427D01*
X24571064Y-74175427D02*
X24773445Y-74175427D01*
X24773445Y-74175427D02*
X24894874Y-74215903D01*
X24894874Y-74215903D02*
X24975826Y-74296855D01*
X24975826Y-74296855D02*
X25016303Y-74377808D01*
X25016303Y-74377808D02*
X25056779Y-74539712D01*
X25056779Y-74539712D02*
X25056779Y-74661141D01*
X25056779Y-74661141D02*
X25016303Y-74823046D01*
X25016303Y-74823046D02*
X24975826Y-74903998D01*
X24975826Y-74903998D02*
X24894874Y-74984951D01*
X24894874Y-74984951D02*
X24773445Y-75025427D01*
X24773445Y-75025427D02*
X24571064Y-75025427D01*
X25340112Y-74175427D02*
X25866303Y-74175427D01*
X25866303Y-74175427D02*
X25582969Y-74499236D01*
X25582969Y-74499236D02*
X25704398Y-74499236D01*
X25704398Y-74499236D02*
X25785350Y-74539712D01*
X25785350Y-74539712D02*
X25825826Y-74580189D01*
X25825826Y-74580189D02*
X25866303Y-74661141D01*
X25866303Y-74661141D02*
X25866303Y-74863522D01*
X25866303Y-74863522D02*
X25825826Y-74944474D01*
X25825826Y-74944474D02*
X25785350Y-74984951D01*
X25785350Y-74984951D02*
X25704398Y-75025427D01*
X25704398Y-75025427D02*
X25461541Y-75025427D01*
X25461541Y-75025427D02*
X25380588Y-74984951D01*
X25380588Y-74984951D02*
X25340112Y-74944474D01*
X25056779Y-77484474D02*
X25016303Y-77524951D01*
X25016303Y-77524951D02*
X24894874Y-77565427D01*
X24894874Y-77565427D02*
X24813922Y-77565427D01*
X24813922Y-77565427D02*
X24692493Y-77524951D01*
X24692493Y-77524951D02*
X24611541Y-77443998D01*
X24611541Y-77443998D02*
X24571064Y-77363046D01*
X24571064Y-77363046D02*
X24530588Y-77201141D01*
X24530588Y-77201141D02*
X24530588Y-77079712D01*
X24530588Y-77079712D02*
X24571064Y-76917808D01*
X24571064Y-76917808D02*
X24611541Y-76836855D01*
X24611541Y-76836855D02*
X24692493Y-76755903D01*
X24692493Y-76755903D02*
X24813922Y-76715427D01*
X24813922Y-76715427D02*
X24894874Y-76715427D01*
X24894874Y-76715427D02*
X25016303Y-76755903D01*
X25016303Y-76755903D02*
X25056779Y-76796379D01*
X25421064Y-77565427D02*
X25421064Y-76715427D01*
X25421064Y-76715427D02*
X25704398Y-77322570D01*
X25704398Y-77322570D02*
X25987731Y-76715427D01*
X25987731Y-76715427D02*
X25987731Y-77565427D01*
X26392493Y-77565427D02*
X26392493Y-76715427D01*
X26392493Y-76715427D02*
X26594874Y-76715427D01*
X26594874Y-76715427D02*
X26716303Y-76755903D01*
X26716303Y-76755903D02*
X26797255Y-76836855D01*
X26797255Y-76836855D02*
X26837732Y-76917808D01*
X26837732Y-76917808D02*
X26878208Y-77079712D01*
X26878208Y-77079712D02*
X26878208Y-77201141D01*
X26878208Y-77201141D02*
X26837732Y-77363046D01*
X26837732Y-77363046D02*
X26797255Y-77443998D01*
X26797255Y-77443998D02*
X26716303Y-77524951D01*
X26716303Y-77524951D02*
X26594874Y-77565427D01*
X26594874Y-77565427D02*
X26392493Y-77565427D01*
X24501921Y-36468289D02*
X24835254Y-36468289D01*
X24978111Y-36992099D02*
X24501921Y-36992099D01*
X24501921Y-36992099D02*
X24501921Y-35992099D01*
X24501921Y-35992099D02*
X24978111Y-35992099D01*
X25406683Y-36992099D02*
X25406683Y-35992099D01*
X25406683Y-35992099D02*
X25978111Y-36992099D01*
X25978111Y-36992099D02*
X25978111Y-35992099D01*
X27168587Y-35944480D02*
X26311445Y-37230194D01*
X28073349Y-36992099D02*
X27740016Y-36515908D01*
X27501921Y-36992099D02*
X27501921Y-35992099D01*
X27501921Y-35992099D02*
X27882873Y-35992099D01*
X27882873Y-35992099D02*
X27978111Y-36039718D01*
X27978111Y-36039718D02*
X28025730Y-36087337D01*
X28025730Y-36087337D02*
X28073349Y-36182575D01*
X28073349Y-36182575D02*
X28073349Y-36325432D01*
X28073349Y-36325432D02*
X28025730Y-36420670D01*
X28025730Y-36420670D02*
X27978111Y-36468289D01*
X27978111Y-36468289D02*
X27882873Y-36515908D01*
X27882873Y-36515908D02*
X27501921Y-36515908D01*
X28501921Y-36468289D02*
X28835254Y-36468289D01*
X28978111Y-36992099D02*
X28501921Y-36992099D01*
X28501921Y-36992099D02*
X28501921Y-35992099D01*
X28501921Y-35992099D02*
X28978111Y-35992099D01*
X29359064Y-36944480D02*
X29501921Y-36992099D01*
X29501921Y-36992099D02*
X29740016Y-36992099D01*
X29740016Y-36992099D02*
X29835254Y-36944480D01*
X29835254Y-36944480D02*
X29882873Y-36896860D01*
X29882873Y-36896860D02*
X29930492Y-36801622D01*
X29930492Y-36801622D02*
X29930492Y-36706384D01*
X29930492Y-36706384D02*
X29882873Y-36611146D01*
X29882873Y-36611146D02*
X29835254Y-36563527D01*
X29835254Y-36563527D02*
X29740016Y-36515908D01*
X29740016Y-36515908D02*
X29549540Y-36468289D01*
X29549540Y-36468289D02*
X29454302Y-36420670D01*
X29454302Y-36420670D02*
X29406683Y-36373051D01*
X29406683Y-36373051D02*
X29359064Y-36277813D01*
X29359064Y-36277813D02*
X29359064Y-36182575D01*
X29359064Y-36182575D02*
X29406683Y-36087337D01*
X29406683Y-36087337D02*
X29454302Y-36039718D01*
X29454302Y-36039718D02*
X29549540Y-35992099D01*
X29549540Y-35992099D02*
X29787635Y-35992099D01*
X29787635Y-35992099D02*
X29930492Y-36039718D01*
X30359064Y-36468289D02*
X30692397Y-36468289D01*
X30835254Y-36992099D02*
X30359064Y-36992099D01*
X30359064Y-36992099D02*
X30359064Y-35992099D01*
X30359064Y-35992099D02*
X30835254Y-35992099D01*
X31120969Y-35992099D02*
X31692397Y-35992099D01*
X31406683Y-36992099D02*
X31406683Y-35992099D01*
X44745601Y-33502438D02*
X44650363Y-33454819D01*
X44650363Y-33454819D02*
X44507506Y-33454819D01*
X44507506Y-33454819D02*
X44364649Y-33502438D01*
X44364649Y-33502438D02*
X44269411Y-33597676D01*
X44269411Y-33597676D02*
X44221792Y-33692914D01*
X44221792Y-33692914D02*
X44174173Y-33883390D01*
X44174173Y-33883390D02*
X44174173Y-34026247D01*
X44174173Y-34026247D02*
X44221792Y-34216723D01*
X44221792Y-34216723D02*
X44269411Y-34311961D01*
X44269411Y-34311961D02*
X44364649Y-34407200D01*
X44364649Y-34407200D02*
X44507506Y-34454819D01*
X44507506Y-34454819D02*
X44602744Y-34454819D01*
X44602744Y-34454819D02*
X44745601Y-34407200D01*
X44745601Y-34407200D02*
X44793220Y-34359580D01*
X44793220Y-34359580D02*
X44793220Y-34026247D01*
X44793220Y-34026247D02*
X44602744Y-34026247D01*
X45221792Y-34454819D02*
X45221792Y-33454819D01*
X45221792Y-33454819D02*
X45793220Y-34454819D01*
X45793220Y-34454819D02*
X45793220Y-33454819D01*
X46269411Y-34454819D02*
X46269411Y-33454819D01*
X46269411Y-33454819D02*
X46507506Y-33454819D01*
X46507506Y-33454819D02*
X46650363Y-33502438D01*
X46650363Y-33502438D02*
X46745601Y-33597676D01*
X46745601Y-33597676D02*
X46793220Y-33692914D01*
X46793220Y-33692914D02*
X46840839Y-33883390D01*
X46840839Y-33883390D02*
X46840839Y-34026247D01*
X46840839Y-34026247D02*
X46793220Y-34216723D01*
X46793220Y-34216723D02*
X46745601Y-34311961D01*
X46745601Y-34311961D02*
X46650363Y-34407200D01*
X46650363Y-34407200D02*
X46507506Y-34454819D01*
X46507506Y-34454819D02*
X46269411Y-34454819D01*
X43064649Y-36115903D02*
X42983696Y-36075427D01*
X42983696Y-36075427D02*
X42862268Y-36075427D01*
X42862268Y-36075427D02*
X42740839Y-36115903D01*
X42740839Y-36115903D02*
X42659887Y-36196855D01*
X42659887Y-36196855D02*
X42619410Y-36277808D01*
X42619410Y-36277808D02*
X42578934Y-36439712D01*
X42578934Y-36439712D02*
X42578934Y-36561141D01*
X42578934Y-36561141D02*
X42619410Y-36723046D01*
X42619410Y-36723046D02*
X42659887Y-36803998D01*
X42659887Y-36803998D02*
X42740839Y-36884951D01*
X42740839Y-36884951D02*
X42862268Y-36925427D01*
X42862268Y-36925427D02*
X42943220Y-36925427D01*
X42943220Y-36925427D02*
X43064649Y-36884951D01*
X43064649Y-36884951D02*
X43105125Y-36844474D01*
X43105125Y-36844474D02*
X43105125Y-36561141D01*
X43105125Y-36561141D02*
X42943220Y-36561141D01*
X43469410Y-36925427D02*
X43469410Y-36075427D01*
X43469410Y-36075427D02*
X43793220Y-36075427D01*
X43793220Y-36075427D02*
X43874172Y-36115903D01*
X43874172Y-36115903D02*
X43914649Y-36156379D01*
X43914649Y-36156379D02*
X43955125Y-36237331D01*
X43955125Y-36237331D02*
X43955125Y-36358760D01*
X43955125Y-36358760D02*
X43914649Y-36439712D01*
X43914649Y-36439712D02*
X43874172Y-36480189D01*
X43874172Y-36480189D02*
X43793220Y-36520665D01*
X43793220Y-36520665D02*
X43469410Y-36520665D01*
X44319410Y-36925427D02*
X44319410Y-36075427D01*
X44886077Y-36075427D02*
X45047982Y-36075427D01*
X45047982Y-36075427D02*
X45128934Y-36115903D01*
X45128934Y-36115903D02*
X45209887Y-36196855D01*
X45209887Y-36196855D02*
X45250363Y-36358760D01*
X45250363Y-36358760D02*
X45250363Y-36642093D01*
X45250363Y-36642093D02*
X45209887Y-36803998D01*
X45209887Y-36803998D02*
X45128934Y-36884951D01*
X45128934Y-36884951D02*
X45047982Y-36925427D01*
X45047982Y-36925427D02*
X44886077Y-36925427D01*
X44886077Y-36925427D02*
X44805125Y-36884951D01*
X44805125Y-36884951D02*
X44724172Y-36803998D01*
X44724172Y-36803998D02*
X44683696Y-36642093D01*
X44683696Y-36642093D02*
X44683696Y-36358760D01*
X44683696Y-36358760D02*
X44724172Y-36196855D01*
X44724172Y-36196855D02*
X44805125Y-36115903D01*
X44805125Y-36115903D02*
X44886077Y-36075427D01*
X45574172Y-36156379D02*
X45614648Y-36115903D01*
X45614648Y-36115903D02*
X45695601Y-36075427D01*
X45695601Y-36075427D02*
X45897982Y-36075427D01*
X45897982Y-36075427D02*
X45978934Y-36115903D01*
X45978934Y-36115903D02*
X46019410Y-36156379D01*
X46019410Y-36156379D02*
X46059887Y-36237331D01*
X46059887Y-36237331D02*
X46059887Y-36318284D01*
X46059887Y-36318284D02*
X46019410Y-36439712D01*
X46019410Y-36439712D02*
X45533696Y-36925427D01*
X45533696Y-36925427D02*
X46059887Y-36925427D01*
X46343220Y-36075427D02*
X46869411Y-36075427D01*
X46869411Y-36075427D02*
X46586077Y-36399236D01*
X46586077Y-36399236D02*
X46707506Y-36399236D01*
X46707506Y-36399236D02*
X46788458Y-36439712D01*
X46788458Y-36439712D02*
X46828934Y-36480189D01*
X46828934Y-36480189D02*
X46869411Y-36561141D01*
X46869411Y-36561141D02*
X46869411Y-36763522D01*
X46869411Y-36763522D02*
X46828934Y-36844474D01*
X46828934Y-36844474D02*
X46788458Y-36884951D01*
X46788458Y-36884951D02*
X46707506Y-36925427D01*
X46707506Y-36925427D02*
X46464649Y-36925427D01*
X46464649Y-36925427D02*
X46383696Y-36884951D01*
X46383696Y-36884951D02*
X46343220Y-36844474D01*
X43064649Y-38655903D02*
X42983696Y-38615427D01*
X42983696Y-38615427D02*
X42862268Y-38615427D01*
X42862268Y-38615427D02*
X42740839Y-38655903D01*
X42740839Y-38655903D02*
X42659887Y-38736855D01*
X42659887Y-38736855D02*
X42619410Y-38817808D01*
X42619410Y-38817808D02*
X42578934Y-38979712D01*
X42578934Y-38979712D02*
X42578934Y-39101141D01*
X42578934Y-39101141D02*
X42619410Y-39263046D01*
X42619410Y-39263046D02*
X42659887Y-39343998D01*
X42659887Y-39343998D02*
X42740839Y-39424951D01*
X42740839Y-39424951D02*
X42862268Y-39465427D01*
X42862268Y-39465427D02*
X42943220Y-39465427D01*
X42943220Y-39465427D02*
X43064649Y-39424951D01*
X43064649Y-39424951D02*
X43105125Y-39384474D01*
X43105125Y-39384474D02*
X43105125Y-39101141D01*
X43105125Y-39101141D02*
X42943220Y-39101141D01*
X43469410Y-39465427D02*
X43469410Y-38615427D01*
X43469410Y-38615427D02*
X43793220Y-38615427D01*
X43793220Y-38615427D02*
X43874172Y-38655903D01*
X43874172Y-38655903D02*
X43914649Y-38696379D01*
X43914649Y-38696379D02*
X43955125Y-38777331D01*
X43955125Y-38777331D02*
X43955125Y-38898760D01*
X43955125Y-38898760D02*
X43914649Y-38979712D01*
X43914649Y-38979712D02*
X43874172Y-39020189D01*
X43874172Y-39020189D02*
X43793220Y-39060665D01*
X43793220Y-39060665D02*
X43469410Y-39060665D01*
X44319410Y-39465427D02*
X44319410Y-38615427D01*
X44886077Y-38615427D02*
X45047982Y-38615427D01*
X45047982Y-38615427D02*
X45128934Y-38655903D01*
X45128934Y-38655903D02*
X45209887Y-38736855D01*
X45209887Y-38736855D02*
X45250363Y-38898760D01*
X45250363Y-38898760D02*
X45250363Y-39182093D01*
X45250363Y-39182093D02*
X45209887Y-39343998D01*
X45209887Y-39343998D02*
X45128934Y-39424951D01*
X45128934Y-39424951D02*
X45047982Y-39465427D01*
X45047982Y-39465427D02*
X44886077Y-39465427D01*
X44886077Y-39465427D02*
X44805125Y-39424951D01*
X44805125Y-39424951D02*
X44724172Y-39343998D01*
X44724172Y-39343998D02*
X44683696Y-39182093D01*
X44683696Y-39182093D02*
X44683696Y-38898760D01*
X44683696Y-38898760D02*
X44724172Y-38736855D01*
X44724172Y-38736855D02*
X44805125Y-38655903D01*
X44805125Y-38655903D02*
X44886077Y-38615427D01*
X45574172Y-38696379D02*
X45614648Y-38655903D01*
X45614648Y-38655903D02*
X45695601Y-38615427D01*
X45695601Y-38615427D02*
X45897982Y-38615427D01*
X45897982Y-38615427D02*
X45978934Y-38655903D01*
X45978934Y-38655903D02*
X46019410Y-38696379D01*
X46019410Y-38696379D02*
X46059887Y-38777331D01*
X46059887Y-38777331D02*
X46059887Y-38858284D01*
X46059887Y-38858284D02*
X46019410Y-38979712D01*
X46019410Y-38979712D02*
X45533696Y-39465427D01*
X45533696Y-39465427D02*
X46059887Y-39465427D01*
X46383696Y-38696379D02*
X46424172Y-38655903D01*
X46424172Y-38655903D02*
X46505125Y-38615427D01*
X46505125Y-38615427D02*
X46707506Y-38615427D01*
X46707506Y-38615427D02*
X46788458Y-38655903D01*
X46788458Y-38655903D02*
X46828934Y-38696379D01*
X46828934Y-38696379D02*
X46869411Y-38777331D01*
X46869411Y-38777331D02*
X46869411Y-38858284D01*
X46869411Y-38858284D02*
X46828934Y-38979712D01*
X46828934Y-38979712D02*
X46343220Y-39465427D01*
X46343220Y-39465427D02*
X46869411Y-39465427D01*
X38976554Y-41195903D02*
X38895601Y-41155427D01*
X38895601Y-41155427D02*
X38774173Y-41155427D01*
X38774173Y-41155427D02*
X38652744Y-41195903D01*
X38652744Y-41195903D02*
X38571792Y-41276855D01*
X38571792Y-41276855D02*
X38531315Y-41357808D01*
X38531315Y-41357808D02*
X38490839Y-41519712D01*
X38490839Y-41519712D02*
X38490839Y-41641141D01*
X38490839Y-41641141D02*
X38531315Y-41803046D01*
X38531315Y-41803046D02*
X38571792Y-41883998D01*
X38571792Y-41883998D02*
X38652744Y-41964951D01*
X38652744Y-41964951D02*
X38774173Y-42005427D01*
X38774173Y-42005427D02*
X38855125Y-42005427D01*
X38855125Y-42005427D02*
X38976554Y-41964951D01*
X38976554Y-41964951D02*
X39017030Y-41924474D01*
X39017030Y-41924474D02*
X39017030Y-41641141D01*
X39017030Y-41641141D02*
X38855125Y-41641141D01*
X39381315Y-42005427D02*
X39381315Y-41155427D01*
X39381315Y-41155427D02*
X39705125Y-41155427D01*
X39705125Y-41155427D02*
X39786077Y-41195903D01*
X39786077Y-41195903D02*
X39826554Y-41236379D01*
X39826554Y-41236379D02*
X39867030Y-41317331D01*
X39867030Y-41317331D02*
X39867030Y-41438760D01*
X39867030Y-41438760D02*
X39826554Y-41519712D01*
X39826554Y-41519712D02*
X39786077Y-41560189D01*
X39786077Y-41560189D02*
X39705125Y-41600665D01*
X39705125Y-41600665D02*
X39381315Y-41600665D01*
X40231315Y-42005427D02*
X40231315Y-41155427D01*
X40797982Y-41155427D02*
X40959887Y-41155427D01*
X40959887Y-41155427D02*
X41040839Y-41195903D01*
X41040839Y-41195903D02*
X41121792Y-41276855D01*
X41121792Y-41276855D02*
X41162268Y-41438760D01*
X41162268Y-41438760D02*
X41162268Y-41722093D01*
X41162268Y-41722093D02*
X41121792Y-41883998D01*
X41121792Y-41883998D02*
X41040839Y-41964951D01*
X41040839Y-41964951D02*
X40959887Y-42005427D01*
X40959887Y-42005427D02*
X40797982Y-42005427D01*
X40797982Y-42005427D02*
X40717030Y-41964951D01*
X40717030Y-41964951D02*
X40636077Y-41883998D01*
X40636077Y-41883998D02*
X40595601Y-41722093D01*
X40595601Y-41722093D02*
X40595601Y-41438760D01*
X40595601Y-41438760D02*
X40636077Y-41276855D01*
X40636077Y-41276855D02*
X40717030Y-41195903D01*
X40717030Y-41195903D02*
X40797982Y-41155427D01*
X41971792Y-42005427D02*
X41486077Y-42005427D01*
X41728934Y-42005427D02*
X41728934Y-41155427D01*
X41728934Y-41155427D02*
X41647982Y-41276855D01*
X41647982Y-41276855D02*
X41567030Y-41357808D01*
X41567030Y-41357808D02*
X41486077Y-41398284D01*
X42943220Y-41114951D02*
X42214649Y-42207808D01*
X43226553Y-41155427D02*
X43226553Y-41843522D01*
X43226553Y-41843522D02*
X43267030Y-41924474D01*
X43267030Y-41924474D02*
X43307506Y-41964951D01*
X43307506Y-41964951D02*
X43388458Y-42005427D01*
X43388458Y-42005427D02*
X43550363Y-42005427D01*
X43550363Y-42005427D02*
X43631315Y-41964951D01*
X43631315Y-41964951D02*
X43671792Y-41924474D01*
X43671792Y-41924474D02*
X43712268Y-41843522D01*
X43712268Y-41843522D02*
X43712268Y-41155427D01*
X44278934Y-41155427D02*
X44359887Y-41155427D01*
X44359887Y-41155427D02*
X44440839Y-41195903D01*
X44440839Y-41195903D02*
X44481315Y-41236379D01*
X44481315Y-41236379D02*
X44521791Y-41317331D01*
X44521791Y-41317331D02*
X44562268Y-41479236D01*
X44562268Y-41479236D02*
X44562268Y-41681617D01*
X44562268Y-41681617D02*
X44521791Y-41843522D01*
X44521791Y-41843522D02*
X44481315Y-41924474D01*
X44481315Y-41924474D02*
X44440839Y-41964951D01*
X44440839Y-41964951D02*
X44359887Y-42005427D01*
X44359887Y-42005427D02*
X44278934Y-42005427D01*
X44278934Y-42005427D02*
X44197982Y-41964951D01*
X44197982Y-41964951D02*
X44157506Y-41924474D01*
X44157506Y-41924474D02*
X44117029Y-41843522D01*
X44117029Y-41843522D02*
X44076553Y-41681617D01*
X44076553Y-41681617D02*
X44076553Y-41479236D01*
X44076553Y-41479236D02*
X44117029Y-41317331D01*
X44117029Y-41317331D02*
X44157506Y-41236379D01*
X44157506Y-41236379D02*
X44197982Y-41195903D01*
X44197982Y-41195903D02*
X44278934Y-41155427D01*
X44805125Y-41155427D02*
X45290839Y-41155427D01*
X45047982Y-42005427D02*
X45047982Y-41155427D01*
X45493220Y-41155427D02*
X46059887Y-42005427D01*
X46059887Y-41155427D02*
X45493220Y-42005427D01*
X46383696Y-42005427D02*
X46383696Y-41155427D01*
X46383696Y-41155427D02*
X46586077Y-41155427D01*
X46586077Y-41155427D02*
X46707506Y-41195903D01*
X46707506Y-41195903D02*
X46788458Y-41276855D01*
X46788458Y-41276855D02*
X46828935Y-41357808D01*
X46828935Y-41357808D02*
X46869411Y-41519712D01*
X46869411Y-41519712D02*
X46869411Y-41641141D01*
X46869411Y-41641141D02*
X46828935Y-41803046D01*
X46828935Y-41803046D02*
X46788458Y-41883998D01*
X46788458Y-41883998D02*
X46707506Y-41964951D01*
X46707506Y-41964951D02*
X46586077Y-42005427D01*
X46586077Y-42005427D02*
X46383696Y-42005427D01*
X38774173Y-43735903D02*
X38693220Y-43695427D01*
X38693220Y-43695427D02*
X38571792Y-43695427D01*
X38571792Y-43695427D02*
X38450363Y-43735903D01*
X38450363Y-43735903D02*
X38369411Y-43816855D01*
X38369411Y-43816855D02*
X38328934Y-43897808D01*
X38328934Y-43897808D02*
X38288458Y-44059712D01*
X38288458Y-44059712D02*
X38288458Y-44181141D01*
X38288458Y-44181141D02*
X38328934Y-44343046D01*
X38328934Y-44343046D02*
X38369411Y-44423998D01*
X38369411Y-44423998D02*
X38450363Y-44504951D01*
X38450363Y-44504951D02*
X38571792Y-44545427D01*
X38571792Y-44545427D02*
X38652744Y-44545427D01*
X38652744Y-44545427D02*
X38774173Y-44504951D01*
X38774173Y-44504951D02*
X38814649Y-44464474D01*
X38814649Y-44464474D02*
X38814649Y-44181141D01*
X38814649Y-44181141D02*
X38652744Y-44181141D01*
X39178934Y-44545427D02*
X39178934Y-43695427D01*
X39178934Y-43695427D02*
X39502744Y-43695427D01*
X39502744Y-43695427D02*
X39583696Y-43735903D01*
X39583696Y-43735903D02*
X39624173Y-43776379D01*
X39624173Y-43776379D02*
X39664649Y-43857331D01*
X39664649Y-43857331D02*
X39664649Y-43978760D01*
X39664649Y-43978760D02*
X39624173Y-44059712D01*
X39624173Y-44059712D02*
X39583696Y-44100189D01*
X39583696Y-44100189D02*
X39502744Y-44140665D01*
X39502744Y-44140665D02*
X39178934Y-44140665D01*
X40028934Y-44545427D02*
X40028934Y-43695427D01*
X40595601Y-43695427D02*
X40757506Y-43695427D01*
X40757506Y-43695427D02*
X40838458Y-43735903D01*
X40838458Y-43735903D02*
X40919411Y-43816855D01*
X40919411Y-43816855D02*
X40959887Y-43978760D01*
X40959887Y-43978760D02*
X40959887Y-44262093D01*
X40959887Y-44262093D02*
X40919411Y-44423998D01*
X40919411Y-44423998D02*
X40838458Y-44504951D01*
X40838458Y-44504951D02*
X40757506Y-44545427D01*
X40757506Y-44545427D02*
X40595601Y-44545427D01*
X40595601Y-44545427D02*
X40514649Y-44504951D01*
X40514649Y-44504951D02*
X40433696Y-44423998D01*
X40433696Y-44423998D02*
X40393220Y-44262093D01*
X40393220Y-44262093D02*
X40393220Y-43978760D01*
X40393220Y-43978760D02*
X40433696Y-43816855D01*
X40433696Y-43816855D02*
X40514649Y-43735903D01*
X40514649Y-43735903D02*
X40595601Y-43695427D01*
X41243220Y-43695427D02*
X41769411Y-43695427D01*
X41769411Y-43695427D02*
X41486077Y-44019236D01*
X41486077Y-44019236D02*
X41607506Y-44019236D01*
X41607506Y-44019236D02*
X41688458Y-44059712D01*
X41688458Y-44059712D02*
X41728934Y-44100189D01*
X41728934Y-44100189D02*
X41769411Y-44181141D01*
X41769411Y-44181141D02*
X41769411Y-44383522D01*
X41769411Y-44383522D02*
X41728934Y-44464474D01*
X41728934Y-44464474D02*
X41688458Y-44504951D01*
X41688458Y-44504951D02*
X41607506Y-44545427D01*
X41607506Y-44545427D02*
X41364649Y-44545427D01*
X41364649Y-44545427D02*
X41283696Y-44504951D01*
X41283696Y-44504951D02*
X41243220Y-44464474D01*
X42740839Y-43654951D02*
X42012268Y-44747808D01*
X43024172Y-43695427D02*
X43024172Y-44383522D01*
X43024172Y-44383522D02*
X43064649Y-44464474D01*
X43064649Y-44464474D02*
X43105125Y-44504951D01*
X43105125Y-44504951D02*
X43186077Y-44545427D01*
X43186077Y-44545427D02*
X43347982Y-44545427D01*
X43347982Y-44545427D02*
X43428934Y-44504951D01*
X43428934Y-44504951D02*
X43469411Y-44464474D01*
X43469411Y-44464474D02*
X43509887Y-44383522D01*
X43509887Y-44383522D02*
X43509887Y-43695427D01*
X44076553Y-43695427D02*
X44157506Y-43695427D01*
X44157506Y-43695427D02*
X44238458Y-43735903D01*
X44238458Y-43735903D02*
X44278934Y-43776379D01*
X44278934Y-43776379D02*
X44319410Y-43857331D01*
X44319410Y-43857331D02*
X44359887Y-44019236D01*
X44359887Y-44019236D02*
X44359887Y-44221617D01*
X44359887Y-44221617D02*
X44319410Y-44383522D01*
X44319410Y-44383522D02*
X44278934Y-44464474D01*
X44278934Y-44464474D02*
X44238458Y-44504951D01*
X44238458Y-44504951D02*
X44157506Y-44545427D01*
X44157506Y-44545427D02*
X44076553Y-44545427D01*
X44076553Y-44545427D02*
X43995601Y-44504951D01*
X43995601Y-44504951D02*
X43955125Y-44464474D01*
X43955125Y-44464474D02*
X43914648Y-44383522D01*
X43914648Y-44383522D02*
X43874172Y-44221617D01*
X43874172Y-44221617D02*
X43874172Y-44019236D01*
X43874172Y-44019236D02*
X43914648Y-43857331D01*
X43914648Y-43857331D02*
X43955125Y-43776379D01*
X43955125Y-43776379D02*
X43995601Y-43735903D01*
X43995601Y-43735903D02*
X44076553Y-43695427D01*
X45209887Y-44545427D02*
X44926553Y-44140665D01*
X44724172Y-44545427D02*
X44724172Y-43695427D01*
X44724172Y-43695427D02*
X45047982Y-43695427D01*
X45047982Y-43695427D02*
X45128934Y-43735903D01*
X45128934Y-43735903D02*
X45169411Y-43776379D01*
X45169411Y-43776379D02*
X45209887Y-43857331D01*
X45209887Y-43857331D02*
X45209887Y-43978760D01*
X45209887Y-43978760D02*
X45169411Y-44059712D01*
X45169411Y-44059712D02*
X45128934Y-44100189D01*
X45128934Y-44100189D02*
X45047982Y-44140665D01*
X45047982Y-44140665D02*
X44724172Y-44140665D01*
X45493220Y-43695427D02*
X46059887Y-44545427D01*
X46059887Y-43695427D02*
X45493220Y-44545427D01*
X46383696Y-44545427D02*
X46383696Y-43695427D01*
X46383696Y-43695427D02*
X46586077Y-43695427D01*
X46586077Y-43695427D02*
X46707506Y-43735903D01*
X46707506Y-43735903D02*
X46788458Y-43816855D01*
X46788458Y-43816855D02*
X46828935Y-43897808D01*
X46828935Y-43897808D02*
X46869411Y-44059712D01*
X46869411Y-44059712D02*
X46869411Y-44181141D01*
X46869411Y-44181141D02*
X46828935Y-44343046D01*
X46828935Y-44343046D02*
X46788458Y-44423998D01*
X46788458Y-44423998D02*
X46707506Y-44504951D01*
X46707506Y-44504951D02*
X46586077Y-44545427D01*
X46586077Y-44545427D02*
X46383696Y-44545427D01*
X43064649Y-46275903D02*
X42983696Y-46235427D01*
X42983696Y-46235427D02*
X42862268Y-46235427D01*
X42862268Y-46235427D02*
X42740839Y-46275903D01*
X42740839Y-46275903D02*
X42659887Y-46356855D01*
X42659887Y-46356855D02*
X42619410Y-46437808D01*
X42619410Y-46437808D02*
X42578934Y-46599712D01*
X42578934Y-46599712D02*
X42578934Y-46721141D01*
X42578934Y-46721141D02*
X42619410Y-46883046D01*
X42619410Y-46883046D02*
X42659887Y-46963998D01*
X42659887Y-46963998D02*
X42740839Y-47044951D01*
X42740839Y-47044951D02*
X42862268Y-47085427D01*
X42862268Y-47085427D02*
X42943220Y-47085427D01*
X42943220Y-47085427D02*
X43064649Y-47044951D01*
X43064649Y-47044951D02*
X43105125Y-47004474D01*
X43105125Y-47004474D02*
X43105125Y-46721141D01*
X43105125Y-46721141D02*
X42943220Y-46721141D01*
X43469410Y-47085427D02*
X43469410Y-46235427D01*
X43469410Y-46235427D02*
X43793220Y-46235427D01*
X43793220Y-46235427D02*
X43874172Y-46275903D01*
X43874172Y-46275903D02*
X43914649Y-46316379D01*
X43914649Y-46316379D02*
X43955125Y-46397331D01*
X43955125Y-46397331D02*
X43955125Y-46518760D01*
X43955125Y-46518760D02*
X43914649Y-46599712D01*
X43914649Y-46599712D02*
X43874172Y-46640189D01*
X43874172Y-46640189D02*
X43793220Y-46680665D01*
X43793220Y-46680665D02*
X43469410Y-46680665D01*
X44319410Y-47085427D02*
X44319410Y-46235427D01*
X44886077Y-46235427D02*
X45047982Y-46235427D01*
X45047982Y-46235427D02*
X45128934Y-46275903D01*
X45128934Y-46275903D02*
X45209887Y-46356855D01*
X45209887Y-46356855D02*
X45250363Y-46518760D01*
X45250363Y-46518760D02*
X45250363Y-46802093D01*
X45250363Y-46802093D02*
X45209887Y-46963998D01*
X45209887Y-46963998D02*
X45128934Y-47044951D01*
X45128934Y-47044951D02*
X45047982Y-47085427D01*
X45047982Y-47085427D02*
X44886077Y-47085427D01*
X44886077Y-47085427D02*
X44805125Y-47044951D01*
X44805125Y-47044951D02*
X44724172Y-46963998D01*
X44724172Y-46963998D02*
X44683696Y-46802093D01*
X44683696Y-46802093D02*
X44683696Y-46518760D01*
X44683696Y-46518760D02*
X44724172Y-46356855D01*
X44724172Y-46356855D02*
X44805125Y-46275903D01*
X44805125Y-46275903D02*
X44886077Y-46235427D01*
X45574172Y-46316379D02*
X45614648Y-46275903D01*
X45614648Y-46275903D02*
X45695601Y-46235427D01*
X45695601Y-46235427D02*
X45897982Y-46235427D01*
X45897982Y-46235427D02*
X45978934Y-46275903D01*
X45978934Y-46275903D02*
X46019410Y-46316379D01*
X46019410Y-46316379D02*
X46059887Y-46397331D01*
X46059887Y-46397331D02*
X46059887Y-46478284D01*
X46059887Y-46478284D02*
X46019410Y-46599712D01*
X46019410Y-46599712D02*
X45533696Y-47085427D01*
X45533696Y-47085427D02*
X46059887Y-47085427D01*
X46869411Y-47085427D02*
X46383696Y-47085427D01*
X46626553Y-47085427D02*
X46626553Y-46235427D01*
X46626553Y-46235427D02*
X46545601Y-46356855D01*
X46545601Y-46356855D02*
X46464649Y-46437808D01*
X46464649Y-46437808D02*
X46383696Y-46478284D01*
X44745601Y-48742438D02*
X44650363Y-48694819D01*
X44650363Y-48694819D02*
X44507506Y-48694819D01*
X44507506Y-48694819D02*
X44364649Y-48742438D01*
X44364649Y-48742438D02*
X44269411Y-48837676D01*
X44269411Y-48837676D02*
X44221792Y-48932914D01*
X44221792Y-48932914D02*
X44174173Y-49123390D01*
X44174173Y-49123390D02*
X44174173Y-49266247D01*
X44174173Y-49266247D02*
X44221792Y-49456723D01*
X44221792Y-49456723D02*
X44269411Y-49551961D01*
X44269411Y-49551961D02*
X44364649Y-49647200D01*
X44364649Y-49647200D02*
X44507506Y-49694819D01*
X44507506Y-49694819D02*
X44602744Y-49694819D01*
X44602744Y-49694819D02*
X44745601Y-49647200D01*
X44745601Y-49647200D02*
X44793220Y-49599580D01*
X44793220Y-49599580D02*
X44793220Y-49266247D01*
X44793220Y-49266247D02*
X44602744Y-49266247D01*
X45221792Y-49694819D02*
X45221792Y-48694819D01*
X45221792Y-48694819D02*
X45793220Y-49694819D01*
X45793220Y-49694819D02*
X45793220Y-48694819D01*
X46269411Y-49694819D02*
X46269411Y-48694819D01*
X46269411Y-48694819D02*
X46507506Y-48694819D01*
X46507506Y-48694819D02*
X46650363Y-48742438D01*
X46650363Y-48742438D02*
X46745601Y-48837676D01*
X46745601Y-48837676D02*
X46793220Y-48932914D01*
X46793220Y-48932914D02*
X46840839Y-49123390D01*
X46840839Y-49123390D02*
X46840839Y-49266247D01*
X46840839Y-49266247D02*
X46793220Y-49456723D01*
X46793220Y-49456723D02*
X46745601Y-49551961D01*
X46745601Y-49551961D02*
X46650363Y-49647200D01*
X46650363Y-49647200D02*
X46507506Y-49694819D01*
X46507506Y-49694819D02*
X46269411Y-49694819D01*
X43064649Y-51355903D02*
X42983696Y-51315427D01*
X42983696Y-51315427D02*
X42862268Y-51315427D01*
X42862268Y-51315427D02*
X42740839Y-51355903D01*
X42740839Y-51355903D02*
X42659887Y-51436855D01*
X42659887Y-51436855D02*
X42619410Y-51517808D01*
X42619410Y-51517808D02*
X42578934Y-51679712D01*
X42578934Y-51679712D02*
X42578934Y-51801141D01*
X42578934Y-51801141D02*
X42619410Y-51963046D01*
X42619410Y-51963046D02*
X42659887Y-52043998D01*
X42659887Y-52043998D02*
X42740839Y-52124951D01*
X42740839Y-52124951D02*
X42862268Y-52165427D01*
X42862268Y-52165427D02*
X42943220Y-52165427D01*
X42943220Y-52165427D02*
X43064649Y-52124951D01*
X43064649Y-52124951D02*
X43105125Y-52084474D01*
X43105125Y-52084474D02*
X43105125Y-51801141D01*
X43105125Y-51801141D02*
X42943220Y-51801141D01*
X43469410Y-52165427D02*
X43469410Y-51315427D01*
X43469410Y-51315427D02*
X43793220Y-51315427D01*
X43793220Y-51315427D02*
X43874172Y-51355903D01*
X43874172Y-51355903D02*
X43914649Y-51396379D01*
X43914649Y-51396379D02*
X43955125Y-51477331D01*
X43955125Y-51477331D02*
X43955125Y-51598760D01*
X43955125Y-51598760D02*
X43914649Y-51679712D01*
X43914649Y-51679712D02*
X43874172Y-51720189D01*
X43874172Y-51720189D02*
X43793220Y-51760665D01*
X43793220Y-51760665D02*
X43469410Y-51760665D01*
X44319410Y-52165427D02*
X44319410Y-51315427D01*
X44886077Y-51315427D02*
X45047982Y-51315427D01*
X45047982Y-51315427D02*
X45128934Y-51355903D01*
X45128934Y-51355903D02*
X45209887Y-51436855D01*
X45209887Y-51436855D02*
X45250363Y-51598760D01*
X45250363Y-51598760D02*
X45250363Y-51882093D01*
X45250363Y-51882093D02*
X45209887Y-52043998D01*
X45209887Y-52043998D02*
X45128934Y-52124951D01*
X45128934Y-52124951D02*
X45047982Y-52165427D01*
X45047982Y-52165427D02*
X44886077Y-52165427D01*
X44886077Y-52165427D02*
X44805125Y-52124951D01*
X44805125Y-52124951D02*
X44724172Y-52043998D01*
X44724172Y-52043998D02*
X44683696Y-51882093D01*
X44683696Y-51882093D02*
X44683696Y-51598760D01*
X44683696Y-51598760D02*
X44724172Y-51436855D01*
X44724172Y-51436855D02*
X44805125Y-51355903D01*
X44805125Y-51355903D02*
X44886077Y-51315427D01*
X46059887Y-52165427D02*
X45574172Y-52165427D01*
X45817029Y-52165427D02*
X45817029Y-51315427D01*
X45817029Y-51315427D02*
X45736077Y-51436855D01*
X45736077Y-51436855D02*
X45655125Y-51517808D01*
X45655125Y-51517808D02*
X45574172Y-51558284D01*
X46464649Y-52165427D02*
X46626553Y-52165427D01*
X46626553Y-52165427D02*
X46707506Y-52124951D01*
X46707506Y-52124951D02*
X46747982Y-52084474D01*
X46747982Y-52084474D02*
X46828934Y-51963046D01*
X46828934Y-51963046D02*
X46869411Y-51801141D01*
X46869411Y-51801141D02*
X46869411Y-51477331D01*
X46869411Y-51477331D02*
X46828934Y-51396379D01*
X46828934Y-51396379D02*
X46788458Y-51355903D01*
X46788458Y-51355903D02*
X46707506Y-51315427D01*
X46707506Y-51315427D02*
X46545601Y-51315427D01*
X46545601Y-51315427D02*
X46464649Y-51355903D01*
X46464649Y-51355903D02*
X46424172Y-51396379D01*
X46424172Y-51396379D02*
X46383696Y-51477331D01*
X46383696Y-51477331D02*
X46383696Y-51679712D01*
X46383696Y-51679712D02*
X46424172Y-51760665D01*
X46424172Y-51760665D02*
X46464649Y-51801141D01*
X46464649Y-51801141D02*
X46545601Y-51841617D01*
X46545601Y-51841617D02*
X46707506Y-51841617D01*
X46707506Y-51841617D02*
X46788458Y-51801141D01*
X46788458Y-51801141D02*
X46828934Y-51760665D01*
X46828934Y-51760665D02*
X46869411Y-51679712D01*
X43064649Y-53895903D02*
X42983696Y-53855427D01*
X42983696Y-53855427D02*
X42862268Y-53855427D01*
X42862268Y-53855427D02*
X42740839Y-53895903D01*
X42740839Y-53895903D02*
X42659887Y-53976855D01*
X42659887Y-53976855D02*
X42619410Y-54057808D01*
X42619410Y-54057808D02*
X42578934Y-54219712D01*
X42578934Y-54219712D02*
X42578934Y-54341141D01*
X42578934Y-54341141D02*
X42619410Y-54503046D01*
X42619410Y-54503046D02*
X42659887Y-54583998D01*
X42659887Y-54583998D02*
X42740839Y-54664951D01*
X42740839Y-54664951D02*
X42862268Y-54705427D01*
X42862268Y-54705427D02*
X42943220Y-54705427D01*
X42943220Y-54705427D02*
X43064649Y-54664951D01*
X43064649Y-54664951D02*
X43105125Y-54624474D01*
X43105125Y-54624474D02*
X43105125Y-54341141D01*
X43105125Y-54341141D02*
X42943220Y-54341141D01*
X43469410Y-54705427D02*
X43469410Y-53855427D01*
X43469410Y-53855427D02*
X43793220Y-53855427D01*
X43793220Y-53855427D02*
X43874172Y-53895903D01*
X43874172Y-53895903D02*
X43914649Y-53936379D01*
X43914649Y-53936379D02*
X43955125Y-54017331D01*
X43955125Y-54017331D02*
X43955125Y-54138760D01*
X43955125Y-54138760D02*
X43914649Y-54219712D01*
X43914649Y-54219712D02*
X43874172Y-54260189D01*
X43874172Y-54260189D02*
X43793220Y-54300665D01*
X43793220Y-54300665D02*
X43469410Y-54300665D01*
X44319410Y-54705427D02*
X44319410Y-53855427D01*
X44886077Y-53855427D02*
X45047982Y-53855427D01*
X45047982Y-53855427D02*
X45128934Y-53895903D01*
X45128934Y-53895903D02*
X45209887Y-53976855D01*
X45209887Y-53976855D02*
X45250363Y-54138760D01*
X45250363Y-54138760D02*
X45250363Y-54422093D01*
X45250363Y-54422093D02*
X45209887Y-54583998D01*
X45209887Y-54583998D02*
X45128934Y-54664951D01*
X45128934Y-54664951D02*
X45047982Y-54705427D01*
X45047982Y-54705427D02*
X44886077Y-54705427D01*
X44886077Y-54705427D02*
X44805125Y-54664951D01*
X44805125Y-54664951D02*
X44724172Y-54583998D01*
X44724172Y-54583998D02*
X44683696Y-54422093D01*
X44683696Y-54422093D02*
X44683696Y-54138760D01*
X44683696Y-54138760D02*
X44724172Y-53976855D01*
X44724172Y-53976855D02*
X44805125Y-53895903D01*
X44805125Y-53895903D02*
X44886077Y-53855427D01*
X46059887Y-54705427D02*
X45574172Y-54705427D01*
X45817029Y-54705427D02*
X45817029Y-53855427D01*
X45817029Y-53855427D02*
X45736077Y-53976855D01*
X45736077Y-53976855D02*
X45655125Y-54057808D01*
X45655125Y-54057808D02*
X45574172Y-54098284D01*
X46545601Y-54219712D02*
X46464649Y-54179236D01*
X46464649Y-54179236D02*
X46424172Y-54138760D01*
X46424172Y-54138760D02*
X46383696Y-54057808D01*
X46383696Y-54057808D02*
X46383696Y-54017331D01*
X46383696Y-54017331D02*
X46424172Y-53936379D01*
X46424172Y-53936379D02*
X46464649Y-53895903D01*
X46464649Y-53895903D02*
X46545601Y-53855427D01*
X46545601Y-53855427D02*
X46707506Y-53855427D01*
X46707506Y-53855427D02*
X46788458Y-53895903D01*
X46788458Y-53895903D02*
X46828934Y-53936379D01*
X46828934Y-53936379D02*
X46869411Y-54017331D01*
X46869411Y-54017331D02*
X46869411Y-54057808D01*
X46869411Y-54057808D02*
X46828934Y-54138760D01*
X46828934Y-54138760D02*
X46788458Y-54179236D01*
X46788458Y-54179236D02*
X46707506Y-54219712D01*
X46707506Y-54219712D02*
X46545601Y-54219712D01*
X46545601Y-54219712D02*
X46464649Y-54260189D01*
X46464649Y-54260189D02*
X46424172Y-54300665D01*
X46424172Y-54300665D02*
X46383696Y-54381617D01*
X46383696Y-54381617D02*
X46383696Y-54543522D01*
X46383696Y-54543522D02*
X46424172Y-54624474D01*
X46424172Y-54624474D02*
X46464649Y-54664951D01*
X46464649Y-54664951D02*
X46545601Y-54705427D01*
X46545601Y-54705427D02*
X46707506Y-54705427D01*
X46707506Y-54705427D02*
X46788458Y-54664951D01*
X46788458Y-54664951D02*
X46828934Y-54624474D01*
X46828934Y-54624474D02*
X46869411Y-54543522D01*
X46869411Y-54543522D02*
X46869411Y-54381617D01*
X46869411Y-54381617D02*
X46828934Y-54300665D01*
X46828934Y-54300665D02*
X46788458Y-54260189D01*
X46788458Y-54260189D02*
X46707506Y-54219712D01*
X43874173Y-56435903D02*
X43793220Y-56395427D01*
X43793220Y-56395427D02*
X43671792Y-56395427D01*
X43671792Y-56395427D02*
X43550363Y-56435903D01*
X43550363Y-56435903D02*
X43469411Y-56516855D01*
X43469411Y-56516855D02*
X43428934Y-56597808D01*
X43428934Y-56597808D02*
X43388458Y-56759712D01*
X43388458Y-56759712D02*
X43388458Y-56881141D01*
X43388458Y-56881141D02*
X43428934Y-57043046D01*
X43428934Y-57043046D02*
X43469411Y-57123998D01*
X43469411Y-57123998D02*
X43550363Y-57204951D01*
X43550363Y-57204951D02*
X43671792Y-57245427D01*
X43671792Y-57245427D02*
X43752744Y-57245427D01*
X43752744Y-57245427D02*
X43874173Y-57204951D01*
X43874173Y-57204951D02*
X43914649Y-57164474D01*
X43914649Y-57164474D02*
X43914649Y-56881141D01*
X43914649Y-56881141D02*
X43752744Y-56881141D01*
X44278934Y-57245427D02*
X44278934Y-56395427D01*
X44278934Y-56395427D02*
X44602744Y-56395427D01*
X44602744Y-56395427D02*
X44683696Y-56435903D01*
X44683696Y-56435903D02*
X44724173Y-56476379D01*
X44724173Y-56476379D02*
X44764649Y-56557331D01*
X44764649Y-56557331D02*
X44764649Y-56678760D01*
X44764649Y-56678760D02*
X44724173Y-56759712D01*
X44724173Y-56759712D02*
X44683696Y-56800189D01*
X44683696Y-56800189D02*
X44602744Y-56840665D01*
X44602744Y-56840665D02*
X44278934Y-56840665D01*
X45128934Y-57245427D02*
X45128934Y-56395427D01*
X45695601Y-56395427D02*
X45857506Y-56395427D01*
X45857506Y-56395427D02*
X45938458Y-56435903D01*
X45938458Y-56435903D02*
X46019411Y-56516855D01*
X46019411Y-56516855D02*
X46059887Y-56678760D01*
X46059887Y-56678760D02*
X46059887Y-56962093D01*
X46059887Y-56962093D02*
X46019411Y-57123998D01*
X46019411Y-57123998D02*
X45938458Y-57204951D01*
X45938458Y-57204951D02*
X45857506Y-57245427D01*
X45857506Y-57245427D02*
X45695601Y-57245427D01*
X45695601Y-57245427D02*
X45614649Y-57204951D01*
X45614649Y-57204951D02*
X45533696Y-57123998D01*
X45533696Y-57123998D02*
X45493220Y-56962093D01*
X45493220Y-56962093D02*
X45493220Y-56678760D01*
X45493220Y-56678760D02*
X45533696Y-56516855D01*
X45533696Y-56516855D02*
X45614649Y-56435903D01*
X45614649Y-56435903D02*
X45695601Y-56395427D01*
X46828934Y-56395427D02*
X46424172Y-56395427D01*
X46424172Y-56395427D02*
X46383696Y-56800189D01*
X46383696Y-56800189D02*
X46424172Y-56759712D01*
X46424172Y-56759712D02*
X46505125Y-56719236D01*
X46505125Y-56719236D02*
X46707506Y-56719236D01*
X46707506Y-56719236D02*
X46788458Y-56759712D01*
X46788458Y-56759712D02*
X46828934Y-56800189D01*
X46828934Y-56800189D02*
X46869411Y-56881141D01*
X46869411Y-56881141D02*
X46869411Y-57083522D01*
X46869411Y-57083522D02*
X46828934Y-57164474D01*
X46828934Y-57164474D02*
X46788458Y-57204951D01*
X46788458Y-57204951D02*
X46707506Y-57245427D01*
X46707506Y-57245427D02*
X46505125Y-57245427D01*
X46505125Y-57245427D02*
X46424172Y-57204951D01*
X46424172Y-57204951D02*
X46383696Y-57164474D01*
X43064649Y-58975903D02*
X42983696Y-58935427D01*
X42983696Y-58935427D02*
X42862268Y-58935427D01*
X42862268Y-58935427D02*
X42740839Y-58975903D01*
X42740839Y-58975903D02*
X42659887Y-59056855D01*
X42659887Y-59056855D02*
X42619410Y-59137808D01*
X42619410Y-59137808D02*
X42578934Y-59299712D01*
X42578934Y-59299712D02*
X42578934Y-59421141D01*
X42578934Y-59421141D02*
X42619410Y-59583046D01*
X42619410Y-59583046D02*
X42659887Y-59663998D01*
X42659887Y-59663998D02*
X42740839Y-59744951D01*
X42740839Y-59744951D02*
X42862268Y-59785427D01*
X42862268Y-59785427D02*
X42943220Y-59785427D01*
X42943220Y-59785427D02*
X43064649Y-59744951D01*
X43064649Y-59744951D02*
X43105125Y-59704474D01*
X43105125Y-59704474D02*
X43105125Y-59421141D01*
X43105125Y-59421141D02*
X42943220Y-59421141D01*
X43469410Y-59785427D02*
X43469410Y-58935427D01*
X43469410Y-58935427D02*
X43793220Y-58935427D01*
X43793220Y-58935427D02*
X43874172Y-58975903D01*
X43874172Y-58975903D02*
X43914649Y-59016379D01*
X43914649Y-59016379D02*
X43955125Y-59097331D01*
X43955125Y-59097331D02*
X43955125Y-59218760D01*
X43955125Y-59218760D02*
X43914649Y-59299712D01*
X43914649Y-59299712D02*
X43874172Y-59340189D01*
X43874172Y-59340189D02*
X43793220Y-59380665D01*
X43793220Y-59380665D02*
X43469410Y-59380665D01*
X44319410Y-59785427D02*
X44319410Y-58935427D01*
X44886077Y-58935427D02*
X45047982Y-58935427D01*
X45047982Y-58935427D02*
X45128934Y-58975903D01*
X45128934Y-58975903D02*
X45209887Y-59056855D01*
X45209887Y-59056855D02*
X45250363Y-59218760D01*
X45250363Y-59218760D02*
X45250363Y-59502093D01*
X45250363Y-59502093D02*
X45209887Y-59663998D01*
X45209887Y-59663998D02*
X45128934Y-59744951D01*
X45128934Y-59744951D02*
X45047982Y-59785427D01*
X45047982Y-59785427D02*
X44886077Y-59785427D01*
X44886077Y-59785427D02*
X44805125Y-59744951D01*
X44805125Y-59744951D02*
X44724172Y-59663998D01*
X44724172Y-59663998D02*
X44683696Y-59502093D01*
X44683696Y-59502093D02*
X44683696Y-59218760D01*
X44683696Y-59218760D02*
X44724172Y-59056855D01*
X44724172Y-59056855D02*
X44805125Y-58975903D01*
X44805125Y-58975903D02*
X44886077Y-58935427D01*
X46059887Y-59785427D02*
X45574172Y-59785427D01*
X45817029Y-59785427D02*
X45817029Y-58935427D01*
X45817029Y-58935427D02*
X45736077Y-59056855D01*
X45736077Y-59056855D02*
X45655125Y-59137808D01*
X45655125Y-59137808D02*
X45574172Y-59178284D01*
X46343220Y-58935427D02*
X46909887Y-58935427D01*
X46909887Y-58935427D02*
X46545601Y-59785427D01*
X43064649Y-61515903D02*
X42983696Y-61475427D01*
X42983696Y-61475427D02*
X42862268Y-61475427D01*
X42862268Y-61475427D02*
X42740839Y-61515903D01*
X42740839Y-61515903D02*
X42659887Y-61596855D01*
X42659887Y-61596855D02*
X42619410Y-61677808D01*
X42619410Y-61677808D02*
X42578934Y-61839712D01*
X42578934Y-61839712D02*
X42578934Y-61961141D01*
X42578934Y-61961141D02*
X42619410Y-62123046D01*
X42619410Y-62123046D02*
X42659887Y-62203998D01*
X42659887Y-62203998D02*
X42740839Y-62284951D01*
X42740839Y-62284951D02*
X42862268Y-62325427D01*
X42862268Y-62325427D02*
X42943220Y-62325427D01*
X42943220Y-62325427D02*
X43064649Y-62284951D01*
X43064649Y-62284951D02*
X43105125Y-62244474D01*
X43105125Y-62244474D02*
X43105125Y-61961141D01*
X43105125Y-61961141D02*
X42943220Y-61961141D01*
X43469410Y-62325427D02*
X43469410Y-61475427D01*
X43469410Y-61475427D02*
X43793220Y-61475427D01*
X43793220Y-61475427D02*
X43874172Y-61515903D01*
X43874172Y-61515903D02*
X43914649Y-61556379D01*
X43914649Y-61556379D02*
X43955125Y-61637331D01*
X43955125Y-61637331D02*
X43955125Y-61758760D01*
X43955125Y-61758760D02*
X43914649Y-61839712D01*
X43914649Y-61839712D02*
X43874172Y-61880189D01*
X43874172Y-61880189D02*
X43793220Y-61920665D01*
X43793220Y-61920665D02*
X43469410Y-61920665D01*
X44319410Y-62325427D02*
X44319410Y-61475427D01*
X44886077Y-61475427D02*
X45047982Y-61475427D01*
X45047982Y-61475427D02*
X45128934Y-61515903D01*
X45128934Y-61515903D02*
X45209887Y-61596855D01*
X45209887Y-61596855D02*
X45250363Y-61758760D01*
X45250363Y-61758760D02*
X45250363Y-62042093D01*
X45250363Y-62042093D02*
X45209887Y-62203998D01*
X45209887Y-62203998D02*
X45128934Y-62284951D01*
X45128934Y-62284951D02*
X45047982Y-62325427D01*
X45047982Y-62325427D02*
X44886077Y-62325427D01*
X44886077Y-62325427D02*
X44805125Y-62284951D01*
X44805125Y-62284951D02*
X44724172Y-62203998D01*
X44724172Y-62203998D02*
X44683696Y-62042093D01*
X44683696Y-62042093D02*
X44683696Y-61758760D01*
X44683696Y-61758760D02*
X44724172Y-61596855D01*
X44724172Y-61596855D02*
X44805125Y-61515903D01*
X44805125Y-61515903D02*
X44886077Y-61475427D01*
X46059887Y-62325427D02*
X45574172Y-62325427D01*
X45817029Y-62325427D02*
X45817029Y-61475427D01*
X45817029Y-61475427D02*
X45736077Y-61596855D01*
X45736077Y-61596855D02*
X45655125Y-61677808D01*
X45655125Y-61677808D02*
X45574172Y-61718284D01*
X46788458Y-61475427D02*
X46626553Y-61475427D01*
X46626553Y-61475427D02*
X46545601Y-61515903D01*
X46545601Y-61515903D02*
X46505125Y-61556379D01*
X46505125Y-61556379D02*
X46424172Y-61677808D01*
X46424172Y-61677808D02*
X46383696Y-61839712D01*
X46383696Y-61839712D02*
X46383696Y-62163522D01*
X46383696Y-62163522D02*
X46424172Y-62244474D01*
X46424172Y-62244474D02*
X46464649Y-62284951D01*
X46464649Y-62284951D02*
X46545601Y-62325427D01*
X46545601Y-62325427D02*
X46707506Y-62325427D01*
X46707506Y-62325427D02*
X46788458Y-62284951D01*
X46788458Y-62284951D02*
X46828934Y-62244474D01*
X46828934Y-62244474D02*
X46869411Y-62163522D01*
X46869411Y-62163522D02*
X46869411Y-61961141D01*
X46869411Y-61961141D02*
X46828934Y-61880189D01*
X46828934Y-61880189D02*
X46788458Y-61839712D01*
X46788458Y-61839712D02*
X46707506Y-61799236D01*
X46707506Y-61799236D02*
X46545601Y-61799236D01*
X46545601Y-61799236D02*
X46464649Y-61839712D01*
X46464649Y-61839712D02*
X46424172Y-61880189D01*
X46424172Y-61880189D02*
X46383696Y-61961141D01*
X43874173Y-64055903D02*
X43793220Y-64015427D01*
X43793220Y-64015427D02*
X43671792Y-64015427D01*
X43671792Y-64015427D02*
X43550363Y-64055903D01*
X43550363Y-64055903D02*
X43469411Y-64136855D01*
X43469411Y-64136855D02*
X43428934Y-64217808D01*
X43428934Y-64217808D02*
X43388458Y-64379712D01*
X43388458Y-64379712D02*
X43388458Y-64501141D01*
X43388458Y-64501141D02*
X43428934Y-64663046D01*
X43428934Y-64663046D02*
X43469411Y-64743998D01*
X43469411Y-64743998D02*
X43550363Y-64824951D01*
X43550363Y-64824951D02*
X43671792Y-64865427D01*
X43671792Y-64865427D02*
X43752744Y-64865427D01*
X43752744Y-64865427D02*
X43874173Y-64824951D01*
X43874173Y-64824951D02*
X43914649Y-64784474D01*
X43914649Y-64784474D02*
X43914649Y-64501141D01*
X43914649Y-64501141D02*
X43752744Y-64501141D01*
X44278934Y-64865427D02*
X44278934Y-64015427D01*
X44278934Y-64015427D02*
X44602744Y-64015427D01*
X44602744Y-64015427D02*
X44683696Y-64055903D01*
X44683696Y-64055903D02*
X44724173Y-64096379D01*
X44724173Y-64096379D02*
X44764649Y-64177331D01*
X44764649Y-64177331D02*
X44764649Y-64298760D01*
X44764649Y-64298760D02*
X44724173Y-64379712D01*
X44724173Y-64379712D02*
X44683696Y-64420189D01*
X44683696Y-64420189D02*
X44602744Y-64460665D01*
X44602744Y-64460665D02*
X44278934Y-64460665D01*
X45128934Y-64865427D02*
X45128934Y-64015427D01*
X45695601Y-64015427D02*
X45857506Y-64015427D01*
X45857506Y-64015427D02*
X45938458Y-64055903D01*
X45938458Y-64055903D02*
X46019411Y-64136855D01*
X46019411Y-64136855D02*
X46059887Y-64298760D01*
X46059887Y-64298760D02*
X46059887Y-64582093D01*
X46059887Y-64582093D02*
X46019411Y-64743998D01*
X46019411Y-64743998D02*
X45938458Y-64824951D01*
X45938458Y-64824951D02*
X45857506Y-64865427D01*
X45857506Y-64865427D02*
X45695601Y-64865427D01*
X45695601Y-64865427D02*
X45614649Y-64824951D01*
X45614649Y-64824951D02*
X45533696Y-64743998D01*
X45533696Y-64743998D02*
X45493220Y-64582093D01*
X45493220Y-64582093D02*
X45493220Y-64298760D01*
X45493220Y-64298760D02*
X45533696Y-64136855D01*
X45533696Y-64136855D02*
X45614649Y-64055903D01*
X45614649Y-64055903D02*
X45695601Y-64015427D01*
X46788458Y-64298760D02*
X46788458Y-64865427D01*
X46586077Y-63974951D02*
X46383696Y-64582093D01*
X46383696Y-64582093D02*
X46909887Y-64582093D01*
X43874173Y-66595903D02*
X43793220Y-66555427D01*
X43793220Y-66555427D02*
X43671792Y-66555427D01*
X43671792Y-66555427D02*
X43550363Y-66595903D01*
X43550363Y-66595903D02*
X43469411Y-66676855D01*
X43469411Y-66676855D02*
X43428934Y-66757808D01*
X43428934Y-66757808D02*
X43388458Y-66919712D01*
X43388458Y-66919712D02*
X43388458Y-67041141D01*
X43388458Y-67041141D02*
X43428934Y-67203046D01*
X43428934Y-67203046D02*
X43469411Y-67283998D01*
X43469411Y-67283998D02*
X43550363Y-67364951D01*
X43550363Y-67364951D02*
X43671792Y-67405427D01*
X43671792Y-67405427D02*
X43752744Y-67405427D01*
X43752744Y-67405427D02*
X43874173Y-67364951D01*
X43874173Y-67364951D02*
X43914649Y-67324474D01*
X43914649Y-67324474D02*
X43914649Y-67041141D01*
X43914649Y-67041141D02*
X43752744Y-67041141D01*
X44278934Y-67405427D02*
X44278934Y-66555427D01*
X44278934Y-66555427D02*
X44602744Y-66555427D01*
X44602744Y-66555427D02*
X44683696Y-66595903D01*
X44683696Y-66595903D02*
X44724173Y-66636379D01*
X44724173Y-66636379D02*
X44764649Y-66717331D01*
X44764649Y-66717331D02*
X44764649Y-66838760D01*
X44764649Y-66838760D02*
X44724173Y-66919712D01*
X44724173Y-66919712D02*
X44683696Y-66960189D01*
X44683696Y-66960189D02*
X44602744Y-67000665D01*
X44602744Y-67000665D02*
X44278934Y-67000665D01*
X45128934Y-67405427D02*
X45128934Y-66555427D01*
X45695601Y-66555427D02*
X45857506Y-66555427D01*
X45857506Y-66555427D02*
X45938458Y-66595903D01*
X45938458Y-66595903D02*
X46019411Y-66676855D01*
X46019411Y-66676855D02*
X46059887Y-66838760D01*
X46059887Y-66838760D02*
X46059887Y-67122093D01*
X46059887Y-67122093D02*
X46019411Y-67283998D01*
X46019411Y-67283998D02*
X45938458Y-67364951D01*
X45938458Y-67364951D02*
X45857506Y-67405427D01*
X45857506Y-67405427D02*
X45695601Y-67405427D01*
X45695601Y-67405427D02*
X45614649Y-67364951D01*
X45614649Y-67364951D02*
X45533696Y-67283998D01*
X45533696Y-67283998D02*
X45493220Y-67122093D01*
X45493220Y-67122093D02*
X45493220Y-66838760D01*
X45493220Y-66838760D02*
X45533696Y-66676855D01*
X45533696Y-66676855D02*
X45614649Y-66595903D01*
X45614649Y-66595903D02*
X45695601Y-66555427D01*
X46586077Y-66555427D02*
X46667030Y-66555427D01*
X46667030Y-66555427D02*
X46747982Y-66595903D01*
X46747982Y-66595903D02*
X46788458Y-66636379D01*
X46788458Y-66636379D02*
X46828934Y-66717331D01*
X46828934Y-66717331D02*
X46869411Y-66879236D01*
X46869411Y-66879236D02*
X46869411Y-67081617D01*
X46869411Y-67081617D02*
X46828934Y-67243522D01*
X46828934Y-67243522D02*
X46788458Y-67324474D01*
X46788458Y-67324474D02*
X46747982Y-67364951D01*
X46747982Y-67364951D02*
X46667030Y-67405427D01*
X46667030Y-67405427D02*
X46586077Y-67405427D01*
X46586077Y-67405427D02*
X46505125Y-67364951D01*
X46505125Y-67364951D02*
X46464649Y-67324474D01*
X46464649Y-67324474D02*
X46424172Y-67243522D01*
X46424172Y-67243522D02*
X46383696Y-67081617D01*
X46383696Y-67081617D02*
X46383696Y-66879236D01*
X46383696Y-66879236D02*
X46424172Y-66717331D01*
X46424172Y-66717331D02*
X46464649Y-66636379D01*
X46464649Y-66636379D02*
X46505125Y-66595903D01*
X46505125Y-66595903D02*
X46586077Y-66555427D01*
X43874173Y-69135903D02*
X43793220Y-69095427D01*
X43793220Y-69095427D02*
X43671792Y-69095427D01*
X43671792Y-69095427D02*
X43550363Y-69135903D01*
X43550363Y-69135903D02*
X43469411Y-69216855D01*
X43469411Y-69216855D02*
X43428934Y-69297808D01*
X43428934Y-69297808D02*
X43388458Y-69459712D01*
X43388458Y-69459712D02*
X43388458Y-69581141D01*
X43388458Y-69581141D02*
X43428934Y-69743046D01*
X43428934Y-69743046D02*
X43469411Y-69823998D01*
X43469411Y-69823998D02*
X43550363Y-69904951D01*
X43550363Y-69904951D02*
X43671792Y-69945427D01*
X43671792Y-69945427D02*
X43752744Y-69945427D01*
X43752744Y-69945427D02*
X43874173Y-69904951D01*
X43874173Y-69904951D02*
X43914649Y-69864474D01*
X43914649Y-69864474D02*
X43914649Y-69581141D01*
X43914649Y-69581141D02*
X43752744Y-69581141D01*
X44278934Y-69945427D02*
X44278934Y-69095427D01*
X44278934Y-69095427D02*
X44602744Y-69095427D01*
X44602744Y-69095427D02*
X44683696Y-69135903D01*
X44683696Y-69135903D02*
X44724173Y-69176379D01*
X44724173Y-69176379D02*
X44764649Y-69257331D01*
X44764649Y-69257331D02*
X44764649Y-69378760D01*
X44764649Y-69378760D02*
X44724173Y-69459712D01*
X44724173Y-69459712D02*
X44683696Y-69500189D01*
X44683696Y-69500189D02*
X44602744Y-69540665D01*
X44602744Y-69540665D02*
X44278934Y-69540665D01*
X45128934Y-69945427D02*
X45128934Y-69095427D01*
X45695601Y-69095427D02*
X45857506Y-69095427D01*
X45857506Y-69095427D02*
X45938458Y-69135903D01*
X45938458Y-69135903D02*
X46019411Y-69216855D01*
X46019411Y-69216855D02*
X46059887Y-69378760D01*
X46059887Y-69378760D02*
X46059887Y-69662093D01*
X46059887Y-69662093D02*
X46019411Y-69823998D01*
X46019411Y-69823998D02*
X45938458Y-69904951D01*
X45938458Y-69904951D02*
X45857506Y-69945427D01*
X45857506Y-69945427D02*
X45695601Y-69945427D01*
X45695601Y-69945427D02*
X45614649Y-69904951D01*
X45614649Y-69904951D02*
X45533696Y-69823998D01*
X45533696Y-69823998D02*
X45493220Y-69662093D01*
X45493220Y-69662093D02*
X45493220Y-69378760D01*
X45493220Y-69378760D02*
X45533696Y-69216855D01*
X45533696Y-69216855D02*
X45614649Y-69135903D01*
X45614649Y-69135903D02*
X45695601Y-69095427D01*
X46383696Y-69176379D02*
X46424172Y-69135903D01*
X46424172Y-69135903D02*
X46505125Y-69095427D01*
X46505125Y-69095427D02*
X46707506Y-69095427D01*
X46707506Y-69095427D02*
X46788458Y-69135903D01*
X46788458Y-69135903D02*
X46828934Y-69176379D01*
X46828934Y-69176379D02*
X46869411Y-69257331D01*
X46869411Y-69257331D02*
X46869411Y-69338284D01*
X46869411Y-69338284D02*
X46828934Y-69459712D01*
X46828934Y-69459712D02*
X46343220Y-69945427D01*
X46343220Y-69945427D02*
X46869411Y-69945427D01*
X38814649Y-71675903D02*
X38733696Y-71635427D01*
X38733696Y-71635427D02*
X38612268Y-71635427D01*
X38612268Y-71635427D02*
X38490839Y-71675903D01*
X38490839Y-71675903D02*
X38409887Y-71756855D01*
X38409887Y-71756855D02*
X38369410Y-71837808D01*
X38369410Y-71837808D02*
X38328934Y-71999712D01*
X38328934Y-71999712D02*
X38328934Y-72121141D01*
X38328934Y-72121141D02*
X38369410Y-72283046D01*
X38369410Y-72283046D02*
X38409887Y-72363998D01*
X38409887Y-72363998D02*
X38490839Y-72444951D01*
X38490839Y-72444951D02*
X38612268Y-72485427D01*
X38612268Y-72485427D02*
X38693220Y-72485427D01*
X38693220Y-72485427D02*
X38814649Y-72444951D01*
X38814649Y-72444951D02*
X38855125Y-72404474D01*
X38855125Y-72404474D02*
X38855125Y-72121141D01*
X38855125Y-72121141D02*
X38693220Y-72121141D01*
X39219410Y-72485427D02*
X39219410Y-71635427D01*
X39219410Y-71635427D02*
X39543220Y-71635427D01*
X39543220Y-71635427D02*
X39624172Y-71675903D01*
X39624172Y-71675903D02*
X39664649Y-71716379D01*
X39664649Y-71716379D02*
X39705125Y-71797331D01*
X39705125Y-71797331D02*
X39705125Y-71918760D01*
X39705125Y-71918760D02*
X39664649Y-71999712D01*
X39664649Y-71999712D02*
X39624172Y-72040189D01*
X39624172Y-72040189D02*
X39543220Y-72080665D01*
X39543220Y-72080665D02*
X39219410Y-72080665D01*
X40069410Y-72485427D02*
X40069410Y-71635427D01*
X40636077Y-71635427D02*
X40797982Y-71635427D01*
X40797982Y-71635427D02*
X40878934Y-71675903D01*
X40878934Y-71675903D02*
X40959887Y-71756855D01*
X40959887Y-71756855D02*
X41000363Y-71918760D01*
X41000363Y-71918760D02*
X41000363Y-72202093D01*
X41000363Y-72202093D02*
X40959887Y-72363998D01*
X40959887Y-72363998D02*
X40878934Y-72444951D01*
X40878934Y-72444951D02*
X40797982Y-72485427D01*
X40797982Y-72485427D02*
X40636077Y-72485427D01*
X40636077Y-72485427D02*
X40555125Y-72444951D01*
X40555125Y-72444951D02*
X40474172Y-72363998D01*
X40474172Y-72363998D02*
X40433696Y-72202093D01*
X40433696Y-72202093D02*
X40433696Y-71918760D01*
X40433696Y-71918760D02*
X40474172Y-71756855D01*
X40474172Y-71756855D02*
X40555125Y-71675903D01*
X40555125Y-71675903D02*
X40636077Y-71635427D01*
X41809887Y-72485427D02*
X41324172Y-72485427D01*
X41567029Y-72485427D02*
X41567029Y-71635427D01*
X41567029Y-71635427D02*
X41486077Y-71756855D01*
X41486077Y-71756855D02*
X41405125Y-71837808D01*
X41405125Y-71837808D02*
X41324172Y-71878284D01*
X42578934Y-71635427D02*
X42174172Y-71635427D01*
X42174172Y-71635427D02*
X42133696Y-72040189D01*
X42133696Y-72040189D02*
X42174172Y-71999712D01*
X42174172Y-71999712D02*
X42255125Y-71959236D01*
X42255125Y-71959236D02*
X42457506Y-71959236D01*
X42457506Y-71959236D02*
X42538458Y-71999712D01*
X42538458Y-71999712D02*
X42578934Y-72040189D01*
X42578934Y-72040189D02*
X42619411Y-72121141D01*
X42619411Y-72121141D02*
X42619411Y-72323522D01*
X42619411Y-72323522D02*
X42578934Y-72404474D01*
X42578934Y-72404474D02*
X42538458Y-72444951D01*
X42538458Y-72444951D02*
X42457506Y-72485427D01*
X42457506Y-72485427D02*
X42255125Y-72485427D01*
X42255125Y-72485427D02*
X42174172Y-72444951D01*
X42174172Y-72444951D02*
X42133696Y-72404474D01*
X43590839Y-71594951D02*
X42862268Y-72687808D01*
X43874172Y-72485427D02*
X43874172Y-71635427D01*
X43874172Y-71635427D02*
X44157506Y-72242570D01*
X44157506Y-72242570D02*
X44440839Y-71635427D01*
X44440839Y-71635427D02*
X44440839Y-72485427D01*
X44724173Y-71635427D02*
X45209887Y-71635427D01*
X44967030Y-72485427D02*
X44967030Y-71635427D01*
X45493220Y-72485427D02*
X45493220Y-71635427D01*
X45493220Y-71635427D02*
X45695601Y-71635427D01*
X45695601Y-71635427D02*
X45817030Y-71675903D01*
X45817030Y-71675903D02*
X45897982Y-71756855D01*
X45897982Y-71756855D02*
X45938459Y-71837808D01*
X45938459Y-71837808D02*
X45978935Y-71999712D01*
X45978935Y-71999712D02*
X45978935Y-72121141D01*
X45978935Y-72121141D02*
X45938459Y-72283046D01*
X45938459Y-72283046D02*
X45897982Y-72363998D01*
X45897982Y-72363998D02*
X45817030Y-72444951D01*
X45817030Y-72444951D02*
X45695601Y-72485427D01*
X45695601Y-72485427D02*
X45493220Y-72485427D01*
X46505125Y-71635427D02*
X46667030Y-71635427D01*
X46667030Y-71635427D02*
X46747982Y-71675903D01*
X46747982Y-71675903D02*
X46828935Y-71756855D01*
X46828935Y-71756855D02*
X46869411Y-71918760D01*
X46869411Y-71918760D02*
X46869411Y-72202093D01*
X46869411Y-72202093D02*
X46828935Y-72363998D01*
X46828935Y-72363998D02*
X46747982Y-72444951D01*
X46747982Y-72444951D02*
X46667030Y-72485427D01*
X46667030Y-72485427D02*
X46505125Y-72485427D01*
X46505125Y-72485427D02*
X46424173Y-72444951D01*
X46424173Y-72444951D02*
X46343220Y-72363998D01*
X46343220Y-72363998D02*
X46302744Y-72202093D01*
X46302744Y-72202093D02*
X46302744Y-71918760D01*
X46302744Y-71918760D02*
X46343220Y-71756855D01*
X46343220Y-71756855D02*
X46424173Y-71675903D01*
X46424173Y-71675903D02*
X46505125Y-71635427D01*
X45574172Y-75025427D02*
X45574172Y-74175427D01*
X45574172Y-74175427D02*
X45776553Y-74175427D01*
X45776553Y-74175427D02*
X45897982Y-74215903D01*
X45897982Y-74215903D02*
X45978934Y-74296855D01*
X45978934Y-74296855D02*
X46019411Y-74377808D01*
X46019411Y-74377808D02*
X46059887Y-74539712D01*
X46059887Y-74539712D02*
X46059887Y-74661141D01*
X46059887Y-74661141D02*
X46019411Y-74823046D01*
X46019411Y-74823046D02*
X45978934Y-74903998D01*
X45978934Y-74903998D02*
X45897982Y-74984951D01*
X45897982Y-74984951D02*
X45776553Y-75025427D01*
X45776553Y-75025427D02*
X45574172Y-75025427D01*
X46869411Y-75025427D02*
X46383696Y-75025427D01*
X46626553Y-75025427D02*
X46626553Y-74175427D01*
X46626553Y-74175427D02*
X46545601Y-74296855D01*
X46545601Y-74296855D02*
X46464649Y-74377808D01*
X46464649Y-74377808D02*
X46383696Y-74418284D01*
X45574172Y-77565427D02*
X45574172Y-76715427D01*
X45574172Y-76715427D02*
X45776553Y-76715427D01*
X45776553Y-76715427D02*
X45897982Y-76755903D01*
X45897982Y-76755903D02*
X45978934Y-76836855D01*
X45978934Y-76836855D02*
X46019411Y-76917808D01*
X46019411Y-76917808D02*
X46059887Y-77079712D01*
X46059887Y-77079712D02*
X46059887Y-77201141D01*
X46059887Y-77201141D02*
X46019411Y-77363046D01*
X46019411Y-77363046D02*
X45978934Y-77443998D01*
X45978934Y-77443998D02*
X45897982Y-77524951D01*
X45897982Y-77524951D02*
X45776553Y-77565427D01*
X45776553Y-77565427D02*
X45574172Y-77565427D01*
X46586077Y-76715427D02*
X46667030Y-76715427D01*
X46667030Y-76715427D02*
X46747982Y-76755903D01*
X46747982Y-76755903D02*
X46788458Y-76796379D01*
X46788458Y-76796379D02*
X46828934Y-76877331D01*
X46828934Y-76877331D02*
X46869411Y-77039236D01*
X46869411Y-77039236D02*
X46869411Y-77241617D01*
X46869411Y-77241617D02*
X46828934Y-77403522D01*
X46828934Y-77403522D02*
X46788458Y-77484474D01*
X46788458Y-77484474D02*
X46747982Y-77524951D01*
X46747982Y-77524951D02*
X46667030Y-77565427D01*
X46667030Y-77565427D02*
X46586077Y-77565427D01*
X46586077Y-77565427D02*
X46505125Y-77524951D01*
X46505125Y-77524951D02*
X46464649Y-77484474D01*
X46464649Y-77484474D02*
X46424172Y-77403522D01*
X46424172Y-77403522D02*
X46383696Y-77241617D01*
X46383696Y-77241617D02*
X46383696Y-77039236D01*
X46383696Y-77039236D02*
X46424172Y-76877331D01*
X46424172Y-76877331D02*
X46464649Y-76796379D01*
X46464649Y-76796379D02*
X46505125Y-76755903D01*
X46505125Y-76755903D02*
X46586077Y-76715427D01*
X45331316Y-80024474D02*
X45290840Y-80064951D01*
X45290840Y-80064951D02*
X45169411Y-80105427D01*
X45169411Y-80105427D02*
X45088459Y-80105427D01*
X45088459Y-80105427D02*
X44967030Y-80064951D01*
X44967030Y-80064951D02*
X44886078Y-79983998D01*
X44886078Y-79983998D02*
X44845601Y-79903046D01*
X44845601Y-79903046D02*
X44805125Y-79741141D01*
X44805125Y-79741141D02*
X44805125Y-79619712D01*
X44805125Y-79619712D02*
X44845601Y-79457808D01*
X44845601Y-79457808D02*
X44886078Y-79376855D01*
X44886078Y-79376855D02*
X44967030Y-79295903D01*
X44967030Y-79295903D02*
X45088459Y-79255427D01*
X45088459Y-79255427D02*
X45169411Y-79255427D01*
X45169411Y-79255427D02*
X45290840Y-79295903D01*
X45290840Y-79295903D02*
X45331316Y-79336379D01*
X46100363Y-80105427D02*
X45695601Y-80105427D01*
X45695601Y-80105427D02*
X45695601Y-79255427D01*
X46383696Y-80105427D02*
X46383696Y-79255427D01*
X46869411Y-80105427D02*
X46505125Y-79619712D01*
X46869411Y-79255427D02*
X46383696Y-79741141D01*
X88738095Y-26954819D02*
X88738095Y-27764342D01*
X88738095Y-27764342D02*
X88785714Y-27859580D01*
X88785714Y-27859580D02*
X88833333Y-27907200D01*
X88833333Y-27907200D02*
X88928571Y-27954819D01*
X88928571Y-27954819D02*
X89119047Y-27954819D01*
X89119047Y-27954819D02*
X89214285Y-27907200D01*
X89214285Y-27907200D02*
X89261904Y-27859580D01*
X89261904Y-27859580D02*
X89309523Y-27764342D01*
X89309523Y-27764342D02*
X89309523Y-26954819D01*
X89690476Y-26954819D02*
X90309523Y-26954819D01*
X90309523Y-26954819D02*
X89976190Y-27335771D01*
X89976190Y-27335771D02*
X90119047Y-27335771D01*
X90119047Y-27335771D02*
X90214285Y-27383390D01*
X90214285Y-27383390D02*
X90261904Y-27431009D01*
X90261904Y-27431009D02*
X90309523Y-27526247D01*
X90309523Y-27526247D02*
X90309523Y-27764342D01*
X90309523Y-27764342D02*
X90261904Y-27859580D01*
X90261904Y-27859580D02*
X90214285Y-27907200D01*
X90214285Y-27907200D02*
X90119047Y-27954819D01*
X90119047Y-27954819D02*
X89833333Y-27954819D01*
X89833333Y-27954819D02*
X89738095Y-27907200D01*
X89738095Y-27907200D02*
X89690476Y-27859580D01*
X80185715Y-51408557D02*
X80185715Y-52008557D01*
X79800000Y-51408557D02*
X79800000Y-51879985D01*
X79800000Y-51879985D02*
X79842857Y-51965700D01*
X79842857Y-51965700D02*
X79928572Y-52008557D01*
X79928572Y-52008557D02*
X80057143Y-52008557D01*
X80057143Y-52008557D02*
X80142857Y-51965700D01*
X80142857Y-51965700D02*
X80185715Y-51922842D01*
X80614286Y-51922842D02*
X80657143Y-51965700D01*
X80657143Y-51965700D02*
X80614286Y-52008557D01*
X80614286Y-52008557D02*
X80571429Y-51965700D01*
X80571429Y-51965700D02*
X80614286Y-51922842D01*
X80614286Y-51922842D02*
X80614286Y-52008557D01*
X81342857Y-51537128D02*
X81042857Y-51537128D01*
X81042857Y-52008557D02*
X81042857Y-51108557D01*
X81042857Y-51108557D02*
X81471429Y-51108557D01*
X82242858Y-52008557D02*
X81814286Y-52008557D01*
X81814286Y-52008557D02*
X81814286Y-51108557D01*
X83185714Y-51751414D02*
X83614286Y-51751414D01*
X83100000Y-52008557D02*
X83400000Y-51108557D01*
X83400000Y-51108557D02*
X83700000Y-52008557D01*
X84000000Y-52008557D02*
X84000000Y-51108557D01*
X84000000Y-51108557D02*
X84514286Y-52008557D01*
X84514286Y-52008557D02*
X84514286Y-51108557D01*
X84814286Y-51108557D02*
X85328572Y-51108557D01*
X85071429Y-52008557D02*
X85071429Y-51108557D01*
X103784398Y-37698557D02*
X104084398Y-38598557D01*
X104084398Y-38598557D02*
X104384398Y-37698557D01*
X105198684Y-38512842D02*
X105155827Y-38555700D01*
X105155827Y-38555700D02*
X105027255Y-38598557D01*
X105027255Y-38598557D02*
X104941541Y-38598557D01*
X104941541Y-38598557D02*
X104812970Y-38555700D01*
X104812970Y-38555700D02*
X104727255Y-38469985D01*
X104727255Y-38469985D02*
X104684398Y-38384271D01*
X104684398Y-38384271D02*
X104641541Y-38212842D01*
X104641541Y-38212842D02*
X104641541Y-38084271D01*
X104641541Y-38084271D02*
X104684398Y-37912842D01*
X104684398Y-37912842D02*
X104727255Y-37827128D01*
X104727255Y-37827128D02*
X104812970Y-37741414D01*
X104812970Y-37741414D02*
X104941541Y-37698557D01*
X104941541Y-37698557D02*
X105027255Y-37698557D01*
X105027255Y-37698557D02*
X105155827Y-37741414D01*
X105155827Y-37741414D02*
X105198684Y-37784271D01*
X106098684Y-38512842D02*
X106055827Y-38555700D01*
X106055827Y-38555700D02*
X105927255Y-38598557D01*
X105927255Y-38598557D02*
X105841541Y-38598557D01*
X105841541Y-38598557D02*
X105712970Y-38555700D01*
X105712970Y-38555700D02*
X105627255Y-38469985D01*
X105627255Y-38469985D02*
X105584398Y-38384271D01*
X105584398Y-38384271D02*
X105541541Y-38212842D01*
X105541541Y-38212842D02*
X105541541Y-38084271D01*
X105541541Y-38084271D02*
X105584398Y-37912842D01*
X105584398Y-37912842D02*
X105627255Y-37827128D01*
X105627255Y-37827128D02*
X105712970Y-37741414D01*
X105712970Y-37741414D02*
X105841541Y-37698557D01*
X105841541Y-37698557D02*
X105927255Y-37698557D01*
X105927255Y-37698557D02*
X106055827Y-37741414D01*
X106055827Y-37741414D02*
X106098684Y-37784271D01*
X104427255Y-41138557D02*
X104127255Y-40709985D01*
X103912969Y-41138557D02*
X103912969Y-40238557D01*
X103912969Y-40238557D02*
X104255826Y-40238557D01*
X104255826Y-40238557D02*
X104341541Y-40281414D01*
X104341541Y-40281414D02*
X104384398Y-40324271D01*
X104384398Y-40324271D02*
X104427255Y-40409985D01*
X104427255Y-40409985D02*
X104427255Y-40538557D01*
X104427255Y-40538557D02*
X104384398Y-40624271D01*
X104384398Y-40624271D02*
X104341541Y-40667128D01*
X104341541Y-40667128D02*
X104255826Y-40709985D01*
X104255826Y-40709985D02*
X103912969Y-40709985D01*
X104727255Y-40238557D02*
X105327255Y-41138557D01*
X105327255Y-40238557D02*
X104727255Y-41138557D01*
X103784398Y-42778557D02*
X104298684Y-42778557D01*
X104041541Y-43678557D02*
X104041541Y-42778557D01*
X104512969Y-42778557D02*
X105112969Y-43678557D01*
X105112969Y-42778557D02*
X104512969Y-43678557D01*
X104384398Y-45361414D02*
X104298684Y-45318557D01*
X104298684Y-45318557D02*
X104170112Y-45318557D01*
X104170112Y-45318557D02*
X104041541Y-45361414D01*
X104041541Y-45361414D02*
X103955826Y-45447128D01*
X103955826Y-45447128D02*
X103912969Y-45532842D01*
X103912969Y-45532842D02*
X103870112Y-45704271D01*
X103870112Y-45704271D02*
X103870112Y-45832842D01*
X103870112Y-45832842D02*
X103912969Y-46004271D01*
X103912969Y-46004271D02*
X103955826Y-46089985D01*
X103955826Y-46089985D02*
X104041541Y-46175700D01*
X104041541Y-46175700D02*
X104170112Y-46218557D01*
X104170112Y-46218557D02*
X104255826Y-46218557D01*
X104255826Y-46218557D02*
X104384398Y-46175700D01*
X104384398Y-46175700D02*
X104427255Y-46132842D01*
X104427255Y-46132842D02*
X104427255Y-45832842D01*
X104427255Y-45832842D02*
X104255826Y-45832842D01*
X104812969Y-46218557D02*
X104812969Y-45318557D01*
X104812969Y-45318557D02*
X105327255Y-46218557D01*
X105327255Y-46218557D02*
X105327255Y-45318557D01*
X105755826Y-46218557D02*
X105755826Y-45318557D01*
X105755826Y-45318557D02*
X105970112Y-45318557D01*
X105970112Y-45318557D02*
X106098683Y-45361414D01*
X106098683Y-45361414D02*
X106184398Y-45447128D01*
X106184398Y-45447128D02*
X106227255Y-45532842D01*
X106227255Y-45532842D02*
X106270112Y-45704271D01*
X106270112Y-45704271D02*
X106270112Y-45832842D01*
X106270112Y-45832842D02*
X106227255Y-46004271D01*
X106227255Y-46004271D02*
X106184398Y-46089985D01*
X106184398Y-46089985D02*
X106098683Y-46175700D01*
X106098683Y-46175700D02*
X105970112Y-46218557D01*
X105970112Y-46218557D02*
X105755826Y-46218557D01*
X55366666Y-82874819D02*
X55366666Y-83589104D01*
X55366666Y-83589104D02*
X55319047Y-83731961D01*
X55319047Y-83731961D02*
X55223809Y-83827200D01*
X55223809Y-83827200D02*
X55080952Y-83874819D01*
X55080952Y-83874819D02*
X54985714Y-83874819D01*
X56366666Y-83874819D02*
X55795238Y-83874819D01*
X56080952Y-83874819D02*
X56080952Y-82874819D01*
X56080952Y-82874819D02*
X55985714Y-83017676D01*
X55985714Y-83017676D02*
X55890476Y-83112914D01*
X55890476Y-83112914D02*
X55795238Y-83160533D01*
%TO.C,U2*%
D15*
X53730000Y-41696000D02*
X70240000Y-41696000D01*
X53730000Y-62270000D02*
X53730000Y-41696000D01*
X70240000Y-41696000D02*
X70240000Y-62270000D01*
X70240000Y-62270000D02*
X53730000Y-62270000D01*
X69067832Y-43982000D02*
G75*
G02*
X66332168Y-43982000I-1367832J0D01*
G01*
X66332168Y-43982000D02*
G75*
G02*
X69067832Y-43982000I1367832J0D01*
G01*
X69067832Y-59984000D02*
G75*
G02*
X66332168Y-59984000I-1367832J0D01*
G01*
X66332168Y-59984000D02*
G75*
G02*
X69067832Y-59984000I1367832J0D01*
G01*
%TO.C,C1*%
X63020354Y-71125000D02*
X64020354Y-71125000D01*
X63520354Y-70625000D02*
X63520354Y-71625000D01*
X68500000Y-68920000D02*
X68500000Y-79080000D01*
X68540000Y-68920000D02*
X68540000Y-79080000D01*
X68580000Y-68921000D02*
X68580000Y-79079000D01*
X68620000Y-68921000D02*
X68620000Y-79079000D01*
X68660000Y-68923000D02*
X68660000Y-79077000D01*
X68700000Y-68924000D02*
X68700000Y-79076000D01*
X68740000Y-68926000D02*
X68740000Y-79074000D01*
X68780000Y-68928000D02*
X68780000Y-79072000D01*
X68820000Y-68930000D02*
X68820000Y-79070000D01*
X68860000Y-68933000D02*
X68860000Y-79067000D01*
X68900000Y-68936000D02*
X68900000Y-79064000D01*
X68940000Y-68939000D02*
X68940000Y-79061000D01*
X68980000Y-68943000D02*
X68980000Y-79057000D01*
X69020000Y-68946000D02*
X69020000Y-79054000D01*
X69060000Y-68951000D02*
X69060000Y-79049000D01*
X69100000Y-68955000D02*
X69100000Y-79045000D01*
X69140000Y-68960000D02*
X69140000Y-79040000D01*
X69180000Y-68965000D02*
X69180000Y-79035000D01*
X69220000Y-68971000D02*
X69220000Y-79029000D01*
X69260000Y-68977000D02*
X69260000Y-79023000D01*
X69300000Y-68983000D02*
X69300000Y-79017000D01*
X69340000Y-68989000D02*
X69340000Y-79011000D01*
X69380000Y-68996000D02*
X69380000Y-79004000D01*
X69420000Y-69003000D02*
X69420000Y-78997000D01*
X69460000Y-69011000D02*
X69460000Y-78989000D01*
X69500000Y-69019000D02*
X69500000Y-78981000D01*
X69540000Y-69027000D02*
X69540000Y-78973000D01*
X69580000Y-69035000D02*
X69580000Y-78965000D01*
X69620000Y-69044000D02*
X69620000Y-78956000D01*
X69660000Y-69053000D02*
X69660000Y-78947000D01*
X69700000Y-69063000D02*
X69700000Y-78937000D01*
X69740000Y-69072000D02*
X69740000Y-78928000D01*
X69780000Y-69083000D02*
X69780000Y-72760000D01*
X69780000Y-75240000D02*
X69780000Y-78917000D01*
X69820000Y-69093000D02*
X69820000Y-72760000D01*
X69820000Y-75240000D02*
X69820000Y-78907000D01*
X69860000Y-69104000D02*
X69860000Y-72760000D01*
X69860000Y-75240000D02*
X69860000Y-78896000D01*
X69900000Y-69115000D02*
X69900000Y-72760000D01*
X69900000Y-75240000D02*
X69900000Y-78885000D01*
X69940000Y-69127000D02*
X69940000Y-72760000D01*
X69940000Y-75240000D02*
X69940000Y-78873000D01*
X69980000Y-69139000D02*
X69980000Y-72760000D01*
X69980000Y-75240000D02*
X69980000Y-78861000D01*
X70020000Y-69151000D02*
X70020000Y-72760000D01*
X70020000Y-75240000D02*
X70020000Y-78849000D01*
X70060000Y-69163000D02*
X70060000Y-72760000D01*
X70060000Y-75240000D02*
X70060000Y-78837000D01*
X70100000Y-69176000D02*
X70100000Y-72760000D01*
X70100000Y-75240000D02*
X70100000Y-78824000D01*
X70140000Y-69190000D02*
X70140000Y-72760000D01*
X70140000Y-75240000D02*
X70140000Y-78810000D01*
X70180000Y-69203000D02*
X70180000Y-72760000D01*
X70180000Y-75240000D02*
X70180000Y-78797000D01*
X70220000Y-69218000D02*
X70220000Y-72760000D01*
X70220000Y-75240000D02*
X70220000Y-78782000D01*
X70260000Y-69232000D02*
X70260000Y-72760000D01*
X70260000Y-75240000D02*
X70260000Y-78768000D01*
X70300000Y-69247000D02*
X70300000Y-72760000D01*
X70300000Y-75240000D02*
X70300000Y-78753000D01*
X70340000Y-69262000D02*
X70340000Y-72760000D01*
X70340000Y-75240000D02*
X70340000Y-78738000D01*
X70380000Y-69278000D02*
X70380000Y-72760000D01*
X70380000Y-75240000D02*
X70380000Y-78722000D01*
X70420000Y-69294000D02*
X70420000Y-72760000D01*
X70420000Y-75240000D02*
X70420000Y-78706000D01*
X70460000Y-69310000D02*
X70460000Y-72760000D01*
X70460000Y-75240000D02*
X70460000Y-78690000D01*
X70500000Y-69327000D02*
X70500000Y-72760000D01*
X70500000Y-75240000D02*
X70500000Y-78673000D01*
X70540000Y-69344000D02*
X70540000Y-72760000D01*
X70540000Y-75240000D02*
X70540000Y-78656000D01*
X70580000Y-69362000D02*
X70580000Y-72760000D01*
X70580000Y-75240000D02*
X70580000Y-78638000D01*
X70620000Y-69380000D02*
X70620000Y-72760000D01*
X70620000Y-75240000D02*
X70620000Y-78620000D01*
X70660000Y-69398000D02*
X70660000Y-72760000D01*
X70660000Y-75240000D02*
X70660000Y-78602000D01*
X70700000Y-69417000D02*
X70700000Y-72760000D01*
X70700000Y-75240000D02*
X70700000Y-78583000D01*
X70740000Y-69436000D02*
X70740000Y-72760000D01*
X70740000Y-75240000D02*
X70740000Y-78564000D01*
X70780000Y-69456000D02*
X70780000Y-72760000D01*
X70780000Y-75240000D02*
X70780000Y-78544000D01*
X70820000Y-69476000D02*
X70820000Y-72760000D01*
X70820000Y-75240000D02*
X70820000Y-78524000D01*
X70860000Y-69496000D02*
X70860000Y-72760000D01*
X70860000Y-75240000D02*
X70860000Y-78504000D01*
X70900000Y-69517000D02*
X70900000Y-72760000D01*
X70900000Y-75240000D02*
X70900000Y-78483000D01*
X70940000Y-69539000D02*
X70940000Y-72760000D01*
X70940000Y-75240000D02*
X70940000Y-78461000D01*
X70980000Y-69561000D02*
X70980000Y-72760000D01*
X70980000Y-75240000D02*
X70980000Y-78439000D01*
X71020000Y-69583000D02*
X71020000Y-72760000D01*
X71020000Y-75240000D02*
X71020000Y-78417000D01*
X71060000Y-69606000D02*
X71060000Y-72760000D01*
X71060000Y-75240000D02*
X71060000Y-78394000D01*
X71100000Y-69629000D02*
X71100000Y-72760000D01*
X71100000Y-75240000D02*
X71100000Y-78371000D01*
X71140000Y-69653000D02*
X71140000Y-72760000D01*
X71140000Y-75240000D02*
X71140000Y-78347000D01*
X71180000Y-69677000D02*
X71180000Y-72760000D01*
X71180000Y-75240000D02*
X71180000Y-78323000D01*
X71220000Y-69702000D02*
X71220000Y-72760000D01*
X71220000Y-75240000D02*
X71220000Y-78298000D01*
X71260000Y-69728000D02*
X71260000Y-72760000D01*
X71260000Y-75240000D02*
X71260000Y-78272000D01*
X71300000Y-69753000D02*
X71300000Y-72760000D01*
X71300000Y-75240000D02*
X71300000Y-78247000D01*
X71340000Y-69780000D02*
X71340000Y-72760000D01*
X71340000Y-75240000D02*
X71340000Y-78220000D01*
X71380000Y-69807000D02*
X71380000Y-72760000D01*
X71380000Y-75240000D02*
X71380000Y-78193000D01*
X71420000Y-69834000D02*
X71420000Y-72760000D01*
X71420000Y-75240000D02*
X71420000Y-78166000D01*
X71460000Y-69862000D02*
X71460000Y-72760000D01*
X71460000Y-75240000D02*
X71460000Y-78138000D01*
X71500000Y-69891000D02*
X71500000Y-72760000D01*
X71500000Y-75240000D02*
X71500000Y-78109000D01*
X71540000Y-69920000D02*
X71540000Y-72760000D01*
X71540000Y-75240000D02*
X71540000Y-78080000D01*
X71580000Y-69950000D02*
X71580000Y-72760000D01*
X71580000Y-75240000D02*
X71580000Y-78050000D01*
X71620000Y-69980000D02*
X71620000Y-72760000D01*
X71620000Y-75240000D02*
X71620000Y-78020000D01*
X71660000Y-70012000D02*
X71660000Y-72760000D01*
X71660000Y-75240000D02*
X71660000Y-77988000D01*
X71700000Y-70043000D02*
X71700000Y-72760000D01*
X71700000Y-75240000D02*
X71700000Y-77957000D01*
X71740000Y-70076000D02*
X71740000Y-72760000D01*
X71740000Y-75240000D02*
X71740000Y-77924000D01*
X71780000Y-70109000D02*
X71780000Y-72760000D01*
X71780000Y-75240000D02*
X71780000Y-77891000D01*
X71820000Y-70142000D02*
X71820000Y-72760000D01*
X71820000Y-75240000D02*
X71820000Y-77858000D01*
X71860000Y-70177000D02*
X71860000Y-72760000D01*
X71860000Y-75240000D02*
X71860000Y-77823000D01*
X71900000Y-70212000D02*
X71900000Y-72760000D01*
X71900000Y-75240000D02*
X71900000Y-77788000D01*
X71940000Y-70248000D02*
X71940000Y-72760000D01*
X71940000Y-75240000D02*
X71940000Y-77752000D01*
X71980000Y-70284000D02*
X71980000Y-72760000D01*
X71980000Y-75240000D02*
X71980000Y-77716000D01*
X72020000Y-70322000D02*
X72020000Y-72760000D01*
X72020000Y-75240000D02*
X72020000Y-77678000D01*
X72060000Y-70360000D02*
X72060000Y-72760000D01*
X72060000Y-75240000D02*
X72060000Y-77640000D01*
X72100000Y-70399000D02*
X72100000Y-72760000D01*
X72100000Y-75240000D02*
X72100000Y-77601000D01*
X72140000Y-70439000D02*
X72140000Y-72760000D01*
X72140000Y-75240000D02*
X72140000Y-77561000D01*
X72180000Y-70480000D02*
X72180000Y-72760000D01*
X72180000Y-75240000D02*
X72180000Y-77520000D01*
X72220000Y-70522000D02*
X72220000Y-72760000D01*
X72220000Y-75240000D02*
X72220000Y-77478000D01*
X72260000Y-70565000D02*
X72260000Y-77435000D01*
X72300000Y-70609000D02*
X72300000Y-77391000D01*
X72340000Y-70653000D02*
X72340000Y-77347000D01*
X72380000Y-70699000D02*
X72380000Y-77301000D01*
X72420000Y-70746000D02*
X72420000Y-77254000D01*
X72460000Y-70795000D02*
X72460000Y-77205000D01*
X72500000Y-70844000D02*
X72500000Y-77156000D01*
X72540000Y-70895000D02*
X72540000Y-77105000D01*
X72580000Y-70947000D02*
X72580000Y-77053000D01*
X72620000Y-71000000D02*
X72620000Y-77000000D01*
X72660000Y-71055000D02*
X72660000Y-76945000D01*
X72700000Y-71112000D02*
X72700000Y-76888000D01*
X72740000Y-71170000D02*
X72740000Y-76830000D01*
X72780000Y-71230000D02*
X72780000Y-76770000D01*
X72820000Y-71292000D02*
X72820000Y-76708000D01*
X72860000Y-71356000D02*
X72860000Y-76644000D01*
X72900000Y-71422000D02*
X72900000Y-76578000D01*
X72940000Y-71490000D02*
X72940000Y-76510000D01*
X72980000Y-71561000D02*
X72980000Y-76439000D01*
X73020000Y-71635000D02*
X73020000Y-76365000D01*
X73060000Y-71712000D02*
X73060000Y-76288000D01*
X73100000Y-71792000D02*
X73100000Y-76208000D01*
X73140000Y-71876000D02*
X73140000Y-76124000D01*
X73180000Y-71963000D02*
X73180000Y-76037000D01*
X73220000Y-72056000D02*
X73220000Y-75944000D01*
X73260000Y-72154000D02*
X73260000Y-75846000D01*
X73300000Y-72258000D02*
X73300000Y-75742000D01*
X73340000Y-72370000D02*
X73340000Y-75630000D01*
X73380000Y-72491000D02*
X73380000Y-75509000D01*
X73420000Y-72623000D02*
X73420000Y-75377000D01*
X73460000Y-72770000D02*
X73460000Y-75230000D01*
X73500000Y-72938000D02*
X73500000Y-75062000D01*
X73540000Y-73138000D02*
X73540000Y-74862000D01*
X73580000Y-73401000D02*
X73580000Y-74599000D01*
X73620000Y-74000000D02*
G75*
G02*
X63380000Y-74000000I-5120000J0D01*
G01*
X63380000Y-74000000D02*
G75*
G02*
X73620000Y-74000000I5120000J0D01*
G01*
%TO.C,C3*%
X52340302Y-24685000D02*
X53140302Y-24685000D01*
X52740302Y-24285000D02*
X52740302Y-25085000D01*
X56750000Y-22920000D02*
X56750000Y-31080000D01*
X56790000Y-22920000D02*
X56790000Y-31080000D01*
X56830000Y-22921000D02*
X56830000Y-31079000D01*
X56870000Y-22922000D02*
X56870000Y-31078000D01*
X56910000Y-22923000D02*
X56910000Y-31077000D01*
X56950000Y-22925000D02*
X56950000Y-31075000D01*
X56990000Y-22927000D02*
X56990000Y-31073000D01*
X57030000Y-22930000D02*
X57030000Y-31070000D01*
X57070000Y-22932000D02*
X57070000Y-31068000D01*
X57110000Y-22936000D02*
X57110000Y-31064000D01*
X57150000Y-22939000D02*
X57150000Y-31061000D01*
X57190000Y-22944000D02*
X57190000Y-31056000D01*
X57230000Y-22948000D02*
X57230000Y-31052000D01*
X57270000Y-22953000D02*
X57270000Y-31047000D01*
X57310000Y-22958000D02*
X57310000Y-31042000D01*
X57350000Y-22964000D02*
X57350000Y-31036000D01*
X57390000Y-22970000D02*
X57390000Y-31030000D01*
X57430000Y-22977000D02*
X57430000Y-31023000D01*
X57470000Y-22983000D02*
X57470000Y-25960000D01*
X57470000Y-28040000D02*
X57470000Y-31017000D01*
X57510000Y-22991000D02*
X57510000Y-25960000D01*
X57510000Y-28040000D02*
X57510000Y-31009000D01*
X57550000Y-22998000D02*
X57550000Y-25960000D01*
X57550000Y-28040000D02*
X57550000Y-31002000D01*
X57590000Y-23007000D02*
X57590000Y-25960000D01*
X57590000Y-28040000D02*
X57590000Y-30993000D01*
X57630000Y-23015000D02*
X57630000Y-25960000D01*
X57630000Y-28040000D02*
X57630000Y-30985000D01*
X57670000Y-23024000D02*
X57670000Y-25960000D01*
X57670000Y-28040000D02*
X57670000Y-30976000D01*
X57710000Y-23033000D02*
X57710000Y-25960000D01*
X57710000Y-28040000D02*
X57710000Y-30967000D01*
X57750000Y-23043000D02*
X57750000Y-25960000D01*
X57750000Y-28040000D02*
X57750000Y-30957000D01*
X57790000Y-23053000D02*
X57790000Y-25960000D01*
X57790000Y-28040000D02*
X57790000Y-30947000D01*
X57830000Y-23064000D02*
X57830000Y-25960000D01*
X57830000Y-28040000D02*
X57830000Y-30936000D01*
X57870000Y-23075000D02*
X57870000Y-25960000D01*
X57870000Y-28040000D02*
X57870000Y-30925000D01*
X57910000Y-23087000D02*
X57910000Y-25960000D01*
X57910000Y-28040000D02*
X57910000Y-30913000D01*
X57950000Y-23099000D02*
X57950000Y-25960000D01*
X57950000Y-28040000D02*
X57950000Y-30901000D01*
X57990000Y-23111000D02*
X57990000Y-25960000D01*
X57990000Y-28040000D02*
X57990000Y-30889000D01*
X58030000Y-23124000D02*
X58030000Y-25960000D01*
X58030000Y-28040000D02*
X58030000Y-30876000D01*
X58070000Y-23137000D02*
X58070000Y-25960000D01*
X58070000Y-28040000D02*
X58070000Y-30863000D01*
X58110000Y-23151000D02*
X58110000Y-25960000D01*
X58110000Y-28040000D02*
X58110000Y-30849000D01*
X58150000Y-23165000D02*
X58150000Y-25960000D01*
X58150000Y-28040000D02*
X58150000Y-30835000D01*
X58190000Y-23180000D02*
X58190000Y-25960000D01*
X58190000Y-28040000D02*
X58190000Y-30820000D01*
X58230000Y-23195000D02*
X58230000Y-25960000D01*
X58230000Y-28040000D02*
X58230000Y-30805000D01*
X58270000Y-23211000D02*
X58270000Y-25960000D01*
X58270000Y-28040000D02*
X58270000Y-30789000D01*
X58310000Y-23227000D02*
X58310000Y-25960000D01*
X58310000Y-28040000D02*
X58310000Y-30773000D01*
X58350000Y-23243000D02*
X58350000Y-25960000D01*
X58350000Y-28040000D02*
X58350000Y-30757000D01*
X58390000Y-23260000D02*
X58390000Y-25960000D01*
X58390000Y-28040000D02*
X58390000Y-30740000D01*
X58430000Y-23278000D02*
X58430000Y-25960000D01*
X58430000Y-28040000D02*
X58430000Y-30722000D01*
X58470000Y-23296000D02*
X58470000Y-25960000D01*
X58470000Y-28040000D02*
X58470000Y-30704000D01*
X58510000Y-23315000D02*
X58510000Y-25960000D01*
X58510000Y-28040000D02*
X58510000Y-30685000D01*
X58550000Y-23334000D02*
X58550000Y-25960000D01*
X58550000Y-28040000D02*
X58550000Y-30666000D01*
X58590000Y-23354000D02*
X58590000Y-25960000D01*
X58590000Y-28040000D02*
X58590000Y-30646000D01*
X58630000Y-23374000D02*
X58630000Y-25960000D01*
X58630000Y-28040000D02*
X58630000Y-30626000D01*
X58670000Y-23395000D02*
X58670000Y-25960000D01*
X58670000Y-28040000D02*
X58670000Y-30605000D01*
X58710000Y-23416000D02*
X58710000Y-25960000D01*
X58710000Y-28040000D02*
X58710000Y-30584000D01*
X58750000Y-23438000D02*
X58750000Y-25960000D01*
X58750000Y-28040000D02*
X58750000Y-30562000D01*
X58790000Y-23461000D02*
X58790000Y-25960000D01*
X58790000Y-28040000D02*
X58790000Y-30539000D01*
X58830000Y-23484000D02*
X58830000Y-25960000D01*
X58830000Y-28040000D02*
X58830000Y-30516000D01*
X58870000Y-23507000D02*
X58870000Y-25960000D01*
X58870000Y-28040000D02*
X58870000Y-30493000D01*
X58910000Y-23532000D02*
X58910000Y-25960000D01*
X58910000Y-28040000D02*
X58910000Y-30468000D01*
X58950000Y-23557000D02*
X58950000Y-25960000D01*
X58950000Y-28040000D02*
X58950000Y-30443000D01*
X58990000Y-23582000D02*
X58990000Y-25960000D01*
X58990000Y-28040000D02*
X58990000Y-30418000D01*
X59030000Y-23608000D02*
X59030000Y-25960000D01*
X59030000Y-28040000D02*
X59030000Y-30392000D01*
X59070000Y-23635000D02*
X59070000Y-25960000D01*
X59070000Y-28040000D02*
X59070000Y-30365000D01*
X59110000Y-23663000D02*
X59110000Y-25960000D01*
X59110000Y-28040000D02*
X59110000Y-30337000D01*
X59150000Y-23691000D02*
X59150000Y-25960000D01*
X59150000Y-28040000D02*
X59150000Y-30309000D01*
X59190000Y-23720000D02*
X59190000Y-25960000D01*
X59190000Y-28040000D02*
X59190000Y-30280000D01*
X59230000Y-23750000D02*
X59230000Y-25960000D01*
X59230000Y-28040000D02*
X59230000Y-30250000D01*
X59270000Y-23781000D02*
X59270000Y-25960000D01*
X59270000Y-28040000D02*
X59270000Y-30219000D01*
X59310000Y-23812000D02*
X59310000Y-25960000D01*
X59310000Y-28040000D02*
X59310000Y-30188000D01*
X59350000Y-23844000D02*
X59350000Y-25960000D01*
X59350000Y-28040000D02*
X59350000Y-30156000D01*
X59390000Y-23877000D02*
X59390000Y-25960000D01*
X59390000Y-28040000D02*
X59390000Y-30123000D01*
X59430000Y-23911000D02*
X59430000Y-25960000D01*
X59430000Y-28040000D02*
X59430000Y-30089000D01*
X59470000Y-23945000D02*
X59470000Y-25960000D01*
X59470000Y-28040000D02*
X59470000Y-30055000D01*
X59510000Y-23981000D02*
X59510000Y-25960000D01*
X59510000Y-28040000D02*
X59510000Y-30019000D01*
X59550000Y-24018000D02*
X59550000Y-29982000D01*
X59590000Y-24055000D02*
X59590000Y-29945000D01*
X59630000Y-24094000D02*
X59630000Y-29906000D01*
X59670000Y-24133000D02*
X59670000Y-29867000D01*
X59710000Y-24174000D02*
X59710000Y-29826000D01*
X59750000Y-24216000D02*
X59750000Y-29784000D01*
X59790000Y-24259000D02*
X59790000Y-29741000D01*
X59830000Y-24304000D02*
X59830000Y-29696000D01*
X59870000Y-24349000D02*
X59870000Y-29651000D01*
X59910000Y-24396000D02*
X59910000Y-29604000D01*
X59950000Y-24445000D02*
X59950000Y-29555000D01*
X59990000Y-24495000D02*
X59990000Y-29505000D01*
X60030000Y-24547000D02*
X60030000Y-29453000D01*
X60070000Y-24600000D02*
X60070000Y-29400000D01*
X60110000Y-24656000D02*
X60110000Y-29344000D01*
X60150000Y-24713000D02*
X60150000Y-29287000D01*
X60190000Y-24773000D02*
X60190000Y-29227000D01*
X60230000Y-24835000D02*
X60230000Y-29165000D01*
X60270000Y-24899000D02*
X60270000Y-29101000D01*
X60310000Y-24966000D02*
X60310000Y-29034000D01*
X60350000Y-25036000D02*
X60350000Y-28964000D01*
X60390000Y-25110000D02*
X60390000Y-28890000D01*
X60430000Y-25187000D02*
X60430000Y-28813000D01*
X60470000Y-25269000D02*
X60470000Y-28731000D01*
X60510000Y-25356000D02*
X60510000Y-28644000D01*
X60550000Y-25448000D02*
X60550000Y-28552000D01*
X60590000Y-25547000D02*
X60590000Y-28453000D01*
X60630000Y-25654000D02*
X60630000Y-28346000D01*
X60670000Y-25772000D02*
X60670000Y-28228000D01*
X60710000Y-25903000D02*
X60710000Y-28097000D01*
X60750000Y-26053000D02*
X60750000Y-27947000D01*
X60790000Y-26232000D02*
X60790000Y-27768000D01*
X60830000Y-26467000D02*
X60830000Y-27533000D01*
X60870000Y-27000000D02*
G75*
G02*
X52630000Y-27000000I-4120000J0D01*
G01*
X52630000Y-27000000D02*
G75*
G02*
X60870000Y-27000000I4120000J0D01*
G01*
%TO.C,U1*%
X21500000Y-80820000D02*
X49899999Y-80820000D01*
X21500001Y-32900000D02*
X21500000Y-80820000D01*
X26730120Y-26986880D02*
X44713320Y-26986880D01*
X26730120Y-32879680D02*
X26730120Y-26986880D01*
X44713320Y-26986880D02*
X44713320Y-32879680D01*
X49899999Y-80820000D02*
X49900000Y-32900000D01*
X49900000Y-32900000D02*
X21500001Y-32900000D01*
%TO.C,U3*%
D11*
X77000000Y-50000000D02*
X81000000Y-50000000D01*
X98400000Y-36400000D02*
X101600000Y-36400000D01*
X77000000Y-29500000D02*
X102000000Y-29500000D01*
X102000000Y-54500000D01*
X77000000Y-54500000D01*
X77000000Y-29500000D01*
%TD*%
M02*
