%TF.GenerationSoftware,KiCad,Pcbnew,10.0.5*%
%TF.CreationDate,2026-08-31T10:10:09+07:00*%
%TF.ProjectId,vsmart-module-carrier,76736d61-7274-42d6-9d6f-64756c652d63,rev?*%
%TF.SameCoordinates,Original*%
%TF.FileFunction,Copper,L1,Top*%
%TF.FilePolarity,Positive*%
%FSLAX46Y46*%
G04 Gerber Fmt 4.6, Leading zero omitted, Abs format (unit mm)*
G04 Created by KiCad (PCBNEW 10.0.5) date 2026-08-31 10:10:09*
%MOMM*%
%LPD*%
G01*
G04 APERTURE LIST*
G04 Aperture macros list*
%AMRoundRect*
0 Rectangle with rounded corners*
0 $1 Rounding radius*
0 $2 $3 $4 $5 $6 $7 $8 $9 X,Y pos of 4 corners*
0 Add a 4 corners polygon primitive as box body*
4,1,4,$2,$3,$4,$5,$6,$7,$8,$9,$2,$3,0*
0 Add four circle primitives for the rounded corners*
1,1,$1+$1,$2,$3*
1,1,$1+$1,$4,$5*
1,1,$1+$1,$6,$7*
1,1,$1+$1,$8,$9*
0 Add four rect primitives between the rounded corners*
20,1,$1+$1,$2,$3,$4,$5,0*
20,1,$1+$1,$4,$5,$6,$7,0*
20,1,$1+$1,$6,$7,$8,$9,0*
20,1,$1+$1,$8,$9,$2,$3,0*%
G04 Aperture macros list end*
%TA.AperFunction,ComponentPad*%
%ADD10R,1.700000X1.700000*%
%TD*%
%TA.AperFunction,ComponentPad*%
%ADD11O,1.700000X1.700000*%
%TD*%
%TA.AperFunction,ComponentPad*%
%ADD12C,1.524000*%
%TD*%
%TA.AperFunction,ComponentPad*%
%ADD13RoundRect,0.250000X-1.125000X-1.125000X1.125000X-1.125000X1.125000X1.125000X-1.125000X1.125000X0*%
%TD*%
%TA.AperFunction,ComponentPad*%
%ADD14C,2.750000*%
%TD*%
%TA.AperFunction,ComponentPad*%
%ADD15RoundRect,0.250000X-0.750000X-0.750000X0.750000X-0.750000X0.750000X0.750000X-0.750000X0.750000X0*%
%TD*%
%TA.AperFunction,ComponentPad*%
%ADD16C,2.000000*%
%TD*%
%TA.AperFunction,ComponentPad*%
%ADD17RoundRect,0.250000X-0.550000X-0.550000X0.550000X-0.550000X0.550000X0.550000X-0.550000X0.550000X0*%
%TD*%
%TA.AperFunction,ComponentPad*%
%ADD18C,1.600000*%
%TD*%
%TA.AperFunction,ComponentPad*%
%ADD19R,2.000000X1.200000*%
%TD*%
%TA.AperFunction,ComponentPad*%
%ADD20O,2.000000X1.200000*%
%TD*%
%TA.AperFunction,ComponentPad*%
%ADD21R,1.800000X1.800000*%
%TD*%
%TA.AperFunction,ComponentPad*%
%ADD22O,1.800000X1.800000*%
%TD*%
%TA.AperFunction,ViaPad*%
%ADD23C,0.800000*%
%TD*%
%TA.AperFunction,Conductor*%
%ADD24C,0.250000*%
%TD*%
%TA.AperFunction,Conductor*%
%ADD25C,0.200000*%
%TD*%
%TA.AperFunction,Conductor*%
%ADD26C,0.500000*%
%TD*%
%TA.AperFunction,Conductor*%
%ADD27C,1.000000*%
%TD*%
G04 APERTURE END LIST*
D10*
%TO.P,U4,1*%
%TO.N,SIM_RI*%
X101072600Y-81334000D03*
D11*
%TO.P,U4,2*%
%TO.N,SIM_DTR*%
X101072600Y-78794000D03*
%TO.P,U4,3*%
%TO.N,N/C*%
X101072600Y-76254000D03*
%TO.P,U4,4*%
X101072600Y-73714000D03*
%TO.P,U4,5*%
X101072600Y-71174000D03*
%TO.P,U4,6*%
X101072600Y-68634000D03*
D10*
%TO.P,U4,7*%
X78999000Y-83858000D03*
D11*
%TO.P,U4,8*%
%TO.N,+5V_SIM*%
X78999000Y-81318000D03*
%TO.P,U4,9*%
%TO.N,SIM_RST*%
X78999000Y-78778000D03*
%TO.P,U4,10*%
%TO.N,SIM_TX*%
X78999000Y-76238000D03*
%TO.P,U4,11*%
%TO.N,SIM_RX*%
X78999000Y-73698000D03*
%TO.P,U4,12*%
%TO.N,GND*%
X78999000Y-71158000D03*
%TD*%
D12*
%TO.P,U2,1*%
%TO.N,+3V3*%
X55000000Y-43220000D03*
%TO.P,U2,2*%
%TO.N,GND*%
X55000000Y-45760000D03*
%TO.P,U2,3*%
%TO.N,I2C_SCL*%
X55000000Y-48300000D03*
%TO.P,U2,4*%
%TO.N,I2C_SDA*%
X55000000Y-50840000D03*
%TO.P,U2,5*%
%TO.N,N/C*%
X55000000Y-53380000D03*
%TO.P,U2,6*%
X55000000Y-55920000D03*
%TO.P,U2,7*%
%TO.N,GND*%
X55000000Y-58460000D03*
%TO.P,U2,8*%
%TO.N,MPU_INT*%
X55000000Y-61000000D03*
%TD*%
D13*
%TO.P,J2,1*%
%TO.N,+5V_SIM*%
X67000000Y-86000000D03*
D14*
%TO.P,J2,2*%
%TO.N,GND*%
X72400000Y-86000000D03*
%TD*%
D15*
%TO.P,C1,1*%
%TO.N,+5V_SIM*%
X66000000Y-74000000D03*
D16*
%TO.P,C1,2*%
%TO.N,GND*%
X71000000Y-74000000D03*
%TD*%
D17*
%TO.P,C3,1*%
%TO.N,+5V*%
X55000000Y-27000000D03*
D18*
%TO.P,C3,2*%
%TO.N,GND*%
X58500000Y-27000000D03*
%TD*%
D19*
%TO.P,U1,1*%
%TO.N,+3V3*%
X23000000Y-34000000D03*
D20*
%TO.P,U1,2*%
%TO.N,N/C*%
X23000000Y-36540000D03*
%TO.P,U1,3*%
X23000000Y-39080000D03*
%TO.P,U1,4*%
X23000000Y-41620000D03*
%TO.P,U1,5*%
%TO.N,GPS_PPS*%
X23000000Y-44160000D03*
%TO.P,U1,6*%
%TO.N,MPU_INT*%
X23000000Y-46700000D03*
%TO.P,U1,7*%
%TO.N,SIM_RST*%
X23000000Y-49240000D03*
%TO.P,U1,8*%
%TO.N,SIM_RI*%
X23000000Y-51780000D03*
%TO.P,U1,9*%
%TO.N,SIM_DTR*%
X23000000Y-54320000D03*
%TO.P,U1,10*%
%TO.N,SIM_RX*%
X23000000Y-56860000D03*
%TO.P,U1,11*%
%TO.N,SIM_TX*%
X23000000Y-59400000D03*
%TO.P,U1,12*%
%TO.N,N/C*%
X23000000Y-61940000D03*
%TO.P,U1,13*%
X23000000Y-64480000D03*
%TO.P,U1,14*%
%TO.N,GND*%
X23000000Y-67020000D03*
%TO.P,U1,15*%
%TO.N,N/C*%
X23000000Y-69560000D03*
%TO.P,U1,16*%
X23000000Y-72100000D03*
%TO.P,U1,17*%
X23000000Y-74640000D03*
%TO.P,U1,18*%
X23000000Y-77180000D03*
%TO.P,U1,19*%
%TO.N,+5V*%
X23000000Y-79720000D03*
%TO.P,U1,20*%
%TO.N,N/C*%
X48396320Y-79717280D03*
%TO.P,U1,21*%
X48396320Y-77177280D03*
%TO.P,U1,22*%
X48400000Y-74640000D03*
%TO.P,U1,23*%
X48400000Y-72100000D03*
%TO.P,U1,24*%
X48400000Y-69560000D03*
%TO.P,U1,25*%
X48400000Y-67020000D03*
%TO.P,U1,26*%
X48400000Y-64480000D03*
%TO.P,U1,27*%
%TO.N,GPS_RX*%
X48400000Y-61940000D03*
%TO.P,U1,28*%
%TO.N,GPS_TX*%
X48400000Y-59400000D03*
%TO.P,U1,29*%
%TO.N,N/C*%
X48400000Y-56860000D03*
%TO.P,U1,30*%
X48400000Y-54320000D03*
%TO.P,U1,31*%
X48400000Y-51780000D03*
%TO.P,U1,32*%
%TO.N,GND*%
X48400000Y-49240000D03*
%TO.P,U1,33*%
%TO.N,I2C_SDA*%
X48400000Y-46700000D03*
%TO.P,U1,34*%
%TO.N,N/C*%
X48400000Y-44160000D03*
%TO.P,U1,35*%
X48400000Y-41620000D03*
%TO.P,U1,36*%
%TO.N,I2C_SCL*%
X48400000Y-39080000D03*
%TO.P,U1,37*%
%TO.N,N/C*%
X48400000Y-36540000D03*
%TO.P,U1,38*%
%TO.N,GND*%
X48400000Y-34000000D03*
%TD*%
D21*
%TO.P,U3,1*%
%TO.N,+3V3*%
X100000000Y-38190000D03*
D22*
%TO.P,U3,2*%
%TO.N,GPS_TX*%
X100000000Y-40730000D03*
%TO.P,U3,3*%
%TO.N,GPS_RX*%
X100000000Y-43270000D03*
%TO.P,U3,4*%
%TO.N,GND*%
X100000000Y-45810000D03*
%TD*%
D13*
%TO.P,J1,1*%
%TO.N,+5V*%
X53000000Y-86000000D03*
D14*
%TO.P,J1,2*%
%TO.N,GND*%
X58400000Y-86000000D03*
%TD*%
D23*
%TO.N,SIM_RI*%
X24975000Y-76937500D03*
%TO.N,SIM_RST*%
X74937500Y-50612500D03*
%TO.N,GND*%
X54000000Y-74000000D03*
X78000000Y-86000000D03*
X54000000Y-80000000D03*
X60000000Y-74000000D03*
X67000000Y-49000000D03*
X61000000Y-49000000D03*
X60000000Y-80000000D03*
X43000000Y-49000000D03*
X67000000Y-61000000D03*
X43000000Y-55000000D03*
X67000000Y-55000000D03*
X61000000Y-61000000D03*
X72000000Y-80000000D03*
X55000000Y-67000000D03*
X43000000Y-67000000D03*
X61000000Y-67000000D03*
%TD*%
%TO.N,SIM_RI*%
D24*
X26177900Y-78140400D02*
X73759400Y-78140400D01*
X101072600Y-81334000D02*
X99895900Y-81334000D01*
X75667000Y-80048000D02*
X98609900Y-80048000D01*
X98609900Y-80048000D02*
X99895900Y-81334000D01*
X24975000Y-76937500D02*
X26177900Y-78140400D01*
X73759400Y-78140400D02*
X75667000Y-80048000D01*
%TO.N,SIM_DTR*%
X101072600Y-78794000D02*
X99895900Y-78794000D01*
X21673300Y-57244500D02*
X22272000Y-57843200D01*
X96069900Y-74968000D02*
X99895900Y-78794000D01*
X36656500Y-71017500D02*
X69964500Y-71017500D01*
X22272000Y-57843200D02*
X23482200Y-57843200D01*
X69964500Y-71017500D02*
X73915000Y-74968000D01*
X23482200Y-57843200D02*
X36656500Y-71017500D01*
X23000000Y-54320000D02*
X21673300Y-54320000D01*
X73915000Y-74968000D02*
X96069900Y-74968000D01*
X21673300Y-54320000D02*
X21673300Y-57244500D01*
%TO.N,+5V_SIM*%
D25*
X67000000Y-86000000D02*
X71682000Y-81318000D01*
X71682000Y-81318000D02*
X78999000Y-81318000D01*
%TO.N,SIM_RST*%
D24*
X51450600Y-50524200D02*
X52926400Y-52000000D01*
X24326700Y-49240000D02*
X25610900Y-50524200D01*
X23000000Y-49240000D02*
X24326700Y-49240000D01*
X73550000Y-52000000D02*
X74937500Y-50612500D01*
X52926400Y-52000000D02*
X73550000Y-52000000D01*
X25610900Y-50524200D02*
X51450600Y-50524200D01*
%TO.N,SIM_TX*%
X24326700Y-59400000D02*
X41164700Y-76238000D01*
X23000000Y-59400000D02*
X24326700Y-59400000D01*
X41164700Y-76238000D02*
X78999000Y-76238000D01*
%TO.N,SIM_RX*%
X23000000Y-56860000D02*
X24326700Y-56860000D01*
X78999000Y-73698000D02*
X77822300Y-73698000D01*
X67346800Y-63222500D02*
X77822300Y-73698000D01*
X24326700Y-56860000D02*
X30689200Y-63222500D01*
X30689200Y-63222500D02*
X67346800Y-63222500D01*
%TO.N,+3V3*%
D26*
X28261700Y-37810000D02*
X24451700Y-34000000D01*
X49590000Y-37810000D02*
X28261700Y-37810000D01*
X60030000Y-38190000D02*
X55000000Y-43220000D01*
X55000000Y-43220000D02*
X49590000Y-37810000D01*
X100000000Y-38190000D02*
X60030000Y-38190000D01*
X23000000Y-34000000D02*
X24451700Y-34000000D01*
%TO.N,+5V*%
D27*
X26252700Y-79720000D02*
X32532700Y-86000000D01*
X23000000Y-79720000D02*
X26252700Y-79720000D01*
X32532700Y-86000000D02*
X53000000Y-86000000D01*
%TO.N,GPS_RX*%
D24*
X79938900Y-62104400D02*
X49891100Y-62104400D01*
X49891100Y-62104400D02*
X49726700Y-61940000D01*
X48400000Y-61940000D02*
X49726700Y-61940000D01*
X98773300Y-43270000D02*
X79938900Y-62104400D01*
X100000000Y-43270000D02*
X98773300Y-43270000D01*
%TO.N,GPS_TX*%
X51972000Y-57154700D02*
X82630600Y-57154700D01*
X98773300Y-41012000D02*
X98773300Y-40730000D01*
X49726700Y-59400000D02*
X51972000Y-57154700D01*
X100000000Y-40730000D02*
X98773300Y-40730000D01*
X82630600Y-57154700D02*
X98773300Y-41012000D01*
X48400000Y-59400000D02*
X49726700Y-59400000D01*
%TD*%
%TA.AperFunction,Conductor*%
%TO.N,GND*%
G36*
X47228946Y-71461907D02*
G01*
X47264910Y-71511407D01*
X47264910Y-71572593D01*
X47253071Y-71597001D01*
X47201985Y-71673456D01*
X47134106Y-71837332D01*
X47134106Y-71837334D01*
X47099500Y-72011306D01*
X47099500Y-72188693D01*
X47134106Y-72362665D01*
X47134106Y-72362667D01*
X47201985Y-72526544D01*
X47201985Y-72526545D01*
X47300535Y-72674034D01*
X47300536Y-72674035D01*
X47425965Y-72799464D01*
X47573453Y-72898013D01*
X47737334Y-72965894D01*
X47911309Y-73000500D01*
X47911310Y-73000500D01*
X48888690Y-73000500D01*
X48888691Y-73000500D01*
X49062666Y-72965894D01*
X49226547Y-72898013D01*
X49374035Y-72799464D01*
X49499464Y-72674035D01*
X49598013Y-72526547D01*
X49665894Y-72362666D01*
X49700500Y-72188691D01*
X49700500Y-72011309D01*
X49665894Y-71837334D01*
X49598013Y-71673453D01*
X49546928Y-71597000D01*
X49530321Y-71538113D01*
X49551499Y-71480710D01*
X49602372Y-71446717D01*
X49629245Y-71443000D01*
X69747244Y-71443000D01*
X69805435Y-71461907D01*
X69817248Y-71471996D01*
X70712878Y-72367626D01*
X70740655Y-72422143D01*
X70731084Y-72482575D01*
X70687819Y-72525840D01*
X70658369Y-72535410D01*
X70648748Y-72536934D01*
X70648743Y-72536935D01*
X70424206Y-72609892D01*
X70424203Y-72609894D01*
X70213823Y-72717088D01*
X70130893Y-72777339D01*
X70870591Y-73517037D01*
X70807007Y-73534075D01*
X70692993Y-73599901D01*
X70599901Y-73692993D01*
X70534075Y-73807007D01*
X70517037Y-73870591D01*
X69777339Y-73130893D01*
X69717088Y-73213823D01*
X69609894Y-73424203D01*
X69609892Y-73424206D01*
X69536935Y-73648743D01*
X69536934Y-73648747D01*
X69500000Y-73881943D01*
X69500000Y-74118056D01*
X69536934Y-74351252D01*
X69536935Y-74351256D01*
X69609892Y-74575793D01*
X69609894Y-74575796D01*
X69717084Y-74786169D01*
X69777339Y-74869105D01*
X70517036Y-74129407D01*
X70534075Y-74192993D01*
X70599901Y-74307007D01*
X70692993Y-74400099D01*
X70807007Y-74465925D01*
X70870590Y-74482962D01*
X70130893Y-75222659D01*
X70213825Y-75282913D01*
X70213829Y-75282915D01*
X70424203Y-75390105D01*
X70424206Y-75390107D01*
X70648743Y-75463064D01*
X70648747Y-75463065D01*
X70881944Y-75500000D01*
X71118056Y-75500000D01*
X71351252Y-75463065D01*
X71351256Y-75463064D01*
X71575793Y-75390107D01*
X71575796Y-75390105D01*
X71786170Y-75282915D01*
X71786176Y-75282911D01*
X71869105Y-75222659D01*
X71869105Y-75222658D01*
X71129409Y-74482962D01*
X71192993Y-74465925D01*
X71307007Y-74400099D01*
X71400099Y-74307007D01*
X71465925Y-74192993D01*
X71482962Y-74129408D01*
X72222658Y-74869105D01*
X72222659Y-74869105D01*
X72282911Y-74786176D01*
X72282915Y-74786170D01*
X72390103Y-74575800D01*
X72463064Y-74351252D01*
X72464585Y-74341646D01*
X72492358Y-74287127D01*
X72546872Y-74259344D01*
X72607305Y-74268910D01*
X72632372Y-74287120D01*
X73574515Y-75229263D01*
X73574514Y-75229263D01*
X73653737Y-75308485D01*
X73750759Y-75364501D01*
X73750757Y-75364501D01*
X73750761Y-75364502D01*
X73750763Y-75364503D01*
X73858982Y-75393500D01*
X77996170Y-75393500D01*
X78054361Y-75412407D01*
X78090325Y-75461907D01*
X78090325Y-75523093D01*
X78076265Y-75550686D01*
X78038277Y-75602972D01*
X78015002Y-75635008D01*
X77978529Y-75706590D01*
X77952107Y-75758446D01*
X77908844Y-75801710D01*
X77863899Y-75812500D01*
X41381956Y-75812500D01*
X41323765Y-75793593D01*
X41311952Y-75783504D01*
X40079754Y-74551306D01*
X47099500Y-74551306D01*
X47099500Y-74728693D01*
X47134106Y-74902665D01*
X47134106Y-74902667D01*
X47201985Y-75066544D01*
X47201985Y-75066545D01*
X47300535Y-75214034D01*
X47300536Y-75214035D01*
X47425965Y-75339464D01*
X47573453Y-75438013D01*
X47737334Y-75505894D01*
X47911309Y-75540500D01*
X47911310Y-75540500D01*
X48888690Y-75540500D01*
X48888691Y-75540500D01*
X49062666Y-75505894D01*
X49226547Y-75438013D01*
X49374035Y-75339464D01*
X49499464Y-75214035D01*
X49598013Y-75066547D01*
X49665894Y-74902666D01*
X49700500Y-74728691D01*
X49700500Y-74551309D01*
X49665894Y-74377334D01*
X49620984Y-74268910D01*
X49598014Y-74213455D01*
X49598014Y-74213454D01*
X49499464Y-74065965D01*
X49374034Y-73940535D01*
X49226544Y-73841985D01*
X49062666Y-73774106D01*
X48888693Y-73739500D01*
X48888691Y-73739500D01*
X47911309Y-73739500D01*
X47911306Y-73739500D01*
X47737334Y-73774106D01*
X47737332Y-73774106D01*
X47573455Y-73841985D01*
X47573454Y-73841985D01*
X47425965Y-73940535D01*
X47300535Y-74065965D01*
X47201985Y-74213454D01*
X47201985Y-74213455D01*
X47134106Y-74377332D01*
X47134106Y-74377334D01*
X47099500Y-74551306D01*
X40079754Y-74551306D01*
X38735341Y-73206893D01*
X64699500Y-73206893D01*
X64699500Y-74793106D01*
X64710123Y-74881565D01*
X64765637Y-75022339D01*
X64765638Y-75022341D01*
X64765639Y-75022342D01*
X64857078Y-75142922D01*
X64977658Y-75234361D01*
X64977659Y-75234361D01*
X64977660Y-75234362D01*
X65048047Y-75262119D01*
X65118436Y-75289877D01*
X65206898Y-75300500D01*
X65206900Y-75300500D01*
X66793100Y-75300500D01*
X66793102Y-75300500D01*
X66881564Y-75289877D01*
X67022342Y-75234361D01*
X67142922Y-75142922D01*
X67234361Y-75022342D01*
X67289877Y-74881564D01*
X67300500Y-74793102D01*
X67300500Y-73206898D01*
X67289877Y-73118436D01*
X67243369Y-73000500D01*
X67234362Y-72977660D01*
X67234361Y-72977659D01*
X67234361Y-72977658D01*
X67142922Y-72857078D01*
X67022342Y-72765639D01*
X67022341Y-72765638D01*
X67022339Y-72765637D01*
X66881565Y-72710123D01*
X66793106Y-72699500D01*
X66793102Y-72699500D01*
X65206898Y-72699500D01*
X65206893Y-72699500D01*
X65118434Y-72710123D01*
X64977660Y-72765637D01*
X64977656Y-72765640D01*
X64857081Y-72857075D01*
X64857075Y-72857081D01*
X64765640Y-72977656D01*
X64765637Y-72977660D01*
X64710123Y-73118434D01*
X64699500Y-73206893D01*
X38735341Y-73206893D01*
X37140452Y-71612004D01*
X37112675Y-71557487D01*
X37122246Y-71497055D01*
X37165511Y-71453790D01*
X37210456Y-71443000D01*
X47170755Y-71443000D01*
X47228946Y-71461907D01*
G37*
%TD.AperFunction*%
%TA.AperFunction,Conductor*%
G36*
X24264681Y-57399729D02*
G01*
X30348715Y-63483763D01*
X30348714Y-63483763D01*
X30427937Y-63562985D01*
X30524959Y-63619001D01*
X30524957Y-63619001D01*
X30524961Y-63619002D01*
X30524963Y-63619003D01*
X30633182Y-63648000D01*
X47319493Y-63648000D01*
X47377684Y-63666907D01*
X47413648Y-63716407D01*
X47413648Y-63777593D01*
X47389497Y-63817004D01*
X47300535Y-63905965D01*
X47201985Y-64053454D01*
X47201985Y-64053455D01*
X47134106Y-64217332D01*
X47134106Y-64217334D01*
X47099500Y-64391306D01*
X47099500Y-64568693D01*
X47134106Y-64742665D01*
X47134106Y-64742667D01*
X47201985Y-64906544D01*
X47201985Y-64906545D01*
X47300535Y-65054034D01*
X47300536Y-65054035D01*
X47425965Y-65179464D01*
X47573453Y-65278013D01*
X47737334Y-65345894D01*
X47911309Y-65380500D01*
X47911310Y-65380500D01*
X48888690Y-65380500D01*
X48888691Y-65380500D01*
X49062666Y-65345894D01*
X49226547Y-65278013D01*
X49374035Y-65179464D01*
X49499464Y-65054035D01*
X49598013Y-64906547D01*
X49665894Y-64742666D01*
X49700500Y-64568691D01*
X49700500Y-64391309D01*
X49665894Y-64217334D01*
X49598014Y-64053455D01*
X49598014Y-64053454D01*
X49499464Y-63905965D01*
X49410503Y-63817004D01*
X49382726Y-63762487D01*
X49392297Y-63702055D01*
X49435562Y-63658790D01*
X49480507Y-63648000D01*
X67129544Y-63648000D01*
X67187735Y-63666907D01*
X67199548Y-63676996D01*
X77561037Y-74038485D01*
X77561039Y-74038486D01*
X77658059Y-74094501D01*
X77658057Y-74094501D01*
X77658061Y-74094502D01*
X77658063Y-74094503D01*
X77766281Y-74123500D01*
X77766282Y-74123500D01*
X77863899Y-74123500D01*
X77922090Y-74142407D01*
X77952107Y-74177552D01*
X77989918Y-74251762D01*
X78007934Y-74287120D01*
X78015004Y-74300994D01*
X78076263Y-74385311D01*
X78095170Y-74443500D01*
X78076263Y-74501691D01*
X78026763Y-74537655D01*
X77996170Y-74542500D01*
X74132256Y-74542500D01*
X74074065Y-74523593D01*
X74062252Y-74513504D01*
X72158640Y-72609892D01*
X70225763Y-70677015D01*
X70225760Y-70677013D01*
X70128740Y-70620998D01*
X70128742Y-70620998D01*
X70086751Y-70609747D01*
X70020518Y-70592000D01*
X70020516Y-70592000D01*
X49159357Y-70592000D01*
X49101166Y-70573093D01*
X49065202Y-70523593D01*
X49065202Y-70462407D01*
X49101166Y-70412907D01*
X49121472Y-70401536D01*
X49226547Y-70358013D01*
X49374035Y-70259464D01*
X49499464Y-70134035D01*
X49598013Y-69986547D01*
X49665894Y-69822666D01*
X49700500Y-69648691D01*
X49700500Y-69471309D01*
X49665894Y-69297334D01*
X49598014Y-69133455D01*
X49598014Y-69133454D01*
X49499464Y-68985965D01*
X49374034Y-68860535D01*
X49226544Y-68761985D01*
X49062666Y-68694106D01*
X48888693Y-68659500D01*
X48888691Y-68659500D01*
X47911309Y-68659500D01*
X47911306Y-68659500D01*
X47737334Y-68694106D01*
X47737332Y-68694106D01*
X47573455Y-68761985D01*
X47573454Y-68761985D01*
X47425965Y-68860535D01*
X47300535Y-68985965D01*
X47201985Y-69133454D01*
X47201985Y-69133455D01*
X47134106Y-69297332D01*
X47134106Y-69297334D01*
X47099500Y-69471306D01*
X47099500Y-69648693D01*
X47134106Y-69822665D01*
X47134106Y-69822667D01*
X47201985Y-69986544D01*
X47201985Y-69986545D01*
X47300535Y-70134034D01*
X47300536Y-70134035D01*
X47425965Y-70259464D01*
X47573453Y-70358013D01*
X47573454Y-70358013D01*
X47573455Y-70358014D01*
X47678528Y-70401536D01*
X47725054Y-70441272D01*
X47739338Y-70500767D01*
X47715924Y-70557295D01*
X47663755Y-70589264D01*
X47640643Y-70592000D01*
X36873756Y-70592000D01*
X36815565Y-70573093D01*
X36803752Y-70563004D01*
X33172054Y-66931306D01*
X47099500Y-66931306D01*
X47099500Y-67108693D01*
X47134106Y-67282665D01*
X47134106Y-67282667D01*
X47201985Y-67446544D01*
X47201985Y-67446545D01*
X47300535Y-67594034D01*
X47300536Y-67594035D01*
X47425965Y-67719464D01*
X47573453Y-67818013D01*
X47737334Y-67885894D01*
X47911309Y-67920500D01*
X47911310Y-67920500D01*
X48888690Y-67920500D01*
X48888691Y-67920500D01*
X49062666Y-67885894D01*
X49226547Y-67818013D01*
X49374035Y-67719464D01*
X49499464Y-67594035D01*
X49598013Y-67446547D01*
X49665894Y-67282666D01*
X49700500Y-67108691D01*
X49700500Y-66931309D01*
X49665894Y-66757334D01*
X49598014Y-66593455D01*
X49598014Y-66593454D01*
X49499464Y-66445965D01*
X49374034Y-66320535D01*
X49226544Y-66221985D01*
X49062666Y-66154106D01*
X48888693Y-66119500D01*
X48888691Y-66119500D01*
X47911309Y-66119500D01*
X47911306Y-66119500D01*
X47737334Y-66154106D01*
X47737332Y-66154106D01*
X47573455Y-66221985D01*
X47573454Y-66221985D01*
X47425965Y-66320535D01*
X47300535Y-66445965D01*
X47201985Y-66593454D01*
X47201985Y-66593455D01*
X47134106Y-66757332D01*
X47134106Y-66757334D01*
X47099500Y-66931306D01*
X33172054Y-66931306D01*
X23955135Y-57714387D01*
X23927358Y-57659870D01*
X23936929Y-57599438D01*
X23970139Y-57562067D01*
X23974035Y-57559464D01*
X24099464Y-57434035D01*
X24112362Y-57414730D01*
X24160410Y-57376853D01*
X24221548Y-57374449D01*
X24264681Y-57399729D01*
G37*
%TD.AperFunction*%
%TA.AperFunction,Conductor*%
G36*
X112002992Y-20500681D02*
G01*
X112295309Y-20518362D01*
X112307164Y-20519802D01*
X112592280Y-20572051D01*
X112603882Y-20574911D01*
X112880623Y-20661147D01*
X112891786Y-20665380D01*
X113152200Y-20782583D01*
X113156118Y-20784347D01*
X113166690Y-20789895D01*
X113414770Y-20939864D01*
X113424583Y-20946638D01*
X113652755Y-21125400D01*
X113661704Y-21133327D01*
X113866672Y-21338295D01*
X113874599Y-21347244D01*
X114053356Y-21575409D01*
X114060138Y-21585233D01*
X114210100Y-21833303D01*
X114215652Y-21843881D01*
X114334616Y-22108206D01*
X114338855Y-22119384D01*
X114425087Y-22396114D01*
X114427948Y-22407722D01*
X114480196Y-22692828D01*
X114481637Y-22704695D01*
X114499319Y-22997006D01*
X114499500Y-23002984D01*
X114499500Y-86997015D01*
X114499319Y-87002993D01*
X114481637Y-87295304D01*
X114480196Y-87307171D01*
X114427948Y-87592277D01*
X114425087Y-87603885D01*
X114338855Y-87880615D01*
X114334616Y-87891793D01*
X114215652Y-88156118D01*
X114210096Y-88166703D01*
X114060142Y-88414758D01*
X114053356Y-88424590D01*
X113874599Y-88652755D01*
X113866672Y-88661704D01*
X113661704Y-88866672D01*
X113652755Y-88874599D01*
X113424590Y-89053356D01*
X113414758Y-89060142D01*
X113177212Y-89203744D01*
X113166703Y-89210097D01*
X113156118Y-89215652D01*
X112891793Y-89334616D01*
X112880615Y-89338855D01*
X112603885Y-89425087D01*
X112592277Y-89427948D01*
X112307171Y-89480196D01*
X112295304Y-89481637D01*
X112023993Y-89498048D01*
X112002991Y-89499319D01*
X111997015Y-89499500D01*
X23002985Y-89499500D01*
X22997008Y-89499319D01*
X22973564Y-89497900D01*
X22704695Y-89481637D01*
X22692828Y-89480196D01*
X22407722Y-89427948D01*
X22396114Y-89425087D01*
X22119384Y-89338855D01*
X22108206Y-89334616D01*
X21843881Y-89215652D01*
X21833303Y-89210100D01*
X21585233Y-89060138D01*
X21575413Y-89053359D01*
X21347244Y-88874599D01*
X21338295Y-88866672D01*
X21133327Y-88661704D01*
X21125400Y-88652755D01*
X20946638Y-88424583D01*
X20939864Y-88414770D01*
X20789895Y-88166690D01*
X20784347Y-88156118D01*
X20665383Y-87891793D01*
X20661147Y-87880623D01*
X20574911Y-87603882D01*
X20572051Y-87592277D01*
X20536328Y-87397342D01*
X20519802Y-87307164D01*
X20518362Y-87295303D01*
X20500681Y-87002992D01*
X20500500Y-86997015D01*
X20500500Y-84878710D01*
X23149500Y-84878710D01*
X23149500Y-85121289D01*
X23181161Y-85361781D01*
X23181161Y-85361786D01*
X23243944Y-85596092D01*
X23243948Y-85596105D01*
X23336772Y-85820204D01*
X23336774Y-85820208D01*
X23336776Y-85820212D01*
X23390821Y-85913820D01*
X23458066Y-86030292D01*
X23605729Y-86222731D01*
X23605731Y-86222733D01*
X23605735Y-86222738D01*
X23777262Y-86394265D01*
X23777266Y-86394268D01*
X23777268Y-86394270D01*
X23803591Y-86414468D01*
X23969711Y-86541936D01*
X24179788Y-86663224D01*
X24403900Y-86756054D01*
X24638211Y-86818838D01*
X24878712Y-86850500D01*
X24878713Y-86850500D01*
X25121287Y-86850500D01*
X25121288Y-86850500D01*
X25361789Y-86818838D01*
X25596100Y-86756054D01*
X25820212Y-86663224D01*
X26030289Y-86541936D01*
X26222738Y-86394265D01*
X26394265Y-86222738D01*
X26541936Y-86030289D01*
X26663224Y-85820212D01*
X26756054Y-85596100D01*
X26818838Y-85361789D01*
X26850500Y-85121288D01*
X26850500Y-84878712D01*
X26818838Y-84638211D01*
X26756054Y-84403900D01*
X26663224Y-84179788D01*
X26541936Y-83969711D01*
X26394265Y-83777262D01*
X26222738Y-83605735D01*
X26222733Y-83605731D01*
X26222731Y-83605729D01*
X26030292Y-83458066D01*
X26030289Y-83458064D01*
X25820212Y-83336776D01*
X25820208Y-83336774D01*
X25820204Y-83336772D01*
X25596105Y-83243948D01*
X25596104Y-83243947D01*
X25596100Y-83243946D01*
X25361789Y-83181162D01*
X25361786Y-83181161D01*
X25361784Y-83181161D01*
X25121289Y-83149500D01*
X25121288Y-83149500D01*
X24878712Y-83149500D01*
X24878710Y-83149500D01*
X24638218Y-83181161D01*
X24638213Y-83181161D01*
X24403907Y-83243944D01*
X24403894Y-83243948D01*
X24179795Y-83336772D01*
X23969707Y-83458066D01*
X23777268Y-83605729D01*
X23605729Y-83777268D01*
X23458066Y-83969707D01*
X23336772Y-84179795D01*
X23243948Y-84403894D01*
X23243944Y-84403907D01*
X23181161Y-84638213D01*
X23181161Y-84638218D01*
X23149500Y-84878710D01*
X20500500Y-84878710D01*
X20500500Y-79631306D01*
X21699500Y-79631306D01*
X21699500Y-79808693D01*
X21734106Y-79982665D01*
X21734106Y-79982667D01*
X21801985Y-80146544D01*
X21801985Y-80146545D01*
X21900535Y-80294034D01*
X21900536Y-80294035D01*
X22025965Y-80419464D01*
X22173453Y-80518013D01*
X22173454Y-80518013D01*
X22173455Y-80518014D01*
X22179457Y-80520500D01*
X22337334Y-80585894D01*
X22511309Y-80620500D01*
X22511310Y-80620500D01*
X23488690Y-80620500D01*
X23488691Y-80620500D01*
X23662666Y-80585894D01*
X23802349Y-80528035D01*
X23840234Y-80520500D01*
X25880114Y-80520500D01*
X25938305Y-80539407D01*
X25950118Y-80549496D01*
X31910911Y-86510289D01*
X32022411Y-86621789D01*
X32100576Y-86674017D01*
X32153514Y-86709390D01*
X32153525Y-86709396D01*
X32203816Y-86730226D01*
X32289667Y-86765787D01*
X32299203Y-86769737D01*
X32453857Y-86800500D01*
X32453858Y-86800500D01*
X51225500Y-86800500D01*
X51283691Y-86819407D01*
X51319655Y-86868907D01*
X51324500Y-86899500D01*
X51324500Y-87168106D01*
X51335123Y-87256565D01*
X51390637Y-87397339D01*
X51390638Y-87397341D01*
X51390639Y-87397342D01*
X51482078Y-87517922D01*
X51602658Y-87609361D01*
X51602659Y-87609361D01*
X51602660Y-87609362D01*
X51673047Y-87637119D01*
X51743436Y-87664877D01*
X51831898Y-87675500D01*
X51831900Y-87675500D01*
X54168100Y-87675500D01*
X54168102Y-87675500D01*
X54256564Y-87664877D01*
X54397342Y-87609361D01*
X54517922Y-87517922D01*
X54609361Y-87397342D01*
X54664877Y-87256564D01*
X54675500Y-87168102D01*
X54675500Y-85877105D01*
X56525000Y-85877105D01*
X56525000Y-86122894D01*
X56557081Y-86366571D01*
X56557081Y-86366576D01*
X56620695Y-86603984D01*
X56620699Y-86603997D01*
X56714753Y-86831067D01*
X56714755Y-86831072D01*
X56837647Y-87043926D01*
X56909229Y-87137215D01*
X57627545Y-86418898D01*
X57720343Y-86557780D01*
X57842220Y-86679657D01*
X57981099Y-86772452D01*
X57262783Y-87490769D01*
X57356073Y-87562352D01*
X57568927Y-87685244D01*
X57568932Y-87685246D01*
X57796002Y-87779300D01*
X57796015Y-87779304D01*
X58033425Y-87842918D01*
X58277105Y-87874999D01*
X58277107Y-87875000D01*
X58522893Y-87875000D01*
X58522894Y-87874999D01*
X58766571Y-87842918D01*
X58766576Y-87842918D01*
X59003984Y-87779304D01*
X59003997Y-87779300D01*
X59231067Y-87685246D01*
X59231072Y-87685244D01*
X59443922Y-87562355D01*
X59537215Y-87490769D01*
X58818899Y-86772453D01*
X58957780Y-86679657D01*
X59079657Y-86557780D01*
X59172453Y-86418899D01*
X59890769Y-87137215D01*
X59962355Y-87043922D01*
X60085244Y-86831072D01*
X60085246Y-86831067D01*
X60179300Y-86603997D01*
X60179304Y-86603984D01*
X60242918Y-86366576D01*
X60242918Y-86366571D01*
X60274999Y-86122894D01*
X60275000Y-86122893D01*
X60275000Y-85877107D01*
X60274999Y-85877105D01*
X60242918Y-85633428D01*
X60242918Y-85633423D01*
X60179304Y-85396015D01*
X60179300Y-85396002D01*
X60085246Y-85168932D01*
X60085244Y-85168927D01*
X59962352Y-84956073D01*
X59890768Y-84862783D01*
X59172452Y-85581098D01*
X59079657Y-85442220D01*
X58957780Y-85320343D01*
X58818898Y-85227545D01*
X59537215Y-84509229D01*
X59443926Y-84437647D01*
X59231072Y-84314755D01*
X59231067Y-84314753D01*
X59003997Y-84220699D01*
X59003984Y-84220695D01*
X58766574Y-84157081D01*
X58522894Y-84125000D01*
X58277105Y-84125000D01*
X58033428Y-84157081D01*
X58033423Y-84157081D01*
X57796015Y-84220695D01*
X57796002Y-84220699D01*
X57568932Y-84314753D01*
X57568927Y-84314755D01*
X57356078Y-84437644D01*
X57262783Y-84509229D01*
X57981100Y-85227546D01*
X57842220Y-85320343D01*
X57720343Y-85442220D01*
X57627546Y-85581100D01*
X56909229Y-84862783D01*
X56837644Y-84956078D01*
X56714755Y-85168927D01*
X56714753Y-85168932D01*
X56620699Y-85396002D01*
X56620695Y-85396015D01*
X56557081Y-85633423D01*
X56557081Y-85633428D01*
X56525000Y-85877105D01*
X54675500Y-85877105D01*
X54675500Y-84831898D01*
X54664877Y-84743436D01*
X54609361Y-84602658D01*
X54517922Y-84482078D01*
X54397342Y-84390639D01*
X54397341Y-84390638D01*
X54397339Y-84390637D01*
X54256565Y-84335123D01*
X54168106Y-84324500D01*
X54168102Y-84324500D01*
X51831898Y-84324500D01*
X51831893Y-84324500D01*
X51743434Y-84335123D01*
X51602660Y-84390637D01*
X51602656Y-84390640D01*
X51482081Y-84482075D01*
X51482075Y-84482081D01*
X51390640Y-84602656D01*
X51390637Y-84602660D01*
X51335123Y-84743434D01*
X51324500Y-84831893D01*
X51324500Y-85100500D01*
X51305593Y-85158691D01*
X51256093Y-85194655D01*
X51225500Y-85199500D01*
X32905286Y-85199500D01*
X32847095Y-85180593D01*
X32835282Y-85170504D01*
X27293364Y-79628586D01*
X47095820Y-79628586D01*
X47095820Y-79805973D01*
X47130426Y-79979945D01*
X47130426Y-79979947D01*
X47198305Y-80143824D01*
X47198305Y-80143825D01*
X47257085Y-80231794D01*
X47296856Y-80291315D01*
X47422285Y-80416744D01*
X47569773Y-80515293D01*
X47569774Y-80515293D01*
X47569775Y-80515294D01*
X47582344Y-80520500D01*
X47733654Y-80583174D01*
X47907629Y-80617780D01*
X47907630Y-80617780D01*
X48885010Y-80617780D01*
X48885011Y-80617780D01*
X49058986Y-80583174D01*
X49222867Y-80515293D01*
X49370355Y-80416744D01*
X49495784Y-80291315D01*
X49594333Y-80143827D01*
X49662214Y-79979946D01*
X49696820Y-79805971D01*
X49696820Y-79628589D01*
X49662214Y-79454614D01*
X49628273Y-79372673D01*
X49594334Y-79290735D01*
X49594334Y-79290734D01*
X49495784Y-79143245D01*
X49370354Y-79017815D01*
X49222864Y-78919265D01*
X49058986Y-78851386D01*
X48885013Y-78816780D01*
X48885011Y-78816780D01*
X47907629Y-78816780D01*
X47907626Y-78816780D01*
X47733654Y-78851386D01*
X47733652Y-78851386D01*
X47569775Y-78919265D01*
X47569774Y-78919265D01*
X47422285Y-79017815D01*
X47296855Y-79143245D01*
X47198305Y-79290734D01*
X47198305Y-79290735D01*
X47130426Y-79454612D01*
X47130426Y-79454614D01*
X47095820Y-79628586D01*
X27293364Y-79628586D01*
X26762992Y-79098214D01*
X26762989Y-79098211D01*
X26686954Y-79047406D01*
X26631885Y-79010609D01*
X26631874Y-79010603D01*
X26486197Y-78950263D01*
X26331544Y-78919500D01*
X26331542Y-78919500D01*
X23840234Y-78919500D01*
X23802349Y-78911964D01*
X23736155Y-78884546D01*
X23662666Y-78854106D01*
X23648992Y-78851386D01*
X23488693Y-78819500D01*
X23488691Y-78819500D01*
X22511309Y-78819500D01*
X22511306Y-78819500D01*
X22337334Y-78854106D01*
X22337332Y-78854106D01*
X22173455Y-78921985D01*
X22173454Y-78921985D01*
X22025965Y-79020535D01*
X21900535Y-79145965D01*
X21801985Y-79293454D01*
X21801985Y-79293455D01*
X21734106Y-79457332D01*
X21734106Y-79457334D01*
X21699500Y-79631306D01*
X20500500Y-79631306D01*
X20500500Y-74551306D01*
X21699500Y-74551306D01*
X21699500Y-74728693D01*
X21734106Y-74902665D01*
X21734106Y-74902667D01*
X21801985Y-75066544D01*
X21801985Y-75066545D01*
X21900535Y-75214034D01*
X21900536Y-75214035D01*
X22025965Y-75339464D01*
X22173453Y-75438013D01*
X22337334Y-75505894D01*
X22511309Y-75540500D01*
X22511310Y-75540500D01*
X23488690Y-75540500D01*
X23488691Y-75540500D01*
X23662666Y-75505894D01*
X23826547Y-75438013D01*
X23974035Y-75339464D01*
X24099464Y-75214035D01*
X24198013Y-75066547D01*
X24265894Y-74902666D01*
X24300500Y-74728691D01*
X24300500Y-74551309D01*
X24265894Y-74377334D01*
X24220984Y-74268910D01*
X24198014Y-74213455D01*
X24198014Y-74213454D01*
X24099464Y-74065965D01*
X23974034Y-73940535D01*
X23826544Y-73841985D01*
X23662666Y-73774106D01*
X23488693Y-73739500D01*
X23488691Y-73739500D01*
X22511309Y-73739500D01*
X22511306Y-73739500D01*
X22337334Y-73774106D01*
X22337332Y-73774106D01*
X22173455Y-73841985D01*
X22173454Y-73841985D01*
X22025965Y-73940535D01*
X21900535Y-74065965D01*
X21801985Y-74213454D01*
X21801985Y-74213455D01*
X21734106Y-74377332D01*
X21734106Y-74377334D01*
X21699500Y-74551306D01*
X20500500Y-74551306D01*
X20500500Y-72011306D01*
X21699500Y-72011306D01*
X21699500Y-72188693D01*
X21734106Y-72362665D01*
X21734106Y-72362667D01*
X21801985Y-72526544D01*
X21801985Y-72526545D01*
X21900535Y-72674034D01*
X21900536Y-72674035D01*
X22025965Y-72799464D01*
X22173453Y-72898013D01*
X22337334Y-72965894D01*
X22511309Y-73000500D01*
X22511310Y-73000500D01*
X23488690Y-73000500D01*
X23488691Y-73000500D01*
X23662666Y-72965894D01*
X23826547Y-72898013D01*
X23974035Y-72799464D01*
X24099464Y-72674035D01*
X24198013Y-72526547D01*
X24265894Y-72362666D01*
X24300500Y-72188691D01*
X24300500Y-72011309D01*
X24265894Y-71837334D01*
X24198014Y-71673455D01*
X24198014Y-71673454D01*
X24099464Y-71525965D01*
X23974034Y-71400535D01*
X23826544Y-71301985D01*
X23662666Y-71234106D01*
X23488693Y-71199500D01*
X23488691Y-71199500D01*
X22511309Y-71199500D01*
X22511306Y-71199500D01*
X22337334Y-71234106D01*
X22337332Y-71234106D01*
X22173455Y-71301985D01*
X22173454Y-71301985D01*
X22025965Y-71400535D01*
X21900535Y-71525965D01*
X21801985Y-71673454D01*
X21801985Y-71673455D01*
X21734106Y-71837332D01*
X21734106Y-71837334D01*
X21699500Y-72011306D01*
X20500500Y-72011306D01*
X20500500Y-69471306D01*
X21699500Y-69471306D01*
X21699500Y-69648693D01*
X21734106Y-69822665D01*
X21734106Y-69822667D01*
X21801985Y-69986544D01*
X21801985Y-69986545D01*
X21900535Y-70134034D01*
X21900536Y-70134035D01*
X22025965Y-70259464D01*
X22173453Y-70358013D01*
X22337334Y-70425894D01*
X22511309Y-70460500D01*
X22511310Y-70460500D01*
X23488690Y-70460500D01*
X23488691Y-70460500D01*
X23662666Y-70425894D01*
X23826547Y-70358013D01*
X23974035Y-70259464D01*
X24099464Y-70134035D01*
X24198013Y-69986547D01*
X24265894Y-69822666D01*
X24300500Y-69648691D01*
X24300500Y-69471309D01*
X24265894Y-69297334D01*
X24198014Y-69133455D01*
X24198014Y-69133454D01*
X24099464Y-68985965D01*
X23974034Y-68860535D01*
X23826544Y-68761985D01*
X23662666Y-68694106D01*
X23488693Y-68659500D01*
X23488691Y-68659500D01*
X22511309Y-68659500D01*
X22511306Y-68659500D01*
X22337334Y-68694106D01*
X22337332Y-68694106D01*
X22173455Y-68761985D01*
X22173454Y-68761985D01*
X22025965Y-68860535D01*
X21900535Y-68985965D01*
X21801985Y-69133454D01*
X21801985Y-69133455D01*
X21734106Y-69297332D01*
X21734106Y-69297334D01*
X21699500Y-69471306D01*
X20500500Y-69471306D01*
X20500500Y-66770000D01*
X21525886Y-66770000D01*
X22684314Y-66770000D01*
X22679920Y-66774394D01*
X22627259Y-66865606D01*
X22600000Y-66967339D01*
X22600000Y-67072661D01*
X22627259Y-67174394D01*
X22679920Y-67265606D01*
X22684314Y-67270000D01*
X21525886Y-67270000D01*
X21527086Y-67277586D01*
X21580588Y-67442248D01*
X21659195Y-67596524D01*
X21659197Y-67596528D01*
X21760962Y-67736596D01*
X21883403Y-67859037D01*
X22023471Y-67960802D01*
X22023475Y-67960804D01*
X22177751Y-68039411D01*
X22342420Y-68092915D01*
X22513425Y-68120000D01*
X22749999Y-68120000D01*
X22750000Y-68119999D01*
X22750000Y-67335686D01*
X22754394Y-67340080D01*
X22845606Y-67392741D01*
X22947339Y-67420000D01*
X23052661Y-67420000D01*
X23154394Y-67392741D01*
X23245606Y-67340080D01*
X23250000Y-67335686D01*
X23250000Y-68119999D01*
X23250001Y-68120000D01*
X23486575Y-68120000D01*
X23657579Y-68092915D01*
X23822248Y-68039411D01*
X23976524Y-67960804D01*
X23976528Y-67960802D01*
X24116596Y-67859037D01*
X24239037Y-67736596D01*
X24340802Y-67596528D01*
X24340804Y-67596524D01*
X24419411Y-67442248D01*
X24472913Y-67277586D01*
X24474114Y-67270000D01*
X23315686Y-67270000D01*
X23320080Y-67265606D01*
X23372741Y-67174394D01*
X23400000Y-67072661D01*
X23400000Y-66967339D01*
X23372741Y-66865606D01*
X23320080Y-66774394D01*
X23315686Y-66770000D01*
X24474114Y-66770000D01*
X24472913Y-66762413D01*
X24419411Y-66597751D01*
X24340804Y-66443475D01*
X24340802Y-66443471D01*
X24239037Y-66303403D01*
X24116596Y-66180962D01*
X23976528Y-66079197D01*
X23976524Y-66079195D01*
X23822248Y-66000588D01*
X23657579Y-65947084D01*
X23486575Y-65920000D01*
X23250001Y-65920000D01*
X23250000Y-65920001D01*
X23250000Y-66704314D01*
X23245606Y-66699920D01*
X23154394Y-66647259D01*
X23052661Y-66620000D01*
X22947339Y-66620000D01*
X22845606Y-66647259D01*
X22754394Y-66699920D01*
X22750000Y-66704314D01*
X22750000Y-65920001D01*
X22749999Y-65920000D01*
X22513425Y-65920000D01*
X22342420Y-65947084D01*
X22177751Y-66000588D01*
X22023475Y-66079195D01*
X22023471Y-66079197D01*
X21883403Y-66180962D01*
X21760962Y-66303403D01*
X21659197Y-66443471D01*
X21659195Y-66443475D01*
X21580588Y-66597751D01*
X21527086Y-66762413D01*
X21525886Y-66770000D01*
X20500500Y-66770000D01*
X20500500Y-64391306D01*
X21699500Y-64391306D01*
X21699500Y-64568693D01*
X21734106Y-64742665D01*
X21734106Y-64742667D01*
X21801985Y-64906544D01*
X21801985Y-64906545D01*
X21900535Y-65054034D01*
X21900536Y-65054035D01*
X22025965Y-65179464D01*
X22173453Y-65278013D01*
X22337334Y-65345894D01*
X22511309Y-65380500D01*
X22511310Y-65380500D01*
X23488690Y-65380500D01*
X23488691Y-65380500D01*
X23662666Y-65345894D01*
X23826547Y-65278013D01*
X23974035Y-65179464D01*
X24099464Y-65054035D01*
X24198013Y-64906547D01*
X24265894Y-64742666D01*
X24300500Y-64568691D01*
X24300500Y-64391309D01*
X24265894Y-64217334D01*
X24198014Y-64053455D01*
X24198014Y-64053454D01*
X24099464Y-63905965D01*
X23974034Y-63780535D01*
X23826544Y-63681985D01*
X23662666Y-63614106D01*
X23488693Y-63579500D01*
X23488691Y-63579500D01*
X22511309Y-63579500D01*
X22511306Y-63579500D01*
X22337334Y-63614106D01*
X22337332Y-63614106D01*
X22173455Y-63681985D01*
X22173454Y-63681985D01*
X22025965Y-63780535D01*
X21900535Y-63905965D01*
X21801985Y-64053454D01*
X21801985Y-64053455D01*
X21734106Y-64217332D01*
X21734106Y-64217334D01*
X21699500Y-64391306D01*
X20500500Y-64391306D01*
X20500500Y-61851306D01*
X21699500Y-61851306D01*
X21699500Y-62028693D01*
X21734106Y-62202665D01*
X21734106Y-62202667D01*
X21801985Y-62366544D01*
X21801985Y-62366545D01*
X21900535Y-62514034D01*
X21900536Y-62514035D01*
X22025965Y-62639464D01*
X22173453Y-62738013D01*
X22337334Y-62805894D01*
X22511309Y-62840500D01*
X22511310Y-62840500D01*
X23488690Y-62840500D01*
X23488691Y-62840500D01*
X23662666Y-62805894D01*
X23826547Y-62738013D01*
X23974035Y-62639464D01*
X24099464Y-62514035D01*
X24198013Y-62366547D01*
X24265894Y-62202666D01*
X24300500Y-62028691D01*
X24300500Y-61851309D01*
X24265894Y-61677334D01*
X24210458Y-61543498D01*
X24198014Y-61513455D01*
X24198014Y-61513454D01*
X24099464Y-61365965D01*
X23974034Y-61240535D01*
X23826544Y-61141985D01*
X23662666Y-61074106D01*
X23488693Y-61039500D01*
X23488691Y-61039500D01*
X22511309Y-61039500D01*
X22511306Y-61039500D01*
X22337334Y-61074106D01*
X22337332Y-61074106D01*
X22173455Y-61141985D01*
X22173454Y-61141985D01*
X22025965Y-61240535D01*
X21900535Y-61365965D01*
X21801985Y-61513454D01*
X21801985Y-61513455D01*
X21734106Y-61677332D01*
X21734106Y-61677334D01*
X21699500Y-61851306D01*
X20500500Y-61851306D01*
X20500500Y-54263982D01*
X21247800Y-54263982D01*
X21247800Y-57188482D01*
X21247800Y-57300518D01*
X21251528Y-57314430D01*
X21276798Y-57408741D01*
X21326708Y-57495186D01*
X21332815Y-57505763D01*
X21931515Y-58104463D01*
X21931514Y-58104463D01*
X22010737Y-58183685D01*
X22107759Y-58239701D01*
X22107757Y-58239701D01*
X22107761Y-58239702D01*
X22107763Y-58239703D01*
X22215982Y-58268700D01*
X23264944Y-58268700D01*
X23323135Y-58287607D01*
X23334948Y-58297696D01*
X23367748Y-58330496D01*
X23395525Y-58385013D01*
X23385954Y-58445445D01*
X23342689Y-58488710D01*
X23297744Y-58499500D01*
X22511306Y-58499500D01*
X22337334Y-58534106D01*
X22337332Y-58534106D01*
X22173455Y-58601985D01*
X22173454Y-58601985D01*
X22025965Y-58700535D01*
X21900535Y-58825965D01*
X21801985Y-58973454D01*
X21801985Y-58973455D01*
X21734106Y-59137332D01*
X21734106Y-59137334D01*
X21699500Y-59311306D01*
X21699500Y-59488693D01*
X21734106Y-59662665D01*
X21734106Y-59662667D01*
X21801985Y-59826544D01*
X21801985Y-59826545D01*
X21900535Y-59974034D01*
X21900536Y-59974035D01*
X22025965Y-60099464D01*
X22173453Y-60198013D01*
X22337334Y-60265894D01*
X22511309Y-60300500D01*
X22511310Y-60300500D01*
X23488690Y-60300500D01*
X23488691Y-60300500D01*
X23662666Y-60265894D01*
X23826547Y-60198013D01*
X23974035Y-60099464D01*
X24099464Y-59974035D01*
X24112362Y-59954730D01*
X24160410Y-59916853D01*
X24221548Y-59914449D01*
X24264681Y-59939729D01*
X40824215Y-76499263D01*
X40824214Y-76499263D01*
X40903437Y-76578485D01*
X41000459Y-76634501D01*
X41000457Y-76634501D01*
X41000461Y-76634502D01*
X41000463Y-76634503D01*
X41108682Y-76663500D01*
X47086276Y-76663500D01*
X47144467Y-76682407D01*
X47180431Y-76731907D01*
X47180431Y-76793093D01*
X47177740Y-76800385D01*
X47130426Y-76914612D01*
X47130426Y-76914614D01*
X47095820Y-77088586D01*
X47095820Y-77265973D01*
X47130426Y-77439945D01*
X47130426Y-77439947D01*
X47187615Y-77578015D01*
X47192415Y-77639012D01*
X47160446Y-77691181D01*
X47103918Y-77714595D01*
X47096151Y-77714900D01*
X26395156Y-77714900D01*
X26336965Y-77695993D01*
X26325152Y-77685904D01*
X25704496Y-77065248D01*
X25676719Y-77010731D01*
X25675500Y-76995244D01*
X25675500Y-76868508D01*
X25675499Y-76868504D01*
X25648580Y-76733172D01*
X25607710Y-76634503D01*
X25595777Y-76605693D01*
X25595771Y-76605682D01*
X25519114Y-76490958D01*
X25421541Y-76393385D01*
X25306817Y-76316728D01*
X25306806Y-76316722D01*
X25179328Y-76263920D01*
X25043995Y-76237000D01*
X25043993Y-76237000D01*
X24906007Y-76237000D01*
X24906004Y-76237000D01*
X24770672Y-76263920D01*
X24770670Y-76263920D01*
X24643193Y-76316722D01*
X24643182Y-76316728D01*
X24528458Y-76393385D01*
X24430885Y-76490958D01*
X24354228Y-76605682D01*
X24354225Y-76605687D01*
X24327540Y-76670111D01*
X24287802Y-76716636D01*
X24228307Y-76730919D01*
X24171780Y-76707503D01*
X24153761Y-76687225D01*
X24099466Y-76605967D01*
X23974034Y-76480535D01*
X23826544Y-76381985D01*
X23662666Y-76314106D01*
X23488693Y-76279500D01*
X23488691Y-76279500D01*
X22511309Y-76279500D01*
X22511306Y-76279500D01*
X22337334Y-76314106D01*
X22337332Y-76314106D01*
X22173455Y-76381985D01*
X22173454Y-76381985D01*
X22025965Y-76480535D01*
X21900535Y-76605965D01*
X21801985Y-76753454D01*
X21801985Y-76753455D01*
X21734106Y-76917332D01*
X21734106Y-76917334D01*
X21699500Y-77091306D01*
X21699500Y-77268693D01*
X21734106Y-77442665D01*
X21734106Y-77442667D01*
X21801985Y-77606544D01*
X21801985Y-77606545D01*
X21900535Y-77754034D01*
X21900536Y-77754035D01*
X22025965Y-77879464D01*
X22173453Y-77978013D01*
X22337334Y-78045894D01*
X22511309Y-78080500D01*
X22511310Y-78080500D01*
X23488690Y-78080500D01*
X23488691Y-78080500D01*
X23662666Y-78045894D01*
X23826547Y-77978013D01*
X23974035Y-77879464D01*
X24099464Y-77754035D01*
X24198013Y-77606547D01*
X24265894Y-77442666D01*
X24266860Y-77437808D01*
X24296756Y-77384425D01*
X24352321Y-77358808D01*
X24412330Y-77370744D01*
X24433962Y-77387118D01*
X24528458Y-77481614D01*
X24643182Y-77558271D01*
X24643193Y-77558277D01*
X24690283Y-77577782D01*
X24770672Y-77611080D01*
X24906007Y-77638000D01*
X24906008Y-77638000D01*
X25032744Y-77638000D01*
X25090935Y-77656907D01*
X25102748Y-77666996D01*
X25837415Y-78401663D01*
X25837414Y-78401663D01*
X25916635Y-78480884D01*
X25992337Y-78524591D01*
X25992338Y-78524591D01*
X26013663Y-78536903D01*
X26121881Y-78565900D01*
X26121882Y-78565900D01*
X73542144Y-78565900D01*
X73600335Y-78584807D01*
X73612148Y-78594896D01*
X75405737Y-80388485D01*
X75405739Y-80388486D01*
X75502759Y-80444501D01*
X75502757Y-80444501D01*
X75502761Y-80444502D01*
X75502763Y-80444503D01*
X75610982Y-80473500D01*
X75723019Y-80473500D01*
X77996170Y-80473500D01*
X78054361Y-80492407D01*
X78090325Y-80541907D01*
X78090325Y-80603093D01*
X78076265Y-80630686D01*
X78038277Y-80682972D01*
X78015002Y-80715008D01*
X77992867Y-80758452D01*
X77939369Y-80863446D01*
X77896106Y-80906710D01*
X77851161Y-80917500D01*
X71734727Y-80917500D01*
X71629273Y-80917500D01*
X71566929Y-80934204D01*
X71527407Y-80944794D01*
X71436091Y-80997516D01*
X68138103Y-84295504D01*
X68083586Y-84323281D01*
X68068099Y-84324500D01*
X65831893Y-84324500D01*
X65743434Y-84335123D01*
X65602660Y-84390637D01*
X65602656Y-84390640D01*
X65482081Y-84482075D01*
X65482075Y-84482081D01*
X65390640Y-84602656D01*
X65390637Y-84602660D01*
X65335123Y-84743434D01*
X65324500Y-84831893D01*
X65324500Y-87168106D01*
X65335123Y-87256565D01*
X65390637Y-87397339D01*
X65390638Y-87397341D01*
X65390639Y-87397342D01*
X65482078Y-87517922D01*
X65602658Y-87609361D01*
X65602659Y-87609361D01*
X65602660Y-87609362D01*
X65673047Y-87637119D01*
X65743436Y-87664877D01*
X65831898Y-87675500D01*
X65831900Y-87675500D01*
X68168100Y-87675500D01*
X68168102Y-87675500D01*
X68256564Y-87664877D01*
X68397342Y-87609361D01*
X68517922Y-87517922D01*
X68609361Y-87397342D01*
X68664877Y-87256564D01*
X68675500Y-87168102D01*
X68675500Y-85877105D01*
X70525000Y-85877105D01*
X70525000Y-86122894D01*
X70557081Y-86366571D01*
X70557081Y-86366576D01*
X70620695Y-86603984D01*
X70620699Y-86603997D01*
X70714753Y-86831067D01*
X70714755Y-86831072D01*
X70837647Y-87043926D01*
X70909229Y-87137215D01*
X71627545Y-86418898D01*
X71720343Y-86557780D01*
X71842220Y-86679657D01*
X71981099Y-86772452D01*
X71262783Y-87490769D01*
X71356073Y-87562352D01*
X71568927Y-87685244D01*
X71568932Y-87685246D01*
X71796002Y-87779300D01*
X71796015Y-87779304D01*
X72033425Y-87842918D01*
X72277105Y-87874999D01*
X72277107Y-87875000D01*
X72522893Y-87875000D01*
X72522894Y-87874999D01*
X72766571Y-87842918D01*
X72766576Y-87842918D01*
X73003984Y-87779304D01*
X73003997Y-87779300D01*
X73231067Y-87685246D01*
X73231072Y-87685244D01*
X73443922Y-87562355D01*
X73537215Y-87490769D01*
X72818899Y-86772453D01*
X72957780Y-86679657D01*
X73079657Y-86557780D01*
X73172453Y-86418899D01*
X73890769Y-87137215D01*
X73962355Y-87043922D01*
X74085244Y-86831072D01*
X74085246Y-86831067D01*
X74179300Y-86603997D01*
X74179304Y-86603984D01*
X74242918Y-86366576D01*
X74242918Y-86366571D01*
X74274999Y-86122894D01*
X74275000Y-86122893D01*
X74275000Y-85877107D01*
X74274999Y-85877105D01*
X74242918Y-85633428D01*
X74242918Y-85633423D01*
X74179304Y-85396015D01*
X74179300Y-85396002D01*
X74085246Y-85168932D01*
X74085244Y-85168927D01*
X73962352Y-84956073D01*
X73890768Y-84862783D01*
X73172452Y-85581098D01*
X73079657Y-85442220D01*
X72957780Y-85320343D01*
X72818898Y-85227545D01*
X73537215Y-84509229D01*
X73443926Y-84437647D01*
X73231072Y-84314755D01*
X73231067Y-84314753D01*
X73003997Y-84220699D01*
X73003984Y-84220695D01*
X72766574Y-84157081D01*
X72522894Y-84125000D01*
X72277105Y-84125000D01*
X72033428Y-84157081D01*
X72033423Y-84157081D01*
X71796015Y-84220695D01*
X71796002Y-84220699D01*
X71568932Y-84314753D01*
X71568927Y-84314755D01*
X71356078Y-84437644D01*
X71262783Y-84509229D01*
X71981100Y-85227546D01*
X71842220Y-85320343D01*
X71720343Y-85442220D01*
X71627546Y-85581100D01*
X70909229Y-84862783D01*
X70837644Y-84956078D01*
X70714755Y-85168927D01*
X70714753Y-85168932D01*
X70620699Y-85396002D01*
X70620695Y-85396015D01*
X70557081Y-85633423D01*
X70557081Y-85633428D01*
X70525000Y-85877105D01*
X68675500Y-85877105D01*
X68675500Y-84931901D01*
X68694407Y-84873710D01*
X68704496Y-84861897D01*
X70603263Y-82963130D01*
X77848500Y-82963130D01*
X77848500Y-84752860D01*
X77848501Y-84752863D01*
X77851414Y-84777990D01*
X77875215Y-84831893D01*
X77896794Y-84880765D01*
X77976235Y-84960206D01*
X78079009Y-85005585D01*
X78104135Y-85008500D01*
X79893864Y-85008499D01*
X79918991Y-85005585D01*
X80021765Y-84960206D01*
X80101206Y-84880765D01*
X80102113Y-84878710D01*
X108149500Y-84878710D01*
X108149500Y-85121289D01*
X108181161Y-85361781D01*
X108181161Y-85361786D01*
X108243944Y-85596092D01*
X108243948Y-85596105D01*
X108336772Y-85820204D01*
X108336774Y-85820208D01*
X108336776Y-85820212D01*
X108390821Y-85913820D01*
X108458066Y-86030292D01*
X108605729Y-86222731D01*
X108605731Y-86222733D01*
X108605735Y-86222738D01*
X108777262Y-86394265D01*
X108777266Y-86394268D01*
X108777268Y-86394270D01*
X108803591Y-86414468D01*
X108969711Y-86541936D01*
X109179788Y-86663224D01*
X109403900Y-86756054D01*
X109638211Y-86818838D01*
X109878712Y-86850500D01*
X109878713Y-86850500D01*
X110121287Y-86850500D01*
X110121288Y-86850500D01*
X110361789Y-86818838D01*
X110596100Y-86756054D01*
X110820212Y-86663224D01*
X111030289Y-86541936D01*
X111222738Y-86394265D01*
X111394265Y-86222738D01*
X111541936Y-86030289D01*
X111663224Y-85820212D01*
X111756054Y-85596100D01*
X111818838Y-85361789D01*
X111850500Y-85121288D01*
X111850500Y-84878712D01*
X111818838Y-84638211D01*
X111756054Y-84403900D01*
X111663224Y-84179788D01*
X111541936Y-83969711D01*
X111394265Y-83777262D01*
X111222738Y-83605735D01*
X111222733Y-83605731D01*
X111222731Y-83605729D01*
X111030292Y-83458066D01*
X111030289Y-83458064D01*
X110820212Y-83336776D01*
X110820208Y-83336774D01*
X110820204Y-83336772D01*
X110596105Y-83243948D01*
X110596104Y-83243947D01*
X110596100Y-83243946D01*
X110361789Y-83181162D01*
X110361786Y-83181161D01*
X110361784Y-83181161D01*
X110121289Y-83149500D01*
X110121288Y-83149500D01*
X109878712Y-83149500D01*
X109878710Y-83149500D01*
X109638218Y-83181161D01*
X109638213Y-83181161D01*
X109403907Y-83243944D01*
X109403894Y-83243948D01*
X109179795Y-83336772D01*
X108969707Y-83458066D01*
X108777268Y-83605729D01*
X108605729Y-83777268D01*
X108458066Y-83969707D01*
X108336772Y-84179795D01*
X108243948Y-84403894D01*
X108243944Y-84403907D01*
X108181161Y-84638213D01*
X108181161Y-84638218D01*
X108149500Y-84878710D01*
X80102113Y-84878710D01*
X80146585Y-84777991D01*
X80149500Y-84752865D01*
X80149499Y-82963136D01*
X80146585Y-82938009D01*
X80101206Y-82835235D01*
X80021765Y-82755794D01*
X79918991Y-82710415D01*
X79918990Y-82710414D01*
X79918988Y-82710414D01*
X79893868Y-82707500D01*
X78104139Y-82707500D01*
X78104136Y-82707501D01*
X78079009Y-82710414D01*
X77976235Y-82755794D01*
X77896794Y-82835235D01*
X77851414Y-82938011D01*
X77848500Y-82963130D01*
X70603263Y-82963130D01*
X71818897Y-81747496D01*
X71873414Y-81719719D01*
X71888901Y-81718500D01*
X77851161Y-81718500D01*
X77909352Y-81737407D01*
X77939368Y-81772552D01*
X78015004Y-81920994D01*
X78121447Y-82067501D01*
X78249499Y-82195553D01*
X78396006Y-82301996D01*
X78557361Y-82384211D01*
X78729591Y-82440171D01*
X78801136Y-82451502D01*
X78908451Y-82468500D01*
X78908454Y-82468500D01*
X79089549Y-82468500D01*
X79178977Y-82454335D01*
X79268409Y-82440171D01*
X79440639Y-82384211D01*
X79601994Y-82301996D01*
X79748501Y-82195553D01*
X79876553Y-82067501D01*
X79982996Y-81920994D01*
X80065211Y-81759639D01*
X80121171Y-81587409D01*
X80149500Y-81408546D01*
X80149500Y-81227454D01*
X80149500Y-81227450D01*
X80121171Y-81048593D01*
X80121171Y-81048591D01*
X80065211Y-80876361D01*
X79982996Y-80715006D01*
X79921736Y-80630688D01*
X79902830Y-80572500D01*
X79921737Y-80514309D01*
X79971237Y-80478345D01*
X80001830Y-80473500D01*
X98392644Y-80473500D01*
X98450835Y-80492407D01*
X98462648Y-80502496D01*
X99634637Y-81674485D01*
X99634639Y-81674486D01*
X99731659Y-81730501D01*
X99731657Y-81730501D01*
X99731661Y-81730502D01*
X99731663Y-81730503D01*
X99839882Y-81759500D01*
X99839884Y-81759500D01*
X99846150Y-81761179D01*
X99845520Y-81763528D01*
X99891224Y-81785309D01*
X99920437Y-81839070D01*
X99922101Y-81857144D01*
X99922101Y-82228863D01*
X99925014Y-82253990D01*
X99946211Y-82301996D01*
X99970394Y-82356765D01*
X100049835Y-82436206D01*
X100152609Y-82481585D01*
X100177735Y-82484500D01*
X101967464Y-82484499D01*
X101992591Y-82481585D01*
X102095365Y-82436206D01*
X102174806Y-82356765D01*
X102220185Y-82253991D01*
X102223100Y-82228865D01*
X102223099Y-80439136D01*
X102220185Y-80414009D01*
X102174806Y-80311235D01*
X102095365Y-80231794D01*
X101992591Y-80186415D01*
X101992590Y-80186414D01*
X101992588Y-80186414D01*
X101967468Y-80183500D01*
X100177739Y-80183500D01*
X100177736Y-80183501D01*
X100152609Y-80186414D01*
X100049835Y-80231794D01*
X99970394Y-80311235D01*
X99925014Y-80414011D01*
X99922100Y-80439130D01*
X99922100Y-80519444D01*
X99903193Y-80577635D01*
X99853693Y-80613599D01*
X99792507Y-80613599D01*
X99753096Y-80589448D01*
X99347148Y-80183500D01*
X98871163Y-79707515D01*
X98871160Y-79707513D01*
X98774140Y-79651498D01*
X98774142Y-79651498D01*
X98732151Y-79640247D01*
X98665918Y-79622500D01*
X98665916Y-79622500D01*
X80001830Y-79622500D01*
X79943639Y-79603593D01*
X79907675Y-79554093D01*
X79907675Y-79492907D01*
X79921734Y-79465313D01*
X79982996Y-79380994D01*
X80065211Y-79219639D01*
X80121171Y-79047409D01*
X80141467Y-78919265D01*
X80149500Y-78868549D01*
X80149500Y-78687450D01*
X80121171Y-78508593D01*
X80121171Y-78508591D01*
X80065211Y-78336361D01*
X79982996Y-78175006D01*
X79876553Y-78028499D01*
X79748501Y-77900447D01*
X79601994Y-77794004D01*
X79601993Y-77794003D01*
X79601991Y-77794002D01*
X79440637Y-77711788D01*
X79268406Y-77655828D01*
X79089549Y-77627500D01*
X79089546Y-77627500D01*
X78908454Y-77627500D01*
X78908451Y-77627500D01*
X78729593Y-77655828D01*
X78557362Y-77711788D01*
X78396008Y-77794002D01*
X78322752Y-77847225D01*
X78249499Y-77900447D01*
X78121447Y-78028499D01*
X78108810Y-78045893D01*
X78015002Y-78175008D01*
X77932788Y-78336362D01*
X77876828Y-78508593D01*
X77848500Y-78687450D01*
X77848500Y-78868549D01*
X77876828Y-79047406D01*
X77932743Y-79219500D01*
X77932789Y-79219639D01*
X78015004Y-79380994D01*
X78076263Y-79465311D01*
X78095170Y-79523500D01*
X78076263Y-79581691D01*
X78026763Y-79617655D01*
X77996170Y-79622500D01*
X75884256Y-79622500D01*
X75826065Y-79603593D01*
X75814252Y-79593504D01*
X74924198Y-78703450D01*
X74020663Y-77799915D01*
X74010425Y-77794004D01*
X73923640Y-77743898D01*
X73923642Y-77743898D01*
X73881651Y-77732647D01*
X73815418Y-77714900D01*
X73815416Y-77714900D01*
X49696489Y-77714900D01*
X49638298Y-77695993D01*
X49602334Y-77646493D01*
X49602334Y-77585307D01*
X49605025Y-77578015D01*
X49629393Y-77519182D01*
X49662214Y-77439946D01*
X49696820Y-77265971D01*
X49696820Y-77088589D01*
X49662214Y-76914614D01*
X49652793Y-76891869D01*
X49614900Y-76800385D01*
X49610100Y-76739388D01*
X49642069Y-76687219D01*
X49698597Y-76663805D01*
X49706364Y-76663500D01*
X77863899Y-76663500D01*
X77922090Y-76682407D01*
X77952107Y-76717552D01*
X77989918Y-76791762D01*
X77994312Y-76800385D01*
X78015004Y-76840994D01*
X78121447Y-76987501D01*
X78249499Y-77115553D01*
X78396006Y-77221996D01*
X78557361Y-77304211D01*
X78729591Y-77360171D01*
X78796347Y-77370744D01*
X78908451Y-77388500D01*
X78908454Y-77388500D01*
X79089549Y-77388500D01*
X79201653Y-77370744D01*
X79268409Y-77360171D01*
X79440639Y-77304211D01*
X79601994Y-77221996D01*
X79748501Y-77115553D01*
X79876553Y-76987501D01*
X79982996Y-76840994D01*
X80065211Y-76679639D01*
X80121171Y-76507409D01*
X80135335Y-76417977D01*
X80149500Y-76328549D01*
X80149500Y-76147450D01*
X80121171Y-75968593D01*
X80121171Y-75968591D01*
X80065211Y-75796361D01*
X79982996Y-75635006D01*
X79921736Y-75550688D01*
X79902830Y-75492500D01*
X79921737Y-75434309D01*
X79971237Y-75398345D01*
X80001830Y-75393500D01*
X95852644Y-75393500D01*
X95910835Y-75412407D01*
X95922648Y-75422496D01*
X99634637Y-79134485D01*
X99634639Y-79134486D01*
X99731659Y-79190501D01*
X99731657Y-79190501D01*
X99731661Y-79190502D01*
X99731663Y-79190503D01*
X99839882Y-79219500D01*
X99937499Y-79219500D01*
X99995690Y-79238407D01*
X100025707Y-79273552D01*
X100035848Y-79293455D01*
X100080451Y-79380994D01*
X100088604Y-79396994D01*
X100195047Y-79543501D01*
X100323099Y-79671553D01*
X100469606Y-79777996D01*
X100630961Y-79860211D01*
X100803191Y-79916171D01*
X100874736Y-79927502D01*
X100982051Y-79944500D01*
X100982054Y-79944500D01*
X101163149Y-79944500D01*
X101252577Y-79930335D01*
X101342009Y-79916171D01*
X101514239Y-79860211D01*
X101675594Y-79777996D01*
X101822101Y-79671553D01*
X101950153Y-79543501D01*
X102056596Y-79396994D01*
X102138811Y-79235639D01*
X102194771Y-79063409D01*
X102208935Y-78973977D01*
X102223100Y-78884549D01*
X102223100Y-78703450D01*
X102194771Y-78524593D01*
X102194771Y-78524591D01*
X102138811Y-78352361D01*
X102056596Y-78191006D01*
X101950153Y-78044499D01*
X101822101Y-77916447D01*
X101675594Y-77810004D01*
X101675593Y-77810003D01*
X101675591Y-77810002D01*
X101514237Y-77727788D01*
X101342006Y-77671828D01*
X101163149Y-77643500D01*
X101163146Y-77643500D01*
X100982054Y-77643500D01*
X100982051Y-77643500D01*
X100803193Y-77671828D01*
X100630962Y-77727788D01*
X100469608Y-77810002D01*
X100396352Y-77863225D01*
X100323099Y-77916447D01*
X100195047Y-78044499D01*
X100168892Y-78080499D01*
X100088603Y-78191007D01*
X100084996Y-78198086D01*
X100041728Y-78241347D01*
X99981295Y-78250914D01*
X99926786Y-78223138D01*
X98941644Y-77237996D01*
X97867098Y-76163450D01*
X99922100Y-76163450D01*
X99922100Y-76344549D01*
X99950428Y-76523406D01*
X100006388Y-76695637D01*
X100080451Y-76840994D01*
X100088604Y-76856994D01*
X100195047Y-77003501D01*
X100323099Y-77131553D01*
X100469606Y-77237996D01*
X100630961Y-77320211D01*
X100803191Y-77376171D01*
X100852887Y-77384042D01*
X100982051Y-77404500D01*
X100982054Y-77404500D01*
X101163149Y-77404500D01*
X101264166Y-77388500D01*
X101342009Y-77376171D01*
X101514239Y-77320211D01*
X101675594Y-77237996D01*
X101822101Y-77131553D01*
X101950153Y-77003501D01*
X102056596Y-76856994D01*
X102138811Y-76695639D01*
X102194771Y-76523409D01*
X102217170Y-76381987D01*
X102223100Y-76344549D01*
X102223100Y-76163450D01*
X102194771Y-75984593D01*
X102194771Y-75984591D01*
X102138811Y-75812361D01*
X102056596Y-75651006D01*
X101950153Y-75504499D01*
X101822101Y-75376447D01*
X101675594Y-75270004D01*
X101675593Y-75270003D01*
X101675591Y-75270002D01*
X101514237Y-75187788D01*
X101342006Y-75131828D01*
X101163149Y-75103500D01*
X101163146Y-75103500D01*
X100982054Y-75103500D01*
X100982051Y-75103500D01*
X100803193Y-75131828D01*
X100630962Y-75187788D01*
X100469608Y-75270002D01*
X100416641Y-75308485D01*
X100323099Y-75376447D01*
X100195047Y-75504499D01*
X100181538Y-75523093D01*
X100088602Y-75651008D01*
X100006388Y-75812362D01*
X99950428Y-75984593D01*
X99922100Y-76163450D01*
X97867098Y-76163450D01*
X96331163Y-74627515D01*
X96331160Y-74627513D01*
X96234140Y-74571498D01*
X96234142Y-74571498D01*
X96192151Y-74560247D01*
X96125918Y-74542500D01*
X96125916Y-74542500D01*
X80001830Y-74542500D01*
X79943639Y-74523593D01*
X79907675Y-74474093D01*
X79907675Y-74412907D01*
X79921734Y-74385313D01*
X79982996Y-74300994D01*
X80065211Y-74139639D01*
X80121171Y-73967409D01*
X80146576Y-73807007D01*
X80149500Y-73788549D01*
X80149500Y-73623450D01*
X99922100Y-73623450D01*
X99922100Y-73804549D01*
X99950428Y-73983406D01*
X100006388Y-74155637D01*
X100080451Y-74300994D01*
X100088604Y-74316994D01*
X100195047Y-74463501D01*
X100323099Y-74591553D01*
X100469606Y-74697996D01*
X100630961Y-74780211D01*
X100803191Y-74836171D01*
X100874736Y-74847502D01*
X100982051Y-74864500D01*
X100982054Y-74864500D01*
X101163149Y-74864500D01*
X101252577Y-74850335D01*
X101342009Y-74836171D01*
X101514239Y-74780211D01*
X101675594Y-74697996D01*
X101822101Y-74591553D01*
X101950153Y-74463501D01*
X102056596Y-74316994D01*
X102138811Y-74155639D01*
X102194771Y-73983409D01*
X102217170Y-73841987D01*
X102223100Y-73804549D01*
X102223100Y-73623450D01*
X102194771Y-73444593D01*
X102194771Y-73444591D01*
X102138811Y-73272361D01*
X102056596Y-73111006D01*
X101950153Y-72964499D01*
X101822101Y-72836447D01*
X101675594Y-72730004D01*
X101675593Y-72730003D01*
X101675591Y-72730002D01*
X101514237Y-72647788D01*
X101342006Y-72591828D01*
X101163149Y-72563500D01*
X101163146Y-72563500D01*
X100982054Y-72563500D01*
X100982051Y-72563500D01*
X100803193Y-72591828D01*
X100630962Y-72647788D01*
X100469608Y-72730002D01*
X100420561Y-72765637D01*
X100323099Y-72836447D01*
X100195047Y-72964499D01*
X100185485Y-72977660D01*
X100088602Y-73111008D01*
X100006388Y-73272362D01*
X99950428Y-73444593D01*
X99922100Y-73623450D01*
X80149500Y-73623450D01*
X80149500Y-73607450D01*
X80121171Y-73428593D01*
X80121171Y-73428591D01*
X80065211Y-73256361D01*
X79982996Y-73095006D01*
X79876553Y-72948499D01*
X79748501Y-72820447D01*
X79601994Y-72714004D01*
X79601993Y-72714003D01*
X79601991Y-72714002D01*
X79440637Y-72631788D01*
X79426013Y-72627036D01*
X79376514Y-72591071D01*
X79357608Y-72532880D01*
X79376517Y-72474689D01*
X79426016Y-72438727D01*
X79517213Y-72409096D01*
X79706552Y-72312624D01*
X79878464Y-72187722D01*
X80028722Y-72037464D01*
X80153624Y-71865552D01*
X80250095Y-71676215D01*
X80315758Y-71474122D01*
X80326231Y-71408000D01*
X79432012Y-71408000D01*
X79464925Y-71350993D01*
X79499000Y-71223826D01*
X79499000Y-71092174D01*
X79496662Y-71083450D01*
X99922100Y-71083450D01*
X99922100Y-71264549D01*
X99950428Y-71443406D01*
X99992402Y-71572593D01*
X100006389Y-71615639D01*
X100088604Y-71776994D01*
X100195047Y-71923501D01*
X100323099Y-72051553D01*
X100469606Y-72157996D01*
X100630961Y-72240211D01*
X100803191Y-72296171D01*
X100874736Y-72307502D01*
X100982051Y-72324500D01*
X100982054Y-72324500D01*
X101163149Y-72324500D01*
X101252577Y-72310335D01*
X101342009Y-72296171D01*
X101514239Y-72240211D01*
X101675594Y-72157996D01*
X101822101Y-72051553D01*
X101950153Y-71923501D01*
X102056596Y-71776994D01*
X102138811Y-71615639D01*
X102194771Y-71443409D01*
X102217170Y-71301987D01*
X102223100Y-71264549D01*
X102223100Y-71083450D01*
X102195311Y-70908000D01*
X102194771Y-70904591D01*
X102138811Y-70732361D01*
X102056596Y-70571006D01*
X101950153Y-70424499D01*
X101822101Y-70296447D01*
X101675594Y-70190004D01*
X101675593Y-70190003D01*
X101675591Y-70190002D01*
X101514237Y-70107788D01*
X101342006Y-70051828D01*
X101163149Y-70023500D01*
X101163146Y-70023500D01*
X100982054Y-70023500D01*
X100982051Y-70023500D01*
X100803193Y-70051828D01*
X100630962Y-70107788D01*
X100469608Y-70190002D01*
X100396352Y-70243225D01*
X100323099Y-70296447D01*
X100195047Y-70424499D01*
X100141825Y-70497752D01*
X100088602Y-70571008D01*
X100006388Y-70732362D01*
X99950428Y-70904593D01*
X99922100Y-71083450D01*
X79496662Y-71083450D01*
X79464925Y-70965007D01*
X79432012Y-70908000D01*
X80326231Y-70908000D01*
X80326231Y-70907999D01*
X80315758Y-70841877D01*
X80250095Y-70639784D01*
X80153624Y-70450447D01*
X80028722Y-70278535D01*
X79878464Y-70128277D01*
X79706552Y-70003375D01*
X79517215Y-69906904D01*
X79315120Y-69841240D01*
X79249000Y-69830767D01*
X79249000Y-70724988D01*
X79191993Y-70692075D01*
X79064826Y-70658000D01*
X78933174Y-70658000D01*
X78806007Y-70692075D01*
X78749000Y-70724988D01*
X78749000Y-69830768D01*
X78748999Y-69830767D01*
X78682880Y-69841240D01*
X78682878Y-69841240D01*
X78480784Y-69906904D01*
X78291447Y-70003375D01*
X78119535Y-70128277D01*
X77969277Y-70278535D01*
X77844375Y-70450447D01*
X77747904Y-70639784D01*
X77682241Y-70841877D01*
X77671768Y-70907999D01*
X77671769Y-70908000D01*
X78565988Y-70908000D01*
X78533075Y-70965007D01*
X78499000Y-71092174D01*
X78499000Y-71223826D01*
X78533075Y-71350993D01*
X78565988Y-71408000D01*
X77671769Y-71408000D01*
X77682241Y-71474122D01*
X77747904Y-71676215D01*
X77844375Y-71865552D01*
X77969277Y-72037464D01*
X78119535Y-72187722D01*
X78291447Y-72312624D01*
X78480786Y-72409096D01*
X78571983Y-72438727D01*
X78621483Y-72474691D01*
X78640391Y-72532881D01*
X78621484Y-72591072D01*
X78571988Y-72627035D01*
X78557366Y-72631786D01*
X78557364Y-72631787D01*
X78396008Y-72714002D01*
X78324939Y-72765637D01*
X78249499Y-72820447D01*
X78121447Y-72948499D01*
X78050485Y-73046170D01*
X78015003Y-73095007D01*
X78011396Y-73102086D01*
X77968128Y-73145347D01*
X77907695Y-73154914D01*
X77853186Y-73127138D01*
X73335616Y-68609568D01*
X73269498Y-68543450D01*
X99922100Y-68543450D01*
X99922100Y-68724549D01*
X99950428Y-68903406D01*
X99977252Y-68985965D01*
X100006389Y-69075639D01*
X100088604Y-69236994D01*
X100195047Y-69383501D01*
X100323099Y-69511553D01*
X100469606Y-69617996D01*
X100630961Y-69700211D01*
X100803191Y-69756171D01*
X100874736Y-69767502D01*
X100982051Y-69784500D01*
X100982054Y-69784500D01*
X101163149Y-69784500D01*
X101252577Y-69770335D01*
X101342009Y-69756171D01*
X101514239Y-69700211D01*
X101675594Y-69617996D01*
X101822101Y-69511553D01*
X101950153Y-69383501D01*
X102056596Y-69236994D01*
X102138811Y-69075639D01*
X102194771Y-68903409D01*
X102217170Y-68761987D01*
X102223100Y-68724549D01*
X102223100Y-68543450D01*
X102194771Y-68364593D01*
X102194771Y-68364591D01*
X102138811Y-68192361D01*
X102056596Y-68031006D01*
X101950153Y-67884499D01*
X101822101Y-67756447D01*
X101675594Y-67650004D01*
X101675593Y-67650003D01*
X101675591Y-67650002D01*
X101514237Y-67567788D01*
X101342006Y-67511828D01*
X101163149Y-67483500D01*
X101163146Y-67483500D01*
X100982054Y-67483500D01*
X100982051Y-67483500D01*
X100803193Y-67511828D01*
X100630962Y-67567788D01*
X100469608Y-67650002D01*
X100396352Y-67703225D01*
X100323099Y-67756447D01*
X100195047Y-67884499D01*
X100168892Y-67920499D01*
X100088602Y-68031008D01*
X100006388Y-68192362D01*
X99950428Y-68364593D01*
X99922100Y-68543450D01*
X73269498Y-68543450D01*
X71657354Y-66931306D01*
X69861627Y-65135579D01*
X78098500Y-65135579D01*
X78098500Y-65332420D01*
X78129289Y-65526821D01*
X78129291Y-65526826D01*
X78190116Y-65714025D01*
X78279476Y-65889405D01*
X78395172Y-66048646D01*
X78534354Y-66187828D01*
X78693595Y-66303524D01*
X78868975Y-66392884D01*
X79056174Y-66453709D01*
X79056175Y-66453709D01*
X79056178Y-66453710D01*
X79250580Y-66484500D01*
X79250583Y-66484500D01*
X79447420Y-66484500D01*
X79641821Y-66453710D01*
X79641822Y-66453709D01*
X79641826Y-66453709D01*
X79829025Y-66392884D01*
X80004405Y-66303524D01*
X80163646Y-66187828D01*
X80302828Y-66048646D01*
X80418524Y-65889405D01*
X80507884Y-65714025D01*
X80568709Y-65526826D01*
X80568710Y-65526821D01*
X80599500Y-65332420D01*
X80599500Y-65135579D01*
X80568710Y-64941178D01*
X80557457Y-64906544D01*
X80507884Y-64753975D01*
X80418524Y-64578595D01*
X80302828Y-64419354D01*
X80163646Y-64280172D01*
X80004405Y-64164476D01*
X80004404Y-64164475D01*
X80004402Y-64164474D01*
X79829025Y-64075116D01*
X79641821Y-64014289D01*
X79447420Y-63983500D01*
X79447417Y-63983500D01*
X79250583Y-63983500D01*
X79250580Y-63983500D01*
X79056178Y-64014289D01*
X78868974Y-64075116D01*
X78693597Y-64164474D01*
X78534355Y-64280171D01*
X78395171Y-64419355D01*
X78279474Y-64578597D01*
X78190116Y-64753974D01*
X78129289Y-64941178D01*
X78098500Y-65135579D01*
X69861627Y-65135579D01*
X67608063Y-62882015D01*
X67608060Y-62882013D01*
X67511040Y-62825998D01*
X67511042Y-62825998D01*
X67469051Y-62814747D01*
X67402818Y-62797000D01*
X67402816Y-62797000D01*
X49455507Y-62797000D01*
X49397316Y-62778093D01*
X49361352Y-62728593D01*
X49361352Y-62667407D01*
X49385503Y-62627996D01*
X49499464Y-62514035D01*
X49517584Y-62486915D01*
X49565633Y-62449036D01*
X49626771Y-62446632D01*
X49649400Y-62456180D01*
X49726859Y-62500901D01*
X49726857Y-62500901D01*
X49726861Y-62500902D01*
X49726863Y-62500903D01*
X49835082Y-62529900D01*
X49835084Y-62529900D01*
X79994916Y-62529900D01*
X79994918Y-62529900D01*
X80103137Y-62500903D01*
X80103139Y-62500901D01*
X80103141Y-62500901D01*
X80180599Y-62456180D01*
X80200163Y-62444885D01*
X98800136Y-43844910D01*
X98854651Y-43817135D01*
X98915083Y-43826706D01*
X98958348Y-43869971D01*
X98958348Y-43869972D01*
X98973236Y-43899194D01*
X98973237Y-43899195D01*
X98973238Y-43899196D01*
X98973240Y-43899199D01*
X99084310Y-44052073D01*
X99217927Y-44185690D01*
X99370801Y-44296760D01*
X99370803Y-44296761D01*
X99455346Y-44339838D01*
X99498611Y-44383103D01*
X99508182Y-44443535D01*
X99480404Y-44498052D01*
X99455346Y-44516258D01*
X99266242Y-44612611D01*
X99087962Y-44742139D01*
X98932139Y-44897962D01*
X98802611Y-45076242D01*
X98702569Y-45272586D01*
X98634471Y-45482170D01*
X98622144Y-45559999D01*
X98622145Y-45560000D01*
X99566988Y-45560000D01*
X99534075Y-45617007D01*
X99500000Y-45744174D01*
X99500000Y-45875826D01*
X99534075Y-46002993D01*
X99566988Y-46060000D01*
X98622144Y-46060000D01*
X98634471Y-46137829D01*
X98702569Y-46347413D01*
X98802611Y-46543757D01*
X98932139Y-46722037D01*
X99087962Y-46877860D01*
X99266242Y-47007388D01*
X99462586Y-47107430D01*
X99672169Y-47175528D01*
X99749999Y-47187854D01*
X99750000Y-47187853D01*
X99750000Y-46243012D01*
X99807007Y-46275925D01*
X99934174Y-46310000D01*
X100065826Y-46310000D01*
X100192993Y-46275925D01*
X100250000Y-46243012D01*
X100250000Y-47187854D01*
X100327830Y-47175528D01*
X100537413Y-47107430D01*
X100733757Y-47007388D01*
X100912037Y-46877860D01*
X101067860Y-46722037D01*
X101197388Y-46543757D01*
X101297430Y-46347413D01*
X101365528Y-46137829D01*
X101377855Y-46060000D01*
X100433012Y-46060000D01*
X100465925Y-46002993D01*
X100500000Y-45875826D01*
X100500000Y-45744174D01*
X100465925Y-45617007D01*
X100433012Y-45560000D01*
X101377855Y-45560000D01*
X101377855Y-45559999D01*
X101365528Y-45482170D01*
X101297430Y-45272586D01*
X101197388Y-45076242D01*
X101067860Y-44897962D01*
X100912037Y-44742139D01*
X100733757Y-44612611D01*
X100544653Y-44516258D01*
X100501388Y-44472993D01*
X100491817Y-44412561D01*
X100519594Y-44358044D01*
X100544653Y-44339838D01*
X100629199Y-44296760D01*
X100782073Y-44185690D01*
X100915690Y-44052073D01*
X101026760Y-43899199D01*
X101112547Y-43730832D01*
X101170940Y-43551118D01*
X101174297Y-43529923D01*
X101200500Y-43364484D01*
X101200500Y-43175515D01*
X101170941Y-42988886D01*
X101170940Y-42988882D01*
X101112547Y-42809168D01*
X101026760Y-42640801D01*
X100915690Y-42487927D01*
X100782073Y-42354310D01*
X100629199Y-42243240D01*
X100629198Y-42243239D01*
X100629196Y-42243238D01*
X100460832Y-42157453D01*
X100281113Y-42099058D01*
X100273046Y-42097781D01*
X100218529Y-42070004D01*
X100190751Y-42015488D01*
X100200322Y-41955056D01*
X100243586Y-41911791D01*
X100273046Y-41902219D01*
X100281113Y-41900941D01*
X100281114Y-41900940D01*
X100281118Y-41900940D01*
X100460832Y-41842547D01*
X100629199Y-41756760D01*
X100782073Y-41645690D01*
X100915690Y-41512073D01*
X101026760Y-41359199D01*
X101112547Y-41190832D01*
X101170940Y-41011118D01*
X101185287Y-40920535D01*
X101200500Y-40824484D01*
X101200500Y-40635515D01*
X101170941Y-40448886D01*
X101151650Y-40389515D01*
X101112547Y-40269168D01*
X101026760Y-40100801D01*
X100915690Y-39947927D01*
X100782073Y-39814310D01*
X100629199Y-39703240D01*
X100629198Y-39703239D01*
X100629196Y-39703238D01*
X100460832Y-39617453D01*
X100356810Y-39583654D01*
X100307310Y-39547690D01*
X100288403Y-39489499D01*
X100307310Y-39431308D01*
X100356811Y-39395344D01*
X100387401Y-39390499D01*
X100944864Y-39390499D01*
X100969991Y-39387585D01*
X101072765Y-39342206D01*
X101152206Y-39262765D01*
X101197585Y-39159991D01*
X101200500Y-39134865D01*
X101200499Y-37245136D01*
X101197585Y-37220009D01*
X101152206Y-37117235D01*
X101072765Y-37037794D01*
X100969991Y-36992415D01*
X100969990Y-36992414D01*
X100969988Y-36992414D01*
X100944868Y-36989500D01*
X99055139Y-36989500D01*
X99055136Y-36989501D01*
X99030009Y-36992414D01*
X98927235Y-37037794D01*
X98847794Y-37117235D01*
X98802414Y-37220011D01*
X98799500Y-37245130D01*
X98799500Y-37540500D01*
X98780593Y-37598691D01*
X98731093Y-37634655D01*
X98700500Y-37639500D01*
X59957525Y-37639500D01*
X59817515Y-37677016D01*
X59691985Y-37749490D01*
X55291639Y-42149834D01*
X55237122Y-42177611D01*
X55202321Y-42176928D01*
X55104650Y-42157500D01*
X55104647Y-42157500D01*
X54895353Y-42157500D01*
X54895348Y-42157500D01*
X54797676Y-42176928D01*
X54736915Y-42169736D01*
X54708359Y-42149834D01*
X52337989Y-39779464D01*
X49928015Y-37369490D01*
X49802485Y-37297016D01*
X49662475Y-37259500D01*
X49662474Y-37259500D01*
X49587483Y-37259500D01*
X49529292Y-37240593D01*
X49493328Y-37191093D01*
X49493328Y-37129907D01*
X49505168Y-37105498D01*
X49580729Y-36992414D01*
X49598013Y-36966547D01*
X49665894Y-36802666D01*
X49700500Y-36628691D01*
X49700500Y-36451309D01*
X49665894Y-36277334D01*
X49598014Y-36113455D01*
X49598014Y-36113454D01*
X49499464Y-35965965D01*
X49374034Y-35840535D01*
X49226544Y-35741985D01*
X49062666Y-35674106D01*
X48888693Y-35639500D01*
X48888691Y-35639500D01*
X47911309Y-35639500D01*
X47911306Y-35639500D01*
X47737334Y-35674106D01*
X47737332Y-35674106D01*
X47573455Y-35741985D01*
X47573454Y-35741985D01*
X47425965Y-35840535D01*
X47300535Y-35965965D01*
X47201985Y-36113454D01*
X47201985Y-36113455D01*
X47134106Y-36277332D01*
X47134106Y-36277334D01*
X47099500Y-36451306D01*
X47099500Y-36628693D01*
X47134106Y-36802665D01*
X47134106Y-36802667D01*
X47201985Y-36966544D01*
X47201985Y-36966545D01*
X47294832Y-37105498D01*
X47311441Y-37164386D01*
X47290264Y-37221790D01*
X47239390Y-37255783D01*
X47212517Y-37259500D01*
X28530732Y-37259500D01*
X28472541Y-37240593D01*
X28460728Y-37230504D01*
X26869724Y-35639500D01*
X24980225Y-33750000D01*
X46925886Y-33750000D01*
X48084314Y-33750000D01*
X48079920Y-33754394D01*
X48027259Y-33845606D01*
X48000000Y-33947339D01*
X48000000Y-34052661D01*
X48027259Y-34154394D01*
X48079920Y-34245606D01*
X48084314Y-34250000D01*
X46925886Y-34250000D01*
X46927086Y-34257586D01*
X46980588Y-34422248D01*
X47059195Y-34576524D01*
X47059197Y-34576528D01*
X47160962Y-34716596D01*
X47283403Y-34839037D01*
X47423471Y-34940802D01*
X47423475Y-34940804D01*
X47577751Y-35019411D01*
X47742420Y-35072915D01*
X47913425Y-35100000D01*
X48149999Y-35100000D01*
X48150000Y-35099999D01*
X48150000Y-34315686D01*
X48154394Y-34320080D01*
X48245606Y-34372741D01*
X48347339Y-34400000D01*
X48452661Y-34400000D01*
X48554394Y-34372741D01*
X48645606Y-34320080D01*
X48650000Y-34315686D01*
X48650000Y-35099999D01*
X48650001Y-35100000D01*
X48886575Y-35100000D01*
X49057579Y-35072915D01*
X49222248Y-35019411D01*
X49376524Y-34940804D01*
X49376528Y-34940802D01*
X49516596Y-34839037D01*
X49639037Y-34716596D01*
X49740802Y-34576528D01*
X49740804Y-34576524D01*
X49819411Y-34422248D01*
X49872913Y-34257586D01*
X49874114Y-34250000D01*
X48715686Y-34250000D01*
X48720080Y-34245606D01*
X48772741Y-34154394D01*
X48800000Y-34052661D01*
X48800000Y-33947339D01*
X48772741Y-33845606D01*
X48720080Y-33754394D01*
X48715686Y-33750000D01*
X49874114Y-33750000D01*
X49872913Y-33742413D01*
X49819411Y-33577751D01*
X49740804Y-33423475D01*
X49740802Y-33423471D01*
X49639037Y-33283403D01*
X49516596Y-33160962D01*
X49376528Y-33059197D01*
X49376524Y-33059195D01*
X49222248Y-32980588D01*
X49057579Y-32927084D01*
X48886575Y-32900000D01*
X48650001Y-32900000D01*
X48650000Y-32900001D01*
X48650000Y-33684314D01*
X48645606Y-33679920D01*
X48554394Y-33627259D01*
X48452661Y-33600000D01*
X48347339Y-33600000D01*
X48245606Y-33627259D01*
X48154394Y-33679920D01*
X48150000Y-33684314D01*
X48150000Y-32900001D01*
X48149999Y-32900000D01*
X47913425Y-32900000D01*
X47742420Y-32927084D01*
X47577751Y-32980588D01*
X47423475Y-33059195D01*
X47423471Y-33059197D01*
X47283403Y-33160962D01*
X47160962Y-33283403D01*
X47059197Y-33423471D01*
X47059195Y-33423475D01*
X46980588Y-33577751D01*
X46927086Y-33742413D01*
X46925886Y-33750000D01*
X24980225Y-33750000D01*
X24789715Y-33559490D01*
X24664185Y-33487016D01*
X24524175Y-33449500D01*
X24524174Y-33449500D01*
X24399396Y-33449500D01*
X24341205Y-33430593D01*
X24305241Y-33381093D01*
X24300891Y-33357967D01*
X24300828Y-33357975D01*
X24300723Y-33357074D01*
X24300561Y-33356210D01*
X24300499Y-33355138D01*
X24297585Y-33330009D01*
X24252206Y-33227235D01*
X24172765Y-33147794D01*
X24069991Y-33102415D01*
X24069990Y-33102414D01*
X24069988Y-33102414D01*
X24044868Y-33099500D01*
X21955139Y-33099500D01*
X21955136Y-33099501D01*
X21930009Y-33102414D01*
X21827235Y-33147794D01*
X21747794Y-33227235D01*
X21702414Y-33330011D01*
X21699500Y-33355130D01*
X21699500Y-34644860D01*
X21699501Y-34644863D01*
X21702414Y-34669990D01*
X21722993Y-34716596D01*
X21747794Y-34772765D01*
X21827235Y-34852206D01*
X21930009Y-34897585D01*
X21955135Y-34900500D01*
X24044864Y-34900499D01*
X24069991Y-34897585D01*
X24172765Y-34852206D01*
X24252206Y-34772765D01*
X24253170Y-34770580D01*
X24255438Y-34768045D01*
X24257390Y-34765197D01*
X24257760Y-34765450D01*
X24293970Y-34724985D01*
X24353778Y-34712079D01*
X24409751Y-34736792D01*
X24413739Y-34740564D01*
X27923686Y-38250510D01*
X27950946Y-38266248D01*
X27978205Y-38281987D01*
X27978206Y-38281987D01*
X28049215Y-38322984D01*
X28189225Y-38360500D01*
X28189226Y-38360500D01*
X28334174Y-38360500D01*
X47212517Y-38360500D01*
X47270708Y-38379407D01*
X47306672Y-38428907D01*
X47306672Y-38490093D01*
X47294832Y-38514502D01*
X47201985Y-38653454D01*
X47201985Y-38653455D01*
X47134106Y-38817332D01*
X47134106Y-38817334D01*
X47099500Y-38991306D01*
X47099500Y-38991309D01*
X47099500Y-39168691D01*
X47134014Y-39342206D01*
X47134106Y-39342665D01*
X47134106Y-39342667D01*
X47201985Y-39506544D01*
X47201985Y-39506545D01*
X47300535Y-39654034D01*
X47300536Y-39654035D01*
X47425965Y-39779464D01*
X47573453Y-39878013D01*
X47737334Y-39945894D01*
X47911309Y-39980500D01*
X47911310Y-39980500D01*
X48888690Y-39980500D01*
X48888691Y-39980500D01*
X49062666Y-39945894D01*
X49226547Y-39878013D01*
X49374035Y-39779464D01*
X49499464Y-39654035D01*
X49598013Y-39506547D01*
X49665894Y-39342666D01*
X49700500Y-39168691D01*
X49700500Y-38991309D01*
X49700499Y-38991307D01*
X49700499Y-38991300D01*
X49691595Y-38946541D01*
X49698785Y-38885779D01*
X49740317Y-38840849D01*
X49800327Y-38828911D01*
X49855892Y-38854526D01*
X49858696Y-38857221D01*
X53929834Y-42928359D01*
X53957611Y-42982876D01*
X53956928Y-43017676D01*
X53937500Y-43115348D01*
X53937500Y-43324649D01*
X53978330Y-43529917D01*
X53978332Y-43529923D01*
X54058424Y-43723281D01*
X54156439Y-43869972D01*
X54174702Y-43897304D01*
X54322696Y-44045298D01*
X54496718Y-44161575D01*
X54690080Y-44241669D01*
X54895353Y-44282500D01*
X54895354Y-44282500D01*
X55104646Y-44282500D01*
X55104647Y-44282500D01*
X55309920Y-44241669D01*
X55503282Y-44161575D01*
X55677304Y-44045298D01*
X55825298Y-43897304D01*
X55941575Y-43723282D01*
X56021669Y-43529920D01*
X56062500Y-43324647D01*
X56062500Y-43115353D01*
X56043070Y-43017675D01*
X56050261Y-42956917D01*
X56070161Y-42928362D01*
X60229029Y-38769496D01*
X60283546Y-38741719D01*
X60299033Y-38740500D01*
X98700501Y-38740500D01*
X98758692Y-38759407D01*
X98794656Y-38808907D01*
X98799501Y-38839500D01*
X98799501Y-39134863D01*
X98802414Y-39159990D01*
X98806256Y-39168691D01*
X98847794Y-39262765D01*
X98927235Y-39342206D01*
X99030009Y-39387585D01*
X99055135Y-39390500D01*
X99612597Y-39390499D01*
X99670786Y-39409406D01*
X99706750Y-39458906D01*
X99706750Y-39520092D01*
X99670786Y-39569592D01*
X99643188Y-39583653D01*
X99539174Y-39617449D01*
X99539171Y-39617451D01*
X99370803Y-39703238D01*
X99217928Y-39814309D01*
X99084309Y-39947928D01*
X98973238Y-40100803D01*
X98896993Y-40250445D01*
X98853728Y-40293710D01*
X98808783Y-40304500D01*
X98717282Y-40304500D01*
X98651048Y-40322247D01*
X98609058Y-40333498D01*
X98512039Y-40389513D01*
X98432813Y-40468739D01*
X98376798Y-40565758D01*
X98347800Y-40673983D01*
X98347800Y-40794744D01*
X98328893Y-40852935D01*
X98318804Y-40864748D01*
X82483348Y-56700204D01*
X82428831Y-56727981D01*
X82413344Y-56729200D01*
X55922384Y-56729200D01*
X55864193Y-56710293D01*
X55828229Y-56660793D01*
X55828229Y-56599607D01*
X55840068Y-56575199D01*
X55841661Y-56572813D01*
X55941575Y-56423282D01*
X56021669Y-56229920D01*
X56062500Y-56024647D01*
X56062500Y-55815353D01*
X56021669Y-55610080D01*
X55941575Y-55416718D01*
X55825298Y-55242696D01*
X55677304Y-55094702D01*
X55677300Y-55094699D01*
X55503281Y-54978424D01*
X55309923Y-54898332D01*
X55309917Y-54898330D01*
X55104649Y-54857500D01*
X55104647Y-54857500D01*
X54895353Y-54857500D01*
X54895350Y-54857500D01*
X54690082Y-54898330D01*
X54690076Y-54898332D01*
X54496718Y-54978424D01*
X54322699Y-55094699D01*
X54174699Y-55242699D01*
X54058424Y-55416718D01*
X53978332Y-55610076D01*
X53978330Y-55610082D01*
X53937500Y-55815350D01*
X53937500Y-56024649D01*
X53978330Y-56229917D01*
X53978332Y-56229923D01*
X54058424Y-56423281D01*
X54159932Y-56575199D01*
X54176540Y-56634087D01*
X54155362Y-56691491D01*
X54104488Y-56725483D01*
X54077616Y-56729200D01*
X52028019Y-56729200D01*
X51915982Y-56729200D01*
X51849748Y-56746947D01*
X51807758Y-56758198D01*
X51710739Y-56814213D01*
X49664681Y-58860269D01*
X49610164Y-58888046D01*
X49549732Y-58878475D01*
X49512363Y-58845268D01*
X49499465Y-58825966D01*
X49374034Y-58700535D01*
X49226544Y-58601985D01*
X49062666Y-58534106D01*
X48888693Y-58499500D01*
X48888691Y-58499500D01*
X47911309Y-58499500D01*
X47911306Y-58499500D01*
X47737334Y-58534106D01*
X47737332Y-58534106D01*
X47573455Y-58601985D01*
X47573454Y-58601985D01*
X47425965Y-58700535D01*
X47300535Y-58825965D01*
X47201985Y-58973454D01*
X47201985Y-58973455D01*
X47134106Y-59137332D01*
X47134106Y-59137334D01*
X47099500Y-59311306D01*
X47099500Y-59488693D01*
X47134106Y-59662665D01*
X47134106Y-59662667D01*
X47201985Y-59826544D01*
X47201985Y-59826545D01*
X47300535Y-59974034D01*
X47300536Y-59974035D01*
X47425965Y-60099464D01*
X47573453Y-60198013D01*
X47737334Y-60265894D01*
X47911309Y-60300500D01*
X47911310Y-60300500D01*
X48888690Y-60300500D01*
X48888691Y-60300500D01*
X49062666Y-60265894D01*
X49226547Y-60198013D01*
X49374035Y-60099464D01*
X49499464Y-59974035D01*
X49569314Y-59869498D01*
X49617364Y-59831619D01*
X49651629Y-59825500D01*
X49782716Y-59825500D01*
X49782718Y-59825500D01*
X49890937Y-59796503D01*
X49890939Y-59796501D01*
X49890941Y-59796501D01*
X49919764Y-59779859D01*
X49987963Y-59740485D01*
X52119252Y-57609196D01*
X52173769Y-57581419D01*
X52189256Y-57580200D01*
X53884996Y-57580200D01*
X53943187Y-57599107D01*
X53979151Y-57648607D01*
X53979151Y-57709793D01*
X53965089Y-57737391D01*
X53920639Y-57798570D01*
X53830459Y-57975559D01*
X53769073Y-58164485D01*
X53738000Y-58360674D01*
X53738000Y-58559325D01*
X53769073Y-58755514D01*
X53830459Y-58944440D01*
X53920637Y-59121425D01*
X53947729Y-59158714D01*
X54619000Y-58487444D01*
X54619000Y-58510160D01*
X54644964Y-58607061D01*
X54695124Y-58693940D01*
X54766060Y-58764876D01*
X54852939Y-58815036D01*
X54949840Y-58841000D01*
X54972553Y-58841000D01*
X54301283Y-59512270D01*
X54338564Y-59539357D01*
X54338568Y-59539359D01*
X54515559Y-59629540D01*
X54704485Y-59690926D01*
X54900675Y-59722000D01*
X55099325Y-59722000D01*
X55295514Y-59690926D01*
X55484440Y-59629540D01*
X55661434Y-59539357D01*
X55698715Y-59512270D01*
X55027445Y-58841000D01*
X55050160Y-58841000D01*
X55147061Y-58815036D01*
X55233940Y-58764876D01*
X55304876Y-58693940D01*
X55355036Y-58607061D01*
X55381000Y-58510160D01*
X55381000Y-58487445D01*
X56052270Y-59158715D01*
X56079357Y-59121434D01*
X56169540Y-58944440D01*
X56230926Y-58755514D01*
X56262000Y-58559325D01*
X56262000Y-58360674D01*
X56230926Y-58164485D01*
X56169540Y-57975559D01*
X56079360Y-57798570D01*
X56034911Y-57737391D01*
X56016004Y-57679200D01*
X56034911Y-57621009D01*
X56084411Y-57585045D01*
X56115004Y-57580200D01*
X82686616Y-57580200D01*
X82686618Y-57580200D01*
X82794837Y-57551203D01*
X82794839Y-57551201D01*
X82794841Y-57551201D01*
X82823664Y-57534559D01*
X82891863Y-57495185D01*
X98914257Y-41472788D01*
X98968772Y-41445013D01*
X99029204Y-41454584D01*
X99064351Y-41484602D01*
X99084310Y-41512073D01*
X99217927Y-41645690D01*
X99370801Y-41756760D01*
X99539168Y-41842547D01*
X99718882Y-41900940D01*
X99718883Y-41900940D01*
X99718886Y-41900941D01*
X99726954Y-41902219D01*
X99781471Y-41929996D01*
X99809248Y-41984513D01*
X99799677Y-42044945D01*
X99756412Y-42088210D01*
X99726954Y-42097781D01*
X99718886Y-42099058D01*
X99539167Y-42157453D01*
X99370803Y-42243238D01*
X99217928Y-42354309D01*
X99084309Y-42487928D01*
X98973238Y-42640803D01*
X98896993Y-42790445D01*
X98853728Y-42833710D01*
X98808783Y-42844500D01*
X98717282Y-42844500D01*
X98651048Y-42862247D01*
X98609058Y-42873498D01*
X98512039Y-42929513D01*
X79791648Y-61649904D01*
X79737131Y-61677681D01*
X79721644Y-61678900D01*
X56009447Y-61678900D01*
X55951256Y-61659993D01*
X55915292Y-61610493D01*
X55915292Y-61549307D01*
X55927131Y-61524899D01*
X55934079Y-61514500D01*
X55941575Y-61503282D01*
X56021669Y-61309920D01*
X56062500Y-61104647D01*
X56062500Y-60895353D01*
X56021669Y-60690080D01*
X55941575Y-60496718D01*
X55825298Y-60322696D01*
X55677304Y-60174702D01*
X55503282Y-60058425D01*
X55503283Y-60058425D01*
X55503281Y-60058424D01*
X55309923Y-59978332D01*
X55309917Y-59978330D01*
X55104649Y-59937500D01*
X55104647Y-59937500D01*
X54895353Y-59937500D01*
X54895350Y-59937500D01*
X54690082Y-59978330D01*
X54690076Y-59978332D01*
X54496718Y-60058424D01*
X54322699Y-60174699D01*
X54174699Y-60322699D01*
X54058424Y-60496718D01*
X53978332Y-60690076D01*
X53978330Y-60690082D01*
X53937500Y-60895350D01*
X53937500Y-61104649D01*
X53978330Y-61309917D01*
X53978332Y-61309923D01*
X54058424Y-61503281D01*
X54072869Y-61524899D01*
X54089477Y-61583787D01*
X54068299Y-61641191D01*
X54017425Y-61675183D01*
X53990553Y-61678900D01*
X50108356Y-61678900D01*
X50050165Y-61659993D01*
X50038353Y-61649904D01*
X49987962Y-61599514D01*
X49890940Y-61543498D01*
X49890942Y-61543498D01*
X49848951Y-61532247D01*
X49782718Y-61514500D01*
X49782716Y-61514500D01*
X49651629Y-61514500D01*
X49593438Y-61495593D01*
X49569314Y-61470502D01*
X49499464Y-61365965D01*
X49374034Y-61240535D01*
X49226544Y-61141985D01*
X49062666Y-61074106D01*
X48888693Y-61039500D01*
X48888691Y-61039500D01*
X47911309Y-61039500D01*
X47911306Y-61039500D01*
X47737334Y-61074106D01*
X47737332Y-61074106D01*
X47573455Y-61141985D01*
X47573454Y-61141985D01*
X47425965Y-61240535D01*
X47300535Y-61365965D01*
X47201985Y-61513454D01*
X47201985Y-61513455D01*
X47134106Y-61677332D01*
X47134106Y-61677334D01*
X47099500Y-61851306D01*
X47099500Y-62028693D01*
X47134106Y-62202665D01*
X47134106Y-62202667D01*
X47201985Y-62366544D01*
X47201985Y-62366545D01*
X47300535Y-62514034D01*
X47414497Y-62627996D01*
X47442274Y-62682513D01*
X47432703Y-62742945D01*
X47389438Y-62786210D01*
X47344493Y-62797000D01*
X30906456Y-62797000D01*
X30848265Y-62778093D01*
X30836452Y-62768004D01*
X27893948Y-59825500D01*
X24839754Y-56771306D01*
X47099500Y-56771306D01*
X47099500Y-56948693D01*
X47134106Y-57122665D01*
X47134106Y-57122667D01*
X47201985Y-57286544D01*
X47201985Y-57286545D01*
X47300535Y-57434034D01*
X47300536Y-57434035D01*
X47425965Y-57559464D01*
X47573453Y-57658013D01*
X47737334Y-57725894D01*
X47911309Y-57760500D01*
X47911310Y-57760500D01*
X48888690Y-57760500D01*
X48888691Y-57760500D01*
X49062666Y-57725894D01*
X49226547Y-57658013D01*
X49374035Y-57559464D01*
X49499464Y-57434035D01*
X49598013Y-57286547D01*
X49665894Y-57122666D01*
X49700500Y-56948691D01*
X49700500Y-56771309D01*
X49665894Y-56597334D01*
X49610458Y-56463498D01*
X49598014Y-56433455D01*
X49598014Y-56433454D01*
X49499464Y-56285965D01*
X49374034Y-56160535D01*
X49226544Y-56061985D01*
X49062666Y-55994106D01*
X48888693Y-55959500D01*
X48888691Y-55959500D01*
X47911309Y-55959500D01*
X47911306Y-55959500D01*
X47737334Y-55994106D01*
X47737332Y-55994106D01*
X47573455Y-56061985D01*
X47573454Y-56061985D01*
X47425965Y-56160535D01*
X47300535Y-56285965D01*
X47201985Y-56433454D01*
X47201985Y-56433455D01*
X47134106Y-56597332D01*
X47134106Y-56597334D01*
X47099500Y-56771306D01*
X24839754Y-56771306D01*
X24587963Y-56519515D01*
X24587960Y-56519513D01*
X24490940Y-56463498D01*
X24490942Y-56463498D01*
X24448951Y-56452247D01*
X24382718Y-56434500D01*
X24382716Y-56434500D01*
X24251629Y-56434500D01*
X24193438Y-56415593D01*
X24169314Y-56390502D01*
X24099464Y-56285965D01*
X23974034Y-56160535D01*
X23826544Y-56061985D01*
X23662666Y-55994106D01*
X23488693Y-55959500D01*
X23488691Y-55959500D01*
X22511309Y-55959500D01*
X22511306Y-55959500D01*
X22337337Y-55994105D01*
X22337335Y-55994105D01*
X22337334Y-55994106D01*
X22263606Y-56024645D01*
X22235685Y-56036210D01*
X22174688Y-56041009D01*
X22122519Y-56009039D01*
X22099105Y-55952511D01*
X22098800Y-55944745D01*
X22098800Y-55235254D01*
X22117707Y-55177063D01*
X22167207Y-55141099D01*
X22228393Y-55141099D01*
X22235683Y-55143789D01*
X22337334Y-55185894D01*
X22511309Y-55220500D01*
X22511310Y-55220500D01*
X23488690Y-55220500D01*
X23488691Y-55220500D01*
X23662666Y-55185894D01*
X23826547Y-55118013D01*
X23974035Y-55019464D01*
X24099464Y-54894035D01*
X24198013Y-54746547D01*
X24265894Y-54582666D01*
X24300500Y-54408691D01*
X24300500Y-54231309D01*
X24300499Y-54231306D01*
X47099500Y-54231306D01*
X47099500Y-54408693D01*
X47134106Y-54582665D01*
X47134106Y-54582667D01*
X47201985Y-54746544D01*
X47201985Y-54746545D01*
X47276124Y-54857500D01*
X47300536Y-54894035D01*
X47425965Y-55019464D01*
X47573453Y-55118013D01*
X47737334Y-55185894D01*
X47911309Y-55220500D01*
X47911310Y-55220500D01*
X48888690Y-55220500D01*
X48888691Y-55220500D01*
X49062666Y-55185894D01*
X49226547Y-55118013D01*
X49374035Y-55019464D01*
X49499464Y-54894035D01*
X49598013Y-54746547D01*
X49665894Y-54582666D01*
X49700500Y-54408691D01*
X49700500Y-54231309D01*
X49665894Y-54057334D01*
X49610458Y-53923498D01*
X49598014Y-53893455D01*
X49598014Y-53893454D01*
X49499464Y-53745965D01*
X49374034Y-53620535D01*
X49226544Y-53521985D01*
X49062666Y-53454106D01*
X48888693Y-53419500D01*
X48888691Y-53419500D01*
X47911309Y-53419500D01*
X47911306Y-53419500D01*
X47737334Y-53454106D01*
X47737332Y-53454106D01*
X47573455Y-53521985D01*
X47573454Y-53521985D01*
X47425965Y-53620535D01*
X47300535Y-53745965D01*
X47201985Y-53893454D01*
X47201985Y-53893455D01*
X47134106Y-54057332D01*
X47134106Y-54057334D01*
X47099500Y-54231306D01*
X24300499Y-54231306D01*
X24265894Y-54057334D01*
X24210458Y-53923498D01*
X24198014Y-53893455D01*
X24198014Y-53893454D01*
X24099464Y-53745965D01*
X23974034Y-53620535D01*
X23826544Y-53521985D01*
X23662666Y-53454106D01*
X23488693Y-53419500D01*
X23488691Y-53419500D01*
X22511309Y-53419500D01*
X22511306Y-53419500D01*
X22337334Y-53454106D01*
X22337332Y-53454106D01*
X22173455Y-53521985D01*
X22173454Y-53521985D01*
X22025965Y-53620535D01*
X21900535Y-53745965D01*
X21830686Y-53850502D01*
X21782636Y-53888381D01*
X21748371Y-53894500D01*
X21729318Y-53894500D01*
X21617282Y-53894500D01*
X21551048Y-53912247D01*
X21509058Y-53923498D01*
X21412039Y-53979513D01*
X21332813Y-54058739D01*
X21276798Y-54155758D01*
X21276797Y-54155763D01*
X21247800Y-54263982D01*
X20500500Y-54263982D01*
X20500500Y-51691306D01*
X21699500Y-51691306D01*
X21699500Y-51868693D01*
X21734106Y-52042665D01*
X21734106Y-52042667D01*
X21801985Y-52206544D01*
X21801985Y-52206545D01*
X21900535Y-52354034D01*
X21900536Y-52354035D01*
X22025965Y-52479464D01*
X22173453Y-52578013D01*
X22337334Y-52645894D01*
X22511309Y-52680500D01*
X22511310Y-52680500D01*
X23488690Y-52680500D01*
X23488691Y-52680500D01*
X23662666Y-52645894D01*
X23826547Y-52578013D01*
X23974035Y-52479464D01*
X24099464Y-52354035D01*
X24198013Y-52206547D01*
X24265894Y-52042666D01*
X24300500Y-51868691D01*
X24300500Y-51691309D01*
X24265894Y-51517334D01*
X24198014Y-51353455D01*
X24198014Y-51353454D01*
X24099464Y-51205965D01*
X23974034Y-51080535D01*
X23826544Y-50981985D01*
X23662666Y-50914106D01*
X23488693Y-50879500D01*
X23488691Y-50879500D01*
X22511309Y-50879500D01*
X22511306Y-50879500D01*
X22337334Y-50914106D01*
X22337332Y-50914106D01*
X22173455Y-50981985D01*
X22173454Y-50981985D01*
X22025965Y-51080535D01*
X21900535Y-51205965D01*
X21801985Y-51353454D01*
X21801985Y-51353455D01*
X21734106Y-51517332D01*
X21734106Y-51517334D01*
X21699500Y-51691306D01*
X20500500Y-51691306D01*
X20500500Y-49151306D01*
X21699500Y-49151306D01*
X21699500Y-49328693D01*
X21734106Y-49502665D01*
X21734106Y-49502667D01*
X21801985Y-49666544D01*
X21801985Y-49666545D01*
X21900535Y-49814034D01*
X21900536Y-49814035D01*
X22025965Y-49939464D01*
X22173453Y-50038013D01*
X22337334Y-50105894D01*
X22511309Y-50140500D01*
X22511310Y-50140500D01*
X23488690Y-50140500D01*
X23488691Y-50140500D01*
X23662666Y-50105894D01*
X23826547Y-50038013D01*
X23974035Y-49939464D01*
X24099464Y-49814035D01*
X24112362Y-49794730D01*
X24160410Y-49756853D01*
X24221548Y-49754449D01*
X24264681Y-49779729D01*
X25270415Y-50785463D01*
X25270414Y-50785463D01*
X25349637Y-50864685D01*
X25446659Y-50920701D01*
X25446657Y-50920701D01*
X25446661Y-50920702D01*
X25446663Y-50920703D01*
X25554882Y-50949700D01*
X47317793Y-50949700D01*
X47375984Y-50968607D01*
X47411948Y-51018107D01*
X47411948Y-51079293D01*
X47387797Y-51118704D01*
X47300535Y-51205965D01*
X47201985Y-51353454D01*
X47201985Y-51353455D01*
X47134106Y-51517332D01*
X47134106Y-51517334D01*
X47099500Y-51691306D01*
X47099500Y-51868693D01*
X47134106Y-52042665D01*
X47134106Y-52042667D01*
X47201985Y-52206544D01*
X47201985Y-52206545D01*
X47300535Y-52354034D01*
X47300536Y-52354035D01*
X47425965Y-52479464D01*
X47573453Y-52578013D01*
X47737334Y-52645894D01*
X47911309Y-52680500D01*
X47911310Y-52680500D01*
X48888690Y-52680500D01*
X48888691Y-52680500D01*
X49062666Y-52645894D01*
X49226547Y-52578013D01*
X49374035Y-52479464D01*
X49499464Y-52354035D01*
X49598013Y-52206547D01*
X49665894Y-52042666D01*
X49700500Y-51868691D01*
X49700500Y-51691309D01*
X49665894Y-51517334D01*
X49598014Y-51353455D01*
X49598014Y-51353454D01*
X49499464Y-51205965D01*
X49412203Y-51118704D01*
X49384426Y-51064187D01*
X49393997Y-51003755D01*
X49437262Y-50960490D01*
X49482207Y-50949700D01*
X51233344Y-50949700D01*
X51291535Y-50968607D01*
X51303348Y-50978696D01*
X52585913Y-52261260D01*
X52585915Y-52261263D01*
X52665137Y-52340485D01*
X52665139Y-52340486D01*
X52762159Y-52396501D01*
X52762157Y-52396501D01*
X52762161Y-52396502D01*
X52762163Y-52396503D01*
X52870381Y-52425500D01*
X52870382Y-52425500D01*
X54212891Y-52425500D01*
X54271082Y-52444407D01*
X54307046Y-52493907D01*
X54307046Y-52555093D01*
X54282896Y-52594501D01*
X54196899Y-52680499D01*
X54174699Y-52702699D01*
X54058424Y-52876718D01*
X53978332Y-53070076D01*
X53978330Y-53070082D01*
X53937500Y-53275350D01*
X53937500Y-53484649D01*
X53978330Y-53689917D01*
X53978332Y-53689923D01*
X54058424Y-53883281D01*
X54085296Y-53923498D01*
X54174702Y-54057304D01*
X54322696Y-54205298D01*
X54496718Y-54321575D01*
X54690080Y-54401669D01*
X54895353Y-54442500D01*
X54895354Y-54442500D01*
X55104646Y-54442500D01*
X55104647Y-54442500D01*
X55309920Y-54401669D01*
X55503282Y-54321575D01*
X55677304Y-54205298D01*
X55825298Y-54057304D01*
X55941575Y-53883282D01*
X56021669Y-53689920D01*
X56062500Y-53484647D01*
X56062500Y-53275353D01*
X56021669Y-53070080D01*
X55941575Y-52876718D01*
X55825298Y-52702696D01*
X55717103Y-52594501D01*
X55689328Y-52539987D01*
X55698899Y-52479555D01*
X55742164Y-52436290D01*
X55787109Y-52425500D01*
X73606016Y-52425500D01*
X73606018Y-52425500D01*
X73714237Y-52396503D01*
X73714239Y-52396501D01*
X73714241Y-52396501D01*
X73743064Y-52379859D01*
X73811263Y-52340485D01*
X74809750Y-51341995D01*
X74864267Y-51314219D01*
X74879754Y-51313000D01*
X75006492Y-51313000D01*
X75006493Y-51313000D01*
X75141828Y-51286080D01*
X75269311Y-51233275D01*
X75384042Y-51156614D01*
X75481614Y-51059042D01*
X75558275Y-50944311D01*
X75611080Y-50816828D01*
X75638000Y-50681493D01*
X75638000Y-50543507D01*
X75611080Y-50408172D01*
X75558275Y-50280689D01*
X75558274Y-50280687D01*
X75558271Y-50280682D01*
X75481614Y-50165958D01*
X75384041Y-50068385D01*
X75269317Y-49991728D01*
X75269306Y-49991722D01*
X75141828Y-49938920D01*
X75006495Y-49912000D01*
X75006493Y-49912000D01*
X74868507Y-49912000D01*
X74868504Y-49912000D01*
X74733172Y-49938920D01*
X74733170Y-49938920D01*
X74605693Y-49991722D01*
X74605682Y-49991728D01*
X74490958Y-50068385D01*
X74393385Y-50165958D01*
X74316728Y-50280682D01*
X74316722Y-50280693D01*
X74263920Y-50408170D01*
X74263920Y-50408172D01*
X74237000Y-50543504D01*
X74237000Y-50670244D01*
X74218093Y-50728435D01*
X74208004Y-50740248D01*
X73402748Y-51545504D01*
X73348231Y-51573281D01*
X73332744Y-51574500D01*
X55972297Y-51574500D01*
X55914106Y-51555593D01*
X55878142Y-51506093D01*
X55878142Y-51444907D01*
X55889981Y-51420499D01*
X55909376Y-51391471D01*
X55941575Y-51343282D01*
X56021669Y-51149920D01*
X56062500Y-50944647D01*
X56062500Y-50735353D01*
X56021669Y-50530080D01*
X55941575Y-50336718D01*
X55825298Y-50162696D01*
X55677304Y-50014702D01*
X55642921Y-49991728D01*
X55503281Y-49898424D01*
X55309923Y-49818332D01*
X55309917Y-49818330D01*
X55104649Y-49777500D01*
X55104647Y-49777500D01*
X54895353Y-49777500D01*
X54895350Y-49777500D01*
X54690082Y-49818330D01*
X54690076Y-49818332D01*
X54496718Y-49898424D01*
X54322699Y-50014699D01*
X54174699Y-50162699D01*
X54058424Y-50336718D01*
X53978332Y-50530076D01*
X53978330Y-50530082D01*
X53937500Y-50735350D01*
X53937500Y-50944649D01*
X53978330Y-51149917D01*
X53978332Y-51149923D01*
X54058424Y-51343281D01*
X54110019Y-51420499D01*
X54126627Y-51479387D01*
X54105449Y-51536791D01*
X54054575Y-51570783D01*
X54027703Y-51574500D01*
X53143655Y-51574500D01*
X53085464Y-51555593D01*
X53073651Y-51545504D01*
X52407647Y-50879500D01*
X51711863Y-50183715D01*
X51711860Y-50183713D01*
X51614840Y-50127698D01*
X51614842Y-50127698D01*
X51572851Y-50116447D01*
X51506618Y-50098700D01*
X51506616Y-50098700D01*
X49730091Y-50098700D01*
X49671900Y-50079793D01*
X49635936Y-50030293D01*
X49635936Y-49969107D01*
X49649998Y-49941510D01*
X49740802Y-49816528D01*
X49740804Y-49816524D01*
X49819411Y-49662248D01*
X49872913Y-49497586D01*
X49874114Y-49490000D01*
X48715686Y-49490000D01*
X48720080Y-49485606D01*
X48772741Y-49394394D01*
X48800000Y-49292661D01*
X48800000Y-49187339D01*
X48772741Y-49085606D01*
X48720080Y-48994394D01*
X48715686Y-48990000D01*
X49874114Y-48990000D01*
X49872913Y-48982413D01*
X49819411Y-48817751D01*
X49740804Y-48663475D01*
X49740802Y-48663471D01*
X49639037Y-48523403D01*
X49516596Y-48400962D01*
X49376528Y-48299197D01*
X49376524Y-48299195D01*
X49336297Y-48278699D01*
X49222248Y-48220588D01*
X49144573Y-48195350D01*
X53937500Y-48195350D01*
X53937500Y-48404649D01*
X53978330Y-48609917D01*
X53978332Y-48609923D01*
X54058424Y-48803281D01*
X54122724Y-48899513D01*
X54174702Y-48977304D01*
X54322696Y-49125298D01*
X54496718Y-49241575D01*
X54690080Y-49321669D01*
X54895353Y-49362500D01*
X54895354Y-49362500D01*
X55104646Y-49362500D01*
X55104647Y-49362500D01*
X55309920Y-49321669D01*
X55503282Y-49241575D01*
X55677304Y-49125298D01*
X55825298Y-48977304D01*
X55941575Y-48803282D01*
X56021669Y-48609920D01*
X56062500Y-48404647D01*
X56062500Y-48195353D01*
X56021669Y-47990080D01*
X55941575Y-47796718D01*
X55825298Y-47622696D01*
X55677304Y-47474702D01*
X55503282Y-47358425D01*
X55503283Y-47358425D01*
X55503281Y-47358424D01*
X55309923Y-47278332D01*
X55309917Y-47278330D01*
X55104649Y-47237500D01*
X55104647Y-47237500D01*
X54895353Y-47237500D01*
X54895350Y-47237500D01*
X54690082Y-47278330D01*
X54690076Y-47278332D01*
X54496718Y-47358424D01*
X54322699Y-47474699D01*
X54174699Y-47622699D01*
X54058424Y-47796718D01*
X53978332Y-47990076D01*
X53978330Y-47990082D01*
X53937500Y-48195350D01*
X49144573Y-48195350D01*
X49057579Y-48167084D01*
X48886575Y-48140000D01*
X48650001Y-48140000D01*
X48650000Y-48140001D01*
X48650000Y-48924314D01*
X48645606Y-48919920D01*
X48554394Y-48867259D01*
X48452661Y-48840000D01*
X48347339Y-48840000D01*
X48245606Y-48867259D01*
X48154394Y-48919920D01*
X48150000Y-48924314D01*
X48150000Y-48140001D01*
X48149999Y-48140000D01*
X47913425Y-48140000D01*
X47742420Y-48167084D01*
X47577751Y-48220588D01*
X47423475Y-48299195D01*
X47423471Y-48299197D01*
X47283403Y-48400962D01*
X47160962Y-48523403D01*
X47059197Y-48663471D01*
X47059195Y-48663475D01*
X46980588Y-48817751D01*
X46927086Y-48982413D01*
X46925886Y-48990000D01*
X48084314Y-48990000D01*
X48079920Y-48994394D01*
X48027259Y-49085606D01*
X48000000Y-49187339D01*
X48000000Y-49292661D01*
X48027259Y-49394394D01*
X48079920Y-49485606D01*
X48084314Y-49490000D01*
X46925886Y-49490000D01*
X46927086Y-49497586D01*
X46980588Y-49662248D01*
X47059195Y-49816524D01*
X47059197Y-49816528D01*
X47150002Y-49941510D01*
X47168909Y-49999700D01*
X47150001Y-50057891D01*
X47100501Y-50093855D01*
X47069909Y-50098700D01*
X25828156Y-50098700D01*
X25769965Y-50079793D01*
X25758152Y-50069704D01*
X25301189Y-49612741D01*
X24587963Y-48899515D01*
X24587960Y-48899513D01*
X24490940Y-48843498D01*
X24490942Y-48843498D01*
X24448951Y-48832247D01*
X24382718Y-48814500D01*
X24382716Y-48814500D01*
X24251629Y-48814500D01*
X24193438Y-48795593D01*
X24169314Y-48770502D01*
X24099464Y-48665965D01*
X23974034Y-48540535D01*
X23826544Y-48441985D01*
X23662666Y-48374106D01*
X23488693Y-48339500D01*
X23488691Y-48339500D01*
X22511309Y-48339500D01*
X22511306Y-48339500D01*
X22337334Y-48374106D01*
X22337332Y-48374106D01*
X22173455Y-48441985D01*
X22173454Y-48441985D01*
X22025965Y-48540535D01*
X21900535Y-48665965D01*
X21801985Y-48813454D01*
X21801985Y-48813455D01*
X21734106Y-48977332D01*
X21734106Y-48977334D01*
X21699500Y-49151306D01*
X20500500Y-49151306D01*
X20500500Y-46611306D01*
X21699500Y-46611306D01*
X21699500Y-46788693D01*
X21734106Y-46962665D01*
X21734106Y-46962667D01*
X21801985Y-47126544D01*
X21801985Y-47126545D01*
X21842951Y-47187854D01*
X21900536Y-47274035D01*
X22025965Y-47399464D01*
X22173453Y-47498013D01*
X22337334Y-47565894D01*
X22511309Y-47600500D01*
X22511310Y-47600500D01*
X23488690Y-47600500D01*
X23488691Y-47600500D01*
X23662666Y-47565894D01*
X23826547Y-47498013D01*
X23974035Y-47399464D01*
X24099464Y-47274035D01*
X24198013Y-47126547D01*
X24265894Y-46962666D01*
X24300500Y-46788691D01*
X24300500Y-46611309D01*
X24300499Y-46611306D01*
X47099500Y-46611306D01*
X47099500Y-46788693D01*
X47134106Y-46962665D01*
X47134106Y-46962667D01*
X47201985Y-47126544D01*
X47201985Y-47126545D01*
X47242951Y-47187854D01*
X47300536Y-47274035D01*
X47425965Y-47399464D01*
X47573453Y-47498013D01*
X47737334Y-47565894D01*
X47911309Y-47600500D01*
X47911310Y-47600500D01*
X48888690Y-47600500D01*
X48888691Y-47600500D01*
X49062666Y-47565894D01*
X49226547Y-47498013D01*
X49374035Y-47399464D01*
X49499464Y-47274035D01*
X49598013Y-47126547D01*
X49665894Y-46962666D01*
X49700500Y-46788691D01*
X49700500Y-46611309D01*
X49665894Y-46437334D01*
X49598014Y-46273455D01*
X49598014Y-46273454D01*
X49499464Y-46125965D01*
X49374034Y-46000535D01*
X49226544Y-45901985D01*
X49062666Y-45834106D01*
X48888693Y-45799500D01*
X48888691Y-45799500D01*
X47911309Y-45799500D01*
X47911306Y-45799500D01*
X47737334Y-45834106D01*
X47737332Y-45834106D01*
X47573455Y-45901985D01*
X47573454Y-45901985D01*
X47425965Y-46000535D01*
X47300535Y-46125965D01*
X47201985Y-46273454D01*
X47201985Y-46273455D01*
X47134106Y-46437332D01*
X47134106Y-46437334D01*
X47099500Y-46611306D01*
X24300499Y-46611306D01*
X24265894Y-46437334D01*
X24198014Y-46273455D01*
X24198014Y-46273454D01*
X24099464Y-46125965D01*
X23974034Y-46000535D01*
X23826544Y-45901985D01*
X23662666Y-45834106D01*
X23488693Y-45799500D01*
X23488691Y-45799500D01*
X22511309Y-45799500D01*
X22511306Y-45799500D01*
X22337334Y-45834106D01*
X22337332Y-45834106D01*
X22173455Y-45901985D01*
X22173454Y-45901985D01*
X22025965Y-46000535D01*
X21900535Y-46125965D01*
X21801985Y-46273454D01*
X21801985Y-46273455D01*
X21734106Y-46437332D01*
X21734106Y-46437334D01*
X21699500Y-46611306D01*
X20500500Y-46611306D01*
X20500500Y-44071306D01*
X21699500Y-44071306D01*
X21699500Y-44248693D01*
X21734106Y-44422665D01*
X21734106Y-44422667D01*
X21801985Y-44586544D01*
X21801985Y-44586545D01*
X21900535Y-44734034D01*
X21900536Y-44734035D01*
X22025965Y-44859464D01*
X22173453Y-44958013D01*
X22337334Y-45025894D01*
X22511309Y-45060500D01*
X22511310Y-45060500D01*
X23488690Y-45060500D01*
X23488691Y-45060500D01*
X23662666Y-45025894D01*
X23826547Y-44958013D01*
X23974035Y-44859464D01*
X24099464Y-44734035D01*
X24198013Y-44586547D01*
X24265894Y-44422666D01*
X24300500Y-44248691D01*
X24300500Y-44071309D01*
X24300499Y-44071306D01*
X47099500Y-44071306D01*
X47099500Y-44248693D01*
X47134106Y-44422665D01*
X47134106Y-44422667D01*
X47201985Y-44586544D01*
X47201985Y-44586545D01*
X47300535Y-44734034D01*
X47300536Y-44734035D01*
X47425965Y-44859464D01*
X47573453Y-44958013D01*
X47737334Y-45025894D01*
X47911309Y-45060500D01*
X47911310Y-45060500D01*
X48888690Y-45060500D01*
X48888691Y-45060500D01*
X49062666Y-45025894D01*
X49226547Y-44958013D01*
X49374035Y-44859464D01*
X49499464Y-44734035D01*
X49598013Y-44586547D01*
X49665894Y-44422666D01*
X49700500Y-44248691D01*
X49700500Y-44071309D01*
X49665894Y-43897334D01*
X49598014Y-43733455D01*
X49598014Y-43733454D01*
X49499464Y-43585965D01*
X49374034Y-43460535D01*
X49226544Y-43361985D01*
X49062666Y-43294106D01*
X48888693Y-43259500D01*
X48888691Y-43259500D01*
X47911309Y-43259500D01*
X47911306Y-43259500D01*
X47737334Y-43294106D01*
X47737332Y-43294106D01*
X47573455Y-43361985D01*
X47573454Y-43361985D01*
X47425965Y-43460535D01*
X47300535Y-43585965D01*
X47201985Y-43733454D01*
X47201985Y-43733455D01*
X47134106Y-43897332D01*
X47134106Y-43897334D01*
X47099500Y-44071306D01*
X24300499Y-44071306D01*
X24265894Y-43897334D01*
X24198014Y-43733455D01*
X24198014Y-43733454D01*
X24099464Y-43585965D01*
X23974034Y-43460535D01*
X23826544Y-43361985D01*
X23662666Y-43294106D01*
X23488693Y-43259500D01*
X23488691Y-43259500D01*
X22511309Y-43259500D01*
X22511306Y-43259500D01*
X22337334Y-43294106D01*
X22337332Y-43294106D01*
X22173455Y-43361985D01*
X22173454Y-43361985D01*
X22025965Y-43460535D01*
X21900535Y-43585965D01*
X21801985Y-43733454D01*
X21801985Y-43733455D01*
X21734106Y-43897332D01*
X21734106Y-43897334D01*
X21699500Y-44071306D01*
X20500500Y-44071306D01*
X20500500Y-41531306D01*
X21699500Y-41531306D01*
X21699500Y-41708693D01*
X21734106Y-41882665D01*
X21734106Y-41882667D01*
X21801985Y-42046544D01*
X21801985Y-42046545D01*
X21900535Y-42194034D01*
X21900536Y-42194035D01*
X22025965Y-42319464D01*
X22173453Y-42418013D01*
X22337334Y-42485894D01*
X22511309Y-42520500D01*
X22511310Y-42520500D01*
X23488690Y-42520500D01*
X23488691Y-42520500D01*
X23662666Y-42485894D01*
X23826547Y-42418013D01*
X23974035Y-42319464D01*
X24099464Y-42194035D01*
X24198013Y-42046547D01*
X24265894Y-41882666D01*
X24300500Y-41708691D01*
X24300500Y-41531309D01*
X24300499Y-41531306D01*
X47099500Y-41531306D01*
X47099500Y-41708693D01*
X47134106Y-41882665D01*
X47134106Y-41882667D01*
X47201985Y-42046544D01*
X47201985Y-42046545D01*
X47300535Y-42194034D01*
X47300536Y-42194035D01*
X47425965Y-42319464D01*
X47573453Y-42418013D01*
X47737334Y-42485894D01*
X47911309Y-42520500D01*
X47911310Y-42520500D01*
X48888690Y-42520500D01*
X48888691Y-42520500D01*
X49062666Y-42485894D01*
X49226547Y-42418013D01*
X49374035Y-42319464D01*
X49499464Y-42194035D01*
X49598013Y-42046547D01*
X49665894Y-41882666D01*
X49700500Y-41708691D01*
X49700500Y-41531309D01*
X49665894Y-41357334D01*
X49598014Y-41193455D01*
X49598014Y-41193454D01*
X49499464Y-41045965D01*
X49374034Y-40920535D01*
X49226544Y-40821985D01*
X49062666Y-40754106D01*
X48888693Y-40719500D01*
X48888691Y-40719500D01*
X47911309Y-40719500D01*
X47911306Y-40719500D01*
X47737334Y-40754106D01*
X47737332Y-40754106D01*
X47573455Y-40821985D01*
X47573454Y-40821985D01*
X47425965Y-40920535D01*
X47300535Y-41045965D01*
X47201985Y-41193454D01*
X47201985Y-41193455D01*
X47134106Y-41357332D01*
X47134106Y-41357334D01*
X47099500Y-41531306D01*
X24300499Y-41531306D01*
X24265894Y-41357334D01*
X24198014Y-41193455D01*
X24198014Y-41193454D01*
X24099464Y-41045965D01*
X23974034Y-40920535D01*
X23826544Y-40821985D01*
X23662666Y-40754106D01*
X23488693Y-40719500D01*
X23488691Y-40719500D01*
X22511309Y-40719500D01*
X22511306Y-40719500D01*
X22337334Y-40754106D01*
X22337332Y-40754106D01*
X22173455Y-40821985D01*
X22173454Y-40821985D01*
X22025965Y-40920535D01*
X21900535Y-41045965D01*
X21801985Y-41193454D01*
X21801985Y-41193455D01*
X21734106Y-41357332D01*
X21734106Y-41357334D01*
X21699500Y-41531306D01*
X20500500Y-41531306D01*
X20500500Y-38991306D01*
X21699500Y-38991306D01*
X21699500Y-38991309D01*
X21699500Y-39168691D01*
X21734014Y-39342206D01*
X21734106Y-39342665D01*
X21734106Y-39342667D01*
X21801985Y-39506544D01*
X21801985Y-39506545D01*
X21900535Y-39654034D01*
X21900536Y-39654035D01*
X22025965Y-39779464D01*
X22173453Y-39878013D01*
X22337334Y-39945894D01*
X22511309Y-39980500D01*
X22511310Y-39980500D01*
X23488690Y-39980500D01*
X23488691Y-39980500D01*
X23662666Y-39945894D01*
X23826547Y-39878013D01*
X23974035Y-39779464D01*
X24099464Y-39654035D01*
X24198013Y-39506547D01*
X24265894Y-39342666D01*
X24300500Y-39168691D01*
X24300500Y-38991309D01*
X24265894Y-38817334D01*
X24198014Y-38653455D01*
X24198014Y-38653454D01*
X24099464Y-38505965D01*
X23974034Y-38380535D01*
X23826544Y-38281985D01*
X23662666Y-38214106D01*
X23488693Y-38179500D01*
X23488691Y-38179500D01*
X22511309Y-38179500D01*
X22511306Y-38179500D01*
X22337334Y-38214106D01*
X22337332Y-38214106D01*
X22173455Y-38281985D01*
X22173454Y-38281985D01*
X22025965Y-38380535D01*
X21900535Y-38505965D01*
X21801985Y-38653454D01*
X21801985Y-38653455D01*
X21734106Y-38817332D01*
X21734106Y-38817334D01*
X21699500Y-38991306D01*
X20500500Y-38991306D01*
X20500500Y-36451306D01*
X21699500Y-36451306D01*
X21699500Y-36628693D01*
X21734106Y-36802665D01*
X21734106Y-36802667D01*
X21801985Y-36966544D01*
X21801985Y-36966545D01*
X21900535Y-37114034D01*
X21900536Y-37114035D01*
X22025965Y-37239464D01*
X22173453Y-37338013D01*
X22337334Y-37405894D01*
X22511309Y-37440500D01*
X22511310Y-37440500D01*
X23488690Y-37440500D01*
X23488691Y-37440500D01*
X23662666Y-37405894D01*
X23826547Y-37338013D01*
X23974035Y-37239464D01*
X24099464Y-37114035D01*
X24198013Y-36966547D01*
X24265894Y-36802666D01*
X24300500Y-36628691D01*
X24300500Y-36451309D01*
X24265894Y-36277334D01*
X24198014Y-36113455D01*
X24198014Y-36113454D01*
X24099464Y-35965965D01*
X23974034Y-35840535D01*
X23826544Y-35741985D01*
X23662666Y-35674106D01*
X23488693Y-35639500D01*
X23488691Y-35639500D01*
X22511309Y-35639500D01*
X22511306Y-35639500D01*
X22337334Y-35674106D01*
X22337332Y-35674106D01*
X22173455Y-35741985D01*
X22173454Y-35741985D01*
X22025965Y-35840535D01*
X21900535Y-35965965D01*
X21801985Y-36113454D01*
X21801985Y-36113455D01*
X21734106Y-36277332D01*
X21734106Y-36277334D01*
X21699500Y-36451306D01*
X20500500Y-36451306D01*
X20500500Y-24878710D01*
X23149500Y-24878710D01*
X23149500Y-25121289D01*
X23181161Y-25361781D01*
X23181161Y-25361786D01*
X23243944Y-25596092D01*
X23243948Y-25596105D01*
X23336772Y-25820204D01*
X23336774Y-25820208D01*
X23336776Y-25820212D01*
X23420739Y-25965640D01*
X23458066Y-26030292D01*
X23605729Y-26222731D01*
X23605731Y-26222733D01*
X23605735Y-26222738D01*
X23777262Y-26394265D01*
X23777266Y-26394268D01*
X23777268Y-26394270D01*
X23969707Y-26541933D01*
X23969711Y-26541936D01*
X24179788Y-26663224D01*
X24403900Y-26756054D01*
X24638211Y-26818838D01*
X24878712Y-26850500D01*
X24878713Y-26850500D01*
X25121287Y-26850500D01*
X25121288Y-26850500D01*
X25361789Y-26818838D01*
X25596100Y-26756054D01*
X25820212Y-26663224D01*
X26030289Y-26541936D01*
X26206281Y-26406893D01*
X53899500Y-26406893D01*
X53899500Y-27593106D01*
X53910123Y-27681565D01*
X53965637Y-27822339D01*
X53965638Y-27822341D01*
X53965639Y-27822342D01*
X54057078Y-27942922D01*
X54177658Y-28034361D01*
X54177659Y-28034361D01*
X54177660Y-28034362D01*
X54248047Y-28062119D01*
X54318436Y-28089877D01*
X54406898Y-28100500D01*
X54406900Y-28100500D01*
X55593100Y-28100500D01*
X55593102Y-28100500D01*
X55681564Y-28089877D01*
X55822342Y-28034361D01*
X55942922Y-27942922D01*
X56034361Y-27822342D01*
X56089877Y-27681564D01*
X56100500Y-27593102D01*
X56100500Y-26897684D01*
X57200000Y-26897684D01*
X57200000Y-27102315D01*
X57232008Y-27304412D01*
X57295243Y-27499027D01*
X57388139Y-27681348D01*
X57388143Y-27681353D01*
X57420523Y-27725920D01*
X57420524Y-27725920D01*
X58100000Y-27046444D01*
X58100000Y-27052661D01*
X58127259Y-27154394D01*
X58179920Y-27245606D01*
X58254394Y-27320080D01*
X58345606Y-27372741D01*
X58447339Y-27400000D01*
X58453553Y-27400000D01*
X57774078Y-28079475D01*
X57818647Y-28111858D01*
X58000972Y-28204756D01*
X58195587Y-28267991D01*
X58397685Y-28300000D01*
X58602315Y-28300000D01*
X58804412Y-28267991D01*
X58999027Y-28204756D01*
X59181342Y-28111863D01*
X59181350Y-28111858D01*
X59225920Y-28079475D01*
X58546445Y-27400000D01*
X58552661Y-27400000D01*
X58654394Y-27372741D01*
X58745606Y-27320080D01*
X58820080Y-27245606D01*
X58872741Y-27154394D01*
X58900000Y-27052661D01*
X58900000Y-27046445D01*
X59579475Y-27725920D01*
X59611858Y-27681350D01*
X59611863Y-27681342D01*
X59704756Y-27499027D01*
X59767991Y-27304412D01*
X59800000Y-27102315D01*
X59800000Y-26897684D01*
X59767991Y-26695587D01*
X59704756Y-26500972D01*
X59611858Y-26318647D01*
X59579475Y-26274078D01*
X58900000Y-26953553D01*
X58900000Y-26947339D01*
X58872741Y-26845606D01*
X58820080Y-26754394D01*
X58745606Y-26679920D01*
X58654394Y-26627259D01*
X58552661Y-26600000D01*
X58546445Y-26600000D01*
X59225920Y-25920524D01*
X59225920Y-25920523D01*
X59181353Y-25888143D01*
X59181348Y-25888139D01*
X58999027Y-25795243D01*
X58804412Y-25732008D01*
X58602315Y-25700000D01*
X58397685Y-25700000D01*
X58195587Y-25732008D01*
X58000972Y-25795243D01*
X57818651Y-25888139D01*
X57818647Y-25888141D01*
X57774078Y-25920523D01*
X58453555Y-26600000D01*
X58447339Y-26600000D01*
X58345606Y-26627259D01*
X58254394Y-26679920D01*
X58179920Y-26754394D01*
X58127259Y-26845606D01*
X58100000Y-26947339D01*
X58100000Y-26953555D01*
X57420523Y-26274078D01*
X57388141Y-26318647D01*
X57388139Y-26318651D01*
X57295243Y-26500972D01*
X57232008Y-26695587D01*
X57200000Y-26897684D01*
X56100500Y-26897684D01*
X56100500Y-26406898D01*
X56089877Y-26318436D01*
X56034361Y-26177658D01*
X55942922Y-26057078D01*
X55822342Y-25965639D01*
X55822341Y-25965638D01*
X55822339Y-25965637D01*
X55681565Y-25910123D01*
X55593106Y-25899500D01*
X55593102Y-25899500D01*
X54406898Y-25899500D01*
X54406893Y-25899500D01*
X54318434Y-25910123D01*
X54177660Y-25965637D01*
X54177656Y-25965640D01*
X54057081Y-26057075D01*
X54057075Y-26057081D01*
X53965640Y-26177656D01*
X53965637Y-26177660D01*
X53910123Y-26318434D01*
X53899500Y-26406893D01*
X26206281Y-26406893D01*
X26222738Y-26394265D01*
X26394265Y-26222738D01*
X26541936Y-26030289D01*
X26663224Y-25820212D01*
X26756054Y-25596100D01*
X26818838Y-25361789D01*
X26850500Y-25121288D01*
X26850500Y-24878712D01*
X26850500Y-24878710D01*
X108149500Y-24878710D01*
X108149500Y-25121289D01*
X108181161Y-25361781D01*
X108181161Y-25361786D01*
X108243944Y-25596092D01*
X108243948Y-25596105D01*
X108336772Y-25820204D01*
X108336774Y-25820208D01*
X108336776Y-25820212D01*
X108420739Y-25965640D01*
X108458066Y-26030292D01*
X108605729Y-26222731D01*
X108605731Y-26222733D01*
X108605735Y-26222738D01*
X108777262Y-26394265D01*
X108777266Y-26394268D01*
X108777268Y-26394270D01*
X108969707Y-26541933D01*
X108969711Y-26541936D01*
X109179788Y-26663224D01*
X109403900Y-26756054D01*
X109638211Y-26818838D01*
X109878712Y-26850500D01*
X109878713Y-26850500D01*
X110121287Y-26850500D01*
X110121288Y-26850500D01*
X110361789Y-26818838D01*
X110596100Y-26756054D01*
X110820212Y-26663224D01*
X111030289Y-26541936D01*
X111222738Y-26394265D01*
X111394265Y-26222738D01*
X111541936Y-26030289D01*
X111663224Y-25820212D01*
X111756054Y-25596100D01*
X111818838Y-25361789D01*
X111850500Y-25121288D01*
X111850500Y-24878712D01*
X111818838Y-24638211D01*
X111756054Y-24403900D01*
X111663224Y-24179788D01*
X111541936Y-23969711D01*
X111394265Y-23777262D01*
X111222738Y-23605735D01*
X111222733Y-23605731D01*
X111222731Y-23605729D01*
X111030292Y-23458066D01*
X111030289Y-23458064D01*
X110820212Y-23336776D01*
X110820208Y-23336774D01*
X110820204Y-23336772D01*
X110596105Y-23243948D01*
X110596104Y-23243947D01*
X110596100Y-23243946D01*
X110361789Y-23181162D01*
X110361786Y-23181161D01*
X110361784Y-23181161D01*
X110121289Y-23149500D01*
X110121288Y-23149500D01*
X109878712Y-23149500D01*
X109878710Y-23149500D01*
X109638218Y-23181161D01*
X109638213Y-23181161D01*
X109403907Y-23243944D01*
X109403894Y-23243948D01*
X109179795Y-23336772D01*
X108969707Y-23458066D01*
X108777268Y-23605729D01*
X108605729Y-23777268D01*
X108458066Y-23969707D01*
X108336772Y-24179795D01*
X108243948Y-24403894D01*
X108243944Y-24403907D01*
X108181161Y-24638213D01*
X108181161Y-24638218D01*
X108149500Y-24878710D01*
X26850500Y-24878710D01*
X26818838Y-24638211D01*
X26756054Y-24403900D01*
X26663224Y-24179788D01*
X26541936Y-23969711D01*
X26394265Y-23777262D01*
X26222738Y-23605735D01*
X26222733Y-23605731D01*
X26222731Y-23605729D01*
X26030292Y-23458066D01*
X26030289Y-23458064D01*
X25820212Y-23336776D01*
X25820208Y-23336774D01*
X25820204Y-23336772D01*
X25596105Y-23243948D01*
X25596104Y-23243947D01*
X25596100Y-23243946D01*
X25361789Y-23181162D01*
X25361786Y-23181161D01*
X25361784Y-23181161D01*
X25121289Y-23149500D01*
X25121288Y-23149500D01*
X24878712Y-23149500D01*
X24878710Y-23149500D01*
X24638218Y-23181161D01*
X24638213Y-23181161D01*
X24403907Y-23243944D01*
X24403894Y-23243948D01*
X24179795Y-23336772D01*
X23969707Y-23458066D01*
X23777268Y-23605729D01*
X23605729Y-23777268D01*
X23458066Y-23969707D01*
X23336772Y-24179795D01*
X23243948Y-24403894D01*
X23243944Y-24403907D01*
X23181161Y-24638213D01*
X23181161Y-24638218D01*
X23149500Y-24878710D01*
X20500500Y-24878710D01*
X20500500Y-23002984D01*
X20500681Y-22997007D01*
X20518362Y-22704696D01*
X20518363Y-22704695D01*
X20518362Y-22704688D01*
X20519801Y-22692837D01*
X20572052Y-22407715D01*
X20574912Y-22396114D01*
X20661148Y-22119370D01*
X20665378Y-22108218D01*
X20784350Y-21843875D01*
X20789891Y-21833315D01*
X20939868Y-21585221D01*
X20946632Y-21575424D01*
X21125407Y-21347235D01*
X21133319Y-21338303D01*
X21338303Y-21133319D01*
X21347235Y-21125407D01*
X21575424Y-20946632D01*
X21585221Y-20939868D01*
X21833315Y-20789891D01*
X21843875Y-20784350D01*
X22108218Y-20665378D01*
X22119370Y-20661148D01*
X22396121Y-20574910D01*
X22407715Y-20572052D01*
X22692837Y-20519801D01*
X22704688Y-20518362D01*
X22997008Y-20500681D01*
X23002985Y-20500500D01*
X23065892Y-20500500D01*
X111934108Y-20500500D01*
X111997015Y-20500500D01*
X112002992Y-20500681D01*
G37*
%TD.AperFunction*%
%TD*%
M02*
