%TF.GenerationSoftware,KiCad,Pcbnew,10.0.5*%
%TF.CreationDate,2026-08-31T10:10:09+07:00*%
%TF.ProjectId,vsmart-module-carrier,76736d61-7274-42d6-9d6f-64756c652d63,rev?*%
%TF.SameCoordinates,Original*%
%TF.FileFunction,Soldermask,Top*%
%TF.FilePolarity,Negative*%
%FSLAX46Y46*%
G04 Gerber Fmt 4.6, Leading zero omitted, Abs format (unit mm)*
G04 Created by KiCad (PCBNEW 10.0.5) date 2026-08-31 10:10:09*
%MOMM*%
%LPD*%
G01*
G04 APERTURE LIST*
G04 Aperture macros list*
%AMRoundRect*
0 Rectangle with rounded corners*
0 $1 Rounding radius*
0 $2 $3 $4 $5 $6 $7 $8 $9 X,Y pos of 4 corners*
0 Add a 4 corners polygon primitive as box body*
4,1,4,$2,$3,$4,$5,$6,$7,$8,$9,$2,$3,0*
0 Add four circle primitives for the rounded corners*
1,1,$1+$1,$2,$3*
1,1,$1+$1,$4,$5*
1,1,$1+$1,$6,$7*
1,1,$1+$1,$8,$9*
0 Add four rect primitives between the rounded corners*
20,1,$1+$1,$2,$3,$4,$5,0*
20,1,$1+$1,$4,$5,$6,$7,0*
20,1,$1+$1,$6,$7,$8,$9,0*
20,1,$1+$1,$8,$9,$2,$3,0*%
G04 Aperture macros list end*
%ADD10C,2.000000*%
%ADD11R,1.700000X1.700000*%
%ADD12O,1.700000X1.700000*%
%ADD13C,1.524000*%
%ADD14C,3.200000*%
%ADD15RoundRect,0.250000X-1.125000X-1.125000X1.125000X-1.125000X1.125000X1.125000X-1.125000X1.125000X0*%
%ADD16C,2.750000*%
%ADD17RoundRect,0.250000X-0.750000X-0.750000X0.750000X-0.750000X0.750000X0.750000X-0.750000X0.750000X0*%
%ADD18RoundRect,0.250000X-0.550000X-0.550000X0.550000X-0.550000X0.550000X0.550000X-0.550000X0.550000X0*%
%ADD19C,1.600000*%
%ADD20R,2.000000X1.200000*%
%ADD21O,2.000000X1.200000*%
%ADD22R,1.800000X1.800000*%
%ADD23O,1.800000X1.800000*%
G04 APERTURE END LIST*
D10*
%TO.C,U4*%
X79349000Y-65234000D03*
D11*
X101072600Y-81334000D03*
D12*
X101072600Y-78794000D03*
X101072600Y-76254000D03*
X101072600Y-73714000D03*
X101072600Y-71174000D03*
X101072600Y-68634000D03*
D11*
X78999000Y-83858000D03*
D12*
X78999000Y-81318000D03*
X78999000Y-78778000D03*
X78999000Y-76238000D03*
X78999000Y-73698000D03*
X78999000Y-71158000D03*
%TD*%
D13*
%TO.C,U2*%
X55000000Y-43220000D03*
X55000000Y-45760000D03*
X55000000Y-48300000D03*
X55000000Y-50840000D03*
X55000000Y-53380000D03*
X55000000Y-55920000D03*
X55000000Y-58460000D03*
X55000000Y-61000000D03*
%TD*%
D14*
%TO.C,MH1*%
X25000000Y-25000000D03*
%TD*%
%TO.C,MH4*%
X110000000Y-85000000D03*
%TD*%
%TO.C,MH2*%
X110000000Y-25000000D03*
%TD*%
D15*
%TO.C,J2*%
X67000000Y-86000000D03*
D16*
X72400000Y-86000000D03*
%TD*%
D17*
%TO.C,C1*%
X66000000Y-74000000D03*
D10*
X71000000Y-74000000D03*
%TD*%
D18*
%TO.C,C3*%
X55000000Y-27000000D03*
D19*
X58500000Y-27000000D03*
%TD*%
D20*
%TO.C,U1*%
X23000000Y-34000000D03*
D21*
X23000000Y-36540000D03*
X23000000Y-39080000D03*
X23000000Y-41620000D03*
X23000000Y-44160000D03*
X23000000Y-46700000D03*
X23000000Y-49240000D03*
X23000000Y-51780000D03*
X23000000Y-54320000D03*
X23000000Y-56860000D03*
X23000000Y-59400000D03*
X23000000Y-61940000D03*
X23000000Y-64480000D03*
X23000000Y-67020000D03*
X23000000Y-69560000D03*
X23000000Y-72100000D03*
X23000000Y-74640000D03*
X23000000Y-77180000D03*
X23000000Y-79720000D03*
X48396320Y-79717280D03*
X48396320Y-77177280D03*
X48400000Y-74640000D03*
X48400000Y-72100000D03*
X48400000Y-69560000D03*
X48400000Y-67020000D03*
X48400000Y-64480000D03*
X48400000Y-61940000D03*
X48400000Y-59400000D03*
X48400000Y-56860000D03*
X48400000Y-54320000D03*
X48400000Y-51780000D03*
X48400000Y-49240000D03*
X48400000Y-46700000D03*
X48400000Y-44160000D03*
X48400000Y-41620000D03*
X48400000Y-39080000D03*
X48400000Y-36540000D03*
X48400000Y-34000000D03*
%TD*%
D22*
%TO.C,U3*%
X100000000Y-38190000D03*
D23*
X100000000Y-40730000D03*
X100000000Y-43270000D03*
X100000000Y-45810000D03*
%TD*%
D15*
%TO.C,J1*%
X53000000Y-86000000D03*
D16*
X58400000Y-86000000D03*
%TD*%
D14*
%TO.C,MH3*%
X25000000Y-85000000D03*
%TD*%
M02*
