%TF.GenerationSoftware,KiCad,Pcbnew,10.0.5*%
%TF.CreationDate,2026-09-10T11:57:12+07:00*%
%TF.ProjectId,vsmart-module-carrier,76736d61-7274-42d6-9d6f-64756c652d63,rev?*%
%TF.SameCoordinates,Original*%
%TF.FileFunction,Legend,Bot*%
%TF.FilePolarity,Positive*%
%FSLAX46Y46*%
G04 Gerber Fmt 4.6, Leading zero omitted, Abs format (unit mm)*
G04 Created by KiCad (PCBNEW 10.0.5) date 2026-09-10 11:57:12*
%MOMM*%
%LPD*%
G01*
G04 APERTURE LIST*
%ADD10C,0.150000*%
G04 APERTURE END LIST*
D10*
X92949999Y-99808557D02*
X92649999Y-100708557D01*
X92649999Y-100708557D02*
X92349999Y-99808557D01*
X92092856Y-100665700D02*
X91964285Y-100708557D01*
X91964285Y-100708557D02*
X91749999Y-100708557D01*
X91749999Y-100708557D02*
X91664285Y-100665700D01*
X91664285Y-100665700D02*
X91621427Y-100622842D01*
X91621427Y-100622842D02*
X91578570Y-100537128D01*
X91578570Y-100537128D02*
X91578570Y-100451414D01*
X91578570Y-100451414D02*
X91621427Y-100365700D01*
X91621427Y-100365700D02*
X91664285Y-100322842D01*
X91664285Y-100322842D02*
X91749999Y-100279985D01*
X91749999Y-100279985D02*
X91921427Y-100237128D01*
X91921427Y-100237128D02*
X92007142Y-100194271D01*
X92007142Y-100194271D02*
X92049999Y-100151414D01*
X92049999Y-100151414D02*
X92092856Y-100065700D01*
X92092856Y-100065700D02*
X92092856Y-99979985D01*
X92092856Y-99979985D02*
X92049999Y-99894271D01*
X92049999Y-99894271D02*
X92007142Y-99851414D01*
X92007142Y-99851414D02*
X91921427Y-99808557D01*
X91921427Y-99808557D02*
X91707142Y-99808557D01*
X91707142Y-99808557D02*
X91578570Y-99851414D01*
X91192856Y-100708557D02*
X91192856Y-99808557D01*
X91192856Y-99808557D02*
X90892856Y-100451414D01*
X90892856Y-100451414D02*
X90592856Y-99808557D01*
X90592856Y-99808557D02*
X90592856Y-100708557D01*
X90207142Y-100451414D02*
X89778571Y-100451414D01*
X90292856Y-100708557D02*
X89992856Y-99808557D01*
X89992856Y-99808557D02*
X89692856Y-100708557D01*
X88878570Y-100708557D02*
X89178570Y-100279985D01*
X89392856Y-100708557D02*
X89392856Y-99808557D01*
X89392856Y-99808557D02*
X89049999Y-99808557D01*
X89049999Y-99808557D02*
X88964284Y-99851414D01*
X88964284Y-99851414D02*
X88921427Y-99894271D01*
X88921427Y-99894271D02*
X88878570Y-99979985D01*
X88878570Y-99979985D02*
X88878570Y-100108557D01*
X88878570Y-100108557D02*
X88921427Y-100194271D01*
X88921427Y-100194271D02*
X88964284Y-100237128D01*
X88964284Y-100237128D02*
X89049999Y-100279985D01*
X89049999Y-100279985D02*
X89392856Y-100279985D01*
X88621427Y-99808557D02*
X88107142Y-99808557D01*
X88364284Y-100708557D02*
X88364284Y-99808557D01*
X86607142Y-100622842D02*
X86649999Y-100665700D01*
X86649999Y-100665700D02*
X86778571Y-100708557D01*
X86778571Y-100708557D02*
X86864285Y-100708557D01*
X86864285Y-100708557D02*
X86992856Y-100665700D01*
X86992856Y-100665700D02*
X87078571Y-100579985D01*
X87078571Y-100579985D02*
X87121428Y-100494271D01*
X87121428Y-100494271D02*
X87164285Y-100322842D01*
X87164285Y-100322842D02*
X87164285Y-100194271D01*
X87164285Y-100194271D02*
X87121428Y-100022842D01*
X87121428Y-100022842D02*
X87078571Y-99937128D01*
X87078571Y-99937128D02*
X86992856Y-99851414D01*
X86992856Y-99851414D02*
X86864285Y-99808557D01*
X86864285Y-99808557D02*
X86778571Y-99808557D01*
X86778571Y-99808557D02*
X86649999Y-99851414D01*
X86649999Y-99851414D02*
X86607142Y-99894271D01*
X86264285Y-100451414D02*
X85835714Y-100451414D01*
X86349999Y-100708557D02*
X86049999Y-99808557D01*
X86049999Y-99808557D02*
X85749999Y-100708557D01*
X84935713Y-100708557D02*
X85235713Y-100279985D01*
X85449999Y-100708557D02*
X85449999Y-99808557D01*
X85449999Y-99808557D02*
X85107142Y-99808557D01*
X85107142Y-99808557D02*
X85021427Y-99851414D01*
X85021427Y-99851414D02*
X84978570Y-99894271D01*
X84978570Y-99894271D02*
X84935713Y-99979985D01*
X84935713Y-99979985D02*
X84935713Y-100108557D01*
X84935713Y-100108557D02*
X84978570Y-100194271D01*
X84978570Y-100194271D02*
X85021427Y-100237128D01*
X85021427Y-100237128D02*
X85107142Y-100279985D01*
X85107142Y-100279985D02*
X85449999Y-100279985D01*
X84035713Y-100708557D02*
X84335713Y-100279985D01*
X84549999Y-100708557D02*
X84549999Y-99808557D01*
X84549999Y-99808557D02*
X84207142Y-99808557D01*
X84207142Y-99808557D02*
X84121427Y-99851414D01*
X84121427Y-99851414D02*
X84078570Y-99894271D01*
X84078570Y-99894271D02*
X84035713Y-99979985D01*
X84035713Y-99979985D02*
X84035713Y-100108557D01*
X84035713Y-100108557D02*
X84078570Y-100194271D01*
X84078570Y-100194271D02*
X84121427Y-100237128D01*
X84121427Y-100237128D02*
X84207142Y-100279985D01*
X84207142Y-100279985D02*
X84549999Y-100279985D01*
X83649999Y-100708557D02*
X83649999Y-99808557D01*
X83221428Y-100237128D02*
X82921428Y-100237128D01*
X82792856Y-100708557D02*
X83221428Y-100708557D01*
X83221428Y-100708557D02*
X83221428Y-99808557D01*
X83221428Y-99808557D02*
X82792856Y-99808557D01*
X81892856Y-100708557D02*
X82192856Y-100279985D01*
X82407142Y-100708557D02*
X82407142Y-99808557D01*
X82407142Y-99808557D02*
X82064285Y-99808557D01*
X82064285Y-99808557D02*
X81978570Y-99851414D01*
X81978570Y-99851414D02*
X81935713Y-99894271D01*
X81935713Y-99894271D02*
X81892856Y-99979985D01*
X81892856Y-99979985D02*
X81892856Y-100108557D01*
X81892856Y-100108557D02*
X81935713Y-100194271D01*
X81935713Y-100194271D02*
X81978570Y-100237128D01*
X81978570Y-100237128D02*
X82064285Y-100279985D01*
X82064285Y-100279985D02*
X82407142Y-100279985D01*
X80307142Y-100708557D02*
X80607142Y-100279985D01*
X80821428Y-100708557D02*
X80821428Y-99808557D01*
X80821428Y-99808557D02*
X80478571Y-99808557D01*
X80478571Y-99808557D02*
X80392856Y-99851414D01*
X80392856Y-99851414D02*
X80349999Y-99894271D01*
X80349999Y-99894271D02*
X80307142Y-99979985D01*
X80307142Y-99979985D02*
X80307142Y-100108557D01*
X80307142Y-100108557D02*
X80349999Y-100194271D01*
X80349999Y-100194271D02*
X80392856Y-100237128D01*
X80392856Y-100237128D02*
X80478571Y-100279985D01*
X80478571Y-100279985D02*
X80821428Y-100279985D01*
X79921428Y-100237128D02*
X79621428Y-100237128D01*
X79492856Y-100708557D02*
X79921428Y-100708557D01*
X79921428Y-100708557D02*
X79921428Y-99808557D01*
X79921428Y-99808557D02*
X79492856Y-99808557D01*
X79235713Y-99808557D02*
X78935713Y-100708557D01*
X78935713Y-100708557D02*
X78635713Y-99808557D01*
X77135713Y-100622842D02*
X77178570Y-100665700D01*
X77178570Y-100665700D02*
X77307142Y-100708557D01*
X77307142Y-100708557D02*
X77392856Y-100708557D01*
X77392856Y-100708557D02*
X77521427Y-100665700D01*
X77521427Y-100665700D02*
X77607142Y-100579985D01*
X77607142Y-100579985D02*
X77649999Y-100494271D01*
X77649999Y-100494271D02*
X77692856Y-100322842D01*
X77692856Y-100322842D02*
X77692856Y-100194271D01*
X77692856Y-100194271D02*
X77649999Y-100022842D01*
X77649999Y-100022842D02*
X77607142Y-99937128D01*
X77607142Y-99937128D02*
X77521427Y-99851414D01*
X77521427Y-99851414D02*
X77392856Y-99808557D01*
X77392856Y-99808557D02*
X77307142Y-99808557D01*
X77307142Y-99808557D02*
X77178570Y-99851414D01*
X77178570Y-99851414D02*
X77135713Y-99894271D01*
M02*
