%TF.GenerationSoftware,KiCad,Pcbnew,10.0.5*%
%TF.CreationDate,2026-09-10T11:57:12+07:00*%
%TF.ProjectId,vsmart-module-carrier,76736d61-7274-42d6-9d6f-64756c652d63,rev?*%
%TF.SameCoordinates,Original*%
%TF.FileFunction,Copper,L2,Bot*%
%TF.FilePolarity,Positive*%
%FSLAX46Y46*%
G04 Gerber Fmt 4.6, Leading zero omitted, Abs format (unit mm)*
G04 Created by KiCad (PCBNEW 10.0.5) date 2026-09-10 11:57:12*
%MOMM*%
%LPD*%
G01*
G04 APERTURE LIST*
G04 Aperture macros list*
%AMRoundRect*
0 Rectangle with rounded corners*
0 $1 Rounding radius*
0 $2 $3 $4 $5 $6 $7 $8 $9 X,Y pos of 4 corners*
0 Add a 4 corners polygon primitive as box body*
4,1,4,$2,$3,$4,$5,$6,$7,$8,$9,$2,$3,0*
0 Add four circle primitives for the rounded corners*
1,1,$1+$1,$2,$3*
1,1,$1+$1,$4,$5*
1,1,$1+$1,$6,$7*
1,1,$1+$1,$8,$9*
0 Add four rect primitives between the rounded corners*
20,1,$1+$1,$2,$3,$4,$5,0*
20,1,$1+$1,$4,$5,$6,$7,0*
20,1,$1+$1,$6,$7,$8,$9,0*
20,1,$1+$1,$8,$9,$2,$3,0*%
G04 Aperture macros list end*
%TA.AperFunction,ComponentPad*%
%ADD10R,1.700000X1.700000*%
%TD*%
%TA.AperFunction,ComponentPad*%
%ADD11O,1.700000X1.700000*%
%TD*%
%TA.AperFunction,ComponentPad*%
%ADD12C,1.524000*%
%TD*%
%TA.AperFunction,ComponentPad*%
%ADD13RoundRect,0.250000X-1.125000X-1.125000X1.125000X-1.125000X1.125000X1.125000X-1.125000X1.125000X0*%
%TD*%
%TA.AperFunction,ComponentPad*%
%ADD14C,2.750000*%
%TD*%
%TA.AperFunction,ComponentPad*%
%ADD15RoundRect,0.250000X-0.750000X-0.750000X0.750000X-0.750000X0.750000X0.750000X-0.750000X0.750000X0*%
%TD*%
%TA.AperFunction,ComponentPad*%
%ADD16C,2.000000*%
%TD*%
%TA.AperFunction,ComponentPad*%
%ADD17RoundRect,0.250000X-0.550000X-0.550000X0.550000X-0.550000X0.550000X0.550000X-0.550000X0.550000X0*%
%TD*%
%TA.AperFunction,ComponentPad*%
%ADD18C,1.600000*%
%TD*%
%TA.AperFunction,ComponentPad*%
%ADD19R,2.000000X1.500000*%
%TD*%
%TA.AperFunction,ComponentPad*%
%ADD20O,2.000000X1.500000*%
%TD*%
%TA.AperFunction,ComponentPad*%
%ADD21R,1.800000X1.800000*%
%TD*%
%TA.AperFunction,ComponentPad*%
%ADD22O,1.800000X1.800000*%
%TD*%
%TA.AperFunction,ViaPad*%
%ADD23C,0.800000*%
%TD*%
%TA.AperFunction,ViaPad*%
%ADD24C,0.600000*%
%TD*%
%TA.AperFunction,Conductor*%
%ADD25C,2.000000*%
%TD*%
%TA.AperFunction,Conductor*%
%ADD26C,0.250000*%
%TD*%
%TA.AperFunction,Conductor*%
%ADD27C,0.500000*%
%TD*%
%TA.AperFunction,Conductor*%
%ADD28C,1.000000*%
%TD*%
G04 APERTURE END LIST*
D10*
%TO.P,U4,1*%
%TO.N,SIM_RI*%
X79000000Y-68380000D03*
D11*
%TO.P,U4,2*%
%TO.N,SIM_DTR*%
X79000000Y-70920000D03*
%TO.P,U4,3*%
%TO.N,N/C*%
X79000000Y-73460000D03*
%TO.P,U4,4*%
X79000000Y-76000000D03*
%TO.P,U4,5*%
X79000000Y-78540000D03*
%TO.P,U4,6*%
X79000000Y-81080000D03*
D10*
%TO.P,U4,7*%
X101073600Y-65856000D03*
D11*
%TO.P,U4,8*%
%TO.N,+5V_SIM*%
X101073600Y-68396000D03*
%TO.P,U4,9*%
%TO.N,SIM_RST*%
X101073600Y-70936000D03*
%TO.P,U4,10*%
%TO.N,SIM_TX*%
X101073600Y-73476000D03*
%TO.P,U4,11*%
%TO.N,SIM_RX*%
X101073600Y-76016000D03*
%TO.P,U4,12*%
%TO.N,GND*%
X101073600Y-78556000D03*
%TD*%
D12*
%TO.P,U2,1*%
%TO.N,+3V3*%
X55000000Y-43220000D03*
%TO.P,U2,2*%
%TO.N,GND*%
X55000000Y-45760000D03*
%TO.P,U2,3*%
%TO.N,I2C_SCL*%
X55000000Y-48300000D03*
%TO.P,U2,4*%
%TO.N,I2C_SDA*%
X55000000Y-50840000D03*
%TO.P,U2,5*%
%TO.N,N/C*%
X55000000Y-53380000D03*
%TO.P,U2,6*%
X55000000Y-55920000D03*
%TO.P,U2,7*%
%TO.N,GND*%
X55000000Y-58460000D03*
%TO.P,U2,8*%
%TO.N,MPU_INT*%
X55000000Y-61000000D03*
%TD*%
D13*
%TO.P,J2,1*%
%TO.N,+5V_SIM*%
X67000000Y-86000000D03*
D14*
%TO.P,J2,2*%
%TO.N,GND*%
X72400000Y-86000000D03*
%TD*%
D15*
%TO.P,C1,1*%
%TO.N,+5V_SIM*%
X66000000Y-74000000D03*
D16*
%TO.P,C1,2*%
%TO.N,GND*%
X71000000Y-74000000D03*
%TD*%
D17*
%TO.P,C3,1*%
%TO.N,+5V*%
X55000000Y-27000000D03*
D18*
%TO.P,C3,2*%
%TO.N,GND*%
X58500000Y-27000000D03*
%TD*%
D19*
%TO.P,U1,1*%
%TO.N,+3V3*%
X23000000Y-34000000D03*
D20*
%TO.P,U1,2*%
%TO.N,N/C*%
X23000000Y-36500000D03*
%TO.P,U1,3*%
X23000000Y-39000000D03*
%TO.P,U1,4*%
X23000000Y-41500000D03*
%TO.P,U1,5*%
X23000000Y-44000000D03*
%TO.P,U1,6*%
%TO.N,MPU_INT*%
X23000000Y-46500000D03*
%TO.P,U1,7*%
%TO.N,SIM_RST*%
X23000000Y-49000000D03*
%TO.P,U1,8*%
%TO.N,SIM_RI*%
X23000000Y-51500000D03*
%TO.P,U1,9*%
%TO.N,SIM_DTR*%
X23000000Y-54000000D03*
%TO.P,U1,10*%
%TO.N,SIM_RX*%
X23000000Y-56500000D03*
%TO.P,U1,11*%
%TO.N,SIM_TX*%
X23000000Y-59000000D03*
%TO.P,U1,12*%
%TO.N,N/C*%
X23000000Y-61500000D03*
%TO.P,U1,13*%
X23000000Y-64000000D03*
%TO.P,U1,14*%
%TO.N,GND*%
X23000000Y-66500000D03*
%TO.P,U1,15*%
%TO.N,N/C*%
X23000000Y-69000000D03*
%TO.P,U1,16*%
X23000000Y-71500000D03*
%TO.P,U1,17*%
X23000000Y-74000000D03*
%TO.P,U1,18*%
X23000000Y-76500000D03*
%TO.P,U1,19*%
%TO.N,+5V*%
X23000000Y-79000000D03*
%TO.P,U1,20*%
%TO.N,N/C*%
X49000000Y-79000000D03*
%TO.P,U1,21*%
X49000000Y-76500000D03*
%TO.P,U1,22*%
X49000000Y-74000000D03*
%TO.P,U1,23*%
X49000000Y-71500000D03*
%TO.P,U1,24*%
X49000000Y-69000000D03*
%TO.P,U1,25*%
X49000000Y-66500000D03*
%TO.P,U1,26*%
X49000000Y-64000000D03*
%TO.P,U1,27*%
%TO.N,GPS_RX*%
X49000000Y-61500000D03*
%TO.P,U1,28*%
%TO.N,GPS_TX*%
X49000000Y-59000000D03*
%TO.P,U1,29*%
%TO.N,N/C*%
X49000000Y-56500000D03*
%TO.P,U1,30*%
X49000000Y-54000000D03*
%TO.P,U1,31*%
X49000000Y-51500000D03*
%TO.P,U1,32*%
%TO.N,GND*%
X49000000Y-49000000D03*
%TO.P,U1,33*%
%TO.N,I2C_SDA*%
X49000000Y-46500000D03*
%TO.P,U1,34*%
%TO.N,N/C*%
X49000000Y-44000000D03*
%TO.P,U1,35*%
X49000000Y-41500000D03*
%TO.P,U1,36*%
%TO.N,I2C_SCL*%
X49000000Y-39000000D03*
%TO.P,U1,37*%
%TO.N,N/C*%
X49000000Y-36500000D03*
%TO.P,U1,38*%
%TO.N,GND*%
X49000000Y-34000000D03*
%TD*%
D21*
%TO.P,U3,1*%
%TO.N,+3V3*%
X107000000Y-38190000D03*
D22*
%TO.P,U3,2*%
%TO.N,GPS_TX*%
X107000000Y-40730000D03*
%TO.P,U3,3*%
%TO.N,GPS_RX*%
X107000000Y-43270000D03*
%TO.P,U3,4*%
%TO.N,GND*%
X107000000Y-45810000D03*
%TD*%
D13*
%TO.P,J1,1*%
%TO.N,+5V*%
X53000000Y-86000000D03*
D14*
%TO.P,J1,2*%
%TO.N,GND*%
X58400000Y-86000000D03*
%TD*%
D23*
%TO.N,SIM_RX*%
X24915000Y-73430000D03*
D24*
%TO.N,GND*%
X30450000Y-70450000D03*
X55450000Y-25450000D03*
X70450000Y-30450000D03*
X60450000Y-65450000D03*
X105450000Y-45450000D03*
X85450000Y-50450000D03*
X100450000Y-55450000D03*
D23*
X43000000Y-67000000D03*
D24*
X105450000Y-70450000D03*
X65450000Y-30450000D03*
X40450000Y-80450000D03*
X75450000Y-85450000D03*
X70450000Y-50450000D03*
X70450000Y-25450000D03*
X40450000Y-50450000D03*
X60450000Y-40450000D03*
X90450000Y-40450000D03*
X75450000Y-45450000D03*
X50450000Y-35450000D03*
X25450000Y-45450000D03*
X95450000Y-70450000D03*
X95450000Y-55450000D03*
X110450000Y-75450000D03*
D23*
X61000000Y-67000000D03*
D24*
X70450000Y-80450000D03*
X75450000Y-55450000D03*
X95450000Y-40450000D03*
X105450000Y-60450000D03*
X55450000Y-85450000D03*
X105450000Y-50450000D03*
X95450000Y-85450000D03*
X80450000Y-40450000D03*
X80450000Y-25450000D03*
X100450000Y-60450000D03*
X100450000Y-30450000D03*
X95450000Y-60450000D03*
X60450000Y-85450000D03*
X50450000Y-25450000D03*
X80450000Y-35450000D03*
X105450000Y-40450000D03*
X25450000Y-40450000D03*
X95450000Y-25450000D03*
X40450000Y-40450000D03*
X105450000Y-80450000D03*
X90450000Y-30450000D03*
X80450000Y-30450000D03*
X70450000Y-35450000D03*
X80450000Y-45450000D03*
X105450000Y-35450000D03*
X110450000Y-70450000D03*
X85450000Y-45450000D03*
X110450000Y-35450000D03*
X85450000Y-35450000D03*
X90450000Y-45450000D03*
X75450000Y-25450000D03*
D23*
X60000000Y-80000000D03*
D24*
X95450000Y-35450000D03*
D23*
X67000000Y-49000000D03*
D24*
X100450000Y-25450000D03*
D23*
X60000000Y-74000000D03*
D24*
X90450000Y-25450000D03*
X60450000Y-35450000D03*
X60450000Y-55450000D03*
X30450000Y-80450000D03*
X75450000Y-40450000D03*
D23*
X54000000Y-80000000D03*
D24*
X90450000Y-80450000D03*
X45450000Y-55450000D03*
X45450000Y-35450000D03*
X95450000Y-80450000D03*
D23*
X67000000Y-55000000D03*
D24*
X40450000Y-55450000D03*
X70450000Y-45450000D03*
X85450000Y-25450000D03*
X100450000Y-35450000D03*
X45450000Y-40450000D03*
X50450000Y-65450000D03*
X65450000Y-45450000D03*
X95450000Y-30450000D03*
D23*
X55000000Y-67000000D03*
D24*
X40450000Y-35450000D03*
X30450000Y-45450000D03*
X110450000Y-65450000D03*
X80450000Y-65450000D03*
X85450000Y-85450000D03*
X90450000Y-70450000D03*
X50450000Y-45450000D03*
D23*
X43000000Y-55000000D03*
X78000000Y-86000000D03*
D24*
X45450000Y-45450000D03*
X45450000Y-80450000D03*
X105450000Y-65450000D03*
X60450000Y-25450000D03*
X75450000Y-35450000D03*
X105450000Y-25450000D03*
D23*
X43000000Y-49000000D03*
D24*
X65450000Y-60450000D03*
X80450000Y-50450000D03*
X85450000Y-70450000D03*
X65450000Y-50450000D03*
X60450000Y-60450000D03*
X35450000Y-40450000D03*
X75450000Y-50450000D03*
X65450000Y-35450000D03*
X75450000Y-30450000D03*
X90450000Y-85450000D03*
X65450000Y-25450000D03*
X40450000Y-65450000D03*
X90450000Y-35450000D03*
X70450000Y-55450000D03*
X110450000Y-45450000D03*
X50450000Y-50450000D03*
X45450000Y-65450000D03*
X110450000Y-55450000D03*
X100450000Y-50450000D03*
X85450000Y-40450000D03*
X50450000Y-80450000D03*
X110450000Y-60450000D03*
D23*
X67000000Y-61000000D03*
D24*
X35450000Y-35450000D03*
X30450000Y-40450000D03*
X35450000Y-50450000D03*
X40450000Y-45450000D03*
X60450000Y-45450000D03*
X75450000Y-80450000D03*
X80450000Y-55450000D03*
X65450000Y-65450000D03*
X70450000Y-85450000D03*
X24750000Y-74366000D03*
X100450000Y-85450000D03*
X65450000Y-80450000D03*
X105450000Y-75450000D03*
X90450000Y-60450000D03*
X60450000Y-50450000D03*
X85450000Y-30450000D03*
X85450000Y-60450000D03*
D23*
X54000000Y-74000000D03*
D24*
X35450000Y-45450000D03*
X85450000Y-80450000D03*
X90450000Y-65450000D03*
X50450000Y-55450000D03*
X70450000Y-60450000D03*
D23*
X61000000Y-61000000D03*
D24*
X85450000Y-65450000D03*
X50450000Y-30450000D03*
X65450000Y-55450000D03*
X35450000Y-55450000D03*
X110450000Y-50450000D03*
X105450000Y-55450000D03*
X80450000Y-85450000D03*
X25450000Y-75450000D03*
X105450000Y-85450000D03*
X30450000Y-50450000D03*
X95450000Y-50450000D03*
X90450000Y-55450000D03*
X105450000Y-30450000D03*
X35450000Y-80450000D03*
X45450000Y-50450000D03*
X110450000Y-30450000D03*
X60450000Y-30450000D03*
X70450000Y-40450000D03*
X110450000Y-80450000D03*
X30450000Y-35450000D03*
X110450000Y-40450000D03*
X75450000Y-65450000D03*
X70450000Y-65450000D03*
D23*
X72000000Y-80000000D03*
D24*
X65450000Y-40450000D03*
D23*
X61000000Y-49000000D03*
D24*
X75450000Y-60450000D03*
X60450000Y-80450000D03*
%TD*%
%TO.N,+5V_SIM*%
D25*
X67000000Y-86000000D02*
X67250000Y-86000000D01*
X67250000Y-86000000D02*
X67250000Y-74000000D01*
X98750000Y-68500000D02*
X101070000Y-68400000D01*
X67250000Y-74000000D02*
X66000000Y-74000000D01*
X68500000Y-74000000D02*
X68500000Y-63750000D01*
X66000000Y-74000000D02*
X68500000Y-74000000D01*
X68500000Y-63750000D02*
X98750000Y-63750000D01*
X98750000Y-63750000D02*
X98750000Y-68500000D01*
%TO.N,SIM_RX*%
D26*
X24915000Y-57448300D02*
X24915000Y-73430000D01*
X24326700Y-56860000D02*
X24915000Y-57448300D01*
X23000000Y-56500000D02*
X24326700Y-56860000D01*
%TO.N,+3V3*%
D27*
X46750000Y-34250000D02*
X46750000Y-32500000D01*
X55000000Y-32500000D02*
X55000000Y-43220000D01*
X107000000Y-24500000D02*
X107000000Y-38190000D01*
X53500000Y-43250000D02*
X53500000Y-24500000D01*
X55000000Y-43220000D02*
X53500000Y-43250000D01*
X46750000Y-32500000D02*
X55000000Y-32500000D01*
X23000000Y-34250000D02*
X46750000Y-34250000D01*
X53500000Y-24500000D02*
X107000000Y-24500000D01*
X23000000Y-34000000D02*
X23000000Y-34250000D01*
%TO.N,I2C_SCL*%
D26*
X50500000Y-39080000D02*
X50500000Y-43027000D01*
X49000000Y-39000000D02*
X50500000Y-39080000D01*
X50500000Y-43027000D02*
X55000000Y-48300000D01*
%TO.N,I2C_SDA*%
X50860000Y-46700000D02*
X55000000Y-50840000D01*
X49000000Y-46500000D02*
X50860000Y-46700000D01*
%TO.N,MPU_INT*%
X46750000Y-61000000D02*
X47500000Y-60250000D01*
X47500000Y-60250000D02*
X50500000Y-60250000D01*
X23000000Y-46500000D02*
X24326700Y-46700000D01*
X38627000Y-61000000D02*
X46750000Y-61000000D01*
X50500000Y-60250000D02*
X51250000Y-61000000D01*
X24326700Y-46700000D02*
X38626700Y-61000000D01*
X51250000Y-61000000D02*
X55000000Y-61000000D01*
%TO.N,+5V*%
D28*
X56524000Y-82476000D02*
X53000000Y-86000000D01*
X56524000Y-28524000D02*
X56524000Y-82476000D01*
X55000000Y-27000000D02*
X56524000Y-28524000D01*
%TO.N,GPS_RX*%
D26*
X51250000Y-62000000D02*
X51250000Y-85750000D01*
X51000000Y-85750000D02*
X51000000Y-88000000D01*
X49000000Y-61500000D02*
X51250000Y-62000000D01*
X104750000Y-88000000D02*
X104750000Y-43250000D01*
X51000000Y-88000000D02*
X104750000Y-88000000D01*
X51250000Y-85750000D02*
X51000000Y-85750000D01*
X104750000Y-43250000D02*
X107000000Y-43270000D01*
%TD*%
%TA.AperFunction,Conductor*%
%TO.N,GND*%
G36*
X106408691Y-25069407D02*
G01*
X106444655Y-25118907D01*
X106449500Y-25149500D01*
X106449500Y-36890500D01*
X106430593Y-36948691D01*
X106381093Y-36984655D01*
X106350500Y-36989500D01*
X106055139Y-36989500D01*
X106055136Y-36989501D01*
X106030009Y-36992414D01*
X105927235Y-37037794D01*
X105847794Y-37117235D01*
X105802414Y-37220011D01*
X105799500Y-37245130D01*
X105799500Y-39134860D01*
X105799501Y-39134863D01*
X105802414Y-39159990D01*
X105827756Y-39217385D01*
X105847794Y-39262765D01*
X105927235Y-39342206D01*
X106030009Y-39387585D01*
X106055135Y-39390500D01*
X106612597Y-39390499D01*
X106670786Y-39409406D01*
X106706750Y-39458906D01*
X106706750Y-39520092D01*
X106670786Y-39569592D01*
X106643188Y-39583653D01*
X106539174Y-39617449D01*
X106539171Y-39617451D01*
X106370803Y-39703238D01*
X106217928Y-39814309D01*
X106084309Y-39947928D01*
X105973238Y-40100803D01*
X105887453Y-40269167D01*
X105829058Y-40448886D01*
X105799500Y-40635515D01*
X105799500Y-40824484D01*
X105829058Y-41011113D01*
X105829060Y-41011118D01*
X105887453Y-41190832D01*
X105973240Y-41359199D01*
X106084310Y-41512073D01*
X106217927Y-41645690D01*
X106370801Y-41756760D01*
X106539168Y-41842547D01*
X106718882Y-41900940D01*
X106718883Y-41900940D01*
X106718886Y-41900941D01*
X106726954Y-41902219D01*
X106781471Y-41929996D01*
X106809248Y-41984513D01*
X106799677Y-42044945D01*
X106756412Y-42088210D01*
X106726954Y-42097781D01*
X106718886Y-42099058D01*
X106539167Y-42157453D01*
X106370803Y-42243238D01*
X106217928Y-42354309D01*
X106084309Y-42487928D01*
X105973237Y-42640804D01*
X105973233Y-42640811D01*
X105902373Y-42779882D01*
X105859109Y-42823147D01*
X105813284Y-42833933D01*
X104815977Y-42825069D01*
X104807838Y-42824500D01*
X104806018Y-42824500D01*
X104752308Y-42824500D01*
X104751428Y-42824496D01*
X104697646Y-42824017D01*
X104696299Y-42824195D01*
X104695441Y-42824304D01*
X104694097Y-42824468D01*
X104642061Y-42838411D01*
X104641213Y-42838634D01*
X104589171Y-42852084D01*
X104587929Y-42852599D01*
X104587138Y-42852923D01*
X104585871Y-42853434D01*
X104539257Y-42880346D01*
X104538497Y-42880780D01*
X104491656Y-42907272D01*
X104490565Y-42908110D01*
X104489877Y-42908633D01*
X104488829Y-42909422D01*
X104450788Y-42947462D01*
X104450167Y-42948078D01*
X104411754Y-42985816D01*
X104410898Y-42986932D01*
X104410366Y-42987619D01*
X104409578Y-42988626D01*
X104382681Y-43035211D01*
X104382241Y-43035965D01*
X104354906Y-43082356D01*
X104354392Y-43083598D01*
X104354056Y-43084401D01*
X104353528Y-43085642D01*
X104339624Y-43137534D01*
X104339394Y-43138379D01*
X104324978Y-43190334D01*
X104324803Y-43191667D01*
X104324684Y-43192545D01*
X104324500Y-43193852D01*
X104324500Y-43247699D01*
X104324496Y-43248580D01*
X104324002Y-43304065D01*
X104324500Y-43312204D01*
X104324500Y-87475500D01*
X104305593Y-87533691D01*
X104256093Y-87569655D01*
X104225500Y-87574500D01*
X73637429Y-87574500D01*
X73579238Y-87555593D01*
X73543274Y-87506093D01*
X73541950Y-87495504D01*
X72818899Y-86772453D01*
X72957780Y-86679657D01*
X73079657Y-86557780D01*
X73172453Y-86418899D01*
X73890769Y-87137215D01*
X73962355Y-87043922D01*
X74085244Y-86831072D01*
X74085246Y-86831067D01*
X74179300Y-86603997D01*
X74179304Y-86603984D01*
X74242918Y-86366576D01*
X74242918Y-86366571D01*
X74274999Y-86122894D01*
X74275000Y-86122893D01*
X74275000Y-85877107D01*
X74274999Y-85877105D01*
X74242918Y-85633428D01*
X74242918Y-85633423D01*
X74179304Y-85396015D01*
X74179300Y-85396002D01*
X74085246Y-85168932D01*
X74085244Y-85168927D01*
X73962352Y-84956073D01*
X73890768Y-84862783D01*
X73172452Y-85581098D01*
X73079657Y-85442220D01*
X72957780Y-85320343D01*
X72818898Y-85227545D01*
X73537215Y-84509229D01*
X73443926Y-84437647D01*
X73231072Y-84314755D01*
X73231067Y-84314753D01*
X73003997Y-84220699D01*
X73003984Y-84220695D01*
X72766574Y-84157081D01*
X72522894Y-84125000D01*
X72277105Y-84125000D01*
X72033428Y-84157081D01*
X72033423Y-84157081D01*
X71796015Y-84220695D01*
X71796002Y-84220699D01*
X71568932Y-84314753D01*
X71568927Y-84314755D01*
X71356078Y-84437644D01*
X71262783Y-84509229D01*
X71981100Y-85227546D01*
X71842220Y-85320343D01*
X71720343Y-85442220D01*
X71627546Y-85581100D01*
X70909229Y-84862783D01*
X70837644Y-84956078D01*
X70714755Y-85168927D01*
X70714753Y-85168932D01*
X70620699Y-85396002D01*
X70620695Y-85396015D01*
X70557081Y-85633423D01*
X70557081Y-85633428D01*
X70525000Y-85877105D01*
X70525000Y-86122894D01*
X70557081Y-86366571D01*
X70557081Y-86366576D01*
X70620695Y-86603984D01*
X70620699Y-86603997D01*
X70714753Y-86831067D01*
X70714755Y-86831072D01*
X70837647Y-87043926D01*
X70909229Y-87137215D01*
X71627545Y-86418898D01*
X71720343Y-86557780D01*
X71842220Y-86679657D01*
X71981099Y-86772452D01*
X71253470Y-87500082D01*
X71246298Y-87528326D01*
X71199257Y-87567451D01*
X71162570Y-87574500D01*
X68674338Y-87574500D01*
X68616147Y-87555593D01*
X68580183Y-87506093D01*
X68580183Y-87444907D01*
X68595454Y-87415681D01*
X68609361Y-87397342D01*
X68664877Y-87256564D01*
X68675500Y-87168102D01*
X68675500Y-84831898D01*
X68664877Y-84743436D01*
X68609361Y-84602658D01*
X68609360Y-84602656D01*
X68609359Y-84602655D01*
X68570616Y-84551565D01*
X68550521Y-84493774D01*
X68550500Y-84491746D01*
X68550500Y-80989450D01*
X77849500Y-80989450D01*
X77849500Y-81170549D01*
X77877828Y-81349406D01*
X77933788Y-81521637D01*
X77997754Y-81647178D01*
X78016004Y-81682994D01*
X78122447Y-81829501D01*
X78250499Y-81957553D01*
X78397006Y-82063996D01*
X78558361Y-82146211D01*
X78730591Y-82202171D01*
X78802136Y-82213502D01*
X78909451Y-82230500D01*
X78909454Y-82230500D01*
X79090549Y-82230500D01*
X79179977Y-82216335D01*
X79269409Y-82202171D01*
X79441639Y-82146211D01*
X79602994Y-82063996D01*
X79749501Y-81957553D01*
X79865475Y-81841579D01*
X99473100Y-81841579D01*
X99473100Y-82038420D01*
X99503889Y-82232821D01*
X99564716Y-82420025D01*
X99633406Y-82554839D01*
X99654076Y-82595405D01*
X99769772Y-82754646D01*
X99908954Y-82893828D01*
X100068195Y-83009524D01*
X100243575Y-83098884D01*
X100430774Y-83159709D01*
X100430775Y-83159709D01*
X100430778Y-83159710D01*
X100625180Y-83190500D01*
X100625183Y-83190500D01*
X100822020Y-83190500D01*
X101016421Y-83159710D01*
X101016422Y-83159709D01*
X101016426Y-83159709D01*
X101203625Y-83098884D01*
X101379005Y-83009524D01*
X101538246Y-82893828D01*
X101677428Y-82754646D01*
X101793124Y-82595405D01*
X101882484Y-82420025D01*
X101943309Y-82232826D01*
X101943310Y-82232821D01*
X101974100Y-82038420D01*
X101974100Y-81841579D01*
X101943310Y-81647178D01*
X101943309Y-81647174D01*
X101882484Y-81459975D01*
X101793124Y-81284595D01*
X101677428Y-81125354D01*
X101538246Y-80986172D01*
X101379005Y-80870476D01*
X101379004Y-80870475D01*
X101379002Y-80870474D01*
X101203625Y-80781116D01*
X101016421Y-80720289D01*
X100822020Y-80689500D01*
X100822017Y-80689500D01*
X100625183Y-80689500D01*
X100625180Y-80689500D01*
X100430778Y-80720289D01*
X100243574Y-80781116D01*
X100068197Y-80870474D01*
X99908955Y-80986171D01*
X99769771Y-81125355D01*
X99654074Y-81284597D01*
X99564716Y-81459974D01*
X99503889Y-81647178D01*
X99473100Y-81841579D01*
X79865475Y-81841579D01*
X79877553Y-81829501D01*
X79983996Y-81682994D01*
X80066211Y-81521639D01*
X80122171Y-81349409D01*
X80150500Y-81170546D01*
X80150500Y-80989454D01*
X80150500Y-80989450D01*
X80122171Y-80810593D01*
X80122171Y-80810591D01*
X80066211Y-80638361D01*
X79983996Y-80477006D01*
X79877553Y-80330499D01*
X79749501Y-80202447D01*
X79602994Y-80096004D01*
X79602993Y-80096003D01*
X79602991Y-80096002D01*
X79441637Y-80013788D01*
X79269406Y-79957828D01*
X79090549Y-79929500D01*
X79090546Y-79929500D01*
X78909454Y-79929500D01*
X78909451Y-79929500D01*
X78730593Y-79957828D01*
X78558362Y-80013788D01*
X78397008Y-80096002D01*
X78323752Y-80149225D01*
X78250499Y-80202447D01*
X78122447Y-80330499D01*
X78069225Y-80403752D01*
X78016002Y-80477008D01*
X77933788Y-80638362D01*
X77877828Y-80810593D01*
X77849500Y-80989450D01*
X68550500Y-80989450D01*
X68550500Y-78449450D01*
X77849500Y-78449450D01*
X77849500Y-78630549D01*
X77877828Y-78809406D01*
X77933788Y-78981637D01*
X77995862Y-79103465D01*
X78016004Y-79142994D01*
X78122447Y-79289501D01*
X78250499Y-79417553D01*
X78397006Y-79523996D01*
X78558361Y-79606211D01*
X78730591Y-79662171D01*
X78802136Y-79673502D01*
X78909451Y-79690500D01*
X78909454Y-79690500D01*
X79090549Y-79690500D01*
X79179977Y-79676335D01*
X79269409Y-79662171D01*
X79441639Y-79606211D01*
X79602994Y-79523996D01*
X79749501Y-79417553D01*
X79877553Y-79289501D01*
X79983996Y-79142994D01*
X80066211Y-78981639D01*
X80122171Y-78809409D01*
X80131740Y-78748993D01*
X80150500Y-78630549D01*
X80150500Y-78449450D01*
X80134919Y-78351078D01*
X80127779Y-78305999D01*
X99746368Y-78305999D01*
X99746369Y-78306000D01*
X100640588Y-78306000D01*
X100607675Y-78363007D01*
X100573600Y-78490174D01*
X100573600Y-78621826D01*
X100607675Y-78748993D01*
X100640588Y-78806000D01*
X99746369Y-78806000D01*
X99756841Y-78872122D01*
X99822504Y-79074215D01*
X99918975Y-79263552D01*
X100043877Y-79435464D01*
X100194135Y-79585722D01*
X100366047Y-79710624D01*
X100555384Y-79807095D01*
X100757477Y-79872758D01*
X100823599Y-79883231D01*
X100823600Y-79883230D01*
X100823600Y-78989012D01*
X100880607Y-79021925D01*
X101007774Y-79056000D01*
X101139426Y-79056000D01*
X101266593Y-79021925D01*
X101323600Y-78989012D01*
X101323600Y-79883231D01*
X101389722Y-79872758D01*
X101591815Y-79807095D01*
X101781152Y-79710624D01*
X101953064Y-79585722D01*
X102103322Y-79435464D01*
X102228224Y-79263552D01*
X102324695Y-79074215D01*
X102390358Y-78872122D01*
X102400831Y-78806000D01*
X101506612Y-78806000D01*
X101539525Y-78748993D01*
X101573600Y-78621826D01*
X101573600Y-78490174D01*
X101539525Y-78363007D01*
X101506612Y-78306000D01*
X102400831Y-78306000D01*
X102400831Y-78305999D01*
X102390358Y-78239877D01*
X102324695Y-78037784D01*
X102228224Y-77848447D01*
X102103322Y-77676535D01*
X101953064Y-77526277D01*
X101781152Y-77401375D01*
X101591815Y-77304904D01*
X101500615Y-77275272D01*
X101451115Y-77239308D01*
X101432208Y-77181117D01*
X101451115Y-77122926D01*
X101500613Y-77086962D01*
X101500617Y-77086962D01*
X101500618Y-77086962D01*
X101515233Y-77082213D01*
X101515233Y-77082212D01*
X101515239Y-77082211D01*
X101676594Y-76999996D01*
X101823101Y-76893553D01*
X101951153Y-76765501D01*
X102057596Y-76618994D01*
X102139811Y-76457639D01*
X102195771Y-76285409D01*
X102224100Y-76106546D01*
X102224100Y-75925454D01*
X102224100Y-75925450D01*
X102195771Y-75746593D01*
X102195771Y-75746591D01*
X102139811Y-75574361D01*
X102057596Y-75413006D01*
X101951153Y-75266499D01*
X101823101Y-75138447D01*
X101676594Y-75032004D01*
X101676593Y-75032003D01*
X101676591Y-75032002D01*
X101515237Y-74949788D01*
X101343006Y-74893828D01*
X101164149Y-74865500D01*
X101164146Y-74865500D01*
X100983054Y-74865500D01*
X100983051Y-74865500D01*
X100804193Y-74893828D01*
X100631962Y-74949788D01*
X100470608Y-75032002D01*
X100445148Y-75050500D01*
X100324099Y-75138447D01*
X100196047Y-75266499D01*
X100179063Y-75289876D01*
X100089602Y-75413008D01*
X100007388Y-75574362D01*
X99951428Y-75746593D01*
X99923100Y-75925450D01*
X99923100Y-76106549D01*
X99951428Y-76285406D01*
X100007388Y-76457637D01*
X100081692Y-76603467D01*
X100089604Y-76618994D01*
X100196047Y-76765501D01*
X100324099Y-76893553D01*
X100470606Y-76999996D01*
X100631961Y-77082211D01*
X100643083Y-77085824D01*
X100646583Y-77086962D01*
X100696083Y-77122926D01*
X100714991Y-77181116D01*
X100696084Y-77239307D01*
X100646585Y-77275271D01*
X100646584Y-77275272D01*
X100555384Y-77304904D01*
X100366047Y-77401375D01*
X100194135Y-77526277D01*
X100043877Y-77676535D01*
X99918975Y-77848447D01*
X99822504Y-78037784D01*
X99756841Y-78239877D01*
X99746368Y-78305999D01*
X80127779Y-78305999D01*
X80122171Y-78270593D01*
X80122171Y-78270591D01*
X80066211Y-78098361D01*
X79983996Y-77937006D01*
X79877553Y-77790499D01*
X79749501Y-77662447D01*
X79602994Y-77556004D01*
X79602993Y-77556003D01*
X79602991Y-77556002D01*
X79441637Y-77473788D01*
X79269406Y-77417828D01*
X79090549Y-77389500D01*
X79090546Y-77389500D01*
X78909454Y-77389500D01*
X78909451Y-77389500D01*
X78730593Y-77417828D01*
X78558362Y-77473788D01*
X78397008Y-77556002D01*
X78323752Y-77609225D01*
X78250499Y-77662447D01*
X78122447Y-77790499D01*
X78080346Y-77848447D01*
X78016002Y-77937008D01*
X77933788Y-78098362D01*
X77877828Y-78270593D01*
X77849500Y-78449450D01*
X68550500Y-78449450D01*
X68550500Y-75909450D01*
X77849500Y-75909450D01*
X77849500Y-76090549D01*
X77877828Y-76269406D01*
X77877829Y-76269409D01*
X77933789Y-76441639D01*
X78016004Y-76602994D01*
X78122447Y-76749501D01*
X78250499Y-76877553D01*
X78397006Y-76983996D01*
X78558361Y-77066211D01*
X78730591Y-77122171D01*
X78802136Y-77133502D01*
X78909451Y-77150500D01*
X78909454Y-77150500D01*
X79090549Y-77150500D01*
X79179977Y-77136335D01*
X79269409Y-77122171D01*
X79441639Y-77066211D01*
X79602994Y-76983996D01*
X79749501Y-76877553D01*
X79877553Y-76749501D01*
X79983996Y-76602994D01*
X80066211Y-76441639D01*
X80122171Y-76269409D01*
X80136335Y-76179977D01*
X80150500Y-76090549D01*
X80150500Y-75909450D01*
X80122171Y-75730593D01*
X80122171Y-75730591D01*
X80066211Y-75558361D01*
X79983996Y-75397006D01*
X79877553Y-75250499D01*
X79749501Y-75122447D01*
X79602994Y-75016004D01*
X79602993Y-75016003D01*
X79602991Y-75016002D01*
X79441637Y-74933788D01*
X79269406Y-74877828D01*
X79090549Y-74849500D01*
X79090546Y-74849500D01*
X78909454Y-74849500D01*
X78909451Y-74849500D01*
X78730593Y-74877828D01*
X78558362Y-74933788D01*
X78397008Y-75016002D01*
X78349527Y-75050499D01*
X78250499Y-75122447D01*
X78122447Y-75250499D01*
X78072383Y-75319407D01*
X78016002Y-75397008D01*
X77933788Y-75558362D01*
X77877828Y-75730593D01*
X77849500Y-75909450D01*
X68550500Y-75909450D01*
X68550500Y-75393266D01*
X68569407Y-75335075D01*
X68618907Y-75299111D01*
X68634009Y-75295485D01*
X68735948Y-75279340D01*
X68804529Y-75268478D01*
X68804530Y-75268477D01*
X68804534Y-75268477D01*
X68999219Y-75205220D01*
X69181610Y-75112287D01*
X69347219Y-74991966D01*
X69491966Y-74847219D01*
X69612287Y-74681610D01*
X69705220Y-74499219D01*
X69768477Y-74304534D01*
X69800306Y-74103579D01*
X69800500Y-74102355D01*
X69800500Y-73369450D01*
X77849500Y-73369450D01*
X77849500Y-73550549D01*
X77877828Y-73729406D01*
X77933788Y-73901637D01*
X77969543Y-73971811D01*
X78016004Y-74062994D01*
X78122447Y-74209501D01*
X78250499Y-74337553D01*
X78397006Y-74443996D01*
X78558361Y-74526211D01*
X78730591Y-74582171D01*
X78802136Y-74593502D01*
X78909451Y-74610500D01*
X78909454Y-74610500D01*
X79090549Y-74610500D01*
X79179977Y-74596335D01*
X79269409Y-74582171D01*
X79441639Y-74526211D01*
X79602994Y-74443996D01*
X79749501Y-74337553D01*
X79877553Y-74209501D01*
X79983996Y-74062994D01*
X80066211Y-73901639D01*
X80122171Y-73729409D01*
X80137230Y-73634327D01*
X80150500Y-73550549D01*
X80150500Y-73385450D01*
X99923100Y-73385450D01*
X99923100Y-73566549D01*
X99951428Y-73745406D01*
X100007388Y-73917637D01*
X100081451Y-74062994D01*
X100089604Y-74078994D01*
X100196047Y-74225501D01*
X100324099Y-74353553D01*
X100470606Y-74459996D01*
X100631961Y-74542211D01*
X100804191Y-74598171D01*
X100875736Y-74609502D01*
X100983051Y-74626500D01*
X100983054Y-74626500D01*
X101164149Y-74626500D01*
X101265166Y-74610500D01*
X101343009Y-74598171D01*
X101515239Y-74542211D01*
X101676594Y-74459996D01*
X101823101Y-74353553D01*
X101951153Y-74225501D01*
X102057596Y-74078994D01*
X102139811Y-73917639D01*
X102195771Y-73745409D01*
X102213364Y-73634329D01*
X102224100Y-73566549D01*
X102224100Y-73385450D01*
X102198793Y-73225670D01*
X102195771Y-73206591D01*
X102139811Y-73034361D01*
X102057596Y-72873006D01*
X101951153Y-72726499D01*
X101823101Y-72598447D01*
X101676594Y-72492004D01*
X101676593Y-72492003D01*
X101676591Y-72492002D01*
X101515237Y-72409788D01*
X101343006Y-72353828D01*
X101164149Y-72325500D01*
X101164146Y-72325500D01*
X100983054Y-72325500D01*
X100983051Y-72325500D01*
X100804193Y-72353828D01*
X100631962Y-72409788D01*
X100470608Y-72492002D01*
X100397352Y-72545225D01*
X100324099Y-72598447D01*
X100196047Y-72726499D01*
X100167610Y-72765640D01*
X100089602Y-72873008D01*
X100007388Y-73034362D01*
X99951428Y-73206593D01*
X99923100Y-73385450D01*
X80150500Y-73385450D01*
X80150500Y-73369450D01*
X80131614Y-73250212D01*
X80122171Y-73190591D01*
X80066211Y-73018361D01*
X79983996Y-72857006D01*
X79877553Y-72710499D01*
X79749501Y-72582447D01*
X79602994Y-72476004D01*
X79602993Y-72476003D01*
X79602991Y-72476002D01*
X79441637Y-72393788D01*
X79269406Y-72337828D01*
X79090549Y-72309500D01*
X79090546Y-72309500D01*
X78909454Y-72309500D01*
X78909451Y-72309500D01*
X78730593Y-72337828D01*
X78558362Y-72393788D01*
X78397008Y-72476002D01*
X78350035Y-72510130D01*
X78250499Y-72582447D01*
X78122447Y-72710499D01*
X78082387Y-72765637D01*
X78016002Y-72857008D01*
X77933788Y-73018362D01*
X77877828Y-73190593D01*
X77849500Y-73369450D01*
X69800500Y-73369450D01*
X69800500Y-70829450D01*
X77849500Y-70829450D01*
X77849500Y-71010549D01*
X77877828Y-71189406D01*
X77933788Y-71361637D01*
X77971520Y-71435691D01*
X78016004Y-71522994D01*
X78122447Y-71669501D01*
X78250499Y-71797553D01*
X78397006Y-71903996D01*
X78558361Y-71986211D01*
X78730591Y-72042171D01*
X78802136Y-72053502D01*
X78909451Y-72070500D01*
X78909454Y-72070500D01*
X79090549Y-72070500D01*
X79179977Y-72056335D01*
X79269409Y-72042171D01*
X79441639Y-71986211D01*
X79602994Y-71903996D01*
X79749501Y-71797553D01*
X79877553Y-71669501D01*
X79983996Y-71522994D01*
X80066211Y-71361639D01*
X80122171Y-71189409D01*
X80136335Y-71099977D01*
X80150500Y-71010549D01*
X80150500Y-70829450D01*
X80127466Y-70684023D01*
X80122171Y-70650591D01*
X80066211Y-70478361D01*
X79983996Y-70317006D01*
X79877553Y-70170499D01*
X79749501Y-70042447D01*
X79602994Y-69936004D01*
X79602993Y-69936003D01*
X79602991Y-69936002D01*
X79441637Y-69853788D01*
X79269406Y-69797828D01*
X79090549Y-69769500D01*
X79090546Y-69769500D01*
X78909454Y-69769500D01*
X78909451Y-69769500D01*
X78730593Y-69797828D01*
X78558362Y-69853788D01*
X78397008Y-69936002D01*
X78323752Y-69989225D01*
X78250499Y-70042447D01*
X78122447Y-70170499D01*
X78069225Y-70243752D01*
X78016002Y-70317008D01*
X77933788Y-70478362D01*
X77877828Y-70650593D01*
X77849500Y-70829450D01*
X69800500Y-70829450D01*
X69800500Y-67485130D01*
X77849500Y-67485130D01*
X77849500Y-69274860D01*
X77849501Y-69274863D01*
X77852414Y-69299990D01*
X77873266Y-69347214D01*
X77897794Y-69402765D01*
X77977235Y-69482206D01*
X78080009Y-69527585D01*
X78105135Y-69530500D01*
X79894864Y-69530499D01*
X79919991Y-69527585D01*
X80022765Y-69482206D01*
X80102206Y-69402765D01*
X80147585Y-69299991D01*
X80150500Y-69274865D01*
X80150499Y-67485136D01*
X80147585Y-67460009D01*
X80102206Y-67357235D01*
X80022765Y-67277794D01*
X79919991Y-67232415D01*
X79919990Y-67232414D01*
X79919988Y-67232414D01*
X79894868Y-67229500D01*
X78105139Y-67229500D01*
X78105136Y-67229501D01*
X78080009Y-67232414D01*
X77977235Y-67277794D01*
X77897794Y-67357235D01*
X77852414Y-67460011D01*
X77849500Y-67485130D01*
X69800500Y-67485130D01*
X69800500Y-65149500D01*
X69819407Y-65091309D01*
X69868907Y-65055345D01*
X69899500Y-65050500D01*
X97350500Y-65050500D01*
X97408691Y-65069407D01*
X97444655Y-65118907D01*
X97449500Y-65149500D01*
X97449500Y-68420143D01*
X97448857Y-68431406D01*
X97446299Y-68453741D01*
X97446298Y-68453753D01*
X97449408Y-68525876D01*
X97449500Y-68530140D01*
X97449500Y-68602353D01*
X97453018Y-68624564D01*
X97454145Y-68635789D01*
X97455113Y-68658258D01*
X97469471Y-68729038D01*
X97470228Y-68733229D01*
X97481524Y-68804539D01*
X97481525Y-68804542D01*
X97488473Y-68825927D01*
X97491341Y-68836832D01*
X97495813Y-68858876D01*
X97521063Y-68926526D01*
X97522467Y-68930551D01*
X97544775Y-68999209D01*
X97544778Y-68999215D01*
X97554991Y-69019261D01*
X97559527Y-69029579D01*
X97567391Y-69050647D01*
X97567401Y-69050668D01*
X97602912Y-69113514D01*
X97604929Y-69117270D01*
X97625919Y-69158463D01*
X97637713Y-69181610D01*
X97650934Y-69199808D01*
X97657027Y-69209287D01*
X97668095Y-69228874D01*
X97668099Y-69228881D01*
X97713026Y-69285427D01*
X97715606Y-69288822D01*
X97758030Y-69347214D01*
X97758036Y-69347221D01*
X97773935Y-69363121D01*
X97781441Y-69371535D01*
X97795438Y-69389151D01*
X97848640Y-69437956D01*
X97851719Y-69440905D01*
X97902779Y-69491964D01*
X97902780Y-69491965D01*
X97920973Y-69505183D01*
X97929706Y-69512323D01*
X97946280Y-69527527D01*
X97946282Y-69527528D01*
X97946284Y-69527530D01*
X97950766Y-69530500D01*
X98006478Y-69567419D01*
X98009981Y-69569851D01*
X98068385Y-69612284D01*
X98068387Y-69612285D01*
X98068390Y-69612287D01*
X98088437Y-69622501D01*
X98098169Y-69628181D01*
X98116911Y-69640602D01*
X98116915Y-69640604D01*
X98116921Y-69640608D01*
X98182601Y-69670584D01*
X98186440Y-69672436D01*
X98250781Y-69705220D01*
X98272175Y-69712170D01*
X98282680Y-69716259D01*
X98290545Y-69719849D01*
X98303137Y-69725597D01*
X98303140Y-69725597D01*
X98303145Y-69725600D01*
X98372728Y-69744939D01*
X98376777Y-69746158D01*
X98445466Y-69768477D01*
X98467690Y-69771997D01*
X98478696Y-69774390D01*
X98500374Y-69780415D01*
X98572172Y-69788635D01*
X98576280Y-69789196D01*
X98638597Y-69799066D01*
X98647647Y-69800500D01*
X98647648Y-69800500D01*
X98670143Y-69800500D01*
X98681405Y-69801142D01*
X98703747Y-69803701D01*
X98703750Y-69803700D01*
X98703753Y-69803701D01*
X98769261Y-69800877D01*
X98775876Y-69800591D01*
X98780139Y-69800500D01*
X98852347Y-69800500D01*
X98852352Y-69800500D01*
X98874582Y-69796978D01*
X98885783Y-69795854D01*
X100496912Y-69726409D01*
X100555862Y-69742793D01*
X100593924Y-69790698D01*
X100596559Y-69851827D01*
X100562760Y-69902830D01*
X100546120Y-69913526D01*
X100470611Y-69952000D01*
X100470609Y-69952001D01*
X100390602Y-70010130D01*
X100324099Y-70058447D01*
X100196047Y-70186499D01*
X100142825Y-70259752D01*
X100089602Y-70333008D01*
X100007388Y-70494362D01*
X99951428Y-70666593D01*
X99923100Y-70845450D01*
X99923100Y-71026549D01*
X99951428Y-71205406D01*
X100007388Y-71377637D01*
X100081451Y-71522994D01*
X100089604Y-71538994D01*
X100196047Y-71685501D01*
X100324099Y-71813553D01*
X100470606Y-71919996D01*
X100631961Y-72002211D01*
X100804191Y-72058171D01*
X100875736Y-72069502D01*
X100983051Y-72086500D01*
X100983054Y-72086500D01*
X101164149Y-72086500D01*
X101265166Y-72070500D01*
X101343009Y-72058171D01*
X101515239Y-72002211D01*
X101676594Y-71919996D01*
X101823101Y-71813553D01*
X101951153Y-71685501D01*
X102057596Y-71538994D01*
X102139811Y-71377639D01*
X102195771Y-71205409D01*
X102224100Y-71026546D01*
X102224100Y-70845454D01*
X102224100Y-70845450D01*
X102195771Y-70666593D01*
X102195771Y-70666591D01*
X102139811Y-70494361D01*
X102057596Y-70333006D01*
X101951153Y-70186499D01*
X101823101Y-70058447D01*
X101676594Y-69952004D01*
X101676593Y-69952003D01*
X101676591Y-69952002D01*
X101515237Y-69869788D01*
X101430115Y-69842131D01*
X101380615Y-69806167D01*
X101361707Y-69747977D01*
X101380614Y-69689786D01*
X101426089Y-69655226D01*
X101428874Y-69654186D01*
X101428876Y-69654186D01*
X101620657Y-69582604D01*
X101798876Y-69481903D01*
X101959150Y-69354562D01*
X101965885Y-69347221D01*
X102032265Y-69274860D01*
X102097530Y-69203716D01*
X102210607Y-69033079D01*
X102295600Y-68846855D01*
X102350414Y-68649626D01*
X102351999Y-68635789D01*
X102372843Y-68453747D01*
X102373701Y-68446253D01*
X102364886Y-68241739D01*
X102324186Y-68041123D01*
X102252604Y-67849343D01*
X102210679Y-67775145D01*
X102151907Y-67671129D01*
X102151905Y-67671127D01*
X102151903Y-67671123D01*
X102024561Y-67510849D01*
X101996535Y-67485139D01*
X101873714Y-67372468D01*
X101703092Y-67259400D01*
X101703084Y-67259395D01*
X101703079Y-67259392D01*
X101703075Y-67259390D01*
X101703073Y-67259389D01*
X101628363Y-67225292D01*
X101563221Y-67195561D01*
X101518135Y-67154201D01*
X101505970Y-67094237D01*
X101531374Y-67038575D01*
X101584643Y-67008476D01*
X101604324Y-67006499D01*
X101968464Y-67006499D01*
X101993591Y-67003585D01*
X102096365Y-66958206D01*
X102175806Y-66878765D01*
X102221185Y-66775991D01*
X102224100Y-66750865D01*
X102224099Y-64961136D01*
X102221185Y-64936009D01*
X102175806Y-64833235D01*
X102096365Y-64753794D01*
X101993591Y-64708415D01*
X101993590Y-64708414D01*
X101993588Y-64708414D01*
X101968468Y-64705500D01*
X100178739Y-64705500D01*
X100178736Y-64705501D01*
X100160904Y-64707569D01*
X100100922Y-64695490D01*
X100059496Y-64650463D01*
X100050500Y-64609228D01*
X100050500Y-63647644D01*
X100018478Y-63445470D01*
X100018477Y-63445466D01*
X99955220Y-63250781D01*
X99862287Y-63068390D01*
X99862285Y-63068386D01*
X99741970Y-62902786D01*
X99741968Y-62902784D01*
X99741966Y-62902781D01*
X99597219Y-62758034D01*
X99597215Y-62758031D01*
X99597213Y-62758029D01*
X99431613Y-62637714D01*
X99431609Y-62637712D01*
X99249219Y-62544780D01*
X99054529Y-62481521D01*
X98852355Y-62449500D01*
X98852352Y-62449500D01*
X68602352Y-62449500D01*
X68397648Y-62449500D01*
X68397645Y-62449500D01*
X68195470Y-62481521D01*
X68000780Y-62544780D01*
X67818390Y-62637712D01*
X67818386Y-62637714D01*
X67652786Y-62758029D01*
X67508029Y-62902786D01*
X67387714Y-63068386D01*
X67387712Y-63068390D01*
X67294780Y-63250780D01*
X67231521Y-63445470D01*
X67199500Y-63647644D01*
X67199500Y-72600500D01*
X67180593Y-72658691D01*
X67131093Y-72694655D01*
X67100500Y-72699500D01*
X65206893Y-72699500D01*
X65118434Y-72710123D01*
X64977660Y-72765637D01*
X64977656Y-72765640D01*
X64857081Y-72857075D01*
X64857075Y-72857081D01*
X64765640Y-72977656D01*
X64765637Y-72977660D01*
X64710123Y-73118434D01*
X64699500Y-73206893D01*
X64699500Y-74793106D01*
X64710123Y-74881565D01*
X64765637Y-75022339D01*
X64765638Y-75022341D01*
X64765639Y-75022342D01*
X64857078Y-75142922D01*
X64977658Y-75234361D01*
X64977659Y-75234361D01*
X64977660Y-75234362D01*
X65018576Y-75250497D01*
X65118436Y-75289877D01*
X65206898Y-75300500D01*
X65850500Y-75300500D01*
X65908691Y-75319407D01*
X65944655Y-75368907D01*
X65949500Y-75399500D01*
X65949500Y-84225500D01*
X65930593Y-84283691D01*
X65881093Y-84319655D01*
X65850500Y-84324500D01*
X65831893Y-84324500D01*
X65743434Y-84335123D01*
X65602660Y-84390637D01*
X65602656Y-84390640D01*
X65482081Y-84482075D01*
X65482075Y-84482081D01*
X65390640Y-84602656D01*
X65390637Y-84602660D01*
X65335123Y-84743434D01*
X65324500Y-84831893D01*
X65324500Y-87168106D01*
X65335123Y-87256565D01*
X65390637Y-87397339D01*
X65390640Y-87397343D01*
X65404546Y-87415681D01*
X65424641Y-87473472D01*
X65406930Y-87532038D01*
X65358177Y-87569008D01*
X65325662Y-87574500D01*
X59637429Y-87574500D01*
X59579238Y-87555593D01*
X59543274Y-87506093D01*
X59541950Y-87495504D01*
X58818899Y-86772453D01*
X58957780Y-86679657D01*
X59079657Y-86557780D01*
X59172453Y-86418899D01*
X59890769Y-87137215D01*
X59962355Y-87043922D01*
X60085244Y-86831072D01*
X60085246Y-86831067D01*
X60179300Y-86603997D01*
X60179304Y-86603984D01*
X60242918Y-86366576D01*
X60242918Y-86366571D01*
X60274999Y-86122894D01*
X60275000Y-86122893D01*
X60275000Y-85877107D01*
X60274999Y-85877105D01*
X60242918Y-85633428D01*
X60242918Y-85633423D01*
X60179304Y-85396015D01*
X60179300Y-85396002D01*
X60085246Y-85168932D01*
X60085244Y-85168927D01*
X59962352Y-84956073D01*
X59890768Y-84862783D01*
X59172452Y-85581098D01*
X59079657Y-85442220D01*
X58957780Y-85320343D01*
X58818898Y-85227545D01*
X59537215Y-84509229D01*
X59443926Y-84437647D01*
X59231072Y-84314755D01*
X59231067Y-84314753D01*
X59003997Y-84220699D01*
X59003984Y-84220695D01*
X58766574Y-84157081D01*
X58522894Y-84125000D01*
X58277105Y-84125000D01*
X58033428Y-84157081D01*
X58033423Y-84157081D01*
X57796015Y-84220695D01*
X57796002Y-84220699D01*
X57568932Y-84314753D01*
X57568927Y-84314755D01*
X57356078Y-84437644D01*
X57262783Y-84509229D01*
X57981100Y-85227546D01*
X57842220Y-85320343D01*
X57720343Y-85442220D01*
X57627546Y-85581100D01*
X56909229Y-84862783D01*
X56837644Y-84956078D01*
X56714755Y-85168927D01*
X56714753Y-85168932D01*
X56620699Y-85396002D01*
X56620695Y-85396015D01*
X56557081Y-85633423D01*
X56557081Y-85633428D01*
X56525000Y-85877105D01*
X56525000Y-86122894D01*
X56557081Y-86366571D01*
X56557081Y-86366576D01*
X56620695Y-86603984D01*
X56620699Y-86603997D01*
X56714753Y-86831067D01*
X56714755Y-86831072D01*
X56837647Y-87043926D01*
X56909229Y-87137215D01*
X57627545Y-86418898D01*
X57720343Y-86557780D01*
X57842220Y-86679657D01*
X57981099Y-86772452D01*
X57253470Y-87500082D01*
X57246298Y-87528326D01*
X57199257Y-87567451D01*
X57162570Y-87574500D01*
X54674338Y-87574500D01*
X54616147Y-87555593D01*
X54580183Y-87506093D01*
X54580183Y-87444907D01*
X54595454Y-87415681D01*
X54609361Y-87397342D01*
X54664877Y-87256564D01*
X54675500Y-87168102D01*
X54675500Y-85497586D01*
X54694407Y-85439395D01*
X54704496Y-85427582D01*
X55654567Y-84477511D01*
X56354816Y-83777262D01*
X57145789Y-82986289D01*
X57233394Y-82855179D01*
X57293738Y-82709497D01*
X57324500Y-82554842D01*
X57324500Y-82397157D01*
X57324500Y-28445158D01*
X57293737Y-28290503D01*
X57233394Y-28144821D01*
X57233390Y-28144813D01*
X57201271Y-28096745D01*
X57161737Y-28037579D01*
X57145789Y-28013711D01*
X57034289Y-27902211D01*
X56129496Y-26997418D01*
X56125869Y-26990300D01*
X56119407Y-26985605D01*
X56112243Y-26963556D01*
X56101719Y-26942901D01*
X56100500Y-26927414D01*
X56100500Y-26897684D01*
X57200000Y-26897684D01*
X57200000Y-27102315D01*
X57232008Y-27304412D01*
X57295243Y-27499027D01*
X57388139Y-27681348D01*
X57388143Y-27681353D01*
X57420523Y-27725920D01*
X57420524Y-27725920D01*
X58100000Y-27046444D01*
X58100000Y-27052661D01*
X58127259Y-27154394D01*
X58179920Y-27245606D01*
X58254394Y-27320080D01*
X58345606Y-27372741D01*
X58447339Y-27400000D01*
X58453553Y-27400000D01*
X57774078Y-28079475D01*
X57818647Y-28111858D01*
X58000972Y-28204756D01*
X58195587Y-28267991D01*
X58397685Y-28300000D01*
X58602315Y-28300000D01*
X58804412Y-28267991D01*
X58999027Y-28204756D01*
X59181342Y-28111863D01*
X59181350Y-28111858D01*
X59225920Y-28079475D01*
X58546445Y-27400000D01*
X58552661Y-27400000D01*
X58654394Y-27372741D01*
X58745606Y-27320080D01*
X58820080Y-27245606D01*
X58872741Y-27154394D01*
X58900000Y-27052661D01*
X58900000Y-27046445D01*
X59579475Y-27725920D01*
X59611858Y-27681350D01*
X59611863Y-27681342D01*
X59704756Y-27499027D01*
X59767991Y-27304412D01*
X59800000Y-27102315D01*
X59800000Y-26897684D01*
X59767991Y-26695587D01*
X59704756Y-26500972D01*
X59611858Y-26318647D01*
X59579475Y-26274078D01*
X58900000Y-26953553D01*
X58900000Y-26947339D01*
X58872741Y-26845606D01*
X58820080Y-26754394D01*
X58745606Y-26679920D01*
X58654394Y-26627259D01*
X58552661Y-26600000D01*
X58546445Y-26600000D01*
X59225920Y-25920524D01*
X59225920Y-25920523D01*
X59181353Y-25888143D01*
X59181348Y-25888139D01*
X58999027Y-25795243D01*
X58804412Y-25732008D01*
X58602315Y-25700000D01*
X58397685Y-25700000D01*
X58195587Y-25732008D01*
X58000972Y-25795243D01*
X57818651Y-25888139D01*
X57818647Y-25888141D01*
X57774078Y-25920523D01*
X58453555Y-26600000D01*
X58447339Y-26600000D01*
X58345606Y-26627259D01*
X58254394Y-26679920D01*
X58179920Y-26754394D01*
X58127259Y-26845606D01*
X58100000Y-26947339D01*
X58100000Y-26953555D01*
X57420523Y-26274078D01*
X57388141Y-26318647D01*
X57388139Y-26318651D01*
X57295243Y-26500972D01*
X57232008Y-26695587D01*
X57200000Y-26897684D01*
X56100500Y-26897684D01*
X56100500Y-26406899D01*
X56100499Y-26406893D01*
X56089877Y-26318436D01*
X56034361Y-26177658D01*
X55942922Y-26057078D01*
X55822342Y-25965639D01*
X55822341Y-25965638D01*
X55822339Y-25965637D01*
X55681565Y-25910123D01*
X55593106Y-25899500D01*
X55593102Y-25899500D01*
X54406898Y-25899500D01*
X54406893Y-25899500D01*
X54333179Y-25908352D01*
X54318436Y-25910123D01*
X54185818Y-25962421D01*
X54124749Y-25966179D01*
X54073133Y-25933324D01*
X54050687Y-25876404D01*
X54050500Y-25870323D01*
X54050500Y-25149500D01*
X54069407Y-25091309D01*
X54118907Y-25055345D01*
X54149500Y-25050500D01*
X106350500Y-25050500D01*
X106408691Y-25069407D01*
G37*
%TD.AperFunction*%
%TA.AperFunction,Conductor*%
G36*
X54018248Y-61444407D02*
G01*
X54051521Y-61486615D01*
X54058423Y-61503279D01*
X54160176Y-61655565D01*
X54174702Y-61677304D01*
X54322696Y-61825298D01*
X54496718Y-61941575D01*
X54690080Y-62021669D01*
X54895353Y-62062500D01*
X54895354Y-62062500D01*
X55104646Y-62062500D01*
X55104647Y-62062500D01*
X55309920Y-62021669D01*
X55503282Y-61941575D01*
X55569498Y-61897330D01*
X55628387Y-61880722D01*
X55685790Y-61901900D01*
X55719783Y-61952773D01*
X55723500Y-61979646D01*
X55723500Y-82103414D01*
X55704593Y-82161605D01*
X55694504Y-82173418D01*
X53572418Y-84295504D01*
X53517901Y-84323281D01*
X53502414Y-84324500D01*
X51831893Y-84324500D01*
X51786304Y-84329975D01*
X51726274Y-84318140D01*
X51684665Y-84273281D01*
X51675500Y-84231681D01*
X51675500Y-62057572D01*
X51676981Y-62044084D01*
X51676950Y-62044082D01*
X51677519Y-62037616D01*
X51675592Y-61992962D01*
X51675500Y-61988694D01*
X51675500Y-61943979D01*
X51674653Y-61937545D01*
X51674683Y-61937540D01*
X51673844Y-61932080D01*
X51673814Y-61932086D01*
X51672689Y-61925689D01*
X51659266Y-61883041D01*
X51658072Y-61878940D01*
X51646504Y-61835764D01*
X51644021Y-61829770D01*
X51644049Y-61829758D01*
X51641820Y-61824690D01*
X51641793Y-61824703D01*
X51639054Y-61818822D01*
X51631162Y-61806420D01*
X51615040Y-61781086D01*
X51612852Y-61777479D01*
X51590485Y-61738737D01*
X51590481Y-61738733D01*
X51590479Y-61738729D01*
X51586534Y-61733587D01*
X51586557Y-61733569D01*
X51583094Y-61729251D01*
X51583071Y-61729271D01*
X51578903Y-61724299D01*
X51545970Y-61694091D01*
X51542887Y-61691139D01*
X51511263Y-61659515D01*
X51506114Y-61655565D01*
X51506132Y-61655540D01*
X51501667Y-61652264D01*
X51501650Y-61652290D01*
X51496333Y-61648563D01*
X51456698Y-61627904D01*
X51452969Y-61625858D01*
X51425910Y-61610236D01*
X51384970Y-61564769D01*
X51378573Y-61503919D01*
X51409164Y-61450931D01*
X51465059Y-61426043D01*
X51475410Y-61425500D01*
X53960057Y-61425500D01*
X54018248Y-61444407D01*
G37*
%TD.AperFunction*%
%TA.AperFunction,Conductor*%
G36*
X27459191Y-20519407D02*
G01*
X27495155Y-20568907D01*
X27500000Y-20599500D01*
X27500000Y-33500000D01*
X27500001Y-33500000D01*
X45499999Y-33500000D01*
X45500000Y-33500000D01*
X45500000Y-20599500D01*
X45518907Y-20541309D01*
X45568407Y-20505345D01*
X45599000Y-20500500D01*
X111934108Y-20500500D01*
X111997015Y-20500500D01*
X112002992Y-20500681D01*
X112295309Y-20518362D01*
X112307164Y-20519802D01*
X112592280Y-20572051D01*
X112603882Y-20574911D01*
X112880623Y-20661147D01*
X112891786Y-20665380D01*
X113152200Y-20782583D01*
X113156118Y-20784347D01*
X113166690Y-20789895D01*
X113414770Y-20939864D01*
X113424583Y-20946638D01*
X113652755Y-21125400D01*
X113661704Y-21133327D01*
X113866672Y-21338295D01*
X113874599Y-21347244D01*
X114053356Y-21575409D01*
X114060138Y-21585233D01*
X114210100Y-21833303D01*
X114215652Y-21843881D01*
X114334616Y-22108206D01*
X114338855Y-22119384D01*
X114425087Y-22396114D01*
X114427948Y-22407722D01*
X114480196Y-22692828D01*
X114481637Y-22704695D01*
X114499319Y-22997006D01*
X114499500Y-23002984D01*
X114499500Y-86997015D01*
X114499319Y-87002993D01*
X114481637Y-87295304D01*
X114480196Y-87307171D01*
X114427948Y-87592277D01*
X114425087Y-87603885D01*
X114338855Y-87880615D01*
X114334616Y-87891793D01*
X114215652Y-88156118D01*
X114210096Y-88166703D01*
X114060142Y-88414758D01*
X114053356Y-88424590D01*
X113874599Y-88652755D01*
X113866672Y-88661704D01*
X113661704Y-88866672D01*
X113652755Y-88874599D01*
X113424590Y-89053356D01*
X113414758Y-89060142D01*
X113177212Y-89203744D01*
X113166703Y-89210097D01*
X113156118Y-89215652D01*
X112891793Y-89334616D01*
X112880615Y-89338855D01*
X112603885Y-89425087D01*
X112592277Y-89427948D01*
X112307171Y-89480196D01*
X112295304Y-89481637D01*
X112023993Y-89498048D01*
X112002991Y-89499319D01*
X111997015Y-89499500D01*
X23002985Y-89499500D01*
X22997008Y-89499319D01*
X22973564Y-89497900D01*
X22704695Y-89481637D01*
X22692828Y-89480196D01*
X22407722Y-89427948D01*
X22396114Y-89425087D01*
X22119384Y-89338855D01*
X22108206Y-89334616D01*
X21843881Y-89215652D01*
X21833303Y-89210100D01*
X21585233Y-89060138D01*
X21575413Y-89053359D01*
X21347244Y-88874599D01*
X21338295Y-88866672D01*
X21133327Y-88661704D01*
X21125400Y-88652755D01*
X20946638Y-88424583D01*
X20939864Y-88414770D01*
X20789895Y-88166690D01*
X20784347Y-88156118D01*
X20739295Y-88056018D01*
X20665380Y-87891786D01*
X20661147Y-87880623D01*
X20574911Y-87603882D01*
X20572051Y-87592277D01*
X20568793Y-87574500D01*
X20519802Y-87307164D01*
X20518362Y-87295303D01*
X20500681Y-87002992D01*
X20500500Y-86997015D01*
X20500500Y-84878710D01*
X23149500Y-84878710D01*
X23149500Y-85121289D01*
X23181161Y-85361781D01*
X23181161Y-85361786D01*
X23243944Y-85596092D01*
X23243948Y-85596105D01*
X23336772Y-85820204D01*
X23336774Y-85820208D01*
X23336776Y-85820212D01*
X23390821Y-85913820D01*
X23458066Y-86030292D01*
X23605729Y-86222731D01*
X23605731Y-86222733D01*
X23605735Y-86222738D01*
X23777262Y-86394265D01*
X23777266Y-86394268D01*
X23777268Y-86394270D01*
X23803591Y-86414468D01*
X23969711Y-86541936D01*
X24179788Y-86663224D01*
X24403900Y-86756054D01*
X24638211Y-86818838D01*
X24878712Y-86850500D01*
X24878713Y-86850500D01*
X25121287Y-86850500D01*
X25121288Y-86850500D01*
X25361789Y-86818838D01*
X25596100Y-86756054D01*
X25820212Y-86663224D01*
X26030289Y-86541936D01*
X26222738Y-86394265D01*
X26394265Y-86222738D01*
X26541936Y-86030289D01*
X26663224Y-85820212D01*
X26756054Y-85596100D01*
X26818838Y-85361789D01*
X26850500Y-85121288D01*
X26850500Y-84878712D01*
X26818838Y-84638211D01*
X26756054Y-84403900D01*
X26663224Y-84179788D01*
X26541936Y-83969711D01*
X26394265Y-83777262D01*
X26222738Y-83605735D01*
X26222733Y-83605731D01*
X26222731Y-83605729D01*
X26030292Y-83458066D01*
X26030289Y-83458064D01*
X25820212Y-83336776D01*
X25820208Y-83336774D01*
X25820204Y-83336772D01*
X25596105Y-83243948D01*
X25596104Y-83243947D01*
X25596100Y-83243946D01*
X25361789Y-83181162D01*
X25361786Y-83181161D01*
X25361784Y-83181161D01*
X25121289Y-83149500D01*
X25121288Y-83149500D01*
X24878712Y-83149500D01*
X24878710Y-83149500D01*
X24638218Y-83181161D01*
X24638213Y-83181161D01*
X24403907Y-83243944D01*
X24403894Y-83243948D01*
X24179795Y-83336772D01*
X23969707Y-83458066D01*
X23777268Y-83605729D01*
X23605729Y-83777268D01*
X23458066Y-83969707D01*
X23336772Y-84179795D01*
X23243948Y-84403894D01*
X23243944Y-84403907D01*
X23181161Y-84638213D01*
X23181161Y-84638218D01*
X23149500Y-84878710D01*
X20500500Y-84878710D01*
X20500500Y-78896532D01*
X21699500Y-78896532D01*
X21699500Y-79103467D01*
X21739869Y-79306418D01*
X21819058Y-79497597D01*
X21819059Y-79497598D01*
X21934023Y-79669655D01*
X22080345Y-79815977D01*
X22252402Y-79930941D01*
X22443580Y-80010130D01*
X22646535Y-80050500D01*
X22646536Y-80050500D01*
X23353464Y-80050500D01*
X23353465Y-80050500D01*
X23556420Y-80010130D01*
X23747598Y-79930941D01*
X23919655Y-79815977D01*
X24065977Y-79669655D01*
X24180941Y-79497598D01*
X24260130Y-79306420D01*
X24300500Y-79103465D01*
X24300500Y-78896535D01*
X24300499Y-78896532D01*
X47699500Y-78896532D01*
X47699500Y-79103467D01*
X47739869Y-79306418D01*
X47819058Y-79497597D01*
X47819059Y-79497598D01*
X47934023Y-79669655D01*
X48080345Y-79815977D01*
X48252402Y-79930941D01*
X48443580Y-80010130D01*
X48646535Y-80050500D01*
X48646536Y-80050500D01*
X49353464Y-80050500D01*
X49353465Y-80050500D01*
X49556420Y-80010130D01*
X49747598Y-79930941D01*
X49919655Y-79815977D01*
X50065977Y-79669655D01*
X50180941Y-79497598D01*
X50260130Y-79306420D01*
X50300500Y-79103465D01*
X50300500Y-78896535D01*
X50260130Y-78693580D01*
X50180941Y-78502402D01*
X50065977Y-78330345D01*
X49919655Y-78184023D01*
X49919651Y-78184020D01*
X49747597Y-78069058D01*
X49556418Y-77989869D01*
X49353467Y-77949500D01*
X49353465Y-77949500D01*
X48646535Y-77949500D01*
X48646532Y-77949500D01*
X48443581Y-77989869D01*
X48252402Y-78069058D01*
X48080348Y-78184020D01*
X47934020Y-78330348D01*
X47819058Y-78502402D01*
X47739869Y-78693581D01*
X47699500Y-78896532D01*
X24300499Y-78896532D01*
X24260130Y-78693580D01*
X24180941Y-78502402D01*
X24065977Y-78330345D01*
X23919655Y-78184023D01*
X23919651Y-78184020D01*
X23747597Y-78069058D01*
X23556418Y-77989869D01*
X23353467Y-77949500D01*
X23353465Y-77949500D01*
X22646535Y-77949500D01*
X22646532Y-77949500D01*
X22443581Y-77989869D01*
X22252402Y-78069058D01*
X22080348Y-78184020D01*
X21934020Y-78330348D01*
X21819058Y-78502402D01*
X21739869Y-78693581D01*
X21699500Y-78896532D01*
X20500500Y-78896532D01*
X20500500Y-76396532D01*
X21699500Y-76396532D01*
X21699500Y-76603467D01*
X21739869Y-76806418D01*
X21819058Y-76997597D01*
X21902295Y-77122171D01*
X21934023Y-77169655D01*
X22080345Y-77315977D01*
X22252402Y-77430941D01*
X22443580Y-77510130D01*
X22646535Y-77550500D01*
X22646536Y-77550500D01*
X23353464Y-77550500D01*
X23353465Y-77550500D01*
X23556420Y-77510130D01*
X23747598Y-77430941D01*
X23919655Y-77315977D01*
X24065977Y-77169655D01*
X24180941Y-76997598D01*
X24260130Y-76806420D01*
X24300500Y-76603465D01*
X24300500Y-76396535D01*
X24300499Y-76396532D01*
X47699500Y-76396532D01*
X47699500Y-76603467D01*
X47739869Y-76806418D01*
X47819058Y-76997597D01*
X47902295Y-77122171D01*
X47934023Y-77169655D01*
X48080345Y-77315977D01*
X48252402Y-77430941D01*
X48443580Y-77510130D01*
X48646535Y-77550500D01*
X48646536Y-77550500D01*
X49353464Y-77550500D01*
X49353465Y-77550500D01*
X49556420Y-77510130D01*
X49747598Y-77430941D01*
X49919655Y-77315977D01*
X50065977Y-77169655D01*
X50180941Y-76997598D01*
X50260130Y-76806420D01*
X50300500Y-76603465D01*
X50300500Y-76396535D01*
X50260130Y-76193580D01*
X50180941Y-76002402D01*
X50065977Y-75830345D01*
X49919655Y-75684023D01*
X49755535Y-75574362D01*
X49747597Y-75569058D01*
X49556418Y-75489869D01*
X49353467Y-75449500D01*
X49353465Y-75449500D01*
X48646535Y-75449500D01*
X48646532Y-75449500D01*
X48443581Y-75489869D01*
X48252402Y-75569058D01*
X48080348Y-75684020D01*
X47934020Y-75830348D01*
X47819058Y-76002402D01*
X47739869Y-76193581D01*
X47699500Y-76396532D01*
X24300499Y-76396532D01*
X24260130Y-76193580D01*
X24180941Y-76002402D01*
X24065977Y-75830345D01*
X23919655Y-75684023D01*
X23755535Y-75574362D01*
X23747597Y-75569058D01*
X23556418Y-75489869D01*
X23353467Y-75449500D01*
X23353465Y-75449500D01*
X22646535Y-75449500D01*
X22646532Y-75449500D01*
X22443581Y-75489869D01*
X22252402Y-75569058D01*
X22080348Y-75684020D01*
X21934020Y-75830348D01*
X21819058Y-76002402D01*
X21739869Y-76193581D01*
X21699500Y-76396532D01*
X20500500Y-76396532D01*
X20500500Y-66249999D01*
X21524014Y-66249999D01*
X21524015Y-66250000D01*
X22509252Y-66250000D01*
X22487482Y-66287708D01*
X22450000Y-66427591D01*
X22450000Y-66572409D01*
X22487482Y-66712292D01*
X22509252Y-66750000D01*
X21524015Y-66750000D01*
X21530777Y-66792704D01*
X21591580Y-66979833D01*
X21680903Y-67155142D01*
X21680907Y-67155148D01*
X21796549Y-67314314D01*
X21935685Y-67453450D01*
X22094851Y-67569092D01*
X22094857Y-67569096D01*
X22270170Y-67658421D01*
X22270173Y-67658423D01*
X22457285Y-67719220D01*
X22457289Y-67719221D01*
X22651620Y-67750000D01*
X22749999Y-67750000D01*
X22750000Y-67749999D01*
X22750000Y-66990747D01*
X22787708Y-67012518D01*
X22927591Y-67050000D01*
X23072409Y-67050000D01*
X23212292Y-67012518D01*
X23250000Y-66990747D01*
X23250000Y-67749999D01*
X23250001Y-67750000D01*
X23348380Y-67750000D01*
X23542710Y-67719221D01*
X23542714Y-67719220D01*
X23729826Y-67658423D01*
X23729829Y-67658421D01*
X23905142Y-67569096D01*
X23905148Y-67569092D01*
X24064314Y-67453450D01*
X24203446Y-67314318D01*
X24310407Y-67167101D01*
X24359908Y-67131137D01*
X24421093Y-67131137D01*
X24470593Y-67167102D01*
X24489500Y-67225292D01*
X24489500Y-68841536D01*
X24470593Y-68899727D01*
X24421093Y-68935691D01*
X24359907Y-68935691D01*
X24310407Y-68899727D01*
X24293402Y-68860850D01*
X24268017Y-68733229D01*
X24260130Y-68693580D01*
X24180941Y-68502402D01*
X24065977Y-68330345D01*
X23919655Y-68184023D01*
X23747598Y-68069059D01*
X23747599Y-68069059D01*
X23747597Y-68069058D01*
X23556418Y-67989869D01*
X23353467Y-67949500D01*
X23353465Y-67949500D01*
X22646535Y-67949500D01*
X22646532Y-67949500D01*
X22443581Y-67989869D01*
X22252402Y-68069058D01*
X22080348Y-68184020D01*
X21934020Y-68330348D01*
X21819058Y-68502402D01*
X21739869Y-68693581D01*
X21699500Y-68896532D01*
X21699500Y-69103467D01*
X21739869Y-69306418D01*
X21819058Y-69497597D01*
X21914616Y-69640610D01*
X21934023Y-69669655D01*
X22080345Y-69815977D01*
X22252402Y-69930941D01*
X22443580Y-70010130D01*
X22646535Y-70050500D01*
X22646536Y-70050500D01*
X23353464Y-70050500D01*
X23353465Y-70050500D01*
X23556420Y-70010130D01*
X23747598Y-69930941D01*
X23919655Y-69815977D01*
X24065977Y-69669655D01*
X24180941Y-69497598D01*
X24260130Y-69306420D01*
X24293402Y-69139148D01*
X24323299Y-69085765D01*
X24378864Y-69060149D01*
X24438873Y-69072086D01*
X24480406Y-69117016D01*
X24489500Y-69158463D01*
X24489500Y-71341536D01*
X24470593Y-71399727D01*
X24421093Y-71435691D01*
X24359907Y-71435691D01*
X24310407Y-71399727D01*
X24293402Y-71360850D01*
X24260130Y-71193581D01*
X24180941Y-71002402D01*
X24065979Y-70830348D01*
X24065977Y-70830345D01*
X23919655Y-70684023D01*
X23893566Y-70666591D01*
X23747597Y-70569058D01*
X23556418Y-70489869D01*
X23353467Y-70449500D01*
X23353465Y-70449500D01*
X22646535Y-70449500D01*
X22646532Y-70449500D01*
X22443581Y-70489869D01*
X22252402Y-70569058D01*
X22080348Y-70684020D01*
X21934020Y-70830348D01*
X21819058Y-71002402D01*
X21739869Y-71193581D01*
X21699500Y-71396532D01*
X21699500Y-71603467D01*
X21739869Y-71806418D01*
X21819058Y-71997597D01*
X21859532Y-72058171D01*
X21934023Y-72169655D01*
X22080345Y-72315977D01*
X22252402Y-72430941D01*
X22443580Y-72510130D01*
X22646535Y-72550500D01*
X22646536Y-72550500D01*
X23353464Y-72550500D01*
X23353465Y-72550500D01*
X23556420Y-72510130D01*
X23747598Y-72430941D01*
X23919655Y-72315977D01*
X24065977Y-72169655D01*
X24180941Y-71997598D01*
X24260130Y-71806420D01*
X24293402Y-71639148D01*
X24323299Y-71585765D01*
X24378864Y-71560149D01*
X24438873Y-71572086D01*
X24480406Y-71617016D01*
X24489500Y-71658463D01*
X24489500Y-72823836D01*
X24470593Y-72882027D01*
X24460504Y-72893840D01*
X24370889Y-72983454D01*
X24370885Y-72983458D01*
X24294228Y-73098182D01*
X24294222Y-73098193D01*
X24241420Y-73225670D01*
X24241417Y-73225680D01*
X24231078Y-73277657D01*
X24201181Y-73331041D01*
X24145616Y-73356656D01*
X24085606Y-73344718D01*
X24063981Y-73328349D01*
X23919655Y-73184023D01*
X23919651Y-73184020D01*
X23747597Y-73069058D01*
X23556418Y-72989869D01*
X23353467Y-72949500D01*
X23353465Y-72949500D01*
X22646535Y-72949500D01*
X22646532Y-72949500D01*
X22443581Y-72989869D01*
X22252402Y-73069058D01*
X22080348Y-73184020D01*
X21934020Y-73330348D01*
X21819058Y-73502402D01*
X21739869Y-73693581D01*
X21699500Y-73896532D01*
X21699500Y-74103467D01*
X21739869Y-74306418D01*
X21819058Y-74497597D01*
X21819059Y-74497598D01*
X21934023Y-74669655D01*
X22080345Y-74815977D01*
X22252402Y-74930941D01*
X22443580Y-75010130D01*
X22646535Y-75050500D01*
X22646536Y-75050500D01*
X23353464Y-75050500D01*
X23353465Y-75050500D01*
X23556420Y-75010130D01*
X23747598Y-74930941D01*
X23919655Y-74815977D01*
X24065977Y-74669655D01*
X24180941Y-74497598D01*
X24260130Y-74306420D01*
X24300500Y-74103465D01*
X24300500Y-74045164D01*
X24319407Y-73986973D01*
X24368907Y-73951009D01*
X24430093Y-73951009D01*
X24464040Y-73971811D01*
X24464689Y-73971021D01*
X24468458Y-73974114D01*
X24583182Y-74050771D01*
X24583193Y-74050777D01*
X24612681Y-74062991D01*
X24710672Y-74103580D01*
X24846007Y-74130500D01*
X24846008Y-74130500D01*
X24983992Y-74130500D01*
X24983993Y-74130500D01*
X25119328Y-74103580D01*
X25246811Y-74050775D01*
X25361542Y-73974114D01*
X25439124Y-73896532D01*
X47699500Y-73896532D01*
X47699500Y-74103467D01*
X47739869Y-74306418D01*
X47819058Y-74497597D01*
X47819059Y-74497598D01*
X47934023Y-74669655D01*
X48080345Y-74815977D01*
X48252402Y-74930941D01*
X48443580Y-75010130D01*
X48646535Y-75050500D01*
X48646536Y-75050500D01*
X49353464Y-75050500D01*
X49353465Y-75050500D01*
X49556420Y-75010130D01*
X49747598Y-74930941D01*
X49919655Y-74815977D01*
X50065977Y-74669655D01*
X50180941Y-74497598D01*
X50260130Y-74306420D01*
X50300500Y-74103465D01*
X50300500Y-73896535D01*
X50260130Y-73693580D01*
X50180941Y-73502402D01*
X50065977Y-73330345D01*
X49919655Y-73184023D01*
X49919651Y-73184020D01*
X49747597Y-73069058D01*
X49556418Y-72989869D01*
X49353467Y-72949500D01*
X49353465Y-72949500D01*
X48646535Y-72949500D01*
X48646532Y-72949500D01*
X48443581Y-72989869D01*
X48252402Y-73069058D01*
X48080348Y-73184020D01*
X47934020Y-73330348D01*
X47819058Y-73502402D01*
X47739869Y-73693581D01*
X47699500Y-73896532D01*
X25439124Y-73896532D01*
X25459114Y-73876542D01*
X25535775Y-73761811D01*
X25588580Y-73634328D01*
X25615500Y-73498993D01*
X25615500Y-73361007D01*
X25588580Y-73225672D01*
X25535775Y-73098189D01*
X25535774Y-73098187D01*
X25535771Y-73098182D01*
X25459114Y-72983458D01*
X25369496Y-72893840D01*
X25341719Y-72839323D01*
X25340500Y-72823836D01*
X25340500Y-71396532D01*
X47699500Y-71396532D01*
X47699500Y-71603467D01*
X47739869Y-71806418D01*
X47819058Y-71997597D01*
X47859532Y-72058171D01*
X47934023Y-72169655D01*
X48080345Y-72315977D01*
X48252402Y-72430941D01*
X48443580Y-72510130D01*
X48646535Y-72550500D01*
X48646536Y-72550500D01*
X49353464Y-72550500D01*
X49353465Y-72550500D01*
X49556420Y-72510130D01*
X49747598Y-72430941D01*
X49919655Y-72315977D01*
X50065977Y-72169655D01*
X50180941Y-71997598D01*
X50260130Y-71806420D01*
X50300500Y-71603465D01*
X50300500Y-71396535D01*
X50260130Y-71193580D01*
X50180941Y-71002402D01*
X50065977Y-70830345D01*
X49919655Y-70684023D01*
X49893566Y-70666591D01*
X49747597Y-70569058D01*
X49556418Y-70489869D01*
X49353467Y-70449500D01*
X49353465Y-70449500D01*
X48646535Y-70449500D01*
X48646532Y-70449500D01*
X48443581Y-70489869D01*
X48252402Y-70569058D01*
X48080348Y-70684020D01*
X47934020Y-70830348D01*
X47819058Y-71002402D01*
X47739869Y-71193581D01*
X47699500Y-71396532D01*
X25340500Y-71396532D01*
X25340500Y-68896532D01*
X47699500Y-68896532D01*
X47699500Y-69103467D01*
X47739869Y-69306418D01*
X47819058Y-69497597D01*
X47914616Y-69640610D01*
X47934023Y-69669655D01*
X48080345Y-69815977D01*
X48252402Y-69930941D01*
X48443580Y-70010130D01*
X48646535Y-70050500D01*
X48646536Y-70050500D01*
X49353464Y-70050500D01*
X49353465Y-70050500D01*
X49556420Y-70010130D01*
X49747598Y-69930941D01*
X49919655Y-69815977D01*
X50065977Y-69669655D01*
X50180941Y-69497598D01*
X50260130Y-69306420D01*
X50300500Y-69103465D01*
X50300500Y-68896535D01*
X50260130Y-68693580D01*
X50180941Y-68502402D01*
X50065977Y-68330345D01*
X49919655Y-68184023D01*
X49747598Y-68069059D01*
X49747599Y-68069059D01*
X49747597Y-68069058D01*
X49556418Y-67989869D01*
X49353467Y-67949500D01*
X49353465Y-67949500D01*
X48646535Y-67949500D01*
X48646532Y-67949500D01*
X48443581Y-67989869D01*
X48252402Y-68069058D01*
X48080348Y-68184020D01*
X47934020Y-68330348D01*
X47819058Y-68502402D01*
X47739869Y-68693581D01*
X47699500Y-68896532D01*
X25340500Y-68896532D01*
X25340500Y-66396532D01*
X47699500Y-66396532D01*
X47699500Y-66603467D01*
X47739869Y-66806418D01*
X47819058Y-66997597D01*
X47932316Y-67167101D01*
X47934023Y-67169655D01*
X48080345Y-67315977D01*
X48252402Y-67430941D01*
X48443580Y-67510130D01*
X48646535Y-67550500D01*
X48646536Y-67550500D01*
X49353464Y-67550500D01*
X49353465Y-67550500D01*
X49556420Y-67510130D01*
X49747598Y-67430941D01*
X49919655Y-67315977D01*
X50065977Y-67169655D01*
X50180941Y-66997598D01*
X50260130Y-66806420D01*
X50300500Y-66603465D01*
X50300500Y-66396535D01*
X50260130Y-66193580D01*
X50180941Y-66002402D01*
X50065977Y-65830345D01*
X49919655Y-65684023D01*
X49747598Y-65569059D01*
X49747599Y-65569059D01*
X49747597Y-65569058D01*
X49556418Y-65489869D01*
X49353467Y-65449500D01*
X49353465Y-65449500D01*
X48646535Y-65449500D01*
X48646532Y-65449500D01*
X48443581Y-65489869D01*
X48252402Y-65569058D01*
X48080348Y-65684020D01*
X47934020Y-65830348D01*
X47819058Y-66002402D01*
X47739869Y-66193581D01*
X47699500Y-66396532D01*
X25340500Y-66396532D01*
X25340500Y-63896532D01*
X47699500Y-63896532D01*
X47699500Y-64103467D01*
X47739869Y-64306418D01*
X47819058Y-64497597D01*
X47819059Y-64497598D01*
X47934023Y-64669655D01*
X48080345Y-64815977D01*
X48252402Y-64930941D01*
X48443580Y-65010130D01*
X48646535Y-65050500D01*
X48646536Y-65050500D01*
X49353464Y-65050500D01*
X49353465Y-65050500D01*
X49556420Y-65010130D01*
X49747598Y-64930941D01*
X49919655Y-64815977D01*
X50065977Y-64669655D01*
X50180941Y-64497598D01*
X50260130Y-64306420D01*
X50300500Y-64103465D01*
X50300500Y-63896535D01*
X50260130Y-63693580D01*
X50180941Y-63502402D01*
X50065977Y-63330345D01*
X49919655Y-63184023D01*
X49747598Y-63069059D01*
X49747599Y-63069059D01*
X49747597Y-63069058D01*
X49556418Y-62989869D01*
X49353467Y-62949500D01*
X49353465Y-62949500D01*
X48646535Y-62949500D01*
X48646532Y-62949500D01*
X48443581Y-62989869D01*
X48252402Y-63069058D01*
X48080348Y-63184020D01*
X47934020Y-63330348D01*
X47819058Y-63502402D01*
X47739869Y-63693581D01*
X47699500Y-63896532D01*
X25340500Y-63896532D01*
X25340500Y-57392283D01*
X25326202Y-57338922D01*
X25311503Y-57284063D01*
X25311501Y-57284060D01*
X25311501Y-57284058D01*
X25255485Y-57187037D01*
X25176263Y-57107814D01*
X25176263Y-57107815D01*
X24628212Y-56559764D01*
X24589042Y-56520345D01*
X24588446Y-56519998D01*
X24587963Y-56519515D01*
X24540039Y-56491846D01*
X24492193Y-56464020D01*
X24491532Y-56463840D01*
X24490937Y-56463497D01*
X24437393Y-56449150D01*
X24428967Y-56446863D01*
X24428966Y-56446863D01*
X24362955Y-56428951D01*
X24311747Y-56395464D01*
X24291785Y-56352722D01*
X24260130Y-56193580D01*
X24180941Y-56002402D01*
X24065977Y-55830345D01*
X23919655Y-55684023D01*
X23747598Y-55569059D01*
X23747599Y-55569059D01*
X23747597Y-55569058D01*
X23556418Y-55489869D01*
X23353467Y-55449500D01*
X23353465Y-55449500D01*
X22646535Y-55449500D01*
X22646532Y-55449500D01*
X22443581Y-55489869D01*
X22252402Y-55569058D01*
X22080348Y-55684020D01*
X21934020Y-55830348D01*
X21819058Y-56002402D01*
X21739869Y-56193581D01*
X21699500Y-56396532D01*
X21699500Y-56603467D01*
X21739869Y-56806418D01*
X21819058Y-56997597D01*
X21819059Y-56997598D01*
X21934023Y-57169655D01*
X22080345Y-57315977D01*
X22252402Y-57430941D01*
X22443580Y-57510130D01*
X22646535Y-57550500D01*
X22646536Y-57550500D01*
X23353464Y-57550500D01*
X23353465Y-57550500D01*
X23556420Y-57510130D01*
X23747598Y-57430941D01*
X23919655Y-57315977D01*
X23977837Y-57257793D01*
X24032351Y-57230016D01*
X24073764Y-57232251D01*
X24080491Y-57234077D01*
X24124570Y-57259618D01*
X24460504Y-57595552D01*
X24488281Y-57650069D01*
X24489500Y-57665556D01*
X24489500Y-58841536D01*
X24470593Y-58899727D01*
X24421093Y-58935691D01*
X24359907Y-58935691D01*
X24310407Y-58899727D01*
X24293402Y-58860850D01*
X24272449Y-58755514D01*
X24260130Y-58693580D01*
X24180941Y-58502402D01*
X24065977Y-58330345D01*
X23919655Y-58184023D01*
X23919651Y-58184020D01*
X23747597Y-58069058D01*
X23556418Y-57989869D01*
X23353467Y-57949500D01*
X23353465Y-57949500D01*
X22646535Y-57949500D01*
X22646532Y-57949500D01*
X22443581Y-57989869D01*
X22252402Y-58069058D01*
X22080348Y-58184020D01*
X21934020Y-58330348D01*
X21819058Y-58502402D01*
X21739869Y-58693581D01*
X21699500Y-58896532D01*
X21699500Y-59103467D01*
X21739869Y-59306418D01*
X21819058Y-59497597D01*
X21907219Y-59629540D01*
X21934023Y-59669655D01*
X22080345Y-59815977D01*
X22252402Y-59930941D01*
X22443580Y-60010130D01*
X22646535Y-60050500D01*
X22646536Y-60050500D01*
X23353464Y-60050500D01*
X23353465Y-60050500D01*
X23556420Y-60010130D01*
X23747598Y-59930941D01*
X23919655Y-59815977D01*
X24065977Y-59669655D01*
X24180941Y-59497598D01*
X24260130Y-59306420D01*
X24293402Y-59139148D01*
X24323299Y-59085765D01*
X24378864Y-59060149D01*
X24438873Y-59072086D01*
X24480406Y-59117016D01*
X24489500Y-59158463D01*
X24489500Y-61341536D01*
X24470593Y-61399727D01*
X24421093Y-61435691D01*
X24359907Y-61435691D01*
X24310407Y-61399727D01*
X24293402Y-61360850D01*
X24260130Y-61193581D01*
X24180941Y-61002402D01*
X24065979Y-60830348D01*
X24065977Y-60830345D01*
X23919655Y-60684023D01*
X23919651Y-60684020D01*
X23747597Y-60569058D01*
X23556418Y-60489869D01*
X23353467Y-60449500D01*
X23353465Y-60449500D01*
X22646535Y-60449500D01*
X22646532Y-60449500D01*
X22443581Y-60489869D01*
X22252402Y-60569058D01*
X22080348Y-60684020D01*
X21934020Y-60830348D01*
X21819058Y-61002402D01*
X21739869Y-61193581D01*
X21699500Y-61396532D01*
X21699500Y-61603467D01*
X21739869Y-61806418D01*
X21819058Y-61997597D01*
X21934020Y-62169651D01*
X21934023Y-62169655D01*
X22080345Y-62315977D01*
X22252402Y-62430941D01*
X22443580Y-62510130D01*
X22646535Y-62550500D01*
X22646536Y-62550500D01*
X23353464Y-62550500D01*
X23353465Y-62550500D01*
X23556420Y-62510130D01*
X23747598Y-62430941D01*
X23919655Y-62315977D01*
X24065977Y-62169655D01*
X24180941Y-61997598D01*
X24260130Y-61806420D01*
X24293402Y-61639148D01*
X24323299Y-61585765D01*
X24378864Y-61560149D01*
X24438873Y-61572086D01*
X24480406Y-61617016D01*
X24489500Y-61658463D01*
X24489500Y-63841536D01*
X24470593Y-63899727D01*
X24421093Y-63935691D01*
X24359907Y-63935691D01*
X24310407Y-63899727D01*
X24293402Y-63860850D01*
X24260130Y-63693581D01*
X24241102Y-63647644D01*
X24180941Y-63502402D01*
X24065977Y-63330345D01*
X23919655Y-63184023D01*
X23747598Y-63069059D01*
X23747599Y-63069059D01*
X23747597Y-63069058D01*
X23556418Y-62989869D01*
X23353467Y-62949500D01*
X23353465Y-62949500D01*
X22646535Y-62949500D01*
X22646532Y-62949500D01*
X22443581Y-62989869D01*
X22252402Y-63069058D01*
X22080348Y-63184020D01*
X21934020Y-63330348D01*
X21819058Y-63502402D01*
X21739869Y-63693581D01*
X21699500Y-63896532D01*
X21699500Y-64103467D01*
X21739869Y-64306418D01*
X21819058Y-64497597D01*
X21819059Y-64497598D01*
X21934023Y-64669655D01*
X22080345Y-64815977D01*
X22252402Y-64930941D01*
X22443580Y-65010130D01*
X22646535Y-65050500D01*
X22646536Y-65050500D01*
X23353464Y-65050500D01*
X23353465Y-65050500D01*
X23556420Y-65010130D01*
X23747598Y-64930941D01*
X23919655Y-64815977D01*
X24065977Y-64669655D01*
X24180941Y-64497598D01*
X24260130Y-64306420D01*
X24293402Y-64139148D01*
X24323299Y-64085765D01*
X24378864Y-64060149D01*
X24438873Y-64072086D01*
X24480406Y-64117016D01*
X24489500Y-64158463D01*
X24489500Y-65774707D01*
X24470593Y-65832898D01*
X24421093Y-65868862D01*
X24359907Y-65868862D01*
X24310408Y-65832898D01*
X24203450Y-65685685D01*
X24064314Y-65546549D01*
X23905148Y-65430907D01*
X23905142Y-65430903D01*
X23729829Y-65341578D01*
X23729826Y-65341576D01*
X23542714Y-65280779D01*
X23542710Y-65280778D01*
X23348380Y-65250000D01*
X23250001Y-65250000D01*
X23250000Y-65250001D01*
X23250000Y-66009252D01*
X23212292Y-65987482D01*
X23072409Y-65950000D01*
X22927591Y-65950000D01*
X22787708Y-65987482D01*
X22750000Y-66009252D01*
X22750000Y-65250001D01*
X22749999Y-65250000D01*
X22651620Y-65250000D01*
X22457289Y-65280778D01*
X22457285Y-65280779D01*
X22270173Y-65341576D01*
X22270170Y-65341578D01*
X22094857Y-65430903D01*
X22094851Y-65430907D01*
X21935685Y-65546549D01*
X21796549Y-65685685D01*
X21680907Y-65844851D01*
X21680903Y-65844857D01*
X21591580Y-66020166D01*
X21530777Y-66207295D01*
X21524014Y-66249999D01*
X20500500Y-66249999D01*
X20500500Y-53896532D01*
X21699500Y-53896532D01*
X21699500Y-54103467D01*
X21739869Y-54306418D01*
X21819058Y-54497597D01*
X21819059Y-54497598D01*
X21934023Y-54669655D01*
X22080345Y-54815977D01*
X22252402Y-54930941D01*
X22443580Y-55010130D01*
X22646535Y-55050500D01*
X22646536Y-55050500D01*
X23353464Y-55050500D01*
X23353465Y-55050500D01*
X23556420Y-55010130D01*
X23747598Y-54930941D01*
X23919655Y-54815977D01*
X24065977Y-54669655D01*
X24180941Y-54497598D01*
X24260130Y-54306420D01*
X24300500Y-54103465D01*
X24300500Y-53896535D01*
X24260130Y-53693580D01*
X24180941Y-53502402D01*
X24065977Y-53330345D01*
X23919655Y-53184023D01*
X23919651Y-53184020D01*
X23747597Y-53069058D01*
X23556418Y-52989869D01*
X23353467Y-52949500D01*
X23353465Y-52949500D01*
X22646535Y-52949500D01*
X22646532Y-52949500D01*
X22443581Y-52989869D01*
X22252402Y-53069058D01*
X22080348Y-53184020D01*
X21934020Y-53330348D01*
X21819058Y-53502402D01*
X21739869Y-53693581D01*
X21699500Y-53896532D01*
X20500500Y-53896532D01*
X20500500Y-51396532D01*
X21699500Y-51396532D01*
X21699500Y-51603467D01*
X21739869Y-51806418D01*
X21819058Y-51997597D01*
X21819059Y-51997598D01*
X21934023Y-52169655D01*
X22080345Y-52315977D01*
X22252402Y-52430941D01*
X22443580Y-52510130D01*
X22646535Y-52550500D01*
X22646536Y-52550500D01*
X23353464Y-52550500D01*
X23353465Y-52550500D01*
X23556420Y-52510130D01*
X23747598Y-52430941D01*
X23919655Y-52315977D01*
X24065977Y-52169655D01*
X24180941Y-51997598D01*
X24260130Y-51806420D01*
X24300500Y-51603465D01*
X24300500Y-51396535D01*
X24260130Y-51193580D01*
X24180941Y-51002402D01*
X24065977Y-50830345D01*
X23919655Y-50684023D01*
X23747598Y-50569059D01*
X23747599Y-50569059D01*
X23747597Y-50569058D01*
X23556418Y-50489869D01*
X23353467Y-50449500D01*
X23353465Y-50449500D01*
X22646535Y-50449500D01*
X22646532Y-50449500D01*
X22443581Y-50489869D01*
X22252402Y-50569058D01*
X22080348Y-50684020D01*
X21934020Y-50830348D01*
X21819058Y-51002402D01*
X21739869Y-51193581D01*
X21699500Y-51396532D01*
X20500500Y-51396532D01*
X20500500Y-48896532D01*
X21699500Y-48896532D01*
X21699500Y-49103467D01*
X21739869Y-49306418D01*
X21819058Y-49497597D01*
X21934020Y-49669651D01*
X21934023Y-49669655D01*
X22080345Y-49815977D01*
X22252402Y-49930941D01*
X22443580Y-50010130D01*
X22646535Y-50050500D01*
X22646536Y-50050500D01*
X23353464Y-50050500D01*
X23353465Y-50050500D01*
X23556420Y-50010130D01*
X23747598Y-49930941D01*
X23919655Y-49815977D01*
X24065977Y-49669655D01*
X24180941Y-49497598D01*
X24260130Y-49306420D01*
X24300500Y-49103465D01*
X24300500Y-48896535D01*
X24260130Y-48693580D01*
X24180941Y-48502402D01*
X24065977Y-48330345D01*
X23919655Y-48184023D01*
X23747598Y-48069059D01*
X23747599Y-48069059D01*
X23747597Y-48069058D01*
X23556418Y-47989869D01*
X23353467Y-47949500D01*
X23353465Y-47949500D01*
X22646535Y-47949500D01*
X22646532Y-47949500D01*
X22443581Y-47989869D01*
X22252402Y-48069058D01*
X22080348Y-48184020D01*
X21934020Y-48330348D01*
X21819058Y-48502402D01*
X21739869Y-48693581D01*
X21699500Y-48896532D01*
X20500500Y-48896532D01*
X20500500Y-43896532D01*
X21699500Y-43896532D01*
X21699500Y-44103467D01*
X21739869Y-44306418D01*
X21819058Y-44497597D01*
X21934020Y-44669651D01*
X21934023Y-44669655D01*
X22080345Y-44815977D01*
X22252402Y-44930941D01*
X22443580Y-45010130D01*
X22646535Y-45050500D01*
X22646536Y-45050500D01*
X23353464Y-45050500D01*
X23353465Y-45050500D01*
X23556420Y-45010130D01*
X23747598Y-44930941D01*
X23919655Y-44815977D01*
X24065977Y-44669655D01*
X24180941Y-44497598D01*
X24260130Y-44306420D01*
X24300500Y-44103465D01*
X24300500Y-43896535D01*
X24260130Y-43693580D01*
X24180941Y-43502402D01*
X24065977Y-43330345D01*
X23919655Y-43184023D01*
X23919651Y-43184020D01*
X23747597Y-43069058D01*
X23556418Y-42989869D01*
X23353467Y-42949500D01*
X23353465Y-42949500D01*
X22646535Y-42949500D01*
X22646532Y-42949500D01*
X22443581Y-42989869D01*
X22252402Y-43069058D01*
X22080348Y-43184020D01*
X21934020Y-43330348D01*
X21819058Y-43502402D01*
X21739869Y-43693581D01*
X21699500Y-43896532D01*
X20500500Y-43896532D01*
X20500500Y-41396532D01*
X21699500Y-41396532D01*
X21699500Y-41603467D01*
X21739869Y-41806418D01*
X21819058Y-41997597D01*
X21925870Y-42157453D01*
X21934023Y-42169655D01*
X22080345Y-42315977D01*
X22252402Y-42430941D01*
X22443580Y-42510130D01*
X22646535Y-42550500D01*
X22646536Y-42550500D01*
X23353464Y-42550500D01*
X23353465Y-42550500D01*
X23556420Y-42510130D01*
X23747598Y-42430941D01*
X23919655Y-42315977D01*
X24065977Y-42169655D01*
X24180941Y-41997598D01*
X24260130Y-41806420D01*
X24300500Y-41603465D01*
X24300500Y-41396535D01*
X24260130Y-41193580D01*
X24180941Y-41002402D01*
X24065977Y-40830345D01*
X23919655Y-40684023D01*
X23884392Y-40660461D01*
X23747597Y-40569058D01*
X23556418Y-40489869D01*
X23353467Y-40449500D01*
X23353465Y-40449500D01*
X22646535Y-40449500D01*
X22646532Y-40449500D01*
X22443581Y-40489869D01*
X22252402Y-40569058D01*
X22080348Y-40684020D01*
X21934020Y-40830348D01*
X21819058Y-41002402D01*
X21739869Y-41193581D01*
X21699500Y-41396532D01*
X20500500Y-41396532D01*
X20500500Y-38896532D01*
X21699500Y-38896532D01*
X21699500Y-39103467D01*
X21739869Y-39306418D01*
X21819058Y-39497597D01*
X21934020Y-39669651D01*
X21934023Y-39669655D01*
X22080345Y-39815977D01*
X22252402Y-39930941D01*
X22443580Y-40010130D01*
X22646535Y-40050500D01*
X22646536Y-40050500D01*
X23353464Y-40050500D01*
X23353465Y-40050500D01*
X23556420Y-40010130D01*
X23747598Y-39930941D01*
X23919655Y-39815977D01*
X24065977Y-39669655D01*
X24180941Y-39497598D01*
X24260130Y-39306420D01*
X24300500Y-39103465D01*
X24300500Y-38896535D01*
X24260130Y-38693580D01*
X24180941Y-38502402D01*
X24065977Y-38330345D01*
X23919655Y-38184023D01*
X23747598Y-38069059D01*
X23747599Y-38069059D01*
X23747597Y-38069058D01*
X23556418Y-37989869D01*
X23353467Y-37949500D01*
X23353465Y-37949500D01*
X22646535Y-37949500D01*
X22646532Y-37949500D01*
X22443581Y-37989869D01*
X22252402Y-38069058D01*
X22080348Y-38184020D01*
X21934020Y-38330348D01*
X21819058Y-38502402D01*
X21739869Y-38693581D01*
X21699500Y-38896532D01*
X20500500Y-38896532D01*
X20500500Y-36396532D01*
X21699500Y-36396532D01*
X21699500Y-36603467D01*
X21739869Y-36806418D01*
X21819058Y-36997597D01*
X21819059Y-36997598D01*
X21934023Y-37169655D01*
X22080345Y-37315977D01*
X22252402Y-37430941D01*
X22443580Y-37510130D01*
X22646535Y-37550500D01*
X22646536Y-37550500D01*
X23353464Y-37550500D01*
X23353465Y-37550500D01*
X23556420Y-37510130D01*
X23747598Y-37430941D01*
X23919655Y-37315977D01*
X24065977Y-37169655D01*
X24180941Y-36997598D01*
X24260130Y-36806420D01*
X24300500Y-36603465D01*
X24300500Y-36396535D01*
X24300499Y-36396532D01*
X47699500Y-36396532D01*
X47699500Y-36603467D01*
X47739869Y-36806418D01*
X47819058Y-36997597D01*
X47819059Y-36997598D01*
X47934023Y-37169655D01*
X48080345Y-37315977D01*
X48252402Y-37430941D01*
X48443580Y-37510130D01*
X48646535Y-37550500D01*
X48646536Y-37550500D01*
X49353464Y-37550500D01*
X49353465Y-37550500D01*
X49556420Y-37510130D01*
X49747598Y-37430941D01*
X49919655Y-37315977D01*
X50065977Y-37169655D01*
X50180941Y-36997598D01*
X50260130Y-36806420D01*
X50300500Y-36603465D01*
X50300500Y-36396535D01*
X50260130Y-36193580D01*
X50180941Y-36002402D01*
X50065977Y-35830345D01*
X49919655Y-35684023D01*
X49747598Y-35569059D01*
X49747599Y-35569059D01*
X49747597Y-35569058D01*
X49556418Y-35489869D01*
X49353467Y-35449500D01*
X49353465Y-35449500D01*
X48646535Y-35449500D01*
X48646532Y-35449500D01*
X48443581Y-35489869D01*
X48252402Y-35569058D01*
X48080348Y-35684020D01*
X47934020Y-35830348D01*
X47819058Y-36002402D01*
X47739869Y-36193581D01*
X47699500Y-36396532D01*
X24300499Y-36396532D01*
X24260130Y-36193580D01*
X24180941Y-36002402D01*
X24065977Y-35830345D01*
X23919655Y-35684023D01*
X23747598Y-35569059D01*
X23747599Y-35569059D01*
X23747597Y-35569058D01*
X23556418Y-35489869D01*
X23353467Y-35449500D01*
X23353465Y-35449500D01*
X22646535Y-35449500D01*
X22646532Y-35449500D01*
X22443581Y-35489869D01*
X22252402Y-35569058D01*
X22080348Y-35684020D01*
X21934020Y-35830348D01*
X21819058Y-36002402D01*
X21739869Y-36193581D01*
X21699500Y-36396532D01*
X20500500Y-36396532D01*
X20500500Y-33205130D01*
X21699500Y-33205130D01*
X21699500Y-34794860D01*
X21699501Y-34794863D01*
X21702414Y-34819990D01*
X21719865Y-34859511D01*
X21747794Y-34922765D01*
X21827235Y-35002206D01*
X21930009Y-35047585D01*
X21955135Y-35050500D01*
X24044864Y-35050499D01*
X24069991Y-35047585D01*
X24172765Y-35002206D01*
X24252206Y-34922765D01*
X24267539Y-34888036D01*
X24280136Y-34859511D01*
X24320937Y-34813916D01*
X24370700Y-34800500D01*
X46822474Y-34800500D01*
X46822475Y-34800500D01*
X46962485Y-34762984D01*
X46962487Y-34762982D01*
X46962489Y-34762982D01*
X47088010Y-34690512D01*
X47088010Y-34690511D01*
X47088015Y-34690509D01*
X47190509Y-34588015D01*
X47212457Y-34550000D01*
X47262982Y-34462489D01*
X47262982Y-34462487D01*
X47262984Y-34462485D01*
X47300500Y-34322475D01*
X47300500Y-33149500D01*
X47319407Y-33091309D01*
X47368907Y-33055345D01*
X47399500Y-33050500D01*
X47700469Y-33050500D01*
X47758660Y-33069407D01*
X47794624Y-33118907D01*
X47794624Y-33180093D01*
X47780562Y-33207691D01*
X47680902Y-33344859D01*
X47591580Y-33520166D01*
X47530777Y-33707295D01*
X47524014Y-33749999D01*
X47524015Y-33750000D01*
X48509252Y-33750000D01*
X48487482Y-33787708D01*
X48450000Y-33927591D01*
X48450000Y-34072409D01*
X48487482Y-34212292D01*
X48509252Y-34250000D01*
X47524015Y-34250000D01*
X47530777Y-34292704D01*
X47591580Y-34479833D01*
X47680903Y-34655142D01*
X47680907Y-34655148D01*
X47796549Y-34814314D01*
X47935685Y-34953450D01*
X48094851Y-35069092D01*
X48094857Y-35069096D01*
X48270170Y-35158421D01*
X48270173Y-35158423D01*
X48457285Y-35219220D01*
X48457289Y-35219221D01*
X48651620Y-35250000D01*
X48749999Y-35250000D01*
X48750000Y-35249999D01*
X48750000Y-34490747D01*
X48787708Y-34512518D01*
X48927591Y-34550000D01*
X49072409Y-34550000D01*
X49212292Y-34512518D01*
X49250000Y-34490747D01*
X49250000Y-35249999D01*
X49250001Y-35250000D01*
X49348380Y-35250000D01*
X49542710Y-35219221D01*
X49542714Y-35219220D01*
X49729826Y-35158423D01*
X49729829Y-35158421D01*
X49905142Y-35069096D01*
X49905148Y-35069092D01*
X50064314Y-34953450D01*
X50203450Y-34814314D01*
X50319092Y-34655148D01*
X50319096Y-34655142D01*
X50408419Y-34479833D01*
X50469222Y-34292704D01*
X50475985Y-34250000D01*
X49490748Y-34250000D01*
X49512518Y-34212292D01*
X49550000Y-34072409D01*
X49550000Y-33927591D01*
X49512518Y-33787708D01*
X49490748Y-33750000D01*
X50475985Y-33750000D01*
X50475985Y-33749999D01*
X50469222Y-33707295D01*
X50408419Y-33520166D01*
X50319097Y-33344859D01*
X50219438Y-33207691D01*
X50200531Y-33149500D01*
X50219438Y-33091309D01*
X50268938Y-33055345D01*
X50299531Y-33050500D01*
X52850500Y-33050500D01*
X52908691Y-33069407D01*
X52944655Y-33118907D01*
X52949500Y-33149500D01*
X52949500Y-43171091D01*
X52948179Y-43182022D01*
X52948879Y-43182100D01*
X52948160Y-43188549D01*
X52949480Y-43254505D01*
X52949500Y-43256485D01*
X52949500Y-43322475D01*
X52950221Y-43327958D01*
X52951060Y-43333472D01*
X52969400Y-43396822D01*
X52969931Y-43398727D01*
X52987016Y-43462486D01*
X52989135Y-43467602D01*
X52991369Y-43472706D01*
X53025499Y-43529183D01*
X53026504Y-43530884D01*
X53059492Y-43588018D01*
X53062848Y-43592391D01*
X53066337Y-43596756D01*
X53113893Y-43642446D01*
X53115308Y-43643832D01*
X53161987Y-43690511D01*
X53166391Y-43693891D01*
X53170859Y-43697178D01*
X53170861Y-43697180D01*
X53197254Y-43711722D01*
X53228661Y-43729027D01*
X53230386Y-43730000D01*
X53287515Y-43762984D01*
X53287520Y-43762985D01*
X53292645Y-43765108D01*
X53297815Y-43767130D01*
X53361857Y-43782925D01*
X53363774Y-43783418D01*
X53382998Y-43788569D01*
X53427525Y-43800500D01*
X53427527Y-43800500D01*
X53433048Y-43801227D01*
X53438545Y-43801839D01*
X53438546Y-43801838D01*
X53438547Y-43801839D01*
X53504498Y-43800520D01*
X53506478Y-43800500D01*
X53572472Y-43800500D01*
X53572475Y-43800500D01*
X53572477Y-43800499D01*
X53578911Y-43799652D01*
X53579011Y-43800418D01*
X53589903Y-43798811D01*
X54047863Y-43789652D01*
X54106419Y-43807392D01*
X54132157Y-43833631D01*
X54174702Y-43897304D01*
X54322696Y-44045298D01*
X54496718Y-44161575D01*
X54690080Y-44241669D01*
X54895353Y-44282500D01*
X54895354Y-44282500D01*
X55104646Y-44282500D01*
X55104647Y-44282500D01*
X55309920Y-44241669D01*
X55503282Y-44161575D01*
X55569498Y-44117330D01*
X55628387Y-44100722D01*
X55685790Y-44121900D01*
X55719783Y-44172773D01*
X55723500Y-44199646D01*
X55723500Y-47320353D01*
X55704593Y-47378544D01*
X55655093Y-47414508D01*
X55593907Y-47414508D01*
X55569499Y-47402669D01*
X55503281Y-47358424D01*
X55309923Y-47278332D01*
X55309917Y-47278330D01*
X55104649Y-47237500D01*
X55104647Y-47237500D01*
X54895353Y-47237500D01*
X54895350Y-47237500D01*
X54744798Y-47267447D01*
X54684037Y-47260255D01*
X54650179Y-47234615D01*
X50949195Y-42897884D01*
X50925802Y-42841347D01*
X50925500Y-42833618D01*
X50925500Y-39093975D01*
X50925641Y-39088701D01*
X50927880Y-39046723D01*
X50927880Y-39046721D01*
X50927644Y-39045606D01*
X50925500Y-39025114D01*
X50925500Y-39023981D01*
X50914622Y-38983387D01*
X50913392Y-38978255D01*
X50904687Y-38937113D01*
X50904171Y-38936099D01*
X50896796Y-38916858D01*
X50896503Y-38915763D01*
X50875471Y-38879335D01*
X50872970Y-38874722D01*
X50853917Y-38837242D01*
X50853913Y-38837237D01*
X50853159Y-38836398D01*
X50841048Y-38819713D01*
X50840485Y-38818737D01*
X50810758Y-38789010D01*
X50807131Y-38785183D01*
X50779029Y-38753915D01*
X50779019Y-38753906D01*
X50778064Y-38753285D01*
X50762071Y-38740322D01*
X50761267Y-38739518D01*
X50761261Y-38739513D01*
X50737238Y-38725644D01*
X50724847Y-38718490D01*
X50720364Y-38715740D01*
X50686310Y-38693581D01*
X50685121Y-38692807D01*
X50684040Y-38692454D01*
X50665219Y-38684064D01*
X50665207Y-38684057D01*
X50664237Y-38683497D01*
X50664234Y-38683496D01*
X50664232Y-38683495D01*
X50623618Y-38672612D01*
X50618563Y-38671112D01*
X50578602Y-38658087D01*
X50577692Y-38658038D01*
X50577456Y-38658025D01*
X50557122Y-38654795D01*
X50556025Y-38654501D01*
X50556019Y-38654500D01*
X50556018Y-38654500D01*
X50556016Y-38654500D01*
X50513973Y-38654500D01*
X50508700Y-38654359D01*
X50300212Y-38643239D01*
X50243111Y-38621260D01*
X50214021Y-38582265D01*
X50180942Y-38502404D01*
X50065979Y-38330348D01*
X50065977Y-38330345D01*
X49919655Y-38184023D01*
X49747598Y-38069059D01*
X49747599Y-38069059D01*
X49747597Y-38069058D01*
X49556418Y-37989869D01*
X49353467Y-37949500D01*
X49353465Y-37949500D01*
X48646535Y-37949500D01*
X48646532Y-37949500D01*
X48443581Y-37989869D01*
X48252402Y-38069058D01*
X48080348Y-38184020D01*
X47934020Y-38330348D01*
X47819058Y-38502402D01*
X47739869Y-38693581D01*
X47699500Y-38896532D01*
X47699500Y-39103467D01*
X47739869Y-39306418D01*
X47819058Y-39497597D01*
X47934020Y-39669651D01*
X47934023Y-39669655D01*
X48080345Y-39815977D01*
X48252402Y-39930941D01*
X48443580Y-40010130D01*
X48646535Y-40050500D01*
X48646536Y-40050500D01*
X49353464Y-40050500D01*
X49353465Y-40050500D01*
X49556420Y-40010130D01*
X49747598Y-39930941D01*
X49919655Y-39815977D01*
X49919655Y-39815976D01*
X49920499Y-39815413D01*
X49979387Y-39798805D01*
X50036791Y-39819983D01*
X50070783Y-39870857D01*
X50074500Y-39897729D01*
X50074500Y-40602270D01*
X50055593Y-40660461D01*
X50006093Y-40696425D01*
X49944907Y-40696425D01*
X49920499Y-40684586D01*
X49747597Y-40569058D01*
X49556418Y-40489869D01*
X49353467Y-40449500D01*
X49353465Y-40449500D01*
X48646535Y-40449500D01*
X48646532Y-40449500D01*
X48443581Y-40489869D01*
X48252402Y-40569058D01*
X48080348Y-40684020D01*
X47934020Y-40830348D01*
X47819058Y-41002402D01*
X47739869Y-41193581D01*
X47699500Y-41396532D01*
X47699500Y-41603467D01*
X47739869Y-41806418D01*
X47819058Y-41997597D01*
X47925870Y-42157453D01*
X47934023Y-42169655D01*
X48080345Y-42315977D01*
X48252402Y-42430941D01*
X48443580Y-42510130D01*
X48646535Y-42550500D01*
X48646536Y-42550500D01*
X49353464Y-42550500D01*
X49353465Y-42550500D01*
X49556420Y-42510130D01*
X49747598Y-42430941D01*
X49919655Y-42315977D01*
X49919655Y-42315976D01*
X49920499Y-42315413D01*
X49979387Y-42298805D01*
X50036791Y-42319983D01*
X50070783Y-42370857D01*
X50074500Y-42397729D01*
X50074500Y-43006289D01*
X50074192Y-43014093D01*
X50071408Y-43049295D01*
X50072849Y-43057086D01*
X50074500Y-43075089D01*
X50074500Y-43083016D01*
X50075347Y-43089449D01*
X50072541Y-43089818D01*
X50069947Y-43139124D01*
X50031432Y-43186666D01*
X49972328Y-43202490D01*
X49922529Y-43185943D01*
X49747597Y-43069058D01*
X49556418Y-42989869D01*
X49353467Y-42949500D01*
X49353465Y-42949500D01*
X48646535Y-42949500D01*
X48646532Y-42949500D01*
X48443581Y-42989869D01*
X48252402Y-43069058D01*
X48080348Y-43184020D01*
X47934020Y-43330348D01*
X47819058Y-43502402D01*
X47739869Y-43693581D01*
X47699500Y-43896532D01*
X47699500Y-44103467D01*
X47739869Y-44306418D01*
X47819058Y-44497597D01*
X47934020Y-44669651D01*
X47934023Y-44669655D01*
X48080345Y-44815977D01*
X48252402Y-44930941D01*
X48443580Y-45010130D01*
X48646535Y-45050500D01*
X48646536Y-45050500D01*
X49353464Y-45050500D01*
X49353465Y-45050500D01*
X49556420Y-45010130D01*
X49747598Y-44930941D01*
X49919655Y-44815977D01*
X50065977Y-44669655D01*
X50180941Y-44497598D01*
X50260130Y-44306420D01*
X50300500Y-44103465D01*
X50300500Y-43896535D01*
X50260130Y-43693580D01*
X50260129Y-43693579D01*
X50259181Y-43688810D01*
X50260266Y-43688594D01*
X50261362Y-43632529D01*
X50298286Y-43583741D01*
X50356835Y-43565974D01*
X50414645Y-43586014D01*
X50430204Y-43600687D01*
X51689449Y-45076242D01*
X54003599Y-47787912D01*
X54026992Y-47844449D01*
X54019759Y-47890063D01*
X53978419Y-47989869D01*
X53978330Y-47990083D01*
X53937500Y-48195350D01*
X53937500Y-48404649D01*
X53978330Y-48609917D01*
X53978332Y-48609923D01*
X54058424Y-48803281D01*
X54058425Y-48803282D01*
X54174702Y-48977304D01*
X54322696Y-49125298D01*
X54496718Y-49241575D01*
X54690080Y-49321669D01*
X54895353Y-49362500D01*
X54895354Y-49362500D01*
X55104646Y-49362500D01*
X55104647Y-49362500D01*
X55309920Y-49321669D01*
X55503282Y-49241575D01*
X55569498Y-49197330D01*
X55628387Y-49180722D01*
X55685790Y-49201900D01*
X55719783Y-49252773D01*
X55723500Y-49279646D01*
X55723500Y-49860353D01*
X55704593Y-49918544D01*
X55655093Y-49954508D01*
X55593907Y-49954508D01*
X55569499Y-49942669D01*
X55503281Y-49898424D01*
X55309923Y-49818332D01*
X55309917Y-49818330D01*
X55104649Y-49777500D01*
X55104647Y-49777500D01*
X54895353Y-49777500D01*
X54895350Y-49777500D01*
X54690080Y-49818331D01*
X54690074Y-49818332D01*
X54673406Y-49825236D01*
X54612409Y-49830033D01*
X54565522Y-49803774D01*
X51180754Y-46419006D01*
X51173672Y-46411120D01*
X51156172Y-46389404D01*
X51156171Y-46389403D01*
X51156167Y-46389398D01*
X51143753Y-46380333D01*
X51132133Y-46370385D01*
X51121263Y-46359515D01*
X51097102Y-46345565D01*
X51088223Y-46339784D01*
X51065686Y-46323328D01*
X51065683Y-46323326D01*
X51051348Y-46317784D01*
X51037551Y-46311183D01*
X51024239Y-46303497D01*
X51024235Y-46303496D01*
X50997284Y-46296274D01*
X50987213Y-46292989D01*
X50961183Y-46282926D01*
X50945901Y-46281283D01*
X50930871Y-46278479D01*
X50916019Y-46274500D01*
X50916018Y-46274500D01*
X50888119Y-46274500D01*
X50877535Y-46273933D01*
X50324586Y-46214475D01*
X50268750Y-46189454D01*
X50243706Y-46153928D01*
X50180941Y-46002402D01*
X50065979Y-45830348D01*
X50065977Y-45830345D01*
X49919655Y-45684023D01*
X49747598Y-45569059D01*
X49747599Y-45569059D01*
X49747597Y-45569058D01*
X49556418Y-45489869D01*
X49353467Y-45449500D01*
X49353465Y-45449500D01*
X48646535Y-45449500D01*
X48646532Y-45449500D01*
X48443581Y-45489869D01*
X48252402Y-45569058D01*
X48080348Y-45684020D01*
X47934020Y-45830348D01*
X47819058Y-46002402D01*
X47739869Y-46193581D01*
X47699500Y-46396532D01*
X47699500Y-46603467D01*
X47739869Y-46806418D01*
X47819058Y-46997597D01*
X47934020Y-47169651D01*
X47934023Y-47169655D01*
X48080345Y-47315977D01*
X48252402Y-47430941D01*
X48443580Y-47510130D01*
X48646535Y-47550500D01*
X48646536Y-47550500D01*
X49353464Y-47550500D01*
X49353465Y-47550500D01*
X49556420Y-47510130D01*
X49747598Y-47430941D01*
X49919655Y-47315977D01*
X50065977Y-47169655D01*
X50111896Y-47100930D01*
X50159944Y-47063052D01*
X50204792Y-47057499D01*
X50630540Y-47103279D01*
X50686376Y-47128300D01*
X50689960Y-47131708D01*
X53963774Y-50405522D01*
X53991551Y-50460039D01*
X53985236Y-50513406D01*
X53978332Y-50530074D01*
X53978331Y-50530080D01*
X53937500Y-50735350D01*
X53937500Y-50944649D01*
X53978330Y-51149917D01*
X53978332Y-51149923D01*
X54058424Y-51343281D01*
X54058425Y-51343282D01*
X54174702Y-51517304D01*
X54322696Y-51665298D01*
X54496718Y-51781575D01*
X54690080Y-51861669D01*
X54895353Y-51902500D01*
X54895354Y-51902500D01*
X55104646Y-51902500D01*
X55104647Y-51902500D01*
X55309920Y-51861669D01*
X55503282Y-51781575D01*
X55569498Y-51737330D01*
X55628387Y-51720722D01*
X55685790Y-51741900D01*
X55719783Y-51792773D01*
X55723500Y-51819646D01*
X55723500Y-52400353D01*
X55704593Y-52458544D01*
X55655093Y-52494508D01*
X55593907Y-52494508D01*
X55569499Y-52482669D01*
X55503281Y-52438424D01*
X55309923Y-52358332D01*
X55309917Y-52358330D01*
X55104649Y-52317500D01*
X55104647Y-52317500D01*
X54895353Y-52317500D01*
X54895350Y-52317500D01*
X54690082Y-52358330D01*
X54690076Y-52358332D01*
X54496718Y-52438424D01*
X54322699Y-52554699D01*
X54174699Y-52702699D01*
X54058424Y-52876718D01*
X53978332Y-53070076D01*
X53978330Y-53070082D01*
X53937500Y-53275350D01*
X53937500Y-53484649D01*
X53978330Y-53689917D01*
X53978332Y-53689923D01*
X54058424Y-53883281D01*
X54058425Y-53883282D01*
X54174702Y-54057304D01*
X54322696Y-54205298D01*
X54496718Y-54321575D01*
X54690080Y-54401669D01*
X54895353Y-54442500D01*
X54895354Y-54442500D01*
X55104646Y-54442500D01*
X55104647Y-54442500D01*
X55309920Y-54401669D01*
X55503282Y-54321575D01*
X55569498Y-54277330D01*
X55628387Y-54260722D01*
X55685790Y-54281900D01*
X55719783Y-54332773D01*
X55723500Y-54359646D01*
X55723500Y-54940353D01*
X55704593Y-54998544D01*
X55655093Y-55034508D01*
X55593907Y-55034508D01*
X55569499Y-55022669D01*
X55503281Y-54978424D01*
X55309923Y-54898332D01*
X55309917Y-54898330D01*
X55104649Y-54857500D01*
X55104647Y-54857500D01*
X54895353Y-54857500D01*
X54895350Y-54857500D01*
X54690082Y-54898330D01*
X54690076Y-54898332D01*
X54496718Y-54978424D01*
X54322699Y-55094699D01*
X54174699Y-55242699D01*
X54058424Y-55416718D01*
X53978332Y-55610076D01*
X53978330Y-55610082D01*
X53937500Y-55815350D01*
X53937500Y-56024649D01*
X53978330Y-56229917D01*
X53978332Y-56229923D01*
X54058424Y-56423281D01*
X54174699Y-56597300D01*
X54174702Y-56597304D01*
X54322696Y-56745298D01*
X54496718Y-56861575D01*
X54690080Y-56941669D01*
X54895353Y-56982500D01*
X54895354Y-56982500D01*
X55104646Y-56982500D01*
X55104647Y-56982500D01*
X55309920Y-56941669D01*
X55503282Y-56861575D01*
X55569498Y-56817330D01*
X55628387Y-56800722D01*
X55685790Y-56821900D01*
X55719783Y-56872773D01*
X55723500Y-56899646D01*
X55723500Y-57250712D01*
X55704593Y-57308903D01*
X55655093Y-57344867D01*
X55593907Y-57344867D01*
X55579555Y-57338922D01*
X55484440Y-57290459D01*
X55295514Y-57229073D01*
X55099325Y-57198000D01*
X54900675Y-57198000D01*
X54704485Y-57229073D01*
X54515559Y-57290459D01*
X54338567Y-57380641D01*
X54301283Y-57407728D01*
X54870591Y-57977037D01*
X54807007Y-57994075D01*
X54692993Y-58059901D01*
X54599901Y-58152993D01*
X54534075Y-58267007D01*
X54517037Y-58330592D01*
X53947728Y-57761283D01*
X53920641Y-57798567D01*
X53830459Y-57975559D01*
X53769073Y-58164485D01*
X53738000Y-58360674D01*
X53738000Y-58559325D01*
X53769073Y-58755514D01*
X53830459Y-58944440D01*
X53920637Y-59121425D01*
X53947729Y-59158714D01*
X54517036Y-58589406D01*
X54534075Y-58652993D01*
X54599901Y-58767007D01*
X54692993Y-58860099D01*
X54807007Y-58925925D01*
X54870590Y-58942962D01*
X54301283Y-59512270D01*
X54338564Y-59539357D01*
X54338568Y-59539359D01*
X54515559Y-59629540D01*
X54704485Y-59690926D01*
X54900675Y-59722000D01*
X55099325Y-59722000D01*
X55295514Y-59690926D01*
X55484444Y-59629539D01*
X55484447Y-59629538D01*
X55579555Y-59581078D01*
X55639987Y-59571506D01*
X55694503Y-59599283D01*
X55722281Y-59653800D01*
X55723500Y-59669287D01*
X55723500Y-60020353D01*
X55704593Y-60078544D01*
X55655093Y-60114508D01*
X55593907Y-60114508D01*
X55569499Y-60102669D01*
X55503281Y-60058424D01*
X55309923Y-59978332D01*
X55309917Y-59978330D01*
X55104649Y-59937500D01*
X55104647Y-59937500D01*
X54895353Y-59937500D01*
X54895350Y-59937500D01*
X54690082Y-59978330D01*
X54690076Y-59978332D01*
X54496718Y-60058424D01*
X54322699Y-60174699D01*
X54174699Y-60322699D01*
X54058423Y-60496720D01*
X54051521Y-60513385D01*
X54011785Y-60559911D01*
X53960057Y-60574500D01*
X51467256Y-60574500D01*
X51409065Y-60555593D01*
X51397252Y-60545504D01*
X51174444Y-60322696D01*
X50761263Y-59909515D01*
X50761260Y-59909513D01*
X50664240Y-59853498D01*
X50664242Y-59853498D01*
X50622251Y-59842247D01*
X50556018Y-59824500D01*
X50556016Y-59824500D01*
X50147729Y-59824500D01*
X50089538Y-59805593D01*
X50053574Y-59756093D01*
X50053574Y-59694907D01*
X50065413Y-59670499D01*
X50092782Y-59629538D01*
X50180941Y-59497598D01*
X50260130Y-59306420D01*
X50300500Y-59103465D01*
X50300500Y-58896535D01*
X50260130Y-58693580D01*
X50180941Y-58502402D01*
X50120396Y-58411789D01*
X50065979Y-58330348D01*
X50065977Y-58330345D01*
X49919655Y-58184023D01*
X49919651Y-58184020D01*
X49747597Y-58069058D01*
X49556418Y-57989869D01*
X49353467Y-57949500D01*
X49353465Y-57949500D01*
X48646535Y-57949500D01*
X48646532Y-57949500D01*
X48443581Y-57989869D01*
X48252402Y-58069058D01*
X48080348Y-58184020D01*
X47934020Y-58330348D01*
X47819058Y-58502402D01*
X47739869Y-58693581D01*
X47699500Y-58896532D01*
X47699500Y-59103467D01*
X47739869Y-59306418D01*
X47819058Y-59497597D01*
X47934587Y-59670499D01*
X47951195Y-59729387D01*
X47930017Y-59786791D01*
X47879143Y-59820783D01*
X47852271Y-59824500D01*
X47556018Y-59824500D01*
X47443981Y-59824500D01*
X47377748Y-59842246D01*
X47335758Y-59853498D01*
X47238739Y-59909513D01*
X46602748Y-60545504D01*
X46548231Y-60573281D01*
X46532744Y-60574500D01*
X38843956Y-60574500D01*
X38785765Y-60555593D01*
X38773952Y-60545504D01*
X34624980Y-56396532D01*
X47699500Y-56396532D01*
X47699500Y-56603467D01*
X47739869Y-56806418D01*
X47819058Y-56997597D01*
X47819059Y-56997598D01*
X47934023Y-57169655D01*
X48080345Y-57315977D01*
X48252402Y-57430941D01*
X48443580Y-57510130D01*
X48646535Y-57550500D01*
X48646536Y-57550500D01*
X49353464Y-57550500D01*
X49353465Y-57550500D01*
X49556420Y-57510130D01*
X49747598Y-57430941D01*
X49919655Y-57315977D01*
X50065977Y-57169655D01*
X50180941Y-56997598D01*
X50260130Y-56806420D01*
X50300500Y-56603465D01*
X50300500Y-56396535D01*
X50260130Y-56193580D01*
X50180941Y-56002402D01*
X50065977Y-55830345D01*
X49919655Y-55684023D01*
X49747598Y-55569059D01*
X49747599Y-55569059D01*
X49747597Y-55569058D01*
X49556418Y-55489869D01*
X49353467Y-55449500D01*
X49353465Y-55449500D01*
X48646535Y-55449500D01*
X48646532Y-55449500D01*
X48443581Y-55489869D01*
X48252402Y-55569058D01*
X48080348Y-55684020D01*
X47934020Y-55830348D01*
X47819058Y-56002402D01*
X47739869Y-56193581D01*
X47699500Y-56396532D01*
X34624980Y-56396532D01*
X32124980Y-53896532D01*
X47699500Y-53896532D01*
X47699500Y-54103467D01*
X47739869Y-54306418D01*
X47819058Y-54497597D01*
X47819059Y-54497598D01*
X47934023Y-54669655D01*
X48080345Y-54815977D01*
X48252402Y-54930941D01*
X48443580Y-55010130D01*
X48646535Y-55050500D01*
X48646536Y-55050500D01*
X49353464Y-55050500D01*
X49353465Y-55050500D01*
X49556420Y-55010130D01*
X49747598Y-54930941D01*
X49919655Y-54815977D01*
X50065977Y-54669655D01*
X50180941Y-54497598D01*
X50260130Y-54306420D01*
X50300500Y-54103465D01*
X50300500Y-53896535D01*
X50260130Y-53693580D01*
X50180941Y-53502402D01*
X50065977Y-53330345D01*
X49919655Y-53184023D01*
X49919651Y-53184020D01*
X49747597Y-53069058D01*
X49556418Y-52989869D01*
X49353467Y-52949500D01*
X49353465Y-52949500D01*
X48646535Y-52949500D01*
X48646532Y-52949500D01*
X48443581Y-52989869D01*
X48252402Y-53069058D01*
X48080348Y-53184020D01*
X47934020Y-53330348D01*
X47819058Y-53502402D01*
X47739869Y-53693581D01*
X47699500Y-53896532D01*
X32124980Y-53896532D01*
X29624980Y-51396532D01*
X47699500Y-51396532D01*
X47699500Y-51603467D01*
X47739869Y-51806418D01*
X47819058Y-51997597D01*
X47819059Y-51997598D01*
X47934023Y-52169655D01*
X48080345Y-52315977D01*
X48252402Y-52430941D01*
X48443580Y-52510130D01*
X48646535Y-52550500D01*
X48646536Y-52550500D01*
X49353464Y-52550500D01*
X49353465Y-52550500D01*
X49556420Y-52510130D01*
X49747598Y-52430941D01*
X49919655Y-52315977D01*
X50065977Y-52169655D01*
X50180941Y-51997598D01*
X50260130Y-51806420D01*
X50300500Y-51603465D01*
X50300500Y-51396535D01*
X50260130Y-51193580D01*
X50180941Y-51002402D01*
X50065977Y-50830345D01*
X49919655Y-50684023D01*
X49747598Y-50569059D01*
X49747599Y-50569059D01*
X49747597Y-50569058D01*
X49556418Y-50489869D01*
X49353467Y-50449500D01*
X49353465Y-50449500D01*
X48646535Y-50449500D01*
X48646532Y-50449500D01*
X48443581Y-50489869D01*
X48252402Y-50569058D01*
X48080348Y-50684020D01*
X47934020Y-50830348D01*
X47819058Y-51002402D01*
X47739869Y-51193581D01*
X47699500Y-51396532D01*
X29624980Y-51396532D01*
X26978447Y-48749999D01*
X47524014Y-48749999D01*
X47524015Y-48750000D01*
X48509252Y-48750000D01*
X48487482Y-48787708D01*
X48450000Y-48927591D01*
X48450000Y-49072409D01*
X48487482Y-49212292D01*
X48509252Y-49250000D01*
X47524015Y-49250000D01*
X47530777Y-49292704D01*
X47591580Y-49479833D01*
X47680903Y-49655142D01*
X47680907Y-49655148D01*
X47796549Y-49814314D01*
X47935685Y-49953450D01*
X48094851Y-50069092D01*
X48094857Y-50069096D01*
X48270170Y-50158421D01*
X48270173Y-50158423D01*
X48457285Y-50219220D01*
X48457289Y-50219221D01*
X48651620Y-50250000D01*
X48749999Y-50250000D01*
X48750000Y-50249999D01*
X48750000Y-49490747D01*
X48787708Y-49512518D01*
X48927591Y-49550000D01*
X49072409Y-49550000D01*
X49212292Y-49512518D01*
X49250000Y-49490747D01*
X49250000Y-50249999D01*
X49250001Y-50250000D01*
X49348380Y-50250000D01*
X49542710Y-50219221D01*
X49542714Y-50219220D01*
X49729826Y-50158423D01*
X49729829Y-50158421D01*
X49905142Y-50069096D01*
X49905148Y-50069092D01*
X50064314Y-49953450D01*
X50203450Y-49814314D01*
X50319092Y-49655148D01*
X50319096Y-49655142D01*
X50408419Y-49479833D01*
X50469222Y-49292704D01*
X50475985Y-49250000D01*
X49490748Y-49250000D01*
X49512518Y-49212292D01*
X49550000Y-49072409D01*
X49550000Y-48927591D01*
X49512518Y-48787708D01*
X49490748Y-48750000D01*
X50475985Y-48750000D01*
X50475985Y-48749999D01*
X50469222Y-48707295D01*
X50408419Y-48520166D01*
X50319096Y-48344857D01*
X50319092Y-48344851D01*
X50203450Y-48185685D01*
X50064314Y-48046549D01*
X49905148Y-47930907D01*
X49905142Y-47930903D01*
X49729829Y-47841578D01*
X49729826Y-47841576D01*
X49542714Y-47780779D01*
X49542710Y-47780778D01*
X49348380Y-47750000D01*
X49250001Y-47750000D01*
X49250000Y-47750001D01*
X49250000Y-48509252D01*
X49212292Y-48487482D01*
X49072409Y-48450000D01*
X48927591Y-48450000D01*
X48787708Y-48487482D01*
X48750000Y-48509252D01*
X48750000Y-47750001D01*
X48749999Y-47750000D01*
X48651620Y-47750000D01*
X48457289Y-47780778D01*
X48457285Y-47780779D01*
X48270173Y-47841576D01*
X48270170Y-47841578D01*
X48094857Y-47930903D01*
X48094851Y-47930907D01*
X47935685Y-48046549D01*
X47796549Y-48185685D01*
X47680907Y-48344851D01*
X47680903Y-48344857D01*
X47591580Y-48520166D01*
X47530777Y-48707295D01*
X47524014Y-48749999D01*
X26978447Y-48749999D01*
X24655368Y-46426920D01*
X24645715Y-46415702D01*
X24635797Y-46402262D01*
X24615029Y-46385700D01*
X24606754Y-46378305D01*
X24587964Y-46359516D01*
X24587963Y-46359515D01*
X24581612Y-46355848D01*
X24573489Y-46351158D01*
X24561269Y-46342826D01*
X24548207Y-46332409D01*
X24523849Y-46321780D01*
X24513946Y-46316781D01*
X24510892Y-46315018D01*
X24490937Y-46303497D01*
X24490936Y-46303496D01*
X24474795Y-46299171D01*
X24460832Y-46294285D01*
X24445520Y-46287604D01*
X24445516Y-46287603D01*
X24419234Y-46283640D01*
X24408381Y-46281376D01*
X24382718Y-46274500D01*
X24382715Y-46274500D01*
X24366014Y-46274500D01*
X24351251Y-46273393D01*
X24342445Y-46272065D01*
X24287724Y-46244692D01*
X24262518Y-46197940D01*
X24261542Y-46198237D01*
X24260132Y-46193590D01*
X24260130Y-46193580D01*
X24180941Y-46002402D01*
X24065977Y-45830345D01*
X23919655Y-45684023D01*
X23747598Y-45569059D01*
X23747599Y-45569059D01*
X23747597Y-45569058D01*
X23556418Y-45489869D01*
X23353467Y-45449500D01*
X23353465Y-45449500D01*
X22646535Y-45449500D01*
X22646532Y-45449500D01*
X22443581Y-45489869D01*
X22252402Y-45569058D01*
X22080348Y-45684020D01*
X21934020Y-45830348D01*
X21819058Y-46002402D01*
X21739869Y-46193581D01*
X21699500Y-46396532D01*
X21699500Y-46603467D01*
X21739869Y-46806418D01*
X21819058Y-46997597D01*
X21934020Y-47169651D01*
X21934023Y-47169655D01*
X22080345Y-47315977D01*
X22252402Y-47430941D01*
X22443580Y-47510130D01*
X22646535Y-47550500D01*
X22646536Y-47550500D01*
X23353464Y-47550500D01*
X23353465Y-47550500D01*
X23556420Y-47510130D01*
X23747598Y-47430941D01*
X23919655Y-47315977D01*
X24060289Y-47175342D01*
X24114804Y-47147566D01*
X24175236Y-47157137D01*
X24200295Y-47175343D01*
X38365437Y-61340485D01*
X38397779Y-61359157D01*
X38462459Y-61396501D01*
X38462457Y-61396501D01*
X38462461Y-61396502D01*
X38462463Y-61396503D01*
X38570682Y-61425500D01*
X38570684Y-61425500D01*
X46806016Y-61425500D01*
X46806018Y-61425500D01*
X46914237Y-61396503D01*
X46914239Y-61396501D01*
X46914241Y-61396501D01*
X46968599Y-61365117D01*
X47011263Y-61340485D01*
X47647252Y-60704496D01*
X47701769Y-60676719D01*
X47717256Y-60675500D01*
X47852271Y-60675500D01*
X47910462Y-60694407D01*
X47946426Y-60743907D01*
X47946426Y-60805093D01*
X47934587Y-60829501D01*
X47819058Y-61002402D01*
X47739869Y-61193581D01*
X47699500Y-61396532D01*
X47699500Y-61603467D01*
X47739869Y-61806418D01*
X47819058Y-61997597D01*
X47934020Y-62169651D01*
X47934023Y-62169655D01*
X48080345Y-62315977D01*
X48252402Y-62430941D01*
X48443580Y-62510130D01*
X48646535Y-62550500D01*
X48646536Y-62550500D01*
X49353464Y-62550500D01*
X49353465Y-62550500D01*
X49556420Y-62510130D01*
X49747598Y-62430941D01*
X49919655Y-62315977D01*
X50025004Y-62210626D01*
X50079520Y-62182849D01*
X50116483Y-62183986D01*
X50746977Y-62324096D01*
X50799680Y-62355177D01*
X50824049Y-62411300D01*
X50824500Y-62420739D01*
X50824500Y-85302841D01*
X50805593Y-85361032D01*
X50775001Y-85388577D01*
X50738739Y-85409513D01*
X50659513Y-85488739D01*
X50603498Y-85585758D01*
X50603497Y-85585763D01*
X50574500Y-85693982D01*
X50574500Y-87943982D01*
X50574500Y-88056018D01*
X50600072Y-88151455D01*
X50603498Y-88164241D01*
X50659513Y-88261260D01*
X50659515Y-88261263D01*
X50738737Y-88340485D01*
X50738739Y-88340486D01*
X50835759Y-88396501D01*
X50835757Y-88396501D01*
X50835761Y-88396502D01*
X50835763Y-88396503D01*
X50943982Y-88425500D01*
X50943984Y-88425500D01*
X104806016Y-88425500D01*
X104806018Y-88425500D01*
X104914237Y-88396503D01*
X104914239Y-88396501D01*
X104914241Y-88396501D01*
X104943064Y-88379859D01*
X105011263Y-88340485D01*
X105090485Y-88261263D01*
X105136995Y-88180705D01*
X105146501Y-88164241D01*
X105146501Y-88164239D01*
X105146503Y-88164237D01*
X105175500Y-88056018D01*
X105175500Y-84878710D01*
X108149500Y-84878710D01*
X108149500Y-85121289D01*
X108181161Y-85361781D01*
X108181161Y-85361786D01*
X108243944Y-85596092D01*
X108243948Y-85596105D01*
X108336772Y-85820204D01*
X108336774Y-85820208D01*
X108336776Y-85820212D01*
X108390821Y-85913820D01*
X108458066Y-86030292D01*
X108605729Y-86222731D01*
X108605731Y-86222733D01*
X108605735Y-86222738D01*
X108777262Y-86394265D01*
X108777266Y-86394268D01*
X108777268Y-86394270D01*
X108803591Y-86414468D01*
X108969711Y-86541936D01*
X109179788Y-86663224D01*
X109403900Y-86756054D01*
X109638211Y-86818838D01*
X109878712Y-86850500D01*
X109878713Y-86850500D01*
X110121287Y-86850500D01*
X110121288Y-86850500D01*
X110361789Y-86818838D01*
X110596100Y-86756054D01*
X110820212Y-86663224D01*
X111030289Y-86541936D01*
X111222738Y-86394265D01*
X111394265Y-86222738D01*
X111541936Y-86030289D01*
X111663224Y-85820212D01*
X111756054Y-85596100D01*
X111818838Y-85361789D01*
X111850500Y-85121288D01*
X111850500Y-84878712D01*
X111818838Y-84638211D01*
X111756054Y-84403900D01*
X111663224Y-84179788D01*
X111541936Y-83969711D01*
X111394265Y-83777262D01*
X111222738Y-83605735D01*
X111222733Y-83605731D01*
X111222731Y-83605729D01*
X111030292Y-83458066D01*
X111030289Y-83458064D01*
X110820212Y-83336776D01*
X110820208Y-83336774D01*
X110820204Y-83336772D01*
X110596105Y-83243948D01*
X110596104Y-83243947D01*
X110596100Y-83243946D01*
X110361789Y-83181162D01*
X110361786Y-83181161D01*
X110361784Y-83181161D01*
X110121289Y-83149500D01*
X110121288Y-83149500D01*
X109878712Y-83149500D01*
X109878710Y-83149500D01*
X109638218Y-83181161D01*
X109638213Y-83181161D01*
X109403907Y-83243944D01*
X109403894Y-83243948D01*
X109179795Y-83336772D01*
X108969707Y-83458066D01*
X108777268Y-83605729D01*
X108605729Y-83777268D01*
X108458066Y-83969707D01*
X108336772Y-84179795D01*
X108243948Y-84403894D01*
X108243944Y-84403907D01*
X108181161Y-84638213D01*
X108181161Y-84638218D01*
X108149500Y-84878710D01*
X105175500Y-84878710D01*
X105175500Y-43779181D01*
X105194407Y-43720990D01*
X105243907Y-43685026D01*
X105275374Y-43680185D01*
X105804255Y-43684887D01*
X105862274Y-43704311D01*
X105891581Y-43738935D01*
X105922909Y-43800418D01*
X105971882Y-43896535D01*
X105973240Y-43899199D01*
X106084310Y-44052073D01*
X106217927Y-44185690D01*
X106370801Y-44296760D01*
X106370803Y-44296761D01*
X106455346Y-44339838D01*
X106498611Y-44383103D01*
X106508182Y-44443535D01*
X106480404Y-44498052D01*
X106455346Y-44516258D01*
X106266242Y-44612611D01*
X106087962Y-44742139D01*
X105932139Y-44897962D01*
X105802611Y-45076242D01*
X105702569Y-45272586D01*
X105634471Y-45482170D01*
X105622144Y-45559999D01*
X105622145Y-45560000D01*
X106566988Y-45560000D01*
X106534075Y-45617007D01*
X106500000Y-45744174D01*
X106500000Y-45875826D01*
X106534075Y-46002993D01*
X106566988Y-46060000D01*
X105622144Y-46060000D01*
X105634471Y-46137829D01*
X105702569Y-46347413D01*
X105802611Y-46543757D01*
X105932139Y-46722037D01*
X106087962Y-46877860D01*
X106266242Y-47007388D01*
X106462586Y-47107430D01*
X106672169Y-47175528D01*
X106749999Y-47187854D01*
X106750000Y-47187853D01*
X106750000Y-46243012D01*
X106807007Y-46275925D01*
X106934174Y-46310000D01*
X107065826Y-46310000D01*
X107192993Y-46275925D01*
X107250000Y-46243012D01*
X107250000Y-47187854D01*
X107327830Y-47175528D01*
X107537413Y-47107430D01*
X107733757Y-47007388D01*
X107912037Y-46877860D01*
X108067860Y-46722037D01*
X108197388Y-46543757D01*
X108297430Y-46347413D01*
X108365528Y-46137829D01*
X108377855Y-46060000D01*
X107433012Y-46060000D01*
X107465925Y-46002993D01*
X107500000Y-45875826D01*
X107500000Y-45744174D01*
X107465925Y-45617007D01*
X107433012Y-45560000D01*
X108377855Y-45560000D01*
X108377855Y-45559999D01*
X108365528Y-45482170D01*
X108297430Y-45272586D01*
X108197388Y-45076242D01*
X108067860Y-44897962D01*
X107912037Y-44742139D01*
X107733757Y-44612611D01*
X107544653Y-44516258D01*
X107501388Y-44472993D01*
X107491817Y-44412561D01*
X107519594Y-44358044D01*
X107544653Y-44339838D01*
X107629199Y-44296760D01*
X107782073Y-44185690D01*
X107915690Y-44052073D01*
X108026760Y-43899199D01*
X108112547Y-43730832D01*
X108170940Y-43551118D01*
X108183360Y-43472700D01*
X108200500Y-43364484D01*
X108200500Y-43175515D01*
X108170941Y-42988886D01*
X108170857Y-42988626D01*
X108112547Y-42809168D01*
X108026760Y-42640801D01*
X107915690Y-42487927D01*
X107782073Y-42354310D01*
X107629199Y-42243240D01*
X107629198Y-42243239D01*
X107629196Y-42243238D01*
X107460832Y-42157453D01*
X107281113Y-42099058D01*
X107273046Y-42097781D01*
X107218529Y-42070004D01*
X107190751Y-42015488D01*
X107200322Y-41955056D01*
X107243586Y-41911791D01*
X107273046Y-41902219D01*
X107281113Y-41900941D01*
X107281114Y-41900940D01*
X107281118Y-41900940D01*
X107460832Y-41842547D01*
X107629199Y-41756760D01*
X107782073Y-41645690D01*
X107915690Y-41512073D01*
X108026760Y-41359199D01*
X108112547Y-41190832D01*
X108170940Y-41011118D01*
X108170941Y-41011113D01*
X108200500Y-40824484D01*
X108200500Y-40635515D01*
X108170941Y-40448886D01*
X108170940Y-40448882D01*
X108112547Y-40269168D01*
X108026760Y-40100801D01*
X107915690Y-39947927D01*
X107782073Y-39814310D01*
X107629199Y-39703240D01*
X107629198Y-39703239D01*
X107629196Y-39703238D01*
X107460832Y-39617453D01*
X107356810Y-39583654D01*
X107307310Y-39547690D01*
X107288403Y-39489499D01*
X107307310Y-39431308D01*
X107356811Y-39395344D01*
X107387401Y-39390499D01*
X107944864Y-39390499D01*
X107969991Y-39387585D01*
X108072765Y-39342206D01*
X108152206Y-39262765D01*
X108197585Y-39159991D01*
X108200500Y-39134865D01*
X108200499Y-37245136D01*
X108197585Y-37220009D01*
X108152206Y-37117235D01*
X108072765Y-37037794D01*
X107969991Y-36992415D01*
X107969990Y-36992414D01*
X107969988Y-36992414D01*
X107944869Y-36989500D01*
X107944865Y-36989500D01*
X107649500Y-36989500D01*
X107591309Y-36970593D01*
X107555345Y-36921093D01*
X107550500Y-36890500D01*
X107550500Y-24878710D01*
X108149500Y-24878710D01*
X108149500Y-25121289D01*
X108181161Y-25361781D01*
X108181161Y-25361786D01*
X108243944Y-25596092D01*
X108243948Y-25596105D01*
X108336772Y-25820204D01*
X108336774Y-25820208D01*
X108336776Y-25820212D01*
X108421050Y-25966179D01*
X108458066Y-26030292D01*
X108605729Y-26222731D01*
X108605731Y-26222733D01*
X108605735Y-26222738D01*
X108777262Y-26394265D01*
X108777266Y-26394268D01*
X108777268Y-26394270D01*
X108969707Y-26541933D01*
X108969711Y-26541936D01*
X109179788Y-26663224D01*
X109403900Y-26756054D01*
X109638211Y-26818838D01*
X109878712Y-26850500D01*
X109878713Y-26850500D01*
X110121287Y-26850500D01*
X110121288Y-26850500D01*
X110361789Y-26818838D01*
X110596100Y-26756054D01*
X110820212Y-26663224D01*
X111030289Y-26541936D01*
X111222738Y-26394265D01*
X111394265Y-26222738D01*
X111541936Y-26030289D01*
X111663224Y-25820212D01*
X111756054Y-25596100D01*
X111818838Y-25361789D01*
X111850500Y-25121288D01*
X111850500Y-24878712D01*
X111818838Y-24638211D01*
X111756054Y-24403900D01*
X111663224Y-24179788D01*
X111541936Y-23969711D01*
X111394265Y-23777262D01*
X111222738Y-23605735D01*
X111222733Y-23605731D01*
X111222731Y-23605729D01*
X111030292Y-23458066D01*
X111030289Y-23458064D01*
X110820212Y-23336776D01*
X110820208Y-23336774D01*
X110820204Y-23336772D01*
X110596105Y-23243948D01*
X110596104Y-23243947D01*
X110596100Y-23243946D01*
X110361789Y-23181162D01*
X110361786Y-23181161D01*
X110361784Y-23181161D01*
X110121289Y-23149500D01*
X110121288Y-23149500D01*
X109878712Y-23149500D01*
X109878710Y-23149500D01*
X109638218Y-23181161D01*
X109638213Y-23181161D01*
X109403907Y-23243944D01*
X109403894Y-23243948D01*
X109179795Y-23336772D01*
X108969707Y-23458066D01*
X108777268Y-23605729D01*
X108605729Y-23777268D01*
X108458066Y-23969707D01*
X108336772Y-24179795D01*
X108243948Y-24403894D01*
X108243944Y-24403907D01*
X108181161Y-24638213D01*
X108181161Y-24638218D01*
X108149500Y-24878710D01*
X107550500Y-24878710D01*
X107550500Y-24427525D01*
X107512984Y-24287515D01*
X107512982Y-24287512D01*
X107512982Y-24287510D01*
X107440512Y-24161989D01*
X107440510Y-24161987D01*
X107440509Y-24161985D01*
X107338015Y-24059491D01*
X107338012Y-24059489D01*
X107338010Y-24059487D01*
X107212488Y-23987017D01*
X107212489Y-23987017D01*
X107182896Y-23979087D01*
X107072475Y-23949500D01*
X53572475Y-23949500D01*
X53427525Y-23949500D01*
X53365790Y-23966041D01*
X53287510Y-23987017D01*
X53161989Y-24059487D01*
X53059487Y-24161989D01*
X52987017Y-24287510D01*
X52949500Y-24427525D01*
X52949500Y-31850500D01*
X52930593Y-31908691D01*
X52881093Y-31944655D01*
X52850500Y-31949500D01*
X46822475Y-31949500D01*
X46677525Y-31949500D01*
X46615790Y-31966041D01*
X46537510Y-31987017D01*
X46411989Y-32059487D01*
X46309487Y-32161989D01*
X46237017Y-32287510D01*
X46199500Y-32427525D01*
X46199500Y-33600500D01*
X46180593Y-33658691D01*
X46131093Y-33694655D01*
X46100500Y-33699500D01*
X24399499Y-33699500D01*
X24341308Y-33680593D01*
X24305344Y-33631093D01*
X24300499Y-33600500D01*
X24300499Y-33205139D01*
X24300499Y-33205136D01*
X24297585Y-33180009D01*
X24252206Y-33077235D01*
X24172765Y-32997794D01*
X24069991Y-32952415D01*
X24069990Y-32952414D01*
X24069988Y-32952414D01*
X24044868Y-32949500D01*
X21955139Y-32949500D01*
X21955136Y-32949501D01*
X21930009Y-32952414D01*
X21827235Y-32997794D01*
X21747794Y-33077235D01*
X21702414Y-33180011D01*
X21699500Y-33205130D01*
X20500500Y-33205130D01*
X20500500Y-24878710D01*
X23149500Y-24878710D01*
X23149500Y-25121289D01*
X23181161Y-25361781D01*
X23181161Y-25361786D01*
X23243944Y-25596092D01*
X23243948Y-25596105D01*
X23336772Y-25820204D01*
X23336774Y-25820208D01*
X23336776Y-25820212D01*
X23421050Y-25966179D01*
X23458066Y-26030292D01*
X23605729Y-26222731D01*
X23605731Y-26222733D01*
X23605735Y-26222738D01*
X23777262Y-26394265D01*
X23777266Y-26394268D01*
X23777268Y-26394270D01*
X23969707Y-26541933D01*
X23969711Y-26541936D01*
X24179788Y-26663224D01*
X24403900Y-26756054D01*
X24638211Y-26818838D01*
X24878712Y-26850500D01*
X24878713Y-26850500D01*
X25121287Y-26850500D01*
X25121288Y-26850500D01*
X25361789Y-26818838D01*
X25596100Y-26756054D01*
X25820212Y-26663224D01*
X26030289Y-26541936D01*
X26222738Y-26394265D01*
X26394265Y-26222738D01*
X26541936Y-26030289D01*
X26663224Y-25820212D01*
X26756054Y-25596100D01*
X26818838Y-25361789D01*
X26850500Y-25121288D01*
X26850500Y-24878712D01*
X26818838Y-24638211D01*
X26756054Y-24403900D01*
X26663224Y-24179788D01*
X26541936Y-23969711D01*
X26394265Y-23777262D01*
X26222738Y-23605735D01*
X26222733Y-23605731D01*
X26222731Y-23605729D01*
X26030292Y-23458066D01*
X26030289Y-23458064D01*
X25820212Y-23336776D01*
X25820208Y-23336774D01*
X25820204Y-23336772D01*
X25596105Y-23243948D01*
X25596104Y-23243947D01*
X25596100Y-23243946D01*
X25361789Y-23181162D01*
X25361786Y-23181161D01*
X25361784Y-23181161D01*
X25121289Y-23149500D01*
X25121288Y-23149500D01*
X24878712Y-23149500D01*
X24878710Y-23149500D01*
X24638218Y-23181161D01*
X24638213Y-23181161D01*
X24403907Y-23243944D01*
X24403894Y-23243948D01*
X24179795Y-23336772D01*
X23969707Y-23458066D01*
X23777268Y-23605729D01*
X23605729Y-23777268D01*
X23458066Y-23969707D01*
X23336772Y-24179795D01*
X23243948Y-24403894D01*
X23243944Y-24403907D01*
X23181161Y-24638213D01*
X23181161Y-24638218D01*
X23149500Y-24878710D01*
X20500500Y-24878710D01*
X20500500Y-23002984D01*
X20500681Y-22997007D01*
X20518362Y-22704696D01*
X20518363Y-22704695D01*
X20518362Y-22704688D01*
X20519801Y-22692837D01*
X20572052Y-22407715D01*
X20574912Y-22396114D01*
X20661148Y-22119370D01*
X20665378Y-22108218D01*
X20784350Y-21843875D01*
X20789891Y-21833315D01*
X20939868Y-21585221D01*
X20946632Y-21575424D01*
X21125407Y-21347235D01*
X21133319Y-21338303D01*
X21338303Y-21133319D01*
X21347235Y-21125407D01*
X21575424Y-20946632D01*
X21585221Y-20939868D01*
X21833315Y-20789891D01*
X21843875Y-20784350D01*
X22108218Y-20665378D01*
X22119370Y-20661148D01*
X22396121Y-20574910D01*
X22407715Y-20572052D01*
X22692837Y-20519801D01*
X22704688Y-20518362D01*
X22997008Y-20500681D01*
X23002985Y-20500500D01*
X23065892Y-20500500D01*
X27401000Y-20500500D01*
X27459191Y-20519407D01*
G37*
%TD.AperFunction*%
%TD*%
M02*
