%TF.GenerationSoftware,KiCad,Pcbnew,10.0.5*%
%TF.CreationDate,2026-08-30T12:15:25+07:00*%
%TF.ProjectId,vsmart-module-carrier,76736d61-7274-42d6-9d6f-64756c652d63,rev?*%
%TF.SameCoordinates,Original*%
%TF.FileFunction,Copper,L2,Bot*%
%TF.FilePolarity,Positive*%
%FSLAX46Y46*%
G04 Gerber Fmt 4.6, Leading zero omitted, Abs format (unit mm)*
G04 Created by KiCad (PCBNEW 10.0.5) date 2026-08-30 12:15:25*
%MOMM*%
%LPD*%
G01*
G04 APERTURE LIST*
G04 Aperture macros list*
%AMRoundRect*
0 Rectangle with rounded corners*
0 $1 Rounding radius*
0 $2 $3 $4 $5 $6 $7 $8 $9 X,Y pos of 4 corners*
0 Add a 4 corners polygon primitive as box body*
4,1,4,$2,$3,$4,$5,$6,$7,$8,$9,$2,$3,0*
0 Add four circle primitives for the rounded corners*
1,1,$1+$1,$2,$3*
1,1,$1+$1,$4,$5*
1,1,$1+$1,$6,$7*
1,1,$1+$1,$8,$9*
0 Add four rect primitives between the rounded corners*
20,1,$1+$1,$2,$3,$4,$5,0*
20,1,$1+$1,$4,$5,$6,$7,0*
20,1,$1+$1,$6,$7,$8,$9,0*
20,1,$1+$1,$8,$9,$2,$3,0*%
G04 Aperture macros list end*
%TA.AperFunction,ComponentPad*%
%ADD10R,1.700000X1.700000*%
%TD*%
%TA.AperFunction,ComponentPad*%
%ADD11O,1.700000X1.700000*%
%TD*%
%TA.AperFunction,ComponentPad*%
%ADD12C,1.524000*%
%TD*%
%TA.AperFunction,ComponentPad*%
%ADD13RoundRect,0.250000X-1.125000X-1.125000X1.125000X-1.125000X1.125000X1.125000X-1.125000X1.125000X0*%
%TD*%
%TA.AperFunction,ComponentPad*%
%ADD14C,2.750000*%
%TD*%
%TA.AperFunction,ComponentPad*%
%ADD15RoundRect,0.250000X-0.750000X-0.750000X0.750000X-0.750000X0.750000X0.750000X-0.750000X0.750000X0*%
%TD*%
%TA.AperFunction,ComponentPad*%
%ADD16C,2.000000*%
%TD*%
%TA.AperFunction,ComponentPad*%
%ADD17RoundRect,0.250000X-0.550000X-0.550000X0.550000X-0.550000X0.550000X0.550000X-0.550000X0.550000X0*%
%TD*%
%TA.AperFunction,ComponentPad*%
%ADD18C,1.600000*%
%TD*%
%TA.AperFunction,ComponentPad*%
%ADD19R,2.000000X1.200000*%
%TD*%
%TA.AperFunction,ComponentPad*%
%ADD20O,2.000000X1.200000*%
%TD*%
%TA.AperFunction,ComponentPad*%
%ADD21R,1.800000X1.800000*%
%TD*%
%TA.AperFunction,ComponentPad*%
%ADD22O,1.800000X1.800000*%
%TD*%
%TA.AperFunction,ViaPad*%
%ADD23C,0.600000*%
%TD*%
%TA.AperFunction,ViaPad*%
%ADD24C,0.800000*%
%TD*%
%TA.AperFunction,Conductor*%
%ADD25C,0.250000*%
%TD*%
%TA.AperFunction,Conductor*%
%ADD26C,1.000000*%
%TD*%
%TA.AperFunction,Conductor*%
%ADD27C,0.500000*%
%TD*%
G04 APERTURE END LIST*
D10*
%TO.P,U4,1*%
%TO.N,SIM_RI*%
X115500000Y-73000000D03*
D11*
%TO.P,U4,2*%
%TO.N,SIM_DTR*%
X115500000Y-75540000D03*
%TO.P,U4,3*%
%TO.N,N/C*%
X115500000Y-78080000D03*
%TO.P,U4,4*%
X115500000Y-80620000D03*
%TO.P,U4,5*%
X115500000Y-83160000D03*
%TO.P,U4,6*%
X115500000Y-85700000D03*
D10*
%TO.P,U4,7*%
X93426400Y-70476000D03*
D11*
%TO.P,U4,8*%
%TO.N,+5V_SIM*%
X93426400Y-73016000D03*
%TO.P,U4,9*%
%TO.N,SIM_RST*%
X93426400Y-75556000D03*
%TO.P,U4,10*%
%TO.N,SIM_TX*%
X93426400Y-78096000D03*
%TO.P,U4,11*%
%TO.N,SIM_RX*%
X93426400Y-80636000D03*
%TO.P,U4,12*%
%TO.N,GND*%
X93426400Y-83176000D03*
%TD*%
D12*
%TO.P,U2,1*%
%TO.N,+3V3*%
X65000000Y-59220000D03*
%TO.P,U2,2*%
%TO.N,GND*%
X65000000Y-61760000D03*
%TO.P,U2,3*%
%TO.N,I2C_SCL*%
X65000000Y-64300000D03*
%TO.P,U2,4*%
%TO.N,I2C_SDA*%
X65000000Y-66840000D03*
%TO.P,U2,5*%
%TO.N,N/C*%
X65000000Y-69380000D03*
%TO.P,U2,6*%
X65000000Y-71920000D03*
%TO.P,U2,7*%
%TO.N,GND*%
X65000000Y-74460000D03*
%TO.P,U2,8*%
%TO.N,MPU_INT*%
X65000000Y-77000000D03*
%TD*%
D13*
%TO.P,J2,1*%
%TO.N,+5V_SIM*%
X105000000Y-98000000D03*
D14*
%TO.P,J2,2*%
%TO.N,GND*%
X110400000Y-98000000D03*
%TD*%
D15*
%TO.P,C1,1*%
%TO.N,+5V_SIM*%
X81000000Y-91000000D03*
D16*
%TO.P,C1,2*%
%TO.N,GND*%
X86000000Y-91000000D03*
%TD*%
D17*
%TO.P,C3,1*%
%TO.N,+5V*%
X55000000Y-34000000D03*
D18*
%TO.P,C3,2*%
%TO.N,GND*%
X58500000Y-34000000D03*
%TD*%
D19*
%TO.P,U1,1*%
%TO.N,+3V3*%
X23000000Y-48000000D03*
D20*
%TO.P,U1,2*%
%TO.N,N/C*%
X23000000Y-50540000D03*
%TO.P,U1,3*%
X23000000Y-53080000D03*
%TO.P,U1,4*%
X23000000Y-55620000D03*
%TO.P,U1,5*%
%TO.N,GPS_PPS*%
X23000000Y-58160000D03*
%TO.P,U1,6*%
%TO.N,MPU_INT*%
X23000000Y-60700000D03*
%TO.P,U1,7*%
%TO.N,SIM_RST*%
X23000000Y-63240000D03*
%TO.P,U1,8*%
%TO.N,SIM_RI*%
X23000000Y-65780000D03*
%TO.P,U1,9*%
%TO.N,SIM_DTR*%
X23000000Y-68320000D03*
%TO.P,U1,10*%
%TO.N,SIM_RX*%
X23000000Y-70860000D03*
%TO.P,U1,11*%
%TO.N,SIM_TX*%
X23000000Y-73400000D03*
%TO.P,U1,12*%
%TO.N,N/C*%
X23000000Y-75940000D03*
%TO.P,U1,13*%
X23000000Y-78480000D03*
%TO.P,U1,14*%
%TO.N,GND*%
X23000000Y-81020000D03*
%TO.P,U1,15*%
%TO.N,N/C*%
X23000000Y-83560000D03*
%TO.P,U1,16*%
X23000000Y-86100000D03*
%TO.P,U1,17*%
X23000000Y-88640000D03*
%TO.P,U1,18*%
X23000000Y-91180000D03*
%TO.P,U1,19*%
%TO.N,+5V*%
X23000000Y-93720000D03*
%TO.P,U1,20*%
%TO.N,N/C*%
X48396320Y-93717280D03*
%TO.P,U1,21*%
X48396320Y-91177280D03*
%TO.P,U1,22*%
X48400000Y-88640000D03*
%TO.P,U1,23*%
X48400000Y-86100000D03*
%TO.P,U1,24*%
X48400000Y-83560000D03*
%TO.P,U1,25*%
X48400000Y-81020000D03*
%TO.P,U1,26*%
X48400000Y-78480000D03*
%TO.P,U1,27*%
%TO.N,GPS_RX*%
X48400000Y-75940000D03*
%TO.P,U1,28*%
%TO.N,GPS_TX*%
X48400000Y-73400000D03*
%TO.P,U1,29*%
%TO.N,N/C*%
X48400000Y-70860000D03*
%TO.P,U1,30*%
X48400000Y-68320000D03*
%TO.P,U1,31*%
X48400000Y-65780000D03*
%TO.P,U1,32*%
%TO.N,GND*%
X48400000Y-63240000D03*
%TO.P,U1,33*%
%TO.N,I2C_SDA*%
X48400000Y-60700000D03*
%TO.P,U1,34*%
%TO.N,N/C*%
X48400000Y-58160000D03*
%TO.P,U1,35*%
X48400000Y-55620000D03*
%TO.P,U1,36*%
%TO.N,I2C_SCL*%
X48400000Y-53080000D03*
%TO.P,U1,37*%
%TO.N,N/C*%
X48400000Y-50540000D03*
%TO.P,U1,38*%
%TO.N,GND*%
X48400000Y-48000000D03*
%TD*%
D13*
%TO.P,J1,1*%
%TO.N,+5V*%
X60000000Y-98000000D03*
D14*
%TO.P,J1,2*%
%TO.N,GND*%
X65400000Y-98000000D03*
%TD*%
D21*
%TO.P,U3,1*%
%TO.N,+3V3*%
X122000000Y-42080000D03*
D22*
%TO.P,U3,2*%
%TO.N,GND*%
X122000000Y-39540000D03*
%TO.P,U3,3*%
%TO.N,GPS_RX*%
X122000000Y-37000000D03*
%TO.P,U3,4*%
%TO.N,GPS_TX*%
X122000000Y-34460000D03*
%TO.P,U3,5*%
%TO.N,GPS_PPS*%
X122000000Y-31920000D03*
%TD*%
D23*
%TO.N,GND*%
X60450000Y-35450000D03*
X35450000Y-50450000D03*
X90450000Y-70450000D03*
X75450000Y-45450000D03*
X95450000Y-70450000D03*
X70450000Y-45450000D03*
X80450000Y-45450000D03*
D24*
X31950000Y-41950000D03*
D23*
X100450000Y-100450000D03*
D24*
X112000000Y-47000000D03*
D23*
X65450000Y-35450000D03*
X35450000Y-30450000D03*
X100450000Y-80450000D03*
X60450000Y-85450000D03*
X100450000Y-95450000D03*
X115450000Y-70450000D03*
X60450000Y-55450000D03*
X90450000Y-55450000D03*
X85450000Y-35450000D03*
X85450000Y-55450000D03*
X50450000Y-35450000D03*
X66292000Y-68110000D03*
X85450000Y-25450000D03*
X40450000Y-70450000D03*
X40450000Y-40450000D03*
X45450000Y-30450000D03*
X25450000Y-35450000D03*
X50450000Y-65450000D03*
X70450000Y-35450000D03*
X25450000Y-85450000D03*
X110450000Y-25450000D03*
X55450000Y-50450000D03*
X115450000Y-25450000D03*
X35450000Y-95450000D03*
X100450000Y-85450000D03*
X40450000Y-60450000D03*
X95450000Y-85450000D03*
X40450000Y-55450000D03*
D24*
X122000000Y-47000000D03*
D23*
X35450000Y-90450000D03*
X110450000Y-60450000D03*
X40450000Y-25450000D03*
X120450000Y-40450000D03*
X110450000Y-100450000D03*
X80450000Y-70450000D03*
X62280000Y-41185000D03*
X120450000Y-70450000D03*
X115450000Y-35450000D03*
X110450000Y-85450000D03*
X105450000Y-45450000D03*
X70450000Y-90450000D03*
X75450000Y-30450000D03*
X80450000Y-65450000D03*
X85450000Y-75450000D03*
X110450000Y-80450000D03*
X95450000Y-75450000D03*
X50450000Y-30450000D03*
X100450000Y-60450000D03*
X95450000Y-80450000D03*
X60450000Y-90450000D03*
X90450000Y-35450000D03*
X120450000Y-60450000D03*
X70450000Y-85450000D03*
X75450000Y-35450000D03*
D24*
X105500000Y-73000000D03*
D23*
X50450000Y-60450000D03*
X40450000Y-50450000D03*
X95450000Y-90450000D03*
X30450000Y-50450000D03*
X85450000Y-30450000D03*
X105450000Y-90450000D03*
X110450000Y-95450000D03*
X100450000Y-45450000D03*
X105450000Y-70450000D03*
X85450000Y-95450000D03*
X90450000Y-50450000D03*
X70450000Y-65450000D03*
X65450000Y-85450000D03*
X40450000Y-35450000D03*
D24*
X31950000Y-51950000D03*
D23*
X35450000Y-80450000D03*
X50450000Y-95450000D03*
D24*
X115500000Y-63000000D03*
D23*
X55450000Y-30450000D03*
X80450000Y-85450000D03*
X105450000Y-25450000D03*
X120450000Y-50450000D03*
X115450000Y-90450000D03*
X80450000Y-100450000D03*
D24*
X31950000Y-61950000D03*
D23*
X95450000Y-100450000D03*
X115450000Y-65450000D03*
X110450000Y-70450000D03*
X95450000Y-35450000D03*
X100450000Y-30450000D03*
D24*
X38895000Y-65375600D03*
D23*
X70450000Y-30450000D03*
X60450000Y-25450000D03*
X30450000Y-55450000D03*
D24*
X41950000Y-61950000D03*
D23*
X115450000Y-50450000D03*
X55450000Y-100450000D03*
X55450000Y-60450000D03*
X110450000Y-75450000D03*
X115450000Y-95450000D03*
X50450000Y-100450000D03*
X80450000Y-60450000D03*
X90450000Y-30450000D03*
X60450000Y-50450000D03*
X55450000Y-35450000D03*
X95450000Y-30450000D03*
X105450000Y-30450000D03*
X120450000Y-80450000D03*
X85450000Y-50450000D03*
X85450000Y-70450000D03*
X25450000Y-95450000D03*
X30450000Y-65450000D03*
X60450000Y-30450000D03*
D24*
X33000000Y-38000000D03*
D23*
X85450000Y-85450000D03*
X55450000Y-25450000D03*
X35450000Y-60450000D03*
X75450000Y-60450000D03*
X25450000Y-90450000D03*
X60450000Y-100450000D03*
X50450000Y-80450000D03*
X90450000Y-45450000D03*
X70450000Y-75450000D03*
X105450000Y-55450000D03*
X35450000Y-45450000D03*
X90450000Y-25450000D03*
X35450000Y-70450000D03*
X35450000Y-25450000D03*
X55450000Y-90450000D03*
X85450000Y-100450000D03*
X105450000Y-60450000D03*
X100450000Y-70450000D03*
X55450000Y-95450000D03*
X55450000Y-40450000D03*
X100450000Y-35450000D03*
X40450000Y-90450000D03*
X60450000Y-95450000D03*
X50450000Y-90450000D03*
X30450000Y-35450000D03*
X25450000Y-40450000D03*
X40450000Y-65450000D03*
X85450000Y-45450000D03*
X70450000Y-55450000D03*
X105450000Y-75450000D03*
X110450000Y-35450000D03*
X80450000Y-75450000D03*
X120450000Y-85450000D03*
X120450000Y-35450000D03*
X75450000Y-95450000D03*
X25450000Y-45450000D03*
X60450000Y-65450000D03*
D24*
X105500000Y-63000000D03*
D23*
X40450000Y-100450000D03*
X30450000Y-85450000D03*
X105450000Y-85450000D03*
D24*
X33000000Y-48000000D03*
D23*
X95450000Y-60450000D03*
X110450000Y-65450000D03*
X95450000Y-55450000D03*
X35450000Y-55450000D03*
X65450000Y-90450000D03*
X100450000Y-55450000D03*
X85450000Y-65450000D03*
X40450000Y-85450000D03*
X90450000Y-100450000D03*
D24*
X31950000Y-21950000D03*
D23*
X120450000Y-45450000D03*
X95450000Y-65450000D03*
X70450000Y-95450000D03*
X60450000Y-40450000D03*
X55450000Y-55450000D03*
D24*
X41950000Y-51950000D03*
D23*
X35450000Y-40450000D03*
X95450000Y-45450000D03*
X50450000Y-40450000D03*
X110450000Y-90450000D03*
X110450000Y-55450000D03*
X30450000Y-30450000D03*
X50450000Y-55450000D03*
X30450000Y-100450000D03*
X35450000Y-75450000D03*
D24*
X21950000Y-21950000D03*
X112000000Y-37000000D03*
X21950000Y-81950000D03*
D23*
X70450000Y-50450000D03*
D24*
X31950000Y-81950000D03*
D23*
X90450000Y-95450000D03*
X90450000Y-65450000D03*
X105450000Y-100450000D03*
X55450000Y-75450000D03*
X100450000Y-25450000D03*
X65450000Y-95450000D03*
D24*
X31950000Y-91950000D03*
D23*
X115450000Y-30450000D03*
X35450000Y-85450000D03*
X75450000Y-100450000D03*
X65450000Y-100450000D03*
X80450000Y-50450000D03*
X120450000Y-75450000D03*
D24*
X105500000Y-83000000D03*
D23*
X80450000Y-30450000D03*
X80450000Y-55450000D03*
X75450000Y-75450000D03*
X25450000Y-80450000D03*
D24*
X23000000Y-38000000D03*
D23*
X35450000Y-100450000D03*
X60450000Y-75450000D03*
X80450000Y-35450000D03*
X45450000Y-100450000D03*
X35450000Y-35450000D03*
X75450000Y-55450000D03*
X75450000Y-85450000D03*
X25450000Y-60450000D03*
X50450000Y-85450000D03*
X46968000Y-64816000D03*
X120450000Y-55450000D03*
X25450000Y-55450000D03*
D24*
X33000000Y-58000000D03*
D23*
X75450000Y-25450000D03*
X75450000Y-50450000D03*
X45450000Y-35450000D03*
X40450000Y-95450000D03*
X30450000Y-60450000D03*
X105450000Y-50450000D03*
X30450000Y-80450000D03*
X120450000Y-90450000D03*
X100450000Y-75450000D03*
X115450000Y-55450000D03*
X100450000Y-65450000D03*
X75450000Y-90450000D03*
X95450000Y-25450000D03*
X105450000Y-65450000D03*
X30450000Y-70450000D03*
D24*
X41950000Y-41950000D03*
D23*
X35450000Y-65450000D03*
X45450000Y-25450000D03*
D24*
X122000000Y-27000000D03*
D23*
X40450000Y-30450000D03*
X75450000Y-65450000D03*
X50450000Y-50450000D03*
X30450000Y-45450000D03*
X120450000Y-65450000D03*
X115450000Y-100450000D03*
X25450000Y-50450000D03*
X30450000Y-95450000D03*
X30450000Y-25450000D03*
X120450000Y-95450000D03*
X50450000Y-25450000D03*
X120450000Y-25450000D03*
X85450000Y-60450000D03*
X70450000Y-100450000D03*
X115450000Y-45450000D03*
D24*
X41950000Y-21950000D03*
D23*
X45450000Y-40450000D03*
X25450000Y-30450000D03*
X70450000Y-25450000D03*
X110450000Y-50450000D03*
X30450000Y-40450000D03*
X30450000Y-75450000D03*
X65450000Y-30450000D03*
X25450000Y-65450000D03*
X40450000Y-75450000D03*
X90450000Y-60450000D03*
D24*
X31950000Y-31950000D03*
D23*
X115450000Y-60450000D03*
X105450000Y-80450000D03*
X110450000Y-45450000D03*
X80450000Y-25450000D03*
X100450000Y-90450000D03*
X95450000Y-50450000D03*
X120450000Y-30450000D03*
X70450000Y-60450000D03*
X105450000Y-35450000D03*
X105450000Y-95450000D03*
X64316000Y-41035000D03*
D24*
X112000000Y-27000000D03*
X21950000Y-31950000D03*
D23*
X30450000Y-90450000D03*
D24*
X21950000Y-41950000D03*
D23*
X100450000Y-50450000D03*
X55450000Y-85450000D03*
X40450000Y-80450000D03*
X110450000Y-30450000D03*
X80450000Y-95450000D03*
%TO.N,I2C_SDA*%
X47933600Y-64557300D03*
%TO.N,MPU_INT*%
X65292200Y-68110000D03*
D24*
%TO.N,+5V*%
X44739600Y-94760500D03*
D23*
%TO.N,GPS_RX*%
X65216300Y-41034800D03*
%TO.N,GPS_TX*%
X63245600Y-40925700D03*
%TD*%
%TO.N,SIM_RI*%
D25*
X63932200Y-70490700D02*
X77991500Y-70490700D01*
X113044200Y-71720900D02*
X114323300Y-73000000D01*
X115500000Y-73000000D02*
X114323300Y-73000000D01*
X77991500Y-70490700D02*
X79221700Y-71720900D01*
X25940000Y-67393300D02*
X60834800Y-67393300D01*
X79221700Y-71720900D02*
X113044200Y-71720900D01*
X24326700Y-65780000D02*
X25940000Y-67393300D01*
X60834800Y-67393300D02*
X63932200Y-70490700D01*
X23000000Y-65780000D02*
X24326700Y-65780000D01*
%TO.N,SIM_DTR*%
X60766700Y-72130000D02*
X64402000Y-75765300D01*
X66137200Y-75765300D02*
X67131600Y-76759700D01*
X23000000Y-68320000D02*
X24326700Y-68320000D01*
X115500000Y-75540000D02*
X114323300Y-75540000D01*
X28136700Y-72130000D02*
X60766700Y-72130000D01*
X67131600Y-76759700D02*
X113103600Y-76759700D01*
X113103600Y-76759700D02*
X114323300Y-75540000D01*
X24326700Y-68320000D02*
X28136700Y-72130000D01*
X64402000Y-75765300D02*
X66137200Y-75765300D01*
%TO.N,SIM_RST*%
X24512300Y-66941600D02*
X22408500Y-66941600D01*
X23000000Y-63240000D02*
X21673300Y-63240000D01*
X89848400Y-73154700D02*
X63705600Y-73154700D01*
X63705600Y-73154700D02*
X60140900Y-69590000D01*
X27160700Y-69590000D02*
X24512300Y-66941600D01*
X60140900Y-69590000D02*
X27160700Y-69590000D01*
X93426400Y-75556000D02*
X92249700Y-75556000D01*
X22408500Y-66941600D02*
X21673300Y-66206400D01*
X92249700Y-75556000D02*
X89848400Y-73154700D01*
X21673300Y-66206400D02*
X21673300Y-63240000D01*
%TO.N,SIM_TX*%
X23000000Y-73400000D02*
X24326700Y-73400000D01*
X25489800Y-74563100D02*
X24326700Y-73400000D01*
X56187600Y-74563100D02*
X25489800Y-74563100D01*
X59720500Y-78096000D02*
X56187600Y-74563100D01*
X93426400Y-78096000D02*
X59720500Y-78096000D01*
%TO.N,SIM_RX*%
X23530000Y-74670000D02*
X22532400Y-74670000D01*
X22532400Y-74670000D02*
X21673300Y-73810900D01*
X21673300Y-73810900D02*
X21673300Y-70860000D01*
X54167500Y-80636000D02*
X50549200Y-77017700D01*
X25877700Y-77017700D02*
X23530000Y-74670000D01*
X23000000Y-70860000D02*
X21673300Y-70860000D01*
X50549200Y-77017700D02*
X25877700Y-77017700D01*
X93426400Y-80636000D02*
X54167500Y-80636000D01*
%TO.N,GND*%
D26*
X41030600Y-63240000D02*
X48400000Y-63240000D01*
X65000000Y-61760000D02*
X51631700Y-61760000D01*
X38895000Y-65375600D02*
X41030600Y-63240000D01*
X110400000Y-98000000D02*
X103400000Y-91000000D01*
X103400000Y-91000000D02*
X86000000Y-91000000D01*
X86000000Y-90602400D02*
X86000000Y-91000000D01*
X65400000Y-98000000D02*
X79000000Y-98000000D01*
X79000000Y-98000000D02*
X86000000Y-91000000D01*
X51631700Y-61760000D02*
X50151700Y-63240000D01*
X48400000Y-63240000D02*
X50151700Y-63240000D01*
X93426400Y-83176000D02*
X86000000Y-90602400D01*
%TO.N,+3V3*%
D27*
X37500000Y-59220000D02*
X37500000Y-44600000D01*
X23000000Y-48000000D02*
X24451700Y-48000000D01*
X62919100Y-44600000D02*
X62919100Y-42086500D01*
X24451700Y-48000000D02*
X35671700Y-59220000D01*
X37500000Y-44600000D02*
X62919100Y-44600000D01*
D26*
X122000000Y-42080000D02*
X120348300Y-42080000D01*
X62919100Y-42086500D02*
X120341800Y-42086500D01*
D27*
X37500000Y-59220000D02*
X65000000Y-59220000D01*
X35671700Y-59220000D02*
X37500000Y-59220000D01*
D26*
X120341800Y-42086500D02*
X120348300Y-42080000D01*
%TO.N,I2C_SCL*%
D25*
X66142500Y-58752700D02*
X66142500Y-63157500D01*
X66142500Y-63157500D02*
X65000000Y-64300000D01*
X60469800Y-53080000D02*
X66142500Y-58752700D01*
X48400000Y-53080000D02*
X60469800Y-53080000D01*
%TO.N,I2C_SDA*%
X48437300Y-64557300D02*
X62717300Y-64557300D01*
X48437300Y-64557300D02*
X47933600Y-64557300D01*
X62717300Y-64557300D02*
X65000000Y-66840000D01*
%TO.N,MPU_INT*%
X61022000Y-66941600D02*
X30568300Y-66941600D01*
X65384400Y-68110000D02*
X65292200Y-68110000D01*
X23000000Y-60700000D02*
X24326700Y-60700000D01*
X65292200Y-68110000D02*
X65384400Y-68110000D01*
X62190400Y-68110000D02*
X61022000Y-66941600D01*
X30568300Y-66941600D02*
X24326700Y-60700000D01*
X65292200Y-68110000D02*
X62190400Y-68110000D01*
%TO.N,+5V*%
D26*
X44739600Y-94760500D02*
X47979100Y-98000000D01*
X23000000Y-93720000D02*
X43699100Y-93720000D01*
X47979100Y-98000000D02*
X60000000Y-98000000D01*
X43699100Y-93720000D02*
X44739600Y-94760500D01*
%TO.N,GPS_PPS*%
D25*
X36979700Y-31920000D02*
X21673300Y-47226400D01*
X23000000Y-58160000D02*
X21673300Y-58160000D01*
X21673300Y-47226400D02*
X21673300Y-58160000D01*
X122000000Y-31920000D02*
X36979700Y-31920000D01*
%TO.N,GPS_RX*%
X116738500Y-41034800D02*
X120773300Y-37000000D01*
X65216300Y-41034800D02*
X116738500Y-41034800D01*
X122000000Y-37000000D02*
X120773300Y-37000000D01*
%TO.N,GPS_TX*%
X63245600Y-40925700D02*
X69711300Y-34460000D01*
X69711300Y-34460000D02*
X122000000Y-34460000D01*
%TD*%
%TA.AperFunction,Conductor*%
%TO.N,GND*%
G36*
X60607635Y-72574407D02*
G01*
X60619448Y-72584496D01*
X64061515Y-76026563D01*
X64061514Y-76026563D01*
X64118035Y-76083083D01*
X64140737Y-76105785D01*
X64188052Y-76133102D01*
X64228993Y-76178570D01*
X64235389Y-76239421D01*
X64208557Y-76288841D01*
X64174699Y-76322699D01*
X64058424Y-76496718D01*
X63978332Y-76690076D01*
X63978330Y-76690082D01*
X63937500Y-76895350D01*
X63937500Y-77104649D01*
X63978330Y-77309917D01*
X63978332Y-77309923D01*
X64058425Y-77503284D01*
X64067256Y-77516500D01*
X64083864Y-77575388D01*
X64062685Y-77632792D01*
X64011811Y-77666784D01*
X63984940Y-77670500D01*
X59937756Y-77670500D01*
X59879565Y-77651593D01*
X59867752Y-77641504D01*
X58178749Y-75952501D01*
X56448863Y-74222615D01*
X56448860Y-74222613D01*
X56351840Y-74166598D01*
X56351842Y-74166598D01*
X56309019Y-74155124D01*
X56243618Y-74137600D01*
X56243616Y-74137600D01*
X49574548Y-74137600D01*
X49516357Y-74118693D01*
X49480393Y-74069193D01*
X49480393Y-74008007D01*
X49496767Y-73978082D01*
X49496762Y-73978079D01*
X49496805Y-73978014D01*
X49498018Y-73975798D01*
X49499461Y-73974039D01*
X49512361Y-73954733D01*
X49598013Y-73826547D01*
X49665894Y-73662666D01*
X49700500Y-73488691D01*
X49700500Y-73311309D01*
X49665894Y-73137334D01*
X49610458Y-73003498D01*
X49598014Y-72973455D01*
X49598014Y-72973454D01*
X49499464Y-72825965D01*
X49398003Y-72724504D01*
X49370226Y-72669987D01*
X49379797Y-72609555D01*
X49423062Y-72566290D01*
X49468007Y-72555500D01*
X60549444Y-72555500D01*
X60607635Y-72574407D01*
G37*
%TD.AperFunction*%
%TA.AperFunction,Conductor*%
G36*
X24264681Y-73939729D02*
G01*
X25149315Y-74824363D01*
X25149314Y-74824363D01*
X25228537Y-74903585D01*
X25325559Y-74959601D01*
X25325557Y-74959601D01*
X25325561Y-74959602D01*
X25325563Y-74959603D01*
X25433782Y-74988600D01*
X47476654Y-74988600D01*
X47534845Y-75007507D01*
X47570809Y-75057007D01*
X47570809Y-75118193D01*
X47534845Y-75167693D01*
X47531656Y-75169915D01*
X47425965Y-75240535D01*
X47300535Y-75365965D01*
X47201985Y-75513454D01*
X47201985Y-75513455D01*
X47134106Y-75677332D01*
X47134106Y-75677334D01*
X47099500Y-75851306D01*
X47099500Y-76028693D01*
X47120269Y-76133101D01*
X47129002Y-76177009D01*
X47134106Y-76202665D01*
X47134106Y-76202667D01*
X47201985Y-76366544D01*
X47201985Y-76366545D01*
X47249863Y-76438198D01*
X47266472Y-76497087D01*
X47245294Y-76554490D01*
X47194421Y-76588483D01*
X47167548Y-76592200D01*
X26094956Y-76592200D01*
X26036765Y-76573293D01*
X26024952Y-76563204D01*
X24927198Y-75465450D01*
X23811863Y-74350115D01*
X23784088Y-74295601D01*
X23793659Y-74235169D01*
X23826867Y-74197799D01*
X23974035Y-74099464D01*
X24099464Y-73974035D01*
X24112362Y-73954730D01*
X24160410Y-73916853D01*
X24221548Y-73914449D01*
X24264681Y-73939729D01*
G37*
%TD.AperFunction*%
%TA.AperFunction,Conductor*%
G36*
X89689335Y-73599107D02*
G01*
X89701148Y-73609196D01*
X91988437Y-75896485D01*
X91988439Y-75896486D01*
X92085459Y-75952501D01*
X92085457Y-75952501D01*
X92085461Y-75952502D01*
X92085463Y-75952503D01*
X92193682Y-75981500D01*
X92291299Y-75981500D01*
X92349490Y-76000407D01*
X92379507Y-76035552D01*
X92434250Y-76142990D01*
X92442403Y-76158992D01*
X92455493Y-76177009D01*
X92474400Y-76235200D01*
X92455493Y-76293391D01*
X92405992Y-76329355D01*
X92375400Y-76334200D01*
X67348856Y-76334200D01*
X67290665Y-76315293D01*
X67278852Y-76305204D01*
X66870133Y-75896485D01*
X66398463Y-75424815D01*
X66398460Y-75424813D01*
X66301440Y-75368798D01*
X66301442Y-75368798D01*
X66259451Y-75357547D01*
X66193218Y-75339800D01*
X66193216Y-75339800D01*
X66115004Y-75339800D01*
X66056813Y-75320893D01*
X66020849Y-75271393D01*
X66020849Y-75210207D01*
X66034911Y-75182609D01*
X66079360Y-75121429D01*
X66169540Y-74944440D01*
X66230926Y-74755514D01*
X66262000Y-74559325D01*
X66262000Y-74360674D01*
X66230926Y-74164485D01*
X66169540Y-73975559D01*
X66079360Y-73798570D01*
X66034911Y-73737391D01*
X66016004Y-73679200D01*
X66034911Y-73621009D01*
X66084411Y-73585045D01*
X66115004Y-73580200D01*
X89631144Y-73580200D01*
X89689335Y-73599107D01*
G37*
%TD.AperFunction*%
%TA.AperFunction,Conductor*%
G36*
X24353235Y-67386007D02*
G01*
X24365048Y-67396096D01*
X26899437Y-69930485D01*
X26899439Y-69930486D01*
X26996459Y-69986501D01*
X26996457Y-69986501D01*
X26996461Y-69986502D01*
X26996463Y-69986503D01*
X27104681Y-70015500D01*
X27104682Y-70015500D01*
X47331993Y-70015500D01*
X47390184Y-70034407D01*
X47426148Y-70083907D01*
X47426148Y-70145093D01*
X47401997Y-70184504D01*
X47300535Y-70285965D01*
X47201985Y-70433454D01*
X47201985Y-70433455D01*
X47134106Y-70597332D01*
X47134106Y-70597334D01*
X47099500Y-70771306D01*
X47099500Y-70948693D01*
X47134106Y-71122665D01*
X47134106Y-71122667D01*
X47201985Y-71286544D01*
X47201985Y-71286545D01*
X47300535Y-71434034D01*
X47401997Y-71535496D01*
X47429774Y-71590013D01*
X47420203Y-71650445D01*
X47376938Y-71693710D01*
X47331993Y-71704500D01*
X28353956Y-71704500D01*
X28295765Y-71685593D01*
X28283952Y-71675504D01*
X26491730Y-69883282D01*
X24587963Y-67979515D01*
X24587960Y-67979513D01*
X24490940Y-67923498D01*
X24490942Y-67923498D01*
X24448951Y-67912247D01*
X24382718Y-67894500D01*
X24382716Y-67894500D01*
X24251629Y-67894500D01*
X24193438Y-67875593D01*
X24169314Y-67850502D01*
X24099464Y-67745965D01*
X23974034Y-67620535D01*
X23866099Y-67548415D01*
X23828220Y-67500365D01*
X23825818Y-67439227D01*
X23859811Y-67388353D01*
X23917214Y-67367176D01*
X23921101Y-67367100D01*
X24295044Y-67367100D01*
X24353235Y-67386007D01*
G37*
%TD.AperFunction*%
%TA.AperFunction,Conductor*%
G36*
X62558235Y-65001707D02*
G01*
X62570048Y-65011796D01*
X63963774Y-66405522D01*
X63991551Y-66460039D01*
X63985236Y-66513406D01*
X63978332Y-66530074D01*
X63978331Y-66530080D01*
X63937500Y-66735350D01*
X63937500Y-66944649D01*
X63978330Y-67149917D01*
X63978332Y-67149923D01*
X64058424Y-67343281D01*
X64174703Y-67517306D01*
X64177785Y-67521061D01*
X64176336Y-67522250D01*
X64200672Y-67570013D01*
X64191101Y-67630445D01*
X64147836Y-67673710D01*
X64102891Y-67684500D01*
X62407656Y-67684500D01*
X62349465Y-67665593D01*
X62337652Y-67655504D01*
X61832065Y-67149917D01*
X61283263Y-66601115D01*
X61283260Y-66601113D01*
X61186240Y-66545098D01*
X61186242Y-66545098D01*
X61144251Y-66533847D01*
X61078018Y-66516100D01*
X61078016Y-66516100D01*
X49575779Y-66516100D01*
X49517588Y-66497193D01*
X49481624Y-66447693D01*
X49481624Y-66386507D01*
X49497067Y-66358283D01*
X49496762Y-66358079D01*
X49499068Y-66354627D01*
X49499248Y-66354299D01*
X49499461Y-66354038D01*
X49499464Y-66354035D01*
X49598013Y-66206547D01*
X49665894Y-66042666D01*
X49700500Y-65868691D01*
X49700500Y-65691309D01*
X49665894Y-65517334D01*
X49610458Y-65383498D01*
X49598014Y-65353455D01*
X49598014Y-65353454D01*
X49499464Y-65205965D01*
X49445303Y-65151804D01*
X49417526Y-65097287D01*
X49427097Y-65036855D01*
X49470362Y-64993590D01*
X49515307Y-64982800D01*
X62500044Y-64982800D01*
X62558235Y-65001707D01*
G37*
%TD.AperFunction*%
%TA.AperFunction,Conductor*%
G36*
X120866974Y-32364407D02*
G01*
X120896992Y-32399554D01*
X120973240Y-32549199D01*
X121084310Y-32702073D01*
X121217927Y-32835690D01*
X121370801Y-32946760D01*
X121539168Y-33032547D01*
X121718882Y-33090940D01*
X121718883Y-33090940D01*
X121718886Y-33090941D01*
X121726954Y-33092219D01*
X121781471Y-33119996D01*
X121809248Y-33174513D01*
X121799677Y-33234945D01*
X121756412Y-33278210D01*
X121726954Y-33287781D01*
X121718886Y-33289058D01*
X121539167Y-33347453D01*
X121370803Y-33433238D01*
X121217928Y-33544309D01*
X121084309Y-33677928D01*
X120973238Y-33830803D01*
X120896993Y-33980445D01*
X120853728Y-34023710D01*
X120808783Y-34034500D01*
X69767319Y-34034500D01*
X69655282Y-34034500D01*
X69589048Y-34052247D01*
X69547058Y-34063498D01*
X69450039Y-34119513D01*
X63273348Y-40296204D01*
X63218831Y-40323981D01*
X63203344Y-40325200D01*
X63166543Y-40325200D01*
X63013816Y-40366123D01*
X62876884Y-40445180D01*
X62765080Y-40556984D01*
X62686023Y-40693916D01*
X62645100Y-40846643D01*
X62645100Y-41004757D01*
X62686023Y-41157484D01*
X62686024Y-41157485D01*
X62686023Y-41157485D01*
X62703710Y-41188120D01*
X62716430Y-41247969D01*
X62691543Y-41303864D01*
X62655859Y-41329083D01*
X62539922Y-41377105D01*
X62539914Y-41377109D01*
X62408811Y-41464711D01*
X62408807Y-41464714D01*
X62297314Y-41576207D01*
X62297311Y-41576211D01*
X62209709Y-41707314D01*
X62209703Y-41707325D01*
X62149363Y-41853001D01*
X62149363Y-41853003D01*
X62118600Y-42007655D01*
X62118600Y-42165344D01*
X62149363Y-42319996D01*
X62149363Y-42319998D01*
X62209703Y-42465674D01*
X62209709Y-42465685D01*
X62262412Y-42544559D01*
X62297311Y-42596789D01*
X62297314Y-42596792D01*
X62339604Y-42639082D01*
X62367381Y-42693599D01*
X62368600Y-42709086D01*
X62368600Y-43950500D01*
X62349693Y-44008691D01*
X62300193Y-44044655D01*
X62269600Y-44049500D01*
X37572475Y-44049500D01*
X37427525Y-44049500D01*
X37365790Y-44066041D01*
X37287510Y-44087017D01*
X37161989Y-44159487D01*
X37059487Y-44261989D01*
X36987017Y-44387510D01*
X36949500Y-44527525D01*
X36949500Y-58570500D01*
X36930593Y-58628691D01*
X36881093Y-58664655D01*
X36850500Y-58669500D01*
X35940733Y-58669500D01*
X35882542Y-58650593D01*
X35870729Y-58640504D01*
X30398914Y-53168689D01*
X24789715Y-47559490D01*
X24664185Y-47487016D01*
X24524175Y-47449500D01*
X24524174Y-47449500D01*
X24399396Y-47449500D01*
X24341205Y-47430593D01*
X24305241Y-47381093D01*
X24300891Y-47357967D01*
X24300828Y-47357975D01*
X24300723Y-47357074D01*
X24300561Y-47356210D01*
X24300499Y-47355138D01*
X24297585Y-47330009D01*
X24252206Y-47227235D01*
X24172765Y-47147794D01*
X24069991Y-47102415D01*
X24069990Y-47102414D01*
X24069988Y-47102414D01*
X24044869Y-47099500D01*
X24044865Y-47099500D01*
X22640955Y-47099500D01*
X22582764Y-47080593D01*
X22546800Y-47031093D01*
X22546800Y-46969907D01*
X22570951Y-46930496D01*
X36094555Y-33406893D01*
X53899500Y-33406893D01*
X53899500Y-34593106D01*
X53910123Y-34681565D01*
X53965637Y-34822339D01*
X53965638Y-34822341D01*
X53965639Y-34822342D01*
X54057078Y-34942922D01*
X54177658Y-35034361D01*
X54177659Y-35034361D01*
X54177660Y-35034362D01*
X54248047Y-35062119D01*
X54318436Y-35089877D01*
X54406898Y-35100500D01*
X54406900Y-35100500D01*
X55593100Y-35100500D01*
X55593102Y-35100500D01*
X55681564Y-35089877D01*
X55822342Y-35034361D01*
X55942922Y-34942922D01*
X56034361Y-34822342D01*
X56089877Y-34681564D01*
X56100500Y-34593102D01*
X56100500Y-33897684D01*
X57200000Y-33897684D01*
X57200000Y-34102315D01*
X57232008Y-34304412D01*
X57295243Y-34499027D01*
X57388139Y-34681348D01*
X57388143Y-34681353D01*
X57420523Y-34725920D01*
X57420524Y-34725920D01*
X58100000Y-34046444D01*
X58100000Y-34052661D01*
X58127259Y-34154394D01*
X58179920Y-34245606D01*
X58254394Y-34320080D01*
X58345606Y-34372741D01*
X58447339Y-34400000D01*
X58453553Y-34400000D01*
X57774078Y-35079475D01*
X57818647Y-35111858D01*
X58000972Y-35204756D01*
X58195587Y-35267991D01*
X58397685Y-35300000D01*
X58602315Y-35300000D01*
X58804412Y-35267991D01*
X58999027Y-35204756D01*
X59181342Y-35111863D01*
X59181350Y-35111858D01*
X59225920Y-35079475D01*
X58546445Y-34400000D01*
X58552661Y-34400000D01*
X58654394Y-34372741D01*
X58745606Y-34320080D01*
X58820080Y-34245606D01*
X58872741Y-34154394D01*
X58900000Y-34052661D01*
X58900000Y-34046445D01*
X59579475Y-34725920D01*
X59611858Y-34681350D01*
X59611863Y-34681342D01*
X59704756Y-34499027D01*
X59767991Y-34304412D01*
X59800000Y-34102315D01*
X59800000Y-33897684D01*
X59767991Y-33695587D01*
X59704756Y-33500972D01*
X59611858Y-33318647D01*
X59579475Y-33274078D01*
X58900000Y-33953553D01*
X58900000Y-33947339D01*
X58872741Y-33845606D01*
X58820080Y-33754394D01*
X58745606Y-33679920D01*
X58654394Y-33627259D01*
X58552661Y-33600000D01*
X58546445Y-33600000D01*
X59225920Y-32920524D01*
X59225920Y-32920523D01*
X59181353Y-32888143D01*
X59181348Y-32888139D01*
X58999027Y-32795243D01*
X58804412Y-32732008D01*
X58602315Y-32700000D01*
X58397685Y-32700000D01*
X58195587Y-32732008D01*
X58000972Y-32795243D01*
X57818651Y-32888139D01*
X57818647Y-32888141D01*
X57774078Y-32920523D01*
X58453555Y-33600000D01*
X58447339Y-33600000D01*
X58345606Y-33627259D01*
X58254394Y-33679920D01*
X58179920Y-33754394D01*
X58127259Y-33845606D01*
X58100000Y-33947339D01*
X58100000Y-33953555D01*
X57420523Y-33274078D01*
X57388141Y-33318647D01*
X57388139Y-33318651D01*
X57295243Y-33500972D01*
X57232008Y-33695587D01*
X57200000Y-33897684D01*
X56100500Y-33897684D01*
X56100500Y-33406898D01*
X56089877Y-33318436D01*
X56034361Y-33177658D01*
X55942922Y-33057078D01*
X55822342Y-32965639D01*
X55822341Y-32965638D01*
X55822339Y-32965637D01*
X55681565Y-32910123D01*
X55593106Y-32899500D01*
X55593102Y-32899500D01*
X54406898Y-32899500D01*
X54406893Y-32899500D01*
X54318434Y-32910123D01*
X54177660Y-32965637D01*
X54177656Y-32965640D01*
X54057081Y-33057075D01*
X54057075Y-33057081D01*
X53965640Y-33177656D01*
X53965637Y-33177660D01*
X53910123Y-33318434D01*
X53899500Y-33406893D01*
X36094555Y-33406893D01*
X36167513Y-33333935D01*
X37126952Y-32374496D01*
X37181469Y-32346719D01*
X37196956Y-32345500D01*
X120808783Y-32345500D01*
X120866974Y-32364407D01*
G37*
%TD.AperFunction*%
%TA.AperFunction,Conductor*%
G36*
X120866974Y-34904407D02*
G01*
X120896992Y-34939554D01*
X120908866Y-34962858D01*
X120945297Y-35034359D01*
X120973240Y-35089199D01*
X121084310Y-35242073D01*
X121217927Y-35375690D01*
X121370801Y-35486760D01*
X121539168Y-35572547D01*
X121718882Y-35630940D01*
X121718883Y-35630940D01*
X121718886Y-35630941D01*
X121726954Y-35632219D01*
X121781471Y-35659996D01*
X121809248Y-35714513D01*
X121799677Y-35774945D01*
X121756412Y-35818210D01*
X121726954Y-35827781D01*
X121718886Y-35829058D01*
X121539167Y-35887453D01*
X121370803Y-35973238D01*
X121217928Y-36084309D01*
X121084309Y-36217928D01*
X120973238Y-36370803D01*
X120896993Y-36520445D01*
X120853728Y-36563710D01*
X120808783Y-36574500D01*
X120717282Y-36574500D01*
X120651048Y-36592247D01*
X120609058Y-36603498D01*
X120512039Y-36659513D01*
X116591248Y-40580304D01*
X116536731Y-40608081D01*
X116521244Y-40609300D01*
X65681044Y-40609300D01*
X65622853Y-40590393D01*
X65611042Y-40580305D01*
X65585018Y-40554282D01*
X65585016Y-40554280D01*
X65448084Y-40475223D01*
X65295357Y-40434300D01*
X65137243Y-40434300D01*
X64984516Y-40475223D01*
X64847584Y-40554280D01*
X64735780Y-40666084D01*
X64656723Y-40803016D01*
X64615800Y-40955743D01*
X64615800Y-41113857D01*
X64623252Y-41141671D01*
X64628533Y-41161378D01*
X64625330Y-41222479D01*
X64586825Y-41270029D01*
X64532906Y-41286000D01*
X63899760Y-41286000D01*
X63841569Y-41267093D01*
X63805605Y-41217593D01*
X63804133Y-41161377D01*
X63805176Y-41157485D01*
X63805177Y-41157484D01*
X63846100Y-41004757D01*
X63846100Y-40967956D01*
X63865007Y-40909765D01*
X63875096Y-40897952D01*
X69858552Y-34914496D01*
X69913069Y-34886719D01*
X69928556Y-34885500D01*
X120808783Y-34885500D01*
X120866974Y-34904407D01*
G37*
%TD.AperFunction*%
%TA.AperFunction,Conductor*%
G36*
X120915083Y-37556706D02*
G01*
X120958348Y-37599971D01*
X120958348Y-37599972D01*
X120973236Y-37629194D01*
X120973237Y-37629195D01*
X120973238Y-37629196D01*
X120973240Y-37629199D01*
X121084310Y-37782073D01*
X121217927Y-37915690D01*
X121370801Y-38026760D01*
X121370803Y-38026761D01*
X121455346Y-38069838D01*
X121498611Y-38113103D01*
X121508182Y-38173535D01*
X121480404Y-38228052D01*
X121455346Y-38246258D01*
X121266242Y-38342611D01*
X121087962Y-38472139D01*
X120932139Y-38627962D01*
X120802611Y-38806242D01*
X120702569Y-39002586D01*
X120634471Y-39212170D01*
X120622144Y-39289999D01*
X120622145Y-39290000D01*
X121566988Y-39290000D01*
X121534075Y-39347007D01*
X121500000Y-39474174D01*
X121500000Y-39605826D01*
X121534075Y-39732993D01*
X121566988Y-39790000D01*
X120622144Y-39790000D01*
X120634471Y-39867829D01*
X120702569Y-40077413D01*
X120802611Y-40273757D01*
X120932139Y-40452037D01*
X121087965Y-40607863D01*
X121215342Y-40700407D01*
X121251306Y-40749907D01*
X121251307Y-40811092D01*
X121215343Y-40860592D01*
X121157153Y-40879500D01*
X121055139Y-40879500D01*
X121055136Y-40879501D01*
X121030009Y-40882414D01*
X120927235Y-40927794D01*
X120847794Y-41007235D01*
X120802414Y-41110011D01*
X120799500Y-41135130D01*
X120799500Y-41180500D01*
X120780593Y-41238691D01*
X120731093Y-41274655D01*
X120700500Y-41279500D01*
X120269456Y-41279500D01*
X120258983Y-41281583D01*
X120246340Y-41284098D01*
X120227028Y-41286000D01*
X117328056Y-41286000D01*
X117269865Y-41267093D01*
X117233901Y-41217593D01*
X117233901Y-41156407D01*
X117258052Y-41116996D01*
X118101291Y-40273757D01*
X120800136Y-37574910D01*
X120854651Y-37547135D01*
X120915083Y-37556706D01*
G37*
%TD.AperFunction*%
%TA.AperFunction,Conductor*%
G36*
X122002992Y-20500681D02*
G01*
X122295309Y-20518362D01*
X122307164Y-20519802D01*
X122592280Y-20572051D01*
X122603882Y-20574911D01*
X122880623Y-20661147D01*
X122891786Y-20665380D01*
X123152200Y-20782583D01*
X123156118Y-20784347D01*
X123166690Y-20789895D01*
X123414770Y-20939864D01*
X123424583Y-20946638D01*
X123652755Y-21125400D01*
X123661704Y-21133327D01*
X123866672Y-21338295D01*
X123874599Y-21347244D01*
X124053356Y-21575409D01*
X124060138Y-21585233D01*
X124210100Y-21833303D01*
X124215652Y-21843881D01*
X124334616Y-22108206D01*
X124338855Y-22119384D01*
X124425087Y-22396114D01*
X124427948Y-22407722D01*
X124480196Y-22692828D01*
X124481637Y-22704695D01*
X124499319Y-22997006D01*
X124499500Y-23002984D01*
X124499500Y-98997015D01*
X124499319Y-99002993D01*
X124481637Y-99295304D01*
X124480196Y-99307171D01*
X124427948Y-99592277D01*
X124425087Y-99603885D01*
X124338855Y-99880615D01*
X124334616Y-99891793D01*
X124215652Y-100156118D01*
X124210096Y-100166703D01*
X124060142Y-100414758D01*
X124053356Y-100424590D01*
X123874599Y-100652755D01*
X123866672Y-100661704D01*
X123661704Y-100866672D01*
X123652755Y-100874599D01*
X123424590Y-101053356D01*
X123414758Y-101060142D01*
X123177212Y-101203744D01*
X123166703Y-101210097D01*
X123156118Y-101215652D01*
X122891793Y-101334616D01*
X122880615Y-101338855D01*
X122603885Y-101425087D01*
X122592277Y-101427948D01*
X122307171Y-101480196D01*
X122295304Y-101481637D01*
X122023993Y-101498048D01*
X122002991Y-101499319D01*
X121997015Y-101499500D01*
X23002985Y-101499500D01*
X22997008Y-101499319D01*
X22973564Y-101497900D01*
X22704695Y-101481637D01*
X22692828Y-101480196D01*
X22407722Y-101427948D01*
X22396114Y-101425087D01*
X22119384Y-101338855D01*
X22108206Y-101334616D01*
X21843881Y-101215652D01*
X21833303Y-101210100D01*
X21585233Y-101060138D01*
X21575413Y-101053359D01*
X21347244Y-100874599D01*
X21338295Y-100866672D01*
X21133327Y-100661704D01*
X21125400Y-100652755D01*
X20946638Y-100424583D01*
X20939864Y-100414770D01*
X20789895Y-100166690D01*
X20784347Y-100156118D01*
X20782583Y-100152200D01*
X20665380Y-99891786D01*
X20661147Y-99880623D01*
X20574911Y-99603882D01*
X20572051Y-99592277D01*
X20536328Y-99397342D01*
X20519802Y-99307164D01*
X20518362Y-99295303D01*
X20500681Y-99002992D01*
X20500500Y-98997015D01*
X20500500Y-98378710D01*
X23149500Y-98378710D01*
X23149500Y-98621289D01*
X23181161Y-98861781D01*
X23181161Y-98861786D01*
X23243944Y-99096092D01*
X23243948Y-99096105D01*
X23336772Y-99320204D01*
X23336774Y-99320208D01*
X23336776Y-99320212D01*
X23450924Y-99517922D01*
X23458066Y-99530292D01*
X23605729Y-99722731D01*
X23605731Y-99722733D01*
X23605735Y-99722738D01*
X23777262Y-99894265D01*
X23777266Y-99894268D01*
X23777268Y-99894270D01*
X23969707Y-100041933D01*
X23969711Y-100041936D01*
X24179788Y-100163224D01*
X24403900Y-100256054D01*
X24638211Y-100318838D01*
X24878712Y-100350500D01*
X24878713Y-100350500D01*
X25121287Y-100350500D01*
X25121288Y-100350500D01*
X25361789Y-100318838D01*
X25596100Y-100256054D01*
X25820212Y-100163224D01*
X26030289Y-100041936D01*
X26222738Y-99894265D01*
X26394265Y-99722738D01*
X26541936Y-99530289D01*
X26663224Y-99320212D01*
X26756054Y-99096100D01*
X26818838Y-98861789D01*
X26850500Y-98621288D01*
X26850500Y-98378712D01*
X26818838Y-98138211D01*
X26756054Y-97903900D01*
X26663224Y-97679788D01*
X26541936Y-97469711D01*
X26541933Y-97469707D01*
X26394270Y-97277268D01*
X26394268Y-97277266D01*
X26394265Y-97277262D01*
X26222738Y-97105735D01*
X26222733Y-97105731D01*
X26222731Y-97105729D01*
X26030292Y-96958066D01*
X25865257Y-96862783D01*
X25820212Y-96836776D01*
X25820208Y-96836774D01*
X25820204Y-96836772D01*
X25596105Y-96743948D01*
X25596104Y-96743947D01*
X25596100Y-96743946D01*
X25361789Y-96681162D01*
X25361786Y-96681161D01*
X25361784Y-96681161D01*
X25121289Y-96649500D01*
X25121288Y-96649500D01*
X24878712Y-96649500D01*
X24878710Y-96649500D01*
X24638218Y-96681161D01*
X24638213Y-96681161D01*
X24403907Y-96743944D01*
X24403894Y-96743948D01*
X24179795Y-96836772D01*
X23969707Y-96958066D01*
X23777268Y-97105729D01*
X23605729Y-97277268D01*
X23458066Y-97469707D01*
X23336772Y-97679795D01*
X23243948Y-97903894D01*
X23243944Y-97903907D01*
X23181161Y-98138213D01*
X23181161Y-98138218D01*
X23149500Y-98378710D01*
X20500500Y-98378710D01*
X20500500Y-93631306D01*
X21699500Y-93631306D01*
X21699500Y-93808693D01*
X21734106Y-93982665D01*
X21734106Y-93982667D01*
X21801985Y-94146544D01*
X21801985Y-94146545D01*
X21900535Y-94294034D01*
X21900536Y-94294035D01*
X22025965Y-94419464D01*
X22173453Y-94518013D01*
X22337334Y-94585894D01*
X22511309Y-94620500D01*
X22511310Y-94620500D01*
X23488690Y-94620500D01*
X23488691Y-94620500D01*
X23662666Y-94585894D01*
X23802349Y-94528035D01*
X23840234Y-94520500D01*
X43326514Y-94520500D01*
X43384705Y-94539407D01*
X43396518Y-94549496D01*
X44117811Y-95270789D01*
X47357311Y-98510289D01*
X47468811Y-98621789D01*
X47546976Y-98674017D01*
X47599914Y-98709390D01*
X47599925Y-98709396D01*
X47653738Y-98731685D01*
X47745603Y-98769737D01*
X47900258Y-98800500D01*
X58225500Y-98800500D01*
X58283691Y-98819407D01*
X58319655Y-98868907D01*
X58324500Y-98899500D01*
X58324500Y-99168106D01*
X58335123Y-99256565D01*
X58390637Y-99397339D01*
X58390638Y-99397341D01*
X58390639Y-99397342D01*
X58482078Y-99517922D01*
X58602658Y-99609361D01*
X58602659Y-99609361D01*
X58602660Y-99609362D01*
X58673047Y-99637119D01*
X58743436Y-99664877D01*
X58831898Y-99675500D01*
X58831900Y-99675500D01*
X61168100Y-99675500D01*
X61168102Y-99675500D01*
X61256564Y-99664877D01*
X61397342Y-99609361D01*
X61517922Y-99517922D01*
X61609361Y-99397342D01*
X61664877Y-99256564D01*
X61675500Y-99168102D01*
X61675500Y-97877105D01*
X63525000Y-97877105D01*
X63525000Y-98122894D01*
X63557081Y-98366571D01*
X63557081Y-98366576D01*
X63620695Y-98603984D01*
X63620699Y-98603997D01*
X63714753Y-98831067D01*
X63714755Y-98831072D01*
X63837647Y-99043926D01*
X63909229Y-99137215D01*
X64627545Y-98418898D01*
X64720343Y-98557780D01*
X64842220Y-98679657D01*
X64981099Y-98772452D01*
X64262783Y-99490769D01*
X64356073Y-99562352D01*
X64568927Y-99685244D01*
X64568932Y-99685246D01*
X64796002Y-99779300D01*
X64796015Y-99779304D01*
X65033425Y-99842918D01*
X65277105Y-99874999D01*
X65277107Y-99875000D01*
X65522893Y-99875000D01*
X65522894Y-99874999D01*
X65766571Y-99842918D01*
X65766576Y-99842918D01*
X66003984Y-99779304D01*
X66003997Y-99779300D01*
X66231067Y-99685246D01*
X66231072Y-99685244D01*
X66443922Y-99562355D01*
X66537215Y-99490769D01*
X65818899Y-98772453D01*
X65957780Y-98679657D01*
X66079657Y-98557780D01*
X66172453Y-98418899D01*
X66890769Y-99137215D01*
X66962355Y-99043922D01*
X67085244Y-98831072D01*
X67085246Y-98831067D01*
X67179300Y-98603997D01*
X67179304Y-98603984D01*
X67242918Y-98366576D01*
X67242918Y-98366571D01*
X67274999Y-98122894D01*
X67275000Y-98122893D01*
X67275000Y-97877107D01*
X67274999Y-97877105D01*
X67242918Y-97633428D01*
X67242918Y-97633423D01*
X67179304Y-97396015D01*
X67179300Y-97396002D01*
X67085246Y-97168932D01*
X67085244Y-97168927D01*
X66962352Y-96956073D01*
X66911044Y-96889206D01*
X66890768Y-96862783D01*
X66172452Y-97581098D01*
X66079657Y-97442220D01*
X65957780Y-97320343D01*
X65818898Y-97227545D01*
X66214551Y-96831893D01*
X103324500Y-96831893D01*
X103324500Y-99168106D01*
X103335123Y-99256565D01*
X103390637Y-99397339D01*
X103390638Y-99397341D01*
X103390639Y-99397342D01*
X103482078Y-99517922D01*
X103602658Y-99609361D01*
X103602659Y-99609361D01*
X103602660Y-99609362D01*
X103673047Y-99637119D01*
X103743436Y-99664877D01*
X103831898Y-99675500D01*
X103831900Y-99675500D01*
X106168100Y-99675500D01*
X106168102Y-99675500D01*
X106256564Y-99664877D01*
X106397342Y-99609361D01*
X106517922Y-99517922D01*
X106609361Y-99397342D01*
X106664877Y-99256564D01*
X106675500Y-99168102D01*
X106675500Y-97877105D01*
X108525000Y-97877105D01*
X108525000Y-98122894D01*
X108557081Y-98366571D01*
X108557081Y-98366576D01*
X108620695Y-98603984D01*
X108620699Y-98603997D01*
X108714753Y-98831067D01*
X108714755Y-98831072D01*
X108837647Y-99043926D01*
X108909229Y-99137215D01*
X109627545Y-98418898D01*
X109720343Y-98557780D01*
X109842220Y-98679657D01*
X109981099Y-98772452D01*
X109262783Y-99490769D01*
X109356073Y-99562352D01*
X109568927Y-99685244D01*
X109568932Y-99685246D01*
X109796002Y-99779300D01*
X109796015Y-99779304D01*
X110033425Y-99842918D01*
X110277105Y-99874999D01*
X110277107Y-99875000D01*
X110522893Y-99875000D01*
X110522894Y-99874999D01*
X110766571Y-99842918D01*
X110766576Y-99842918D01*
X111003984Y-99779304D01*
X111003997Y-99779300D01*
X111231067Y-99685246D01*
X111231072Y-99685244D01*
X111443922Y-99562355D01*
X111537215Y-99490769D01*
X110818899Y-98772453D01*
X110957780Y-98679657D01*
X111079657Y-98557780D01*
X111172453Y-98418899D01*
X111890769Y-99137215D01*
X111962355Y-99043922D01*
X112085244Y-98831072D01*
X112085246Y-98831067D01*
X112179300Y-98603997D01*
X112179304Y-98603984D01*
X112239667Y-98378710D01*
X118149500Y-98378710D01*
X118149500Y-98621289D01*
X118181161Y-98861781D01*
X118181161Y-98861786D01*
X118243944Y-99096092D01*
X118243948Y-99096105D01*
X118336772Y-99320204D01*
X118336774Y-99320208D01*
X118336776Y-99320212D01*
X118450924Y-99517922D01*
X118458066Y-99530292D01*
X118605729Y-99722731D01*
X118605731Y-99722733D01*
X118605735Y-99722738D01*
X118777262Y-99894265D01*
X118777266Y-99894268D01*
X118777268Y-99894270D01*
X118969707Y-100041933D01*
X118969711Y-100041936D01*
X119179788Y-100163224D01*
X119403900Y-100256054D01*
X119638211Y-100318838D01*
X119878712Y-100350500D01*
X119878713Y-100350500D01*
X120121287Y-100350500D01*
X120121288Y-100350500D01*
X120361789Y-100318838D01*
X120596100Y-100256054D01*
X120820212Y-100163224D01*
X121030289Y-100041936D01*
X121222738Y-99894265D01*
X121394265Y-99722738D01*
X121541936Y-99530289D01*
X121663224Y-99320212D01*
X121756054Y-99096100D01*
X121818838Y-98861789D01*
X121850500Y-98621288D01*
X121850500Y-98378712D01*
X121818838Y-98138211D01*
X121756054Y-97903900D01*
X121663224Y-97679788D01*
X121541936Y-97469711D01*
X121541933Y-97469707D01*
X121394270Y-97277268D01*
X121394268Y-97277266D01*
X121394265Y-97277262D01*
X121222738Y-97105735D01*
X121222733Y-97105731D01*
X121222731Y-97105729D01*
X121030292Y-96958066D01*
X120865257Y-96862783D01*
X120820212Y-96836776D01*
X120820208Y-96836774D01*
X120820204Y-96836772D01*
X120596105Y-96743948D01*
X120596104Y-96743947D01*
X120596100Y-96743946D01*
X120361789Y-96681162D01*
X120361786Y-96681161D01*
X120361784Y-96681161D01*
X120121289Y-96649500D01*
X120121288Y-96649500D01*
X119878712Y-96649500D01*
X119878710Y-96649500D01*
X119638218Y-96681161D01*
X119638213Y-96681161D01*
X119403907Y-96743944D01*
X119403894Y-96743948D01*
X119179795Y-96836772D01*
X118969707Y-96958066D01*
X118777268Y-97105729D01*
X118605729Y-97277268D01*
X118458066Y-97469707D01*
X118336772Y-97679795D01*
X118243948Y-97903894D01*
X118243944Y-97903907D01*
X118181161Y-98138213D01*
X118181161Y-98138218D01*
X118149500Y-98378710D01*
X112239667Y-98378710D01*
X112242918Y-98366576D01*
X112242920Y-98366565D01*
X112243450Y-98362543D01*
X112274999Y-98122895D01*
X112275000Y-98122893D01*
X112275000Y-97877107D01*
X112274999Y-97877105D01*
X112242918Y-97633428D01*
X112242918Y-97633423D01*
X112179304Y-97396015D01*
X112179300Y-97396002D01*
X112085246Y-97168932D01*
X112085244Y-97168927D01*
X111962352Y-96956073D01*
X111890768Y-96862783D01*
X111172452Y-97581098D01*
X111079657Y-97442220D01*
X110957780Y-97320343D01*
X110818898Y-97227545D01*
X111537215Y-96509229D01*
X111443926Y-96437647D01*
X111231072Y-96314755D01*
X111231067Y-96314753D01*
X111003997Y-96220699D01*
X111003984Y-96220695D01*
X110766574Y-96157081D01*
X110522894Y-96125000D01*
X110277105Y-96125000D01*
X110033428Y-96157081D01*
X110033423Y-96157081D01*
X109796015Y-96220695D01*
X109796002Y-96220699D01*
X109568932Y-96314753D01*
X109568927Y-96314755D01*
X109356078Y-96437644D01*
X109262783Y-96509229D01*
X109981100Y-97227546D01*
X109842220Y-97320343D01*
X109720343Y-97442220D01*
X109627546Y-97581100D01*
X108909229Y-96862783D01*
X108837644Y-96956078D01*
X108714755Y-97168927D01*
X108714753Y-97168932D01*
X108620699Y-97396002D01*
X108620695Y-97396015D01*
X108557081Y-97633423D01*
X108557081Y-97633428D01*
X108525000Y-97877105D01*
X106675500Y-97877105D01*
X106675500Y-96831898D01*
X106664877Y-96743436D01*
X106609361Y-96602658D01*
X106517922Y-96482078D01*
X106397342Y-96390639D01*
X106397341Y-96390638D01*
X106397339Y-96390637D01*
X106256565Y-96335123D01*
X106168106Y-96324500D01*
X106168102Y-96324500D01*
X103831898Y-96324500D01*
X103831893Y-96324500D01*
X103743434Y-96335123D01*
X103602660Y-96390637D01*
X103602656Y-96390640D01*
X103482081Y-96482075D01*
X103482075Y-96482081D01*
X103390640Y-96602656D01*
X103390637Y-96602660D01*
X103335123Y-96743434D01*
X103324500Y-96831893D01*
X66214551Y-96831893D01*
X66537215Y-96509229D01*
X66443926Y-96437647D01*
X66231072Y-96314755D01*
X66231067Y-96314753D01*
X66003997Y-96220699D01*
X66003984Y-96220695D01*
X65766574Y-96157081D01*
X65522894Y-96125000D01*
X65277105Y-96125000D01*
X65033428Y-96157081D01*
X65033423Y-96157081D01*
X64796015Y-96220695D01*
X64796002Y-96220699D01*
X64568932Y-96314753D01*
X64568927Y-96314755D01*
X64356078Y-96437644D01*
X64262783Y-96509229D01*
X64981100Y-97227546D01*
X64842220Y-97320343D01*
X64720343Y-97442220D01*
X64627546Y-97581100D01*
X63909229Y-96862783D01*
X63837644Y-96956078D01*
X63714755Y-97168927D01*
X63714753Y-97168932D01*
X63620699Y-97396002D01*
X63620695Y-97396015D01*
X63557081Y-97633423D01*
X63557081Y-97633428D01*
X63525000Y-97877105D01*
X61675500Y-97877105D01*
X61675500Y-96831898D01*
X61664877Y-96743436D01*
X61609361Y-96602658D01*
X61517922Y-96482078D01*
X61397342Y-96390639D01*
X61397341Y-96390638D01*
X61397339Y-96390637D01*
X61256565Y-96335123D01*
X61168106Y-96324500D01*
X61168102Y-96324500D01*
X58831898Y-96324500D01*
X58831893Y-96324500D01*
X58743434Y-96335123D01*
X58602660Y-96390637D01*
X58602656Y-96390640D01*
X58482081Y-96482075D01*
X58482075Y-96482081D01*
X58390640Y-96602656D01*
X58390637Y-96602660D01*
X58335123Y-96743434D01*
X58324500Y-96831893D01*
X58324500Y-97100500D01*
X58305593Y-97158691D01*
X58256093Y-97194655D01*
X58225500Y-97199500D01*
X48351686Y-97199500D01*
X48293495Y-97180593D01*
X48281682Y-97170504D01*
X44739764Y-93628586D01*
X47095820Y-93628586D01*
X47095820Y-93805973D01*
X47130426Y-93979945D01*
X47130426Y-93979947D01*
X47198305Y-94143824D01*
X47198305Y-94143825D01*
X47200124Y-94146547D01*
X47296856Y-94291315D01*
X47422285Y-94416744D01*
X47569773Y-94515293D01*
X47569774Y-94515293D01*
X47569775Y-94515294D01*
X47576342Y-94518014D01*
X47733654Y-94583174D01*
X47907629Y-94617780D01*
X47907630Y-94617780D01*
X48885010Y-94617780D01*
X48885011Y-94617780D01*
X49058986Y-94583174D01*
X49222867Y-94515293D01*
X49370355Y-94416744D01*
X49495784Y-94291315D01*
X49594333Y-94143827D01*
X49662214Y-93979946D01*
X49696820Y-93805971D01*
X49696820Y-93628589D01*
X49662214Y-93454614D01*
X49628273Y-93372673D01*
X49594334Y-93290735D01*
X49594334Y-93290734D01*
X49495784Y-93143245D01*
X49370354Y-93017815D01*
X49222864Y-92919265D01*
X49058986Y-92851386D01*
X48885013Y-92816780D01*
X48885011Y-92816780D01*
X47907629Y-92816780D01*
X47907626Y-92816780D01*
X47733654Y-92851386D01*
X47733652Y-92851386D01*
X47569775Y-92919265D01*
X47569774Y-92919265D01*
X47422285Y-93017815D01*
X47296855Y-93143245D01*
X47198305Y-93290734D01*
X47198305Y-93290735D01*
X47130426Y-93454612D01*
X47130426Y-93454614D01*
X47095820Y-93628586D01*
X44739764Y-93628586D01*
X44209392Y-93098214D01*
X44209389Y-93098211D01*
X44157159Y-93063312D01*
X44078285Y-93010609D01*
X44078274Y-93010603D01*
X43932597Y-92950263D01*
X43777944Y-92919500D01*
X43777942Y-92919500D01*
X23840234Y-92919500D01*
X23802349Y-92911964D01*
X23662666Y-92854106D01*
X23488693Y-92819500D01*
X23488691Y-92819500D01*
X22511309Y-92819500D01*
X22511306Y-92819500D01*
X22337334Y-92854106D01*
X22337332Y-92854106D01*
X22173455Y-92921985D01*
X22173454Y-92921985D01*
X22025965Y-93020535D01*
X21900535Y-93145965D01*
X21801985Y-93293454D01*
X21801985Y-93293455D01*
X21734106Y-93457332D01*
X21734106Y-93457334D01*
X21699500Y-93631306D01*
X20500500Y-93631306D01*
X20500500Y-91091306D01*
X21699500Y-91091306D01*
X21699500Y-91268693D01*
X21734106Y-91442665D01*
X21734106Y-91442667D01*
X21801985Y-91606544D01*
X21801985Y-91606545D01*
X21900535Y-91754034D01*
X21900536Y-91754035D01*
X22025965Y-91879464D01*
X22173453Y-91978013D01*
X22337334Y-92045894D01*
X22511309Y-92080500D01*
X22511310Y-92080500D01*
X23488690Y-92080500D01*
X23488691Y-92080500D01*
X23662666Y-92045894D01*
X23826547Y-91978013D01*
X23974035Y-91879464D01*
X24099464Y-91754035D01*
X24198013Y-91606547D01*
X24265894Y-91442666D01*
X24300500Y-91268691D01*
X24300500Y-91091309D01*
X24299958Y-91088586D01*
X47095820Y-91088586D01*
X47095820Y-91265973D01*
X47130426Y-91439945D01*
X47130426Y-91439947D01*
X47198305Y-91603824D01*
X47198305Y-91603825D01*
X47200124Y-91606547D01*
X47296856Y-91751315D01*
X47422285Y-91876744D01*
X47569773Y-91975293D01*
X47569774Y-91975293D01*
X47569775Y-91975294D01*
X47576342Y-91978014D01*
X47733654Y-92043174D01*
X47907629Y-92077780D01*
X47907630Y-92077780D01*
X48885010Y-92077780D01*
X48885011Y-92077780D01*
X49058986Y-92043174D01*
X49222867Y-91975293D01*
X49370355Y-91876744D01*
X49495784Y-91751315D01*
X49594333Y-91603827D01*
X49662214Y-91439946D01*
X49696820Y-91265971D01*
X49696820Y-91088589D01*
X49662214Y-90914614D01*
X49617642Y-90807007D01*
X49594334Y-90750735D01*
X49594334Y-90750734D01*
X49495784Y-90603245D01*
X49370354Y-90477815D01*
X49222864Y-90379265D01*
X49058986Y-90311386D01*
X49006958Y-90301037D01*
X48885013Y-90276780D01*
X48885011Y-90276780D01*
X47907629Y-90276780D01*
X47907626Y-90276780D01*
X47733654Y-90311386D01*
X47733652Y-90311386D01*
X47569775Y-90379265D01*
X47569774Y-90379265D01*
X47422285Y-90477815D01*
X47296855Y-90603245D01*
X47198305Y-90750734D01*
X47198305Y-90750735D01*
X47130426Y-90914612D01*
X47130426Y-90914614D01*
X47095820Y-91088586D01*
X24299958Y-91088586D01*
X24265894Y-90917334D01*
X24198014Y-90753455D01*
X24198014Y-90753454D01*
X24099464Y-90605965D01*
X23974034Y-90480535D01*
X23826544Y-90381985D01*
X23662666Y-90314106D01*
X23488693Y-90279500D01*
X23488691Y-90279500D01*
X22511309Y-90279500D01*
X22511306Y-90279500D01*
X22337334Y-90314106D01*
X22337332Y-90314106D01*
X22173455Y-90381985D01*
X22173454Y-90381985D01*
X22025965Y-90480535D01*
X21900535Y-90605965D01*
X21801985Y-90753454D01*
X21801985Y-90753455D01*
X21734106Y-90917332D01*
X21734106Y-90917334D01*
X21699500Y-91091306D01*
X20500500Y-91091306D01*
X20500500Y-90206893D01*
X79699500Y-90206893D01*
X79699500Y-91793106D01*
X79710123Y-91881565D01*
X79765637Y-92022339D01*
X79765638Y-92022341D01*
X79765639Y-92022342D01*
X79857078Y-92142922D01*
X79977658Y-92234361D01*
X79977659Y-92234361D01*
X79977660Y-92234362D01*
X80048047Y-92262119D01*
X80118436Y-92289877D01*
X80206898Y-92300500D01*
X80206900Y-92300500D01*
X81793100Y-92300500D01*
X81793102Y-92300500D01*
X81881564Y-92289877D01*
X82022342Y-92234361D01*
X82142922Y-92142922D01*
X82234361Y-92022342D01*
X82289877Y-91881564D01*
X82300500Y-91793102D01*
X82300500Y-90881943D01*
X84500000Y-90881943D01*
X84500000Y-91118056D01*
X84536934Y-91351252D01*
X84536935Y-91351256D01*
X84609892Y-91575793D01*
X84609894Y-91575796D01*
X84717084Y-91786169D01*
X84777339Y-91869105D01*
X85517036Y-91129407D01*
X85534075Y-91192993D01*
X85599901Y-91307007D01*
X85692993Y-91400099D01*
X85807007Y-91465925D01*
X85870590Y-91482962D01*
X85130893Y-92222659D01*
X85213825Y-92282913D01*
X85213829Y-92282915D01*
X85424203Y-92390105D01*
X85424206Y-92390107D01*
X85648743Y-92463064D01*
X85648747Y-92463065D01*
X85881944Y-92500000D01*
X86118056Y-92500000D01*
X86351252Y-92463065D01*
X86351256Y-92463064D01*
X86575793Y-92390107D01*
X86575796Y-92390105D01*
X86786170Y-92282915D01*
X86786176Y-92282911D01*
X86869105Y-92222659D01*
X86869105Y-92222658D01*
X86129409Y-91482962D01*
X86192993Y-91465925D01*
X86307007Y-91400099D01*
X86400099Y-91307007D01*
X86465925Y-91192993D01*
X86482962Y-91129409D01*
X87222658Y-91869105D01*
X87222659Y-91869105D01*
X87282911Y-91786176D01*
X87282915Y-91786170D01*
X87390105Y-91575796D01*
X87390107Y-91575793D01*
X87463064Y-91351256D01*
X87463065Y-91351252D01*
X87500000Y-91118056D01*
X87500000Y-90881943D01*
X87463065Y-90648747D01*
X87463064Y-90648743D01*
X87390107Y-90424206D01*
X87390105Y-90424203D01*
X87282915Y-90213829D01*
X87282913Y-90213825D01*
X87222659Y-90130893D01*
X86482962Y-90870590D01*
X86465925Y-90807007D01*
X86400099Y-90692993D01*
X86307007Y-90599901D01*
X86192993Y-90534075D01*
X86129407Y-90517036D01*
X86869105Y-89777339D01*
X86786169Y-89717084D01*
X86575796Y-89609894D01*
X86575793Y-89609892D01*
X86351256Y-89536935D01*
X86351252Y-89536934D01*
X86118056Y-89500000D01*
X85881944Y-89500000D01*
X85648747Y-89536934D01*
X85648743Y-89536935D01*
X85424206Y-89609892D01*
X85424203Y-89609894D01*
X85213823Y-89717088D01*
X85130893Y-89777339D01*
X85870591Y-90517037D01*
X85807007Y-90534075D01*
X85692993Y-90599901D01*
X85599901Y-90692993D01*
X85534075Y-90807007D01*
X85517037Y-90870591D01*
X84777339Y-90130893D01*
X84717088Y-90213823D01*
X84609894Y-90424203D01*
X84609892Y-90424206D01*
X84536935Y-90648743D01*
X84536934Y-90648747D01*
X84500000Y-90881943D01*
X82300500Y-90881943D01*
X82300500Y-90206898D01*
X82289877Y-90118436D01*
X82234361Y-89977658D01*
X82142922Y-89857078D01*
X82022342Y-89765639D01*
X82022341Y-89765638D01*
X82022339Y-89765637D01*
X81881565Y-89710123D01*
X81793106Y-89699500D01*
X81793102Y-89699500D01*
X80206898Y-89699500D01*
X80206893Y-89699500D01*
X80118434Y-89710123D01*
X79977660Y-89765637D01*
X79977656Y-89765640D01*
X79857081Y-89857075D01*
X79857075Y-89857081D01*
X79765640Y-89977656D01*
X79765637Y-89977660D01*
X79710123Y-90118434D01*
X79699500Y-90206893D01*
X20500500Y-90206893D01*
X20500500Y-88551306D01*
X21699500Y-88551306D01*
X21699500Y-88728693D01*
X21734106Y-88902665D01*
X21734106Y-88902667D01*
X21801985Y-89066544D01*
X21801985Y-89066545D01*
X21900535Y-89214034D01*
X21900536Y-89214035D01*
X22025965Y-89339464D01*
X22173453Y-89438013D01*
X22337334Y-89505894D01*
X22511309Y-89540500D01*
X22511310Y-89540500D01*
X23488690Y-89540500D01*
X23488691Y-89540500D01*
X23662666Y-89505894D01*
X23826547Y-89438013D01*
X23974035Y-89339464D01*
X24099464Y-89214035D01*
X24198013Y-89066547D01*
X24265894Y-88902666D01*
X24300500Y-88728691D01*
X24300500Y-88551309D01*
X24300499Y-88551306D01*
X47099500Y-88551306D01*
X47099500Y-88728693D01*
X47134106Y-88902665D01*
X47134106Y-88902667D01*
X47201985Y-89066544D01*
X47201985Y-89066545D01*
X47300535Y-89214034D01*
X47300536Y-89214035D01*
X47425965Y-89339464D01*
X47573453Y-89438013D01*
X47737334Y-89505894D01*
X47911309Y-89540500D01*
X47911310Y-89540500D01*
X48888690Y-89540500D01*
X48888691Y-89540500D01*
X49062666Y-89505894D01*
X49226547Y-89438013D01*
X49374035Y-89339464D01*
X49499464Y-89214035D01*
X49598013Y-89066547D01*
X49665894Y-88902666D01*
X49700500Y-88728691D01*
X49700500Y-88551309D01*
X49665894Y-88377334D01*
X49598014Y-88213455D01*
X49598014Y-88213454D01*
X49499464Y-88065965D01*
X49374034Y-87940535D01*
X49226544Y-87841985D01*
X49062666Y-87774106D01*
X48888693Y-87739500D01*
X48888691Y-87739500D01*
X47911309Y-87739500D01*
X47911306Y-87739500D01*
X47737334Y-87774106D01*
X47737332Y-87774106D01*
X47573455Y-87841985D01*
X47573454Y-87841985D01*
X47425965Y-87940535D01*
X47300535Y-88065965D01*
X47201985Y-88213454D01*
X47201985Y-88213455D01*
X47134106Y-88377332D01*
X47134106Y-88377334D01*
X47099500Y-88551306D01*
X24300499Y-88551306D01*
X24265894Y-88377334D01*
X24198014Y-88213455D01*
X24198014Y-88213454D01*
X24099464Y-88065965D01*
X23974034Y-87940535D01*
X23826544Y-87841985D01*
X23662666Y-87774106D01*
X23488693Y-87739500D01*
X23488691Y-87739500D01*
X22511309Y-87739500D01*
X22511306Y-87739500D01*
X22337334Y-87774106D01*
X22337332Y-87774106D01*
X22173455Y-87841985D01*
X22173454Y-87841985D01*
X22025965Y-87940535D01*
X21900535Y-88065965D01*
X21801985Y-88213454D01*
X21801985Y-88213455D01*
X21734106Y-88377332D01*
X21734106Y-88377334D01*
X21699500Y-88551306D01*
X20500500Y-88551306D01*
X20500500Y-86011306D01*
X21699500Y-86011306D01*
X21699500Y-86188693D01*
X21734106Y-86362665D01*
X21734106Y-86362667D01*
X21801985Y-86526544D01*
X21801985Y-86526545D01*
X21836066Y-86577550D01*
X21900536Y-86674035D01*
X22025965Y-86799464D01*
X22173453Y-86898013D01*
X22337334Y-86965894D01*
X22511309Y-87000500D01*
X22511310Y-87000500D01*
X23488690Y-87000500D01*
X23488691Y-87000500D01*
X23662666Y-86965894D01*
X23826547Y-86898013D01*
X23974035Y-86799464D01*
X24099464Y-86674035D01*
X24198013Y-86526547D01*
X24265894Y-86362666D01*
X24300500Y-86188691D01*
X24300500Y-86011309D01*
X24300499Y-86011306D01*
X47099500Y-86011306D01*
X47099500Y-86188693D01*
X47134106Y-86362665D01*
X47134106Y-86362667D01*
X47201985Y-86526544D01*
X47201985Y-86526545D01*
X47236066Y-86577550D01*
X47300536Y-86674035D01*
X47425965Y-86799464D01*
X47573453Y-86898013D01*
X47737334Y-86965894D01*
X47911309Y-87000500D01*
X47911310Y-87000500D01*
X48888690Y-87000500D01*
X48888691Y-87000500D01*
X49062666Y-86965894D01*
X49226547Y-86898013D01*
X49374035Y-86799464D01*
X49499464Y-86674035D01*
X49598013Y-86526547D01*
X49618296Y-86477579D01*
X92525900Y-86477579D01*
X92525900Y-86674420D01*
X92556689Y-86868821D01*
X92588230Y-86965893D01*
X92617516Y-87056025D01*
X92706876Y-87231405D01*
X92822572Y-87390646D01*
X92961754Y-87529828D01*
X93120995Y-87645524D01*
X93296375Y-87734884D01*
X93483574Y-87795709D01*
X93483575Y-87795709D01*
X93483578Y-87795710D01*
X93677980Y-87826500D01*
X93677983Y-87826500D01*
X93874820Y-87826500D01*
X94069221Y-87795710D01*
X94069222Y-87795709D01*
X94069226Y-87795709D01*
X94256425Y-87734884D01*
X94431805Y-87645524D01*
X94591046Y-87529828D01*
X94730228Y-87390646D01*
X94845924Y-87231405D01*
X94935284Y-87056025D01*
X94996109Y-86868826D01*
X94999012Y-86850500D01*
X95026900Y-86674420D01*
X95026900Y-86477579D01*
X94996110Y-86283178D01*
X94965409Y-86188691D01*
X94935284Y-86095975D01*
X94845924Y-85920595D01*
X94730228Y-85761354D01*
X94591046Y-85622172D01*
X94573536Y-85609450D01*
X114349500Y-85609450D01*
X114349500Y-85790549D01*
X114377828Y-85969406D01*
X114377829Y-85969409D01*
X114433789Y-86141639D01*
X114516004Y-86302994D01*
X114622447Y-86449501D01*
X114750499Y-86577553D01*
X114897006Y-86683996D01*
X115058361Y-86766211D01*
X115230591Y-86822171D01*
X115302136Y-86833502D01*
X115409451Y-86850500D01*
X115409454Y-86850500D01*
X115590549Y-86850500D01*
X115679977Y-86836335D01*
X115769409Y-86822171D01*
X115941639Y-86766211D01*
X116102994Y-86683996D01*
X116249501Y-86577553D01*
X116377553Y-86449501D01*
X116483996Y-86302994D01*
X116566211Y-86141639D01*
X116622171Y-85969409D01*
X116650500Y-85790546D01*
X116650500Y-85609454D01*
X116650500Y-85609450D01*
X116622171Y-85430593D01*
X116622171Y-85430591D01*
X116566211Y-85258361D01*
X116483996Y-85097006D01*
X116377553Y-84950499D01*
X116249501Y-84822447D01*
X116102994Y-84716004D01*
X116102993Y-84716003D01*
X116102991Y-84716002D01*
X115941637Y-84633788D01*
X115769406Y-84577828D01*
X115590549Y-84549500D01*
X115590546Y-84549500D01*
X115409454Y-84549500D01*
X115409451Y-84549500D01*
X115230593Y-84577828D01*
X115058362Y-84633788D01*
X114897008Y-84716002D01*
X114823752Y-84769225D01*
X114750499Y-84822447D01*
X114622447Y-84950499D01*
X114569225Y-85023752D01*
X114516002Y-85097008D01*
X114433788Y-85258362D01*
X114377828Y-85430593D01*
X114349500Y-85609450D01*
X94573536Y-85609450D01*
X94431805Y-85506476D01*
X94431804Y-85506475D01*
X94431802Y-85506474D01*
X94256425Y-85417116D01*
X94069221Y-85356289D01*
X93874820Y-85325500D01*
X93874817Y-85325500D01*
X93677983Y-85325500D01*
X93677980Y-85325500D01*
X93483578Y-85356289D01*
X93296374Y-85417116D01*
X93120997Y-85506474D01*
X92961755Y-85622171D01*
X92822571Y-85761355D01*
X92706874Y-85920597D01*
X92617516Y-86095974D01*
X92556689Y-86283178D01*
X92525900Y-86477579D01*
X49618296Y-86477579D01*
X49665894Y-86362666D01*
X49700500Y-86188691D01*
X49700500Y-86011309D01*
X49665894Y-85837334D01*
X49598014Y-85673455D01*
X49598014Y-85673454D01*
X49499464Y-85525965D01*
X49374034Y-85400535D01*
X49226544Y-85301985D01*
X49062666Y-85234106D01*
X48888693Y-85199500D01*
X48888691Y-85199500D01*
X47911309Y-85199500D01*
X47911306Y-85199500D01*
X47737334Y-85234106D01*
X47737332Y-85234106D01*
X47573455Y-85301985D01*
X47573454Y-85301985D01*
X47425965Y-85400535D01*
X47300535Y-85525965D01*
X47201985Y-85673454D01*
X47201985Y-85673455D01*
X47134106Y-85837332D01*
X47134106Y-85837334D01*
X47099500Y-86011306D01*
X24300499Y-86011306D01*
X24265894Y-85837334D01*
X24198014Y-85673455D01*
X24198014Y-85673454D01*
X24099464Y-85525965D01*
X23974034Y-85400535D01*
X23826544Y-85301985D01*
X23662666Y-85234106D01*
X23488693Y-85199500D01*
X23488691Y-85199500D01*
X22511309Y-85199500D01*
X22511306Y-85199500D01*
X22337334Y-85234106D01*
X22337332Y-85234106D01*
X22173455Y-85301985D01*
X22173454Y-85301985D01*
X22025965Y-85400535D01*
X21900535Y-85525965D01*
X21801985Y-85673454D01*
X21801985Y-85673455D01*
X21734106Y-85837332D01*
X21734106Y-85837334D01*
X21699500Y-86011306D01*
X20500500Y-86011306D01*
X20500500Y-83471306D01*
X21699500Y-83471306D01*
X21699500Y-83648693D01*
X21734106Y-83822665D01*
X21734106Y-83822667D01*
X21801985Y-83986544D01*
X21801985Y-83986545D01*
X21836066Y-84037550D01*
X21900536Y-84134035D01*
X22025965Y-84259464D01*
X22173453Y-84358013D01*
X22337334Y-84425894D01*
X22511309Y-84460500D01*
X22511310Y-84460500D01*
X23488690Y-84460500D01*
X23488691Y-84460500D01*
X23662666Y-84425894D01*
X23826547Y-84358013D01*
X23974035Y-84259464D01*
X24099464Y-84134035D01*
X24198013Y-83986547D01*
X24265894Y-83822666D01*
X24300500Y-83648691D01*
X24300500Y-83471309D01*
X24300499Y-83471306D01*
X47099500Y-83471306D01*
X47099500Y-83648693D01*
X47134106Y-83822665D01*
X47134106Y-83822667D01*
X47201985Y-83986544D01*
X47201985Y-83986545D01*
X47236066Y-84037550D01*
X47300536Y-84134035D01*
X47425965Y-84259464D01*
X47573453Y-84358013D01*
X47737334Y-84425894D01*
X47911309Y-84460500D01*
X47911310Y-84460500D01*
X48888690Y-84460500D01*
X48888691Y-84460500D01*
X49062666Y-84425894D01*
X49226547Y-84358013D01*
X49374035Y-84259464D01*
X49499464Y-84134035D01*
X49598013Y-83986547D01*
X49665894Y-83822666D01*
X49700500Y-83648691D01*
X49700500Y-83471309D01*
X49665894Y-83297334D01*
X49598014Y-83133455D01*
X49598014Y-83133454D01*
X49589402Y-83120566D01*
X49499464Y-82985965D01*
X49374034Y-82860535D01*
X49226544Y-82761985D01*
X49062666Y-82694106D01*
X48888693Y-82659500D01*
X48888691Y-82659500D01*
X47911309Y-82659500D01*
X47911306Y-82659500D01*
X47737334Y-82694106D01*
X47737332Y-82694106D01*
X47573455Y-82761985D01*
X47573454Y-82761985D01*
X47425965Y-82860535D01*
X47300535Y-82985965D01*
X47201985Y-83133454D01*
X47201985Y-83133455D01*
X47134106Y-83297332D01*
X47134106Y-83297334D01*
X47099500Y-83471306D01*
X24300499Y-83471306D01*
X24265894Y-83297334D01*
X24198014Y-83133455D01*
X24198014Y-83133454D01*
X24099464Y-82985965D01*
X23974034Y-82860535D01*
X23826544Y-82761985D01*
X23662666Y-82694106D01*
X23488693Y-82659500D01*
X23488691Y-82659500D01*
X22511309Y-82659500D01*
X22511306Y-82659500D01*
X22337334Y-82694106D01*
X22337332Y-82694106D01*
X22173455Y-82761985D01*
X22173454Y-82761985D01*
X22025965Y-82860535D01*
X21900535Y-82985965D01*
X21801985Y-83133454D01*
X21801985Y-83133455D01*
X21734106Y-83297332D01*
X21734106Y-83297334D01*
X21699500Y-83471306D01*
X20500500Y-83471306D01*
X20500500Y-80770000D01*
X21525886Y-80770000D01*
X22684314Y-80770000D01*
X22679920Y-80774394D01*
X22627259Y-80865606D01*
X22600000Y-80967339D01*
X22600000Y-81072661D01*
X22627259Y-81174394D01*
X22679920Y-81265606D01*
X22684314Y-81270000D01*
X21525886Y-81270000D01*
X21527086Y-81277586D01*
X21580588Y-81442248D01*
X21659195Y-81596524D01*
X21659197Y-81596528D01*
X21760962Y-81736596D01*
X21883403Y-81859037D01*
X22023471Y-81960802D01*
X22023475Y-81960804D01*
X22177751Y-82039411D01*
X22342420Y-82092915D01*
X22513425Y-82120000D01*
X22749999Y-82120000D01*
X22750000Y-82119999D01*
X22750000Y-81335686D01*
X22754394Y-81340080D01*
X22845606Y-81392741D01*
X22947339Y-81420000D01*
X23052661Y-81420000D01*
X23154394Y-81392741D01*
X23245606Y-81340080D01*
X23250000Y-81335686D01*
X23250000Y-82119999D01*
X23250001Y-82120000D01*
X23486575Y-82120000D01*
X23657579Y-82092915D01*
X23822248Y-82039411D01*
X23976524Y-81960804D01*
X23976528Y-81960802D01*
X24116596Y-81859037D01*
X24239037Y-81736596D01*
X24340802Y-81596528D01*
X24340804Y-81596524D01*
X24419411Y-81442248D01*
X24472913Y-81277586D01*
X24474114Y-81270000D01*
X23315686Y-81270000D01*
X23320080Y-81265606D01*
X23372741Y-81174394D01*
X23400000Y-81072661D01*
X23400000Y-80967339D01*
X23390345Y-80931306D01*
X47099500Y-80931306D01*
X47099500Y-81108693D01*
X47134106Y-81282665D01*
X47134106Y-81282667D01*
X47201985Y-81446544D01*
X47201985Y-81446545D01*
X47236066Y-81497550D01*
X47300536Y-81594035D01*
X47425965Y-81719464D01*
X47573453Y-81818013D01*
X47737334Y-81885894D01*
X47911309Y-81920500D01*
X47911310Y-81920500D01*
X48888690Y-81920500D01*
X48888691Y-81920500D01*
X49062666Y-81885894D01*
X49226547Y-81818013D01*
X49374035Y-81719464D01*
X49499464Y-81594035D01*
X49598013Y-81446547D01*
X49665894Y-81282666D01*
X49700500Y-81108691D01*
X49700500Y-80931309D01*
X49665894Y-80757334D01*
X49598014Y-80593455D01*
X49598014Y-80593454D01*
X49499464Y-80445965D01*
X49374034Y-80320535D01*
X49226544Y-80221985D01*
X49062666Y-80154106D01*
X48888693Y-80119500D01*
X48888691Y-80119500D01*
X47911309Y-80119500D01*
X47911306Y-80119500D01*
X47737334Y-80154106D01*
X47737332Y-80154106D01*
X47573455Y-80221985D01*
X47573454Y-80221985D01*
X47425965Y-80320535D01*
X47300535Y-80445965D01*
X47201985Y-80593454D01*
X47201985Y-80593455D01*
X47134106Y-80757332D01*
X47134106Y-80757334D01*
X47099500Y-80931306D01*
X23390345Y-80931306D01*
X23372741Y-80865606D01*
X23320080Y-80774394D01*
X23315686Y-80770000D01*
X24474114Y-80770000D01*
X24472913Y-80762413D01*
X24419411Y-80597751D01*
X24340804Y-80443475D01*
X24340802Y-80443471D01*
X24239037Y-80303403D01*
X24116596Y-80180962D01*
X23976528Y-80079197D01*
X23976524Y-80079195D01*
X23822248Y-80000588D01*
X23657579Y-79947084D01*
X23486575Y-79920000D01*
X23250001Y-79920000D01*
X23250000Y-79920001D01*
X23250000Y-80704314D01*
X23245606Y-80699920D01*
X23154394Y-80647259D01*
X23052661Y-80620000D01*
X22947339Y-80620000D01*
X22845606Y-80647259D01*
X22754394Y-80699920D01*
X22750000Y-80704314D01*
X22750000Y-79920001D01*
X22749999Y-79920000D01*
X22513425Y-79920000D01*
X22342420Y-79947084D01*
X22177751Y-80000588D01*
X22023475Y-80079195D01*
X22023471Y-80079197D01*
X21883403Y-80180962D01*
X21760962Y-80303403D01*
X21659197Y-80443471D01*
X21659195Y-80443475D01*
X21580588Y-80597751D01*
X21527086Y-80762413D01*
X21525886Y-80770000D01*
X20500500Y-80770000D01*
X20500500Y-78391306D01*
X21699500Y-78391306D01*
X21699500Y-78568693D01*
X21734106Y-78742665D01*
X21734106Y-78742667D01*
X21801985Y-78906544D01*
X21801985Y-78906545D01*
X21836066Y-78957550D01*
X21900536Y-79054035D01*
X22025965Y-79179464D01*
X22173453Y-79278013D01*
X22337334Y-79345894D01*
X22511309Y-79380500D01*
X22511310Y-79380500D01*
X23488690Y-79380500D01*
X23488691Y-79380500D01*
X23662666Y-79345894D01*
X23826547Y-79278013D01*
X23974035Y-79179464D01*
X24099464Y-79054035D01*
X24198013Y-78906547D01*
X24265894Y-78742666D01*
X24300500Y-78568691D01*
X24300500Y-78391309D01*
X24265894Y-78217334D01*
X24198014Y-78053455D01*
X24198014Y-78053454D01*
X24099464Y-77905965D01*
X23974034Y-77780535D01*
X23826544Y-77681985D01*
X23662666Y-77614106D01*
X23488693Y-77579500D01*
X23488691Y-77579500D01*
X22511309Y-77579500D01*
X22511306Y-77579500D01*
X22337334Y-77614106D01*
X22337332Y-77614106D01*
X22173455Y-77681985D01*
X22173454Y-77681985D01*
X22025965Y-77780535D01*
X21900535Y-77905965D01*
X21801985Y-78053454D01*
X21801985Y-78053455D01*
X21734106Y-78217332D01*
X21734106Y-78217334D01*
X21699500Y-78391306D01*
X20500500Y-78391306D01*
X20500500Y-63183982D01*
X21247800Y-63183982D01*
X21247800Y-66150382D01*
X21247800Y-66262418D01*
X21272349Y-66354035D01*
X21276798Y-66370641D01*
X21321285Y-66447693D01*
X21332815Y-66467663D01*
X22147237Y-67282085D01*
X22147239Y-67282086D01*
X22226275Y-67327718D01*
X22267216Y-67373187D01*
X22273612Y-67434037D01*
X22243019Y-67487025D01*
X22214661Y-67504918D01*
X22173453Y-67521986D01*
X22025965Y-67620535D01*
X21900535Y-67745965D01*
X21801985Y-67893454D01*
X21801985Y-67893455D01*
X21734106Y-68057332D01*
X21734106Y-68057334D01*
X21699500Y-68231306D01*
X21699500Y-68408693D01*
X21734106Y-68582665D01*
X21734106Y-68582667D01*
X21801985Y-68746544D01*
X21801985Y-68746545D01*
X21888965Y-68876718D01*
X21900536Y-68894035D01*
X22025965Y-69019464D01*
X22173453Y-69118013D01*
X22337334Y-69185894D01*
X22511309Y-69220500D01*
X22511310Y-69220500D01*
X23488690Y-69220500D01*
X23488691Y-69220500D01*
X23662666Y-69185894D01*
X23826547Y-69118013D01*
X23974035Y-69019464D01*
X24099464Y-68894035D01*
X24112362Y-68874730D01*
X24160410Y-68836853D01*
X24221548Y-68834449D01*
X24264681Y-68859729D01*
X27875437Y-72470485D01*
X27875439Y-72470486D01*
X27972459Y-72526501D01*
X27972457Y-72526501D01*
X27972461Y-72526502D01*
X27972463Y-72526503D01*
X28080682Y-72555500D01*
X28192719Y-72555500D01*
X47331993Y-72555500D01*
X47390184Y-72574407D01*
X47426148Y-72623907D01*
X47426148Y-72685093D01*
X47401997Y-72724504D01*
X47300535Y-72825965D01*
X47201985Y-72973454D01*
X47201985Y-72973455D01*
X47134106Y-73137332D01*
X47134106Y-73137334D01*
X47099500Y-73311306D01*
X47099500Y-73488693D01*
X47100792Y-73495186D01*
X47131309Y-73648607D01*
X47134106Y-73662665D01*
X47134106Y-73662667D01*
X47201985Y-73826544D01*
X47201985Y-73826545D01*
X47300538Y-73974039D01*
X47301982Y-73975798D01*
X47302361Y-73976766D01*
X47303238Y-73978079D01*
X47302950Y-73978271D01*
X47324281Y-74032775D01*
X47308830Y-74091978D01*
X47261531Y-74130792D01*
X47225452Y-74137600D01*
X25707056Y-74137600D01*
X25648865Y-74118693D01*
X25637052Y-74108604D01*
X25113493Y-73585045D01*
X24587963Y-73059515D01*
X24587960Y-73059513D01*
X24490940Y-73003498D01*
X24490942Y-73003498D01*
X24448951Y-72992247D01*
X24382718Y-72974500D01*
X24382716Y-72974500D01*
X24251629Y-72974500D01*
X24193438Y-72955593D01*
X24169314Y-72930502D01*
X24099464Y-72825965D01*
X23974034Y-72700535D01*
X23826544Y-72601985D01*
X23662666Y-72534106D01*
X23488693Y-72499500D01*
X23488691Y-72499500D01*
X22511309Y-72499500D01*
X22511306Y-72499500D01*
X22337337Y-72534105D01*
X22337335Y-72534105D01*
X22337334Y-72534106D01*
X22240038Y-72574407D01*
X22235685Y-72576210D01*
X22174688Y-72581009D01*
X22122519Y-72549039D01*
X22099105Y-72492511D01*
X22098800Y-72484745D01*
X22098800Y-71775254D01*
X22117707Y-71717063D01*
X22167207Y-71681099D01*
X22228393Y-71681099D01*
X22235683Y-71683789D01*
X22337334Y-71725894D01*
X22511309Y-71760500D01*
X22511310Y-71760500D01*
X23488690Y-71760500D01*
X23488691Y-71760500D01*
X23662666Y-71725894D01*
X23826547Y-71658013D01*
X23974035Y-71559464D01*
X24099464Y-71434035D01*
X24198013Y-71286547D01*
X24265894Y-71122666D01*
X24300500Y-70948691D01*
X24300500Y-70771309D01*
X24265894Y-70597334D01*
X24210458Y-70463498D01*
X24198014Y-70433455D01*
X24198014Y-70433454D01*
X24099464Y-70285965D01*
X23974034Y-70160535D01*
X23826544Y-70061985D01*
X23662666Y-69994106D01*
X23488693Y-69959500D01*
X23488691Y-69959500D01*
X22511309Y-69959500D01*
X22511306Y-69959500D01*
X22337334Y-69994106D01*
X22337332Y-69994106D01*
X22173455Y-70061985D01*
X22173454Y-70061985D01*
X22025965Y-70160535D01*
X21900535Y-70285965D01*
X21830686Y-70390502D01*
X21782636Y-70428381D01*
X21748371Y-70434500D01*
X21729318Y-70434500D01*
X21617282Y-70434500D01*
X21551048Y-70452247D01*
X21509058Y-70463498D01*
X21412039Y-70519513D01*
X21332813Y-70598739D01*
X21276798Y-70695758D01*
X21276797Y-70695763D01*
X21247800Y-70803982D01*
X21247800Y-73754882D01*
X21247800Y-73866918D01*
X21260536Y-73914449D01*
X21276798Y-73975141D01*
X21310074Y-74032775D01*
X21332815Y-74072163D01*
X22230745Y-74970093D01*
X22258521Y-75024608D01*
X22248950Y-75085040D01*
X22205685Y-75128305D01*
X22198628Y-75131558D01*
X22173455Y-75141985D01*
X22173454Y-75141985D01*
X22025965Y-75240535D01*
X21900535Y-75365965D01*
X21801985Y-75513454D01*
X21801985Y-75513455D01*
X21734106Y-75677332D01*
X21734106Y-75677334D01*
X21699500Y-75851306D01*
X21699500Y-76028693D01*
X21720269Y-76133101D01*
X21729002Y-76177009D01*
X21734106Y-76202665D01*
X21734106Y-76202667D01*
X21801985Y-76366544D01*
X21801985Y-76366545D01*
X21900535Y-76514034D01*
X21900536Y-76514035D01*
X22025965Y-76639464D01*
X22173453Y-76738013D01*
X22337334Y-76805894D01*
X22511309Y-76840500D01*
X22511310Y-76840500D01*
X23488690Y-76840500D01*
X23488691Y-76840500D01*
X23662666Y-76805894D01*
X23826547Y-76738013D01*
X23974035Y-76639464D01*
X24099464Y-76514035D01*
X24198013Y-76366547D01*
X24265894Y-76202666D01*
X24265896Y-76202655D01*
X24266313Y-76201649D01*
X24306050Y-76155123D01*
X24365544Y-76140839D01*
X24422072Y-76164253D01*
X24427782Y-76169530D01*
X25616437Y-77358185D01*
X25616439Y-77358186D01*
X25713459Y-77414201D01*
X25713457Y-77414201D01*
X25713461Y-77414202D01*
X25713463Y-77414203D01*
X25821681Y-77443200D01*
X25821682Y-77443200D01*
X47652231Y-77443200D01*
X47710422Y-77462107D01*
X47746386Y-77511607D01*
X47746386Y-77572793D01*
X47710422Y-77622293D01*
X47690116Y-77633664D01*
X47573455Y-77681985D01*
X47573454Y-77681985D01*
X47425965Y-77780535D01*
X47300535Y-77905965D01*
X47201985Y-78053454D01*
X47201985Y-78053455D01*
X47134106Y-78217332D01*
X47134106Y-78217334D01*
X47099500Y-78391306D01*
X47099500Y-78568693D01*
X47134106Y-78742665D01*
X47134106Y-78742667D01*
X47201985Y-78906544D01*
X47201985Y-78906545D01*
X47236066Y-78957550D01*
X47300536Y-79054035D01*
X47425965Y-79179464D01*
X47573453Y-79278013D01*
X47737334Y-79345894D01*
X47911309Y-79380500D01*
X47911310Y-79380500D01*
X48888690Y-79380500D01*
X48888691Y-79380500D01*
X49062666Y-79345894D01*
X49226547Y-79278013D01*
X49374035Y-79179464D01*
X49499464Y-79054035D01*
X49598013Y-78906547D01*
X49665894Y-78742666D01*
X49700500Y-78568691D01*
X49700500Y-78391309D01*
X49665894Y-78217334D01*
X49598014Y-78053455D01*
X49598014Y-78053454D01*
X49499464Y-77905965D01*
X49374034Y-77780535D01*
X49226544Y-77681985D01*
X49109884Y-77633664D01*
X49063358Y-77593928D01*
X49049074Y-77534433D01*
X49072488Y-77477905D01*
X49124657Y-77445936D01*
X49147769Y-77443200D01*
X50331944Y-77443200D01*
X50390135Y-77462107D01*
X50401948Y-77472196D01*
X53827015Y-80897263D01*
X53827014Y-80897263D01*
X53906237Y-80976485D01*
X54003259Y-81032501D01*
X54003257Y-81032501D01*
X54003261Y-81032502D01*
X54003263Y-81032503D01*
X54111482Y-81061500D01*
X92291299Y-81061500D01*
X92349490Y-81080407D01*
X92379507Y-81115552D01*
X92417318Y-81189762D01*
X92434251Y-81222994D01*
X92442404Y-81238994D01*
X92548847Y-81385501D01*
X92676899Y-81513553D01*
X92823406Y-81619996D01*
X92984761Y-81702211D01*
X92995883Y-81705824D01*
X92999383Y-81706962D01*
X93048883Y-81742926D01*
X93067791Y-81801116D01*
X93048884Y-81859307D01*
X92999385Y-81895271D01*
X92999384Y-81895272D01*
X92908184Y-81924904D01*
X92718847Y-82021375D01*
X92546935Y-82146277D01*
X92396677Y-82296535D01*
X92271775Y-82468447D01*
X92175304Y-82657784D01*
X92109641Y-82859877D01*
X92099168Y-82925999D01*
X92099169Y-82926000D01*
X92993388Y-82926000D01*
X92960475Y-82983007D01*
X92926400Y-83110174D01*
X92926400Y-83241826D01*
X92960475Y-83368993D01*
X92993388Y-83426000D01*
X92099169Y-83426000D01*
X92109641Y-83492122D01*
X92175304Y-83694215D01*
X92271775Y-83883552D01*
X92396677Y-84055464D01*
X92546935Y-84205722D01*
X92718847Y-84330624D01*
X92908184Y-84427095D01*
X93110277Y-84492758D01*
X93176399Y-84503231D01*
X93176400Y-84503230D01*
X93176400Y-83609012D01*
X93233407Y-83641925D01*
X93360574Y-83676000D01*
X93492226Y-83676000D01*
X93619393Y-83641925D01*
X93676400Y-83609012D01*
X93676400Y-84503231D01*
X93742522Y-84492758D01*
X93944615Y-84427095D01*
X94133952Y-84330624D01*
X94305864Y-84205722D01*
X94456122Y-84055464D01*
X94581024Y-83883552D01*
X94677495Y-83694215D01*
X94743158Y-83492122D01*
X94753631Y-83426000D01*
X93859412Y-83426000D01*
X93892325Y-83368993D01*
X93926400Y-83241826D01*
X93926400Y-83110174D01*
X93915488Y-83069450D01*
X114349500Y-83069450D01*
X114349500Y-83250549D01*
X114377828Y-83429406D01*
X114425490Y-83576099D01*
X114433789Y-83601639D01*
X114516004Y-83762994D01*
X114622447Y-83909501D01*
X114750499Y-84037553D01*
X114897006Y-84143996D01*
X115058361Y-84226211D01*
X115230591Y-84282171D01*
X115302136Y-84293502D01*
X115409451Y-84310500D01*
X115409454Y-84310500D01*
X115590549Y-84310500D01*
X115679977Y-84296335D01*
X115769409Y-84282171D01*
X115941639Y-84226211D01*
X116102994Y-84143996D01*
X116249501Y-84037553D01*
X116377553Y-83909501D01*
X116483996Y-83762994D01*
X116566211Y-83601639D01*
X116622171Y-83429409D01*
X116650500Y-83250546D01*
X116650500Y-83069454D01*
X116650500Y-83069450D01*
X116622171Y-82890593D01*
X116622171Y-82890591D01*
X116566211Y-82718361D01*
X116483996Y-82557006D01*
X116377553Y-82410499D01*
X116249501Y-82282447D01*
X116102994Y-82176004D01*
X116102993Y-82176003D01*
X116102991Y-82176002D01*
X115941637Y-82093788D01*
X115769406Y-82037828D01*
X115590549Y-82009500D01*
X115590546Y-82009500D01*
X115409454Y-82009500D01*
X115409451Y-82009500D01*
X115230593Y-82037828D01*
X115058362Y-82093788D01*
X114897008Y-82176002D01*
X114823752Y-82229225D01*
X114750499Y-82282447D01*
X114622447Y-82410499D01*
X114580346Y-82468447D01*
X114516002Y-82557008D01*
X114433788Y-82718362D01*
X114377828Y-82890593D01*
X114349500Y-83069450D01*
X93915488Y-83069450D01*
X93892325Y-82983007D01*
X93859412Y-82926000D01*
X94753631Y-82926000D01*
X94753631Y-82925999D01*
X94743158Y-82859877D01*
X94677495Y-82657784D01*
X94581024Y-82468447D01*
X94456122Y-82296535D01*
X94305864Y-82146277D01*
X94133952Y-82021375D01*
X93944615Y-81924904D01*
X93853415Y-81895272D01*
X93803915Y-81859308D01*
X93785008Y-81801117D01*
X93803915Y-81742926D01*
X93853413Y-81706962D01*
X93853417Y-81706962D01*
X93853418Y-81706962D01*
X93868033Y-81702213D01*
X93868033Y-81702212D01*
X93868039Y-81702211D01*
X94029394Y-81619996D01*
X94175901Y-81513553D01*
X94303953Y-81385501D01*
X94410396Y-81238994D01*
X94492611Y-81077639D01*
X94548571Y-80905409D01*
X94570018Y-80769999D01*
X94576900Y-80726549D01*
X94576900Y-80545452D01*
X94576203Y-80541052D01*
X94576203Y-80541051D01*
X94574366Y-80529450D01*
X114349500Y-80529450D01*
X114349500Y-80710549D01*
X114377828Y-80889406D01*
X114433743Y-81061500D01*
X114433789Y-81061639D01*
X114516004Y-81222994D01*
X114622447Y-81369501D01*
X114750499Y-81497553D01*
X114897006Y-81603996D01*
X115058361Y-81686211D01*
X115230591Y-81742171D01*
X115302136Y-81753502D01*
X115409451Y-81770500D01*
X115409454Y-81770500D01*
X115590549Y-81770500D01*
X115679977Y-81756335D01*
X115769409Y-81742171D01*
X115941639Y-81686211D01*
X116102994Y-81603996D01*
X116249501Y-81497553D01*
X116377553Y-81369501D01*
X116483996Y-81222994D01*
X116566211Y-81061639D01*
X116622171Y-80889409D01*
X116640388Y-80774394D01*
X116650500Y-80710549D01*
X116650500Y-80529450D01*
X116622171Y-80350593D01*
X116622171Y-80350591D01*
X116566211Y-80178361D01*
X116483996Y-80017006D01*
X116377553Y-79870499D01*
X116249501Y-79742447D01*
X116102994Y-79636004D01*
X116102993Y-79636003D01*
X116102991Y-79636002D01*
X115941637Y-79553788D01*
X115769406Y-79497828D01*
X115590549Y-79469500D01*
X115590546Y-79469500D01*
X115409454Y-79469500D01*
X115409451Y-79469500D01*
X115230593Y-79497828D01*
X115058362Y-79553788D01*
X114897008Y-79636002D01*
X114823752Y-79689225D01*
X114750499Y-79742447D01*
X114622447Y-79870499D01*
X114586483Y-79920000D01*
X114516002Y-80017008D01*
X114433788Y-80178362D01*
X114377828Y-80350593D01*
X114349500Y-80529450D01*
X94574366Y-80529450D01*
X94548571Y-80366593D01*
X94548571Y-80366591D01*
X94492611Y-80194361D01*
X94410396Y-80033006D01*
X94303953Y-79886499D01*
X94175901Y-79758447D01*
X94029394Y-79652004D01*
X94029393Y-79652003D01*
X94029391Y-79652002D01*
X93868037Y-79569788D01*
X93695806Y-79513828D01*
X93516949Y-79485500D01*
X93516946Y-79485500D01*
X93335854Y-79485500D01*
X93335851Y-79485500D01*
X93156993Y-79513828D01*
X92984762Y-79569788D01*
X92823408Y-79652002D01*
X92750152Y-79705225D01*
X92676899Y-79758447D01*
X92548847Y-79886499D01*
X92524507Y-79920001D01*
X92442402Y-80033008D01*
X92418869Y-80079195D01*
X92379507Y-80156446D01*
X92336244Y-80199710D01*
X92291299Y-80210500D01*
X54384756Y-80210500D01*
X54326565Y-80191593D01*
X54314752Y-80181504D01*
X52569733Y-78436485D01*
X50810463Y-76677215D01*
X50810460Y-76677213D01*
X50713440Y-76621198D01*
X50713442Y-76621198D01*
X50657508Y-76606211D01*
X50605218Y-76592200D01*
X50605216Y-76592200D01*
X49632452Y-76592200D01*
X49574261Y-76573293D01*
X49538297Y-76523793D01*
X49538297Y-76462607D01*
X49550137Y-76438198D01*
X49598014Y-76366545D01*
X49598014Y-76366544D01*
X49665894Y-76202666D01*
X49700500Y-76028691D01*
X49700500Y-75851309D01*
X49665894Y-75677334D01*
X49598014Y-75513455D01*
X49598014Y-75513454D01*
X49499464Y-75365965D01*
X49374034Y-75240535D01*
X49268344Y-75169915D01*
X49230465Y-75121865D01*
X49228063Y-75060727D01*
X49262056Y-75009853D01*
X49319460Y-74988676D01*
X49323346Y-74988600D01*
X55970344Y-74988600D01*
X56028535Y-75007507D01*
X56040348Y-75017596D01*
X59380015Y-78357263D01*
X59380014Y-78357263D01*
X59459237Y-78436485D01*
X59556259Y-78492501D01*
X59556257Y-78492501D01*
X59556261Y-78492502D01*
X59556263Y-78492503D01*
X59664482Y-78521500D01*
X92291299Y-78521500D01*
X92349490Y-78540407D01*
X92379507Y-78575552D01*
X92417318Y-78649762D01*
X92434251Y-78682994D01*
X92442404Y-78698994D01*
X92548847Y-78845501D01*
X92676899Y-78973553D01*
X92823406Y-79079996D01*
X92984761Y-79162211D01*
X93156991Y-79218171D01*
X93228536Y-79229502D01*
X93335851Y-79246500D01*
X93335854Y-79246500D01*
X93516949Y-79246500D01*
X93617966Y-79230500D01*
X93695809Y-79218171D01*
X93868039Y-79162211D01*
X94029394Y-79079996D01*
X94175901Y-78973553D01*
X94303953Y-78845501D01*
X94410396Y-78698994D01*
X94492611Y-78537639D01*
X94548571Y-78365409D01*
X94576900Y-78186546D01*
X94576900Y-78005454D01*
X94574365Y-77989450D01*
X114349500Y-77989450D01*
X114349500Y-78170549D01*
X114377828Y-78349406D01*
X114433743Y-78521500D01*
X114433789Y-78521639D01*
X114516004Y-78682994D01*
X114622447Y-78829501D01*
X114750499Y-78957553D01*
X114897006Y-79063996D01*
X115058361Y-79146211D01*
X115230591Y-79202171D01*
X115302136Y-79213502D01*
X115409451Y-79230500D01*
X115409454Y-79230500D01*
X115590549Y-79230500D01*
X115679977Y-79216335D01*
X115769409Y-79202171D01*
X115941639Y-79146211D01*
X116102994Y-79063996D01*
X116249501Y-78957553D01*
X116377553Y-78829501D01*
X116483996Y-78682994D01*
X116566211Y-78521639D01*
X116622171Y-78349409D01*
X116643090Y-78217332D01*
X116650500Y-78170549D01*
X116650500Y-77989450D01*
X116622171Y-77810593D01*
X116622171Y-77810591D01*
X116566211Y-77638361D01*
X116483996Y-77477006D01*
X116377553Y-77330499D01*
X116249501Y-77202447D01*
X116102994Y-77096004D01*
X116102993Y-77096003D01*
X116102991Y-77096002D01*
X115941637Y-77013788D01*
X115769406Y-76957828D01*
X115590549Y-76929500D01*
X115590546Y-76929500D01*
X115409454Y-76929500D01*
X115409451Y-76929500D01*
X115230593Y-76957828D01*
X115058362Y-77013788D01*
X114897008Y-77096002D01*
X114823752Y-77149225D01*
X114750499Y-77202447D01*
X114622447Y-77330499D01*
X114569225Y-77403752D01*
X114516002Y-77477008D01*
X114433788Y-77638362D01*
X114377828Y-77810593D01*
X114349500Y-77989450D01*
X94574365Y-77989450D01*
X94548571Y-77826593D01*
X94548571Y-77826591D01*
X94492611Y-77654361D01*
X94410396Y-77493006D01*
X94303953Y-77346499D01*
X94303948Y-77346494D01*
X94301666Y-77343353D01*
X94303100Y-77342310D01*
X94282244Y-77291990D01*
X94296514Y-77232492D01*
X94343031Y-77192744D01*
X94380937Y-77185200D01*
X113159616Y-77185200D01*
X113159618Y-77185200D01*
X113267837Y-77156203D01*
X113267839Y-77156201D01*
X113267841Y-77156201D01*
X113296664Y-77139559D01*
X113364863Y-77100185D01*
X114354187Y-76110858D01*
X114408702Y-76083083D01*
X114469134Y-76092654D01*
X114512398Y-76135918D01*
X114516000Y-76142988D01*
X114516001Y-76142990D01*
X114516002Y-76142991D01*
X114516004Y-76142994D01*
X114622447Y-76289501D01*
X114750499Y-76417553D01*
X114897006Y-76523996D01*
X115058361Y-76606211D01*
X115230591Y-76662171D01*
X115302136Y-76673502D01*
X115409451Y-76690500D01*
X115409454Y-76690500D01*
X115590549Y-76690500D01*
X115679977Y-76676335D01*
X115769409Y-76662171D01*
X115941639Y-76606211D01*
X116102994Y-76523996D01*
X116249501Y-76417553D01*
X116377553Y-76289501D01*
X116483996Y-76142994D01*
X116566211Y-75981639D01*
X116622171Y-75809409D01*
X116643090Y-75677332D01*
X116650500Y-75630549D01*
X116650500Y-75449450D01*
X116624705Y-75286591D01*
X116622171Y-75270591D01*
X116566211Y-75098361D01*
X116483996Y-74937006D01*
X116377553Y-74790499D01*
X116249501Y-74662447D01*
X116102994Y-74556004D01*
X116102993Y-74556003D01*
X116102991Y-74556002D01*
X115941637Y-74473788D01*
X115769406Y-74417828D01*
X115590549Y-74389500D01*
X115590546Y-74389500D01*
X115409454Y-74389500D01*
X115409451Y-74389500D01*
X115230593Y-74417828D01*
X115058362Y-74473788D01*
X114897008Y-74556002D01*
X114826732Y-74607061D01*
X114750499Y-74662447D01*
X114622447Y-74790499D01*
X114585756Y-74841000D01*
X114516002Y-74937008D01*
X114482201Y-75003347D01*
X114453107Y-75060446D01*
X114409844Y-75103710D01*
X114364899Y-75114500D01*
X114267281Y-75114500D01*
X114164698Y-75141987D01*
X114164694Y-75141988D01*
X114159064Y-75143496D01*
X114159059Y-75143498D01*
X114062037Y-75199514D01*
X113982814Y-75278736D01*
X113982815Y-75278737D01*
X112956348Y-76305204D01*
X112901831Y-76332981D01*
X112886344Y-76334200D01*
X94477400Y-76334200D01*
X94419209Y-76315293D01*
X94383245Y-76265793D01*
X94383245Y-76204607D01*
X94397307Y-76177009D01*
X94410396Y-76158994D01*
X94492611Y-75997639D01*
X94548571Y-75825409D01*
X94576900Y-75646546D01*
X94576900Y-75465454D01*
X94576900Y-75465450D01*
X94548571Y-75286593D01*
X94548571Y-75286591D01*
X94492611Y-75114361D01*
X94410396Y-74953006D01*
X94303953Y-74806499D01*
X94175901Y-74678447D01*
X94029394Y-74572004D01*
X94029393Y-74572003D01*
X94029391Y-74572002D01*
X93868037Y-74489788D01*
X93695806Y-74433828D01*
X93516949Y-74405500D01*
X93516946Y-74405500D01*
X93335854Y-74405500D01*
X93335851Y-74405500D01*
X93156993Y-74433828D01*
X92984762Y-74489788D01*
X92823408Y-74572002D01*
X92775154Y-74607061D01*
X92676899Y-74678447D01*
X92548847Y-74806499D01*
X92523781Y-74841000D01*
X92442403Y-74953007D01*
X92438796Y-74960086D01*
X92395528Y-75003347D01*
X92335095Y-75012914D01*
X92280586Y-74985138D01*
X91209897Y-73914449D01*
X90109663Y-72814215D01*
X90109660Y-72814213D01*
X90012640Y-72758198D01*
X90012642Y-72758198D01*
X89969330Y-72746593D01*
X89904418Y-72729200D01*
X89904416Y-72729200D01*
X65922384Y-72729200D01*
X65864193Y-72710293D01*
X65828229Y-72660793D01*
X65828229Y-72599607D01*
X65840068Y-72575199D01*
X65900507Y-72484745D01*
X65941575Y-72423282D01*
X66021669Y-72229920D01*
X66062500Y-72024647D01*
X66062500Y-71815353D01*
X66021669Y-71610080D01*
X65941575Y-71416718D01*
X65825298Y-71242696D01*
X65677304Y-71094702D01*
X65677300Y-71094699D01*
X65677294Y-71094693D01*
X65673681Y-71091728D01*
X65640693Y-71040197D01*
X65644295Y-70979118D01*
X65683110Y-70931821D01*
X65736485Y-70916200D01*
X77774244Y-70916200D01*
X77832435Y-70935107D01*
X77844248Y-70945196D01*
X78881215Y-71982163D01*
X78881214Y-71982163D01*
X78960437Y-72061385D01*
X79057459Y-72117401D01*
X79057457Y-72117401D01*
X79057461Y-72117402D01*
X79057463Y-72117403D01*
X79165682Y-72146400D01*
X92441806Y-72146400D01*
X92499997Y-72165307D01*
X92535961Y-72214807D01*
X92535961Y-72275993D01*
X92521900Y-72303587D01*
X92475364Y-72367639D01*
X92442402Y-72413008D01*
X92360188Y-72574362D01*
X92304228Y-72746593D01*
X92275900Y-72925450D01*
X92275900Y-73106549D01*
X92304228Y-73285406D01*
X92360188Y-73457637D01*
X92437411Y-73609196D01*
X92442404Y-73618994D01*
X92548847Y-73765501D01*
X92676899Y-73893553D01*
X92823406Y-73999996D01*
X92984761Y-74082211D01*
X93156991Y-74138171D01*
X93216429Y-74147585D01*
X93335851Y-74166500D01*
X93335854Y-74166500D01*
X93516949Y-74166500D01*
X93617966Y-74150500D01*
X93695809Y-74138171D01*
X93868039Y-74082211D01*
X94029394Y-73999996D01*
X94175901Y-73893553D01*
X94303953Y-73765501D01*
X94410396Y-73618994D01*
X94492611Y-73457639D01*
X94548571Y-73285409D01*
X94576900Y-73106546D01*
X94576900Y-72925454D01*
X94576900Y-72925450D01*
X94548571Y-72746593D01*
X94548571Y-72746591D01*
X94492611Y-72574361D01*
X94410396Y-72413006D01*
X94330900Y-72303589D01*
X94311994Y-72245400D01*
X94330901Y-72187209D01*
X94380401Y-72151245D01*
X94410994Y-72146400D01*
X112826944Y-72146400D01*
X112885135Y-72165307D01*
X112896948Y-72175396D01*
X113982815Y-73261263D01*
X113982814Y-73261263D01*
X114062037Y-73340485D01*
X114159059Y-73396501D01*
X114159057Y-73396501D01*
X114159061Y-73396502D01*
X114159063Y-73396503D01*
X114267282Y-73425500D01*
X114267284Y-73425500D01*
X114273550Y-73427179D01*
X114272920Y-73429528D01*
X114318624Y-73451309D01*
X114347837Y-73505070D01*
X114349501Y-73523144D01*
X114349501Y-73894863D01*
X114352414Y-73919990D01*
X114361130Y-73939729D01*
X114397794Y-74022765D01*
X114477235Y-74102206D01*
X114580009Y-74147585D01*
X114605135Y-74150500D01*
X116394864Y-74150499D01*
X116419991Y-74147585D01*
X116522765Y-74102206D01*
X116602206Y-74022765D01*
X116647585Y-73919991D01*
X116650500Y-73894865D01*
X116650499Y-72105136D01*
X116647585Y-72080009D01*
X116602206Y-71977235D01*
X116522765Y-71897794D01*
X116419991Y-71852415D01*
X116419990Y-71852414D01*
X116419988Y-71852414D01*
X116394868Y-71849500D01*
X114605139Y-71849500D01*
X114605136Y-71849501D01*
X114580009Y-71852414D01*
X114477235Y-71897794D01*
X114397794Y-71977235D01*
X114352414Y-72080011D01*
X114349500Y-72105130D01*
X114349500Y-72185444D01*
X114330593Y-72243635D01*
X114281093Y-72279599D01*
X114219907Y-72279599D01*
X114180496Y-72255448D01*
X113774548Y-71849500D01*
X113305463Y-71380415D01*
X113305460Y-71380413D01*
X113208440Y-71324398D01*
X113208442Y-71324398D01*
X113166451Y-71313147D01*
X113100218Y-71295400D01*
X113100216Y-71295400D01*
X94675900Y-71295400D01*
X94617709Y-71276493D01*
X94581745Y-71226993D01*
X94576900Y-71196400D01*
X94576899Y-69581139D01*
X94576899Y-69581136D01*
X94573985Y-69556009D01*
X94528606Y-69453235D01*
X94449165Y-69373794D01*
X94346391Y-69328415D01*
X94346390Y-69328414D01*
X94346388Y-69328414D01*
X94321268Y-69325500D01*
X92531539Y-69325500D01*
X92531536Y-69325501D01*
X92506409Y-69328414D01*
X92403635Y-69373794D01*
X92324194Y-69453235D01*
X92278814Y-69556011D01*
X92275900Y-69581130D01*
X92275900Y-69581132D01*
X92275900Y-69581135D01*
X92275900Y-70434500D01*
X92275901Y-71196400D01*
X92256994Y-71254591D01*
X92207494Y-71290555D01*
X92176901Y-71295400D01*
X79438956Y-71295400D01*
X79380765Y-71276493D01*
X79368952Y-71266404D01*
X78873854Y-70771306D01*
X78252763Y-70150215D01*
X78252760Y-70150213D01*
X78155740Y-70094198D01*
X78155742Y-70094198D01*
X78113751Y-70082947D01*
X78047518Y-70065200D01*
X78047516Y-70065200D01*
X66005238Y-70065200D01*
X65947047Y-70046293D01*
X65911083Y-69996793D01*
X65911083Y-69935607D01*
X65922922Y-69911200D01*
X65941574Y-69883284D01*
X65983710Y-69781559D01*
X66021669Y-69689920D01*
X66062500Y-69484647D01*
X66062500Y-69275353D01*
X66021669Y-69070080D01*
X65941575Y-68876718D01*
X65825298Y-68702696D01*
X65820732Y-68698130D01*
X65757022Y-68634419D01*
X65729245Y-68579902D01*
X65738817Y-68519470D01*
X65757021Y-68494414D01*
X65772720Y-68478716D01*
X65851777Y-68341784D01*
X65892700Y-68189057D01*
X65892700Y-68030943D01*
X65851777Y-67878216D01*
X65772720Y-67741284D01*
X65757020Y-67725584D01*
X65729245Y-67671070D01*
X65738816Y-67610638D01*
X65757019Y-67585582D01*
X65825298Y-67517304D01*
X65941575Y-67343282D01*
X66021669Y-67149920D01*
X66062500Y-66944647D01*
X66062500Y-66735353D01*
X66021669Y-66530080D01*
X65941575Y-66336718D01*
X65825298Y-66162696D01*
X65677304Y-66014702D01*
X65503282Y-65898425D01*
X65503283Y-65898425D01*
X65503281Y-65898424D01*
X65309923Y-65818332D01*
X65309917Y-65818330D01*
X65104649Y-65777500D01*
X65104647Y-65777500D01*
X64895353Y-65777500D01*
X64895350Y-65777500D01*
X64690080Y-65818331D01*
X64690074Y-65818332D01*
X64673406Y-65825236D01*
X64612409Y-65830033D01*
X64565522Y-65803774D01*
X63773544Y-65011796D01*
X62978563Y-64216815D01*
X62941404Y-64195361D01*
X62881540Y-64160798D01*
X62881542Y-64160798D01*
X62839551Y-64149547D01*
X62773318Y-64131800D01*
X62773316Y-64131800D01*
X49702842Y-64131800D01*
X49644651Y-64112893D01*
X49608687Y-64063393D01*
X49608687Y-64002207D01*
X49632838Y-63962796D01*
X49639037Y-63956596D01*
X49740802Y-63816528D01*
X49740804Y-63816524D01*
X49819411Y-63662248D01*
X49872913Y-63497586D01*
X49874114Y-63490000D01*
X48715686Y-63490000D01*
X48720080Y-63485606D01*
X48772741Y-63394394D01*
X48800000Y-63292661D01*
X48800000Y-63187339D01*
X48772741Y-63085606D01*
X48720080Y-62994394D01*
X48715686Y-62990000D01*
X49874114Y-62990000D01*
X49872913Y-62982413D01*
X49819411Y-62817751D01*
X49740804Y-62663475D01*
X49740802Y-62663471D01*
X49639037Y-62523403D01*
X49516596Y-62400962D01*
X49376528Y-62299197D01*
X49376524Y-62299195D01*
X49222248Y-62220588D01*
X49057579Y-62167084D01*
X48886575Y-62140000D01*
X48650001Y-62140000D01*
X48650000Y-62140001D01*
X48650000Y-62924314D01*
X48645606Y-62919920D01*
X48554394Y-62867259D01*
X48452661Y-62840000D01*
X48347339Y-62840000D01*
X48245606Y-62867259D01*
X48154394Y-62919920D01*
X48150000Y-62924314D01*
X48150000Y-62140001D01*
X48149999Y-62140000D01*
X47913425Y-62140000D01*
X47742420Y-62167084D01*
X47577751Y-62220588D01*
X47423475Y-62299195D01*
X47423471Y-62299197D01*
X47283403Y-62400962D01*
X47160962Y-62523403D01*
X47059197Y-62663471D01*
X47059195Y-62663475D01*
X46980588Y-62817751D01*
X46927086Y-62982413D01*
X46925886Y-62990000D01*
X48084314Y-62990000D01*
X48079920Y-62994394D01*
X48027259Y-63085606D01*
X48000000Y-63187339D01*
X48000000Y-63292661D01*
X48027259Y-63394394D01*
X48079920Y-63485606D01*
X48084314Y-63490000D01*
X46925886Y-63490000D01*
X46927086Y-63497586D01*
X46980588Y-63662248D01*
X47059195Y-63816524D01*
X47059197Y-63816528D01*
X47160962Y-63956596D01*
X47283403Y-64079037D01*
X47375379Y-64145861D01*
X47411343Y-64195361D01*
X47411344Y-64256546D01*
X47402926Y-64275453D01*
X47374023Y-64325514D01*
X47352820Y-64404645D01*
X47333100Y-64478243D01*
X47333100Y-64636357D01*
X47374023Y-64789084D01*
X47453080Y-64926016D01*
X47453082Y-64926018D01*
X47453085Y-64926023D01*
X47457031Y-64931166D01*
X47454831Y-64932853D01*
X47477324Y-64976999D01*
X47467753Y-65037431D01*
X47434553Y-65074796D01*
X47425966Y-65080534D01*
X47300537Y-65205962D01*
X47201985Y-65353454D01*
X47201985Y-65353455D01*
X47134106Y-65517332D01*
X47134106Y-65517334D01*
X47099500Y-65691306D01*
X47099500Y-65868693D01*
X47134106Y-66042665D01*
X47134106Y-66042667D01*
X47201985Y-66206544D01*
X47201985Y-66206545D01*
X47300538Y-66354038D01*
X47300752Y-66354299D01*
X47300808Y-66354442D01*
X47303238Y-66358079D01*
X47302439Y-66358612D01*
X47323050Y-66411276D01*
X47307598Y-66470479D01*
X47260299Y-66509292D01*
X47224221Y-66516100D01*
X30785555Y-66516100D01*
X30727364Y-66497193D01*
X30715551Y-66487104D01*
X27703146Y-63474699D01*
X24587963Y-60359515D01*
X24587960Y-60359513D01*
X24490940Y-60303498D01*
X24490942Y-60303498D01*
X24448951Y-60292247D01*
X24382718Y-60274500D01*
X24382716Y-60274500D01*
X24251629Y-60274500D01*
X24193438Y-60255593D01*
X24169314Y-60230502D01*
X24099464Y-60125965D01*
X23974034Y-60000535D01*
X23826544Y-59901985D01*
X23662666Y-59834106D01*
X23488693Y-59799500D01*
X23488691Y-59799500D01*
X22511309Y-59799500D01*
X22511306Y-59799500D01*
X22337334Y-59834106D01*
X22337332Y-59834106D01*
X22173455Y-59901985D01*
X22173454Y-59901985D01*
X22025965Y-60000535D01*
X21900535Y-60125965D01*
X21801985Y-60273454D01*
X21801985Y-60273455D01*
X21734106Y-60437332D01*
X21734106Y-60437334D01*
X21699500Y-60611306D01*
X21699500Y-60788693D01*
X21734106Y-60962665D01*
X21734106Y-60962667D01*
X21801985Y-61126544D01*
X21801985Y-61126545D01*
X21900535Y-61274034D01*
X21900536Y-61274035D01*
X22025965Y-61399464D01*
X22173453Y-61498013D01*
X22337334Y-61565894D01*
X22511309Y-61600500D01*
X22511310Y-61600500D01*
X23488690Y-61600500D01*
X23488691Y-61600500D01*
X23662666Y-61565894D01*
X23826547Y-61498013D01*
X23974035Y-61399464D01*
X24099464Y-61274035D01*
X24112362Y-61254730D01*
X24160410Y-61216853D01*
X24221548Y-61214449D01*
X24264681Y-61239729D01*
X27086051Y-64061099D01*
X29823749Y-66798796D01*
X29851526Y-66853313D01*
X29841955Y-66913745D01*
X29798690Y-66957010D01*
X29753745Y-66967800D01*
X26157256Y-66967800D01*
X26099065Y-66948893D01*
X26087252Y-66938804D01*
X25354992Y-66206544D01*
X24587963Y-65439515D01*
X24587960Y-65439513D01*
X24490940Y-65383498D01*
X24490942Y-65383498D01*
X24448951Y-65372247D01*
X24382718Y-65354500D01*
X24382716Y-65354500D01*
X24251629Y-65354500D01*
X24193438Y-65335593D01*
X24169314Y-65310502D01*
X24099464Y-65205965D01*
X23974034Y-65080535D01*
X23826544Y-64981985D01*
X23662666Y-64914106D01*
X23488693Y-64879500D01*
X23488691Y-64879500D01*
X22511309Y-64879500D01*
X22511306Y-64879500D01*
X22337337Y-64914105D01*
X22337335Y-64914105D01*
X22337334Y-64914106D01*
X22235685Y-64956210D01*
X22174688Y-64961009D01*
X22122519Y-64929039D01*
X22099105Y-64872511D01*
X22098800Y-64864745D01*
X22098800Y-64155254D01*
X22117707Y-64097063D01*
X22167207Y-64061099D01*
X22228393Y-64061099D01*
X22235683Y-64063789D01*
X22337334Y-64105894D01*
X22511309Y-64140500D01*
X22511310Y-64140500D01*
X23488690Y-64140500D01*
X23488691Y-64140500D01*
X23662666Y-64105894D01*
X23826547Y-64038013D01*
X23974035Y-63939464D01*
X24099464Y-63814035D01*
X24198013Y-63666547D01*
X24265894Y-63502666D01*
X24300500Y-63328691D01*
X24300500Y-63151309D01*
X24265894Y-62977334D01*
X24210458Y-62843498D01*
X24198014Y-62813455D01*
X24198014Y-62813454D01*
X24099464Y-62665965D01*
X23974034Y-62540535D01*
X23826544Y-62441985D01*
X23662666Y-62374106D01*
X23488693Y-62339500D01*
X23488691Y-62339500D01*
X22511309Y-62339500D01*
X22511306Y-62339500D01*
X22337334Y-62374106D01*
X22337332Y-62374106D01*
X22173455Y-62441985D01*
X22173454Y-62441985D01*
X22025965Y-62540535D01*
X21900535Y-62665965D01*
X21830686Y-62770502D01*
X21782636Y-62808381D01*
X21748371Y-62814500D01*
X21729318Y-62814500D01*
X21617282Y-62814500D01*
X21551048Y-62832247D01*
X21509058Y-62843498D01*
X21412039Y-62899513D01*
X21332813Y-62978739D01*
X21276798Y-63075758D01*
X21260586Y-63136263D01*
X21247800Y-63183982D01*
X20500500Y-63183982D01*
X20500500Y-47170382D01*
X21247800Y-47170382D01*
X21247800Y-58216018D01*
X21264522Y-58278424D01*
X21276798Y-58324241D01*
X21327590Y-58412213D01*
X21332815Y-58421263D01*
X21412037Y-58500485D01*
X21412039Y-58500486D01*
X21509059Y-58556501D01*
X21509057Y-58556501D01*
X21509061Y-58556502D01*
X21509063Y-58556503D01*
X21617282Y-58585500D01*
X21729318Y-58585500D01*
X21748371Y-58585500D01*
X21806562Y-58604407D01*
X21830686Y-58629498D01*
X21875576Y-58696681D01*
X21900536Y-58734035D01*
X22025965Y-58859464D01*
X22173453Y-58958013D01*
X22337334Y-59025894D01*
X22511309Y-59060500D01*
X22511310Y-59060500D01*
X23488690Y-59060500D01*
X23488691Y-59060500D01*
X23662666Y-59025894D01*
X23826547Y-58958013D01*
X23974035Y-58859464D01*
X24099464Y-58734035D01*
X24198013Y-58586547D01*
X24265894Y-58422666D01*
X24300500Y-58248691D01*
X24300500Y-58071309D01*
X24265894Y-57897334D01*
X24198014Y-57733455D01*
X24198014Y-57733454D01*
X24099464Y-57585965D01*
X23974034Y-57460535D01*
X23826544Y-57361985D01*
X23662666Y-57294106D01*
X23488693Y-57259500D01*
X23488691Y-57259500D01*
X22511309Y-57259500D01*
X22511306Y-57259500D01*
X22337337Y-57294105D01*
X22337335Y-57294105D01*
X22337334Y-57294106D01*
X22235685Y-57336210D01*
X22174688Y-57341009D01*
X22122519Y-57309039D01*
X22099105Y-57252511D01*
X22098800Y-57244745D01*
X22098800Y-56535254D01*
X22117707Y-56477063D01*
X22167207Y-56441099D01*
X22228393Y-56441099D01*
X22235683Y-56443789D01*
X22337334Y-56485894D01*
X22511309Y-56520500D01*
X22511310Y-56520500D01*
X23488690Y-56520500D01*
X23488691Y-56520500D01*
X23662666Y-56485894D01*
X23826547Y-56418013D01*
X23974035Y-56319464D01*
X24099464Y-56194035D01*
X24198013Y-56046547D01*
X24265894Y-55882666D01*
X24300500Y-55708691D01*
X24300500Y-55531309D01*
X24265894Y-55357334D01*
X24198014Y-55193455D01*
X24198014Y-55193454D01*
X24099464Y-55045965D01*
X23974034Y-54920535D01*
X23826544Y-54821985D01*
X23662666Y-54754106D01*
X23488693Y-54719500D01*
X23488691Y-54719500D01*
X22511309Y-54719500D01*
X22511306Y-54719500D01*
X22337337Y-54754105D01*
X22337335Y-54754105D01*
X22337334Y-54754106D01*
X22235685Y-54796210D01*
X22174688Y-54801009D01*
X22122519Y-54769039D01*
X22099105Y-54712511D01*
X22098800Y-54704745D01*
X22098800Y-53995254D01*
X22117707Y-53937063D01*
X22167207Y-53901099D01*
X22228393Y-53901099D01*
X22235683Y-53903789D01*
X22337334Y-53945894D01*
X22511309Y-53980500D01*
X22511310Y-53980500D01*
X23488690Y-53980500D01*
X23488691Y-53980500D01*
X23662666Y-53945894D01*
X23826547Y-53878013D01*
X23974035Y-53779464D01*
X24099464Y-53654035D01*
X24198013Y-53506547D01*
X24265894Y-53342666D01*
X24300500Y-53168691D01*
X24300500Y-52991309D01*
X24265894Y-52817334D01*
X24210458Y-52683498D01*
X24198014Y-52653455D01*
X24198014Y-52653454D01*
X24099464Y-52505965D01*
X23974034Y-52380535D01*
X23826544Y-52281985D01*
X23662666Y-52214106D01*
X23488693Y-52179500D01*
X23488691Y-52179500D01*
X22511309Y-52179500D01*
X22511306Y-52179500D01*
X22337337Y-52214105D01*
X22337335Y-52214105D01*
X22337334Y-52214106D01*
X22235685Y-52256210D01*
X22174688Y-52261009D01*
X22122519Y-52229039D01*
X22099105Y-52172511D01*
X22098800Y-52164745D01*
X22098800Y-51455254D01*
X22117707Y-51397063D01*
X22167207Y-51361099D01*
X22228393Y-51361099D01*
X22235683Y-51363789D01*
X22337334Y-51405894D01*
X22511309Y-51440500D01*
X22511310Y-51440500D01*
X23488690Y-51440500D01*
X23488691Y-51440500D01*
X23662666Y-51405894D01*
X23826547Y-51338013D01*
X23974035Y-51239464D01*
X24099464Y-51114035D01*
X24198013Y-50966547D01*
X24265894Y-50802666D01*
X24300500Y-50628691D01*
X24300500Y-50451309D01*
X24265894Y-50277334D01*
X24198014Y-50113455D01*
X24198014Y-50113454D01*
X24099464Y-49965965D01*
X23974034Y-49840535D01*
X23826544Y-49741985D01*
X23662666Y-49674106D01*
X23488693Y-49639500D01*
X23488691Y-49639500D01*
X22511309Y-49639500D01*
X22511306Y-49639500D01*
X22337337Y-49674105D01*
X22337335Y-49674105D01*
X22337334Y-49674106D01*
X22235685Y-49716210D01*
X22174688Y-49721009D01*
X22122519Y-49689039D01*
X22099105Y-49632511D01*
X22098800Y-49624745D01*
X22098800Y-48999499D01*
X22117707Y-48941308D01*
X22167207Y-48905344D01*
X22197800Y-48900499D01*
X24044861Y-48900499D01*
X24044864Y-48900499D01*
X24069991Y-48897585D01*
X24172765Y-48852206D01*
X24252206Y-48772765D01*
X24253170Y-48770580D01*
X24255438Y-48768045D01*
X24257390Y-48765197D01*
X24257760Y-48765450D01*
X24293970Y-48724985D01*
X24353778Y-48712079D01*
X24409751Y-48736792D01*
X24413739Y-48740564D01*
X35333685Y-59660510D01*
X35459215Y-59732984D01*
X35599225Y-59770500D01*
X37427525Y-59770500D01*
X47443879Y-59770500D01*
X47502070Y-59789407D01*
X47538034Y-59838907D01*
X47538034Y-59900093D01*
X47502070Y-59949593D01*
X47498900Y-59951802D01*
X47465118Y-59974374D01*
X47425964Y-60000536D01*
X47300535Y-60125965D01*
X47201985Y-60273454D01*
X47201985Y-60273455D01*
X47134106Y-60437332D01*
X47134106Y-60437334D01*
X47099500Y-60611306D01*
X47099500Y-60788693D01*
X47134106Y-60962665D01*
X47134106Y-60962667D01*
X47201985Y-61126544D01*
X47201985Y-61126545D01*
X47300535Y-61274034D01*
X47300536Y-61274035D01*
X47425965Y-61399464D01*
X47573453Y-61498013D01*
X47737334Y-61565894D01*
X47911309Y-61600500D01*
X47911310Y-61600500D01*
X48888690Y-61600500D01*
X48888691Y-61600500D01*
X49062666Y-61565894D01*
X49226547Y-61498013D01*
X49374035Y-61399464D01*
X49499464Y-61274035D01*
X49598013Y-61126547D01*
X49665894Y-60962666D01*
X49700500Y-60788691D01*
X49700500Y-60611309D01*
X49665894Y-60437334D01*
X49610458Y-60303498D01*
X49598014Y-60273455D01*
X49598014Y-60273454D01*
X49499464Y-60125965D01*
X49374035Y-60000536D01*
X49374034Y-60000535D01*
X49301119Y-59951814D01*
X49263240Y-59903766D01*
X49260838Y-59842627D01*
X49294831Y-59791754D01*
X49352234Y-59770576D01*
X49356121Y-59770500D01*
X64037058Y-59770500D01*
X64095249Y-59789407D01*
X64119373Y-59814498D01*
X64174702Y-59897304D01*
X64322696Y-60045298D01*
X64496718Y-60161575D01*
X64690080Y-60241669D01*
X64895353Y-60282500D01*
X64895354Y-60282500D01*
X65104646Y-60282500D01*
X65104647Y-60282500D01*
X65309920Y-60241669D01*
X65503282Y-60161575D01*
X65562998Y-60121673D01*
X65621886Y-60105065D01*
X65679290Y-60126242D01*
X65713283Y-60177116D01*
X65717000Y-60203989D01*
X65717000Y-60547400D01*
X65698093Y-60605591D01*
X65648593Y-60641555D01*
X65587407Y-60641555D01*
X65573055Y-60635610D01*
X65484440Y-60590459D01*
X65295514Y-60529073D01*
X65099325Y-60498000D01*
X64900675Y-60498000D01*
X64704485Y-60529073D01*
X64515559Y-60590459D01*
X64338567Y-60680641D01*
X64301283Y-60707728D01*
X64972554Y-61379000D01*
X64949840Y-61379000D01*
X64852939Y-61404964D01*
X64766060Y-61455124D01*
X64695124Y-61526060D01*
X64644964Y-61612939D01*
X64619000Y-61709840D01*
X64619000Y-61732555D01*
X63947728Y-61061283D01*
X63920641Y-61098567D01*
X63830459Y-61275559D01*
X63769073Y-61464485D01*
X63738000Y-61660674D01*
X63738000Y-61859325D01*
X63769073Y-62055514D01*
X63830459Y-62244440D01*
X63920637Y-62421425D01*
X63947729Y-62458714D01*
X64619000Y-61787443D01*
X64619000Y-61810160D01*
X64644964Y-61907061D01*
X64695124Y-61993940D01*
X64766060Y-62064876D01*
X64852939Y-62115036D01*
X64949840Y-62141000D01*
X64972553Y-62141000D01*
X64301283Y-62812270D01*
X64338564Y-62839357D01*
X64338568Y-62839359D01*
X64515559Y-62929540D01*
X64704485Y-62990926D01*
X64900675Y-63022000D01*
X65099325Y-63022000D01*
X65295514Y-62990926D01*
X65484442Y-62929540D01*
X65507085Y-62918002D01*
X65567516Y-62908428D01*
X65622034Y-62936204D01*
X65649814Y-62990719D01*
X65640244Y-63051152D01*
X65622037Y-63076213D01*
X65434477Y-63263774D01*
X65379960Y-63291552D01*
X65326588Y-63285235D01*
X65309920Y-63278331D01*
X65104649Y-63237500D01*
X65104647Y-63237500D01*
X64895353Y-63237500D01*
X64895350Y-63237500D01*
X64690082Y-63278330D01*
X64690076Y-63278332D01*
X64496718Y-63358424D01*
X64322699Y-63474699D01*
X64174699Y-63622699D01*
X64058424Y-63796718D01*
X63978332Y-63990076D01*
X63978330Y-63990082D01*
X63937500Y-64195350D01*
X63937500Y-64404649D01*
X63978330Y-64609917D01*
X63978332Y-64609923D01*
X64058424Y-64803281D01*
X64163814Y-64961009D01*
X64174702Y-64977304D01*
X64322696Y-65125298D01*
X64496718Y-65241575D01*
X64690080Y-65321669D01*
X64895353Y-65362500D01*
X64895354Y-65362500D01*
X65104646Y-65362500D01*
X65104647Y-65362500D01*
X65309920Y-65321669D01*
X65503282Y-65241575D01*
X65677304Y-65125298D01*
X65825298Y-64977304D01*
X65941575Y-64803282D01*
X66021669Y-64609920D01*
X66062500Y-64404647D01*
X66062500Y-64195353D01*
X66021669Y-63990080D01*
X66021667Y-63990076D01*
X66014765Y-63973413D01*
X66009963Y-63912417D01*
X66036225Y-63865522D01*
X66235203Y-63666544D01*
X66482985Y-63418763D01*
X66534988Y-63328691D01*
X66539001Y-63321741D01*
X66539001Y-63321739D01*
X66539003Y-63321737D01*
X66568000Y-63213518D01*
X66568000Y-63101482D01*
X66568000Y-58696682D01*
X66566382Y-58690645D01*
X66539003Y-58588463D01*
X66537897Y-58586547D01*
X66537293Y-58585501D01*
X66537289Y-58585493D01*
X66482986Y-58491439D01*
X66482985Y-58491437D01*
X66403763Y-58412215D01*
X66403760Y-58412213D01*
X60731063Y-52739515D01*
X60731060Y-52739513D01*
X60634040Y-52683498D01*
X60634042Y-52683498D01*
X60592051Y-52672247D01*
X60525818Y-52654500D01*
X60525816Y-52654500D01*
X49651629Y-52654500D01*
X49593438Y-52635593D01*
X49569314Y-52610502D01*
X49499464Y-52505965D01*
X49374034Y-52380535D01*
X49226544Y-52281985D01*
X49062666Y-52214106D01*
X48888693Y-52179500D01*
X48888691Y-52179500D01*
X47911309Y-52179500D01*
X47911306Y-52179500D01*
X47737334Y-52214106D01*
X47737332Y-52214106D01*
X47573455Y-52281985D01*
X47573454Y-52281985D01*
X47425965Y-52380535D01*
X47300535Y-52505965D01*
X47201985Y-52653454D01*
X47201985Y-52653455D01*
X47134106Y-52817332D01*
X47134106Y-52817334D01*
X47099500Y-52991306D01*
X47099500Y-53168693D01*
X47134106Y-53342665D01*
X47134106Y-53342667D01*
X47201985Y-53506544D01*
X47201985Y-53506545D01*
X47230686Y-53549498D01*
X47300536Y-53654035D01*
X47425965Y-53779464D01*
X47573453Y-53878013D01*
X47737334Y-53945894D01*
X47911309Y-53980500D01*
X47911310Y-53980500D01*
X48888690Y-53980500D01*
X48888691Y-53980500D01*
X49062666Y-53945894D01*
X49226547Y-53878013D01*
X49374035Y-53779464D01*
X49499464Y-53654035D01*
X49569314Y-53549498D01*
X49617364Y-53511619D01*
X49651629Y-53505500D01*
X60252544Y-53505500D01*
X60310735Y-53524407D01*
X60322548Y-53534496D01*
X64806256Y-58018203D01*
X64834033Y-58072720D01*
X64824462Y-58133152D01*
X64781197Y-58176417D01*
X64755566Y-58185305D01*
X64690082Y-58198330D01*
X64690076Y-58198332D01*
X64496718Y-58278424D01*
X64322699Y-58394699D01*
X64174699Y-58542699D01*
X64119374Y-58625501D01*
X64071324Y-58663381D01*
X64037058Y-58669500D01*
X49711816Y-58669500D01*
X49653625Y-58650593D01*
X49617661Y-58601093D01*
X49617661Y-58539907D01*
X49620352Y-58532615D01*
X49633660Y-58500486D01*
X49665894Y-58422666D01*
X49700500Y-58248691D01*
X49700500Y-58071309D01*
X49665894Y-57897334D01*
X49598014Y-57733455D01*
X49598014Y-57733454D01*
X49499464Y-57585965D01*
X49374034Y-57460535D01*
X49226544Y-57361985D01*
X49062666Y-57294106D01*
X48888693Y-57259500D01*
X48888691Y-57259500D01*
X47911309Y-57259500D01*
X47911306Y-57259500D01*
X47737334Y-57294106D01*
X47737332Y-57294106D01*
X47573455Y-57361985D01*
X47573454Y-57361985D01*
X47425965Y-57460535D01*
X47300535Y-57585965D01*
X47201985Y-57733454D01*
X47201985Y-57733455D01*
X47134106Y-57897332D01*
X47134106Y-57897334D01*
X47099500Y-58071306D01*
X47099500Y-58071309D01*
X47099500Y-58248691D01*
X47133826Y-58421260D01*
X47134106Y-58422665D01*
X47134106Y-58422667D01*
X47179648Y-58532615D01*
X47184449Y-58593611D01*
X47152479Y-58645780D01*
X47095951Y-58669195D01*
X47088184Y-58669500D01*
X38149500Y-58669500D01*
X38091309Y-58650593D01*
X38055345Y-58601093D01*
X38050500Y-58570500D01*
X38050500Y-55531306D01*
X47099500Y-55531306D01*
X47099500Y-55708693D01*
X47134106Y-55882665D01*
X47134106Y-55882667D01*
X47201985Y-56046544D01*
X47201985Y-56046545D01*
X47300535Y-56194034D01*
X47300536Y-56194035D01*
X47425965Y-56319464D01*
X47573453Y-56418013D01*
X47737334Y-56485894D01*
X47911309Y-56520500D01*
X47911310Y-56520500D01*
X48888690Y-56520500D01*
X48888691Y-56520500D01*
X49062666Y-56485894D01*
X49226547Y-56418013D01*
X49374035Y-56319464D01*
X49499464Y-56194035D01*
X49598013Y-56046547D01*
X49665894Y-55882666D01*
X49700500Y-55708691D01*
X49700500Y-55531309D01*
X49665894Y-55357334D01*
X49598014Y-55193455D01*
X49598014Y-55193454D01*
X49499464Y-55045965D01*
X49374034Y-54920535D01*
X49226544Y-54821985D01*
X49062666Y-54754106D01*
X48888693Y-54719500D01*
X48888691Y-54719500D01*
X47911309Y-54719500D01*
X47911306Y-54719500D01*
X47737334Y-54754106D01*
X47737332Y-54754106D01*
X47573455Y-54821985D01*
X47573454Y-54821985D01*
X47425965Y-54920535D01*
X47300535Y-55045965D01*
X47201985Y-55193454D01*
X47201985Y-55193455D01*
X47134106Y-55357332D01*
X47134106Y-55357334D01*
X47099500Y-55531306D01*
X38050500Y-55531306D01*
X38050500Y-50451306D01*
X47099500Y-50451306D01*
X47099500Y-50628693D01*
X47134106Y-50802665D01*
X47134106Y-50802667D01*
X47201985Y-50966544D01*
X47201985Y-50966545D01*
X47300535Y-51114034D01*
X47300536Y-51114035D01*
X47425965Y-51239464D01*
X47573453Y-51338013D01*
X47737334Y-51405894D01*
X47911309Y-51440500D01*
X47911310Y-51440500D01*
X48888690Y-51440500D01*
X48888691Y-51440500D01*
X49062666Y-51405894D01*
X49226547Y-51338013D01*
X49374035Y-51239464D01*
X49499464Y-51114035D01*
X49598013Y-50966547D01*
X49665894Y-50802666D01*
X49700500Y-50628691D01*
X49700500Y-50451309D01*
X49665894Y-50277334D01*
X49598014Y-50113455D01*
X49598014Y-50113454D01*
X49499464Y-49965965D01*
X49374034Y-49840535D01*
X49226544Y-49741985D01*
X49062666Y-49674106D01*
X48888693Y-49639500D01*
X48888691Y-49639500D01*
X47911309Y-49639500D01*
X47911306Y-49639500D01*
X47737334Y-49674106D01*
X47737332Y-49674106D01*
X47573455Y-49741985D01*
X47573454Y-49741985D01*
X47425965Y-49840535D01*
X47300535Y-49965965D01*
X47201985Y-50113454D01*
X47201985Y-50113455D01*
X47134106Y-50277332D01*
X47134106Y-50277334D01*
X47099500Y-50451306D01*
X38050500Y-50451306D01*
X38050500Y-47750000D01*
X46925886Y-47750000D01*
X48084314Y-47750000D01*
X48079920Y-47754394D01*
X48027259Y-47845606D01*
X48000000Y-47947339D01*
X48000000Y-48052661D01*
X48027259Y-48154394D01*
X48079920Y-48245606D01*
X48084314Y-48250000D01*
X46925886Y-48250000D01*
X46927086Y-48257586D01*
X46980588Y-48422248D01*
X47059195Y-48576524D01*
X47059197Y-48576528D01*
X47160962Y-48716596D01*
X47283403Y-48839037D01*
X47423471Y-48940802D01*
X47423475Y-48940804D01*
X47577751Y-49019411D01*
X47742420Y-49072915D01*
X47913425Y-49100000D01*
X48149999Y-49100000D01*
X48150000Y-49099999D01*
X48150000Y-48315686D01*
X48154394Y-48320080D01*
X48245606Y-48372741D01*
X48347339Y-48400000D01*
X48452661Y-48400000D01*
X48554394Y-48372741D01*
X48645606Y-48320080D01*
X48650000Y-48315686D01*
X48650000Y-49099999D01*
X48650001Y-49100000D01*
X48886575Y-49100000D01*
X49057579Y-49072915D01*
X49222248Y-49019411D01*
X49376524Y-48940804D01*
X49376528Y-48940802D01*
X49516596Y-48839037D01*
X49639037Y-48716596D01*
X49740802Y-48576528D01*
X49740804Y-48576524D01*
X49819411Y-48422248D01*
X49872913Y-48257586D01*
X49874114Y-48250000D01*
X48715686Y-48250000D01*
X48720080Y-48245606D01*
X48772741Y-48154394D01*
X48800000Y-48052661D01*
X48800000Y-47947339D01*
X48772741Y-47845606D01*
X48720080Y-47754394D01*
X48715686Y-47750000D01*
X49874114Y-47750000D01*
X49872913Y-47742413D01*
X49819411Y-47577751D01*
X49740804Y-47423475D01*
X49740802Y-47423471D01*
X49639037Y-47283403D01*
X49516596Y-47160962D01*
X49376528Y-47059197D01*
X49376524Y-47059195D01*
X49222248Y-46980588D01*
X49057579Y-46927084D01*
X48886575Y-46900000D01*
X48650001Y-46900000D01*
X48650000Y-46900001D01*
X48650000Y-47684314D01*
X48645606Y-47679920D01*
X48554394Y-47627259D01*
X48452661Y-47600000D01*
X48347339Y-47600000D01*
X48245606Y-47627259D01*
X48154394Y-47679920D01*
X48150000Y-47684314D01*
X48150000Y-46900001D01*
X48149999Y-46900000D01*
X47913425Y-46900000D01*
X47742420Y-46927084D01*
X47577751Y-46980588D01*
X47423475Y-47059195D01*
X47423471Y-47059197D01*
X47283403Y-47160962D01*
X47160962Y-47283403D01*
X47059197Y-47423471D01*
X47059195Y-47423475D01*
X46980588Y-47577751D01*
X46927086Y-47742413D01*
X46925886Y-47750000D01*
X38050500Y-47750000D01*
X38050500Y-45249500D01*
X38069407Y-45191309D01*
X38118907Y-45155345D01*
X38149500Y-45150500D01*
X62991574Y-45150500D01*
X62991575Y-45150500D01*
X63131585Y-45112984D01*
X63131587Y-45112982D01*
X63131589Y-45112982D01*
X63257110Y-45040512D01*
X63257110Y-45040511D01*
X63257115Y-45040509D01*
X63359609Y-44938015D01*
X63432084Y-44812485D01*
X63469600Y-44672475D01*
X63469600Y-42986000D01*
X63488507Y-42927809D01*
X63538007Y-42891845D01*
X63568600Y-42887000D01*
X120420641Y-42887000D01*
X120420642Y-42887000D01*
X120443758Y-42882401D01*
X120463071Y-42880500D01*
X120700501Y-42880500D01*
X120758692Y-42899407D01*
X120794656Y-42948907D01*
X120799501Y-42979500D01*
X120799501Y-43024863D01*
X120802414Y-43049990D01*
X120827756Y-43107385D01*
X120847794Y-43152765D01*
X120927235Y-43232206D01*
X121030009Y-43277585D01*
X121055135Y-43280500D01*
X122944864Y-43280499D01*
X122969991Y-43277585D01*
X123072765Y-43232206D01*
X123152206Y-43152765D01*
X123197585Y-43049991D01*
X123200500Y-43024865D01*
X123200499Y-41135136D01*
X123197585Y-41110009D01*
X123152206Y-41007235D01*
X123072765Y-40927794D01*
X122969991Y-40882415D01*
X122969990Y-40882414D01*
X122969988Y-40882414D01*
X122944869Y-40879500D01*
X122842849Y-40879500D01*
X122784658Y-40860593D01*
X122748694Y-40811093D01*
X122748694Y-40749907D01*
X122784658Y-40700407D01*
X122912037Y-40607860D01*
X123067860Y-40452037D01*
X123197388Y-40273757D01*
X123297430Y-40077413D01*
X123365528Y-39867829D01*
X123377855Y-39790000D01*
X122433012Y-39790000D01*
X122465925Y-39732993D01*
X122500000Y-39605826D01*
X122500000Y-39474174D01*
X122465925Y-39347007D01*
X122433012Y-39290000D01*
X123377855Y-39290000D01*
X123377855Y-39289999D01*
X123365528Y-39212170D01*
X123297430Y-39002586D01*
X123197388Y-38806242D01*
X123067860Y-38627962D01*
X122912037Y-38472139D01*
X122733757Y-38342611D01*
X122544653Y-38246258D01*
X122501388Y-38202993D01*
X122491817Y-38142561D01*
X122519594Y-38088044D01*
X122544653Y-38069838D01*
X122629199Y-38026760D01*
X122782073Y-37915690D01*
X122915690Y-37782073D01*
X123026760Y-37629199D01*
X123112547Y-37460832D01*
X123170940Y-37281118D01*
X123200500Y-37094481D01*
X123200500Y-36905519D01*
X123200500Y-36905515D01*
X123170941Y-36718886D01*
X123151650Y-36659515D01*
X123112547Y-36539168D01*
X123026760Y-36370801D01*
X122915690Y-36217927D01*
X122782073Y-36084310D01*
X122629199Y-35973240D01*
X122629198Y-35973239D01*
X122629196Y-35973238D01*
X122460832Y-35887453D01*
X122281113Y-35829058D01*
X122273046Y-35827781D01*
X122218529Y-35800004D01*
X122190751Y-35745488D01*
X122200322Y-35685056D01*
X122243586Y-35641791D01*
X122273046Y-35632219D01*
X122281113Y-35630941D01*
X122281114Y-35630940D01*
X122281118Y-35630940D01*
X122460832Y-35572547D01*
X122629199Y-35486760D01*
X122782073Y-35375690D01*
X122915690Y-35242073D01*
X123026760Y-35089199D01*
X123112547Y-34920832D01*
X123170940Y-34741118D01*
X123180372Y-34681565D01*
X123200500Y-34554484D01*
X123200500Y-34365515D01*
X123170941Y-34178886D01*
X123151650Y-34119515D01*
X123112547Y-33999168D01*
X123026760Y-33830801D01*
X122915690Y-33677927D01*
X122782073Y-33544310D01*
X122629199Y-33433240D01*
X122629198Y-33433239D01*
X122629196Y-33433238D01*
X122460832Y-33347453D01*
X122281113Y-33289058D01*
X122273046Y-33287781D01*
X122218529Y-33260004D01*
X122190751Y-33205488D01*
X122200322Y-33145056D01*
X122243586Y-33101791D01*
X122273046Y-33092219D01*
X122281113Y-33090941D01*
X122281114Y-33090940D01*
X122281118Y-33090940D01*
X122460832Y-33032547D01*
X122629199Y-32946760D01*
X122782073Y-32835690D01*
X122915690Y-32702073D01*
X123026760Y-32549199D01*
X123112547Y-32380832D01*
X123170940Y-32201118D01*
X123200500Y-32014481D01*
X123200500Y-31825519D01*
X123200500Y-31825515D01*
X123170941Y-31638886D01*
X123170940Y-31638882D01*
X123112547Y-31459168D01*
X123026760Y-31290801D01*
X122915690Y-31137927D01*
X122782073Y-31004310D01*
X122629199Y-30893240D01*
X122629198Y-30893239D01*
X122629196Y-30893238D01*
X122460832Y-30807453D01*
X122281113Y-30749058D01*
X122094484Y-30719500D01*
X122094481Y-30719500D01*
X121905519Y-30719500D01*
X121905516Y-30719500D01*
X121718886Y-30749058D01*
X121539167Y-30807453D01*
X121370803Y-30893238D01*
X121217928Y-31004309D01*
X121084309Y-31137928D01*
X120973238Y-31290803D01*
X120896993Y-31440445D01*
X120853728Y-31483710D01*
X120808783Y-31494500D01*
X37035718Y-31494500D01*
X36923681Y-31494500D01*
X36857448Y-31512246D01*
X36815458Y-31523498D01*
X36718435Y-31579515D01*
X36718436Y-31579516D01*
X21412037Y-46885915D01*
X21412036Y-46885914D01*
X21332814Y-46965137D01*
X21276798Y-47062158D01*
X21260586Y-47122663D01*
X21247800Y-47170382D01*
X20500500Y-47170382D01*
X20500500Y-24878710D01*
X23149500Y-24878710D01*
X23149500Y-25121289D01*
X23181161Y-25361781D01*
X23181161Y-25361786D01*
X23243944Y-25596092D01*
X23243948Y-25596105D01*
X23336772Y-25820204D01*
X23336774Y-25820208D01*
X23336776Y-25820212D01*
X23458064Y-26030289D01*
X23458066Y-26030292D01*
X23605729Y-26222731D01*
X23605731Y-26222733D01*
X23605735Y-26222738D01*
X23777262Y-26394265D01*
X23777266Y-26394268D01*
X23777268Y-26394270D01*
X23969707Y-26541933D01*
X23969711Y-26541936D01*
X24179788Y-26663224D01*
X24403900Y-26756054D01*
X24638211Y-26818838D01*
X24878712Y-26850500D01*
X24878713Y-26850500D01*
X25121287Y-26850500D01*
X25121288Y-26850500D01*
X25361789Y-26818838D01*
X25596100Y-26756054D01*
X25820212Y-26663224D01*
X26030289Y-26541936D01*
X26222738Y-26394265D01*
X26394265Y-26222738D01*
X26541936Y-26030289D01*
X26663224Y-25820212D01*
X26756054Y-25596100D01*
X26818838Y-25361789D01*
X26850500Y-25121288D01*
X26850500Y-24878712D01*
X26850500Y-24878710D01*
X62149500Y-24878710D01*
X62149500Y-25121289D01*
X62181161Y-25361781D01*
X62181161Y-25361786D01*
X62243944Y-25596092D01*
X62243948Y-25596105D01*
X62336772Y-25820204D01*
X62336774Y-25820208D01*
X62336776Y-25820212D01*
X62458064Y-26030289D01*
X62458066Y-26030292D01*
X62605729Y-26222731D01*
X62605731Y-26222733D01*
X62605735Y-26222738D01*
X62777262Y-26394265D01*
X62777266Y-26394268D01*
X62777268Y-26394270D01*
X62969707Y-26541933D01*
X62969711Y-26541936D01*
X63179788Y-26663224D01*
X63403900Y-26756054D01*
X63638211Y-26818838D01*
X63878712Y-26850500D01*
X63878713Y-26850500D01*
X64121287Y-26850500D01*
X64121288Y-26850500D01*
X64361789Y-26818838D01*
X64596100Y-26756054D01*
X64820212Y-26663224D01*
X65030289Y-26541936D01*
X65222738Y-26394265D01*
X65394265Y-26222738D01*
X65541936Y-26030289D01*
X65663224Y-25820212D01*
X65756054Y-25596100D01*
X65818838Y-25361789D01*
X65850500Y-25121288D01*
X65850500Y-24878712D01*
X65818838Y-24638211D01*
X65756054Y-24403900D01*
X65663224Y-24179788D01*
X65541936Y-23969711D01*
X65394265Y-23777262D01*
X65222738Y-23605735D01*
X65222733Y-23605731D01*
X65222731Y-23605729D01*
X65030292Y-23458066D01*
X65030289Y-23458064D01*
X64820212Y-23336776D01*
X64820208Y-23336774D01*
X64820204Y-23336772D01*
X64596105Y-23243948D01*
X64596104Y-23243947D01*
X64596100Y-23243946D01*
X64361789Y-23181162D01*
X64361786Y-23181161D01*
X64361784Y-23181161D01*
X64121289Y-23149500D01*
X64121288Y-23149500D01*
X63878712Y-23149500D01*
X63878710Y-23149500D01*
X63638218Y-23181161D01*
X63638213Y-23181161D01*
X63403907Y-23243944D01*
X63403894Y-23243948D01*
X63179795Y-23336772D01*
X62969707Y-23458066D01*
X62777268Y-23605729D01*
X62605729Y-23777268D01*
X62458066Y-23969707D01*
X62336772Y-24179795D01*
X62243948Y-24403894D01*
X62243944Y-24403907D01*
X62181161Y-24638213D01*
X62181161Y-24638218D01*
X62149500Y-24878710D01*
X26850500Y-24878710D01*
X26818838Y-24638211D01*
X26756054Y-24403900D01*
X26663224Y-24179788D01*
X26541936Y-23969711D01*
X26394265Y-23777262D01*
X26222738Y-23605735D01*
X26222733Y-23605731D01*
X26222731Y-23605729D01*
X26030292Y-23458066D01*
X26030289Y-23458064D01*
X25820212Y-23336776D01*
X25820208Y-23336774D01*
X25820204Y-23336772D01*
X25596105Y-23243948D01*
X25596104Y-23243947D01*
X25596100Y-23243946D01*
X25361789Y-23181162D01*
X25361786Y-23181161D01*
X25361784Y-23181161D01*
X25121289Y-23149500D01*
X25121288Y-23149500D01*
X24878712Y-23149500D01*
X24878710Y-23149500D01*
X24638218Y-23181161D01*
X24638213Y-23181161D01*
X24403907Y-23243944D01*
X24403894Y-23243948D01*
X24179795Y-23336772D01*
X23969707Y-23458066D01*
X23777268Y-23605729D01*
X23605729Y-23777268D01*
X23458066Y-23969707D01*
X23336772Y-24179795D01*
X23243948Y-24403894D01*
X23243944Y-24403907D01*
X23181161Y-24638213D01*
X23181161Y-24638218D01*
X23149500Y-24878710D01*
X20500500Y-24878710D01*
X20500500Y-23002984D01*
X20500681Y-22997007D01*
X20518362Y-22704696D01*
X20518363Y-22704695D01*
X20518362Y-22704688D01*
X20519801Y-22692837D01*
X20572052Y-22407715D01*
X20574912Y-22396114D01*
X20661148Y-22119370D01*
X20665378Y-22108218D01*
X20784350Y-21843875D01*
X20789891Y-21833315D01*
X20939868Y-21585221D01*
X20946632Y-21575424D01*
X21125407Y-21347235D01*
X21133319Y-21338303D01*
X21338303Y-21133319D01*
X21347235Y-21125407D01*
X21575424Y-20946632D01*
X21585221Y-20939868D01*
X21833315Y-20789891D01*
X21843875Y-20784350D01*
X22108218Y-20665378D01*
X22119370Y-20661148D01*
X22396121Y-20574910D01*
X22407715Y-20572052D01*
X22692837Y-20519801D01*
X22704688Y-20518362D01*
X22997008Y-20500681D01*
X23002985Y-20500500D01*
X23065892Y-20500500D01*
X121934108Y-20500500D01*
X121997015Y-20500500D01*
X122002992Y-20500681D01*
G37*
%TD.AperFunction*%
%TD*%
M02*
