%TF.GenerationSoftware,KiCad,Pcbnew,10.0.5*%
%TF.CreationDate,2026-09-10T11:57:12+07:00*%
%TF.ProjectId,vsmart-module-carrier,76736d61-7274-42d6-9d6f-64756c652d63,rev?*%
%TF.SameCoordinates,Original*%
%TF.FileFunction,Soldermask,Top*%
%TF.FilePolarity,Negative*%
%FSLAX46Y46*%
G04 Gerber Fmt 4.6, Leading zero omitted, Abs format (unit mm)*
G04 Created by KiCad (PCBNEW 10.0.5) date 2026-09-10 11:57:12*
%MOMM*%
%LPD*%
G01*
G04 APERTURE LIST*
G04 Aperture macros list*
%AMRoundRect*
0 Rectangle with rounded corners*
0 $1 Rounding radius*
0 $2 $3 $4 $5 $6 $7 $8 $9 X,Y pos of 4 corners*
0 Add a 4 corners polygon primitive as box body*
4,1,4,$2,$3,$4,$5,$6,$7,$8,$9,$2,$3,0*
0 Add four circle primitives for the rounded corners*
1,1,$1+$1,$2,$3*
1,1,$1+$1,$4,$5*
1,1,$1+$1,$6,$7*
1,1,$1+$1,$8,$9*
0 Add four rect primitives between the rounded corners*
20,1,$1+$1,$2,$3,$4,$5,0*
20,1,$1+$1,$4,$5,$6,$7,0*
20,1,$1+$1,$6,$7,$8,$9,0*
20,1,$1+$1,$8,$9,$2,$3,0*%
G04 Aperture macros list end*
%ADD10C,2.000000*%
%ADD11R,1.700000X1.700000*%
%ADD12O,1.700000X1.700000*%
%ADD13C,1.524000*%
%ADD14C,3.200000*%
%ADD15RoundRect,0.250000X-1.125000X-1.125000X1.125000X-1.125000X1.125000X1.125000X-1.125000X1.125000X0*%
%ADD16C,2.750000*%
%ADD17RoundRect,0.250000X-0.750000X-0.750000X0.750000X-0.750000X0.750000X0.750000X-0.750000X0.750000X0*%
%ADD18RoundRect,0.250000X-0.550000X-0.550000X0.550000X-0.550000X0.550000X0.550000X-0.550000X0.550000X0*%
%ADD19C,1.600000*%
%ADD20R,2.000000X1.500000*%
%ADD21O,2.000000X1.500000*%
%ADD22R,1.800000X1.800000*%
%ADD23O,1.800000X1.800000*%
G04 APERTURE END LIST*
D10*
%TO.C,U4*%
X100723600Y-81940000D03*
D11*
X79000000Y-68380000D03*
D12*
X79000000Y-70920000D03*
X79000000Y-73460000D03*
X79000000Y-76000000D03*
X79000000Y-78540000D03*
X79000000Y-81080000D03*
D11*
X101073600Y-65856000D03*
D12*
X101073600Y-68396000D03*
X101073600Y-70936000D03*
X101073600Y-73476000D03*
X101073600Y-76016000D03*
X101073600Y-78556000D03*
%TD*%
D13*
%TO.C,U2*%
X55000000Y-43220000D03*
X55000000Y-45760000D03*
X55000000Y-48300000D03*
X55000000Y-50840000D03*
X55000000Y-53380000D03*
X55000000Y-55920000D03*
X55000000Y-58460000D03*
X55000000Y-61000000D03*
%TD*%
D14*
%TO.C,MH1*%
X25000000Y-25000000D03*
%TD*%
%TO.C,MH4*%
X110000000Y-85000000D03*
%TD*%
%TO.C,MH2*%
X110000000Y-25000000D03*
%TD*%
D15*
%TO.C,J2*%
X67000000Y-86000000D03*
D16*
X72400000Y-86000000D03*
%TD*%
D17*
%TO.C,C1*%
X66000000Y-74000000D03*
D10*
X71000000Y-74000000D03*
%TD*%
D18*
%TO.C,C3*%
X55000000Y-27000000D03*
D19*
X58500000Y-27000000D03*
%TD*%
D20*
%TO.C,U1*%
X23000000Y-34000000D03*
D21*
X23000000Y-36500000D03*
X23000000Y-39000000D03*
X23000000Y-41500000D03*
X23000000Y-44000000D03*
X23000000Y-46500000D03*
X23000000Y-49000000D03*
X23000000Y-51500000D03*
X23000000Y-54000000D03*
X23000000Y-56500000D03*
X23000000Y-59000000D03*
X23000000Y-61500000D03*
X23000000Y-64000000D03*
X23000000Y-66500000D03*
X23000000Y-69000000D03*
X23000000Y-71500000D03*
X23000000Y-74000000D03*
X23000000Y-76500000D03*
X23000000Y-79000000D03*
X49000000Y-79000000D03*
X49000000Y-76500000D03*
X49000000Y-74000000D03*
X49000000Y-71500000D03*
X49000000Y-69000000D03*
X49000000Y-66500000D03*
X49000000Y-64000000D03*
X49000000Y-61500000D03*
X49000000Y-59000000D03*
X49000000Y-56500000D03*
X49000000Y-54000000D03*
X49000000Y-51500000D03*
X49000000Y-49000000D03*
X49000000Y-46500000D03*
X49000000Y-44000000D03*
X49000000Y-41500000D03*
X49000000Y-39000000D03*
X49000000Y-36500000D03*
X49000000Y-34000000D03*
%TD*%
D22*
%TO.C,U3*%
X107000000Y-38190000D03*
D23*
X107000000Y-40730000D03*
X107000000Y-43270000D03*
X107000000Y-45810000D03*
%TD*%
D15*
%TO.C,J1*%
X53000000Y-86000000D03*
D16*
X58400000Y-86000000D03*
%TD*%
D14*
%TO.C,MH3*%
X25000000Y-85000000D03*
%TD*%
M02*
