%TF.GenerationSoftware,KiCad,Pcbnew,10.0.5*%
%TF.CreationDate,2026-09-10T11:57:12+07:00*%
%TF.ProjectId,vsmart-module-carrier,76736d61-7274-42d6-9d6f-64756c652d63,rev?*%
%TF.SameCoordinates,Original*%
%TF.FileFunction,Copper,L1,Top*%
%TF.FilePolarity,Positive*%
%FSLAX46Y46*%
G04 Gerber Fmt 4.6, Leading zero omitted, Abs format (unit mm)*
G04 Created by KiCad (PCBNEW 10.0.5) date 2026-09-10 11:57:12*
%MOMM*%
%LPD*%
G01*
G04 APERTURE LIST*
G04 Aperture macros list*
%AMRoundRect*
0 Rectangle with rounded corners*
0 $1 Rounding radius*
0 $2 $3 $4 $5 $6 $7 $8 $9 X,Y pos of 4 corners*
0 Add a 4 corners polygon primitive as box body*
4,1,4,$2,$3,$4,$5,$6,$7,$8,$9,$2,$3,0*
0 Add four circle primitives for the rounded corners*
1,1,$1+$1,$2,$3*
1,1,$1+$1,$4,$5*
1,1,$1+$1,$6,$7*
1,1,$1+$1,$8,$9*
0 Add four rect primitives between the rounded corners*
20,1,$1+$1,$2,$3,$4,$5,0*
20,1,$1+$1,$4,$5,$6,$7,0*
20,1,$1+$1,$6,$7,$8,$9,0*
20,1,$1+$1,$8,$9,$2,$3,0*%
G04 Aperture macros list end*
%TA.AperFunction,ComponentPad*%
%ADD10R,1.700000X1.700000*%
%TD*%
%TA.AperFunction,ComponentPad*%
%ADD11O,1.700000X1.700000*%
%TD*%
%TA.AperFunction,ComponentPad*%
%ADD12C,1.524000*%
%TD*%
%TA.AperFunction,ComponentPad*%
%ADD13RoundRect,0.250000X-1.125000X-1.125000X1.125000X-1.125000X1.125000X1.125000X-1.125000X1.125000X0*%
%TD*%
%TA.AperFunction,ComponentPad*%
%ADD14C,2.750000*%
%TD*%
%TA.AperFunction,ComponentPad*%
%ADD15RoundRect,0.250000X-0.750000X-0.750000X0.750000X-0.750000X0.750000X0.750000X-0.750000X0.750000X0*%
%TD*%
%TA.AperFunction,ComponentPad*%
%ADD16C,2.000000*%
%TD*%
%TA.AperFunction,ComponentPad*%
%ADD17RoundRect,0.250000X-0.550000X-0.550000X0.550000X-0.550000X0.550000X0.550000X-0.550000X0.550000X0*%
%TD*%
%TA.AperFunction,ComponentPad*%
%ADD18C,1.600000*%
%TD*%
%TA.AperFunction,ComponentPad*%
%ADD19R,2.000000X1.500000*%
%TD*%
%TA.AperFunction,ComponentPad*%
%ADD20O,2.000000X1.500000*%
%TD*%
%TA.AperFunction,ComponentPad*%
%ADD21R,1.800000X1.800000*%
%TD*%
%TA.AperFunction,ComponentPad*%
%ADD22O,1.800000X1.800000*%
%TD*%
%TA.AperFunction,ViaPad*%
%ADD23C,0.800000*%
%TD*%
%TA.AperFunction,ViaPad*%
%ADD24C,0.600000*%
%TD*%
%TA.AperFunction,Conductor*%
%ADD25C,0.250000*%
%TD*%
%TA.AperFunction,Conductor*%
%ADD26C,1.000000*%
%TD*%
G04 APERTURE END LIST*
D10*
%TO.P,U4,1*%
%TO.N,SIM_RI*%
X79000000Y-68380000D03*
D11*
%TO.P,U4,2*%
%TO.N,SIM_DTR*%
X79000000Y-70920000D03*
%TO.P,U4,3*%
%TO.N,N/C*%
X79000000Y-73460000D03*
%TO.P,U4,4*%
X79000000Y-76000000D03*
%TO.P,U4,5*%
X79000000Y-78540000D03*
%TO.P,U4,6*%
X79000000Y-81080000D03*
D10*
%TO.P,U4,7*%
X101073600Y-65856000D03*
D11*
%TO.P,U4,8*%
%TO.N,+5V_SIM*%
X101073600Y-68396000D03*
%TO.P,U4,9*%
%TO.N,SIM_RST*%
X101073600Y-70936000D03*
%TO.P,U4,10*%
%TO.N,SIM_TX*%
X101073600Y-73476000D03*
%TO.P,U4,11*%
%TO.N,SIM_RX*%
X101073600Y-76016000D03*
%TO.P,U4,12*%
%TO.N,GND*%
X101073600Y-78556000D03*
%TD*%
D12*
%TO.P,U2,1*%
%TO.N,+3V3*%
X55000000Y-43220000D03*
%TO.P,U2,2*%
%TO.N,GND*%
X55000000Y-45760000D03*
%TO.P,U2,3*%
%TO.N,I2C_SCL*%
X55000000Y-48300000D03*
%TO.P,U2,4*%
%TO.N,I2C_SDA*%
X55000000Y-50840000D03*
%TO.P,U2,5*%
%TO.N,N/C*%
X55000000Y-53380000D03*
%TO.P,U2,6*%
X55000000Y-55920000D03*
%TO.P,U2,7*%
%TO.N,GND*%
X55000000Y-58460000D03*
%TO.P,U2,8*%
%TO.N,MPU_INT*%
X55000000Y-61000000D03*
%TD*%
D13*
%TO.P,J2,1*%
%TO.N,+5V_SIM*%
X67000000Y-86000000D03*
D14*
%TO.P,J2,2*%
%TO.N,GND*%
X72400000Y-86000000D03*
%TD*%
D15*
%TO.P,C1,1*%
%TO.N,+5V_SIM*%
X66000000Y-74000000D03*
D16*
%TO.P,C1,2*%
%TO.N,GND*%
X71000000Y-74000000D03*
%TD*%
D17*
%TO.P,C3,1*%
%TO.N,+5V*%
X55000000Y-27000000D03*
D18*
%TO.P,C3,2*%
%TO.N,GND*%
X58500000Y-27000000D03*
%TD*%
D19*
%TO.P,U1,1*%
%TO.N,+3V3*%
X23000000Y-34000000D03*
D20*
%TO.P,U1,2*%
%TO.N,N/C*%
X23000000Y-36500000D03*
%TO.P,U1,3*%
X23000000Y-39000000D03*
%TO.P,U1,4*%
X23000000Y-41500000D03*
%TO.P,U1,5*%
X23000000Y-44000000D03*
%TO.P,U1,6*%
%TO.N,MPU_INT*%
X23000000Y-46500000D03*
%TO.P,U1,7*%
%TO.N,SIM_RST*%
X23000000Y-49000000D03*
%TO.P,U1,8*%
%TO.N,SIM_RI*%
X23000000Y-51500000D03*
%TO.P,U1,9*%
%TO.N,SIM_DTR*%
X23000000Y-54000000D03*
%TO.P,U1,10*%
%TO.N,SIM_RX*%
X23000000Y-56500000D03*
%TO.P,U1,11*%
%TO.N,SIM_TX*%
X23000000Y-59000000D03*
%TO.P,U1,12*%
%TO.N,N/C*%
X23000000Y-61500000D03*
%TO.P,U1,13*%
X23000000Y-64000000D03*
%TO.P,U1,14*%
%TO.N,GND*%
X23000000Y-66500000D03*
%TO.P,U1,15*%
%TO.N,N/C*%
X23000000Y-69000000D03*
%TO.P,U1,16*%
X23000000Y-71500000D03*
%TO.P,U1,17*%
X23000000Y-74000000D03*
%TO.P,U1,18*%
X23000000Y-76500000D03*
%TO.P,U1,19*%
%TO.N,+5V*%
X23000000Y-79000000D03*
%TO.P,U1,20*%
%TO.N,N/C*%
X49000000Y-79000000D03*
%TO.P,U1,21*%
X49000000Y-76500000D03*
%TO.P,U1,22*%
X49000000Y-74000000D03*
%TO.P,U1,23*%
X49000000Y-71500000D03*
%TO.P,U1,24*%
X49000000Y-69000000D03*
%TO.P,U1,25*%
X49000000Y-66500000D03*
%TO.P,U1,26*%
X49000000Y-64000000D03*
%TO.P,U1,27*%
%TO.N,GPS_RX*%
X49000000Y-61500000D03*
%TO.P,U1,28*%
%TO.N,GPS_TX*%
X49000000Y-59000000D03*
%TO.P,U1,29*%
%TO.N,N/C*%
X49000000Y-56500000D03*
%TO.P,U1,30*%
X49000000Y-54000000D03*
%TO.P,U1,31*%
X49000000Y-51500000D03*
%TO.P,U1,32*%
%TO.N,GND*%
X49000000Y-49000000D03*
%TO.P,U1,33*%
%TO.N,I2C_SDA*%
X49000000Y-46500000D03*
%TO.P,U1,34*%
%TO.N,N/C*%
X49000000Y-44000000D03*
%TO.P,U1,35*%
X49000000Y-41500000D03*
%TO.P,U1,36*%
%TO.N,I2C_SCL*%
X49000000Y-39000000D03*
%TO.P,U1,37*%
%TO.N,N/C*%
X49000000Y-36500000D03*
%TO.P,U1,38*%
%TO.N,GND*%
X49000000Y-34000000D03*
%TD*%
D21*
%TO.P,U3,1*%
%TO.N,+3V3*%
X107000000Y-38190000D03*
D22*
%TO.P,U3,2*%
%TO.N,GPS_TX*%
X107000000Y-40730000D03*
%TO.P,U3,3*%
%TO.N,GPS_RX*%
X107000000Y-43270000D03*
%TO.P,U3,4*%
%TO.N,GND*%
X107000000Y-45810000D03*
%TD*%
D13*
%TO.P,J1,1*%
%TO.N,+5V*%
X53000000Y-86000000D03*
D14*
%TO.P,J1,2*%
%TO.N,GND*%
X58400000Y-86000000D03*
%TD*%
D23*
%TO.N,SIM_RX*%
X24915000Y-73430000D03*
D24*
%TO.N,GND*%
X30450000Y-70450000D03*
X55450000Y-25450000D03*
X70450000Y-30450000D03*
X60450000Y-65450000D03*
X105450000Y-45450000D03*
X85450000Y-50450000D03*
X100450000Y-55450000D03*
D23*
X43000000Y-67000000D03*
D24*
X105450000Y-70450000D03*
X65450000Y-30450000D03*
X40450000Y-80450000D03*
X75450000Y-85450000D03*
X70450000Y-50450000D03*
X70450000Y-25450000D03*
X40450000Y-50450000D03*
X60450000Y-40450000D03*
X90450000Y-40450000D03*
X75450000Y-45450000D03*
X50450000Y-35450000D03*
X25450000Y-45450000D03*
X95450000Y-70450000D03*
X95450000Y-55450000D03*
X110450000Y-75450000D03*
D23*
X61000000Y-67000000D03*
D24*
X70450000Y-80450000D03*
X75450000Y-55450000D03*
X95450000Y-40450000D03*
X105450000Y-60450000D03*
X55450000Y-85450000D03*
X105450000Y-50450000D03*
X95450000Y-85450000D03*
X80450000Y-40450000D03*
X80450000Y-25450000D03*
X100450000Y-60450000D03*
X100450000Y-30450000D03*
X95450000Y-60450000D03*
X60450000Y-85450000D03*
X50450000Y-25450000D03*
X80450000Y-35450000D03*
X105450000Y-40450000D03*
X25450000Y-40450000D03*
X95450000Y-25450000D03*
X40450000Y-40450000D03*
X105450000Y-80450000D03*
X90450000Y-30450000D03*
X80450000Y-30450000D03*
X70450000Y-35450000D03*
X80450000Y-45450000D03*
X105450000Y-35450000D03*
X110450000Y-70450000D03*
X85450000Y-45450000D03*
X110450000Y-35450000D03*
X85450000Y-35450000D03*
X90450000Y-45450000D03*
X75450000Y-25450000D03*
D23*
X60000000Y-80000000D03*
D24*
X95450000Y-35450000D03*
D23*
X67000000Y-49000000D03*
D24*
X100450000Y-25450000D03*
D23*
X60000000Y-74000000D03*
D24*
X90450000Y-25450000D03*
X60450000Y-35450000D03*
X60450000Y-55450000D03*
X30450000Y-80450000D03*
X75450000Y-40450000D03*
D23*
X54000000Y-80000000D03*
D24*
X90450000Y-80450000D03*
X45450000Y-55450000D03*
X45450000Y-35450000D03*
X95450000Y-80450000D03*
D23*
X67000000Y-55000000D03*
D24*
X40450000Y-55450000D03*
X70450000Y-45450000D03*
X85450000Y-25450000D03*
X100450000Y-35450000D03*
X45450000Y-40450000D03*
X50450000Y-65450000D03*
X65450000Y-45450000D03*
X95450000Y-30450000D03*
D23*
X55000000Y-67000000D03*
D24*
X40450000Y-35450000D03*
X30450000Y-45450000D03*
X110450000Y-65450000D03*
X80450000Y-65450000D03*
X85450000Y-85450000D03*
X90450000Y-70450000D03*
X50450000Y-45450000D03*
D23*
X43000000Y-55000000D03*
X78000000Y-86000000D03*
D24*
X45450000Y-45450000D03*
X45450000Y-80450000D03*
X105450000Y-65450000D03*
X60450000Y-25450000D03*
X75450000Y-35450000D03*
X105450000Y-25450000D03*
D23*
X43000000Y-49000000D03*
D24*
X65450000Y-60450000D03*
X80450000Y-50450000D03*
X85450000Y-70450000D03*
X65450000Y-50450000D03*
X60450000Y-60450000D03*
X35450000Y-40450000D03*
X75450000Y-50450000D03*
X65450000Y-35450000D03*
X75450000Y-30450000D03*
X90450000Y-85450000D03*
X65450000Y-25450000D03*
X40450000Y-65450000D03*
X90450000Y-35450000D03*
X70450000Y-55450000D03*
X110450000Y-45450000D03*
X50450000Y-50450000D03*
X45450000Y-65450000D03*
X110450000Y-55450000D03*
X100450000Y-50450000D03*
X85450000Y-40450000D03*
X50450000Y-80450000D03*
X110450000Y-60450000D03*
D23*
X67000000Y-61000000D03*
D24*
X35450000Y-35450000D03*
X30450000Y-40450000D03*
X35450000Y-50450000D03*
X40450000Y-45450000D03*
X60450000Y-45450000D03*
X75450000Y-80450000D03*
X80450000Y-55450000D03*
X65450000Y-65450000D03*
X70450000Y-85450000D03*
X24750000Y-74366000D03*
X100450000Y-85450000D03*
X65450000Y-80450000D03*
X105450000Y-75450000D03*
X90450000Y-60450000D03*
X60450000Y-50450000D03*
X85450000Y-30450000D03*
X85450000Y-60450000D03*
D23*
X54000000Y-74000000D03*
D24*
X35450000Y-45450000D03*
X85450000Y-80450000D03*
X90450000Y-65450000D03*
X50450000Y-55450000D03*
X70450000Y-60450000D03*
D23*
X61000000Y-61000000D03*
D24*
X85450000Y-65450000D03*
X50450000Y-30450000D03*
X65450000Y-55450000D03*
X35450000Y-55450000D03*
X110450000Y-50450000D03*
X105450000Y-55450000D03*
X80450000Y-85450000D03*
X25450000Y-75450000D03*
X105450000Y-85450000D03*
X30450000Y-50450000D03*
X95450000Y-50450000D03*
X90450000Y-55450000D03*
X105450000Y-30450000D03*
X35450000Y-80450000D03*
X45450000Y-50450000D03*
X110450000Y-30450000D03*
X60450000Y-30450000D03*
X70450000Y-40450000D03*
X110450000Y-80450000D03*
X30450000Y-35450000D03*
X110450000Y-40450000D03*
X75450000Y-65450000D03*
X70450000Y-65450000D03*
D23*
X72000000Y-80000000D03*
D24*
X65450000Y-40450000D03*
D23*
X61000000Y-49000000D03*
D24*
X75450000Y-60450000D03*
X60450000Y-80450000D03*
%TD*%
%TO.N,SIM_RI*%
D25*
X46870000Y-68380000D02*
X47500000Y-67750000D01*
X50500000Y-67750000D02*
X51130000Y-68380000D01*
X47500000Y-67750000D02*
X50500000Y-67750000D01*
X24326700Y-51780000D02*
X40926700Y-68380000D01*
X51130000Y-68380000D02*
X79000000Y-68380000D01*
X40927000Y-68380000D02*
X46870000Y-68380000D01*
X23000000Y-51500000D02*
X24326700Y-51780000D01*
%TO.N,SIM_DTR*%
X46830000Y-70920000D02*
X47500000Y-70250000D01*
X40927000Y-70920000D02*
X46830000Y-70920000D01*
X24326700Y-54320000D02*
X40926700Y-70920000D01*
X23000000Y-54000000D02*
X24326700Y-54320000D01*
X47500000Y-70250000D02*
X50500000Y-70250000D01*
X50500000Y-70250000D02*
X51170000Y-70920000D01*
X51170000Y-70920000D02*
X79000000Y-70920000D01*
%TO.N,SIM_RST*%
X47500000Y-62750000D02*
X47040000Y-63210000D01*
X38296700Y-63210000D02*
X24326700Y-49240000D01*
X92171000Y-63210000D02*
X50960000Y-63210000D01*
X47040000Y-63210000D02*
X38297000Y-63210000D01*
X23000000Y-49000000D02*
X24326700Y-49240000D01*
X101073600Y-70936000D02*
X99896900Y-70936000D01*
X99896900Y-70936000D02*
X92170900Y-63210000D01*
X50960000Y-63210000D02*
X50500000Y-62750000D01*
X50500000Y-62750000D02*
X47500000Y-62750000D01*
%TO.N,SIM_TX*%
X47284000Y-72750000D02*
X46900000Y-73134000D01*
X38060900Y-73134200D02*
X24326700Y-59400000D01*
X52980800Y-75425600D02*
X50689400Y-73134200D01*
X101073600Y-73476000D02*
X99896900Y-73476000D01*
X50305000Y-72750000D02*
X47284000Y-72750000D01*
X72048100Y-75425600D02*
X52980800Y-75425600D01*
X72821000Y-74652700D02*
X72048100Y-75425600D01*
X98720200Y-74652700D02*
X72821000Y-74652700D01*
X99896900Y-73476000D02*
X98720200Y-74652700D01*
X50689000Y-73134000D02*
X50305000Y-72750000D01*
X23000000Y-59000000D02*
X24326700Y-59400000D01*
X46900000Y-73134000D02*
X38061000Y-73134000D01*
%TO.N,SIM_RX*%
X50500000Y-75250000D02*
X51160000Y-75910000D01*
X27395000Y-75910000D02*
X46840000Y-75910000D01*
X47500000Y-75250000D02*
X50500000Y-75250000D01*
X58557300Y-77192600D02*
X98720300Y-77192600D01*
X24915000Y-73430000D02*
X27395500Y-75910500D01*
X46840000Y-75910000D02*
X47500000Y-75250000D01*
X101073600Y-76016000D02*
X99896900Y-76016000D01*
X51160000Y-75910000D02*
X57275000Y-75910000D01*
X98720300Y-77192600D02*
X99896900Y-76016000D01*
X57275200Y-75910500D02*
X58557300Y-77192600D01*
%TO.N,+5V*%
D26*
X32532700Y-86000000D02*
X53000000Y-86000000D01*
X23000000Y-79000000D02*
X26252700Y-79720000D01*
X26252700Y-79720000D02*
X32532700Y-86000000D01*
%TO.N,GPS_TX*%
D25*
X53750000Y-41250000D02*
X107000000Y-41250000D01*
X53750000Y-59500000D02*
X53750000Y-41250000D01*
X107000000Y-41250000D02*
X107000000Y-40730000D01*
X49000000Y-59000000D02*
X53750000Y-59500000D01*
%TD*%
%TA.AperFunction,Conductor*%
%TO.N,GND*%
G36*
X27459191Y-20519407D02*
G01*
X27495155Y-20568907D01*
X27500000Y-20599500D01*
X27500000Y-33500000D01*
X27500001Y-33500000D01*
X45499999Y-33500000D01*
X45500000Y-33500000D01*
X45500000Y-26406893D01*
X53899500Y-26406893D01*
X53899500Y-27593106D01*
X53910123Y-27681565D01*
X53965637Y-27822339D01*
X53965638Y-27822341D01*
X53965639Y-27822342D01*
X54057078Y-27942922D01*
X54177658Y-28034361D01*
X54177659Y-28034361D01*
X54177660Y-28034362D01*
X54248047Y-28062119D01*
X54318436Y-28089877D01*
X54406898Y-28100500D01*
X54406900Y-28100500D01*
X55593100Y-28100500D01*
X55593102Y-28100500D01*
X55681564Y-28089877D01*
X55822342Y-28034361D01*
X55942922Y-27942922D01*
X56034361Y-27822342D01*
X56089877Y-27681564D01*
X56100500Y-27593102D01*
X56100500Y-26897684D01*
X57200000Y-26897684D01*
X57200000Y-27102315D01*
X57232008Y-27304412D01*
X57295243Y-27499027D01*
X57388139Y-27681348D01*
X57388143Y-27681353D01*
X57420523Y-27725920D01*
X57420524Y-27725920D01*
X58100000Y-27046444D01*
X58100000Y-27052661D01*
X58127259Y-27154394D01*
X58179920Y-27245606D01*
X58254394Y-27320080D01*
X58345606Y-27372741D01*
X58447339Y-27400000D01*
X58453553Y-27400000D01*
X57774078Y-28079475D01*
X57818647Y-28111858D01*
X58000972Y-28204756D01*
X58195587Y-28267991D01*
X58397685Y-28300000D01*
X58602315Y-28300000D01*
X58804412Y-28267991D01*
X58999027Y-28204756D01*
X59181342Y-28111863D01*
X59181350Y-28111858D01*
X59225920Y-28079475D01*
X58546445Y-27400000D01*
X58552661Y-27400000D01*
X58654394Y-27372741D01*
X58745606Y-27320080D01*
X58820080Y-27245606D01*
X58872741Y-27154394D01*
X58900000Y-27052661D01*
X58900000Y-27046445D01*
X59579475Y-27725920D01*
X59611858Y-27681350D01*
X59611863Y-27681342D01*
X59704756Y-27499027D01*
X59767991Y-27304412D01*
X59800000Y-27102315D01*
X59800000Y-26897684D01*
X59767991Y-26695587D01*
X59704756Y-26500972D01*
X59611858Y-26318647D01*
X59579475Y-26274078D01*
X58900000Y-26953553D01*
X58900000Y-26947339D01*
X58872741Y-26845606D01*
X58820080Y-26754394D01*
X58745606Y-26679920D01*
X58654394Y-26627259D01*
X58552661Y-26600000D01*
X58546445Y-26600000D01*
X59225920Y-25920524D01*
X59225920Y-25920523D01*
X59181353Y-25888143D01*
X59181348Y-25888139D01*
X58999027Y-25795243D01*
X58804412Y-25732008D01*
X58602315Y-25700000D01*
X58397685Y-25700000D01*
X58195587Y-25732008D01*
X58000972Y-25795243D01*
X57818651Y-25888139D01*
X57818647Y-25888141D01*
X57774078Y-25920523D01*
X58453555Y-26600000D01*
X58447339Y-26600000D01*
X58345606Y-26627259D01*
X58254394Y-26679920D01*
X58179920Y-26754394D01*
X58127259Y-26845606D01*
X58100000Y-26947339D01*
X58100000Y-26953555D01*
X57420523Y-26274078D01*
X57388141Y-26318647D01*
X57388139Y-26318651D01*
X57295243Y-26500972D01*
X57232008Y-26695587D01*
X57200000Y-26897684D01*
X56100500Y-26897684D01*
X56100500Y-26406898D01*
X56089877Y-26318436D01*
X56034361Y-26177658D01*
X55942922Y-26057078D01*
X55822342Y-25965639D01*
X55822341Y-25965638D01*
X55822339Y-25965637D01*
X55681565Y-25910123D01*
X55593106Y-25899500D01*
X55593102Y-25899500D01*
X54406898Y-25899500D01*
X54406893Y-25899500D01*
X54318434Y-25910123D01*
X54177660Y-25965637D01*
X54177656Y-25965640D01*
X54057081Y-26057075D01*
X54057075Y-26057081D01*
X53965640Y-26177656D01*
X53965637Y-26177660D01*
X53910123Y-26318434D01*
X53899500Y-26406893D01*
X45500000Y-26406893D01*
X45500000Y-24878710D01*
X108149500Y-24878710D01*
X108149500Y-25121289D01*
X108181161Y-25361781D01*
X108181161Y-25361786D01*
X108243944Y-25596092D01*
X108243948Y-25596105D01*
X108336772Y-25820204D01*
X108336774Y-25820208D01*
X108336776Y-25820212D01*
X108420739Y-25965640D01*
X108458066Y-26030292D01*
X108605729Y-26222731D01*
X108605731Y-26222733D01*
X108605735Y-26222738D01*
X108777262Y-26394265D01*
X108777266Y-26394268D01*
X108777268Y-26394270D01*
X108969707Y-26541933D01*
X108969711Y-26541936D01*
X109179788Y-26663224D01*
X109403900Y-26756054D01*
X109638211Y-26818838D01*
X109878712Y-26850500D01*
X109878713Y-26850500D01*
X110121287Y-26850500D01*
X110121288Y-26850500D01*
X110361789Y-26818838D01*
X110596100Y-26756054D01*
X110820212Y-26663224D01*
X111030289Y-26541936D01*
X111222738Y-26394265D01*
X111394265Y-26222738D01*
X111541936Y-26030289D01*
X111663224Y-25820212D01*
X111756054Y-25596100D01*
X111818838Y-25361789D01*
X111850500Y-25121288D01*
X111850500Y-24878712D01*
X111818838Y-24638211D01*
X111756054Y-24403900D01*
X111663224Y-24179788D01*
X111541936Y-23969711D01*
X111394265Y-23777262D01*
X111222738Y-23605735D01*
X111222733Y-23605731D01*
X111222731Y-23605729D01*
X111030292Y-23458066D01*
X111030289Y-23458064D01*
X110820212Y-23336776D01*
X110820208Y-23336774D01*
X110820204Y-23336772D01*
X110596105Y-23243948D01*
X110596104Y-23243947D01*
X110596100Y-23243946D01*
X110361789Y-23181162D01*
X110361786Y-23181161D01*
X110361784Y-23181161D01*
X110121289Y-23149500D01*
X110121288Y-23149500D01*
X109878712Y-23149500D01*
X109878710Y-23149500D01*
X109638218Y-23181161D01*
X109638213Y-23181161D01*
X109403907Y-23243944D01*
X109403894Y-23243948D01*
X109179795Y-23336772D01*
X108969707Y-23458066D01*
X108777268Y-23605729D01*
X108605729Y-23777268D01*
X108458066Y-23969707D01*
X108336772Y-24179795D01*
X108243948Y-24403894D01*
X108243944Y-24403907D01*
X108181161Y-24638213D01*
X108181161Y-24638218D01*
X108149500Y-24878710D01*
X45500000Y-24878710D01*
X45500000Y-20599500D01*
X45518907Y-20541309D01*
X45568407Y-20505345D01*
X45599000Y-20500500D01*
X111934108Y-20500500D01*
X111997015Y-20500500D01*
X112002992Y-20500681D01*
X112295309Y-20518362D01*
X112307164Y-20519802D01*
X112592280Y-20572051D01*
X112603882Y-20574911D01*
X112880623Y-20661147D01*
X112891786Y-20665380D01*
X113152200Y-20782583D01*
X113156118Y-20784347D01*
X113166690Y-20789895D01*
X113414770Y-20939864D01*
X113424583Y-20946638D01*
X113652755Y-21125400D01*
X113661704Y-21133327D01*
X113866672Y-21338295D01*
X113874599Y-21347244D01*
X114053356Y-21575409D01*
X114060138Y-21585233D01*
X114210100Y-21833303D01*
X114215652Y-21843881D01*
X114334616Y-22108206D01*
X114338855Y-22119384D01*
X114425087Y-22396114D01*
X114427948Y-22407722D01*
X114480196Y-22692828D01*
X114481637Y-22704695D01*
X114499319Y-22997006D01*
X114499500Y-23002984D01*
X114499500Y-86997015D01*
X114499319Y-87002993D01*
X114481637Y-87295304D01*
X114480196Y-87307171D01*
X114427948Y-87592277D01*
X114425087Y-87603885D01*
X114338855Y-87880615D01*
X114334616Y-87891793D01*
X114215652Y-88156118D01*
X114210096Y-88166703D01*
X114060142Y-88414758D01*
X114053356Y-88424590D01*
X113874599Y-88652755D01*
X113866672Y-88661704D01*
X113661704Y-88866672D01*
X113652755Y-88874599D01*
X113424590Y-89053356D01*
X113414758Y-89060142D01*
X113177212Y-89203744D01*
X113166703Y-89210097D01*
X113156118Y-89215652D01*
X112891793Y-89334616D01*
X112880615Y-89338855D01*
X112603885Y-89425087D01*
X112592277Y-89427948D01*
X112307171Y-89480196D01*
X112295304Y-89481637D01*
X112023993Y-89498048D01*
X112002991Y-89499319D01*
X111997015Y-89499500D01*
X23002985Y-89499500D01*
X22997008Y-89499319D01*
X22973564Y-89497900D01*
X22704695Y-89481637D01*
X22692828Y-89480196D01*
X22407722Y-89427948D01*
X22396114Y-89425087D01*
X22119384Y-89338855D01*
X22108206Y-89334616D01*
X21843881Y-89215652D01*
X21833303Y-89210100D01*
X21585233Y-89060138D01*
X21575413Y-89053359D01*
X21347244Y-88874599D01*
X21338295Y-88866672D01*
X21133327Y-88661704D01*
X21125400Y-88652755D01*
X20946638Y-88424583D01*
X20939864Y-88414770D01*
X20789895Y-88166690D01*
X20784347Y-88156118D01*
X20665383Y-87891793D01*
X20661147Y-87880623D01*
X20574911Y-87603882D01*
X20572051Y-87592277D01*
X20536328Y-87397342D01*
X20519802Y-87307164D01*
X20518362Y-87295303D01*
X20500681Y-87002992D01*
X20500500Y-86997015D01*
X20500500Y-84878710D01*
X23149500Y-84878710D01*
X23149500Y-85121289D01*
X23181161Y-85361781D01*
X23181161Y-85361786D01*
X23243944Y-85596092D01*
X23243948Y-85596105D01*
X23336772Y-85820204D01*
X23336774Y-85820208D01*
X23336776Y-85820212D01*
X23390821Y-85913820D01*
X23458066Y-86030292D01*
X23605729Y-86222731D01*
X23605731Y-86222733D01*
X23605735Y-86222738D01*
X23777262Y-86394265D01*
X23777266Y-86394268D01*
X23777268Y-86394270D01*
X23803591Y-86414468D01*
X23969711Y-86541936D01*
X24179788Y-86663224D01*
X24403900Y-86756054D01*
X24638211Y-86818838D01*
X24878712Y-86850500D01*
X24878713Y-86850500D01*
X25121287Y-86850500D01*
X25121288Y-86850500D01*
X25361789Y-86818838D01*
X25596100Y-86756054D01*
X25820212Y-86663224D01*
X26030289Y-86541936D01*
X26222738Y-86394265D01*
X26394265Y-86222738D01*
X26541936Y-86030289D01*
X26663224Y-85820212D01*
X26756054Y-85596100D01*
X26818838Y-85361789D01*
X26850500Y-85121288D01*
X26850500Y-84878712D01*
X26818838Y-84638211D01*
X26756054Y-84403900D01*
X26663224Y-84179788D01*
X26541936Y-83969711D01*
X26394265Y-83777262D01*
X26222738Y-83605735D01*
X26222733Y-83605731D01*
X26222731Y-83605729D01*
X26030292Y-83458066D01*
X26030289Y-83458064D01*
X25820212Y-83336776D01*
X25820208Y-83336774D01*
X25820204Y-83336772D01*
X25596105Y-83243948D01*
X25596104Y-83243947D01*
X25596100Y-83243946D01*
X25361789Y-83181162D01*
X25361786Y-83181161D01*
X25361784Y-83181161D01*
X25121289Y-83149500D01*
X25121288Y-83149500D01*
X24878712Y-83149500D01*
X24878710Y-83149500D01*
X24638218Y-83181161D01*
X24638213Y-83181161D01*
X24403907Y-83243944D01*
X24403894Y-83243948D01*
X24179795Y-83336772D01*
X23969707Y-83458066D01*
X23777268Y-83605729D01*
X23605729Y-83777268D01*
X23458066Y-83969707D01*
X23336772Y-84179795D01*
X23243948Y-84403894D01*
X23243944Y-84403907D01*
X23181161Y-84638213D01*
X23181161Y-84638218D01*
X23149500Y-84878710D01*
X20500500Y-84878710D01*
X20500500Y-78896532D01*
X21699500Y-78896532D01*
X21699500Y-79103467D01*
X21739869Y-79306418D01*
X21819058Y-79497597D01*
X21819059Y-79497598D01*
X21934023Y-79669655D01*
X22080345Y-79815977D01*
X22252402Y-79930941D01*
X22443580Y-80010130D01*
X22646535Y-80050500D01*
X22646536Y-80050500D01*
X23353464Y-80050500D01*
X23353465Y-80050500D01*
X23556420Y-80010130D01*
X23633153Y-79978345D01*
X23692431Y-79973150D01*
X25823554Y-80444883D01*
X25872161Y-80471539D01*
X31910911Y-86510289D01*
X32022411Y-86621789D01*
X32100576Y-86674017D01*
X32153514Y-86709390D01*
X32153525Y-86709396D01*
X32203816Y-86730226D01*
X32289667Y-86765787D01*
X32299203Y-86769737D01*
X32453857Y-86800500D01*
X32453858Y-86800500D01*
X51225500Y-86800500D01*
X51283691Y-86819407D01*
X51319655Y-86868907D01*
X51324500Y-86899500D01*
X51324500Y-87168106D01*
X51335123Y-87256565D01*
X51390637Y-87397339D01*
X51390638Y-87397341D01*
X51390639Y-87397342D01*
X51482078Y-87517922D01*
X51602658Y-87609361D01*
X51602659Y-87609361D01*
X51602660Y-87609362D01*
X51673047Y-87637119D01*
X51743436Y-87664877D01*
X51831898Y-87675500D01*
X51831900Y-87675500D01*
X54168100Y-87675500D01*
X54168102Y-87675500D01*
X54256564Y-87664877D01*
X54397342Y-87609361D01*
X54517922Y-87517922D01*
X54609361Y-87397342D01*
X54664877Y-87256564D01*
X54675500Y-87168102D01*
X54675500Y-85877105D01*
X56525000Y-85877105D01*
X56525000Y-86122894D01*
X56557081Y-86366571D01*
X56557081Y-86366576D01*
X56620695Y-86603984D01*
X56620699Y-86603997D01*
X56714753Y-86831067D01*
X56714755Y-86831072D01*
X56837647Y-87043926D01*
X56909229Y-87137215D01*
X57627545Y-86418898D01*
X57720343Y-86557780D01*
X57842220Y-86679657D01*
X57981099Y-86772452D01*
X57262783Y-87490769D01*
X57356073Y-87562352D01*
X57568927Y-87685244D01*
X57568932Y-87685246D01*
X57796002Y-87779300D01*
X57796015Y-87779304D01*
X58033425Y-87842918D01*
X58277105Y-87874999D01*
X58277107Y-87875000D01*
X58522893Y-87875000D01*
X58522894Y-87874999D01*
X58766571Y-87842918D01*
X58766576Y-87842918D01*
X59003984Y-87779304D01*
X59003997Y-87779300D01*
X59231067Y-87685246D01*
X59231072Y-87685244D01*
X59443922Y-87562355D01*
X59537215Y-87490769D01*
X58818899Y-86772453D01*
X58957780Y-86679657D01*
X59079657Y-86557780D01*
X59172453Y-86418899D01*
X59890769Y-87137215D01*
X59962355Y-87043922D01*
X60085244Y-86831072D01*
X60085246Y-86831067D01*
X60179300Y-86603997D01*
X60179304Y-86603984D01*
X60242918Y-86366576D01*
X60242918Y-86366571D01*
X60274999Y-86122894D01*
X60275000Y-86122893D01*
X60275000Y-85877107D01*
X60274999Y-85877105D01*
X60242918Y-85633428D01*
X60242918Y-85633423D01*
X60179304Y-85396015D01*
X60179300Y-85396002D01*
X60085246Y-85168932D01*
X60085244Y-85168927D01*
X59962352Y-84956073D01*
X59911044Y-84889206D01*
X59890768Y-84862783D01*
X59172452Y-85581098D01*
X59079657Y-85442220D01*
X58957780Y-85320343D01*
X58818898Y-85227545D01*
X59214551Y-84831893D01*
X65324500Y-84831893D01*
X65324500Y-87168106D01*
X65335123Y-87256565D01*
X65390637Y-87397339D01*
X65390638Y-87397341D01*
X65390639Y-87397342D01*
X65482078Y-87517922D01*
X65602658Y-87609361D01*
X65602659Y-87609361D01*
X65602660Y-87609362D01*
X65673047Y-87637119D01*
X65743436Y-87664877D01*
X65831898Y-87675500D01*
X65831900Y-87675500D01*
X68168100Y-87675500D01*
X68168102Y-87675500D01*
X68256564Y-87664877D01*
X68397342Y-87609361D01*
X68517922Y-87517922D01*
X68609361Y-87397342D01*
X68664877Y-87256564D01*
X68675500Y-87168102D01*
X68675500Y-85877105D01*
X70525000Y-85877105D01*
X70525000Y-86122894D01*
X70557081Y-86366571D01*
X70557081Y-86366576D01*
X70620695Y-86603984D01*
X70620699Y-86603997D01*
X70714753Y-86831067D01*
X70714755Y-86831072D01*
X70837647Y-87043926D01*
X70909229Y-87137215D01*
X71627545Y-86418898D01*
X71720343Y-86557780D01*
X71842220Y-86679657D01*
X71981099Y-86772452D01*
X71262783Y-87490769D01*
X71356073Y-87562352D01*
X71568927Y-87685244D01*
X71568932Y-87685246D01*
X71796002Y-87779300D01*
X71796015Y-87779304D01*
X72033425Y-87842918D01*
X72277105Y-87874999D01*
X72277107Y-87875000D01*
X72522893Y-87875000D01*
X72522894Y-87874999D01*
X72766571Y-87842918D01*
X72766576Y-87842918D01*
X73003984Y-87779304D01*
X73003997Y-87779300D01*
X73231067Y-87685246D01*
X73231072Y-87685244D01*
X73443922Y-87562355D01*
X73537215Y-87490769D01*
X72818899Y-86772453D01*
X72957780Y-86679657D01*
X73079657Y-86557780D01*
X73172453Y-86418899D01*
X73890769Y-87137215D01*
X73962355Y-87043922D01*
X74085244Y-86831072D01*
X74085246Y-86831067D01*
X74179300Y-86603997D01*
X74179304Y-86603984D01*
X74242918Y-86366576D01*
X74242918Y-86366571D01*
X74274999Y-86122894D01*
X74275000Y-86122893D01*
X74275000Y-85877107D01*
X74274999Y-85877105D01*
X74242918Y-85633428D01*
X74242918Y-85633423D01*
X74179304Y-85396015D01*
X74179300Y-85396002D01*
X74085246Y-85168932D01*
X74085244Y-85168927D01*
X73962355Y-84956077D01*
X73946749Y-84935739D01*
X73946748Y-84935737D01*
X73902989Y-84878710D01*
X108149500Y-84878710D01*
X108149500Y-85121289D01*
X108181161Y-85361781D01*
X108181161Y-85361786D01*
X108243944Y-85596092D01*
X108243948Y-85596105D01*
X108336772Y-85820204D01*
X108336774Y-85820208D01*
X108336776Y-85820212D01*
X108390821Y-85913820D01*
X108458066Y-86030292D01*
X108605729Y-86222731D01*
X108605731Y-86222733D01*
X108605735Y-86222738D01*
X108777262Y-86394265D01*
X108777266Y-86394268D01*
X108777268Y-86394270D01*
X108803591Y-86414468D01*
X108969711Y-86541936D01*
X109179788Y-86663224D01*
X109403900Y-86756054D01*
X109638211Y-86818838D01*
X109878712Y-86850500D01*
X109878713Y-86850500D01*
X110121287Y-86850500D01*
X110121288Y-86850500D01*
X110361789Y-86818838D01*
X110596100Y-86756054D01*
X110820212Y-86663224D01*
X111030289Y-86541936D01*
X111222738Y-86394265D01*
X111394265Y-86222738D01*
X111541936Y-86030289D01*
X111663224Y-85820212D01*
X111756054Y-85596100D01*
X111818838Y-85361789D01*
X111850500Y-85121288D01*
X111850500Y-84878712D01*
X111818838Y-84638211D01*
X111756054Y-84403900D01*
X111663224Y-84179788D01*
X111541936Y-83969711D01*
X111394265Y-83777262D01*
X111222738Y-83605735D01*
X111222733Y-83605731D01*
X111222731Y-83605729D01*
X111030292Y-83458066D01*
X111030289Y-83458064D01*
X110820212Y-83336776D01*
X110820208Y-83336774D01*
X110820204Y-83336772D01*
X110596105Y-83243948D01*
X110596104Y-83243947D01*
X110596100Y-83243946D01*
X110361789Y-83181162D01*
X110361786Y-83181161D01*
X110361784Y-83181161D01*
X110121289Y-83149500D01*
X110121288Y-83149500D01*
X109878712Y-83149500D01*
X109878710Y-83149500D01*
X109638218Y-83181161D01*
X109638213Y-83181161D01*
X109403907Y-83243944D01*
X109403894Y-83243948D01*
X109179795Y-83336772D01*
X108969707Y-83458066D01*
X108777268Y-83605729D01*
X108605729Y-83777268D01*
X108458066Y-83969707D01*
X108336772Y-84179795D01*
X108243948Y-84403894D01*
X108243944Y-84403907D01*
X108181161Y-84638213D01*
X108181161Y-84638218D01*
X108149500Y-84878710D01*
X73902989Y-84878710D01*
X73890768Y-84862783D01*
X73172452Y-85581098D01*
X73079657Y-85442220D01*
X72957780Y-85320343D01*
X72818898Y-85227545D01*
X73537215Y-84509229D01*
X73443926Y-84437647D01*
X73231072Y-84314755D01*
X73231067Y-84314753D01*
X73003997Y-84220699D01*
X73003984Y-84220695D01*
X72766574Y-84157081D01*
X72522894Y-84125000D01*
X72277105Y-84125000D01*
X72033428Y-84157081D01*
X72033423Y-84157081D01*
X71796015Y-84220695D01*
X71796002Y-84220699D01*
X71568932Y-84314753D01*
X71568927Y-84314755D01*
X71356078Y-84437644D01*
X71262783Y-84509229D01*
X71981100Y-85227546D01*
X71842220Y-85320343D01*
X71720343Y-85442220D01*
X71627546Y-85581100D01*
X70909229Y-84862783D01*
X70837644Y-84956078D01*
X70714755Y-85168927D01*
X70714753Y-85168932D01*
X70620699Y-85396002D01*
X70620695Y-85396015D01*
X70557081Y-85633423D01*
X70557081Y-85633428D01*
X70525000Y-85877105D01*
X68675500Y-85877105D01*
X68675500Y-84831898D01*
X68664877Y-84743436D01*
X68609361Y-84602658D01*
X68517922Y-84482078D01*
X68397342Y-84390639D01*
X68397341Y-84390638D01*
X68397339Y-84390637D01*
X68256565Y-84335123D01*
X68168106Y-84324500D01*
X68168102Y-84324500D01*
X65831898Y-84324500D01*
X65831893Y-84324500D01*
X65743434Y-84335123D01*
X65602660Y-84390637D01*
X65602656Y-84390640D01*
X65482081Y-84482075D01*
X65482075Y-84482081D01*
X65390640Y-84602656D01*
X65390637Y-84602660D01*
X65335123Y-84743434D01*
X65324500Y-84831893D01*
X59214551Y-84831893D01*
X59537215Y-84509229D01*
X59443926Y-84437647D01*
X59231072Y-84314755D01*
X59231067Y-84314753D01*
X59003997Y-84220699D01*
X59003984Y-84220695D01*
X58766574Y-84157081D01*
X58522894Y-84125000D01*
X58277105Y-84125000D01*
X58033428Y-84157081D01*
X58033423Y-84157081D01*
X57796015Y-84220695D01*
X57796002Y-84220699D01*
X57568932Y-84314753D01*
X57568927Y-84314755D01*
X57356078Y-84437644D01*
X57262783Y-84509229D01*
X57981100Y-85227546D01*
X57842220Y-85320343D01*
X57720343Y-85442220D01*
X57627546Y-85581100D01*
X56909229Y-84862783D01*
X56837644Y-84956078D01*
X56714755Y-85168927D01*
X56714753Y-85168932D01*
X56620699Y-85396002D01*
X56620695Y-85396015D01*
X56557081Y-85633423D01*
X56557081Y-85633428D01*
X56525000Y-85877105D01*
X54675500Y-85877105D01*
X54675500Y-84831898D01*
X54664877Y-84743436D01*
X54609361Y-84602658D01*
X54517922Y-84482078D01*
X54397342Y-84390639D01*
X54397341Y-84390638D01*
X54397339Y-84390637D01*
X54256565Y-84335123D01*
X54168106Y-84324500D01*
X54168102Y-84324500D01*
X51831898Y-84324500D01*
X51831893Y-84324500D01*
X51743434Y-84335123D01*
X51602660Y-84390637D01*
X51602656Y-84390640D01*
X51482081Y-84482075D01*
X51482075Y-84482081D01*
X51390640Y-84602656D01*
X51390637Y-84602660D01*
X51335123Y-84743434D01*
X51324500Y-84831893D01*
X51324500Y-85100500D01*
X51305593Y-85158691D01*
X51256093Y-85194655D01*
X51225500Y-85199500D01*
X32905286Y-85199500D01*
X32847095Y-85180593D01*
X32835282Y-85170504D01*
X28654228Y-80989450D01*
X77849500Y-80989450D01*
X77849500Y-81170549D01*
X77877828Y-81349406D01*
X77933788Y-81521637D01*
X77997754Y-81647178D01*
X78016004Y-81682994D01*
X78122447Y-81829501D01*
X78250499Y-81957553D01*
X78397006Y-82063996D01*
X78558361Y-82146211D01*
X78730591Y-82202171D01*
X78802136Y-82213502D01*
X78909451Y-82230500D01*
X78909454Y-82230500D01*
X79090549Y-82230500D01*
X79179977Y-82216335D01*
X79269409Y-82202171D01*
X79441639Y-82146211D01*
X79602994Y-82063996D01*
X79749501Y-81957553D01*
X79865475Y-81841579D01*
X99473100Y-81841579D01*
X99473100Y-82038420D01*
X99503889Y-82232821D01*
X99503891Y-82232826D01*
X99564716Y-82420025D01*
X99654076Y-82595405D01*
X99769772Y-82754646D01*
X99908954Y-82893828D01*
X100068195Y-83009524D01*
X100243575Y-83098884D01*
X100430774Y-83159709D01*
X100430775Y-83159709D01*
X100430778Y-83159710D01*
X100625180Y-83190500D01*
X100625183Y-83190500D01*
X100822020Y-83190500D01*
X101016421Y-83159710D01*
X101016422Y-83159709D01*
X101016426Y-83159709D01*
X101203625Y-83098884D01*
X101379005Y-83009524D01*
X101538246Y-82893828D01*
X101677428Y-82754646D01*
X101793124Y-82595405D01*
X101882484Y-82420025D01*
X101943309Y-82232826D01*
X101943310Y-82232821D01*
X101974100Y-82038420D01*
X101974100Y-81841579D01*
X101943310Y-81647178D01*
X101943309Y-81647174D01*
X101882484Y-81459975D01*
X101793124Y-81284595D01*
X101677428Y-81125354D01*
X101538246Y-80986172D01*
X101379005Y-80870476D01*
X101379004Y-80870475D01*
X101379002Y-80870474D01*
X101203625Y-80781116D01*
X101016421Y-80720289D01*
X100822020Y-80689500D01*
X100822017Y-80689500D01*
X100625183Y-80689500D01*
X100625180Y-80689500D01*
X100430778Y-80720289D01*
X100243574Y-80781116D01*
X100068197Y-80870474D01*
X99908955Y-80986171D01*
X99769771Y-81125355D01*
X99654074Y-81284597D01*
X99564716Y-81459974D01*
X99503889Y-81647178D01*
X99473100Y-81841579D01*
X79865475Y-81841579D01*
X79877553Y-81829501D01*
X79983996Y-81682994D01*
X80066211Y-81521639D01*
X80122171Y-81349409D01*
X80150500Y-81170546D01*
X80150500Y-80989454D01*
X80150500Y-80989450D01*
X80122171Y-80810593D01*
X80122171Y-80810591D01*
X80066211Y-80638361D01*
X79983996Y-80477006D01*
X79877553Y-80330499D01*
X79749501Y-80202447D01*
X79602994Y-80096004D01*
X79602993Y-80096003D01*
X79602991Y-80096002D01*
X79441637Y-80013788D01*
X79269406Y-79957828D01*
X79090549Y-79929500D01*
X79090546Y-79929500D01*
X78909454Y-79929500D01*
X78909451Y-79929500D01*
X78730593Y-79957828D01*
X78558362Y-80013788D01*
X78397008Y-80096002D01*
X78323752Y-80149225D01*
X78250499Y-80202447D01*
X78122447Y-80330499D01*
X78069225Y-80403752D01*
X78016002Y-80477008D01*
X77933788Y-80638362D01*
X77877828Y-80810593D01*
X77849500Y-80989450D01*
X28654228Y-80989450D01*
X26825558Y-79160780D01*
X26824070Y-79159259D01*
X26776235Y-79109322D01*
X26776234Y-79109321D01*
X26776229Y-79109317D01*
X26762990Y-79098212D01*
X26762988Y-79098210D01*
X26709125Y-79062219D01*
X26709117Y-79062214D01*
X26704586Y-79059187D01*
X26647037Y-79018919D01*
X26639094Y-79015427D01*
X26631879Y-79010606D01*
X26566972Y-78983720D01*
X26502685Y-78955459D01*
X26494245Y-78953590D01*
X26486257Y-78950288D01*
X26486245Y-78950277D01*
X26486198Y-78950263D01*
X26486197Y-78950262D01*
X26435255Y-78940129D01*
X26418317Y-78936759D01*
X26416264Y-78936328D01*
X26236480Y-78896532D01*
X47699500Y-78896532D01*
X47699500Y-79103467D01*
X47739869Y-79306418D01*
X47819058Y-79497597D01*
X47819059Y-79497598D01*
X47934023Y-79669655D01*
X48080345Y-79815977D01*
X48252402Y-79930941D01*
X48443580Y-80010130D01*
X48646535Y-80050500D01*
X48646536Y-80050500D01*
X49353464Y-80050500D01*
X49353465Y-80050500D01*
X49556420Y-80010130D01*
X49747598Y-79930941D01*
X49919655Y-79815977D01*
X50065977Y-79669655D01*
X50180941Y-79497598D01*
X50260130Y-79306420D01*
X50300500Y-79103465D01*
X50300500Y-78896535D01*
X50260130Y-78693580D01*
X50180941Y-78502402D01*
X50065977Y-78330345D01*
X49919655Y-78184023D01*
X49919651Y-78184020D01*
X49747597Y-78069058D01*
X49556418Y-77989869D01*
X49353467Y-77949500D01*
X49353465Y-77949500D01*
X48646535Y-77949500D01*
X48646532Y-77949500D01*
X48443581Y-77989869D01*
X48252402Y-78069058D01*
X48080348Y-78184020D01*
X47934020Y-78330348D01*
X47819058Y-78502402D01*
X47739869Y-78693581D01*
X47699500Y-78896532D01*
X26236480Y-78896532D01*
X24172034Y-78439557D01*
X24119305Y-78408520D01*
X24111114Y-78397898D01*
X24065979Y-78330348D01*
X24065977Y-78330345D01*
X23919655Y-78184023D01*
X23919651Y-78184020D01*
X23747597Y-78069058D01*
X23556418Y-77989869D01*
X23353467Y-77949500D01*
X23353465Y-77949500D01*
X22646535Y-77949500D01*
X22646532Y-77949500D01*
X22443581Y-77989869D01*
X22252402Y-78069058D01*
X22080348Y-78184020D01*
X21934020Y-78330348D01*
X21819058Y-78502402D01*
X21739869Y-78693581D01*
X21699500Y-78896532D01*
X20500500Y-78896532D01*
X20500500Y-76396532D01*
X21699500Y-76396532D01*
X21699500Y-76603467D01*
X21739869Y-76806418D01*
X21819058Y-76997597D01*
X21902800Y-77122926D01*
X21934023Y-77169655D01*
X22080345Y-77315977D01*
X22252402Y-77430941D01*
X22443580Y-77510130D01*
X22646535Y-77550500D01*
X22646536Y-77550500D01*
X23353464Y-77550500D01*
X23353465Y-77550500D01*
X23556420Y-77510130D01*
X23747598Y-77430941D01*
X23919655Y-77315977D01*
X24065977Y-77169655D01*
X24180941Y-76997598D01*
X24260130Y-76806420D01*
X24300500Y-76603465D01*
X24300500Y-76396535D01*
X24260130Y-76193580D01*
X24180941Y-76002402D01*
X24065977Y-75830345D01*
X23919655Y-75684023D01*
X23919651Y-75684020D01*
X23747597Y-75569058D01*
X23556418Y-75489869D01*
X23353467Y-75449500D01*
X23353465Y-75449500D01*
X22646535Y-75449500D01*
X22646532Y-75449500D01*
X22443581Y-75489869D01*
X22252402Y-75569058D01*
X22080348Y-75684020D01*
X21934020Y-75830348D01*
X21819058Y-76002402D01*
X21739869Y-76193581D01*
X21699500Y-76396532D01*
X20500500Y-76396532D01*
X20500500Y-71396532D01*
X21699500Y-71396532D01*
X21699500Y-71603467D01*
X21739869Y-71806418D01*
X21819058Y-71997597D01*
X21859532Y-72058171D01*
X21934023Y-72169655D01*
X22080345Y-72315977D01*
X22252402Y-72430941D01*
X22443580Y-72510130D01*
X22646535Y-72550500D01*
X22646536Y-72550500D01*
X23353464Y-72550500D01*
X23353465Y-72550500D01*
X23556420Y-72510130D01*
X23747598Y-72430941D01*
X23919655Y-72315977D01*
X24065977Y-72169655D01*
X24180941Y-71997598D01*
X24260130Y-71806420D01*
X24300500Y-71603465D01*
X24300500Y-71396535D01*
X24260130Y-71193580D01*
X24180941Y-71002402D01*
X24065977Y-70830345D01*
X23919655Y-70684023D01*
X23919651Y-70684020D01*
X23747597Y-70569058D01*
X23556418Y-70489869D01*
X23353467Y-70449500D01*
X23353465Y-70449500D01*
X22646535Y-70449500D01*
X22646532Y-70449500D01*
X22443581Y-70489869D01*
X22252402Y-70569058D01*
X22080348Y-70684020D01*
X21934020Y-70830348D01*
X21819058Y-71002402D01*
X21739869Y-71193581D01*
X21699500Y-71396532D01*
X20500500Y-71396532D01*
X20500500Y-68896532D01*
X21699500Y-68896532D01*
X21699500Y-69103467D01*
X21739869Y-69306418D01*
X21819058Y-69497597D01*
X21841043Y-69530500D01*
X21934023Y-69669655D01*
X22080345Y-69815977D01*
X22252402Y-69930941D01*
X22443580Y-70010130D01*
X22646535Y-70050500D01*
X22646536Y-70050500D01*
X23353464Y-70050500D01*
X23353465Y-70050500D01*
X23556420Y-70010130D01*
X23747598Y-69930941D01*
X23919655Y-69815977D01*
X24065977Y-69669655D01*
X24180941Y-69497598D01*
X24260130Y-69306420D01*
X24300500Y-69103465D01*
X24300500Y-68896535D01*
X24260130Y-68693580D01*
X24180941Y-68502402D01*
X24065977Y-68330345D01*
X23919655Y-68184023D01*
X23919651Y-68184020D01*
X23747597Y-68069058D01*
X23556418Y-67989869D01*
X23353467Y-67949500D01*
X23353465Y-67949500D01*
X22646535Y-67949500D01*
X22646532Y-67949500D01*
X22443581Y-67989869D01*
X22252402Y-68069058D01*
X22080348Y-68184020D01*
X21934020Y-68330348D01*
X21819058Y-68502402D01*
X21739869Y-68693581D01*
X21699500Y-68896532D01*
X20500500Y-68896532D01*
X20500500Y-66249999D01*
X21524014Y-66249999D01*
X21524015Y-66250000D01*
X22509252Y-66250000D01*
X22487482Y-66287708D01*
X22450000Y-66427591D01*
X22450000Y-66572409D01*
X22487482Y-66712292D01*
X22509252Y-66750000D01*
X21524015Y-66750000D01*
X21530777Y-66792704D01*
X21591580Y-66979833D01*
X21680903Y-67155142D01*
X21680907Y-67155148D01*
X21796549Y-67314314D01*
X21935685Y-67453450D01*
X22094851Y-67569092D01*
X22094857Y-67569096D01*
X22270170Y-67658421D01*
X22270173Y-67658423D01*
X22457285Y-67719220D01*
X22457289Y-67719221D01*
X22651620Y-67750000D01*
X22749999Y-67750000D01*
X22750000Y-67749999D01*
X22750000Y-66990747D01*
X22787708Y-67012518D01*
X22927591Y-67050000D01*
X23072409Y-67050000D01*
X23212292Y-67012518D01*
X23250000Y-66990747D01*
X23250000Y-67749999D01*
X23250001Y-67750000D01*
X23348380Y-67750000D01*
X23542710Y-67719221D01*
X23542714Y-67719220D01*
X23729826Y-67658423D01*
X23729829Y-67658421D01*
X23905142Y-67569096D01*
X23905148Y-67569092D01*
X24064314Y-67453450D01*
X24203450Y-67314314D01*
X24319092Y-67155148D01*
X24319096Y-67155142D01*
X24408419Y-66979833D01*
X24469222Y-66792704D01*
X24475985Y-66750000D01*
X23490748Y-66750000D01*
X23512518Y-66712292D01*
X23550000Y-66572409D01*
X23550000Y-66427591D01*
X23512518Y-66287708D01*
X23490748Y-66250000D01*
X24475985Y-66250000D01*
X24475985Y-66249999D01*
X24469222Y-66207295D01*
X24408419Y-66020166D01*
X24319096Y-65844857D01*
X24319092Y-65844851D01*
X24203450Y-65685685D01*
X24064314Y-65546549D01*
X23905148Y-65430907D01*
X23905142Y-65430903D01*
X23729829Y-65341578D01*
X23729826Y-65341576D01*
X23542714Y-65280779D01*
X23542710Y-65280778D01*
X23348380Y-65250000D01*
X23250001Y-65250000D01*
X23250000Y-65250001D01*
X23250000Y-66009252D01*
X23212292Y-65987482D01*
X23072409Y-65950000D01*
X22927591Y-65950000D01*
X22787708Y-65987482D01*
X22750000Y-66009252D01*
X22750000Y-65250001D01*
X22749999Y-65250000D01*
X22651620Y-65250000D01*
X22457289Y-65280778D01*
X22457285Y-65280779D01*
X22270173Y-65341576D01*
X22270170Y-65341578D01*
X22094857Y-65430903D01*
X22094851Y-65430907D01*
X21935685Y-65546549D01*
X21796549Y-65685685D01*
X21680907Y-65844851D01*
X21680903Y-65844857D01*
X21591580Y-66020166D01*
X21530777Y-66207295D01*
X21524014Y-66249999D01*
X20500500Y-66249999D01*
X20500500Y-63896532D01*
X21699500Y-63896532D01*
X21699500Y-64103467D01*
X21739869Y-64306418D01*
X21819058Y-64497597D01*
X21819059Y-64497598D01*
X21934023Y-64669655D01*
X22080345Y-64815977D01*
X22252402Y-64930941D01*
X22443580Y-65010130D01*
X22646535Y-65050500D01*
X22646536Y-65050500D01*
X23353464Y-65050500D01*
X23353465Y-65050500D01*
X23556420Y-65010130D01*
X23747598Y-64930941D01*
X23919655Y-64815977D01*
X24065977Y-64669655D01*
X24180941Y-64497598D01*
X24260130Y-64306420D01*
X24300500Y-64103465D01*
X24300500Y-63896535D01*
X24260130Y-63693580D01*
X24180941Y-63502402D01*
X24065977Y-63330345D01*
X23919655Y-63184023D01*
X23919651Y-63184020D01*
X23747597Y-63069058D01*
X23556418Y-62989869D01*
X23353467Y-62949500D01*
X23353465Y-62949500D01*
X22646535Y-62949500D01*
X22646532Y-62949500D01*
X22443581Y-62989869D01*
X22252402Y-63069058D01*
X22080348Y-63184020D01*
X21934020Y-63330348D01*
X21819058Y-63502402D01*
X21739869Y-63693581D01*
X21699500Y-63896532D01*
X20500500Y-63896532D01*
X20500500Y-61396532D01*
X21699500Y-61396532D01*
X21699500Y-61603467D01*
X21739869Y-61806418D01*
X21819058Y-61997597D01*
X21934020Y-62169651D01*
X21934023Y-62169655D01*
X22080345Y-62315977D01*
X22252402Y-62430941D01*
X22443580Y-62510130D01*
X22646535Y-62550500D01*
X22646536Y-62550500D01*
X23353464Y-62550500D01*
X23353465Y-62550500D01*
X23556420Y-62510130D01*
X23747598Y-62430941D01*
X23919655Y-62315977D01*
X24065977Y-62169655D01*
X24180941Y-61997598D01*
X24260130Y-61806420D01*
X24300500Y-61603465D01*
X24300500Y-61396535D01*
X24260130Y-61193580D01*
X24180941Y-61002402D01*
X24065977Y-60830345D01*
X23919655Y-60684023D01*
X23747598Y-60569059D01*
X23747599Y-60569059D01*
X23747597Y-60569058D01*
X23556418Y-60489869D01*
X23353467Y-60449500D01*
X23353465Y-60449500D01*
X22646535Y-60449500D01*
X22646532Y-60449500D01*
X22443581Y-60489869D01*
X22252402Y-60569058D01*
X22080348Y-60684020D01*
X21934020Y-60830348D01*
X21819058Y-61002402D01*
X21739869Y-61193581D01*
X21699500Y-61396532D01*
X20500500Y-61396532D01*
X20500500Y-56396532D01*
X21699500Y-56396532D01*
X21699500Y-56603467D01*
X21739869Y-56806418D01*
X21819058Y-56997597D01*
X21819059Y-56997598D01*
X21934023Y-57169655D01*
X22080345Y-57315977D01*
X22252402Y-57430941D01*
X22443580Y-57510130D01*
X22646535Y-57550500D01*
X22646536Y-57550500D01*
X23353464Y-57550500D01*
X23353465Y-57550500D01*
X23556420Y-57510130D01*
X23747598Y-57430941D01*
X23919655Y-57315977D01*
X24065977Y-57169655D01*
X24180941Y-56997598D01*
X24260130Y-56806420D01*
X24300500Y-56603465D01*
X24300500Y-56396535D01*
X24260130Y-56193580D01*
X24180941Y-56002402D01*
X24065977Y-55830345D01*
X23919655Y-55684023D01*
X23747598Y-55569059D01*
X23747599Y-55569059D01*
X23747597Y-55569058D01*
X23556418Y-55489869D01*
X23353467Y-55449500D01*
X23353465Y-55449500D01*
X22646535Y-55449500D01*
X22646532Y-55449500D01*
X22443581Y-55489869D01*
X22252402Y-55569058D01*
X22080348Y-55684020D01*
X21934020Y-55830348D01*
X21819058Y-56002402D01*
X21739869Y-56193581D01*
X21699500Y-56396532D01*
X20500500Y-56396532D01*
X20500500Y-51396532D01*
X21699500Y-51396532D01*
X21699500Y-51603467D01*
X21739869Y-51806418D01*
X21819058Y-51997597D01*
X21819059Y-51997598D01*
X21934023Y-52169655D01*
X22080345Y-52315977D01*
X22252402Y-52430941D01*
X22443580Y-52510130D01*
X22646535Y-52550500D01*
X22646536Y-52550500D01*
X23353464Y-52550500D01*
X23353465Y-52550500D01*
X23556420Y-52510130D01*
X23747598Y-52430941D01*
X23919655Y-52315977D01*
X24020289Y-52215342D01*
X24074804Y-52187566D01*
X24135236Y-52197137D01*
X24160295Y-52215343D01*
X40665437Y-68720485D01*
X40665439Y-68720486D01*
X40762459Y-68776501D01*
X40762457Y-68776501D01*
X40762461Y-68776502D01*
X40762463Y-68776503D01*
X40870681Y-68805500D01*
X40870683Y-68805500D01*
X46926016Y-68805500D01*
X46926018Y-68805500D01*
X47034237Y-68776503D01*
X47034239Y-68776501D01*
X47034241Y-68776501D01*
X47063064Y-68759859D01*
X47131263Y-68720485D01*
X47647252Y-68204496D01*
X47701769Y-68176719D01*
X47717256Y-68175500D01*
X47852271Y-68175500D01*
X47910462Y-68194407D01*
X47946426Y-68243907D01*
X47946426Y-68305093D01*
X47934587Y-68329501D01*
X47819058Y-68502402D01*
X47739869Y-68693581D01*
X47699500Y-68896532D01*
X47699500Y-69103467D01*
X47739869Y-69306418D01*
X47819058Y-69497597D01*
X47934587Y-69670499D01*
X47951195Y-69729387D01*
X47930017Y-69786791D01*
X47879143Y-69820783D01*
X47852271Y-69824500D01*
X47556018Y-69824500D01*
X47443982Y-69824500D01*
X47377748Y-69842247D01*
X47335758Y-69853498D01*
X47238739Y-69909513D01*
X46682748Y-70465504D01*
X46628231Y-70493281D01*
X46612744Y-70494500D01*
X41143956Y-70494500D01*
X41085765Y-70475593D01*
X41073952Y-70465504D01*
X24671669Y-54063221D01*
X24665117Y-54054891D01*
X24664594Y-54055315D01*
X24660514Y-54050265D01*
X24624714Y-54016221D01*
X24622934Y-54014485D01*
X24587962Y-53979514D01*
X24583701Y-53976244D01*
X24579328Y-53973060D01*
X24535916Y-53949430D01*
X24533747Y-53948213D01*
X24490939Y-53923498D01*
X24485992Y-53921448D01*
X24480922Y-53919496D01*
X24432877Y-53907907D01*
X24430470Y-53907294D01*
X24382719Y-53894500D01*
X24376283Y-53893653D01*
X24376370Y-53892990D01*
X24365844Y-53891739D01*
X24357736Y-53889783D01*
X24305602Y-53857756D01*
X24283855Y-53812859D01*
X24260130Y-53693580D01*
X24180941Y-53502402D01*
X24065977Y-53330345D01*
X23919655Y-53184023D01*
X23919651Y-53184020D01*
X23747597Y-53069058D01*
X23556418Y-52989869D01*
X23353467Y-52949500D01*
X23353465Y-52949500D01*
X22646535Y-52949500D01*
X22646532Y-52949500D01*
X22443581Y-52989869D01*
X22252402Y-53069058D01*
X22080348Y-53184020D01*
X21934020Y-53330348D01*
X21819058Y-53502402D01*
X21739869Y-53693581D01*
X21699500Y-53896532D01*
X21699500Y-54103467D01*
X21739869Y-54306418D01*
X21819058Y-54497597D01*
X21819059Y-54497598D01*
X21934023Y-54669655D01*
X22080345Y-54815977D01*
X22252402Y-54930941D01*
X22443580Y-55010130D01*
X22646535Y-55050500D01*
X22646536Y-55050500D01*
X23353464Y-55050500D01*
X23353465Y-55050500D01*
X23556420Y-55010130D01*
X23747598Y-54930941D01*
X23919655Y-54815977D01*
X24000287Y-54735343D01*
X24054803Y-54707566D01*
X24115236Y-54717137D01*
X24140295Y-54735343D01*
X40665437Y-71260485D01*
X40665439Y-71260486D01*
X40762459Y-71316501D01*
X40762457Y-71316501D01*
X40762461Y-71316502D01*
X40762463Y-71316503D01*
X40870681Y-71345500D01*
X40870683Y-71345500D01*
X46886016Y-71345500D01*
X46886018Y-71345500D01*
X46994237Y-71316503D01*
X46994239Y-71316501D01*
X46994241Y-71316501D01*
X47063548Y-71276486D01*
X47091263Y-71260485D01*
X47647252Y-70704496D01*
X47701769Y-70676719D01*
X47717256Y-70675500D01*
X47852271Y-70675500D01*
X47910462Y-70694407D01*
X47946426Y-70743907D01*
X47946426Y-70805093D01*
X47934587Y-70829501D01*
X47819058Y-71002402D01*
X47739869Y-71193581D01*
X47699500Y-71396532D01*
X47699500Y-71603467D01*
X47739869Y-71806418D01*
X47819058Y-71997597D01*
X47934587Y-72170499D01*
X47951195Y-72229387D01*
X47930017Y-72286791D01*
X47879143Y-72320783D01*
X47852271Y-72324500D01*
X47340018Y-72324500D01*
X47227982Y-72324500D01*
X47161748Y-72342247D01*
X47119758Y-72353498D01*
X47022737Y-72409514D01*
X46752747Y-72679504D01*
X46698231Y-72707281D01*
X46682744Y-72708500D01*
X38277956Y-72708500D01*
X38219765Y-72689593D01*
X38207952Y-72679504D01*
X24633305Y-59104857D01*
X24631199Y-59102684D01*
X24598402Y-59067786D01*
X24598401Y-59067785D01*
X24598399Y-59067783D01*
X24593377Y-59063676D01*
X24593660Y-59063329D01*
X24593384Y-59063111D01*
X24593113Y-59063466D01*
X24587967Y-59059517D01*
X24546483Y-59035566D01*
X24543847Y-59033989D01*
X24503158Y-59008782D01*
X24497248Y-59006116D01*
X24497430Y-59005710D01*
X24497102Y-59005568D01*
X24496932Y-59005980D01*
X24490937Y-59003497D01*
X24444714Y-58991111D01*
X24441760Y-58990270D01*
X24368243Y-58968104D01*
X24317988Y-58933204D01*
X24299724Y-58892633D01*
X24272449Y-58755514D01*
X24260130Y-58693580D01*
X24180941Y-58502402D01*
X24065977Y-58330345D01*
X23919655Y-58184023D01*
X23919651Y-58184020D01*
X23747597Y-58069058D01*
X23556418Y-57989869D01*
X23353467Y-57949500D01*
X23353465Y-57949500D01*
X22646535Y-57949500D01*
X22646532Y-57949500D01*
X22443581Y-57989869D01*
X22252402Y-58069058D01*
X22080348Y-58184020D01*
X21934020Y-58330348D01*
X21819058Y-58502402D01*
X21739869Y-58693581D01*
X21699500Y-58896532D01*
X21699500Y-59103467D01*
X21739869Y-59306418D01*
X21819058Y-59497597D01*
X21912017Y-59636721D01*
X21934023Y-59669655D01*
X22080345Y-59815977D01*
X22252402Y-59930941D01*
X22443580Y-60010130D01*
X22646535Y-60050500D01*
X22646536Y-60050500D01*
X23353464Y-60050500D01*
X23353465Y-60050500D01*
X23556420Y-60010130D01*
X23747598Y-59930941D01*
X23919655Y-59815977D01*
X23950220Y-59785411D01*
X24004734Y-59757635D01*
X24048797Y-59760630D01*
X24077633Y-59769324D01*
X24119057Y-59794105D01*
X37799637Y-73474685D01*
X37808375Y-73479730D01*
X37896659Y-73530701D01*
X37896657Y-73530701D01*
X37896661Y-73530702D01*
X37896663Y-73530703D01*
X38004882Y-73559700D01*
X38004884Y-73559700D01*
X38121878Y-73559700D01*
X38124928Y-73559500D01*
X46956016Y-73559500D01*
X46956018Y-73559500D01*
X47064237Y-73530503D01*
X47064239Y-73530501D01*
X47064241Y-73530501D01*
X47111473Y-73503231D01*
X47161263Y-73474485D01*
X47358091Y-73277657D01*
X47431253Y-73204496D01*
X47485769Y-73176719D01*
X47501256Y-73175500D01*
X47852271Y-73175500D01*
X47910462Y-73194407D01*
X47946426Y-73243907D01*
X47946426Y-73305093D01*
X47934587Y-73329501D01*
X47819058Y-73502402D01*
X47739869Y-73693581D01*
X47699500Y-73896532D01*
X47699500Y-74103467D01*
X47739869Y-74306418D01*
X47819058Y-74497597D01*
X47934587Y-74670499D01*
X47951195Y-74729387D01*
X47930017Y-74786791D01*
X47879143Y-74820783D01*
X47852271Y-74824500D01*
X47556018Y-74824500D01*
X47443982Y-74824500D01*
X47377748Y-74842247D01*
X47335758Y-74853498D01*
X47238739Y-74909513D01*
X46692748Y-75455504D01*
X46638231Y-75483281D01*
X46622744Y-75484500D01*
X27612256Y-75484500D01*
X27554065Y-75465593D01*
X27542252Y-75455504D01*
X25644496Y-73557748D01*
X25616719Y-73503231D01*
X25615500Y-73487744D01*
X25615500Y-73361008D01*
X25615499Y-73361004D01*
X25588580Y-73225672D01*
X25535775Y-73098189D01*
X25535774Y-73098187D01*
X25535771Y-73098182D01*
X25459114Y-72983458D01*
X25361541Y-72885885D01*
X25246817Y-72809228D01*
X25246806Y-72809222D01*
X25119328Y-72756420D01*
X24983995Y-72729500D01*
X24983993Y-72729500D01*
X24846007Y-72729500D01*
X24846004Y-72729500D01*
X24710672Y-72756420D01*
X24710670Y-72756420D01*
X24583193Y-72809222D01*
X24583182Y-72809228D01*
X24468458Y-72885885D01*
X24370885Y-72983458D01*
X24294228Y-73098182D01*
X24294222Y-73098193D01*
X24241420Y-73225670D01*
X24241417Y-73225680D01*
X24231078Y-73277657D01*
X24201181Y-73331041D01*
X24145616Y-73356656D01*
X24085606Y-73344718D01*
X24063981Y-73328349D01*
X23919655Y-73184023D01*
X23908724Y-73176719D01*
X23747597Y-73069058D01*
X23556418Y-72989869D01*
X23353467Y-72949500D01*
X23353465Y-72949500D01*
X22646535Y-72949500D01*
X22646532Y-72949500D01*
X22443581Y-72989869D01*
X22252402Y-73069058D01*
X22080348Y-73184020D01*
X21934020Y-73330348D01*
X21819058Y-73502402D01*
X21739869Y-73693581D01*
X21699500Y-73896532D01*
X21699500Y-74103467D01*
X21739869Y-74306418D01*
X21819058Y-74497597D01*
X21819059Y-74497598D01*
X21934023Y-74669655D01*
X22080345Y-74815977D01*
X22252402Y-74930941D01*
X22443580Y-75010130D01*
X22646535Y-75050500D01*
X22646536Y-75050500D01*
X23353464Y-75050500D01*
X23353465Y-75050500D01*
X23556420Y-75010130D01*
X23747598Y-74930941D01*
X23919655Y-74815977D01*
X24065977Y-74669655D01*
X24180941Y-74497598D01*
X24260130Y-74306420D01*
X24300500Y-74103465D01*
X24300500Y-74045164D01*
X24319407Y-73986973D01*
X24368907Y-73951009D01*
X24430093Y-73951009D01*
X24464040Y-73971811D01*
X24464689Y-73971021D01*
X24468458Y-73974114D01*
X24583182Y-74050771D01*
X24583193Y-74050777D01*
X24629627Y-74070010D01*
X24710672Y-74103580D01*
X24846007Y-74130500D01*
X24846008Y-74130500D01*
X24972744Y-74130500D01*
X25030935Y-74149407D01*
X25042748Y-74159496D01*
X27134237Y-76250985D01*
X27134239Y-76250986D01*
X27231259Y-76307001D01*
X27231257Y-76307001D01*
X27231261Y-76307002D01*
X27231263Y-76307003D01*
X27339482Y-76336000D01*
X27339484Y-76336000D01*
X27454178Y-76336000D01*
X27461806Y-76335500D01*
X46896016Y-76335500D01*
X46896018Y-76335500D01*
X47004237Y-76306503D01*
X47004239Y-76306501D01*
X47004241Y-76306501D01*
X47040778Y-76285406D01*
X47101263Y-76250485D01*
X47647252Y-75704496D01*
X47701769Y-75676719D01*
X47717256Y-75675500D01*
X47852271Y-75675500D01*
X47910462Y-75694407D01*
X47946426Y-75743907D01*
X47946426Y-75805093D01*
X47934587Y-75829501D01*
X47819058Y-76002402D01*
X47739869Y-76193581D01*
X47699500Y-76396532D01*
X47699500Y-76603467D01*
X47739869Y-76806418D01*
X47819058Y-76997597D01*
X47902800Y-77122926D01*
X47934023Y-77169655D01*
X48080345Y-77315977D01*
X48252402Y-77430941D01*
X48443580Y-77510130D01*
X48646535Y-77550500D01*
X48646536Y-77550500D01*
X49353464Y-77550500D01*
X49353465Y-77550500D01*
X49556420Y-77510130D01*
X49747598Y-77430941D01*
X49919655Y-77315977D01*
X50065977Y-77169655D01*
X50180941Y-76997598D01*
X50260130Y-76806420D01*
X50300500Y-76603465D01*
X50300500Y-76396535D01*
X50260130Y-76193580D01*
X50180941Y-76002402D01*
X50065977Y-75830345D01*
X50065976Y-75830344D01*
X50065413Y-75829501D01*
X50048805Y-75770613D01*
X50069983Y-75713209D01*
X50120857Y-75679217D01*
X50147729Y-75675500D01*
X50282744Y-75675500D01*
X50340935Y-75694407D01*
X50352748Y-75704496D01*
X50819515Y-76171263D01*
X50819514Y-76171263D01*
X50898737Y-76250485D01*
X50995759Y-76306501D01*
X50995757Y-76306501D01*
X50995761Y-76306502D01*
X50995763Y-76306503D01*
X51103982Y-76335500D01*
X57057444Y-76335500D01*
X57115635Y-76354407D01*
X57127448Y-76364496D01*
X58216813Y-77453860D01*
X58216815Y-77453863D01*
X58296037Y-77533085D01*
X58296039Y-77533086D01*
X58393059Y-77589101D01*
X58393057Y-77589101D01*
X58393061Y-77589102D01*
X58393063Y-77589103D01*
X58501281Y-77618100D01*
X58501282Y-77618100D01*
X78055839Y-77618100D01*
X78114030Y-77637007D01*
X78149994Y-77686507D01*
X78149994Y-77747693D01*
X78125844Y-77787101D01*
X78122447Y-77790499D01*
X78080346Y-77848447D01*
X78016002Y-77937008D01*
X77933788Y-78098362D01*
X77877828Y-78270593D01*
X77849500Y-78449450D01*
X77849500Y-78630549D01*
X77877828Y-78809406D01*
X77933788Y-78981637D01*
X77998846Y-79109321D01*
X78016004Y-79142994D01*
X78122447Y-79289501D01*
X78250499Y-79417553D01*
X78397006Y-79523996D01*
X78558361Y-79606211D01*
X78730591Y-79662171D01*
X78802136Y-79673502D01*
X78909451Y-79690500D01*
X78909454Y-79690500D01*
X79090549Y-79690500D01*
X79179977Y-79676335D01*
X79269409Y-79662171D01*
X79441639Y-79606211D01*
X79602994Y-79523996D01*
X79749501Y-79417553D01*
X79877553Y-79289501D01*
X79983996Y-79142994D01*
X80066211Y-78981639D01*
X80122171Y-78809409D01*
X80131740Y-78748993D01*
X80150500Y-78630549D01*
X80150500Y-78449450D01*
X80122171Y-78270593D01*
X80122171Y-78270591D01*
X80066211Y-78098361D01*
X79983996Y-77937006D01*
X79877553Y-77790499D01*
X79874155Y-77787101D01*
X79846380Y-77732587D01*
X79855951Y-77672155D01*
X79899216Y-77628890D01*
X79944161Y-77618100D01*
X98776316Y-77618100D01*
X98776318Y-77618100D01*
X98884537Y-77589103D01*
X98884539Y-77589101D01*
X98884541Y-77589101D01*
X98951399Y-77550500D01*
X98981563Y-77533085D01*
X99927787Y-76586859D01*
X99982302Y-76559084D01*
X100042734Y-76568655D01*
X100085997Y-76611916D01*
X100089602Y-76618991D01*
X100089604Y-76618994D01*
X100196047Y-76765501D01*
X100324099Y-76893553D01*
X100470606Y-76999996D01*
X100631961Y-77082211D01*
X100643083Y-77085824D01*
X100646583Y-77086962D01*
X100696083Y-77122926D01*
X100714991Y-77181116D01*
X100696084Y-77239307D01*
X100646585Y-77275271D01*
X100646584Y-77275272D01*
X100555384Y-77304904D01*
X100366047Y-77401375D01*
X100194135Y-77526277D01*
X100043877Y-77676535D01*
X99918975Y-77848447D01*
X99822504Y-78037784D01*
X99756841Y-78239877D01*
X99746368Y-78305999D01*
X99746369Y-78306000D01*
X100640588Y-78306000D01*
X100607675Y-78363007D01*
X100573600Y-78490174D01*
X100573600Y-78621826D01*
X100607675Y-78748993D01*
X100640588Y-78806000D01*
X99746369Y-78806000D01*
X99756841Y-78872122D01*
X99822504Y-79074215D01*
X99918975Y-79263552D01*
X100043877Y-79435464D01*
X100194135Y-79585722D01*
X100366047Y-79710624D01*
X100555384Y-79807095D01*
X100757477Y-79872758D01*
X100823599Y-79883231D01*
X100823600Y-79883230D01*
X100823600Y-78989012D01*
X100880607Y-79021925D01*
X101007774Y-79056000D01*
X101139426Y-79056000D01*
X101266593Y-79021925D01*
X101323600Y-78989012D01*
X101323600Y-79883231D01*
X101389722Y-79872758D01*
X101591815Y-79807095D01*
X101781152Y-79710624D01*
X101953064Y-79585722D01*
X102103322Y-79435464D01*
X102228224Y-79263552D01*
X102324695Y-79074215D01*
X102390358Y-78872122D01*
X102400831Y-78806000D01*
X101506612Y-78806000D01*
X101539525Y-78748993D01*
X101573600Y-78621826D01*
X101573600Y-78490174D01*
X101539525Y-78363007D01*
X101506612Y-78306000D01*
X102400831Y-78306000D01*
X102400831Y-78305999D01*
X102390358Y-78239877D01*
X102324695Y-78037784D01*
X102228224Y-77848447D01*
X102103322Y-77676535D01*
X101953064Y-77526277D01*
X101781152Y-77401375D01*
X101591815Y-77304904D01*
X101500615Y-77275272D01*
X101451115Y-77239308D01*
X101432208Y-77181117D01*
X101451115Y-77122926D01*
X101500613Y-77086962D01*
X101500617Y-77086962D01*
X101500618Y-77086962D01*
X101515233Y-77082213D01*
X101515233Y-77082212D01*
X101515239Y-77082211D01*
X101676594Y-76999996D01*
X101823101Y-76893553D01*
X101951153Y-76765501D01*
X102057596Y-76618994D01*
X102139811Y-76457639D01*
X102195771Y-76285409D01*
X102224100Y-76106546D01*
X102224100Y-75925454D01*
X102224100Y-75925450D01*
X102199576Y-75770613D01*
X102195771Y-75746591D01*
X102139811Y-75574361D01*
X102057596Y-75413006D01*
X101951153Y-75266499D01*
X101823101Y-75138447D01*
X101676594Y-75032004D01*
X101676593Y-75032003D01*
X101676591Y-75032002D01*
X101515237Y-74949788D01*
X101343006Y-74893828D01*
X101164149Y-74865500D01*
X101164146Y-74865500D01*
X100983054Y-74865500D01*
X100983051Y-74865500D01*
X100804193Y-74893828D01*
X100631962Y-74949788D01*
X100470608Y-75032002D01*
X100397352Y-75085225D01*
X100324099Y-75138447D01*
X100196047Y-75266499D01*
X100160449Y-75315496D01*
X100089602Y-75413008D01*
X100053797Y-75483281D01*
X100026707Y-75536446D01*
X99983444Y-75579710D01*
X99938499Y-75590500D01*
X99840882Y-75590500D01*
X99774648Y-75608247D01*
X99732658Y-75619498D01*
X99635639Y-75675513D01*
X98573048Y-76738104D01*
X98518531Y-76765881D01*
X98503044Y-76767100D01*
X80059065Y-76767100D01*
X80000874Y-76748193D01*
X79964910Y-76698693D01*
X79964910Y-76637507D01*
X79978971Y-76609912D01*
X79983990Y-76603002D01*
X79983996Y-76602994D01*
X80066211Y-76441639D01*
X80122171Y-76269409D01*
X80137716Y-76171263D01*
X80150500Y-76090549D01*
X80150500Y-75909450D01*
X80122171Y-75730593D01*
X80122171Y-75730591D01*
X80066211Y-75558361D01*
X79983996Y-75397006D01*
X79877553Y-75250499D01*
X79874255Y-75247201D01*
X79846480Y-75192687D01*
X79856051Y-75132255D01*
X79899316Y-75088990D01*
X79944261Y-75078200D01*
X98776216Y-75078200D01*
X98776218Y-75078200D01*
X98884437Y-75049203D01*
X98884439Y-75049201D01*
X98884441Y-75049201D01*
X98952113Y-75010130D01*
X98981463Y-74993185D01*
X99927787Y-74046859D01*
X99982302Y-74019084D01*
X100042734Y-74028655D01*
X100085997Y-74071916D01*
X100089602Y-74078991D01*
X100089604Y-74078994D01*
X100196047Y-74225501D01*
X100324099Y-74353553D01*
X100470606Y-74459996D01*
X100631961Y-74542211D01*
X100804191Y-74598171D01*
X100875736Y-74609502D01*
X100983051Y-74626500D01*
X100983054Y-74626500D01*
X101164149Y-74626500D01*
X101253577Y-74612335D01*
X101343009Y-74598171D01*
X101515239Y-74542211D01*
X101676594Y-74459996D01*
X101823101Y-74353553D01*
X101951153Y-74225501D01*
X102057596Y-74078994D01*
X102139811Y-73917639D01*
X102195771Y-73745409D01*
X102209935Y-73655977D01*
X102224100Y-73566549D01*
X102224100Y-73385450D01*
X102198793Y-73225670D01*
X102195771Y-73206591D01*
X102139811Y-73034361D01*
X102057596Y-72873006D01*
X101951153Y-72726499D01*
X101823101Y-72598447D01*
X101676594Y-72492004D01*
X101676593Y-72492003D01*
X101676591Y-72492002D01*
X101515237Y-72409788D01*
X101343006Y-72353828D01*
X101164149Y-72325500D01*
X101164146Y-72325500D01*
X100983054Y-72325500D01*
X100983051Y-72325500D01*
X100804193Y-72353828D01*
X100631962Y-72409788D01*
X100470608Y-72492002D01*
X100397352Y-72545225D01*
X100324099Y-72598447D01*
X100196047Y-72726499D01*
X100167610Y-72765640D01*
X100089602Y-72873008D01*
X100053129Y-72944590D01*
X100026707Y-72996446D01*
X99983444Y-73039710D01*
X99938499Y-73050500D01*
X99840882Y-73050500D01*
X99774648Y-73068247D01*
X99732658Y-73079498D01*
X99635639Y-73135513D01*
X98572948Y-74198204D01*
X98518431Y-74225981D01*
X98502944Y-74227200D01*
X80058992Y-74227200D01*
X80000801Y-74208293D01*
X79964837Y-74158793D01*
X79964837Y-74097607D01*
X79978899Y-74070010D01*
X79980555Y-74067729D01*
X79983996Y-74062994D01*
X80066211Y-73901639D01*
X80122171Y-73729409D01*
X80137230Y-73634328D01*
X80150500Y-73550549D01*
X80150500Y-73369450D01*
X80130615Y-73243907D01*
X80122171Y-73190591D01*
X80066211Y-73018361D01*
X79983996Y-72857006D01*
X79877553Y-72710499D01*
X79749501Y-72582447D01*
X79602994Y-72476004D01*
X79602993Y-72476003D01*
X79602991Y-72476002D01*
X79441637Y-72393788D01*
X79269406Y-72337828D01*
X79090549Y-72309500D01*
X79090546Y-72309500D01*
X78909454Y-72309500D01*
X78909451Y-72309500D01*
X78730593Y-72337828D01*
X78558362Y-72393788D01*
X78397008Y-72476002D01*
X78350035Y-72510130D01*
X78250499Y-72582447D01*
X78122447Y-72710499D01*
X78108642Y-72729500D01*
X78016002Y-72857008D01*
X77933788Y-73018362D01*
X77877828Y-73190593D01*
X77849500Y-73369450D01*
X77849500Y-73550549D01*
X77877828Y-73729406D01*
X77933788Y-73901637D01*
X78016003Y-74062993D01*
X78016006Y-74062997D01*
X78021101Y-74070010D01*
X78040008Y-74128201D01*
X78021100Y-74186391D01*
X77971600Y-74222355D01*
X77941008Y-74227200D01*
X72877019Y-74227200D01*
X72764982Y-74227200D01*
X72698748Y-74244947D01*
X72656758Y-74256198D01*
X72559739Y-74312213D01*
X71900848Y-74971104D01*
X71846331Y-74998881D01*
X71830844Y-75000100D01*
X67387053Y-75000100D01*
X67328862Y-74981193D01*
X67292898Y-74931693D01*
X67291441Y-74888144D01*
X67289120Y-74887866D01*
X67293247Y-74853497D01*
X67300500Y-74793102D01*
X67300500Y-73206898D01*
X67289877Y-73118436D01*
X67239177Y-72989870D01*
X67234362Y-72977660D01*
X67234361Y-72977659D01*
X67234361Y-72977658D01*
X67142922Y-72857078D01*
X67022342Y-72765639D01*
X67022341Y-72765638D01*
X67022339Y-72765637D01*
X66881565Y-72710123D01*
X66793106Y-72699500D01*
X66793102Y-72699500D01*
X65206898Y-72699500D01*
X65206893Y-72699500D01*
X65118434Y-72710123D01*
X64977660Y-72765637D01*
X64977656Y-72765640D01*
X64857081Y-72857075D01*
X64857075Y-72857081D01*
X64765640Y-72977656D01*
X64765637Y-72977660D01*
X64710123Y-73118434D01*
X64699500Y-73206893D01*
X64699500Y-74793106D01*
X64710880Y-74887866D01*
X64708177Y-74888190D01*
X64704847Y-74937917D01*
X64665655Y-74984902D01*
X64612947Y-75000100D01*
X53198056Y-75000100D01*
X53139865Y-74981193D01*
X53128052Y-74971104D01*
X50946843Y-72789895D01*
X50945224Y-72788475D01*
X50566262Y-72409514D01*
X50469240Y-72353498D01*
X50469242Y-72353498D01*
X50427251Y-72342247D01*
X50361018Y-72324500D01*
X50361016Y-72324500D01*
X50147729Y-72324500D01*
X50089538Y-72305593D01*
X50053574Y-72256093D01*
X50053574Y-72194907D01*
X50065413Y-72170499D01*
X50121539Y-72086500D01*
X50180941Y-71997598D01*
X50260130Y-71806420D01*
X50300500Y-71603465D01*
X50300500Y-71396535D01*
X50260130Y-71193580D01*
X50180941Y-71002402D01*
X50065977Y-70830345D01*
X50065976Y-70830344D01*
X50065413Y-70829501D01*
X50048805Y-70770613D01*
X50069983Y-70713209D01*
X50120857Y-70679217D01*
X50147729Y-70675500D01*
X50282744Y-70675500D01*
X50340935Y-70694407D01*
X50352748Y-70704496D01*
X50829515Y-71181263D01*
X50829514Y-71181263D01*
X50908737Y-71260485D01*
X51005759Y-71316501D01*
X51005757Y-71316501D01*
X51005761Y-71316502D01*
X51005763Y-71316503D01*
X51113982Y-71345500D01*
X77864899Y-71345500D01*
X77923090Y-71364407D01*
X77953107Y-71399552D01*
X78016004Y-71522994D01*
X78122447Y-71669501D01*
X78250499Y-71797553D01*
X78397006Y-71903996D01*
X78558361Y-71986211D01*
X78730591Y-72042171D01*
X78802136Y-72053502D01*
X78909451Y-72070500D01*
X78909454Y-72070500D01*
X79090549Y-72070500D01*
X79179977Y-72056335D01*
X79269409Y-72042171D01*
X79441639Y-71986211D01*
X79602994Y-71903996D01*
X79749501Y-71797553D01*
X79877553Y-71669501D01*
X79983996Y-71522994D01*
X80066211Y-71361639D01*
X80122171Y-71189409D01*
X80136335Y-71099977D01*
X80150500Y-71010549D01*
X80150500Y-70829450D01*
X80127466Y-70684023D01*
X80122171Y-70650591D01*
X80066211Y-70478361D01*
X79983996Y-70317006D01*
X79877553Y-70170499D01*
X79749501Y-70042447D01*
X79602994Y-69936004D01*
X79602993Y-69936003D01*
X79602991Y-69936002D01*
X79441637Y-69853788D01*
X79269406Y-69797828D01*
X79090549Y-69769500D01*
X79090546Y-69769500D01*
X78909454Y-69769500D01*
X78909451Y-69769500D01*
X78730593Y-69797828D01*
X78558362Y-69853788D01*
X78397008Y-69936002D01*
X78323752Y-69989225D01*
X78250499Y-70042447D01*
X78122447Y-70170499D01*
X78069225Y-70243752D01*
X78016002Y-70317008D01*
X77991479Y-70365138D01*
X77953107Y-70440446D01*
X77909844Y-70483710D01*
X77864899Y-70494500D01*
X51387256Y-70494500D01*
X51329065Y-70475593D01*
X51317252Y-70465504D01*
X51168754Y-70317006D01*
X50761263Y-69909515D01*
X50761260Y-69909513D01*
X50664240Y-69853498D01*
X50664242Y-69853498D01*
X50622251Y-69842247D01*
X50556018Y-69824500D01*
X50556016Y-69824500D01*
X50147729Y-69824500D01*
X50089538Y-69805593D01*
X50053574Y-69756093D01*
X50053574Y-69694907D01*
X50065413Y-69670499D01*
X50065980Y-69669651D01*
X50180941Y-69497598D01*
X50260130Y-69306420D01*
X50300500Y-69103465D01*
X50300500Y-68896535D01*
X50260130Y-68693580D01*
X50180941Y-68502402D01*
X50065977Y-68330345D01*
X50065976Y-68330344D01*
X50065413Y-68329501D01*
X50048805Y-68270613D01*
X50069983Y-68213209D01*
X50120857Y-68179217D01*
X50147729Y-68175500D01*
X50282744Y-68175500D01*
X50340935Y-68194407D01*
X50352748Y-68204496D01*
X50789515Y-68641263D01*
X50789514Y-68641263D01*
X50868737Y-68720485D01*
X50965759Y-68776501D01*
X50965757Y-68776501D01*
X50965761Y-68776502D01*
X50965763Y-68776503D01*
X51073982Y-68805500D01*
X77750501Y-68805500D01*
X77808692Y-68824407D01*
X77844656Y-68873907D01*
X77849501Y-68904500D01*
X77849501Y-69274863D01*
X77852414Y-69299990D01*
X77877756Y-69357385D01*
X77897794Y-69402765D01*
X77977235Y-69482206D01*
X78080009Y-69527585D01*
X78105135Y-69530500D01*
X79894864Y-69530499D01*
X79919991Y-69527585D01*
X80022765Y-69482206D01*
X80102206Y-69402765D01*
X80147585Y-69299991D01*
X80150500Y-69274865D01*
X80150499Y-67485136D01*
X80147585Y-67460009D01*
X80102206Y-67357235D01*
X80022765Y-67277794D01*
X79919991Y-67232415D01*
X79919990Y-67232414D01*
X79919988Y-67232414D01*
X79894868Y-67229500D01*
X78105139Y-67229500D01*
X78105136Y-67229501D01*
X78080009Y-67232414D01*
X77977235Y-67277794D01*
X77897794Y-67357235D01*
X77852414Y-67460011D01*
X77849500Y-67485130D01*
X77849500Y-67855500D01*
X77830593Y-67913691D01*
X77781093Y-67949655D01*
X77750500Y-67954500D01*
X51347256Y-67954500D01*
X51289065Y-67935593D01*
X51277252Y-67925504D01*
X51070968Y-67719220D01*
X50761263Y-67409515D01*
X50761260Y-67409513D01*
X50664240Y-67353498D01*
X50664242Y-67353498D01*
X50622251Y-67342247D01*
X50556018Y-67324500D01*
X50556016Y-67324500D01*
X50147729Y-67324500D01*
X50089538Y-67305593D01*
X50053574Y-67256093D01*
X50053574Y-67194907D01*
X50065413Y-67170499D01*
X50145927Y-67050000D01*
X50180941Y-66997598D01*
X50260130Y-66806420D01*
X50300500Y-66603465D01*
X50300500Y-66396535D01*
X50260130Y-66193580D01*
X50180941Y-66002402D01*
X50065977Y-65830345D01*
X49919655Y-65684023D01*
X49747598Y-65569059D01*
X49747599Y-65569059D01*
X49747597Y-65569058D01*
X49556418Y-65489869D01*
X49353467Y-65449500D01*
X49353465Y-65449500D01*
X48646535Y-65449500D01*
X48646532Y-65449500D01*
X48443581Y-65489869D01*
X48252402Y-65569058D01*
X48080348Y-65684020D01*
X47934020Y-65830348D01*
X47819058Y-66002402D01*
X47739869Y-66193581D01*
X47699500Y-66396532D01*
X47699500Y-66603467D01*
X47739869Y-66806418D01*
X47819058Y-66997597D01*
X47934587Y-67170499D01*
X47951195Y-67229387D01*
X47930017Y-67286791D01*
X47879143Y-67320783D01*
X47852271Y-67324500D01*
X47556019Y-67324500D01*
X47443982Y-67324500D01*
X47377748Y-67342247D01*
X47335758Y-67353498D01*
X47238739Y-67409513D01*
X46722748Y-67925504D01*
X46668231Y-67953281D01*
X46652744Y-67954500D01*
X41143956Y-67954500D01*
X41085765Y-67935593D01*
X41073952Y-67925504D01*
X24666280Y-51517832D01*
X24653334Y-51501868D01*
X24652642Y-51500805D01*
X24652641Y-51500804D01*
X24652640Y-51500802D01*
X24652639Y-51500801D01*
X24621467Y-51472815D01*
X24617602Y-51469154D01*
X24587963Y-51439515D01*
X24586854Y-51438875D01*
X24570219Y-51426805D01*
X24569278Y-51425961D01*
X24569275Y-51425958D01*
X24569273Y-51425957D01*
X24569272Y-51425956D01*
X24531921Y-51406993D01*
X24527240Y-51404456D01*
X24490937Y-51383497D01*
X24490931Y-51383494D01*
X24489694Y-51383163D01*
X24470519Y-51375818D01*
X24469377Y-51375239D01*
X24469374Y-51375238D01*
X24469367Y-51375236D01*
X24428364Y-51366581D01*
X24423199Y-51365346D01*
X24382718Y-51354500D01*
X24382715Y-51354500D01*
X24381444Y-51354500D01*
X24360991Y-51352364D01*
X24352580Y-51350588D01*
X24299551Y-51320067D01*
X24275935Y-51273038D01*
X24260130Y-51193581D01*
X24242046Y-51149923D01*
X24180941Y-51002402D01*
X24065977Y-50830345D01*
X23919655Y-50684023D01*
X23747598Y-50569059D01*
X23747599Y-50569059D01*
X23747597Y-50569058D01*
X23556418Y-50489869D01*
X23353467Y-50449500D01*
X23353465Y-50449500D01*
X22646535Y-50449500D01*
X22646532Y-50449500D01*
X22443581Y-50489869D01*
X22252402Y-50569058D01*
X22080348Y-50684020D01*
X21934020Y-50830348D01*
X21819058Y-51002402D01*
X21739869Y-51193581D01*
X21699500Y-51396532D01*
X20500500Y-51396532D01*
X20500500Y-48896532D01*
X21699500Y-48896532D01*
X21699500Y-49103467D01*
X21739869Y-49306418D01*
X21819058Y-49497597D01*
X21932627Y-49667566D01*
X21934023Y-49669655D01*
X22080345Y-49815977D01*
X22252402Y-49930941D01*
X22443580Y-50010130D01*
X22646535Y-50050500D01*
X22646536Y-50050500D01*
X23353464Y-50050500D01*
X23353465Y-50050500D01*
X23556420Y-50010130D01*
X23747598Y-49930941D01*
X23919655Y-49815977D01*
X24040289Y-49695342D01*
X24094804Y-49667566D01*
X24155236Y-49677137D01*
X24180295Y-49695343D01*
X38035436Y-63550484D01*
X38035438Y-63550485D01*
X38035439Y-63550486D01*
X38035440Y-63550487D01*
X38132459Y-63606501D01*
X38132457Y-63606501D01*
X38132461Y-63606502D01*
X38132463Y-63606503D01*
X38240681Y-63635500D01*
X38240683Y-63635500D01*
X47096016Y-63635500D01*
X47096018Y-63635500D01*
X47204237Y-63606503D01*
X47204239Y-63606501D01*
X47204241Y-63606501D01*
X47301258Y-63550488D01*
X47301258Y-63550487D01*
X47301263Y-63550485D01*
X47647250Y-63204496D01*
X47701767Y-63176719D01*
X47717254Y-63175500D01*
X47852271Y-63175500D01*
X47910462Y-63194407D01*
X47946426Y-63243907D01*
X47946426Y-63305093D01*
X47934587Y-63329501D01*
X47819058Y-63502402D01*
X47739869Y-63693581D01*
X47699500Y-63896532D01*
X47699500Y-64103467D01*
X47739869Y-64306418D01*
X47819058Y-64497597D01*
X47819059Y-64497598D01*
X47934023Y-64669655D01*
X48080345Y-64815977D01*
X48252402Y-64930941D01*
X48443580Y-65010130D01*
X48646535Y-65050500D01*
X48646536Y-65050500D01*
X49353464Y-65050500D01*
X49353465Y-65050500D01*
X49556420Y-65010130D01*
X49747598Y-64930941D01*
X49919655Y-64815977D01*
X50065977Y-64669655D01*
X50180941Y-64497598D01*
X50260130Y-64306420D01*
X50300500Y-64103465D01*
X50300500Y-63896535D01*
X50260130Y-63693580D01*
X50180941Y-63502402D01*
X50065977Y-63330345D01*
X50065976Y-63330344D01*
X50065413Y-63329501D01*
X50048805Y-63270613D01*
X50069983Y-63213209D01*
X50120857Y-63179217D01*
X50147729Y-63175500D01*
X50282745Y-63175500D01*
X50340936Y-63194407D01*
X50352748Y-63204496D01*
X50616052Y-63467799D01*
X50616057Y-63467805D01*
X50616058Y-63467805D01*
X50619513Y-63471260D01*
X50619515Y-63471263D01*
X50698737Y-63550485D01*
X50698742Y-63550488D01*
X50779530Y-63597132D01*
X50779539Y-63597135D01*
X50779541Y-63597137D01*
X50792931Y-63604868D01*
X50795759Y-63606501D01*
X50795763Y-63606503D01*
X50903981Y-63635500D01*
X50903982Y-63635500D01*
X91953644Y-63635500D01*
X92011835Y-63654407D01*
X92023648Y-63664496D01*
X99635637Y-71276485D01*
X99635639Y-71276486D01*
X99732659Y-71332501D01*
X99732657Y-71332501D01*
X99732661Y-71332502D01*
X99732663Y-71332503D01*
X99840882Y-71361500D01*
X99938499Y-71361500D01*
X99996690Y-71380407D01*
X100026707Y-71415552D01*
X100064518Y-71489762D01*
X100081451Y-71522994D01*
X100089604Y-71538994D01*
X100196047Y-71685501D01*
X100324099Y-71813553D01*
X100470606Y-71919996D01*
X100631961Y-72002211D01*
X100804191Y-72058171D01*
X100875736Y-72069502D01*
X100983051Y-72086500D01*
X100983054Y-72086500D01*
X101164149Y-72086500D01*
X101265166Y-72070500D01*
X101343009Y-72058171D01*
X101515239Y-72002211D01*
X101676594Y-71919996D01*
X101823101Y-71813553D01*
X101951153Y-71685501D01*
X102057596Y-71538994D01*
X102139811Y-71377639D01*
X102195771Y-71205409D01*
X102224100Y-71026546D01*
X102224100Y-70845454D01*
X102224100Y-70845450D01*
X102205214Y-70726212D01*
X102195771Y-70666591D01*
X102139811Y-70494361D01*
X102057596Y-70333006D01*
X101951153Y-70186499D01*
X101823101Y-70058447D01*
X101676594Y-69952004D01*
X101676593Y-69952003D01*
X101676591Y-69952002D01*
X101515237Y-69869788D01*
X101343006Y-69813828D01*
X101164149Y-69785500D01*
X101164146Y-69785500D01*
X100983054Y-69785500D01*
X100983051Y-69785500D01*
X100804193Y-69813828D01*
X100631962Y-69869788D01*
X100470608Y-69952002D01*
X100397352Y-70005225D01*
X100324099Y-70058447D01*
X100196047Y-70186499D01*
X100125085Y-70284170D01*
X100089603Y-70333007D01*
X100085996Y-70340086D01*
X100042728Y-70383347D01*
X99982295Y-70392914D01*
X99927786Y-70365138D01*
X97868098Y-68305450D01*
X99923100Y-68305450D01*
X99923100Y-68486549D01*
X99951428Y-68665406D01*
X100007388Y-68837637D01*
X100041456Y-68904500D01*
X100089604Y-68998994D01*
X100196047Y-69145501D01*
X100324099Y-69273553D01*
X100470606Y-69379996D01*
X100631961Y-69462211D01*
X100804191Y-69518171D01*
X100863629Y-69527585D01*
X100983051Y-69546500D01*
X100983054Y-69546500D01*
X101164149Y-69546500D01*
X101265166Y-69530500D01*
X101343009Y-69518171D01*
X101515239Y-69462211D01*
X101676594Y-69379996D01*
X101823101Y-69273553D01*
X101951153Y-69145501D01*
X102057596Y-68998994D01*
X102139811Y-68837639D01*
X102195771Y-68665409D01*
X102224100Y-68486546D01*
X102224100Y-68305454D01*
X102224100Y-68305450D01*
X102195771Y-68126593D01*
X102195771Y-68126591D01*
X102139811Y-67954361D01*
X102057596Y-67793006D01*
X101951153Y-67646499D01*
X101823101Y-67518447D01*
X101676594Y-67412004D01*
X101676593Y-67412003D01*
X101676591Y-67412002D01*
X101515237Y-67329788D01*
X101343006Y-67273828D01*
X101164149Y-67245500D01*
X101164146Y-67245500D01*
X100983054Y-67245500D01*
X100983051Y-67245500D01*
X100804193Y-67273828D01*
X100631962Y-67329788D01*
X100470608Y-67412002D01*
X100413560Y-67453450D01*
X100324099Y-67518447D01*
X100196047Y-67646499D01*
X100187384Y-67658423D01*
X100089602Y-67793008D01*
X100007388Y-67954362D01*
X99951428Y-68126593D01*
X99923100Y-68305450D01*
X97868098Y-68305450D01*
X94523778Y-64961130D01*
X99923100Y-64961130D01*
X99923100Y-66750860D01*
X99923101Y-66750863D01*
X99926014Y-66775990D01*
X99951356Y-66833385D01*
X99971394Y-66878765D01*
X100050835Y-66958206D01*
X100153609Y-67003585D01*
X100178735Y-67006500D01*
X101968464Y-67006499D01*
X101993591Y-67003585D01*
X102096365Y-66958206D01*
X102175806Y-66878765D01*
X102221185Y-66775991D01*
X102224100Y-66750865D01*
X102224099Y-64961136D01*
X102221185Y-64936009D01*
X102175806Y-64833235D01*
X102096365Y-64753794D01*
X101993591Y-64708415D01*
X101993590Y-64708414D01*
X101993588Y-64708414D01*
X101968468Y-64705500D01*
X100178739Y-64705500D01*
X100178736Y-64705501D01*
X100153609Y-64708414D01*
X100050835Y-64753794D01*
X99971394Y-64833235D01*
X99926014Y-64936011D01*
X99923100Y-64961130D01*
X94523778Y-64961130D01*
X92516412Y-62953764D01*
X92515709Y-62952962D01*
X92511486Y-62948739D01*
X92511485Y-62948737D01*
X92432263Y-62869515D01*
X92432260Y-62869513D01*
X92335240Y-62813498D01*
X92335242Y-62813498D01*
X92293251Y-62802247D01*
X92227018Y-62784500D01*
X92227016Y-62784500D01*
X51177254Y-62784500D01*
X51119063Y-62765593D01*
X51107250Y-62755503D01*
X50761263Y-62409515D01*
X50761258Y-62409511D01*
X50664240Y-62353498D01*
X50664242Y-62353498D01*
X50622251Y-62342247D01*
X50556018Y-62324500D01*
X50556016Y-62324500D01*
X50147729Y-62324500D01*
X50089538Y-62305593D01*
X50053574Y-62256093D01*
X50053574Y-62194907D01*
X50065413Y-62170499D01*
X50137575Y-62062500D01*
X50180941Y-61997598D01*
X50260130Y-61806420D01*
X50300500Y-61603465D01*
X50300500Y-61396535D01*
X50260130Y-61193580D01*
X50180941Y-61002402D01*
X50109412Y-60895350D01*
X53937500Y-60895350D01*
X53937500Y-61104649D01*
X53978330Y-61309917D01*
X53978332Y-61309923D01*
X54058424Y-61503281D01*
X54125366Y-61603467D01*
X54174702Y-61677304D01*
X54322696Y-61825298D01*
X54496718Y-61941575D01*
X54690080Y-62021669D01*
X54895353Y-62062500D01*
X54895354Y-62062500D01*
X55104646Y-62062500D01*
X55104647Y-62062500D01*
X55309920Y-62021669D01*
X55503282Y-61941575D01*
X55677304Y-61825298D01*
X55825298Y-61677304D01*
X55941575Y-61503282D01*
X56021669Y-61309920D01*
X56062500Y-61104647D01*
X56062500Y-60895353D01*
X56021669Y-60690080D01*
X55941575Y-60496718D01*
X55825298Y-60322696D01*
X55677304Y-60174702D01*
X55503282Y-60058425D01*
X55503283Y-60058425D01*
X55503281Y-60058424D01*
X55309923Y-59978332D01*
X55309917Y-59978330D01*
X55104649Y-59937500D01*
X55104647Y-59937500D01*
X54895353Y-59937500D01*
X54895350Y-59937500D01*
X54690082Y-59978330D01*
X54690076Y-59978332D01*
X54496718Y-60058424D01*
X54322699Y-60174699D01*
X54174699Y-60322699D01*
X54058424Y-60496718D01*
X53978332Y-60690076D01*
X53978330Y-60690082D01*
X53937500Y-60895350D01*
X50109412Y-60895350D01*
X50065977Y-60830345D01*
X49919655Y-60684023D01*
X49747598Y-60569059D01*
X49747599Y-60569059D01*
X49747597Y-60569058D01*
X49556418Y-60489869D01*
X49353467Y-60449500D01*
X49353465Y-60449500D01*
X48646535Y-60449500D01*
X48646532Y-60449500D01*
X48443581Y-60489869D01*
X48252402Y-60569058D01*
X48080348Y-60684020D01*
X47934020Y-60830348D01*
X47819058Y-61002402D01*
X47739869Y-61193581D01*
X47699500Y-61396532D01*
X47699500Y-61603467D01*
X47739869Y-61806418D01*
X47819058Y-61997597D01*
X47934587Y-62170499D01*
X47951195Y-62229387D01*
X47930017Y-62286791D01*
X47879143Y-62320783D01*
X47852271Y-62324500D01*
X47556018Y-62324500D01*
X47443981Y-62324500D01*
X47346948Y-62350500D01*
X47346947Y-62350499D01*
X47335760Y-62353497D01*
X47335759Y-62353498D01*
X47238737Y-62409514D01*
X47159514Y-62488736D01*
X47159515Y-62488737D01*
X46892748Y-62755504D01*
X46838231Y-62783281D01*
X46822744Y-62784500D01*
X38513956Y-62784500D01*
X38455765Y-62765593D01*
X38443952Y-62755504D01*
X34584980Y-58896532D01*
X47699500Y-58896532D01*
X47699500Y-59103467D01*
X47739869Y-59306418D01*
X47819058Y-59497597D01*
X47912017Y-59636721D01*
X47934023Y-59669655D01*
X48080345Y-59815977D01*
X48252402Y-59930941D01*
X48443580Y-60010130D01*
X48646535Y-60050500D01*
X48646536Y-60050500D01*
X49353464Y-60050500D01*
X49353465Y-60050500D01*
X49556420Y-60010130D01*
X49747598Y-59930941D01*
X49919655Y-59815977D01*
X50065977Y-59669655D01*
X50113661Y-59598290D01*
X50161710Y-59560409D01*
X50206340Y-59554834D01*
X53664447Y-59918844D01*
X53679698Y-59921672D01*
X53693982Y-59925500D01*
X53722474Y-59925500D01*
X53732837Y-59926044D01*
X53736169Y-59926394D01*
X53761167Y-59929026D01*
X53771538Y-59927385D01*
X53775768Y-59926716D01*
X53791239Y-59925500D01*
X53806017Y-59925500D01*
X53806018Y-59925500D01*
X53833547Y-59918122D01*
X53843689Y-59915968D01*
X53871826Y-59911517D01*
X53885324Y-59905509D01*
X53899952Y-59900330D01*
X53914237Y-59896503D01*
X53938922Y-59882250D01*
X53948153Y-59877548D01*
X53974184Y-59865964D01*
X53985673Y-59856661D01*
X53998461Y-59847875D01*
X54011263Y-59840485D01*
X54031411Y-59820335D01*
X54039115Y-59813399D01*
X54061264Y-59795471D01*
X54069953Y-59783514D01*
X54080027Y-59771720D01*
X54090485Y-59761263D01*
X54104734Y-59736580D01*
X54110375Y-59727894D01*
X54127131Y-59704842D01*
X54132427Y-59691049D01*
X54139115Y-59677032D01*
X54141492Y-59672913D01*
X54146503Y-59664237D01*
X54153882Y-59636695D01*
X54157075Y-59626871D01*
X54167298Y-59600254D01*
X54167473Y-59598594D01*
X54167959Y-59597501D01*
X54168814Y-59593945D01*
X54169473Y-59594103D01*
X54192366Y-59542701D01*
X54245357Y-59512115D01*
X54306207Y-59518518D01*
X54324121Y-59528862D01*
X54338569Y-59539359D01*
X54515559Y-59629540D01*
X54704485Y-59690926D01*
X54900675Y-59722000D01*
X55099325Y-59722000D01*
X55295514Y-59690926D01*
X55484440Y-59629540D01*
X55661434Y-59539357D01*
X55698715Y-59512270D01*
X55129408Y-58942962D01*
X55192993Y-58925925D01*
X55307007Y-58860099D01*
X55400099Y-58767007D01*
X55465925Y-58652993D01*
X55482962Y-58589407D01*
X56052270Y-59158715D01*
X56079357Y-59121434D01*
X56169540Y-58944440D01*
X56230926Y-58755514D01*
X56262000Y-58559325D01*
X56262000Y-58360674D01*
X56230926Y-58164485D01*
X56169540Y-57975559D01*
X56079359Y-57798568D01*
X56079357Y-57798564D01*
X56052270Y-57761283D01*
X55482962Y-58330590D01*
X55465925Y-58267007D01*
X55400099Y-58152993D01*
X55307007Y-58059901D01*
X55192993Y-57994075D01*
X55129407Y-57977036D01*
X55698714Y-57407729D01*
X55661425Y-57380637D01*
X55484440Y-57290459D01*
X55295514Y-57229073D01*
X55099325Y-57198000D01*
X54900675Y-57198000D01*
X54704485Y-57229073D01*
X54515559Y-57290459D01*
X54338568Y-57380640D01*
X54338566Y-57380641D01*
X54332689Y-57384912D01*
X54274498Y-57403818D01*
X54216307Y-57384909D01*
X54180345Y-57335408D01*
X54175500Y-57304818D01*
X54175500Y-56832161D01*
X54194407Y-56773970D01*
X54243907Y-56738006D01*
X54305093Y-56738006D01*
X54329501Y-56749845D01*
X54496718Y-56861575D01*
X54690080Y-56941669D01*
X54895353Y-56982500D01*
X54895354Y-56982500D01*
X55104646Y-56982500D01*
X55104647Y-56982500D01*
X55309920Y-56941669D01*
X55503282Y-56861575D01*
X55677304Y-56745298D01*
X55825298Y-56597304D01*
X55941575Y-56423282D01*
X56021669Y-56229920D01*
X56062500Y-56024647D01*
X56062500Y-55815353D01*
X56021669Y-55610080D01*
X55941575Y-55416718D01*
X55825298Y-55242696D01*
X55677304Y-55094702D01*
X55677300Y-55094699D01*
X55503281Y-54978424D01*
X55309923Y-54898332D01*
X55309917Y-54898330D01*
X55104649Y-54857500D01*
X55104647Y-54857500D01*
X54895353Y-54857500D01*
X54895350Y-54857500D01*
X54690082Y-54898330D01*
X54690076Y-54898332D01*
X54496718Y-54978424D01*
X54329501Y-55090154D01*
X54270613Y-55106762D01*
X54213209Y-55085584D01*
X54179217Y-55034710D01*
X54175500Y-55007838D01*
X54175500Y-54292161D01*
X54194407Y-54233970D01*
X54243907Y-54198006D01*
X54305093Y-54198006D01*
X54329501Y-54209845D01*
X54496718Y-54321575D01*
X54690080Y-54401669D01*
X54895353Y-54442500D01*
X54895354Y-54442500D01*
X55104646Y-54442500D01*
X55104647Y-54442500D01*
X55309920Y-54401669D01*
X55503282Y-54321575D01*
X55677304Y-54205298D01*
X55825298Y-54057304D01*
X55941575Y-53883282D01*
X56021669Y-53689920D01*
X56062500Y-53484647D01*
X56062500Y-53275353D01*
X56021669Y-53070080D01*
X55941575Y-52876718D01*
X55825298Y-52702696D01*
X55677304Y-52554702D01*
X55677300Y-52554699D01*
X55503281Y-52438424D01*
X55309923Y-52358332D01*
X55309917Y-52358330D01*
X55104649Y-52317500D01*
X55104647Y-52317500D01*
X54895353Y-52317500D01*
X54895350Y-52317500D01*
X54690082Y-52358330D01*
X54690076Y-52358332D01*
X54496718Y-52438424D01*
X54329501Y-52550154D01*
X54270613Y-52566762D01*
X54213209Y-52545584D01*
X54179217Y-52494710D01*
X54175500Y-52467838D01*
X54175500Y-51752161D01*
X54194407Y-51693970D01*
X54243907Y-51658006D01*
X54305093Y-51658006D01*
X54329501Y-51669845D01*
X54496718Y-51781575D01*
X54690080Y-51861669D01*
X54895353Y-51902500D01*
X54895354Y-51902500D01*
X55104646Y-51902500D01*
X55104647Y-51902500D01*
X55309920Y-51861669D01*
X55503282Y-51781575D01*
X55677304Y-51665298D01*
X55825298Y-51517304D01*
X55941575Y-51343282D01*
X56021669Y-51149920D01*
X56062500Y-50944647D01*
X56062500Y-50735353D01*
X56021669Y-50530080D01*
X55941575Y-50336718D01*
X55825298Y-50162696D01*
X55677304Y-50014702D01*
X55677300Y-50014699D01*
X55503281Y-49898424D01*
X55309923Y-49818332D01*
X55309917Y-49818330D01*
X55104649Y-49777500D01*
X55104647Y-49777500D01*
X54895353Y-49777500D01*
X54895350Y-49777500D01*
X54690082Y-49818330D01*
X54690076Y-49818332D01*
X54496718Y-49898424D01*
X54329501Y-50010154D01*
X54270613Y-50026762D01*
X54213209Y-50005584D01*
X54179217Y-49954710D01*
X54175500Y-49927838D01*
X54175500Y-49212161D01*
X54194407Y-49153970D01*
X54243907Y-49118006D01*
X54305093Y-49118006D01*
X54329501Y-49129845D01*
X54496718Y-49241575D01*
X54690080Y-49321669D01*
X54895353Y-49362500D01*
X54895354Y-49362500D01*
X55104646Y-49362500D01*
X55104647Y-49362500D01*
X55309920Y-49321669D01*
X55503282Y-49241575D01*
X55677304Y-49125298D01*
X55825298Y-48977304D01*
X55941575Y-48803282D01*
X56021669Y-48609920D01*
X56062500Y-48404647D01*
X56062500Y-48195353D01*
X56021669Y-47990080D01*
X55941575Y-47796718D01*
X55825298Y-47622696D01*
X55677304Y-47474702D01*
X55677300Y-47474699D01*
X55503281Y-47358424D01*
X55309923Y-47278332D01*
X55309917Y-47278330D01*
X55104649Y-47237500D01*
X55104647Y-47237500D01*
X54895353Y-47237500D01*
X54895350Y-47237500D01*
X54690082Y-47278330D01*
X54690076Y-47278332D01*
X54496718Y-47358424D01*
X54329501Y-47470154D01*
X54270613Y-47486762D01*
X54213209Y-47465584D01*
X54179217Y-47414710D01*
X54175500Y-47387838D01*
X54175500Y-44132161D01*
X54194407Y-44073970D01*
X54243907Y-44038006D01*
X54305093Y-44038006D01*
X54329501Y-44049845D01*
X54365607Y-44073970D01*
X54496718Y-44161575D01*
X54690080Y-44241669D01*
X54895353Y-44282500D01*
X54895354Y-44282500D01*
X55104646Y-44282500D01*
X55104647Y-44282500D01*
X55309920Y-44241669D01*
X55503282Y-44161575D01*
X55677304Y-44045298D01*
X55825298Y-43897304D01*
X55941575Y-43723282D01*
X56021669Y-43529920D01*
X56062500Y-43324647D01*
X56062500Y-43115353D01*
X56021669Y-42910080D01*
X55941575Y-42716718D01*
X55825298Y-42542696D01*
X55677304Y-42394702D01*
X55677300Y-42394699D01*
X55503281Y-42278424D01*
X55309923Y-42198332D01*
X55309917Y-42198330D01*
X55104649Y-42157500D01*
X55104647Y-42157500D01*
X54895353Y-42157500D01*
X54895350Y-42157500D01*
X54690082Y-42198330D01*
X54690076Y-42198332D01*
X54496718Y-42278424D01*
X54329501Y-42390154D01*
X54270613Y-42406762D01*
X54213209Y-42385584D01*
X54179217Y-42334710D01*
X54175500Y-42307838D01*
X54175500Y-41774500D01*
X54194407Y-41716309D01*
X54243907Y-41680345D01*
X54274500Y-41675500D01*
X106226790Y-41675500D01*
X106284979Y-41694406D01*
X106370801Y-41756760D01*
X106539168Y-41842547D01*
X106718882Y-41900940D01*
X106718883Y-41900940D01*
X106718886Y-41900941D01*
X106726954Y-41902219D01*
X106781471Y-41929996D01*
X106809248Y-41984513D01*
X106799677Y-42044945D01*
X106756412Y-42088210D01*
X106726954Y-42097781D01*
X106718886Y-42099058D01*
X106539167Y-42157453D01*
X106370803Y-42243238D01*
X106217928Y-42354309D01*
X106084309Y-42487928D01*
X105973238Y-42640803D01*
X105887453Y-42809167D01*
X105829058Y-42988886D01*
X105799500Y-43175515D01*
X105799500Y-43364484D01*
X105829058Y-43551113D01*
X105887453Y-43730832D01*
X105971882Y-43896535D01*
X105973240Y-43899199D01*
X106084310Y-44052073D01*
X106217927Y-44185690D01*
X106370801Y-44296760D01*
X106370803Y-44296761D01*
X106455346Y-44339838D01*
X106498611Y-44383103D01*
X106508182Y-44443535D01*
X106480404Y-44498052D01*
X106455346Y-44516258D01*
X106266242Y-44612611D01*
X106087962Y-44742139D01*
X105932139Y-44897962D01*
X105802611Y-45076242D01*
X105702569Y-45272586D01*
X105634471Y-45482170D01*
X105622144Y-45559999D01*
X105622145Y-45560000D01*
X106566988Y-45560000D01*
X106534075Y-45617007D01*
X106500000Y-45744174D01*
X106500000Y-45875826D01*
X106534075Y-46002993D01*
X106566988Y-46060000D01*
X105622144Y-46060000D01*
X105634471Y-46137829D01*
X105702569Y-46347413D01*
X105802611Y-46543757D01*
X105932139Y-46722037D01*
X106087962Y-46877860D01*
X106266242Y-47007388D01*
X106462586Y-47107430D01*
X106672169Y-47175528D01*
X106749999Y-47187854D01*
X106750000Y-47187853D01*
X106750000Y-46243012D01*
X106807007Y-46275925D01*
X106934174Y-46310000D01*
X107065826Y-46310000D01*
X107192993Y-46275925D01*
X107250000Y-46243012D01*
X107250000Y-47187854D01*
X107327830Y-47175528D01*
X107537413Y-47107430D01*
X107733757Y-47007388D01*
X107912037Y-46877860D01*
X108067860Y-46722037D01*
X108197388Y-46543757D01*
X108297430Y-46347413D01*
X108365528Y-46137829D01*
X108377855Y-46060000D01*
X107433012Y-46060000D01*
X107465925Y-46002993D01*
X107500000Y-45875826D01*
X107500000Y-45744174D01*
X107465925Y-45617007D01*
X107433012Y-45560000D01*
X108377855Y-45560000D01*
X108377855Y-45559999D01*
X108365528Y-45482170D01*
X108297430Y-45272586D01*
X108197388Y-45076242D01*
X108067860Y-44897962D01*
X107912037Y-44742139D01*
X107733757Y-44612611D01*
X107544653Y-44516258D01*
X107501388Y-44472993D01*
X107491817Y-44412561D01*
X107519594Y-44358044D01*
X107544653Y-44339838D01*
X107629199Y-44296760D01*
X107782073Y-44185690D01*
X107915690Y-44052073D01*
X108026760Y-43899199D01*
X108112547Y-43730832D01*
X108170940Y-43551118D01*
X108174297Y-43529923D01*
X108200500Y-43364484D01*
X108200500Y-43175515D01*
X108170941Y-42988886D01*
X108145336Y-42910082D01*
X108112547Y-42809168D01*
X108026760Y-42640801D01*
X107915690Y-42487927D01*
X107782073Y-42354310D01*
X107629199Y-42243240D01*
X107629198Y-42243239D01*
X107629196Y-42243238D01*
X107460832Y-42157453D01*
X107281113Y-42099058D01*
X107273046Y-42097781D01*
X107218529Y-42070004D01*
X107190751Y-42015488D01*
X107200322Y-41955056D01*
X107243586Y-41911791D01*
X107273046Y-41902219D01*
X107281113Y-41900941D01*
X107281114Y-41900940D01*
X107281118Y-41900940D01*
X107460832Y-41842547D01*
X107629199Y-41756760D01*
X107782073Y-41645690D01*
X107915690Y-41512073D01*
X108026760Y-41359199D01*
X108112547Y-41190832D01*
X108170940Y-41011118D01*
X108170941Y-41011113D01*
X108200500Y-40824484D01*
X108200500Y-40635515D01*
X108170941Y-40448886D01*
X108170940Y-40448882D01*
X108112547Y-40269168D01*
X108026760Y-40100801D01*
X107915690Y-39947927D01*
X107782073Y-39814310D01*
X107629199Y-39703240D01*
X107629198Y-39703239D01*
X107629196Y-39703238D01*
X107460832Y-39617453D01*
X107356810Y-39583654D01*
X107307310Y-39547690D01*
X107288403Y-39489499D01*
X107307310Y-39431308D01*
X107356811Y-39395344D01*
X107387401Y-39390499D01*
X107944864Y-39390499D01*
X107969991Y-39387585D01*
X108072765Y-39342206D01*
X108152206Y-39262765D01*
X108197585Y-39159991D01*
X108200500Y-39134865D01*
X108200499Y-37245136D01*
X108197585Y-37220009D01*
X108152206Y-37117235D01*
X108072765Y-37037794D01*
X107969991Y-36992415D01*
X107969990Y-36992414D01*
X107969988Y-36992414D01*
X107944868Y-36989500D01*
X106055139Y-36989500D01*
X106055136Y-36989501D01*
X106030009Y-36992414D01*
X105927235Y-37037794D01*
X105847794Y-37117235D01*
X105802414Y-37220011D01*
X105799500Y-37245130D01*
X105799500Y-39134860D01*
X105799501Y-39134863D01*
X105802414Y-39159990D01*
X105827756Y-39217385D01*
X105847794Y-39262765D01*
X105927235Y-39342206D01*
X106030009Y-39387585D01*
X106055135Y-39390500D01*
X106612597Y-39390499D01*
X106670786Y-39409406D01*
X106706750Y-39458906D01*
X106706750Y-39520092D01*
X106670786Y-39569592D01*
X106643188Y-39583653D01*
X106539174Y-39617449D01*
X106539171Y-39617451D01*
X106370803Y-39703238D01*
X106217928Y-39814309D01*
X106084309Y-39947928D01*
X105973238Y-40100803D01*
X105887453Y-40269167D01*
X105829058Y-40448886D01*
X105799500Y-40635515D01*
X105799500Y-40725500D01*
X105780593Y-40783691D01*
X105731093Y-40819655D01*
X105700500Y-40824500D01*
X53806018Y-40824500D01*
X53693982Y-40824500D01*
X53627748Y-40842247D01*
X53585758Y-40853498D01*
X53488739Y-40909513D01*
X53409513Y-40988739D01*
X53353498Y-41085758D01*
X53353497Y-41085763D01*
X53324608Y-41193581D01*
X53324500Y-41193983D01*
X53324500Y-58917391D01*
X53305593Y-58975582D01*
X53256093Y-59011546D01*
X53215136Y-59015847D01*
X52980143Y-58991111D01*
X50323550Y-58711470D01*
X50267659Y-58686575D01*
X50242452Y-58650901D01*
X50180941Y-58502402D01*
X50065977Y-58330345D01*
X49919655Y-58184023D01*
X49919651Y-58184020D01*
X49747597Y-58069058D01*
X49556418Y-57989869D01*
X49353467Y-57949500D01*
X49353465Y-57949500D01*
X48646535Y-57949500D01*
X48646532Y-57949500D01*
X48443581Y-57989869D01*
X48252402Y-58069058D01*
X48080348Y-58184020D01*
X47934020Y-58330348D01*
X47819058Y-58502402D01*
X47739869Y-58693581D01*
X47699500Y-58896532D01*
X34584980Y-58896532D01*
X32084980Y-56396532D01*
X47699500Y-56396532D01*
X47699500Y-56603467D01*
X47739869Y-56806418D01*
X47819058Y-56997597D01*
X47819059Y-56997598D01*
X47934023Y-57169655D01*
X48080345Y-57315977D01*
X48252402Y-57430941D01*
X48443580Y-57510130D01*
X48646535Y-57550500D01*
X48646536Y-57550500D01*
X49353464Y-57550500D01*
X49353465Y-57550500D01*
X49556420Y-57510130D01*
X49747598Y-57430941D01*
X49919655Y-57315977D01*
X50065977Y-57169655D01*
X50180941Y-56997598D01*
X50260130Y-56806420D01*
X50300500Y-56603465D01*
X50300500Y-56396535D01*
X50260130Y-56193580D01*
X50180941Y-56002402D01*
X50065977Y-55830345D01*
X49919655Y-55684023D01*
X49747598Y-55569059D01*
X49747599Y-55569059D01*
X49747597Y-55569058D01*
X49556418Y-55489869D01*
X49353467Y-55449500D01*
X49353465Y-55449500D01*
X48646535Y-55449500D01*
X48646532Y-55449500D01*
X48443581Y-55489869D01*
X48252402Y-55569058D01*
X48080348Y-55684020D01*
X47934020Y-55830348D01*
X47819058Y-56002402D01*
X47739869Y-56193581D01*
X47699500Y-56396532D01*
X32084980Y-56396532D01*
X29584980Y-53896532D01*
X47699500Y-53896532D01*
X47699500Y-54103467D01*
X47739869Y-54306418D01*
X47819058Y-54497597D01*
X47819059Y-54497598D01*
X47934023Y-54669655D01*
X48080345Y-54815977D01*
X48252402Y-54930941D01*
X48443580Y-55010130D01*
X48646535Y-55050500D01*
X48646536Y-55050500D01*
X49353464Y-55050500D01*
X49353465Y-55050500D01*
X49556420Y-55010130D01*
X49747598Y-54930941D01*
X49919655Y-54815977D01*
X50065977Y-54669655D01*
X50180941Y-54497598D01*
X50260130Y-54306420D01*
X50300500Y-54103465D01*
X50300500Y-53896535D01*
X50260130Y-53693580D01*
X50180941Y-53502402D01*
X50065977Y-53330345D01*
X49919655Y-53184023D01*
X49919651Y-53184020D01*
X49747597Y-53069058D01*
X49556418Y-52989869D01*
X49353467Y-52949500D01*
X49353465Y-52949500D01*
X48646535Y-52949500D01*
X48646532Y-52949500D01*
X48443581Y-52989869D01*
X48252402Y-53069058D01*
X48080348Y-53184020D01*
X47934020Y-53330348D01*
X47819058Y-53502402D01*
X47739869Y-53693581D01*
X47699500Y-53896532D01*
X29584980Y-53896532D01*
X27084980Y-51396532D01*
X47699500Y-51396532D01*
X47699500Y-51603467D01*
X47739869Y-51806418D01*
X47819058Y-51997597D01*
X47819059Y-51997598D01*
X47934023Y-52169655D01*
X48080345Y-52315977D01*
X48252402Y-52430941D01*
X48443580Y-52510130D01*
X48646535Y-52550500D01*
X48646536Y-52550500D01*
X49353464Y-52550500D01*
X49353465Y-52550500D01*
X49556420Y-52510130D01*
X49747598Y-52430941D01*
X49919655Y-52315977D01*
X50065977Y-52169655D01*
X50180941Y-51997598D01*
X50260130Y-51806420D01*
X50300500Y-51603465D01*
X50300500Y-51396535D01*
X50260130Y-51193580D01*
X50180941Y-51002402D01*
X50065977Y-50830345D01*
X49919655Y-50684023D01*
X49747598Y-50569059D01*
X49747599Y-50569059D01*
X49747597Y-50569058D01*
X49556418Y-50489869D01*
X49353467Y-50449500D01*
X49353465Y-50449500D01*
X48646535Y-50449500D01*
X48646532Y-50449500D01*
X48443581Y-50489869D01*
X48252402Y-50569058D01*
X48080348Y-50684020D01*
X47934020Y-50830348D01*
X47819058Y-51002402D01*
X47739869Y-51193581D01*
X47699500Y-51396532D01*
X27084980Y-51396532D01*
X24664414Y-48975966D01*
X24654567Y-48966119D01*
X24644400Y-48951461D01*
X24615109Y-48926661D01*
X24587963Y-48899515D01*
X24572508Y-48890592D01*
X24558895Y-48879066D01*
X24526906Y-48863975D01*
X24526731Y-48863833D01*
X24520637Y-48860643D01*
X24490939Y-48843497D01*
X24490935Y-48843496D01*
X24482281Y-48841177D01*
X24465671Y-48835090D01*
X24457574Y-48831271D01*
X24457571Y-48831269D01*
X24457567Y-48831268D01*
X24457564Y-48831267D01*
X24457563Y-48831267D01*
X24423836Y-48825165D01*
X24415846Y-48823375D01*
X24382718Y-48814500D01*
X24382715Y-48814500D01*
X24373760Y-48814500D01*
X24356130Y-48812918D01*
X24347488Y-48811354D01*
X24293594Y-48782386D01*
X24276737Y-48749999D01*
X47524014Y-48749999D01*
X47524015Y-48750000D01*
X48509252Y-48750000D01*
X48487482Y-48787708D01*
X48450000Y-48927591D01*
X48450000Y-49072409D01*
X48487482Y-49212292D01*
X48509252Y-49250000D01*
X47524015Y-49250000D01*
X47530777Y-49292704D01*
X47591580Y-49479833D01*
X47680903Y-49655142D01*
X47680907Y-49655148D01*
X47796549Y-49814314D01*
X47935685Y-49953450D01*
X48094851Y-50069092D01*
X48094857Y-50069096D01*
X48270170Y-50158421D01*
X48270173Y-50158423D01*
X48457285Y-50219220D01*
X48457289Y-50219221D01*
X48651620Y-50250000D01*
X48749999Y-50250000D01*
X48750000Y-50249999D01*
X48750000Y-49490747D01*
X48787708Y-49512518D01*
X48927591Y-49550000D01*
X49072409Y-49550000D01*
X49212292Y-49512518D01*
X49250000Y-49490747D01*
X49250000Y-50249999D01*
X49250001Y-50250000D01*
X49348380Y-50250000D01*
X49542710Y-50219221D01*
X49542714Y-50219220D01*
X49729826Y-50158423D01*
X49729829Y-50158421D01*
X49905142Y-50069096D01*
X49905148Y-50069092D01*
X50064314Y-49953450D01*
X50203450Y-49814314D01*
X50319092Y-49655148D01*
X50319096Y-49655142D01*
X50408419Y-49479833D01*
X50469222Y-49292704D01*
X50475985Y-49250000D01*
X49490748Y-49250000D01*
X49512518Y-49212292D01*
X49550000Y-49072409D01*
X49550000Y-48927591D01*
X49512518Y-48787708D01*
X49490748Y-48750000D01*
X50475985Y-48750000D01*
X50475985Y-48749999D01*
X50469222Y-48707295D01*
X50408419Y-48520166D01*
X50319096Y-48344857D01*
X50319092Y-48344851D01*
X50203450Y-48185685D01*
X50064314Y-48046549D01*
X49905148Y-47930907D01*
X49905142Y-47930903D01*
X49729829Y-47841578D01*
X49729826Y-47841576D01*
X49542714Y-47780779D01*
X49542710Y-47780778D01*
X49348380Y-47750000D01*
X49250001Y-47750000D01*
X49250000Y-47750001D01*
X49250000Y-48509252D01*
X49212292Y-48487482D01*
X49072409Y-48450000D01*
X48927591Y-48450000D01*
X48787708Y-48487482D01*
X48750000Y-48509252D01*
X48750000Y-47750001D01*
X48749999Y-47750000D01*
X48651620Y-47750000D01*
X48457289Y-47780778D01*
X48457285Y-47780779D01*
X48270173Y-47841576D01*
X48270170Y-47841578D01*
X48094857Y-47930903D01*
X48094851Y-47930907D01*
X47935685Y-48046549D01*
X47796549Y-48185685D01*
X47680907Y-48344851D01*
X47680903Y-48344857D01*
X47591580Y-48520166D01*
X47530777Y-48707295D01*
X47524014Y-48749999D01*
X24276737Y-48749999D01*
X24268020Y-48733250D01*
X24260130Y-48693580D01*
X24180941Y-48502402D01*
X24065977Y-48330345D01*
X23919655Y-48184023D01*
X23747598Y-48069059D01*
X23747599Y-48069059D01*
X23747597Y-48069058D01*
X23556418Y-47989869D01*
X23353467Y-47949500D01*
X23353465Y-47949500D01*
X22646535Y-47949500D01*
X22646532Y-47949500D01*
X22443581Y-47989869D01*
X22252402Y-48069058D01*
X22080348Y-48184020D01*
X21934020Y-48330348D01*
X21819058Y-48502402D01*
X21739869Y-48693581D01*
X21699500Y-48896532D01*
X20500500Y-48896532D01*
X20500500Y-46396532D01*
X21699500Y-46396532D01*
X21699500Y-46603467D01*
X21739869Y-46806418D01*
X21819058Y-46997597D01*
X21819059Y-46997598D01*
X21934023Y-47169655D01*
X22080345Y-47315977D01*
X22252402Y-47430941D01*
X22443580Y-47510130D01*
X22646535Y-47550500D01*
X22646536Y-47550500D01*
X23353464Y-47550500D01*
X23353465Y-47550500D01*
X23556420Y-47510130D01*
X23747598Y-47430941D01*
X23919655Y-47315977D01*
X24065977Y-47169655D01*
X24180941Y-46997598D01*
X24260130Y-46806420D01*
X24300500Y-46603465D01*
X24300500Y-46396535D01*
X24300499Y-46396532D01*
X47699500Y-46396532D01*
X47699500Y-46603467D01*
X47739869Y-46806418D01*
X47819058Y-46997597D01*
X47819059Y-46997598D01*
X47934023Y-47169655D01*
X48080345Y-47315977D01*
X48252402Y-47430941D01*
X48443580Y-47510130D01*
X48646535Y-47550500D01*
X48646536Y-47550500D01*
X49353464Y-47550500D01*
X49353465Y-47550500D01*
X49556420Y-47510130D01*
X49747598Y-47430941D01*
X49919655Y-47315977D01*
X50065977Y-47169655D01*
X50180941Y-46997598D01*
X50260130Y-46806420D01*
X50300500Y-46603465D01*
X50300500Y-46396535D01*
X50260130Y-46193580D01*
X50180941Y-46002402D01*
X50065977Y-45830345D01*
X49919655Y-45684023D01*
X49747598Y-45569059D01*
X49747599Y-45569059D01*
X49747597Y-45569058D01*
X49556418Y-45489869D01*
X49353467Y-45449500D01*
X49353465Y-45449500D01*
X48646535Y-45449500D01*
X48646532Y-45449500D01*
X48443581Y-45489869D01*
X48252402Y-45569058D01*
X48080348Y-45684020D01*
X47934020Y-45830348D01*
X47819058Y-46002402D01*
X47739869Y-46193581D01*
X47699500Y-46396532D01*
X24300499Y-46396532D01*
X24260130Y-46193580D01*
X24180941Y-46002402D01*
X24065977Y-45830345D01*
X23919655Y-45684023D01*
X23747598Y-45569059D01*
X23747599Y-45569059D01*
X23747597Y-45569058D01*
X23556418Y-45489869D01*
X23353467Y-45449500D01*
X23353465Y-45449500D01*
X22646535Y-45449500D01*
X22646532Y-45449500D01*
X22443581Y-45489869D01*
X22252402Y-45569058D01*
X22080348Y-45684020D01*
X21934020Y-45830348D01*
X21819058Y-46002402D01*
X21739869Y-46193581D01*
X21699500Y-46396532D01*
X20500500Y-46396532D01*
X20500500Y-43896532D01*
X21699500Y-43896532D01*
X21699500Y-44103467D01*
X21739869Y-44306418D01*
X21819058Y-44497597D01*
X21934020Y-44669651D01*
X21934023Y-44669655D01*
X22080345Y-44815977D01*
X22252402Y-44930941D01*
X22443580Y-45010130D01*
X22646535Y-45050500D01*
X22646536Y-45050500D01*
X23353464Y-45050500D01*
X23353465Y-45050500D01*
X23556420Y-45010130D01*
X23747598Y-44930941D01*
X23919655Y-44815977D01*
X24065977Y-44669655D01*
X24180941Y-44497598D01*
X24260130Y-44306420D01*
X24300500Y-44103465D01*
X24300500Y-43896535D01*
X24300499Y-43896532D01*
X47699500Y-43896532D01*
X47699500Y-44103467D01*
X47739869Y-44306418D01*
X47819058Y-44497597D01*
X47934020Y-44669651D01*
X47934023Y-44669655D01*
X48080345Y-44815977D01*
X48252402Y-44930941D01*
X48443580Y-45010130D01*
X48646535Y-45050500D01*
X48646536Y-45050500D01*
X49353464Y-45050500D01*
X49353465Y-45050500D01*
X49556420Y-45010130D01*
X49747598Y-44930941D01*
X49919655Y-44815977D01*
X50065977Y-44669655D01*
X50180941Y-44497598D01*
X50260130Y-44306420D01*
X50300500Y-44103465D01*
X50300500Y-43896535D01*
X50260130Y-43693580D01*
X50180941Y-43502402D01*
X50065977Y-43330345D01*
X49919655Y-43184023D01*
X49816884Y-43115354D01*
X49747597Y-43069058D01*
X49556418Y-42989869D01*
X49353467Y-42949500D01*
X49353465Y-42949500D01*
X48646535Y-42949500D01*
X48646532Y-42949500D01*
X48443581Y-42989869D01*
X48252402Y-43069058D01*
X48080348Y-43184020D01*
X47934020Y-43330348D01*
X47819058Y-43502402D01*
X47739869Y-43693581D01*
X47699500Y-43896532D01*
X24300499Y-43896532D01*
X24260130Y-43693580D01*
X24180941Y-43502402D01*
X24065977Y-43330345D01*
X23919655Y-43184023D01*
X23816884Y-43115354D01*
X23747597Y-43069058D01*
X23556418Y-42989869D01*
X23353467Y-42949500D01*
X23353465Y-42949500D01*
X22646535Y-42949500D01*
X22646532Y-42949500D01*
X22443581Y-42989869D01*
X22252402Y-43069058D01*
X22080348Y-43184020D01*
X21934020Y-43330348D01*
X21819058Y-43502402D01*
X21739869Y-43693581D01*
X21699500Y-43896532D01*
X20500500Y-43896532D01*
X20500500Y-41396532D01*
X21699500Y-41396532D01*
X21699500Y-41603467D01*
X21739869Y-41806418D01*
X21819058Y-41997597D01*
X21886852Y-42099058D01*
X21934023Y-42169655D01*
X22080345Y-42315977D01*
X22252402Y-42430941D01*
X22443580Y-42510130D01*
X22646535Y-42550500D01*
X22646536Y-42550500D01*
X23353464Y-42550500D01*
X23353465Y-42550500D01*
X23556420Y-42510130D01*
X23747598Y-42430941D01*
X23919655Y-42315977D01*
X24065977Y-42169655D01*
X24180941Y-41997598D01*
X24260130Y-41806420D01*
X24300500Y-41603465D01*
X24300500Y-41396535D01*
X24300499Y-41396532D01*
X47699500Y-41396532D01*
X47699500Y-41603467D01*
X47739869Y-41806418D01*
X47819058Y-41997597D01*
X47886852Y-42099058D01*
X47934023Y-42169655D01*
X48080345Y-42315977D01*
X48252402Y-42430941D01*
X48443580Y-42510130D01*
X48646535Y-42550500D01*
X48646536Y-42550500D01*
X49353464Y-42550500D01*
X49353465Y-42550500D01*
X49556420Y-42510130D01*
X49747598Y-42430941D01*
X49919655Y-42315977D01*
X50065977Y-42169655D01*
X50180941Y-41997598D01*
X50260130Y-41806420D01*
X50300500Y-41603465D01*
X50300500Y-41396535D01*
X50260130Y-41193580D01*
X50180941Y-41002402D01*
X50065977Y-40830345D01*
X49919655Y-40684023D01*
X49919651Y-40684020D01*
X49747597Y-40569058D01*
X49556418Y-40489869D01*
X49353467Y-40449500D01*
X49353465Y-40449500D01*
X48646535Y-40449500D01*
X48646532Y-40449500D01*
X48443581Y-40489869D01*
X48252402Y-40569058D01*
X48080348Y-40684020D01*
X47934020Y-40830348D01*
X47819058Y-41002402D01*
X47739869Y-41193581D01*
X47699500Y-41396532D01*
X24300499Y-41396532D01*
X24260130Y-41193580D01*
X24180941Y-41002402D01*
X24065977Y-40830345D01*
X23919655Y-40684023D01*
X23919651Y-40684020D01*
X23747597Y-40569058D01*
X23556418Y-40489869D01*
X23353467Y-40449500D01*
X23353465Y-40449500D01*
X22646535Y-40449500D01*
X22646532Y-40449500D01*
X22443581Y-40489869D01*
X22252402Y-40569058D01*
X22080348Y-40684020D01*
X21934020Y-40830348D01*
X21819058Y-41002402D01*
X21739869Y-41193581D01*
X21699500Y-41396532D01*
X20500500Y-41396532D01*
X20500500Y-38896532D01*
X21699500Y-38896532D01*
X21699500Y-39103467D01*
X21739869Y-39306418D01*
X21819058Y-39497597D01*
X21899143Y-39617453D01*
X21934023Y-39669655D01*
X22080345Y-39815977D01*
X22252402Y-39930941D01*
X22443580Y-40010130D01*
X22646535Y-40050500D01*
X22646536Y-40050500D01*
X23353464Y-40050500D01*
X23353465Y-40050500D01*
X23556420Y-40010130D01*
X23747598Y-39930941D01*
X23919655Y-39815977D01*
X24065977Y-39669655D01*
X24180941Y-39497598D01*
X24260130Y-39306420D01*
X24300500Y-39103465D01*
X24300500Y-38896535D01*
X24300499Y-38896532D01*
X47699500Y-38896532D01*
X47699500Y-39103467D01*
X47739869Y-39306418D01*
X47819058Y-39497597D01*
X47899143Y-39617453D01*
X47934023Y-39669655D01*
X48080345Y-39815977D01*
X48252402Y-39930941D01*
X48443580Y-40010130D01*
X48646535Y-40050500D01*
X48646536Y-40050500D01*
X49353464Y-40050500D01*
X49353465Y-40050500D01*
X49556420Y-40010130D01*
X49747598Y-39930941D01*
X49919655Y-39815977D01*
X50065977Y-39669655D01*
X50180941Y-39497598D01*
X50260130Y-39306420D01*
X50300500Y-39103465D01*
X50300500Y-38896535D01*
X50260130Y-38693580D01*
X50180941Y-38502402D01*
X50065977Y-38330345D01*
X49919655Y-38184023D01*
X49747598Y-38069059D01*
X49747599Y-38069059D01*
X49747597Y-38069058D01*
X49556418Y-37989869D01*
X49353467Y-37949500D01*
X49353465Y-37949500D01*
X48646535Y-37949500D01*
X48646532Y-37949500D01*
X48443581Y-37989869D01*
X48252402Y-38069058D01*
X48080348Y-38184020D01*
X47934020Y-38330348D01*
X47819058Y-38502402D01*
X47739869Y-38693581D01*
X47699500Y-38896532D01*
X24300499Y-38896532D01*
X24260130Y-38693580D01*
X24180941Y-38502402D01*
X24065977Y-38330345D01*
X23919655Y-38184023D01*
X23747598Y-38069059D01*
X23747599Y-38069059D01*
X23747597Y-38069058D01*
X23556418Y-37989869D01*
X23353467Y-37949500D01*
X23353465Y-37949500D01*
X22646535Y-37949500D01*
X22646532Y-37949500D01*
X22443581Y-37989869D01*
X22252402Y-38069058D01*
X22080348Y-38184020D01*
X21934020Y-38330348D01*
X21819058Y-38502402D01*
X21739869Y-38693581D01*
X21699500Y-38896532D01*
X20500500Y-38896532D01*
X20500500Y-36396532D01*
X21699500Y-36396532D01*
X21699500Y-36603467D01*
X21739869Y-36806418D01*
X21819058Y-36997597D01*
X21819059Y-36997598D01*
X21934023Y-37169655D01*
X22080345Y-37315977D01*
X22252402Y-37430941D01*
X22443580Y-37510130D01*
X22646535Y-37550500D01*
X22646536Y-37550500D01*
X23353464Y-37550500D01*
X23353465Y-37550500D01*
X23556420Y-37510130D01*
X23747598Y-37430941D01*
X23919655Y-37315977D01*
X24065977Y-37169655D01*
X24180941Y-36997598D01*
X24260130Y-36806420D01*
X24300500Y-36603465D01*
X24300500Y-36396535D01*
X24300499Y-36396532D01*
X47699500Y-36396532D01*
X47699500Y-36603467D01*
X47739869Y-36806418D01*
X47819058Y-36997597D01*
X47819059Y-36997598D01*
X47934023Y-37169655D01*
X48080345Y-37315977D01*
X48252402Y-37430941D01*
X48443580Y-37510130D01*
X48646535Y-37550500D01*
X48646536Y-37550500D01*
X49353464Y-37550500D01*
X49353465Y-37550500D01*
X49556420Y-37510130D01*
X49747598Y-37430941D01*
X49919655Y-37315977D01*
X50065977Y-37169655D01*
X50180941Y-36997598D01*
X50260130Y-36806420D01*
X50300500Y-36603465D01*
X50300500Y-36396535D01*
X50260130Y-36193580D01*
X50180941Y-36002402D01*
X50065977Y-35830345D01*
X49919655Y-35684023D01*
X49747598Y-35569059D01*
X49747599Y-35569059D01*
X49747597Y-35569058D01*
X49556418Y-35489869D01*
X49353467Y-35449500D01*
X49353465Y-35449500D01*
X48646535Y-35449500D01*
X48646532Y-35449500D01*
X48443581Y-35489869D01*
X48252402Y-35569058D01*
X48080348Y-35684020D01*
X47934020Y-35830348D01*
X47819058Y-36002402D01*
X47739869Y-36193581D01*
X47699500Y-36396532D01*
X24300499Y-36396532D01*
X24260130Y-36193580D01*
X24180941Y-36002402D01*
X24065977Y-35830345D01*
X23919655Y-35684023D01*
X23747598Y-35569059D01*
X23747599Y-35569059D01*
X23747597Y-35569058D01*
X23556418Y-35489869D01*
X23353467Y-35449500D01*
X23353465Y-35449500D01*
X22646535Y-35449500D01*
X22646532Y-35449500D01*
X22443581Y-35489869D01*
X22252402Y-35569058D01*
X22080348Y-35684020D01*
X21934020Y-35830348D01*
X21819058Y-36002402D01*
X21739869Y-36193581D01*
X21699500Y-36396532D01*
X20500500Y-36396532D01*
X20500500Y-33205130D01*
X21699500Y-33205130D01*
X21699500Y-34794860D01*
X21699501Y-34794863D01*
X21702414Y-34819990D01*
X21727756Y-34877385D01*
X21747794Y-34922765D01*
X21827235Y-35002206D01*
X21930009Y-35047585D01*
X21955135Y-35050500D01*
X24044864Y-35050499D01*
X24069991Y-35047585D01*
X24172765Y-35002206D01*
X24252206Y-34922765D01*
X24297585Y-34819991D01*
X24300500Y-34794865D01*
X24300499Y-33749999D01*
X47524014Y-33749999D01*
X47524015Y-33750000D01*
X48509252Y-33750000D01*
X48487482Y-33787708D01*
X48450000Y-33927591D01*
X48450000Y-34072409D01*
X48487482Y-34212292D01*
X48509252Y-34250000D01*
X47524015Y-34250000D01*
X47530777Y-34292704D01*
X47591580Y-34479833D01*
X47680903Y-34655142D01*
X47680907Y-34655148D01*
X47796549Y-34814314D01*
X47935685Y-34953450D01*
X48094851Y-35069092D01*
X48094857Y-35069096D01*
X48270170Y-35158421D01*
X48270173Y-35158423D01*
X48457285Y-35219220D01*
X48457289Y-35219221D01*
X48651620Y-35250000D01*
X48749999Y-35250000D01*
X48750000Y-35249999D01*
X48750000Y-34490747D01*
X48787708Y-34512518D01*
X48927591Y-34550000D01*
X49072409Y-34550000D01*
X49212292Y-34512518D01*
X49250000Y-34490747D01*
X49250000Y-35249999D01*
X49250001Y-35250000D01*
X49348380Y-35250000D01*
X49542710Y-35219221D01*
X49542714Y-35219220D01*
X49729826Y-35158423D01*
X49729829Y-35158421D01*
X49905142Y-35069096D01*
X49905148Y-35069092D01*
X50064314Y-34953450D01*
X50203450Y-34814314D01*
X50319092Y-34655148D01*
X50319096Y-34655142D01*
X50408419Y-34479833D01*
X50469222Y-34292704D01*
X50475985Y-34250000D01*
X49490748Y-34250000D01*
X49512518Y-34212292D01*
X49550000Y-34072409D01*
X49550000Y-33927591D01*
X49512518Y-33787708D01*
X49490748Y-33750000D01*
X50475985Y-33750000D01*
X50475985Y-33749999D01*
X50469222Y-33707295D01*
X50408419Y-33520166D01*
X50319096Y-33344857D01*
X50319092Y-33344851D01*
X50203450Y-33185685D01*
X50064314Y-33046549D01*
X49905148Y-32930907D01*
X49905142Y-32930903D01*
X49729829Y-32841578D01*
X49729826Y-32841576D01*
X49542714Y-32780779D01*
X49542710Y-32780778D01*
X49348380Y-32750000D01*
X49250001Y-32750000D01*
X49250000Y-32750001D01*
X49250000Y-33509252D01*
X49212292Y-33487482D01*
X49072409Y-33450000D01*
X48927591Y-33450000D01*
X48787708Y-33487482D01*
X48750000Y-33509252D01*
X48750000Y-32750001D01*
X48749999Y-32750000D01*
X48651620Y-32750000D01*
X48457289Y-32780778D01*
X48457285Y-32780779D01*
X48270173Y-32841576D01*
X48270170Y-32841578D01*
X48094857Y-32930903D01*
X48094851Y-32930907D01*
X47935685Y-33046549D01*
X47796549Y-33185685D01*
X47680907Y-33344851D01*
X47680903Y-33344857D01*
X47591580Y-33520166D01*
X47530777Y-33707295D01*
X47524014Y-33749999D01*
X24300499Y-33749999D01*
X24300499Y-33205136D01*
X24297585Y-33180009D01*
X24252206Y-33077235D01*
X24172765Y-32997794D01*
X24069991Y-32952415D01*
X24069990Y-32952414D01*
X24069988Y-32952414D01*
X24044868Y-32949500D01*
X21955139Y-32949500D01*
X21955136Y-32949501D01*
X21930009Y-32952414D01*
X21827235Y-32997794D01*
X21747794Y-33077235D01*
X21702414Y-33180011D01*
X21699500Y-33205130D01*
X20500500Y-33205130D01*
X20500500Y-24878710D01*
X23149500Y-24878710D01*
X23149500Y-25121289D01*
X23181161Y-25361781D01*
X23181161Y-25361786D01*
X23243944Y-25596092D01*
X23243948Y-25596105D01*
X23336772Y-25820204D01*
X23336774Y-25820208D01*
X23336776Y-25820212D01*
X23420739Y-25965640D01*
X23458066Y-26030292D01*
X23605729Y-26222731D01*
X23605731Y-26222733D01*
X23605735Y-26222738D01*
X23777262Y-26394265D01*
X23777266Y-26394268D01*
X23777268Y-26394270D01*
X23969707Y-26541933D01*
X23969711Y-26541936D01*
X24179788Y-26663224D01*
X24403900Y-26756054D01*
X24638211Y-26818838D01*
X24878712Y-26850500D01*
X24878713Y-26850500D01*
X25121287Y-26850500D01*
X25121288Y-26850500D01*
X25361789Y-26818838D01*
X25596100Y-26756054D01*
X25820212Y-26663224D01*
X26030289Y-26541936D01*
X26222738Y-26394265D01*
X26394265Y-26222738D01*
X26541936Y-26030289D01*
X26663224Y-25820212D01*
X26756054Y-25596100D01*
X26818838Y-25361789D01*
X26850500Y-25121288D01*
X26850500Y-24878712D01*
X26818838Y-24638211D01*
X26756054Y-24403900D01*
X26663224Y-24179788D01*
X26541936Y-23969711D01*
X26394265Y-23777262D01*
X26222738Y-23605735D01*
X26222733Y-23605731D01*
X26222731Y-23605729D01*
X26030292Y-23458066D01*
X26030289Y-23458064D01*
X25820212Y-23336776D01*
X25820208Y-23336774D01*
X25820204Y-23336772D01*
X25596105Y-23243948D01*
X25596104Y-23243947D01*
X25596100Y-23243946D01*
X25361789Y-23181162D01*
X25361786Y-23181161D01*
X25361784Y-23181161D01*
X25121289Y-23149500D01*
X25121288Y-23149500D01*
X24878712Y-23149500D01*
X24878710Y-23149500D01*
X24638218Y-23181161D01*
X24638213Y-23181161D01*
X24403907Y-23243944D01*
X24403894Y-23243948D01*
X24179795Y-23336772D01*
X23969707Y-23458066D01*
X23777268Y-23605729D01*
X23605729Y-23777268D01*
X23458066Y-23969707D01*
X23336772Y-24179795D01*
X23243948Y-24403894D01*
X23243944Y-24403907D01*
X23181161Y-24638213D01*
X23181161Y-24638218D01*
X23149500Y-24878710D01*
X20500500Y-24878710D01*
X20500500Y-23002984D01*
X20500681Y-22997007D01*
X20518362Y-22704696D01*
X20518363Y-22704695D01*
X20518362Y-22704688D01*
X20519801Y-22692837D01*
X20572052Y-22407715D01*
X20574912Y-22396114D01*
X20661148Y-22119370D01*
X20665378Y-22108218D01*
X20784350Y-21843875D01*
X20789891Y-21833315D01*
X20939868Y-21585221D01*
X20946632Y-21575424D01*
X21125407Y-21347235D01*
X21133319Y-21338303D01*
X21338303Y-21133319D01*
X21347235Y-21125407D01*
X21575424Y-20946632D01*
X21585221Y-20939868D01*
X21833315Y-20789891D01*
X21843875Y-20784350D01*
X22108218Y-20665378D01*
X22119370Y-20661148D01*
X22396121Y-20574910D01*
X22407715Y-20572052D01*
X22692837Y-20519801D01*
X22704688Y-20518362D01*
X22997008Y-20500681D01*
X23002985Y-20500500D01*
X23065892Y-20500500D01*
X27401000Y-20500500D01*
X27459191Y-20519407D01*
G37*
%TD.AperFunction*%
%TD*%
M02*
