%TF.GenerationSoftware,KiCad,Pcbnew,10.0.5*%
%TF.CreationDate,2026-08-30T12:15:25+07:00*%
%TF.ProjectId,vsmart-module-carrier,76736d61-7274-42d6-9d6f-64756c652d63,rev?*%
%TF.SameCoordinates,Original*%
%TF.FileFunction,Copper,L1,Top*%
%TF.FilePolarity,Positive*%
%FSLAX46Y46*%
G04 Gerber Fmt 4.6, Leading zero omitted, Abs format (unit mm)*
G04 Created by KiCad (PCBNEW 10.0.5) date 2026-08-30 12:15:25*
%MOMM*%
%LPD*%
G01*
G04 APERTURE LIST*
G04 Aperture macros list*
%AMRoundRect*
0 Rectangle with rounded corners*
0 $1 Rounding radius*
0 $2 $3 $4 $5 $6 $7 $8 $9 X,Y pos of 4 corners*
0 Add a 4 corners polygon primitive as box body*
4,1,4,$2,$3,$4,$5,$6,$7,$8,$9,$2,$3,0*
0 Add four circle primitives for the rounded corners*
1,1,$1+$1,$2,$3*
1,1,$1+$1,$4,$5*
1,1,$1+$1,$6,$7*
1,1,$1+$1,$8,$9*
0 Add four rect primitives between the rounded corners*
20,1,$1+$1,$2,$3,$4,$5,0*
20,1,$1+$1,$4,$5,$6,$7,0*
20,1,$1+$1,$6,$7,$8,$9,0*
20,1,$1+$1,$8,$9,$2,$3,0*%
G04 Aperture macros list end*
%TA.AperFunction,ComponentPad*%
%ADD10R,1.700000X1.700000*%
%TD*%
%TA.AperFunction,ComponentPad*%
%ADD11O,1.700000X1.700000*%
%TD*%
%TA.AperFunction,ComponentPad*%
%ADD12C,1.524000*%
%TD*%
%TA.AperFunction,ComponentPad*%
%ADD13RoundRect,0.250000X-1.125000X-1.125000X1.125000X-1.125000X1.125000X1.125000X-1.125000X1.125000X0*%
%TD*%
%TA.AperFunction,ComponentPad*%
%ADD14C,2.750000*%
%TD*%
%TA.AperFunction,ComponentPad*%
%ADD15RoundRect,0.250000X-0.750000X-0.750000X0.750000X-0.750000X0.750000X0.750000X-0.750000X0.750000X0*%
%TD*%
%TA.AperFunction,ComponentPad*%
%ADD16C,2.000000*%
%TD*%
%TA.AperFunction,ComponentPad*%
%ADD17RoundRect,0.250000X-0.550000X-0.550000X0.550000X-0.550000X0.550000X0.550000X-0.550000X0.550000X0*%
%TD*%
%TA.AperFunction,ComponentPad*%
%ADD18C,1.600000*%
%TD*%
%TA.AperFunction,ComponentPad*%
%ADD19R,2.000000X1.200000*%
%TD*%
%TA.AperFunction,ComponentPad*%
%ADD20O,2.000000X1.200000*%
%TD*%
%TA.AperFunction,ComponentPad*%
%ADD21R,1.800000X1.800000*%
%TD*%
%TA.AperFunction,ComponentPad*%
%ADD22O,1.800000X1.800000*%
%TD*%
%TA.AperFunction,ViaPad*%
%ADD23C,0.600000*%
%TD*%
%TA.AperFunction,ViaPad*%
%ADD24C,0.800000*%
%TD*%
%TA.AperFunction,Conductor*%
%ADD25C,2.000000*%
%TD*%
%TA.AperFunction,Conductor*%
%ADD26C,1.699800*%
%TD*%
%TA.AperFunction,Conductor*%
%ADD27C,1.000000*%
%TD*%
%TA.AperFunction,Conductor*%
%ADD28C,0.250000*%
%TD*%
G04 APERTURE END LIST*
D10*
%TO.P,U4,1*%
%TO.N,SIM_RI*%
X115500000Y-73000000D03*
D11*
%TO.P,U4,2*%
%TO.N,SIM_DTR*%
X115500000Y-75540000D03*
%TO.P,U4,3*%
%TO.N,N/C*%
X115500000Y-78080000D03*
%TO.P,U4,4*%
X115500000Y-80620000D03*
%TO.P,U4,5*%
X115500000Y-83160000D03*
%TO.P,U4,6*%
X115500000Y-85700000D03*
D10*
%TO.P,U4,7*%
X93426400Y-70476000D03*
D11*
%TO.P,U4,8*%
%TO.N,+5V_SIM*%
X93426400Y-73016000D03*
%TO.P,U4,9*%
%TO.N,SIM_RST*%
X93426400Y-75556000D03*
%TO.P,U4,10*%
%TO.N,SIM_TX*%
X93426400Y-78096000D03*
%TO.P,U4,11*%
%TO.N,SIM_RX*%
X93426400Y-80636000D03*
%TO.P,U4,12*%
%TO.N,GND*%
X93426400Y-83176000D03*
%TD*%
D12*
%TO.P,U2,1*%
%TO.N,+3V3*%
X65000000Y-59220000D03*
%TO.P,U2,2*%
%TO.N,GND*%
X65000000Y-61760000D03*
%TO.P,U2,3*%
%TO.N,I2C_SCL*%
X65000000Y-64300000D03*
%TO.P,U2,4*%
%TO.N,I2C_SDA*%
X65000000Y-66840000D03*
%TO.P,U2,5*%
%TO.N,N/C*%
X65000000Y-69380000D03*
%TO.P,U2,6*%
X65000000Y-71920000D03*
%TO.P,U2,7*%
%TO.N,GND*%
X65000000Y-74460000D03*
%TO.P,U2,8*%
%TO.N,MPU_INT*%
X65000000Y-77000000D03*
%TD*%
D13*
%TO.P,J2,1*%
%TO.N,+5V_SIM*%
X105000000Y-98000000D03*
D14*
%TO.P,J2,2*%
%TO.N,GND*%
X110400000Y-98000000D03*
%TD*%
D15*
%TO.P,C1,1*%
%TO.N,+5V_SIM*%
X81000000Y-91000000D03*
D16*
%TO.P,C1,2*%
%TO.N,GND*%
X86000000Y-91000000D03*
%TD*%
D17*
%TO.P,C3,1*%
%TO.N,+5V*%
X55000000Y-34000000D03*
D18*
%TO.P,C3,2*%
%TO.N,GND*%
X58500000Y-34000000D03*
%TD*%
D19*
%TO.P,U1,1*%
%TO.N,+3V3*%
X23000000Y-48000000D03*
D20*
%TO.P,U1,2*%
%TO.N,N/C*%
X23000000Y-50540000D03*
%TO.P,U1,3*%
X23000000Y-53080000D03*
%TO.P,U1,4*%
X23000000Y-55620000D03*
%TO.P,U1,5*%
%TO.N,GPS_PPS*%
X23000000Y-58160000D03*
%TO.P,U1,6*%
%TO.N,MPU_INT*%
X23000000Y-60700000D03*
%TO.P,U1,7*%
%TO.N,SIM_RST*%
X23000000Y-63240000D03*
%TO.P,U1,8*%
%TO.N,SIM_RI*%
X23000000Y-65780000D03*
%TO.P,U1,9*%
%TO.N,SIM_DTR*%
X23000000Y-68320000D03*
%TO.P,U1,10*%
%TO.N,SIM_RX*%
X23000000Y-70860000D03*
%TO.P,U1,11*%
%TO.N,SIM_TX*%
X23000000Y-73400000D03*
%TO.P,U1,12*%
%TO.N,N/C*%
X23000000Y-75940000D03*
%TO.P,U1,13*%
X23000000Y-78480000D03*
%TO.P,U1,14*%
%TO.N,GND*%
X23000000Y-81020000D03*
%TO.P,U1,15*%
%TO.N,N/C*%
X23000000Y-83560000D03*
%TO.P,U1,16*%
X23000000Y-86100000D03*
%TO.P,U1,17*%
X23000000Y-88640000D03*
%TO.P,U1,18*%
X23000000Y-91180000D03*
%TO.P,U1,19*%
%TO.N,+5V*%
X23000000Y-93720000D03*
%TO.P,U1,20*%
%TO.N,N/C*%
X48396320Y-93717280D03*
%TO.P,U1,21*%
X48396320Y-91177280D03*
%TO.P,U1,22*%
X48400000Y-88640000D03*
%TO.P,U1,23*%
X48400000Y-86100000D03*
%TO.P,U1,24*%
X48400000Y-83560000D03*
%TO.P,U1,25*%
X48400000Y-81020000D03*
%TO.P,U1,26*%
X48400000Y-78480000D03*
%TO.P,U1,27*%
%TO.N,GPS_RX*%
X48400000Y-75940000D03*
%TO.P,U1,28*%
%TO.N,GPS_TX*%
X48400000Y-73400000D03*
%TO.P,U1,29*%
%TO.N,N/C*%
X48400000Y-70860000D03*
%TO.P,U1,30*%
X48400000Y-68320000D03*
%TO.P,U1,31*%
X48400000Y-65780000D03*
%TO.P,U1,32*%
%TO.N,GND*%
X48400000Y-63240000D03*
%TO.P,U1,33*%
%TO.N,I2C_SDA*%
X48400000Y-60700000D03*
%TO.P,U1,34*%
%TO.N,N/C*%
X48400000Y-58160000D03*
%TO.P,U1,35*%
X48400000Y-55620000D03*
%TO.P,U1,36*%
%TO.N,I2C_SCL*%
X48400000Y-53080000D03*
%TO.P,U1,37*%
%TO.N,N/C*%
X48400000Y-50540000D03*
%TO.P,U1,38*%
%TO.N,GND*%
X48400000Y-48000000D03*
%TD*%
D13*
%TO.P,J1,1*%
%TO.N,+5V*%
X60000000Y-98000000D03*
D14*
%TO.P,J1,2*%
%TO.N,GND*%
X65400000Y-98000000D03*
%TD*%
D21*
%TO.P,U3,1*%
%TO.N,+3V3*%
X122000000Y-42080000D03*
D22*
%TO.P,U3,2*%
%TO.N,GND*%
X122000000Y-39540000D03*
%TO.P,U3,3*%
%TO.N,GPS_RX*%
X122000000Y-37000000D03*
%TO.P,U3,4*%
%TO.N,GPS_TX*%
X122000000Y-34460000D03*
%TO.P,U3,5*%
%TO.N,GPS_PPS*%
X122000000Y-31920000D03*
%TD*%
D23*
%TO.N,GND*%
X60450000Y-35450000D03*
X35450000Y-50450000D03*
X90450000Y-70450000D03*
X75450000Y-45450000D03*
X95450000Y-70450000D03*
X70450000Y-45450000D03*
X80450000Y-45450000D03*
D24*
X31950000Y-41950000D03*
D23*
X100450000Y-100450000D03*
D24*
X112000000Y-47000000D03*
D23*
X65450000Y-35450000D03*
X35450000Y-30450000D03*
X100450000Y-80450000D03*
X60450000Y-85450000D03*
X100450000Y-95450000D03*
X115450000Y-70450000D03*
X60450000Y-55450000D03*
X90450000Y-55450000D03*
X85450000Y-35450000D03*
X85450000Y-55450000D03*
X50450000Y-35450000D03*
X66292000Y-68110000D03*
X85450000Y-25450000D03*
X40450000Y-70450000D03*
X40450000Y-40450000D03*
X45450000Y-30450000D03*
X25450000Y-35450000D03*
X50450000Y-65450000D03*
X70450000Y-35450000D03*
X25450000Y-85450000D03*
X110450000Y-25450000D03*
X55450000Y-50450000D03*
X115450000Y-25450000D03*
X35450000Y-95450000D03*
X100450000Y-85450000D03*
X40450000Y-60450000D03*
X95450000Y-85450000D03*
X40450000Y-55450000D03*
D24*
X122000000Y-47000000D03*
D23*
X35450000Y-90450000D03*
X110450000Y-60450000D03*
X40450000Y-25450000D03*
X120450000Y-40450000D03*
X110450000Y-100450000D03*
X80450000Y-70450000D03*
X62280000Y-41185000D03*
X120450000Y-70450000D03*
X115450000Y-35450000D03*
X110450000Y-85450000D03*
X105450000Y-45450000D03*
X70450000Y-90450000D03*
X75450000Y-30450000D03*
X80450000Y-65450000D03*
X85450000Y-75450000D03*
X110450000Y-80450000D03*
X95450000Y-75450000D03*
X50450000Y-30450000D03*
X100450000Y-60450000D03*
X95450000Y-80450000D03*
X60450000Y-90450000D03*
X90450000Y-35450000D03*
X120450000Y-60450000D03*
X70450000Y-85450000D03*
X75450000Y-35450000D03*
D24*
X105500000Y-73000000D03*
D23*
X50450000Y-60450000D03*
X40450000Y-50450000D03*
X95450000Y-90450000D03*
X30450000Y-50450000D03*
X85450000Y-30450000D03*
X105450000Y-90450000D03*
X110450000Y-95450000D03*
X100450000Y-45450000D03*
X105450000Y-70450000D03*
X85450000Y-95450000D03*
X90450000Y-50450000D03*
X70450000Y-65450000D03*
X65450000Y-85450000D03*
X40450000Y-35450000D03*
D24*
X31950000Y-51950000D03*
D23*
X35450000Y-80450000D03*
X50450000Y-95450000D03*
D24*
X115500000Y-63000000D03*
D23*
X55450000Y-30450000D03*
X80450000Y-85450000D03*
X105450000Y-25450000D03*
X120450000Y-50450000D03*
X115450000Y-90450000D03*
X80450000Y-100450000D03*
D24*
X31950000Y-61950000D03*
D23*
X95450000Y-100450000D03*
X115450000Y-65450000D03*
X110450000Y-70450000D03*
X95450000Y-35450000D03*
X100450000Y-30450000D03*
D24*
X38895000Y-65375600D03*
D23*
X70450000Y-30450000D03*
X60450000Y-25450000D03*
X30450000Y-55450000D03*
D24*
X41950000Y-61950000D03*
D23*
X115450000Y-50450000D03*
X55450000Y-100450000D03*
X55450000Y-60450000D03*
X110450000Y-75450000D03*
X115450000Y-95450000D03*
X50450000Y-100450000D03*
X80450000Y-60450000D03*
X90450000Y-30450000D03*
X60450000Y-50450000D03*
X55450000Y-35450000D03*
X95450000Y-30450000D03*
X105450000Y-30450000D03*
X120450000Y-80450000D03*
X85450000Y-50450000D03*
X85450000Y-70450000D03*
X25450000Y-95450000D03*
X30450000Y-65450000D03*
X60450000Y-30450000D03*
D24*
X33000000Y-38000000D03*
D23*
X85450000Y-85450000D03*
X55450000Y-25450000D03*
X35450000Y-60450000D03*
X75450000Y-60450000D03*
X25450000Y-90450000D03*
X60450000Y-100450000D03*
X50450000Y-80450000D03*
X90450000Y-45450000D03*
X70450000Y-75450000D03*
X105450000Y-55450000D03*
X35450000Y-45450000D03*
X90450000Y-25450000D03*
X35450000Y-70450000D03*
X35450000Y-25450000D03*
X55450000Y-90450000D03*
X85450000Y-100450000D03*
X105450000Y-60450000D03*
X100450000Y-70450000D03*
X55450000Y-95450000D03*
X55450000Y-40450000D03*
X100450000Y-35450000D03*
X40450000Y-90450000D03*
X60450000Y-95450000D03*
X50450000Y-90450000D03*
X30450000Y-35450000D03*
X25450000Y-40450000D03*
X40450000Y-65450000D03*
X85450000Y-45450000D03*
X70450000Y-55450000D03*
X105450000Y-75450000D03*
X110450000Y-35450000D03*
X80450000Y-75450000D03*
X120450000Y-85450000D03*
X120450000Y-35450000D03*
X75450000Y-95450000D03*
X25450000Y-45450000D03*
X60450000Y-65450000D03*
D24*
X105500000Y-63000000D03*
D23*
X40450000Y-100450000D03*
X30450000Y-85450000D03*
X105450000Y-85450000D03*
D24*
X33000000Y-48000000D03*
D23*
X95450000Y-60450000D03*
X110450000Y-65450000D03*
X95450000Y-55450000D03*
X35450000Y-55450000D03*
X65450000Y-90450000D03*
X100450000Y-55450000D03*
X85450000Y-65450000D03*
X40450000Y-85450000D03*
X90450000Y-100450000D03*
D24*
X31950000Y-21950000D03*
D23*
X120450000Y-45450000D03*
X95450000Y-65450000D03*
X70450000Y-95450000D03*
X60450000Y-40450000D03*
X55450000Y-55450000D03*
D24*
X41950000Y-51950000D03*
D23*
X35450000Y-40450000D03*
X95450000Y-45450000D03*
X50450000Y-40450000D03*
X110450000Y-90450000D03*
X110450000Y-55450000D03*
X30450000Y-30450000D03*
X50450000Y-55450000D03*
X30450000Y-100450000D03*
X35450000Y-75450000D03*
D24*
X21950000Y-21950000D03*
X112000000Y-37000000D03*
X21950000Y-81950000D03*
D23*
X70450000Y-50450000D03*
D24*
X31950000Y-81950000D03*
D23*
X90450000Y-95450000D03*
X90450000Y-65450000D03*
X105450000Y-100450000D03*
X55450000Y-75450000D03*
X100450000Y-25450000D03*
X65450000Y-95450000D03*
D24*
X31950000Y-91950000D03*
D23*
X115450000Y-30450000D03*
X35450000Y-85450000D03*
X75450000Y-100450000D03*
X65450000Y-100450000D03*
X80450000Y-50450000D03*
X120450000Y-75450000D03*
D24*
X105500000Y-83000000D03*
D23*
X80450000Y-30450000D03*
X80450000Y-55450000D03*
X75450000Y-75450000D03*
X25450000Y-80450000D03*
D24*
X23000000Y-38000000D03*
D23*
X35450000Y-100450000D03*
X60450000Y-75450000D03*
X80450000Y-35450000D03*
X45450000Y-100450000D03*
X35450000Y-35450000D03*
X75450000Y-55450000D03*
X75450000Y-85450000D03*
X25450000Y-60450000D03*
X50450000Y-85450000D03*
X46968000Y-64816000D03*
X120450000Y-55450000D03*
X25450000Y-55450000D03*
D24*
X33000000Y-58000000D03*
D23*
X75450000Y-25450000D03*
X75450000Y-50450000D03*
X45450000Y-35450000D03*
X40450000Y-95450000D03*
X30450000Y-60450000D03*
X105450000Y-50450000D03*
X30450000Y-80450000D03*
X120450000Y-90450000D03*
X100450000Y-75450000D03*
X115450000Y-55450000D03*
X100450000Y-65450000D03*
X75450000Y-90450000D03*
X95450000Y-25450000D03*
X105450000Y-65450000D03*
X30450000Y-70450000D03*
D24*
X41950000Y-41950000D03*
D23*
X35450000Y-65450000D03*
X45450000Y-25450000D03*
D24*
X122000000Y-27000000D03*
D23*
X40450000Y-30450000D03*
X75450000Y-65450000D03*
X50450000Y-50450000D03*
X30450000Y-45450000D03*
X120450000Y-65450000D03*
X115450000Y-100450000D03*
X25450000Y-50450000D03*
X30450000Y-95450000D03*
X30450000Y-25450000D03*
X120450000Y-95450000D03*
X50450000Y-25450000D03*
X120450000Y-25450000D03*
X85450000Y-60450000D03*
X70450000Y-100450000D03*
X115450000Y-45450000D03*
D24*
X41950000Y-21950000D03*
D23*
X45450000Y-40450000D03*
X25450000Y-30450000D03*
X70450000Y-25450000D03*
X110450000Y-50450000D03*
X30450000Y-40450000D03*
X30450000Y-75450000D03*
X65450000Y-30450000D03*
X25450000Y-65450000D03*
X40450000Y-75450000D03*
X90450000Y-60450000D03*
D24*
X31950000Y-31950000D03*
D23*
X115450000Y-60450000D03*
X105450000Y-80450000D03*
X110450000Y-45450000D03*
X80450000Y-25450000D03*
X100450000Y-90450000D03*
X95450000Y-50450000D03*
X120450000Y-30450000D03*
X70450000Y-60450000D03*
X105450000Y-35450000D03*
X105450000Y-95450000D03*
X64316000Y-41035000D03*
D24*
X112000000Y-27000000D03*
X21950000Y-31950000D03*
D23*
X30450000Y-90450000D03*
D24*
X21950000Y-41950000D03*
D23*
X100450000Y-50450000D03*
X55450000Y-85450000D03*
X40450000Y-80450000D03*
X110450000Y-30450000D03*
X80450000Y-95450000D03*
%TO.N,I2C_SDA*%
X47933600Y-64557300D03*
%TO.N,MPU_INT*%
X65292200Y-68110000D03*
D24*
%TO.N,+5V*%
X44739600Y-94760500D03*
D23*
%TO.N,GPS_RX*%
X65216300Y-41034800D03*
%TO.N,GPS_TX*%
X63245600Y-40925700D03*
%TD*%
%TO.N,+5V_SIM*%
D25*
X91209500Y-92508500D02*
X91209500Y-74067300D01*
X91209500Y-74067300D02*
X91821000Y-73455800D01*
X100033000Y-98000000D02*
X94541500Y-92508500D01*
D26*
X91821000Y-73455800D02*
X92986600Y-73455800D01*
D25*
X83251700Y-93251700D02*
X90466300Y-93251700D01*
D26*
X92986600Y-73455800D02*
X93426400Y-73016000D01*
D25*
X91209500Y-92508500D02*
X94541500Y-92508500D01*
X105000000Y-98000000D02*
X100033000Y-98000000D01*
X90466300Y-93251700D02*
X91209500Y-92508500D01*
X81000000Y-91000000D02*
X83251700Y-93251700D01*
%TO.N,GND*%
D27*
X58500000Y-34000000D02*
X58500000Y-39651700D01*
X63477900Y-74460000D02*
X63477900Y-96077900D01*
X120348300Y-88051700D02*
X110400000Y-98000000D01*
X120348300Y-39540000D02*
X120348300Y-88051700D01*
X63477900Y-96077900D02*
X65400000Y-98000000D01*
X24751700Y-79518900D02*
X38895000Y-65375600D01*
X50151700Y-63240000D02*
X50151700Y-48000000D01*
X24751700Y-81020000D02*
X24751700Y-79518900D01*
X65000000Y-74460000D02*
X63477900Y-74460000D01*
X65000000Y-61760000D02*
X63477900Y-63282100D01*
X63477900Y-63282100D02*
X63477900Y-74460000D01*
X122000000Y-39540000D02*
X120348300Y-39540000D01*
X48400000Y-63240000D02*
X50151700Y-63240000D01*
X23000000Y-81020000D02*
X24751700Y-81020000D01*
X58500000Y-39651700D02*
X50151700Y-48000000D01*
X48400000Y-48000000D02*
X50151700Y-48000000D01*
%TO.N,I2C_SDA*%
D28*
X47022500Y-63646200D02*
X47933600Y-64557300D01*
X47073300Y-60700000D02*
X47022500Y-60750800D01*
X47022500Y-60750800D02*
X47022500Y-63646200D01*
X48400000Y-60700000D02*
X47073300Y-60700000D01*
%TO.N,MPU_INT*%
X66182300Y-69000100D02*
X65292200Y-68110000D01*
X65000000Y-77000000D02*
X66182300Y-75817700D01*
X66182300Y-75817700D02*
X66182300Y-69000100D01*
%TO.N,+5V*%
D27*
X44739600Y-44260400D02*
X55000000Y-34000000D01*
X44739600Y-94760500D02*
X44739600Y-44260400D01*
%TO.N,GPS_RX*%
D28*
X58759900Y-63068700D02*
X65216300Y-56612300D01*
X58759900Y-66906800D02*
X58759900Y-63068700D01*
X48400000Y-75940000D02*
X49726700Y-75940000D01*
X49726700Y-75940000D02*
X58759900Y-66906800D01*
X65216300Y-56612300D02*
X65216300Y-41034800D01*
%TO.N,GPS_TX*%
X63245600Y-40925700D02*
X63245600Y-57719000D01*
X63245600Y-57719000D02*
X49726700Y-71237900D01*
X48400000Y-73400000D02*
X49726700Y-73400000D01*
X49726700Y-71237900D02*
X49726700Y-73400000D01*
%TD*%
%TA.AperFunction,Conductor*%
%TO.N,GND*%
G36*
X122002992Y-20500681D02*
G01*
X122295309Y-20518362D01*
X122307164Y-20519802D01*
X122592280Y-20572051D01*
X122603882Y-20574911D01*
X122880623Y-20661147D01*
X122891786Y-20665380D01*
X123152200Y-20782583D01*
X123156118Y-20784347D01*
X123166690Y-20789895D01*
X123414770Y-20939864D01*
X123424583Y-20946638D01*
X123652755Y-21125400D01*
X123661704Y-21133327D01*
X123866672Y-21338295D01*
X123874599Y-21347244D01*
X124053356Y-21575409D01*
X124060138Y-21585233D01*
X124210100Y-21833303D01*
X124215652Y-21843881D01*
X124334616Y-22108206D01*
X124338855Y-22119384D01*
X124425087Y-22396114D01*
X124427948Y-22407722D01*
X124480196Y-22692828D01*
X124481637Y-22704695D01*
X124499319Y-22997006D01*
X124499500Y-23002984D01*
X124499500Y-98997015D01*
X124499319Y-99002993D01*
X124481637Y-99295304D01*
X124480196Y-99307171D01*
X124427948Y-99592277D01*
X124425087Y-99603885D01*
X124338855Y-99880615D01*
X124334616Y-99891793D01*
X124215652Y-100156118D01*
X124210096Y-100166703D01*
X124060142Y-100414758D01*
X124053356Y-100424590D01*
X123874599Y-100652755D01*
X123866672Y-100661704D01*
X123661704Y-100866672D01*
X123652755Y-100874599D01*
X123424590Y-101053356D01*
X123414758Y-101060142D01*
X123177212Y-101203744D01*
X123166703Y-101210097D01*
X123156118Y-101215652D01*
X122891793Y-101334616D01*
X122880615Y-101338855D01*
X122603885Y-101425087D01*
X122592277Y-101427948D01*
X122307171Y-101480196D01*
X122295304Y-101481637D01*
X122023993Y-101498048D01*
X122002991Y-101499319D01*
X121997015Y-101499500D01*
X23002985Y-101499500D01*
X22997008Y-101499319D01*
X22973564Y-101497900D01*
X22704695Y-101481637D01*
X22692828Y-101480196D01*
X22407722Y-101427948D01*
X22396114Y-101425087D01*
X22119384Y-101338855D01*
X22108206Y-101334616D01*
X21843881Y-101215652D01*
X21833303Y-101210100D01*
X21585233Y-101060138D01*
X21575413Y-101053359D01*
X21347244Y-100874599D01*
X21338295Y-100866672D01*
X21133327Y-100661704D01*
X21125400Y-100652755D01*
X20946638Y-100424583D01*
X20939864Y-100414770D01*
X20789895Y-100166690D01*
X20784347Y-100156118D01*
X20782583Y-100152200D01*
X20665380Y-99891786D01*
X20661147Y-99880623D01*
X20574911Y-99603882D01*
X20572051Y-99592277D01*
X20536328Y-99397342D01*
X20519802Y-99307164D01*
X20518362Y-99295303D01*
X20516739Y-99268477D01*
X20500681Y-99002992D01*
X20500500Y-98997015D01*
X20500500Y-98378710D01*
X23149500Y-98378710D01*
X23149500Y-98621289D01*
X23181161Y-98861781D01*
X23181161Y-98861786D01*
X23243944Y-99096092D01*
X23243948Y-99096105D01*
X23336772Y-99320204D01*
X23336774Y-99320208D01*
X23336776Y-99320212D01*
X23450924Y-99517922D01*
X23458066Y-99530292D01*
X23605729Y-99722731D01*
X23605731Y-99722733D01*
X23605735Y-99722738D01*
X23777262Y-99894265D01*
X23777266Y-99894268D01*
X23777268Y-99894270D01*
X23969707Y-100041933D01*
X23969711Y-100041936D01*
X24179788Y-100163224D01*
X24403900Y-100256054D01*
X24638211Y-100318838D01*
X24878712Y-100350500D01*
X24878713Y-100350500D01*
X25121287Y-100350500D01*
X25121288Y-100350500D01*
X25361789Y-100318838D01*
X25596100Y-100256054D01*
X25820212Y-100163224D01*
X26030289Y-100041936D01*
X26222738Y-99894265D01*
X26394265Y-99722738D01*
X26541936Y-99530289D01*
X26663224Y-99320212D01*
X26756054Y-99096100D01*
X26818838Y-98861789D01*
X26850500Y-98621288D01*
X26850500Y-98378712D01*
X26818838Y-98138211D01*
X26756054Y-97903900D01*
X26663224Y-97679788D01*
X26541936Y-97469711D01*
X26541933Y-97469707D01*
X26394270Y-97277268D01*
X26394268Y-97277266D01*
X26394265Y-97277262D01*
X26222738Y-97105735D01*
X26222733Y-97105731D01*
X26222731Y-97105729D01*
X26030292Y-96958066D01*
X26026840Y-96956073D01*
X25820212Y-96836776D01*
X25820208Y-96836774D01*
X25820204Y-96836772D01*
X25808425Y-96831893D01*
X58324500Y-96831893D01*
X58324500Y-99168106D01*
X58335123Y-99256565D01*
X58390637Y-99397339D01*
X58390638Y-99397341D01*
X58390639Y-99397342D01*
X58482078Y-99517922D01*
X58602658Y-99609361D01*
X58602659Y-99609361D01*
X58602660Y-99609362D01*
X58673047Y-99637119D01*
X58743436Y-99664877D01*
X58831898Y-99675500D01*
X58831900Y-99675500D01*
X61168100Y-99675500D01*
X61168102Y-99675500D01*
X61256564Y-99664877D01*
X61397342Y-99609361D01*
X61517922Y-99517922D01*
X61609361Y-99397342D01*
X61664877Y-99256564D01*
X61675500Y-99168102D01*
X61675500Y-97877105D01*
X63525000Y-97877105D01*
X63525000Y-98122894D01*
X63557081Y-98366571D01*
X63557081Y-98366576D01*
X63620695Y-98603984D01*
X63620699Y-98603997D01*
X63714753Y-98831067D01*
X63714755Y-98831072D01*
X63837647Y-99043926D01*
X63909229Y-99137215D01*
X64627545Y-98418898D01*
X64720343Y-98557780D01*
X64842220Y-98679657D01*
X64981099Y-98772452D01*
X64262783Y-99490769D01*
X64356073Y-99562352D01*
X64568927Y-99685244D01*
X64568932Y-99685246D01*
X64796002Y-99779300D01*
X64796015Y-99779304D01*
X65033425Y-99842918D01*
X65277105Y-99874999D01*
X65277107Y-99875000D01*
X65522893Y-99875000D01*
X65522894Y-99874999D01*
X65766571Y-99842918D01*
X65766576Y-99842918D01*
X66003984Y-99779304D01*
X66003997Y-99779300D01*
X66231067Y-99685246D01*
X66231072Y-99685244D01*
X66443922Y-99562355D01*
X66537215Y-99490769D01*
X65818899Y-98772453D01*
X65957780Y-98679657D01*
X66079657Y-98557780D01*
X66172453Y-98418899D01*
X66890769Y-99137215D01*
X66962355Y-99043922D01*
X67085244Y-98831072D01*
X67085246Y-98831067D01*
X67179300Y-98603997D01*
X67179304Y-98603984D01*
X67242918Y-98366576D01*
X67242918Y-98366571D01*
X67274999Y-98122894D01*
X67275000Y-98122893D01*
X67275000Y-97877107D01*
X67274999Y-97877105D01*
X67242918Y-97633428D01*
X67242918Y-97633423D01*
X67179304Y-97396015D01*
X67179300Y-97396002D01*
X67085246Y-97168932D01*
X67085244Y-97168927D01*
X66962352Y-96956073D01*
X66890768Y-96862783D01*
X66172452Y-97581098D01*
X66079657Y-97442220D01*
X65957780Y-97320343D01*
X65818898Y-97227545D01*
X66537215Y-96509229D01*
X66443926Y-96437647D01*
X66231072Y-96314755D01*
X66231067Y-96314753D01*
X66003997Y-96220699D01*
X66003984Y-96220695D01*
X65766574Y-96157081D01*
X65522894Y-96125000D01*
X65277105Y-96125000D01*
X65033428Y-96157081D01*
X65033423Y-96157081D01*
X64796015Y-96220695D01*
X64796002Y-96220699D01*
X64568932Y-96314753D01*
X64568927Y-96314755D01*
X64356078Y-96437644D01*
X64262783Y-96509229D01*
X64981100Y-97227546D01*
X64842220Y-97320343D01*
X64720343Y-97442220D01*
X64627546Y-97581100D01*
X63909229Y-96862783D01*
X63837644Y-96956078D01*
X63714755Y-97168927D01*
X63714753Y-97168932D01*
X63620699Y-97396002D01*
X63620695Y-97396015D01*
X63557081Y-97633423D01*
X63557081Y-97633428D01*
X63525000Y-97877105D01*
X61675500Y-97877105D01*
X61675500Y-96831898D01*
X61664877Y-96743436D01*
X61627833Y-96649500D01*
X61609362Y-96602660D01*
X61609361Y-96602659D01*
X61609361Y-96602658D01*
X61517922Y-96482078D01*
X61397342Y-96390639D01*
X61397341Y-96390638D01*
X61397339Y-96390637D01*
X61256565Y-96335123D01*
X61168106Y-96324500D01*
X61168102Y-96324500D01*
X58831898Y-96324500D01*
X58831893Y-96324500D01*
X58743434Y-96335123D01*
X58602660Y-96390637D01*
X58602656Y-96390640D01*
X58482081Y-96482075D01*
X58482075Y-96482081D01*
X58390640Y-96602656D01*
X58390637Y-96602660D01*
X58335123Y-96743434D01*
X58324500Y-96831893D01*
X25808425Y-96831893D01*
X25596105Y-96743948D01*
X25596104Y-96743947D01*
X25596100Y-96743946D01*
X25361789Y-96681162D01*
X25361786Y-96681161D01*
X25361784Y-96681161D01*
X25121289Y-96649500D01*
X25121288Y-96649500D01*
X24878712Y-96649500D01*
X24878710Y-96649500D01*
X24638218Y-96681161D01*
X24638213Y-96681161D01*
X24403907Y-96743944D01*
X24403894Y-96743948D01*
X24179795Y-96836772D01*
X23969707Y-96958066D01*
X23777268Y-97105729D01*
X23605729Y-97277268D01*
X23458066Y-97469707D01*
X23336772Y-97679795D01*
X23243948Y-97903894D01*
X23243944Y-97903907D01*
X23181161Y-98138213D01*
X23181161Y-98138218D01*
X23149500Y-98378710D01*
X20500500Y-98378710D01*
X20500500Y-93631306D01*
X21699500Y-93631306D01*
X21699500Y-93808693D01*
X21734106Y-93982665D01*
X21734106Y-93982667D01*
X21801985Y-94146544D01*
X21801985Y-94146545D01*
X21900535Y-94294034D01*
X22025965Y-94419464D01*
X22173453Y-94518013D01*
X22173455Y-94518014D01*
X22210581Y-94533391D01*
X22337334Y-94585894D01*
X22511309Y-94620500D01*
X22511310Y-94620500D01*
X23488690Y-94620500D01*
X23488691Y-94620500D01*
X23662666Y-94585894D01*
X23826547Y-94518013D01*
X23974035Y-94419464D01*
X24099464Y-94294035D01*
X24198013Y-94146547D01*
X24265894Y-93982666D01*
X24300500Y-93808691D01*
X24300500Y-93631309D01*
X24265894Y-93457334D01*
X24198014Y-93293455D01*
X24198014Y-93293454D01*
X24099464Y-93145965D01*
X23974034Y-93020535D01*
X23826544Y-92921985D01*
X23662666Y-92854106D01*
X23488693Y-92819500D01*
X23488691Y-92819500D01*
X22511309Y-92819500D01*
X22511306Y-92819500D01*
X22337334Y-92854106D01*
X22337332Y-92854106D01*
X22173455Y-92921985D01*
X22173454Y-92921985D01*
X22025965Y-93020535D01*
X21900535Y-93145965D01*
X21801985Y-93293454D01*
X21801985Y-93293455D01*
X21734106Y-93457332D01*
X21734106Y-93457334D01*
X21699500Y-93631306D01*
X20500500Y-93631306D01*
X20500500Y-91091306D01*
X21699500Y-91091306D01*
X21699500Y-91268693D01*
X21715923Y-91351256D01*
X21724865Y-91396211D01*
X21734106Y-91442665D01*
X21734106Y-91442667D01*
X21801985Y-91606544D01*
X21801985Y-91606545D01*
X21900535Y-91754034D01*
X21900536Y-91754035D01*
X22025965Y-91879464D01*
X22173453Y-91978013D01*
X22337334Y-92045894D01*
X22511309Y-92080500D01*
X22511310Y-92080500D01*
X23488690Y-92080500D01*
X23488691Y-92080500D01*
X23662666Y-92045894D01*
X23826547Y-91978013D01*
X23974035Y-91879464D01*
X24099464Y-91754035D01*
X24198013Y-91606547D01*
X24265894Y-91442666D01*
X24300500Y-91268691D01*
X24300500Y-91091309D01*
X24265894Y-90917334D01*
X24198014Y-90753455D01*
X24198014Y-90753454D01*
X24099464Y-90605965D01*
X23974034Y-90480535D01*
X23826544Y-90381985D01*
X23662666Y-90314106D01*
X23488693Y-90279500D01*
X23488691Y-90279500D01*
X22511309Y-90279500D01*
X22511306Y-90279500D01*
X22337334Y-90314106D01*
X22337332Y-90314106D01*
X22173455Y-90381985D01*
X22173454Y-90381985D01*
X22025965Y-90480535D01*
X21900535Y-90605965D01*
X21801985Y-90753454D01*
X21801985Y-90753455D01*
X21734106Y-90917332D01*
X21734106Y-90917334D01*
X21699500Y-91091306D01*
X20500500Y-91091306D01*
X20500500Y-88551306D01*
X21699500Y-88551306D01*
X21699500Y-88728693D01*
X21734106Y-88902665D01*
X21734106Y-88902667D01*
X21801985Y-89066544D01*
X21801985Y-89066545D01*
X21900535Y-89214034D01*
X21900536Y-89214035D01*
X22025965Y-89339464D01*
X22173453Y-89438013D01*
X22337334Y-89505894D01*
X22511309Y-89540500D01*
X22511310Y-89540500D01*
X23488690Y-89540500D01*
X23488691Y-89540500D01*
X23662666Y-89505894D01*
X23826547Y-89438013D01*
X23974035Y-89339464D01*
X24099464Y-89214035D01*
X24198013Y-89066547D01*
X24265894Y-88902666D01*
X24300500Y-88728691D01*
X24300500Y-88551309D01*
X24265894Y-88377334D01*
X24198014Y-88213455D01*
X24198014Y-88213454D01*
X24099464Y-88065965D01*
X23974034Y-87940535D01*
X23826544Y-87841985D01*
X23662666Y-87774106D01*
X23488693Y-87739500D01*
X23488691Y-87739500D01*
X22511309Y-87739500D01*
X22511306Y-87739500D01*
X22337334Y-87774106D01*
X22337332Y-87774106D01*
X22173455Y-87841985D01*
X22173454Y-87841985D01*
X22025965Y-87940535D01*
X21900535Y-88065965D01*
X21801985Y-88213454D01*
X21801985Y-88213455D01*
X21734106Y-88377332D01*
X21734106Y-88377334D01*
X21699500Y-88551306D01*
X20500500Y-88551306D01*
X20500500Y-86011306D01*
X21699500Y-86011306D01*
X21699500Y-86188693D01*
X21734106Y-86362665D01*
X21734106Y-86362667D01*
X21801985Y-86526544D01*
X21801985Y-86526545D01*
X21836066Y-86577550D01*
X21900536Y-86674035D01*
X22025965Y-86799464D01*
X22173453Y-86898013D01*
X22337334Y-86965894D01*
X22511309Y-87000500D01*
X22511310Y-87000500D01*
X23488690Y-87000500D01*
X23488691Y-87000500D01*
X23662666Y-86965894D01*
X23826547Y-86898013D01*
X23974035Y-86799464D01*
X24099464Y-86674035D01*
X24198013Y-86526547D01*
X24265894Y-86362666D01*
X24300500Y-86188691D01*
X24300500Y-86011309D01*
X24265894Y-85837334D01*
X24198014Y-85673455D01*
X24198014Y-85673454D01*
X24099464Y-85525965D01*
X23974034Y-85400535D01*
X23826544Y-85301985D01*
X23662666Y-85234106D01*
X23488693Y-85199500D01*
X23488691Y-85199500D01*
X22511309Y-85199500D01*
X22511306Y-85199500D01*
X22337334Y-85234106D01*
X22337332Y-85234106D01*
X22173455Y-85301985D01*
X22173454Y-85301985D01*
X22025965Y-85400535D01*
X21900535Y-85525965D01*
X21801985Y-85673454D01*
X21801985Y-85673455D01*
X21734106Y-85837332D01*
X21734106Y-85837334D01*
X21699500Y-86011306D01*
X20500500Y-86011306D01*
X20500500Y-83471306D01*
X21699500Y-83471306D01*
X21699500Y-83648693D01*
X21734106Y-83822665D01*
X21734106Y-83822667D01*
X21801985Y-83986544D01*
X21801985Y-83986545D01*
X21836066Y-84037550D01*
X21900536Y-84134035D01*
X22025965Y-84259464D01*
X22173453Y-84358013D01*
X22337334Y-84425894D01*
X22511309Y-84460500D01*
X22511310Y-84460500D01*
X23488690Y-84460500D01*
X23488691Y-84460500D01*
X23662666Y-84425894D01*
X23826547Y-84358013D01*
X23974035Y-84259464D01*
X24099464Y-84134035D01*
X24198013Y-83986547D01*
X24265894Y-83822666D01*
X24300500Y-83648691D01*
X24300500Y-83471309D01*
X24265894Y-83297334D01*
X24198014Y-83133455D01*
X24198014Y-83133454D01*
X24099464Y-82985965D01*
X23974034Y-82860535D01*
X23826544Y-82761985D01*
X23662666Y-82694106D01*
X23488693Y-82659500D01*
X23488691Y-82659500D01*
X22511309Y-82659500D01*
X22511306Y-82659500D01*
X22337334Y-82694106D01*
X22337332Y-82694106D01*
X22173455Y-82761985D01*
X22173454Y-82761985D01*
X22025965Y-82860535D01*
X21900535Y-82985965D01*
X21801985Y-83133454D01*
X21801985Y-83133455D01*
X21734106Y-83297332D01*
X21734106Y-83297334D01*
X21699500Y-83471306D01*
X20500500Y-83471306D01*
X20500500Y-80770000D01*
X21525886Y-80770000D01*
X22684314Y-80770000D01*
X22679920Y-80774394D01*
X22627259Y-80865606D01*
X22600000Y-80967339D01*
X22600000Y-81072661D01*
X22627259Y-81174394D01*
X22679920Y-81265606D01*
X22684314Y-81270000D01*
X21525886Y-81270000D01*
X21527086Y-81277586D01*
X21580588Y-81442248D01*
X21659195Y-81596524D01*
X21659197Y-81596528D01*
X21760962Y-81736596D01*
X21883403Y-81859037D01*
X22023471Y-81960802D01*
X22023475Y-81960804D01*
X22177751Y-82039411D01*
X22342420Y-82092915D01*
X22513425Y-82120000D01*
X22749999Y-82120000D01*
X22750000Y-82119999D01*
X22750000Y-81335686D01*
X22754394Y-81340080D01*
X22845606Y-81392741D01*
X22947339Y-81420000D01*
X23052661Y-81420000D01*
X23154394Y-81392741D01*
X23245606Y-81340080D01*
X23250000Y-81335686D01*
X23250000Y-82119999D01*
X23250001Y-82120000D01*
X23486575Y-82120000D01*
X23657579Y-82092915D01*
X23822248Y-82039411D01*
X23976524Y-81960804D01*
X23976528Y-81960802D01*
X24116596Y-81859037D01*
X24239037Y-81736596D01*
X24340802Y-81596528D01*
X24340804Y-81596524D01*
X24419411Y-81442248D01*
X24472913Y-81277586D01*
X24474114Y-81270000D01*
X23315686Y-81270000D01*
X23320080Y-81265606D01*
X23372741Y-81174394D01*
X23400000Y-81072661D01*
X23400000Y-80967339D01*
X23372741Y-80865606D01*
X23320080Y-80774394D01*
X23315686Y-80770000D01*
X24474114Y-80770000D01*
X24472913Y-80762413D01*
X24419411Y-80597751D01*
X24340804Y-80443475D01*
X24340802Y-80443471D01*
X24239037Y-80303403D01*
X24116596Y-80180962D01*
X23976528Y-80079197D01*
X23976524Y-80079195D01*
X23822248Y-80000588D01*
X23657579Y-79947084D01*
X23486575Y-79920000D01*
X23250001Y-79920000D01*
X23250000Y-79920001D01*
X23250000Y-80704314D01*
X23245606Y-80699920D01*
X23154394Y-80647259D01*
X23052661Y-80620000D01*
X22947339Y-80620000D01*
X22845606Y-80647259D01*
X22754394Y-80699920D01*
X22750000Y-80704314D01*
X22750000Y-79920001D01*
X22749999Y-79920000D01*
X22513425Y-79920000D01*
X22342420Y-79947084D01*
X22177751Y-80000588D01*
X22023475Y-80079195D01*
X22023471Y-80079197D01*
X21883403Y-80180962D01*
X21760962Y-80303403D01*
X21659197Y-80443471D01*
X21659195Y-80443475D01*
X21580588Y-80597751D01*
X21527086Y-80762413D01*
X21525886Y-80770000D01*
X20500500Y-80770000D01*
X20500500Y-78391306D01*
X21699500Y-78391306D01*
X21699500Y-78568693D01*
X21734106Y-78742665D01*
X21734106Y-78742667D01*
X21801985Y-78906544D01*
X21801985Y-78906545D01*
X21900535Y-79054034D01*
X21900536Y-79054035D01*
X22025965Y-79179464D01*
X22173453Y-79278013D01*
X22337334Y-79345894D01*
X22511309Y-79380500D01*
X22511310Y-79380500D01*
X23488690Y-79380500D01*
X23488691Y-79380500D01*
X23662666Y-79345894D01*
X23826547Y-79278013D01*
X23974035Y-79179464D01*
X24099464Y-79054035D01*
X24198013Y-78906547D01*
X24265894Y-78742666D01*
X24300500Y-78568691D01*
X24300500Y-78391309D01*
X24265894Y-78217334D01*
X24231953Y-78135393D01*
X24198014Y-78053455D01*
X24198014Y-78053454D01*
X24099464Y-77905965D01*
X23974034Y-77780535D01*
X23826544Y-77681985D01*
X23662666Y-77614106D01*
X23488693Y-77579500D01*
X23488691Y-77579500D01*
X22511309Y-77579500D01*
X22511306Y-77579500D01*
X22337334Y-77614106D01*
X22337332Y-77614106D01*
X22173455Y-77681985D01*
X22173454Y-77681985D01*
X22025965Y-77780535D01*
X21900535Y-77905965D01*
X21801985Y-78053454D01*
X21801985Y-78053455D01*
X21734106Y-78217332D01*
X21734106Y-78217334D01*
X21699500Y-78391306D01*
X20500500Y-78391306D01*
X20500500Y-75851306D01*
X21699500Y-75851306D01*
X21699500Y-76028693D01*
X21734106Y-76202665D01*
X21734106Y-76202667D01*
X21801985Y-76366544D01*
X21801985Y-76366545D01*
X21900535Y-76514034D01*
X21900536Y-76514035D01*
X22025965Y-76639464D01*
X22173453Y-76738013D01*
X22337334Y-76805894D01*
X22511309Y-76840500D01*
X22511310Y-76840500D01*
X23488690Y-76840500D01*
X23488691Y-76840500D01*
X23662666Y-76805894D01*
X23826547Y-76738013D01*
X23974035Y-76639464D01*
X24099464Y-76514035D01*
X24198013Y-76366547D01*
X24265894Y-76202666D01*
X24300500Y-76028691D01*
X24300500Y-75851309D01*
X24265894Y-75677334D01*
X24198014Y-75513455D01*
X24198014Y-75513454D01*
X24099464Y-75365965D01*
X23974034Y-75240535D01*
X23826544Y-75141985D01*
X23662666Y-75074106D01*
X23488693Y-75039500D01*
X23488691Y-75039500D01*
X22511309Y-75039500D01*
X22511306Y-75039500D01*
X22337334Y-75074106D01*
X22337332Y-75074106D01*
X22173455Y-75141985D01*
X22173454Y-75141985D01*
X22025965Y-75240535D01*
X21900535Y-75365965D01*
X21801985Y-75513454D01*
X21801985Y-75513455D01*
X21734106Y-75677332D01*
X21734106Y-75677334D01*
X21699500Y-75851306D01*
X20500500Y-75851306D01*
X20500500Y-73311306D01*
X21699500Y-73311306D01*
X21699500Y-73488693D01*
X21715292Y-73568081D01*
X21733826Y-73661260D01*
X21734106Y-73662665D01*
X21734106Y-73662667D01*
X21801985Y-73826544D01*
X21801985Y-73826545D01*
X21894464Y-73964948D01*
X21900536Y-73974035D01*
X22025965Y-74099464D01*
X22173453Y-74198013D01*
X22337334Y-74265894D01*
X22511309Y-74300500D01*
X22511310Y-74300500D01*
X23488690Y-74300500D01*
X23488691Y-74300500D01*
X23662666Y-74265894D01*
X23826547Y-74198013D01*
X23974035Y-74099464D01*
X24099464Y-73974035D01*
X24198013Y-73826547D01*
X24265894Y-73662666D01*
X24300500Y-73488691D01*
X24300500Y-73311309D01*
X24265894Y-73137334D01*
X24231953Y-73055393D01*
X24198014Y-72973455D01*
X24198014Y-72973454D01*
X24099464Y-72825965D01*
X23974034Y-72700535D01*
X23826544Y-72601985D01*
X23662666Y-72534106D01*
X23488693Y-72499500D01*
X23488691Y-72499500D01*
X22511309Y-72499500D01*
X22511306Y-72499500D01*
X22337334Y-72534106D01*
X22337332Y-72534106D01*
X22173455Y-72601985D01*
X22173454Y-72601985D01*
X22025965Y-72700535D01*
X21900535Y-72825965D01*
X21801985Y-72973454D01*
X21801985Y-72973455D01*
X21734106Y-73137332D01*
X21734106Y-73137334D01*
X21699500Y-73311306D01*
X20500500Y-73311306D01*
X20500500Y-70771306D01*
X21699500Y-70771306D01*
X21699500Y-70948693D01*
X21734106Y-71122665D01*
X21734106Y-71122667D01*
X21801985Y-71286544D01*
X21801985Y-71286545D01*
X21888965Y-71416718D01*
X21900536Y-71434035D01*
X22025965Y-71559464D01*
X22173453Y-71658013D01*
X22337334Y-71725894D01*
X22511309Y-71760500D01*
X22511310Y-71760500D01*
X23488690Y-71760500D01*
X23488691Y-71760500D01*
X23662666Y-71725894D01*
X23826547Y-71658013D01*
X23974035Y-71559464D01*
X24099464Y-71434035D01*
X24198013Y-71286547D01*
X24265894Y-71122666D01*
X24300500Y-70948691D01*
X24300500Y-70771309D01*
X24265894Y-70597334D01*
X24231953Y-70515393D01*
X24198014Y-70433455D01*
X24198014Y-70433454D01*
X24099464Y-70285965D01*
X23974034Y-70160535D01*
X23826544Y-70061985D01*
X23662666Y-69994106D01*
X23488693Y-69959500D01*
X23488691Y-69959500D01*
X22511309Y-69959500D01*
X22511306Y-69959500D01*
X22337334Y-69994106D01*
X22337332Y-69994106D01*
X22173455Y-70061985D01*
X22173454Y-70061985D01*
X22025965Y-70160535D01*
X21900535Y-70285965D01*
X21801985Y-70433454D01*
X21801985Y-70433455D01*
X21734106Y-70597332D01*
X21734106Y-70597334D01*
X21699500Y-70771306D01*
X20500500Y-70771306D01*
X20500500Y-68231306D01*
X21699500Y-68231306D01*
X21699500Y-68408693D01*
X21734106Y-68582665D01*
X21734106Y-68582667D01*
X21801985Y-68746544D01*
X21801985Y-68746545D01*
X21861663Y-68835858D01*
X21900536Y-68894035D01*
X22025965Y-69019464D01*
X22173453Y-69118013D01*
X22337334Y-69185894D01*
X22511309Y-69220500D01*
X22511310Y-69220500D01*
X23488690Y-69220500D01*
X23488691Y-69220500D01*
X23662666Y-69185894D01*
X23826547Y-69118013D01*
X23974035Y-69019464D01*
X24099464Y-68894035D01*
X24198013Y-68746547D01*
X24265894Y-68582666D01*
X24300500Y-68408691D01*
X24300500Y-68231309D01*
X24265894Y-68057334D01*
X24198014Y-67893455D01*
X24198014Y-67893454D01*
X24099464Y-67745965D01*
X23974034Y-67620535D01*
X23826544Y-67521985D01*
X23662666Y-67454106D01*
X23488693Y-67419500D01*
X23488691Y-67419500D01*
X22511309Y-67419500D01*
X22511306Y-67419500D01*
X22337334Y-67454106D01*
X22337332Y-67454106D01*
X22173455Y-67521985D01*
X22173454Y-67521985D01*
X22025965Y-67620535D01*
X21900535Y-67745965D01*
X21801985Y-67893454D01*
X21801985Y-67893455D01*
X21734106Y-68057332D01*
X21734106Y-68057334D01*
X21699500Y-68231306D01*
X20500500Y-68231306D01*
X20500500Y-65691306D01*
X21699500Y-65691306D01*
X21699500Y-65868693D01*
X21734106Y-66042665D01*
X21734106Y-66042667D01*
X21801985Y-66206544D01*
X21801985Y-66206545D01*
X21888965Y-66336718D01*
X21900536Y-66354035D01*
X22025965Y-66479464D01*
X22173453Y-66578013D01*
X22337334Y-66645894D01*
X22511309Y-66680500D01*
X22511310Y-66680500D01*
X23488690Y-66680500D01*
X23488691Y-66680500D01*
X23662666Y-66645894D01*
X23826547Y-66578013D01*
X23974035Y-66479464D01*
X24099464Y-66354035D01*
X24198013Y-66206547D01*
X24265894Y-66042666D01*
X24300500Y-65868691D01*
X24300500Y-65691309D01*
X24265894Y-65517334D01*
X24231953Y-65435393D01*
X24198014Y-65353455D01*
X24198014Y-65353454D01*
X24099464Y-65205965D01*
X23974034Y-65080535D01*
X23826544Y-64981985D01*
X23662666Y-64914106D01*
X23488693Y-64879500D01*
X23488691Y-64879500D01*
X22511309Y-64879500D01*
X22511306Y-64879500D01*
X22337334Y-64914106D01*
X22337332Y-64914106D01*
X22173455Y-64981985D01*
X22173454Y-64981985D01*
X22025965Y-65080535D01*
X21900535Y-65205965D01*
X21801985Y-65353454D01*
X21801985Y-65353455D01*
X21734106Y-65517332D01*
X21734106Y-65517334D01*
X21699500Y-65691306D01*
X20500500Y-65691306D01*
X20500500Y-63151306D01*
X21699500Y-63151306D01*
X21699500Y-63151309D01*
X21699500Y-63328691D01*
X21727798Y-63470956D01*
X21734106Y-63502665D01*
X21734106Y-63502667D01*
X21801985Y-63666544D01*
X21801985Y-63666545D01*
X21900535Y-63814034D01*
X21900536Y-63814035D01*
X22025965Y-63939464D01*
X22173453Y-64038013D01*
X22337334Y-64105894D01*
X22511309Y-64140500D01*
X22511310Y-64140500D01*
X23488690Y-64140500D01*
X23488691Y-64140500D01*
X23662666Y-64105894D01*
X23826547Y-64038013D01*
X23974035Y-63939464D01*
X24099464Y-63814035D01*
X24198013Y-63666547D01*
X24265894Y-63502666D01*
X24300500Y-63328691D01*
X24300500Y-63151309D01*
X24265894Y-62977334D01*
X24198014Y-62813455D01*
X24198014Y-62813454D01*
X24099464Y-62665965D01*
X23974034Y-62540535D01*
X23826544Y-62441985D01*
X23662666Y-62374106D01*
X23488693Y-62339500D01*
X23488691Y-62339500D01*
X22511309Y-62339500D01*
X22511306Y-62339500D01*
X22337334Y-62374106D01*
X22337332Y-62374106D01*
X22173455Y-62441985D01*
X22173454Y-62441985D01*
X22025965Y-62540535D01*
X21900535Y-62665965D01*
X21801985Y-62813454D01*
X21801985Y-62813455D01*
X21734106Y-62977332D01*
X21734106Y-62977334D01*
X21699500Y-63151306D01*
X20500500Y-63151306D01*
X20500500Y-60611306D01*
X21699500Y-60611306D01*
X21699500Y-60788693D01*
X21734106Y-60962665D01*
X21734106Y-60962667D01*
X21801985Y-61126544D01*
X21801985Y-61126545D01*
X21900535Y-61274034D01*
X21900536Y-61274035D01*
X22025965Y-61399464D01*
X22173453Y-61498013D01*
X22173454Y-61498013D01*
X22173455Y-61498014D01*
X22184884Y-61502748D01*
X22337334Y-61565894D01*
X22511309Y-61600500D01*
X22511310Y-61600500D01*
X23488690Y-61600500D01*
X23488691Y-61600500D01*
X23662666Y-61565894D01*
X23826547Y-61498013D01*
X23974035Y-61399464D01*
X24099464Y-61274035D01*
X24198013Y-61126547D01*
X24265894Y-60962666D01*
X24300500Y-60788691D01*
X24300500Y-60611309D01*
X24265894Y-60437334D01*
X24210458Y-60303498D01*
X24198014Y-60273455D01*
X24198014Y-60273454D01*
X24099464Y-60125965D01*
X23974034Y-60000535D01*
X23826544Y-59901985D01*
X23662666Y-59834106D01*
X23488693Y-59799500D01*
X23488691Y-59799500D01*
X22511309Y-59799500D01*
X22511306Y-59799500D01*
X22337334Y-59834106D01*
X22337332Y-59834106D01*
X22173455Y-59901985D01*
X22173454Y-59901985D01*
X22025965Y-60000535D01*
X21900535Y-60125965D01*
X21801985Y-60273454D01*
X21801985Y-60273455D01*
X21734106Y-60437332D01*
X21734106Y-60437334D01*
X21699500Y-60611306D01*
X20500500Y-60611306D01*
X20500500Y-58071306D01*
X21699500Y-58071306D01*
X21699500Y-58248693D01*
X21734106Y-58422665D01*
X21734106Y-58422667D01*
X21801985Y-58586544D01*
X21801985Y-58586545D01*
X21888965Y-58716718D01*
X21900536Y-58734035D01*
X22025965Y-58859464D01*
X22173453Y-58958013D01*
X22337334Y-59025894D01*
X22511309Y-59060500D01*
X22511310Y-59060500D01*
X23488690Y-59060500D01*
X23488691Y-59060500D01*
X23662666Y-59025894D01*
X23826547Y-58958013D01*
X23974035Y-58859464D01*
X24099464Y-58734035D01*
X24198013Y-58586547D01*
X24265894Y-58422666D01*
X24300500Y-58248691D01*
X24300500Y-58071309D01*
X24265894Y-57897334D01*
X24198014Y-57733455D01*
X24198014Y-57733454D01*
X24099464Y-57585965D01*
X23974034Y-57460535D01*
X23826544Y-57361985D01*
X23662666Y-57294106D01*
X23488693Y-57259500D01*
X23488691Y-57259500D01*
X22511309Y-57259500D01*
X22511306Y-57259500D01*
X22337334Y-57294106D01*
X22337332Y-57294106D01*
X22173455Y-57361985D01*
X22173454Y-57361985D01*
X22025965Y-57460535D01*
X21900535Y-57585965D01*
X21801985Y-57733454D01*
X21801985Y-57733455D01*
X21734106Y-57897332D01*
X21734106Y-57897334D01*
X21699500Y-58071306D01*
X20500500Y-58071306D01*
X20500500Y-55531306D01*
X21699500Y-55531306D01*
X21699500Y-55708693D01*
X21734106Y-55882665D01*
X21734106Y-55882667D01*
X21801985Y-56046544D01*
X21801985Y-56046545D01*
X21900535Y-56194034D01*
X21900536Y-56194035D01*
X22025965Y-56319464D01*
X22173453Y-56418013D01*
X22337334Y-56485894D01*
X22511309Y-56520500D01*
X22511310Y-56520500D01*
X23488690Y-56520500D01*
X23488691Y-56520500D01*
X23662666Y-56485894D01*
X23826547Y-56418013D01*
X23974035Y-56319464D01*
X24099464Y-56194035D01*
X24198013Y-56046547D01*
X24265894Y-55882666D01*
X24300500Y-55708691D01*
X24300500Y-55531309D01*
X24265894Y-55357334D01*
X24198014Y-55193455D01*
X24198014Y-55193454D01*
X24099464Y-55045965D01*
X23974034Y-54920535D01*
X23826544Y-54821985D01*
X23662666Y-54754106D01*
X23488693Y-54719500D01*
X23488691Y-54719500D01*
X22511309Y-54719500D01*
X22511306Y-54719500D01*
X22337334Y-54754106D01*
X22337332Y-54754106D01*
X22173455Y-54821985D01*
X22173454Y-54821985D01*
X22025965Y-54920535D01*
X21900535Y-55045965D01*
X21801985Y-55193454D01*
X21801985Y-55193455D01*
X21734106Y-55357332D01*
X21734106Y-55357334D01*
X21699500Y-55531306D01*
X20500500Y-55531306D01*
X20500500Y-52991306D01*
X21699500Y-52991306D01*
X21699500Y-53168693D01*
X21734106Y-53342665D01*
X21734106Y-53342667D01*
X21801985Y-53506544D01*
X21801985Y-53506545D01*
X21900535Y-53654034D01*
X21900536Y-53654035D01*
X22025965Y-53779464D01*
X22173453Y-53878013D01*
X22337334Y-53945894D01*
X22511309Y-53980500D01*
X22511310Y-53980500D01*
X23488690Y-53980500D01*
X23488691Y-53980500D01*
X23662666Y-53945894D01*
X23826547Y-53878013D01*
X23974035Y-53779464D01*
X24099464Y-53654035D01*
X24198013Y-53506547D01*
X24265894Y-53342666D01*
X24300500Y-53168691D01*
X24300500Y-52991309D01*
X24265894Y-52817334D01*
X24198014Y-52653455D01*
X24198014Y-52653454D01*
X24099464Y-52505965D01*
X23974034Y-52380535D01*
X23826544Y-52281985D01*
X23662666Y-52214106D01*
X23488693Y-52179500D01*
X23488691Y-52179500D01*
X22511309Y-52179500D01*
X22511306Y-52179500D01*
X22337334Y-52214106D01*
X22337332Y-52214106D01*
X22173455Y-52281985D01*
X22173454Y-52281985D01*
X22025965Y-52380535D01*
X21900535Y-52505965D01*
X21801985Y-52653454D01*
X21801985Y-52653455D01*
X21734106Y-52817332D01*
X21734106Y-52817334D01*
X21699500Y-52991306D01*
X20500500Y-52991306D01*
X20500500Y-50451306D01*
X21699500Y-50451306D01*
X21699500Y-50628693D01*
X21734106Y-50802665D01*
X21734106Y-50802667D01*
X21801985Y-50966544D01*
X21801985Y-50966545D01*
X21900535Y-51114034D01*
X21900536Y-51114035D01*
X22025965Y-51239464D01*
X22173453Y-51338013D01*
X22337334Y-51405894D01*
X22511309Y-51440500D01*
X22511310Y-51440500D01*
X23488690Y-51440500D01*
X23488691Y-51440500D01*
X23662666Y-51405894D01*
X23826547Y-51338013D01*
X23974035Y-51239464D01*
X24099464Y-51114035D01*
X24198013Y-50966547D01*
X24265894Y-50802666D01*
X24300500Y-50628691D01*
X24300500Y-50451309D01*
X24265894Y-50277334D01*
X24198014Y-50113455D01*
X24198014Y-50113454D01*
X24099464Y-49965965D01*
X23974034Y-49840535D01*
X23826544Y-49741985D01*
X23662666Y-49674106D01*
X23488693Y-49639500D01*
X23488691Y-49639500D01*
X22511309Y-49639500D01*
X22511306Y-49639500D01*
X22337334Y-49674106D01*
X22337332Y-49674106D01*
X22173455Y-49741985D01*
X22173454Y-49741985D01*
X22025965Y-49840535D01*
X21900535Y-49965965D01*
X21801985Y-50113454D01*
X21801985Y-50113455D01*
X21734106Y-50277332D01*
X21734106Y-50277334D01*
X21699500Y-50451306D01*
X20500500Y-50451306D01*
X20500500Y-47355130D01*
X21699500Y-47355130D01*
X21699500Y-48644860D01*
X21699501Y-48644863D01*
X21702414Y-48669990D01*
X21722993Y-48716596D01*
X21747794Y-48772765D01*
X21827235Y-48852206D01*
X21930009Y-48897585D01*
X21955135Y-48900500D01*
X24044864Y-48900499D01*
X24069991Y-48897585D01*
X24172765Y-48852206D01*
X24252206Y-48772765D01*
X24297585Y-48669991D01*
X24300500Y-48644865D01*
X24300499Y-47355136D01*
X24297585Y-47330009D01*
X24252206Y-47227235D01*
X24172765Y-47147794D01*
X24069991Y-47102415D01*
X24069990Y-47102414D01*
X24069988Y-47102414D01*
X24044868Y-47099500D01*
X21955139Y-47099500D01*
X21955136Y-47099501D01*
X21930009Y-47102414D01*
X21827235Y-47147794D01*
X21747794Y-47227235D01*
X21702414Y-47330011D01*
X21699500Y-47355130D01*
X20500500Y-47355130D01*
X20500500Y-44181555D01*
X43939100Y-44181555D01*
X43939100Y-94839344D01*
X43969863Y-94993996D01*
X43969863Y-94993998D01*
X44030203Y-95139674D01*
X44030209Y-95139685D01*
X44082912Y-95218559D01*
X44117811Y-95270789D01*
X44229311Y-95382289D01*
X44307476Y-95434517D01*
X44360414Y-95469890D01*
X44360425Y-95469896D01*
X44414238Y-95492185D01*
X44506103Y-95530237D01*
X44660758Y-95561000D01*
X44660759Y-95561000D01*
X44818441Y-95561000D01*
X44818442Y-95561000D01*
X44973097Y-95530237D01*
X45118779Y-95469894D01*
X45249889Y-95382289D01*
X45361389Y-95270789D01*
X45448994Y-95139679D01*
X45509337Y-94993997D01*
X45540100Y-94839342D01*
X45540100Y-93628586D01*
X47095820Y-93628586D01*
X47095820Y-93805973D01*
X47130426Y-93979945D01*
X47130426Y-93979947D01*
X47198305Y-94143824D01*
X47198305Y-94143825D01*
X47265020Y-94243670D01*
X47296856Y-94291315D01*
X47422285Y-94416744D01*
X47569773Y-94515293D01*
X47569774Y-94515293D01*
X47569775Y-94515294D01*
X47606901Y-94530671D01*
X47733654Y-94583174D01*
X47907629Y-94617780D01*
X47907630Y-94617780D01*
X48885010Y-94617780D01*
X48885011Y-94617780D01*
X49058986Y-94583174D01*
X49222867Y-94515293D01*
X49370355Y-94416744D01*
X49495784Y-94291315D01*
X49594333Y-94143827D01*
X49662214Y-93979946D01*
X49696820Y-93805971D01*
X49696820Y-93628589D01*
X49662214Y-93454614D01*
X49628273Y-93372673D01*
X49594334Y-93290735D01*
X49594334Y-93290734D01*
X49495784Y-93143245D01*
X49370354Y-93017815D01*
X49222864Y-92919265D01*
X49058986Y-92851386D01*
X48885013Y-92816780D01*
X48885011Y-92816780D01*
X47907629Y-92816780D01*
X47907626Y-92816780D01*
X47733654Y-92851386D01*
X47733652Y-92851386D01*
X47569775Y-92919265D01*
X47569774Y-92919265D01*
X47422285Y-93017815D01*
X47296855Y-93143245D01*
X47198305Y-93290734D01*
X47198305Y-93290735D01*
X47130426Y-93454612D01*
X47130426Y-93454614D01*
X47095820Y-93628586D01*
X45540100Y-93628586D01*
X45540100Y-91088586D01*
X47095820Y-91088586D01*
X47095820Y-91088589D01*
X47095820Y-91265971D01*
X47112785Y-91351256D01*
X47130426Y-91439945D01*
X47130426Y-91439947D01*
X47198305Y-91603824D01*
X47198305Y-91603825D01*
X47200124Y-91606547D01*
X47296856Y-91751315D01*
X47422285Y-91876744D01*
X47569773Y-91975293D01*
X47569774Y-91975293D01*
X47569775Y-91975294D01*
X47576342Y-91978014D01*
X47733654Y-92043174D01*
X47907629Y-92077780D01*
X47907630Y-92077780D01*
X48885010Y-92077780D01*
X48885011Y-92077780D01*
X49058986Y-92043174D01*
X49222867Y-91975293D01*
X49370355Y-91876744D01*
X49495784Y-91751315D01*
X49594333Y-91603827D01*
X49662214Y-91439946D01*
X49696820Y-91265971D01*
X49696820Y-91088589D01*
X49662214Y-90914614D01*
X49617642Y-90807007D01*
X49594334Y-90750735D01*
X49594334Y-90750734D01*
X49495784Y-90603245D01*
X49370354Y-90477815D01*
X49222864Y-90379265D01*
X49058986Y-90311386D01*
X49006958Y-90301037D01*
X48885013Y-90276780D01*
X48885011Y-90276780D01*
X47907629Y-90276780D01*
X47907626Y-90276780D01*
X47733654Y-90311386D01*
X47733652Y-90311386D01*
X47569775Y-90379265D01*
X47569774Y-90379265D01*
X47422285Y-90477815D01*
X47296855Y-90603245D01*
X47198305Y-90750734D01*
X47198305Y-90750735D01*
X47130426Y-90914612D01*
X47130426Y-90914614D01*
X47095820Y-91088586D01*
X45540100Y-91088586D01*
X45540100Y-90206893D01*
X79699500Y-90206893D01*
X79699500Y-91793106D01*
X79710123Y-91881565D01*
X79765637Y-92022339D01*
X79765638Y-92022341D01*
X79765639Y-92022342D01*
X79857078Y-92142922D01*
X79977658Y-92234361D01*
X79977659Y-92234361D01*
X79977660Y-92234362D01*
X80048047Y-92262119D01*
X80118436Y-92289877D01*
X80206898Y-92300500D01*
X80420307Y-92300500D01*
X80478498Y-92319407D01*
X80490311Y-92329496D01*
X82259731Y-94098915D01*
X82259734Y-94098919D01*
X82404481Y-94243666D01*
X82404484Y-94243668D01*
X82404486Y-94243670D01*
X82538141Y-94340775D01*
X82570090Y-94363987D01*
X82752482Y-94456921D01*
X82940506Y-94518013D01*
X82947166Y-94520177D01*
X82947172Y-94520178D01*
X82947169Y-94520178D01*
X83149345Y-94552200D01*
X83149348Y-94552200D01*
X90568655Y-94552200D01*
X90770830Y-94520178D01*
X90770831Y-94520177D01*
X90770835Y-94520177D01*
X90868176Y-94488548D01*
X90965519Y-94456920D01*
X91095169Y-94390860D01*
X91147911Y-94363987D01*
X91313519Y-94243666D01*
X91577240Y-93979945D01*
X91719190Y-93837996D01*
X91773706Y-93810219D01*
X91789193Y-93809000D01*
X93961807Y-93809000D01*
X94019998Y-93827907D01*
X94031811Y-93837996D01*
X96584453Y-96390637D01*
X99041031Y-98847215D01*
X99041034Y-98847219D01*
X99185781Y-98991966D01*
X99185784Y-98991968D01*
X99185786Y-98991970D01*
X99319859Y-99089378D01*
X99319860Y-99089380D01*
X99351386Y-99112285D01*
X99351390Y-99112287D01*
X99533782Y-99205221D01*
X99728466Y-99268477D01*
X99809338Y-99281286D01*
X99930645Y-99300500D01*
X99930648Y-99300500D01*
X99930649Y-99300500D01*
X100135352Y-99300500D01*
X103285070Y-99300500D01*
X103343261Y-99319407D01*
X103377167Y-99363181D01*
X103390637Y-99397340D01*
X103461487Y-99490769D01*
X103482078Y-99517922D01*
X103602658Y-99609361D01*
X103602659Y-99609361D01*
X103602660Y-99609362D01*
X103673047Y-99637119D01*
X103743436Y-99664877D01*
X103831898Y-99675500D01*
X103831900Y-99675500D01*
X106168100Y-99675500D01*
X106168102Y-99675500D01*
X106256564Y-99664877D01*
X106397342Y-99609361D01*
X106517922Y-99517922D01*
X106609361Y-99397342D01*
X106664877Y-99256564D01*
X106675500Y-99168102D01*
X106675500Y-97877105D01*
X108525000Y-97877105D01*
X108525000Y-98122894D01*
X108557081Y-98366571D01*
X108557081Y-98366576D01*
X108620695Y-98603984D01*
X108620699Y-98603997D01*
X108714753Y-98831067D01*
X108714755Y-98831072D01*
X108837647Y-99043926D01*
X108909229Y-99137215D01*
X109627545Y-98418898D01*
X109720343Y-98557780D01*
X109842220Y-98679657D01*
X109981099Y-98772452D01*
X109262783Y-99490769D01*
X109356073Y-99562352D01*
X109568927Y-99685244D01*
X109568932Y-99685246D01*
X109796002Y-99779300D01*
X109796015Y-99779304D01*
X110033425Y-99842918D01*
X110277105Y-99874999D01*
X110277107Y-99875000D01*
X110522893Y-99875000D01*
X110522894Y-99874999D01*
X110766571Y-99842918D01*
X110766576Y-99842918D01*
X111003984Y-99779304D01*
X111003997Y-99779300D01*
X111231067Y-99685246D01*
X111231072Y-99685244D01*
X111443922Y-99562355D01*
X111537215Y-99490769D01*
X110818899Y-98772453D01*
X110957780Y-98679657D01*
X111079657Y-98557780D01*
X111172453Y-98418899D01*
X111890769Y-99137215D01*
X111962355Y-99043922D01*
X112085244Y-98831072D01*
X112085246Y-98831067D01*
X112179300Y-98603997D01*
X112179304Y-98603984D01*
X112239667Y-98378710D01*
X118149500Y-98378710D01*
X118149500Y-98621289D01*
X118181161Y-98861781D01*
X118181161Y-98861786D01*
X118243944Y-99096092D01*
X118243948Y-99096105D01*
X118336772Y-99320204D01*
X118336774Y-99320208D01*
X118336776Y-99320212D01*
X118450924Y-99517922D01*
X118458066Y-99530292D01*
X118605729Y-99722731D01*
X118605731Y-99722733D01*
X118605735Y-99722738D01*
X118777262Y-99894265D01*
X118777266Y-99894268D01*
X118777268Y-99894270D01*
X118969707Y-100041933D01*
X118969711Y-100041936D01*
X119179788Y-100163224D01*
X119403900Y-100256054D01*
X119638211Y-100318838D01*
X119878712Y-100350500D01*
X119878713Y-100350500D01*
X120121287Y-100350500D01*
X120121288Y-100350500D01*
X120361789Y-100318838D01*
X120596100Y-100256054D01*
X120820212Y-100163224D01*
X121030289Y-100041936D01*
X121222738Y-99894265D01*
X121394265Y-99722738D01*
X121541936Y-99530289D01*
X121663224Y-99320212D01*
X121756054Y-99096100D01*
X121818838Y-98861789D01*
X121850500Y-98621288D01*
X121850500Y-98378712D01*
X121818838Y-98138211D01*
X121756054Y-97903900D01*
X121663224Y-97679788D01*
X121541936Y-97469711D01*
X121541933Y-97469707D01*
X121394270Y-97277268D01*
X121394268Y-97277266D01*
X121394265Y-97277262D01*
X121222738Y-97105735D01*
X121222733Y-97105731D01*
X121222731Y-97105729D01*
X121030292Y-96958066D01*
X121026840Y-96956073D01*
X120820212Y-96836776D01*
X120820208Y-96836774D01*
X120820204Y-96836772D01*
X120596105Y-96743948D01*
X120596104Y-96743947D01*
X120596100Y-96743946D01*
X120361789Y-96681162D01*
X120361786Y-96681161D01*
X120361784Y-96681161D01*
X120121289Y-96649500D01*
X120121288Y-96649500D01*
X119878712Y-96649500D01*
X119878710Y-96649500D01*
X119638218Y-96681161D01*
X119638213Y-96681161D01*
X119403907Y-96743944D01*
X119403894Y-96743948D01*
X119179795Y-96836772D01*
X118969707Y-96958066D01*
X118777268Y-97105729D01*
X118605729Y-97277268D01*
X118458066Y-97469707D01*
X118336772Y-97679795D01*
X118243948Y-97903894D01*
X118243944Y-97903907D01*
X118181161Y-98138213D01*
X118181161Y-98138218D01*
X118149500Y-98378710D01*
X112239667Y-98378710D01*
X112242918Y-98366576D01*
X112242920Y-98366565D01*
X112243450Y-98362543D01*
X112274999Y-98122895D01*
X112275000Y-98122893D01*
X112275000Y-97877107D01*
X112274999Y-97877105D01*
X112242918Y-97633428D01*
X112242918Y-97633423D01*
X112179304Y-97396015D01*
X112179300Y-97396002D01*
X112085246Y-97168932D01*
X112085244Y-97168927D01*
X111962352Y-96956073D01*
X111890768Y-96862783D01*
X111172452Y-97581098D01*
X111079657Y-97442220D01*
X110957780Y-97320343D01*
X110818898Y-97227545D01*
X111537215Y-96509229D01*
X111443926Y-96437647D01*
X111231072Y-96314755D01*
X111231067Y-96314753D01*
X111003997Y-96220699D01*
X111003984Y-96220695D01*
X110766574Y-96157081D01*
X110522894Y-96125000D01*
X110277105Y-96125000D01*
X110033428Y-96157081D01*
X110033423Y-96157081D01*
X109796015Y-96220695D01*
X109796002Y-96220699D01*
X109568932Y-96314753D01*
X109568927Y-96314755D01*
X109356078Y-96437644D01*
X109262783Y-96509229D01*
X109981100Y-97227546D01*
X109842220Y-97320343D01*
X109720343Y-97442220D01*
X109627546Y-97581100D01*
X108909229Y-96862783D01*
X108837644Y-96956078D01*
X108714755Y-97168927D01*
X108714753Y-97168932D01*
X108620699Y-97396002D01*
X108620695Y-97396015D01*
X108557081Y-97633423D01*
X108557081Y-97633428D01*
X108525000Y-97877105D01*
X106675500Y-97877105D01*
X106675500Y-96831898D01*
X106664877Y-96743436D01*
X106627833Y-96649500D01*
X106609362Y-96602660D01*
X106609361Y-96602659D01*
X106609361Y-96602658D01*
X106517922Y-96482078D01*
X106397342Y-96390639D01*
X106397341Y-96390638D01*
X106397339Y-96390637D01*
X106256565Y-96335123D01*
X106168106Y-96324500D01*
X106168102Y-96324500D01*
X103831898Y-96324500D01*
X103831893Y-96324500D01*
X103743434Y-96335123D01*
X103602660Y-96390637D01*
X103602656Y-96390640D01*
X103482081Y-96482075D01*
X103482075Y-96482081D01*
X103390637Y-96602659D01*
X103377167Y-96636819D01*
X103338231Y-96684016D01*
X103285070Y-96699500D01*
X100612692Y-96699500D01*
X100554501Y-96680593D01*
X100542688Y-96670504D01*
X98016008Y-94143824D01*
X95388719Y-91516534D01*
X95223111Y-91396213D01*
X95223110Y-91396212D01*
X95223108Y-91396211D01*
X95131914Y-91349746D01*
X95040719Y-91303280D01*
X94925894Y-91265971D01*
X94925894Y-91265970D01*
X94846040Y-91240023D01*
X94846035Y-91240022D01*
X94643855Y-91208000D01*
X94643852Y-91208000D01*
X92609000Y-91208000D01*
X92550809Y-91189093D01*
X92514845Y-91139593D01*
X92510000Y-91109000D01*
X92510000Y-87257379D01*
X92528907Y-87199188D01*
X92578407Y-87163224D01*
X92639593Y-87163224D01*
X92689093Y-87199188D01*
X92697210Y-87212435D01*
X92706872Y-87231399D01*
X92706873Y-87231401D01*
X92706874Y-87231402D01*
X92706876Y-87231405D01*
X92822572Y-87390646D01*
X92961754Y-87529828D01*
X93120995Y-87645524D01*
X93296375Y-87734884D01*
X93483574Y-87795709D01*
X93483575Y-87795709D01*
X93483578Y-87795710D01*
X93677980Y-87826500D01*
X93677983Y-87826500D01*
X93874820Y-87826500D01*
X94069221Y-87795710D01*
X94069222Y-87795709D01*
X94069226Y-87795709D01*
X94256425Y-87734884D01*
X94431805Y-87645524D01*
X94591046Y-87529828D01*
X94730228Y-87390646D01*
X94845924Y-87231405D01*
X94935284Y-87056025D01*
X94996109Y-86868826D01*
X94999012Y-86850500D01*
X95026900Y-86674420D01*
X95026900Y-86477579D01*
X94996110Y-86283178D01*
X94965409Y-86188691D01*
X94935284Y-86095975D01*
X94845924Y-85920595D01*
X94730228Y-85761354D01*
X94591046Y-85622172D01*
X94573536Y-85609450D01*
X114349500Y-85609450D01*
X114349500Y-85790549D01*
X114377828Y-85969406D01*
X114377829Y-85969409D01*
X114433789Y-86141639D01*
X114516004Y-86302994D01*
X114622447Y-86449501D01*
X114750499Y-86577553D01*
X114897006Y-86683996D01*
X115058361Y-86766211D01*
X115230591Y-86822171D01*
X115302136Y-86833502D01*
X115409451Y-86850500D01*
X115409454Y-86850500D01*
X115590549Y-86850500D01*
X115679977Y-86836335D01*
X115769409Y-86822171D01*
X115941639Y-86766211D01*
X116102994Y-86683996D01*
X116249501Y-86577553D01*
X116377553Y-86449501D01*
X116483996Y-86302994D01*
X116566211Y-86141639D01*
X116622171Y-85969409D01*
X116650500Y-85790546D01*
X116650500Y-85609454D01*
X116650500Y-85609450D01*
X116622171Y-85430593D01*
X116622171Y-85430591D01*
X116566211Y-85258361D01*
X116483996Y-85097006D01*
X116377553Y-84950499D01*
X116249501Y-84822447D01*
X116102994Y-84716004D01*
X116102993Y-84716003D01*
X116102991Y-84716002D01*
X115941637Y-84633788D01*
X115769406Y-84577828D01*
X115590549Y-84549500D01*
X115590546Y-84549500D01*
X115409454Y-84549500D01*
X115409451Y-84549500D01*
X115230593Y-84577828D01*
X115058362Y-84633788D01*
X114897008Y-84716002D01*
X114823752Y-84769225D01*
X114750499Y-84822447D01*
X114622447Y-84950499D01*
X114569225Y-85023752D01*
X114516002Y-85097008D01*
X114433788Y-85258362D01*
X114377828Y-85430593D01*
X114349500Y-85609450D01*
X94573536Y-85609450D01*
X94431805Y-85506476D01*
X94431804Y-85506475D01*
X94431802Y-85506474D01*
X94256425Y-85417116D01*
X94069221Y-85356289D01*
X93874820Y-85325500D01*
X93874817Y-85325500D01*
X93677983Y-85325500D01*
X93677980Y-85325500D01*
X93483578Y-85356289D01*
X93296374Y-85417116D01*
X93120997Y-85506474D01*
X92961755Y-85622171D01*
X92822571Y-85761355D01*
X92706873Y-85920598D01*
X92706872Y-85920600D01*
X92697209Y-85939566D01*
X92653944Y-85982830D01*
X92593512Y-85992401D01*
X92538996Y-85964623D01*
X92511219Y-85910106D01*
X92510000Y-85894620D01*
X92510000Y-84373186D01*
X92528907Y-84314995D01*
X92578407Y-84279031D01*
X92639593Y-84279031D01*
X92667191Y-84293093D01*
X92718848Y-84330624D01*
X92908184Y-84427095D01*
X93110277Y-84492758D01*
X93176399Y-84503231D01*
X93176400Y-84503230D01*
X93176400Y-83609012D01*
X93233407Y-83641925D01*
X93360574Y-83676000D01*
X93492226Y-83676000D01*
X93619393Y-83641925D01*
X93676400Y-83609012D01*
X93676400Y-84503231D01*
X93742522Y-84492758D01*
X93944615Y-84427095D01*
X94133952Y-84330624D01*
X94305864Y-84205722D01*
X94456122Y-84055464D01*
X94581024Y-83883552D01*
X94677495Y-83694215D01*
X94743158Y-83492122D01*
X94753631Y-83426000D01*
X93859412Y-83426000D01*
X93892325Y-83368993D01*
X93926400Y-83241826D01*
X93926400Y-83110174D01*
X93915488Y-83069450D01*
X114349500Y-83069450D01*
X114349500Y-83250549D01*
X114377828Y-83429406D01*
X114425490Y-83576099D01*
X114433789Y-83601639D01*
X114516004Y-83762994D01*
X114622447Y-83909501D01*
X114750499Y-84037553D01*
X114897006Y-84143996D01*
X115058361Y-84226211D01*
X115230591Y-84282171D01*
X115299550Y-84293093D01*
X115409451Y-84310500D01*
X115409454Y-84310500D01*
X115590549Y-84310500D01*
X115679977Y-84296335D01*
X115769409Y-84282171D01*
X115941639Y-84226211D01*
X116102994Y-84143996D01*
X116249501Y-84037553D01*
X116377553Y-83909501D01*
X116483996Y-83762994D01*
X116566211Y-83601639D01*
X116622171Y-83429409D01*
X116650500Y-83250546D01*
X116650500Y-83069454D01*
X116650500Y-83069450D01*
X116631614Y-82950212D01*
X116622171Y-82890591D01*
X116566211Y-82718361D01*
X116483996Y-82557006D01*
X116377553Y-82410499D01*
X116249501Y-82282447D01*
X116102994Y-82176004D01*
X116102993Y-82176003D01*
X116102991Y-82176002D01*
X115941637Y-82093788D01*
X115769406Y-82037828D01*
X115590549Y-82009500D01*
X115590546Y-82009500D01*
X115409454Y-82009500D01*
X115409451Y-82009500D01*
X115230593Y-82037828D01*
X115058362Y-82093788D01*
X114897008Y-82176002D01*
X114823752Y-82229225D01*
X114750499Y-82282447D01*
X114622447Y-82410499D01*
X114580346Y-82468447D01*
X114516002Y-82557008D01*
X114433788Y-82718362D01*
X114377828Y-82890593D01*
X114349500Y-83069450D01*
X93915488Y-83069450D01*
X93892325Y-82983007D01*
X93859412Y-82926000D01*
X94753631Y-82926000D01*
X94753631Y-82925999D01*
X94743158Y-82859877D01*
X94677495Y-82657784D01*
X94581024Y-82468447D01*
X94456122Y-82296535D01*
X94305864Y-82146277D01*
X94133952Y-82021375D01*
X93944615Y-81924904D01*
X93853415Y-81895272D01*
X93803915Y-81859308D01*
X93785008Y-81801117D01*
X93803915Y-81742926D01*
X93853413Y-81706962D01*
X93853417Y-81706962D01*
X93853418Y-81706962D01*
X93868033Y-81702213D01*
X93868033Y-81702212D01*
X93868039Y-81702211D01*
X94029394Y-81619996D01*
X94175901Y-81513553D01*
X94303953Y-81385501D01*
X94410396Y-81238994D01*
X94492611Y-81077639D01*
X94548571Y-80905409D01*
X94570018Y-80769999D01*
X94576900Y-80726549D01*
X94576900Y-80545452D01*
X94576203Y-80541052D01*
X94576203Y-80541051D01*
X94574366Y-80529450D01*
X114349500Y-80529450D01*
X114349500Y-80710549D01*
X114377828Y-80889406D01*
X114403149Y-80967339D01*
X114433789Y-81061639D01*
X114516004Y-81222994D01*
X114622447Y-81369501D01*
X114750499Y-81497553D01*
X114897006Y-81603996D01*
X115058361Y-81686211D01*
X115230591Y-81742171D01*
X115302136Y-81753502D01*
X115409451Y-81770500D01*
X115409454Y-81770500D01*
X115590549Y-81770500D01*
X115679977Y-81756335D01*
X115769409Y-81742171D01*
X115941639Y-81686211D01*
X116102994Y-81603996D01*
X116249501Y-81497553D01*
X116377553Y-81369501D01*
X116483996Y-81222994D01*
X116566211Y-81061639D01*
X116622171Y-80889409D01*
X116640388Y-80774394D01*
X116650500Y-80710549D01*
X116650500Y-80529450D01*
X116622171Y-80350593D01*
X116622171Y-80350591D01*
X116566211Y-80178361D01*
X116483996Y-80017006D01*
X116377553Y-79870499D01*
X116249501Y-79742447D01*
X116102994Y-79636004D01*
X116102993Y-79636003D01*
X116102991Y-79636002D01*
X115941637Y-79553788D01*
X115769406Y-79497828D01*
X115590549Y-79469500D01*
X115590546Y-79469500D01*
X115409454Y-79469500D01*
X115409451Y-79469500D01*
X115230593Y-79497828D01*
X115058362Y-79553788D01*
X114897008Y-79636002D01*
X114827725Y-79686339D01*
X114750499Y-79742447D01*
X114622447Y-79870499D01*
X114586483Y-79920000D01*
X114516002Y-80017008D01*
X114433788Y-80178362D01*
X114377828Y-80350593D01*
X114349500Y-80529450D01*
X94574366Y-80529450D01*
X94548571Y-80366593D01*
X94548571Y-80366591D01*
X94492611Y-80194361D01*
X94410396Y-80033006D01*
X94303953Y-79886499D01*
X94175901Y-79758447D01*
X94029394Y-79652004D01*
X94029393Y-79652003D01*
X94029391Y-79652002D01*
X93868037Y-79569788D01*
X93695806Y-79513828D01*
X93516949Y-79485500D01*
X93516946Y-79485500D01*
X93335854Y-79485500D01*
X93335851Y-79485500D01*
X93156993Y-79513828D01*
X92984762Y-79569788D01*
X92823408Y-79652002D01*
X92735758Y-79715683D01*
X92676899Y-79758447D01*
X92676897Y-79758448D01*
X92676894Y-79758451D01*
X92673936Y-79760978D01*
X92672714Y-79759547D01*
X92624487Y-79784120D01*
X92564055Y-79774549D01*
X92520790Y-79731284D01*
X92510000Y-79686339D01*
X92510000Y-79045661D01*
X92528907Y-78987470D01*
X92578407Y-78951506D01*
X92639593Y-78951506D01*
X92673078Y-78972025D01*
X92673936Y-78971022D01*
X92676894Y-78973548D01*
X92676899Y-78973553D01*
X92823406Y-79079996D01*
X92984761Y-79162211D01*
X93156991Y-79218171D01*
X93228536Y-79229502D01*
X93335851Y-79246500D01*
X93335854Y-79246500D01*
X93516949Y-79246500D01*
X93617966Y-79230500D01*
X93695809Y-79218171D01*
X93868039Y-79162211D01*
X94029394Y-79079996D01*
X94175901Y-78973553D01*
X94303953Y-78845501D01*
X94410396Y-78698994D01*
X94492611Y-78537639D01*
X94548571Y-78365409D01*
X94576900Y-78186546D01*
X94576900Y-78005454D01*
X94574365Y-77989450D01*
X114349500Y-77989450D01*
X114349500Y-78170549D01*
X114377828Y-78349406D01*
X114377829Y-78349409D01*
X114433789Y-78521639D01*
X114516004Y-78682994D01*
X114622447Y-78829501D01*
X114750499Y-78957553D01*
X114897006Y-79063996D01*
X115058361Y-79146211D01*
X115230591Y-79202171D01*
X115302136Y-79213502D01*
X115409451Y-79230500D01*
X115409454Y-79230500D01*
X115590549Y-79230500D01*
X115679977Y-79216335D01*
X115769409Y-79202171D01*
X115941639Y-79146211D01*
X116102994Y-79063996D01*
X116249501Y-78957553D01*
X116377553Y-78829501D01*
X116483996Y-78682994D01*
X116566211Y-78521639D01*
X116622171Y-78349409D01*
X116643090Y-78217332D01*
X116650500Y-78170549D01*
X116650500Y-77989450D01*
X116624705Y-77826591D01*
X116622171Y-77810591D01*
X116566211Y-77638361D01*
X116483996Y-77477006D01*
X116377553Y-77330499D01*
X116249501Y-77202447D01*
X116102994Y-77096004D01*
X116102993Y-77096003D01*
X116102991Y-77096002D01*
X115941637Y-77013788D01*
X115769406Y-76957828D01*
X115590549Y-76929500D01*
X115590546Y-76929500D01*
X115409454Y-76929500D01*
X115409451Y-76929500D01*
X115230593Y-76957828D01*
X115058362Y-77013788D01*
X114897008Y-77096002D01*
X114827725Y-77146339D01*
X114750499Y-77202447D01*
X114622447Y-77330499D01*
X114571976Y-77399967D01*
X114516002Y-77477008D01*
X114433788Y-77638362D01*
X114377828Y-77810593D01*
X114349500Y-77989450D01*
X94574365Y-77989450D01*
X94548571Y-77826593D01*
X94548571Y-77826591D01*
X94492611Y-77654361D01*
X94410396Y-77493006D01*
X94303953Y-77346499D01*
X94175901Y-77218447D01*
X94029394Y-77112004D01*
X94029393Y-77112003D01*
X94029391Y-77112002D01*
X93868037Y-77029788D01*
X93695806Y-76973828D01*
X93516949Y-76945500D01*
X93516946Y-76945500D01*
X93335854Y-76945500D01*
X93335851Y-76945500D01*
X93156993Y-76973828D01*
X92984762Y-77029788D01*
X92823408Y-77112002D01*
X92735758Y-77175683D01*
X92676899Y-77218447D01*
X92676897Y-77218448D01*
X92676894Y-77218451D01*
X92673936Y-77220978D01*
X92672714Y-77219547D01*
X92624487Y-77244120D01*
X92564055Y-77234549D01*
X92520790Y-77191284D01*
X92510000Y-77146339D01*
X92510000Y-76505661D01*
X92528907Y-76447470D01*
X92578407Y-76411506D01*
X92639593Y-76411506D01*
X92673078Y-76432025D01*
X92673936Y-76431022D01*
X92676894Y-76433548D01*
X92676899Y-76433553D01*
X92823406Y-76539996D01*
X92984761Y-76622211D01*
X93156991Y-76678171D01*
X93228536Y-76689502D01*
X93335851Y-76706500D01*
X93335854Y-76706500D01*
X93516949Y-76706500D01*
X93617966Y-76690500D01*
X93695809Y-76678171D01*
X93868039Y-76622211D01*
X94029394Y-76539996D01*
X94175901Y-76433553D01*
X94303953Y-76305501D01*
X94410396Y-76158994D01*
X94492611Y-75997639D01*
X94548571Y-75825409D01*
X94576900Y-75646546D01*
X94576900Y-75465454D01*
X94574365Y-75449450D01*
X114349500Y-75449450D01*
X114349500Y-75630549D01*
X114377828Y-75809406D01*
X114433788Y-75981637D01*
X114472913Y-76058425D01*
X114516004Y-76142994D01*
X114622447Y-76289501D01*
X114750499Y-76417553D01*
X114897006Y-76523996D01*
X115058361Y-76606211D01*
X115230591Y-76662171D01*
X115302136Y-76673502D01*
X115409451Y-76690500D01*
X115409454Y-76690500D01*
X115590549Y-76690500D01*
X115679977Y-76676335D01*
X115769409Y-76662171D01*
X115941639Y-76606211D01*
X116102994Y-76523996D01*
X116249501Y-76417553D01*
X116377553Y-76289501D01*
X116483996Y-76142994D01*
X116566211Y-75981639D01*
X116622171Y-75809409D01*
X116643090Y-75677332D01*
X116650500Y-75630549D01*
X116650500Y-75449450D01*
X116622171Y-75270593D01*
X116622171Y-75270591D01*
X116566211Y-75098361D01*
X116483996Y-74937006D01*
X116377553Y-74790499D01*
X116249501Y-74662447D01*
X116102994Y-74556004D01*
X116102993Y-74556003D01*
X116102991Y-74556002D01*
X115941637Y-74473788D01*
X115769406Y-74417828D01*
X115590549Y-74389500D01*
X115590546Y-74389500D01*
X115409454Y-74389500D01*
X115409451Y-74389500D01*
X115230593Y-74417828D01*
X115058362Y-74473788D01*
X114897008Y-74556002D01*
X114827917Y-74606200D01*
X114750499Y-74662447D01*
X114622447Y-74790499D01*
X114604620Y-74815036D01*
X114516002Y-74937008D01*
X114433788Y-75098362D01*
X114377828Y-75270593D01*
X114349500Y-75449450D01*
X94574365Y-75449450D01*
X94548571Y-75286593D01*
X94548571Y-75286591D01*
X94492611Y-75114361D01*
X94410396Y-74953006D01*
X94303953Y-74806499D01*
X94175901Y-74678447D01*
X94029394Y-74572004D01*
X94029393Y-74572003D01*
X94029391Y-74572002D01*
X93868037Y-74489788D01*
X93803924Y-74468957D01*
X93754424Y-74432993D01*
X93735516Y-74374803D01*
X93754423Y-74316612D01*
X93764506Y-74304805D01*
X94172170Y-73897140D01*
X94174024Y-73895428D01*
X94175893Y-73893558D01*
X94175901Y-73893553D01*
X94303953Y-73765501D01*
X94410396Y-73618994D01*
X94492611Y-73457639D01*
X94548571Y-73285409D01*
X94576900Y-73106546D01*
X94576900Y-72925454D01*
X94576900Y-72925450D01*
X94548571Y-72746593D01*
X94548571Y-72746591D01*
X94492611Y-72574361D01*
X94410396Y-72413006D01*
X94303953Y-72266499D01*
X94175901Y-72138447D01*
X94130044Y-72105130D01*
X114349500Y-72105130D01*
X114349500Y-73894860D01*
X114349500Y-73894862D01*
X114349501Y-73894864D01*
X114349766Y-73897153D01*
X114352414Y-73919990D01*
X114372264Y-73964944D01*
X114397794Y-74022765D01*
X114477235Y-74102206D01*
X114580009Y-74147585D01*
X114605135Y-74150500D01*
X116394864Y-74150499D01*
X116419991Y-74147585D01*
X116522765Y-74102206D01*
X116602206Y-74022765D01*
X116647585Y-73919991D01*
X116650500Y-73894865D01*
X116650499Y-72105136D01*
X116647585Y-72080009D01*
X116602206Y-71977235D01*
X116522765Y-71897794D01*
X116419991Y-71852415D01*
X116419990Y-71852414D01*
X116419988Y-71852414D01*
X116394868Y-71849500D01*
X114605139Y-71849500D01*
X114605136Y-71849501D01*
X114580009Y-71852414D01*
X114477235Y-71897794D01*
X114397794Y-71977235D01*
X114352414Y-72080011D01*
X114349500Y-72105130D01*
X94130044Y-72105130D01*
X94029394Y-72032004D01*
X94029393Y-72032003D01*
X94029391Y-72032002D01*
X93868037Y-71949788D01*
X93695806Y-71893828D01*
X93516949Y-71865500D01*
X93516946Y-71865500D01*
X93335854Y-71865500D01*
X93335851Y-71865500D01*
X93156993Y-71893828D01*
X92984762Y-71949788D01*
X92823408Y-72032002D01*
X92735758Y-72095683D01*
X92676899Y-72138447D01*
X92676897Y-72138448D01*
X92676894Y-72138451D01*
X92676893Y-72138452D01*
X92547034Y-72268310D01*
X92545284Y-72270202D01*
X92539089Y-72276398D01*
X92484575Y-72304180D01*
X92469080Y-72305400D01*
X92451578Y-72305400D01*
X92406633Y-72294610D01*
X92370890Y-72276398D01*
X92320218Y-72250579D01*
X92256627Y-72229917D01*
X92125530Y-72187321D01*
X91923355Y-72155300D01*
X91923352Y-72155300D01*
X91718649Y-72155300D01*
X91718646Y-72155300D01*
X91516468Y-72187322D01*
X91321788Y-72250576D01*
X91139392Y-72343511D01*
X90973783Y-72463833D01*
X90217533Y-73220082D01*
X90097212Y-73385689D01*
X90092379Y-73395177D01*
X90092378Y-73395179D01*
X90004280Y-73568080D01*
X90004280Y-73568081D01*
X89974003Y-73661263D01*
X89974003Y-73661264D01*
X89974002Y-73661263D01*
X89948264Y-73740482D01*
X89948263Y-73740486D01*
X89941021Y-73762770D01*
X89941021Y-73762771D01*
X89909000Y-73964944D01*
X89909000Y-91852200D01*
X89890093Y-91910391D01*
X89840593Y-91946355D01*
X89810000Y-91951200D01*
X87357313Y-91951200D01*
X87299122Y-91932293D01*
X87263158Y-91882793D01*
X87263158Y-91821607D01*
X87277220Y-91794010D01*
X87282913Y-91786174D01*
X87282915Y-91786170D01*
X87390105Y-91575796D01*
X87390107Y-91575793D01*
X87463064Y-91351256D01*
X87463065Y-91351252D01*
X87500000Y-91118056D01*
X87500000Y-90881943D01*
X87463065Y-90648747D01*
X87463064Y-90648743D01*
X87390107Y-90424206D01*
X87390105Y-90424203D01*
X87282915Y-90213829D01*
X87282913Y-90213825D01*
X87222659Y-90130893D01*
X86482962Y-90870590D01*
X86465925Y-90807007D01*
X86400099Y-90692993D01*
X86307007Y-90599901D01*
X86192993Y-90534075D01*
X86129407Y-90517036D01*
X86869105Y-89777339D01*
X86786169Y-89717084D01*
X86575796Y-89609894D01*
X86575793Y-89609892D01*
X86351256Y-89536935D01*
X86351252Y-89536934D01*
X86118056Y-89500000D01*
X85881944Y-89500000D01*
X85648747Y-89536934D01*
X85648743Y-89536935D01*
X85424206Y-89609892D01*
X85424203Y-89609894D01*
X85213823Y-89717088D01*
X85130893Y-89777339D01*
X85870591Y-90517037D01*
X85807007Y-90534075D01*
X85692993Y-90599901D01*
X85599901Y-90692993D01*
X85534075Y-90807007D01*
X85517037Y-90870591D01*
X84777339Y-90130893D01*
X84717088Y-90213823D01*
X84609894Y-90424203D01*
X84609892Y-90424206D01*
X84536935Y-90648743D01*
X84536934Y-90648747D01*
X84500000Y-90881943D01*
X84500000Y-91118056D01*
X84536934Y-91351252D01*
X84536935Y-91351256D01*
X84609892Y-91575793D01*
X84609894Y-91575796D01*
X84717084Y-91786170D01*
X84717086Y-91786174D01*
X84722780Y-91794010D01*
X84741687Y-91852200D01*
X84722779Y-91910391D01*
X84673279Y-91946355D01*
X84642687Y-91951200D01*
X83831392Y-91951200D01*
X83773201Y-91932293D01*
X83761388Y-91922204D01*
X82329496Y-90490311D01*
X82301719Y-90435794D01*
X82300500Y-90420307D01*
X82300500Y-90206899D01*
X82300499Y-90206893D01*
X82289877Y-90118436D01*
X82234361Y-89977658D01*
X82142922Y-89857078D01*
X82022342Y-89765639D01*
X82022341Y-89765638D01*
X82022339Y-89765637D01*
X81881565Y-89710123D01*
X81793106Y-89699500D01*
X81793102Y-89699500D01*
X80206898Y-89699500D01*
X80206893Y-89699500D01*
X80118434Y-89710123D01*
X79977660Y-89765637D01*
X79977656Y-89765640D01*
X79857081Y-89857075D01*
X79857075Y-89857081D01*
X79765640Y-89977656D01*
X79765637Y-89977660D01*
X79710123Y-90118434D01*
X79699500Y-90206893D01*
X45540100Y-90206893D01*
X45540100Y-88551306D01*
X47099500Y-88551306D01*
X47099500Y-88728693D01*
X47134106Y-88902665D01*
X47134106Y-88902667D01*
X47201985Y-89066544D01*
X47201985Y-89066545D01*
X47300535Y-89214034D01*
X47300536Y-89214035D01*
X47425965Y-89339464D01*
X47573453Y-89438013D01*
X47737334Y-89505894D01*
X47911309Y-89540500D01*
X47911310Y-89540500D01*
X48888690Y-89540500D01*
X48888691Y-89540500D01*
X49062666Y-89505894D01*
X49226547Y-89438013D01*
X49374035Y-89339464D01*
X49499464Y-89214035D01*
X49598013Y-89066547D01*
X49665894Y-88902666D01*
X49700500Y-88728691D01*
X49700500Y-88551309D01*
X49665894Y-88377334D01*
X49598014Y-88213455D01*
X49598014Y-88213454D01*
X49499464Y-88065965D01*
X49374034Y-87940535D01*
X49226544Y-87841985D01*
X49062666Y-87774106D01*
X48888693Y-87739500D01*
X48888691Y-87739500D01*
X47911309Y-87739500D01*
X47911306Y-87739500D01*
X47737334Y-87774106D01*
X47737332Y-87774106D01*
X47573455Y-87841985D01*
X47573454Y-87841985D01*
X47425965Y-87940535D01*
X47300535Y-88065965D01*
X47201985Y-88213454D01*
X47201985Y-88213455D01*
X47134106Y-88377332D01*
X47134106Y-88377334D01*
X47099500Y-88551306D01*
X45540100Y-88551306D01*
X45540100Y-86011306D01*
X47099500Y-86011306D01*
X47099500Y-86188693D01*
X47134106Y-86362665D01*
X47134106Y-86362667D01*
X47201985Y-86526544D01*
X47201985Y-86526545D01*
X47236066Y-86577550D01*
X47300536Y-86674035D01*
X47425965Y-86799464D01*
X47573453Y-86898013D01*
X47737334Y-86965894D01*
X47911309Y-87000500D01*
X47911310Y-87000500D01*
X48888690Y-87000500D01*
X48888691Y-87000500D01*
X49062666Y-86965894D01*
X49226547Y-86898013D01*
X49374035Y-86799464D01*
X49499464Y-86674035D01*
X49598013Y-86526547D01*
X49665894Y-86362666D01*
X49700500Y-86188691D01*
X49700500Y-86011309D01*
X49665894Y-85837334D01*
X49598014Y-85673455D01*
X49598014Y-85673454D01*
X49499464Y-85525965D01*
X49374034Y-85400535D01*
X49226544Y-85301985D01*
X49062666Y-85234106D01*
X48888693Y-85199500D01*
X48888691Y-85199500D01*
X47911309Y-85199500D01*
X47911306Y-85199500D01*
X47737334Y-85234106D01*
X47737332Y-85234106D01*
X47573455Y-85301985D01*
X47573454Y-85301985D01*
X47425965Y-85400535D01*
X47300535Y-85525965D01*
X47201985Y-85673454D01*
X47201985Y-85673455D01*
X47134106Y-85837332D01*
X47134106Y-85837334D01*
X47099500Y-86011306D01*
X45540100Y-86011306D01*
X45540100Y-83471306D01*
X47099500Y-83471306D01*
X47099500Y-83648693D01*
X47134106Y-83822665D01*
X47134106Y-83822667D01*
X47201985Y-83986544D01*
X47201985Y-83986545D01*
X47236066Y-84037550D01*
X47300536Y-84134035D01*
X47425965Y-84259464D01*
X47573453Y-84358013D01*
X47737334Y-84425894D01*
X47911309Y-84460500D01*
X47911310Y-84460500D01*
X48888690Y-84460500D01*
X48888691Y-84460500D01*
X49062666Y-84425894D01*
X49226547Y-84358013D01*
X49374035Y-84259464D01*
X49499464Y-84134035D01*
X49598013Y-83986547D01*
X49665894Y-83822666D01*
X49700500Y-83648691D01*
X49700500Y-83471309D01*
X49665894Y-83297334D01*
X49598014Y-83133455D01*
X49598014Y-83133454D01*
X49499464Y-82985965D01*
X49374034Y-82860535D01*
X49226544Y-82761985D01*
X49062666Y-82694106D01*
X48888693Y-82659500D01*
X48888691Y-82659500D01*
X47911309Y-82659500D01*
X47911306Y-82659500D01*
X47737334Y-82694106D01*
X47737332Y-82694106D01*
X47573455Y-82761985D01*
X47573454Y-82761985D01*
X47425965Y-82860535D01*
X47300535Y-82985965D01*
X47201985Y-83133454D01*
X47201985Y-83133455D01*
X47134106Y-83297332D01*
X47134106Y-83297334D01*
X47099500Y-83471306D01*
X45540100Y-83471306D01*
X45540100Y-80931306D01*
X47099500Y-80931306D01*
X47099500Y-81108693D01*
X47134106Y-81282665D01*
X47134106Y-81282667D01*
X47201985Y-81446544D01*
X47201985Y-81446545D01*
X47300535Y-81594034D01*
X47300536Y-81594035D01*
X47425965Y-81719464D01*
X47573453Y-81818013D01*
X47737334Y-81885894D01*
X47911309Y-81920500D01*
X47911310Y-81920500D01*
X48888690Y-81920500D01*
X48888691Y-81920500D01*
X49062666Y-81885894D01*
X49226547Y-81818013D01*
X49374035Y-81719464D01*
X49499464Y-81594035D01*
X49598013Y-81446547D01*
X49665894Y-81282666D01*
X49700500Y-81108691D01*
X49700500Y-80931309D01*
X49665894Y-80757334D01*
X49598014Y-80593455D01*
X49598014Y-80593454D01*
X49499464Y-80445965D01*
X49374034Y-80320535D01*
X49226544Y-80221985D01*
X49062666Y-80154106D01*
X48888693Y-80119500D01*
X48888691Y-80119500D01*
X47911309Y-80119500D01*
X47911306Y-80119500D01*
X47737334Y-80154106D01*
X47737332Y-80154106D01*
X47573455Y-80221985D01*
X47573454Y-80221985D01*
X47425965Y-80320535D01*
X47300535Y-80445965D01*
X47201985Y-80593454D01*
X47201985Y-80593455D01*
X47134106Y-80757332D01*
X47134106Y-80757334D01*
X47099500Y-80931306D01*
X45540100Y-80931306D01*
X45540100Y-78391306D01*
X47099500Y-78391306D01*
X47099500Y-78568693D01*
X47134106Y-78742665D01*
X47134106Y-78742667D01*
X47201985Y-78906544D01*
X47201985Y-78906545D01*
X47300535Y-79054034D01*
X47300536Y-79054035D01*
X47425965Y-79179464D01*
X47573453Y-79278013D01*
X47737334Y-79345894D01*
X47911309Y-79380500D01*
X47911310Y-79380500D01*
X48888690Y-79380500D01*
X48888691Y-79380500D01*
X49062666Y-79345894D01*
X49226547Y-79278013D01*
X49374035Y-79179464D01*
X49499464Y-79054035D01*
X49598013Y-78906547D01*
X49665894Y-78742666D01*
X49700500Y-78568691D01*
X49700500Y-78391309D01*
X49665894Y-78217334D01*
X49631953Y-78135393D01*
X49598014Y-78053455D01*
X49598014Y-78053454D01*
X49499464Y-77905965D01*
X49374034Y-77780535D01*
X49226544Y-77681985D01*
X49062666Y-77614106D01*
X48888693Y-77579500D01*
X48888691Y-77579500D01*
X47911309Y-77579500D01*
X47911306Y-77579500D01*
X47737334Y-77614106D01*
X47737332Y-77614106D01*
X47573455Y-77681985D01*
X47573454Y-77681985D01*
X47425965Y-77780535D01*
X47300535Y-77905965D01*
X47201985Y-78053454D01*
X47201985Y-78053455D01*
X47134106Y-78217332D01*
X47134106Y-78217334D01*
X47099500Y-78391306D01*
X45540100Y-78391306D01*
X45540100Y-70771306D01*
X47099500Y-70771306D01*
X47099500Y-70948693D01*
X47134106Y-71122665D01*
X47134106Y-71122667D01*
X47201985Y-71286544D01*
X47201985Y-71286545D01*
X47288965Y-71416718D01*
X47300536Y-71434035D01*
X47425965Y-71559464D01*
X47573453Y-71658013D01*
X47737334Y-71725894D01*
X47911309Y-71760500D01*
X47911310Y-71760500D01*
X48888690Y-71760500D01*
X48888691Y-71760500D01*
X49062666Y-71725894D01*
X49164315Y-71683789D01*
X49225311Y-71678989D01*
X49277480Y-71710959D01*
X49300895Y-71767487D01*
X49301200Y-71775254D01*
X49301200Y-72484745D01*
X49282293Y-72542936D01*
X49232793Y-72578900D01*
X49171607Y-72578900D01*
X49164315Y-72576210D01*
X49062666Y-72534106D01*
X49062662Y-72534105D01*
X48888693Y-72499500D01*
X48888691Y-72499500D01*
X47911309Y-72499500D01*
X47911306Y-72499500D01*
X47737334Y-72534106D01*
X47737332Y-72534106D01*
X47573455Y-72601985D01*
X47573454Y-72601985D01*
X47425965Y-72700535D01*
X47300535Y-72825965D01*
X47201985Y-72973454D01*
X47201985Y-72973455D01*
X47134106Y-73137332D01*
X47134106Y-73137334D01*
X47099500Y-73311306D01*
X47099500Y-73488693D01*
X47115292Y-73568081D01*
X47133826Y-73661260D01*
X47134106Y-73662665D01*
X47134106Y-73662667D01*
X47201985Y-73826544D01*
X47201985Y-73826545D01*
X47294464Y-73964948D01*
X47300536Y-73974035D01*
X47425965Y-74099464D01*
X47573453Y-74198013D01*
X47737334Y-74265894D01*
X47911309Y-74300500D01*
X47911310Y-74300500D01*
X48888690Y-74300500D01*
X48888691Y-74300500D01*
X49062666Y-74265894D01*
X49226547Y-74198013D01*
X49374035Y-74099464D01*
X49499464Y-73974035D01*
X49569314Y-73869498D01*
X49617364Y-73831619D01*
X49651629Y-73825500D01*
X49782716Y-73825500D01*
X49782718Y-73825500D01*
X49890937Y-73796503D01*
X49890939Y-73796501D01*
X49890941Y-73796501D01*
X49944634Y-73765501D01*
X49987963Y-73740485D01*
X50067185Y-73661263D01*
X50120984Y-73568081D01*
X50123201Y-73564241D01*
X50123201Y-73564239D01*
X50123203Y-73564237D01*
X50152200Y-73456018D01*
X50152200Y-71455156D01*
X50171107Y-71396965D01*
X50181196Y-71385152D01*
X58165396Y-63400952D01*
X58219913Y-63373175D01*
X58280345Y-63382746D01*
X58323610Y-63426011D01*
X58334400Y-63470956D01*
X58334400Y-66689543D01*
X58315493Y-66747734D01*
X58305404Y-66759547D01*
X49664681Y-75400269D01*
X49610164Y-75428046D01*
X49549732Y-75418475D01*
X49512363Y-75385268D01*
X49499465Y-75365966D01*
X49374034Y-75240535D01*
X49226544Y-75141985D01*
X49062666Y-75074106D01*
X48888693Y-75039500D01*
X48888691Y-75039500D01*
X47911309Y-75039500D01*
X47911306Y-75039500D01*
X47737334Y-75074106D01*
X47737332Y-75074106D01*
X47573455Y-75141985D01*
X47573454Y-75141985D01*
X47425965Y-75240535D01*
X47300535Y-75365965D01*
X47201985Y-75513454D01*
X47201985Y-75513455D01*
X47134106Y-75677332D01*
X47134106Y-75677334D01*
X47099500Y-75851306D01*
X47099500Y-76028693D01*
X47134106Y-76202665D01*
X47134106Y-76202667D01*
X47201985Y-76366544D01*
X47201985Y-76366545D01*
X47300535Y-76514034D01*
X47300536Y-76514035D01*
X47425965Y-76639464D01*
X47573453Y-76738013D01*
X47737334Y-76805894D01*
X47911309Y-76840500D01*
X47911310Y-76840500D01*
X48888690Y-76840500D01*
X48888691Y-76840500D01*
X49062666Y-76805894D01*
X49226547Y-76738013D01*
X49374035Y-76639464D01*
X49499464Y-76514035D01*
X49569314Y-76409498D01*
X49617364Y-76371619D01*
X49651629Y-76365500D01*
X49782716Y-76365500D01*
X49782718Y-76365500D01*
X49890937Y-76336503D01*
X49890939Y-76336501D01*
X49890941Y-76336501D01*
X49944634Y-76305501D01*
X49987963Y-76280485D01*
X51907774Y-74360674D01*
X63738000Y-74360674D01*
X63738000Y-74559325D01*
X63769073Y-74755514D01*
X63830459Y-74944440D01*
X63920637Y-75121425D01*
X63947729Y-75158714D01*
X64619000Y-74487443D01*
X64619000Y-74510160D01*
X64644964Y-74607061D01*
X64695124Y-74693940D01*
X64766060Y-74764876D01*
X64852939Y-74815036D01*
X64949840Y-74841000D01*
X64972553Y-74841000D01*
X64301283Y-75512270D01*
X64338564Y-75539357D01*
X64338568Y-75539359D01*
X64515559Y-75629540D01*
X64704485Y-75690926D01*
X64900675Y-75722000D01*
X65099325Y-75722000D01*
X65295514Y-75690926D01*
X65484442Y-75629540D01*
X65507085Y-75618002D01*
X65567516Y-75608428D01*
X65622034Y-75636204D01*
X65649814Y-75690719D01*
X65640244Y-75751152D01*
X65622037Y-75776213D01*
X65434477Y-75963774D01*
X65379960Y-75991552D01*
X65326588Y-75985235D01*
X65309920Y-75978331D01*
X65104649Y-75937500D01*
X65104647Y-75937500D01*
X64895353Y-75937500D01*
X64895350Y-75937500D01*
X64690082Y-75978330D01*
X64690076Y-75978332D01*
X64496718Y-76058424D01*
X64322699Y-76174699D01*
X64174699Y-76322699D01*
X64058424Y-76496718D01*
X63978332Y-76690076D01*
X63978330Y-76690082D01*
X63937500Y-76895350D01*
X63937500Y-77104649D01*
X63978330Y-77309917D01*
X63978332Y-77309923D01*
X64058424Y-77503281D01*
X64174699Y-77677300D01*
X64174702Y-77677304D01*
X64322696Y-77825298D01*
X64496718Y-77941575D01*
X64690080Y-78021669D01*
X64895353Y-78062500D01*
X64895354Y-78062500D01*
X65104646Y-78062500D01*
X65104647Y-78062500D01*
X65309920Y-78021669D01*
X65503282Y-77941575D01*
X65677304Y-77825298D01*
X65825298Y-77677304D01*
X65941575Y-77503282D01*
X66021669Y-77309920D01*
X66062500Y-77104647D01*
X66062500Y-76895353D01*
X66021669Y-76690080D01*
X66021667Y-76690076D01*
X66014765Y-76673413D01*
X66009963Y-76612417D01*
X66036222Y-76565524D01*
X66522785Y-76078963D01*
X66562284Y-76010549D01*
X66578801Y-75981941D01*
X66578801Y-75981939D01*
X66578803Y-75981937D01*
X66607800Y-75873718D01*
X66607800Y-75761681D01*
X66607800Y-69581130D01*
X92275900Y-69581130D01*
X92275900Y-71370860D01*
X92275901Y-71370863D01*
X92278814Y-71395990D01*
X92295613Y-71434035D01*
X92324194Y-71498765D01*
X92403635Y-71578206D01*
X92506409Y-71623585D01*
X92531535Y-71626500D01*
X94321264Y-71626499D01*
X94346391Y-71623585D01*
X94449165Y-71578206D01*
X94528606Y-71498765D01*
X94573985Y-71395991D01*
X94576900Y-71370865D01*
X94576899Y-69581136D01*
X94573985Y-69556009D01*
X94528606Y-69453235D01*
X94449165Y-69373794D01*
X94346391Y-69328415D01*
X94346390Y-69328414D01*
X94346388Y-69328414D01*
X94321268Y-69325500D01*
X92531539Y-69325500D01*
X92531536Y-69325501D01*
X92506409Y-69328414D01*
X92403635Y-69373794D01*
X92324194Y-69453235D01*
X92278814Y-69556011D01*
X92275900Y-69581130D01*
X66607800Y-69581130D01*
X66607800Y-68944082D01*
X66578803Y-68835863D01*
X66578801Y-68835860D01*
X66578801Y-68835858D01*
X66522785Y-68738837D01*
X66443563Y-68659614D01*
X66443563Y-68659615D01*
X65921696Y-68137748D01*
X65893919Y-68083231D01*
X65892700Y-68067744D01*
X65892700Y-68030944D01*
X65892700Y-68030943D01*
X65851777Y-67878216D01*
X65772720Y-67741284D01*
X65757020Y-67725584D01*
X65729245Y-67671070D01*
X65738816Y-67610638D01*
X65757019Y-67585582D01*
X65825298Y-67517304D01*
X65941575Y-67343282D01*
X66021669Y-67149920D01*
X66062500Y-66944647D01*
X66062500Y-66735353D01*
X66021669Y-66530080D01*
X65941575Y-66336718D01*
X65825298Y-66162696D01*
X65677304Y-66014702D01*
X65503282Y-65898425D01*
X65503283Y-65898425D01*
X65503281Y-65898424D01*
X65309923Y-65818332D01*
X65309917Y-65818330D01*
X65104649Y-65777500D01*
X65104647Y-65777500D01*
X64895353Y-65777500D01*
X64895350Y-65777500D01*
X64690082Y-65818330D01*
X64690076Y-65818332D01*
X64496718Y-65898424D01*
X64322699Y-66014699D01*
X64174699Y-66162699D01*
X64058424Y-66336718D01*
X63978332Y-66530076D01*
X63978330Y-66530082D01*
X63937500Y-66735350D01*
X63937500Y-66944649D01*
X63978330Y-67149917D01*
X63978332Y-67149923D01*
X64058424Y-67343281D01*
X64174699Y-67517300D01*
X64174702Y-67517304D01*
X64322696Y-67665298D01*
X64496718Y-67781575D01*
X64652153Y-67845959D01*
X64698677Y-67885695D01*
X64712961Y-67945189D01*
X64709893Y-67963044D01*
X64691700Y-68030943D01*
X64691700Y-68189057D01*
X64703022Y-68231310D01*
X64709893Y-68256954D01*
X64706690Y-68318056D01*
X64668185Y-68365606D01*
X64652152Y-68374041D01*
X64496718Y-68438424D01*
X64322699Y-68554699D01*
X64174699Y-68702699D01*
X64058424Y-68876718D01*
X63978332Y-69070076D01*
X63978330Y-69070082D01*
X63937500Y-69275350D01*
X63937500Y-69484649D01*
X63978330Y-69689917D01*
X63978332Y-69689923D01*
X64058424Y-69883281D01*
X64174699Y-70057300D01*
X64174702Y-70057304D01*
X64322696Y-70205298D01*
X64496718Y-70321575D01*
X64690080Y-70401669D01*
X64895353Y-70442500D01*
X64895354Y-70442500D01*
X65104646Y-70442500D01*
X65104647Y-70442500D01*
X65309920Y-70401669D01*
X65503282Y-70321575D01*
X65602799Y-70255079D01*
X65661687Y-70238472D01*
X65719090Y-70259650D01*
X65753083Y-70310524D01*
X65756800Y-70337396D01*
X65756800Y-70962603D01*
X65737893Y-71020794D01*
X65688393Y-71056758D01*
X65627207Y-71056758D01*
X65602799Y-71044919D01*
X65503281Y-70978424D01*
X65309923Y-70898332D01*
X65309917Y-70898330D01*
X65104649Y-70857500D01*
X65104647Y-70857500D01*
X64895353Y-70857500D01*
X64895350Y-70857500D01*
X64690082Y-70898330D01*
X64690076Y-70898332D01*
X64496718Y-70978424D01*
X64322699Y-71094699D01*
X64174699Y-71242699D01*
X64058424Y-71416718D01*
X63978332Y-71610076D01*
X63978330Y-71610082D01*
X63937500Y-71815350D01*
X63937500Y-72024649D01*
X63978330Y-72229917D01*
X63978332Y-72229923D01*
X64058424Y-72423281D01*
X64162405Y-72578900D01*
X64174702Y-72597304D01*
X64322696Y-72745298D01*
X64496718Y-72861575D01*
X64690080Y-72941669D01*
X64895353Y-72982500D01*
X64895354Y-72982500D01*
X65104646Y-72982500D01*
X65104647Y-72982500D01*
X65309920Y-72941669D01*
X65503282Y-72861575D01*
X65602799Y-72795079D01*
X65661687Y-72778472D01*
X65719090Y-72799650D01*
X65753083Y-72850524D01*
X65756800Y-72877396D01*
X65756800Y-73267679D01*
X65737893Y-73325870D01*
X65688393Y-73361834D01*
X65627207Y-73361834D01*
X65612855Y-73355889D01*
X65484440Y-73290459D01*
X65295514Y-73229073D01*
X65099325Y-73198000D01*
X64900675Y-73198000D01*
X64704485Y-73229073D01*
X64515559Y-73290459D01*
X64338567Y-73380641D01*
X64301283Y-73407728D01*
X64972554Y-74079000D01*
X64949840Y-74079000D01*
X64852939Y-74104964D01*
X64766060Y-74155124D01*
X64695124Y-74226060D01*
X64644964Y-74312939D01*
X64619000Y-74409840D01*
X64619000Y-74432555D01*
X63947728Y-73761283D01*
X63920641Y-73798567D01*
X63830459Y-73975559D01*
X63769073Y-74164485D01*
X63738000Y-74360674D01*
X51907774Y-74360674D01*
X59100385Y-67168063D01*
X59156403Y-67071037D01*
X59185400Y-66962818D01*
X59185400Y-66850782D01*
X59185400Y-64195350D01*
X63937500Y-64195350D01*
X63937500Y-64404649D01*
X63978330Y-64609917D01*
X63978332Y-64609923D01*
X64058424Y-64803281D01*
X64145001Y-64932853D01*
X64174702Y-64977304D01*
X64322696Y-65125298D01*
X64496718Y-65241575D01*
X64690080Y-65321669D01*
X64895353Y-65362500D01*
X64895354Y-65362500D01*
X65104646Y-65362500D01*
X65104647Y-65362500D01*
X65309920Y-65321669D01*
X65503282Y-65241575D01*
X65677304Y-65125298D01*
X65825298Y-64977304D01*
X65941575Y-64803282D01*
X66021669Y-64609920D01*
X66062500Y-64404647D01*
X66062500Y-64195353D01*
X66021669Y-63990080D01*
X65941575Y-63796718D01*
X65825298Y-63622696D01*
X65677304Y-63474702D01*
X65671698Y-63470956D01*
X65503281Y-63358424D01*
X65309923Y-63278332D01*
X65309917Y-63278330D01*
X65104649Y-63237500D01*
X65104647Y-63237500D01*
X64895353Y-63237500D01*
X64895350Y-63237500D01*
X64690082Y-63278330D01*
X64690076Y-63278332D01*
X64496718Y-63358424D01*
X64322699Y-63474699D01*
X64174699Y-63622699D01*
X64058424Y-63796718D01*
X63978332Y-63990076D01*
X63978330Y-63990082D01*
X63937500Y-64195350D01*
X59185400Y-64195350D01*
X59185400Y-63285955D01*
X59204307Y-63227764D01*
X59214390Y-63215957D01*
X60769673Y-61660674D01*
X63738000Y-61660674D01*
X63738000Y-61859325D01*
X63769073Y-62055514D01*
X63830459Y-62244440D01*
X63920637Y-62421425D01*
X63947729Y-62458714D01*
X64619000Y-61787443D01*
X64619000Y-61810160D01*
X64644964Y-61907061D01*
X64695124Y-61993940D01*
X64766060Y-62064876D01*
X64852939Y-62115036D01*
X64949840Y-62141000D01*
X64972553Y-62141000D01*
X64301283Y-62812270D01*
X64338564Y-62839357D01*
X64338568Y-62839359D01*
X64515559Y-62929540D01*
X64704485Y-62990926D01*
X64900675Y-63022000D01*
X65099325Y-63022000D01*
X65295514Y-62990926D01*
X65484440Y-62929540D01*
X65661434Y-62839357D01*
X65698715Y-62812270D01*
X65027445Y-62141000D01*
X65050160Y-62141000D01*
X65147061Y-62115036D01*
X65233940Y-62064876D01*
X65304876Y-61993940D01*
X65355036Y-61907061D01*
X65381000Y-61810160D01*
X65381000Y-61787445D01*
X66052270Y-62458715D01*
X66079357Y-62421434D01*
X66169540Y-62244440D01*
X66230926Y-62055514D01*
X66262000Y-61859325D01*
X66262000Y-61660674D01*
X66230926Y-61464485D01*
X66169540Y-61275559D01*
X66079359Y-61098568D01*
X66079357Y-61098564D01*
X66052270Y-61061283D01*
X65381000Y-61732553D01*
X65381000Y-61709840D01*
X65355036Y-61612939D01*
X65304876Y-61526060D01*
X65233940Y-61455124D01*
X65147061Y-61404964D01*
X65050160Y-61379000D01*
X65027443Y-61379000D01*
X65698714Y-60707729D01*
X65661425Y-60680637D01*
X65484440Y-60590459D01*
X65295514Y-60529073D01*
X65099325Y-60498000D01*
X64900675Y-60498000D01*
X64704485Y-60529073D01*
X64515559Y-60590459D01*
X64338567Y-60680641D01*
X64301283Y-60707728D01*
X64972555Y-61379000D01*
X64949840Y-61379000D01*
X64852939Y-61404964D01*
X64766060Y-61455124D01*
X64695124Y-61526060D01*
X64644964Y-61612939D01*
X64619000Y-61709840D01*
X64619000Y-61732555D01*
X63947728Y-61061283D01*
X63920641Y-61098567D01*
X63830459Y-61275559D01*
X63769073Y-61464485D01*
X63738000Y-61660674D01*
X60769673Y-61660674D01*
X63314998Y-59115350D01*
X63937500Y-59115350D01*
X63937500Y-59324649D01*
X63978330Y-59529917D01*
X63978332Y-59529923D01*
X64058424Y-59723281D01*
X64174699Y-59897300D01*
X64174702Y-59897304D01*
X64322696Y-60045298D01*
X64496718Y-60161575D01*
X64690080Y-60241669D01*
X64895353Y-60282500D01*
X64895354Y-60282500D01*
X65104646Y-60282500D01*
X65104647Y-60282500D01*
X65309920Y-60241669D01*
X65503282Y-60161575D01*
X65677304Y-60045298D01*
X65825298Y-59897304D01*
X65941575Y-59723282D01*
X66021669Y-59529920D01*
X66062500Y-59324647D01*
X66062500Y-59115353D01*
X66021669Y-58910080D01*
X65941575Y-58716718D01*
X65825298Y-58542696D01*
X65677304Y-58394702D01*
X65503282Y-58278425D01*
X65503283Y-58278425D01*
X65503281Y-58278424D01*
X65309923Y-58198332D01*
X65309917Y-58198330D01*
X65104649Y-58157500D01*
X65104647Y-58157500D01*
X64895353Y-58157500D01*
X64895350Y-58157500D01*
X64690082Y-58198330D01*
X64690076Y-58198332D01*
X64496718Y-58278424D01*
X64322699Y-58394699D01*
X64174699Y-58542699D01*
X64058424Y-58716718D01*
X63978332Y-58910076D01*
X63978330Y-58910082D01*
X63937500Y-59115350D01*
X63314998Y-59115350D01*
X65556784Y-56873564D01*
X65612803Y-56776537D01*
X65641800Y-56668319D01*
X65641800Y-56556282D01*
X65641800Y-41499543D01*
X65660707Y-41441352D01*
X65670790Y-41429545D01*
X65696820Y-41403516D01*
X65775877Y-41266584D01*
X65816800Y-41113857D01*
X65816800Y-40955743D01*
X65775877Y-40803016D01*
X65696820Y-40666084D01*
X65585016Y-40554280D01*
X65448084Y-40475223D01*
X65295357Y-40434300D01*
X65137243Y-40434300D01*
X64984516Y-40475223D01*
X64847584Y-40554280D01*
X64735780Y-40666084D01*
X64656723Y-40803016D01*
X64615800Y-40955743D01*
X64615800Y-41113857D01*
X64656723Y-41266584D01*
X64735780Y-41403516D01*
X64761805Y-41429541D01*
X64789581Y-41484056D01*
X64790800Y-41499543D01*
X64790800Y-56395044D01*
X64771893Y-56453235D01*
X64761804Y-56465048D01*
X63840104Y-57386748D01*
X63785587Y-57414525D01*
X63725155Y-57404954D01*
X63681890Y-57361689D01*
X63671100Y-57316744D01*
X63671100Y-41390443D01*
X63690007Y-41332252D01*
X63700090Y-41320445D01*
X63726120Y-41294416D01*
X63805177Y-41157484D01*
X63846100Y-41004757D01*
X63846100Y-40846643D01*
X63805177Y-40693916D01*
X63726120Y-40556984D01*
X63614316Y-40445180D01*
X63477384Y-40366123D01*
X63324657Y-40325200D01*
X63166543Y-40325200D01*
X63013816Y-40366123D01*
X62876884Y-40445180D01*
X62765080Y-40556984D01*
X62686023Y-40693916D01*
X62645100Y-40846643D01*
X62645100Y-41004757D01*
X62686023Y-41157484D01*
X62765080Y-41294416D01*
X62791105Y-41320441D01*
X62818881Y-41374956D01*
X62820100Y-41390443D01*
X62820100Y-57501743D01*
X62801193Y-57559934D01*
X62791104Y-57571747D01*
X49799840Y-70563010D01*
X49745323Y-70590787D01*
X49684891Y-70581216D01*
X49641626Y-70537951D01*
X49638383Y-70530917D01*
X49598013Y-70433453D01*
X49499464Y-70285965D01*
X49374035Y-70160536D01*
X49322052Y-70125802D01*
X49226544Y-70061985D01*
X49062666Y-69994106D01*
X48888693Y-69959500D01*
X48888691Y-69959500D01*
X47911309Y-69959500D01*
X47911306Y-69959500D01*
X47737334Y-69994106D01*
X47737332Y-69994106D01*
X47573455Y-70061985D01*
X47573454Y-70061985D01*
X47425965Y-70160535D01*
X47300535Y-70285965D01*
X47201985Y-70433454D01*
X47201985Y-70433455D01*
X47134106Y-70597332D01*
X47134106Y-70597334D01*
X47099500Y-70771306D01*
X45540100Y-70771306D01*
X45540100Y-68231306D01*
X47099500Y-68231306D01*
X47099500Y-68408693D01*
X47134106Y-68582665D01*
X47134106Y-68582667D01*
X47201985Y-68746544D01*
X47201985Y-68746545D01*
X47261663Y-68835858D01*
X47300536Y-68894035D01*
X47425965Y-69019464D01*
X47573453Y-69118013D01*
X47737334Y-69185894D01*
X47911309Y-69220500D01*
X47911310Y-69220500D01*
X48888690Y-69220500D01*
X48888691Y-69220500D01*
X49062666Y-69185894D01*
X49226547Y-69118013D01*
X49374035Y-69019464D01*
X49499464Y-68894035D01*
X49598013Y-68746547D01*
X49665894Y-68582666D01*
X49700500Y-68408691D01*
X49700500Y-68231309D01*
X49665894Y-68057334D01*
X49598014Y-67893455D01*
X49598014Y-67893454D01*
X49499464Y-67745965D01*
X49374034Y-67620535D01*
X49226544Y-67521985D01*
X49062666Y-67454106D01*
X48888693Y-67419500D01*
X48888691Y-67419500D01*
X47911309Y-67419500D01*
X47911306Y-67419500D01*
X47737334Y-67454106D01*
X47737332Y-67454106D01*
X47573455Y-67521985D01*
X47573454Y-67521985D01*
X47425965Y-67620535D01*
X47300535Y-67745965D01*
X47201985Y-67893454D01*
X47201985Y-67893455D01*
X47134106Y-68057332D01*
X47134106Y-68057334D01*
X47099500Y-68231306D01*
X45540100Y-68231306D01*
X45540100Y-60694782D01*
X46597000Y-60694782D01*
X46597000Y-63590182D01*
X46597000Y-63702218D01*
X46622321Y-63796718D01*
X46625998Y-63810441D01*
X46682013Y-63907460D01*
X46682015Y-63907463D01*
X47304105Y-64529553D01*
X47331881Y-64584068D01*
X47333100Y-64599555D01*
X47333100Y-64636357D01*
X47374023Y-64789084D01*
X47453080Y-64926016D01*
X47453082Y-64926018D01*
X47453085Y-64926023D01*
X47457031Y-64931166D01*
X47454831Y-64932853D01*
X47477324Y-64976999D01*
X47467753Y-65037431D01*
X47434553Y-65074796D01*
X47425966Y-65080534D01*
X47300537Y-65205962D01*
X47201985Y-65353454D01*
X47201985Y-65353455D01*
X47134106Y-65517332D01*
X47134106Y-65517334D01*
X47099500Y-65691306D01*
X47099500Y-65868693D01*
X47134106Y-66042665D01*
X47134106Y-66042667D01*
X47201985Y-66206544D01*
X47201985Y-66206545D01*
X47288965Y-66336718D01*
X47300536Y-66354035D01*
X47425965Y-66479464D01*
X47573453Y-66578013D01*
X47737334Y-66645894D01*
X47911309Y-66680500D01*
X47911310Y-66680500D01*
X48888690Y-66680500D01*
X48888691Y-66680500D01*
X49062666Y-66645894D01*
X49226547Y-66578013D01*
X49374035Y-66479464D01*
X49499464Y-66354035D01*
X49598013Y-66206547D01*
X49665894Y-66042666D01*
X49700500Y-65868691D01*
X49700500Y-65691309D01*
X49665894Y-65517334D01*
X49631953Y-65435393D01*
X49598014Y-65353455D01*
X49598014Y-65353454D01*
X49499464Y-65205965D01*
X49374034Y-65080535D01*
X49226544Y-64981985D01*
X49062666Y-64914106D01*
X48888693Y-64879500D01*
X48888691Y-64879500D01*
X48597969Y-64879500D01*
X48539778Y-64860593D01*
X48503814Y-64811093D01*
X48502342Y-64754879D01*
X48534100Y-64636357D01*
X48534100Y-64478243D01*
X48530450Y-64464621D01*
X48533652Y-64403522D01*
X48572158Y-64355972D01*
X48626077Y-64340000D01*
X48886575Y-64340000D01*
X49057579Y-64312915D01*
X49222248Y-64259411D01*
X49376524Y-64180804D01*
X49376528Y-64180802D01*
X49516596Y-64079037D01*
X49639037Y-63956596D01*
X49740802Y-63816528D01*
X49740804Y-63816524D01*
X49819411Y-63662248D01*
X49872913Y-63497586D01*
X49874114Y-63490000D01*
X48715686Y-63490000D01*
X48720080Y-63485606D01*
X48772741Y-63394394D01*
X48800000Y-63292661D01*
X48800000Y-63187339D01*
X48772741Y-63085606D01*
X48720080Y-62994394D01*
X48715686Y-62990000D01*
X49874114Y-62990000D01*
X49872913Y-62982413D01*
X49819411Y-62817751D01*
X49740804Y-62663475D01*
X49740802Y-62663471D01*
X49639037Y-62523403D01*
X49516596Y-62400962D01*
X49376528Y-62299197D01*
X49376524Y-62299195D01*
X49222248Y-62220588D01*
X49057579Y-62167084D01*
X48886575Y-62140000D01*
X48650001Y-62140000D01*
X48650000Y-62140001D01*
X48650000Y-62924314D01*
X48645606Y-62919920D01*
X48554394Y-62867259D01*
X48452661Y-62840000D01*
X48347339Y-62840000D01*
X48245606Y-62867259D01*
X48154394Y-62919920D01*
X48150000Y-62924314D01*
X48150000Y-62140001D01*
X48149999Y-62140000D01*
X47913425Y-62140000D01*
X47742418Y-62167085D01*
X47577592Y-62220640D01*
X47516407Y-62220640D01*
X47466907Y-62184676D01*
X47448000Y-62126485D01*
X47448000Y-61594212D01*
X47466907Y-61536021D01*
X47516407Y-61500057D01*
X47577593Y-61500057D01*
X47584879Y-61502746D01*
X47737334Y-61565894D01*
X47911309Y-61600500D01*
X47911310Y-61600500D01*
X48888690Y-61600500D01*
X48888691Y-61600500D01*
X49062666Y-61565894D01*
X49226547Y-61498013D01*
X49374035Y-61399464D01*
X49499464Y-61274035D01*
X49598013Y-61126547D01*
X49665894Y-60962666D01*
X49700500Y-60788691D01*
X49700500Y-60611309D01*
X49665894Y-60437334D01*
X49610458Y-60303498D01*
X49598014Y-60273455D01*
X49598014Y-60273454D01*
X49499464Y-60125965D01*
X49374034Y-60000535D01*
X49226544Y-59901985D01*
X49062666Y-59834106D01*
X48888693Y-59799500D01*
X48888691Y-59799500D01*
X47911309Y-59799500D01*
X47911306Y-59799500D01*
X47737334Y-59834106D01*
X47737332Y-59834106D01*
X47573455Y-59901985D01*
X47573454Y-59901985D01*
X47425965Y-60000535D01*
X47300535Y-60125965D01*
X47230686Y-60230502D01*
X47182636Y-60268381D01*
X47148371Y-60274500D01*
X47129318Y-60274500D01*
X47017282Y-60274500D01*
X46951048Y-60292247D01*
X46909058Y-60303498D01*
X46812037Y-60359514D01*
X46682014Y-60489537D01*
X46625998Y-60586558D01*
X46625997Y-60586563D01*
X46597000Y-60694782D01*
X45540100Y-60694782D01*
X45540100Y-58071306D01*
X47099500Y-58071306D01*
X47099500Y-58248693D01*
X47134106Y-58422665D01*
X47134106Y-58422667D01*
X47201985Y-58586544D01*
X47201985Y-58586545D01*
X47288965Y-58716718D01*
X47300536Y-58734035D01*
X47425965Y-58859464D01*
X47573453Y-58958013D01*
X47737334Y-59025894D01*
X47911309Y-59060500D01*
X47911310Y-59060500D01*
X48888690Y-59060500D01*
X48888691Y-59060500D01*
X49062666Y-59025894D01*
X49226547Y-58958013D01*
X49374035Y-58859464D01*
X49499464Y-58734035D01*
X49598013Y-58586547D01*
X49665894Y-58422666D01*
X49700500Y-58248691D01*
X49700500Y-58071309D01*
X49665894Y-57897334D01*
X49598014Y-57733455D01*
X49598014Y-57733454D01*
X49499464Y-57585965D01*
X49374034Y-57460535D01*
X49226544Y-57361985D01*
X49062666Y-57294106D01*
X48888693Y-57259500D01*
X48888691Y-57259500D01*
X47911309Y-57259500D01*
X47911306Y-57259500D01*
X47737334Y-57294106D01*
X47737332Y-57294106D01*
X47573455Y-57361985D01*
X47573454Y-57361985D01*
X47425965Y-57460535D01*
X47300535Y-57585965D01*
X47201985Y-57733454D01*
X47201985Y-57733455D01*
X47134106Y-57897332D01*
X47134106Y-57897334D01*
X47099500Y-58071306D01*
X45540100Y-58071306D01*
X45540100Y-55531306D01*
X47099500Y-55531306D01*
X47099500Y-55708693D01*
X47134106Y-55882665D01*
X47134106Y-55882667D01*
X47201985Y-56046544D01*
X47201985Y-56046545D01*
X47300535Y-56194034D01*
X47300536Y-56194035D01*
X47425965Y-56319464D01*
X47573453Y-56418013D01*
X47737334Y-56485894D01*
X47911309Y-56520500D01*
X47911310Y-56520500D01*
X48888690Y-56520500D01*
X48888691Y-56520500D01*
X49062666Y-56485894D01*
X49226547Y-56418013D01*
X49374035Y-56319464D01*
X49499464Y-56194035D01*
X49598013Y-56046547D01*
X49665894Y-55882666D01*
X49700500Y-55708691D01*
X49700500Y-55531309D01*
X49665894Y-55357334D01*
X49598014Y-55193455D01*
X49598014Y-55193454D01*
X49499464Y-55045965D01*
X49374034Y-54920535D01*
X49226544Y-54821985D01*
X49062666Y-54754106D01*
X48888693Y-54719500D01*
X48888691Y-54719500D01*
X47911309Y-54719500D01*
X47911306Y-54719500D01*
X47737334Y-54754106D01*
X47737332Y-54754106D01*
X47573455Y-54821985D01*
X47573454Y-54821985D01*
X47425965Y-54920535D01*
X47300535Y-55045965D01*
X47201985Y-55193454D01*
X47201985Y-55193455D01*
X47134106Y-55357332D01*
X47134106Y-55357334D01*
X47099500Y-55531306D01*
X45540100Y-55531306D01*
X45540100Y-52991306D01*
X47099500Y-52991306D01*
X47099500Y-53168693D01*
X47134106Y-53342665D01*
X47134106Y-53342667D01*
X47201985Y-53506544D01*
X47201985Y-53506545D01*
X47300535Y-53654034D01*
X47300536Y-53654035D01*
X47425965Y-53779464D01*
X47573453Y-53878013D01*
X47737334Y-53945894D01*
X47911309Y-53980500D01*
X47911310Y-53980500D01*
X48888690Y-53980500D01*
X48888691Y-53980500D01*
X49062666Y-53945894D01*
X49226547Y-53878013D01*
X49374035Y-53779464D01*
X49499464Y-53654035D01*
X49598013Y-53506547D01*
X49665894Y-53342666D01*
X49700500Y-53168691D01*
X49700500Y-52991309D01*
X49665894Y-52817334D01*
X49598014Y-52653455D01*
X49598014Y-52653454D01*
X49499464Y-52505965D01*
X49374034Y-52380535D01*
X49226544Y-52281985D01*
X49062666Y-52214106D01*
X48888693Y-52179500D01*
X48888691Y-52179500D01*
X47911309Y-52179500D01*
X47911306Y-52179500D01*
X47737334Y-52214106D01*
X47737332Y-52214106D01*
X47573455Y-52281985D01*
X47573454Y-52281985D01*
X47425965Y-52380535D01*
X47300535Y-52505965D01*
X47201985Y-52653454D01*
X47201985Y-52653455D01*
X47134106Y-52817332D01*
X47134106Y-52817334D01*
X47099500Y-52991306D01*
X45540100Y-52991306D01*
X45540100Y-50451306D01*
X47099500Y-50451306D01*
X47099500Y-50628693D01*
X47134106Y-50802665D01*
X47134106Y-50802667D01*
X47201985Y-50966544D01*
X47201985Y-50966545D01*
X47300535Y-51114034D01*
X47300536Y-51114035D01*
X47425965Y-51239464D01*
X47573453Y-51338013D01*
X47737334Y-51405894D01*
X47911309Y-51440500D01*
X47911310Y-51440500D01*
X48888690Y-51440500D01*
X48888691Y-51440500D01*
X49062666Y-51405894D01*
X49226547Y-51338013D01*
X49374035Y-51239464D01*
X49499464Y-51114035D01*
X49598013Y-50966547D01*
X49665894Y-50802666D01*
X49700500Y-50628691D01*
X49700500Y-50451309D01*
X49665894Y-50277334D01*
X49598014Y-50113455D01*
X49598014Y-50113454D01*
X49499464Y-49965965D01*
X49374034Y-49840535D01*
X49226544Y-49741985D01*
X49062666Y-49674106D01*
X48888693Y-49639500D01*
X48888691Y-49639500D01*
X47911309Y-49639500D01*
X47911306Y-49639500D01*
X47737334Y-49674106D01*
X47737332Y-49674106D01*
X47573455Y-49741985D01*
X47573454Y-49741985D01*
X47425965Y-49840535D01*
X47300535Y-49965965D01*
X47201985Y-50113454D01*
X47201985Y-50113455D01*
X47134106Y-50277332D01*
X47134106Y-50277334D01*
X47099500Y-50451306D01*
X45540100Y-50451306D01*
X45540100Y-47750000D01*
X46925886Y-47750000D01*
X48084314Y-47750000D01*
X48079920Y-47754394D01*
X48027259Y-47845606D01*
X48000000Y-47947339D01*
X48000000Y-48052661D01*
X48027259Y-48154394D01*
X48079920Y-48245606D01*
X48084314Y-48250000D01*
X46925886Y-48250000D01*
X46927086Y-48257586D01*
X46980588Y-48422248D01*
X47059195Y-48576524D01*
X47059197Y-48576528D01*
X47160962Y-48716596D01*
X47283403Y-48839037D01*
X47423471Y-48940802D01*
X47423475Y-48940804D01*
X47577751Y-49019411D01*
X47742420Y-49072915D01*
X47913425Y-49100000D01*
X48149999Y-49100000D01*
X48150000Y-49099999D01*
X48150000Y-48315686D01*
X48154394Y-48320080D01*
X48245606Y-48372741D01*
X48347339Y-48400000D01*
X48452661Y-48400000D01*
X48554394Y-48372741D01*
X48645606Y-48320080D01*
X48650000Y-48315686D01*
X48650000Y-49099999D01*
X48650001Y-49100000D01*
X48886575Y-49100000D01*
X49057579Y-49072915D01*
X49222248Y-49019411D01*
X49376524Y-48940804D01*
X49376528Y-48940802D01*
X49516596Y-48839037D01*
X49639037Y-48716596D01*
X49740802Y-48576528D01*
X49740804Y-48576524D01*
X49819411Y-48422248D01*
X49872913Y-48257586D01*
X49874114Y-48250000D01*
X48715686Y-48250000D01*
X48720080Y-48245606D01*
X48772741Y-48154394D01*
X48800000Y-48052661D01*
X48800000Y-47947339D01*
X48772741Y-47845606D01*
X48720080Y-47754394D01*
X48715686Y-47750000D01*
X49874114Y-47750000D01*
X49872913Y-47742413D01*
X49819411Y-47577751D01*
X49740804Y-47423475D01*
X49740802Y-47423471D01*
X49639037Y-47283403D01*
X49516596Y-47160962D01*
X49376528Y-47059197D01*
X49376524Y-47059195D01*
X49222248Y-46980588D01*
X49057579Y-46927084D01*
X48886575Y-46900000D01*
X48650001Y-46900000D01*
X48650000Y-46900001D01*
X48650000Y-47684314D01*
X48645606Y-47679920D01*
X48554394Y-47627259D01*
X48452661Y-47600000D01*
X48347339Y-47600000D01*
X48245606Y-47627259D01*
X48154394Y-47679920D01*
X48150000Y-47684314D01*
X48150000Y-46900001D01*
X48149999Y-46900000D01*
X47913425Y-46900000D01*
X47742420Y-46927084D01*
X47577751Y-46980588D01*
X47423475Y-47059195D01*
X47423471Y-47059197D01*
X47283403Y-47160962D01*
X47160962Y-47283403D01*
X47059197Y-47423471D01*
X47059195Y-47423475D01*
X46980588Y-47577751D01*
X46927086Y-47742413D01*
X46925886Y-47750000D01*
X45540100Y-47750000D01*
X45540100Y-44632986D01*
X45559007Y-44574795D01*
X45569096Y-44562982D01*
X50842079Y-39289999D01*
X120622144Y-39289999D01*
X120622145Y-39290000D01*
X121566988Y-39290000D01*
X121534075Y-39347007D01*
X121500000Y-39474174D01*
X121500000Y-39605826D01*
X121534075Y-39732993D01*
X121566988Y-39790000D01*
X120622144Y-39790000D01*
X120634471Y-39867829D01*
X120702569Y-40077413D01*
X120802611Y-40273757D01*
X120932139Y-40452037D01*
X121087965Y-40607863D01*
X121215342Y-40700407D01*
X121251306Y-40749907D01*
X121251307Y-40811092D01*
X121215343Y-40860592D01*
X121157153Y-40879500D01*
X121055139Y-40879500D01*
X121055136Y-40879501D01*
X121030009Y-40882414D01*
X120927235Y-40927794D01*
X120847794Y-41007235D01*
X120802414Y-41110011D01*
X120799500Y-41135130D01*
X120799500Y-43024860D01*
X120799501Y-43024863D01*
X120802414Y-43049990D01*
X120827756Y-43107385D01*
X120847794Y-43152765D01*
X120927235Y-43232206D01*
X121030009Y-43277585D01*
X121055135Y-43280500D01*
X122944864Y-43280499D01*
X122969991Y-43277585D01*
X123072765Y-43232206D01*
X123152206Y-43152765D01*
X123197585Y-43049991D01*
X123200500Y-43024865D01*
X123200499Y-41135136D01*
X123197585Y-41110009D01*
X123152206Y-41007235D01*
X123072765Y-40927794D01*
X122969991Y-40882415D01*
X122969990Y-40882414D01*
X122969988Y-40882414D01*
X122944869Y-40879500D01*
X122842849Y-40879500D01*
X122784658Y-40860593D01*
X122748694Y-40811093D01*
X122748694Y-40749907D01*
X122784658Y-40700407D01*
X122912037Y-40607860D01*
X123067860Y-40452037D01*
X123197388Y-40273757D01*
X123297430Y-40077413D01*
X123365528Y-39867829D01*
X123377855Y-39790000D01*
X122433012Y-39790000D01*
X122465925Y-39732993D01*
X122500000Y-39605826D01*
X122500000Y-39474174D01*
X122465925Y-39347007D01*
X122433012Y-39290000D01*
X123377855Y-39290000D01*
X123377855Y-39289999D01*
X123365528Y-39212170D01*
X123297430Y-39002586D01*
X123197388Y-38806242D01*
X123067860Y-38627962D01*
X122912037Y-38472139D01*
X122733757Y-38342611D01*
X122544653Y-38246258D01*
X122501388Y-38202993D01*
X122491817Y-38142561D01*
X122519594Y-38088044D01*
X122544653Y-38069838D01*
X122629199Y-38026760D01*
X122782073Y-37915690D01*
X122915690Y-37782073D01*
X123026760Y-37629199D01*
X123112547Y-37460832D01*
X123170940Y-37281118D01*
X123200500Y-37094481D01*
X123200500Y-36905519D01*
X123200500Y-36905515D01*
X123170941Y-36718886D01*
X123170940Y-36718882D01*
X123112547Y-36539168D01*
X123026760Y-36370801D01*
X122915690Y-36217927D01*
X122782073Y-36084310D01*
X122629199Y-35973240D01*
X122629198Y-35973239D01*
X122629196Y-35973238D01*
X122460832Y-35887453D01*
X122281113Y-35829058D01*
X122273046Y-35827781D01*
X122218529Y-35800004D01*
X122190751Y-35745488D01*
X122200322Y-35685056D01*
X122243586Y-35641791D01*
X122273046Y-35632219D01*
X122281113Y-35630941D01*
X122281114Y-35630940D01*
X122281118Y-35630940D01*
X122460832Y-35572547D01*
X122629199Y-35486760D01*
X122782073Y-35375690D01*
X122915690Y-35242073D01*
X123026760Y-35089199D01*
X123112547Y-34920832D01*
X123170940Y-34741118D01*
X123180372Y-34681565D01*
X123200500Y-34554484D01*
X123200500Y-34365515D01*
X123170941Y-34178886D01*
X123162983Y-34154394D01*
X123112547Y-33999168D01*
X123026760Y-33830801D01*
X122915690Y-33677927D01*
X122782073Y-33544310D01*
X122629199Y-33433240D01*
X122629198Y-33433239D01*
X122629196Y-33433238D01*
X122460832Y-33347453D01*
X122281113Y-33289058D01*
X122273046Y-33287781D01*
X122218529Y-33260004D01*
X122190751Y-33205488D01*
X122200322Y-33145056D01*
X122243586Y-33101791D01*
X122273046Y-33092219D01*
X122281113Y-33090941D01*
X122281114Y-33090940D01*
X122281118Y-33090940D01*
X122460832Y-33032547D01*
X122629199Y-32946760D01*
X122782073Y-32835690D01*
X122915690Y-32702073D01*
X123026760Y-32549199D01*
X123112547Y-32380832D01*
X123170940Y-32201118D01*
X123200500Y-32014481D01*
X123200500Y-31825519D01*
X123200500Y-31825515D01*
X123170941Y-31638886D01*
X123170940Y-31638882D01*
X123112547Y-31459168D01*
X123026760Y-31290801D01*
X122915690Y-31137927D01*
X122782073Y-31004310D01*
X122629199Y-30893240D01*
X122629198Y-30893239D01*
X122629196Y-30893238D01*
X122460832Y-30807453D01*
X122281113Y-30749058D01*
X122094484Y-30719500D01*
X122094481Y-30719500D01*
X121905519Y-30719500D01*
X121905516Y-30719500D01*
X121718886Y-30749058D01*
X121539167Y-30807453D01*
X121370803Y-30893238D01*
X121217928Y-31004309D01*
X121084309Y-31137928D01*
X120973238Y-31290803D01*
X120887453Y-31459167D01*
X120829058Y-31638886D01*
X120799500Y-31825515D01*
X120799500Y-32014484D01*
X120829058Y-32201113D01*
X120829060Y-32201118D01*
X120887453Y-32380832D01*
X120973240Y-32549199D01*
X121084310Y-32702073D01*
X121217927Y-32835690D01*
X121370801Y-32946760D01*
X121539168Y-33032547D01*
X121718882Y-33090940D01*
X121718883Y-33090940D01*
X121718886Y-33090941D01*
X121726954Y-33092219D01*
X121781471Y-33119996D01*
X121809248Y-33174513D01*
X121799677Y-33234945D01*
X121756412Y-33278210D01*
X121726954Y-33287781D01*
X121718886Y-33289058D01*
X121539167Y-33347453D01*
X121370803Y-33433238D01*
X121217928Y-33544309D01*
X121084309Y-33677928D01*
X120973238Y-33830803D01*
X120887453Y-33999167D01*
X120829058Y-34178886D01*
X120799500Y-34365515D01*
X120799500Y-34554484D01*
X120829058Y-34741113D01*
X120887453Y-34920832D01*
X120945298Y-35034361D01*
X120973240Y-35089199D01*
X121084310Y-35242073D01*
X121217927Y-35375690D01*
X121370801Y-35486760D01*
X121539168Y-35572547D01*
X121718882Y-35630940D01*
X121718883Y-35630940D01*
X121718886Y-35630941D01*
X121726954Y-35632219D01*
X121781471Y-35659996D01*
X121809248Y-35714513D01*
X121799677Y-35774945D01*
X121756412Y-35818210D01*
X121726954Y-35827781D01*
X121718886Y-35829058D01*
X121539167Y-35887453D01*
X121370803Y-35973238D01*
X121217928Y-36084309D01*
X121084309Y-36217928D01*
X120973238Y-36370803D01*
X120887453Y-36539167D01*
X120829058Y-36718886D01*
X120799500Y-36905515D01*
X120799500Y-37094484D01*
X120829058Y-37281113D01*
X120829060Y-37281118D01*
X120887453Y-37460832D01*
X120973240Y-37629199D01*
X121084310Y-37782073D01*
X121217927Y-37915690D01*
X121370801Y-38026760D01*
X121370803Y-38026761D01*
X121455346Y-38069838D01*
X121498611Y-38113103D01*
X121508182Y-38173535D01*
X121480404Y-38228052D01*
X121455346Y-38246258D01*
X121266242Y-38342611D01*
X121087962Y-38472139D01*
X120932139Y-38627962D01*
X120802611Y-38806242D01*
X120702569Y-39002586D01*
X120634471Y-39212170D01*
X120622144Y-39289999D01*
X50842079Y-39289999D01*
X55002582Y-35129496D01*
X55057099Y-35101719D01*
X55072586Y-35100500D01*
X55593100Y-35100500D01*
X55593102Y-35100500D01*
X55681564Y-35089877D01*
X55822342Y-35034361D01*
X55942922Y-34942922D01*
X56034361Y-34822342D01*
X56089877Y-34681564D01*
X56100500Y-34593102D01*
X56100500Y-33897684D01*
X57200000Y-33897684D01*
X57200000Y-34102315D01*
X57232008Y-34304412D01*
X57295243Y-34499027D01*
X57388139Y-34681348D01*
X57388143Y-34681353D01*
X57420523Y-34725920D01*
X57420524Y-34725920D01*
X58100000Y-34046444D01*
X58100000Y-34052661D01*
X58127259Y-34154394D01*
X58179920Y-34245606D01*
X58254394Y-34320080D01*
X58345606Y-34372741D01*
X58447339Y-34400000D01*
X58453553Y-34400000D01*
X57774078Y-35079475D01*
X57818647Y-35111858D01*
X58000972Y-35204756D01*
X58195587Y-35267991D01*
X58397685Y-35300000D01*
X58602315Y-35300000D01*
X58804412Y-35267991D01*
X58999027Y-35204756D01*
X59181342Y-35111863D01*
X59181350Y-35111858D01*
X59225920Y-35079475D01*
X58546445Y-34400000D01*
X58552661Y-34400000D01*
X58654394Y-34372741D01*
X58745606Y-34320080D01*
X58820080Y-34245606D01*
X58872741Y-34154394D01*
X58900000Y-34052661D01*
X58900000Y-34046445D01*
X59579475Y-34725920D01*
X59611858Y-34681350D01*
X59611863Y-34681342D01*
X59704756Y-34499027D01*
X59767991Y-34304412D01*
X59800000Y-34102315D01*
X59800000Y-33897684D01*
X59767991Y-33695587D01*
X59704756Y-33500972D01*
X59611858Y-33318647D01*
X59579475Y-33274078D01*
X58900000Y-33953553D01*
X58900000Y-33947339D01*
X58872741Y-33845606D01*
X58820080Y-33754394D01*
X58745606Y-33679920D01*
X58654394Y-33627259D01*
X58552661Y-33600000D01*
X58546445Y-33600000D01*
X59225920Y-32920524D01*
X59225920Y-32920523D01*
X59181353Y-32888143D01*
X59181348Y-32888139D01*
X58999027Y-32795243D01*
X58804412Y-32732008D01*
X58602315Y-32700000D01*
X58397685Y-32700000D01*
X58195587Y-32732008D01*
X58000972Y-32795243D01*
X57818651Y-32888139D01*
X57818647Y-32888141D01*
X57774078Y-32920523D01*
X58453555Y-33600000D01*
X58447339Y-33600000D01*
X58345606Y-33627259D01*
X58254394Y-33679920D01*
X58179920Y-33754394D01*
X58127259Y-33845606D01*
X58100000Y-33947339D01*
X58100000Y-33953555D01*
X57420523Y-33274078D01*
X57388141Y-33318647D01*
X57388139Y-33318651D01*
X57295243Y-33500972D01*
X57232008Y-33695587D01*
X57200000Y-33897684D01*
X56100500Y-33897684D01*
X56100500Y-33406898D01*
X56089877Y-33318436D01*
X56034361Y-33177658D01*
X55942922Y-33057078D01*
X55822342Y-32965639D01*
X55822341Y-32965638D01*
X55822339Y-32965637D01*
X55681565Y-32910123D01*
X55593106Y-32899500D01*
X55593102Y-32899500D01*
X54406898Y-32899500D01*
X54406893Y-32899500D01*
X54318434Y-32910123D01*
X54177660Y-32965637D01*
X54177656Y-32965640D01*
X54057081Y-33057075D01*
X54057075Y-33057081D01*
X53965640Y-33177656D01*
X53965637Y-33177660D01*
X53910123Y-33318434D01*
X53899500Y-33406893D01*
X53899500Y-33927414D01*
X53880593Y-33985605D01*
X53870504Y-33997418D01*
X44117814Y-43750107D01*
X44117811Y-43750111D01*
X44030209Y-43881214D01*
X44030203Y-43881225D01*
X43969863Y-44026901D01*
X43969863Y-44026903D01*
X43939100Y-44181555D01*
X20500500Y-44181555D01*
X20500500Y-24878710D01*
X23149500Y-24878710D01*
X23149500Y-25121289D01*
X23181161Y-25361781D01*
X23181161Y-25361786D01*
X23243944Y-25596092D01*
X23243948Y-25596105D01*
X23336772Y-25820204D01*
X23336774Y-25820208D01*
X23336776Y-25820212D01*
X23458064Y-26030289D01*
X23458066Y-26030292D01*
X23605729Y-26222731D01*
X23605731Y-26222733D01*
X23605735Y-26222738D01*
X23777262Y-26394265D01*
X23777266Y-26394268D01*
X23777268Y-26394270D01*
X23969707Y-26541933D01*
X23969711Y-26541936D01*
X24179788Y-26663224D01*
X24403900Y-26756054D01*
X24638211Y-26818838D01*
X24878712Y-26850500D01*
X24878713Y-26850500D01*
X25121287Y-26850500D01*
X25121288Y-26850500D01*
X25361789Y-26818838D01*
X25596100Y-26756054D01*
X25820212Y-26663224D01*
X26030289Y-26541936D01*
X26222738Y-26394265D01*
X26394265Y-26222738D01*
X26541936Y-26030289D01*
X26663224Y-25820212D01*
X26756054Y-25596100D01*
X26818838Y-25361789D01*
X26850500Y-25121288D01*
X26850500Y-24878712D01*
X26850500Y-24878710D01*
X62149500Y-24878710D01*
X62149500Y-25121289D01*
X62181161Y-25361781D01*
X62181161Y-25361786D01*
X62243944Y-25596092D01*
X62243948Y-25596105D01*
X62336772Y-25820204D01*
X62336774Y-25820208D01*
X62336776Y-25820212D01*
X62458064Y-26030289D01*
X62458066Y-26030292D01*
X62605729Y-26222731D01*
X62605731Y-26222733D01*
X62605735Y-26222738D01*
X62777262Y-26394265D01*
X62777266Y-26394268D01*
X62777268Y-26394270D01*
X62969707Y-26541933D01*
X62969711Y-26541936D01*
X63179788Y-26663224D01*
X63403900Y-26756054D01*
X63638211Y-26818838D01*
X63878712Y-26850500D01*
X63878713Y-26850500D01*
X64121287Y-26850500D01*
X64121288Y-26850500D01*
X64361789Y-26818838D01*
X64596100Y-26756054D01*
X64820212Y-26663224D01*
X65030289Y-26541936D01*
X65222738Y-26394265D01*
X65394265Y-26222738D01*
X65541936Y-26030289D01*
X65663224Y-25820212D01*
X65756054Y-25596100D01*
X65818838Y-25361789D01*
X65850500Y-25121288D01*
X65850500Y-24878712D01*
X65818838Y-24638211D01*
X65756054Y-24403900D01*
X65663224Y-24179788D01*
X65541936Y-23969711D01*
X65394265Y-23777262D01*
X65222738Y-23605735D01*
X65222733Y-23605731D01*
X65222731Y-23605729D01*
X65030292Y-23458066D01*
X65030289Y-23458064D01*
X64820212Y-23336776D01*
X64820208Y-23336774D01*
X64820204Y-23336772D01*
X64596105Y-23243948D01*
X64596104Y-23243947D01*
X64596100Y-23243946D01*
X64361789Y-23181162D01*
X64361786Y-23181161D01*
X64361784Y-23181161D01*
X64121289Y-23149500D01*
X64121288Y-23149500D01*
X63878712Y-23149500D01*
X63878710Y-23149500D01*
X63638218Y-23181161D01*
X63638213Y-23181161D01*
X63403907Y-23243944D01*
X63403894Y-23243948D01*
X63179795Y-23336772D01*
X62969707Y-23458066D01*
X62777268Y-23605729D01*
X62605729Y-23777268D01*
X62458066Y-23969707D01*
X62336772Y-24179795D01*
X62243948Y-24403894D01*
X62243944Y-24403907D01*
X62181161Y-24638213D01*
X62181161Y-24638218D01*
X62149500Y-24878710D01*
X26850500Y-24878710D01*
X26818838Y-24638211D01*
X26756054Y-24403900D01*
X26663224Y-24179788D01*
X26541936Y-23969711D01*
X26394265Y-23777262D01*
X26222738Y-23605735D01*
X26222733Y-23605731D01*
X26222731Y-23605729D01*
X26030292Y-23458066D01*
X26030289Y-23458064D01*
X25820212Y-23336776D01*
X25820208Y-23336774D01*
X25820204Y-23336772D01*
X25596105Y-23243948D01*
X25596104Y-23243947D01*
X25596100Y-23243946D01*
X25361789Y-23181162D01*
X25361786Y-23181161D01*
X25361784Y-23181161D01*
X25121289Y-23149500D01*
X25121288Y-23149500D01*
X24878712Y-23149500D01*
X24878710Y-23149500D01*
X24638218Y-23181161D01*
X24638213Y-23181161D01*
X24403907Y-23243944D01*
X24403894Y-23243948D01*
X24179795Y-23336772D01*
X23969707Y-23458066D01*
X23777268Y-23605729D01*
X23605729Y-23777268D01*
X23458066Y-23969707D01*
X23336772Y-24179795D01*
X23243948Y-24403894D01*
X23243944Y-24403907D01*
X23181161Y-24638213D01*
X23181161Y-24638218D01*
X23149500Y-24878710D01*
X20500500Y-24878710D01*
X20500500Y-23002984D01*
X20500681Y-22997007D01*
X20518362Y-22704696D01*
X20518363Y-22704695D01*
X20518362Y-22704688D01*
X20519801Y-22692837D01*
X20572052Y-22407715D01*
X20574912Y-22396114D01*
X20661148Y-22119370D01*
X20665378Y-22108218D01*
X20784350Y-21843875D01*
X20789891Y-21833315D01*
X20939868Y-21585221D01*
X20946632Y-21575424D01*
X21125407Y-21347235D01*
X21133319Y-21338303D01*
X21338303Y-21133319D01*
X21347235Y-21125407D01*
X21575424Y-20946632D01*
X21585221Y-20939868D01*
X21833315Y-20789891D01*
X21843875Y-20784350D01*
X22108218Y-20665378D01*
X22119370Y-20661148D01*
X22396121Y-20574910D01*
X22407715Y-20572052D01*
X22692837Y-20519801D01*
X22704688Y-20518362D01*
X22997008Y-20500681D01*
X23002985Y-20500500D01*
X23065892Y-20500500D01*
X121934108Y-20500500D01*
X121997015Y-20500500D01*
X122002992Y-20500681D01*
G37*
%TD.AperFunction*%
%TD*%
M02*
