%TF.GenerationSoftware,KiCad,Pcbnew,10.0.5*%
%TF.CreationDate,2026-08-30T12:15:25+07:00*%
%TF.ProjectId,vsmart-module-carrier,76736d61-7274-42d6-9d6f-64756c652d63,rev?*%
%TF.SameCoordinates,Original*%
%TF.FileFunction,Legend,Top*%
%TF.FilePolarity,Positive*%
%FSLAX46Y46*%
G04 Gerber Fmt 4.6, Leading zero omitted, Abs format (unit mm)*
G04 Created by KiCad (PCBNEW 10.0.5) date 2026-08-30 12:15:25*
%MOMM*%
%LPD*%
G01*
G04 APERTURE LIST*
%ADD10C,0.140000*%
%ADD11C,0.150000*%
%ADD12C,0.160000*%
%ADD13C,0.100000*%
%ADD14C,0.127000*%
%ADD15C,0.120000*%
G04 APERTURE END LIST*
D10*
X106154762Y-22076423D02*
X106073809Y-22035947D01*
X106073809Y-22035947D02*
X105952381Y-22035947D01*
X105952381Y-22035947D02*
X105830952Y-22076423D01*
X105830952Y-22076423D02*
X105750000Y-22157375D01*
X105750000Y-22157375D02*
X105709523Y-22238328D01*
X105709523Y-22238328D02*
X105669047Y-22400232D01*
X105669047Y-22400232D02*
X105669047Y-22521661D01*
X105669047Y-22521661D02*
X105709523Y-22683566D01*
X105709523Y-22683566D02*
X105750000Y-22764518D01*
X105750000Y-22764518D02*
X105830952Y-22845471D01*
X105830952Y-22845471D02*
X105952381Y-22885947D01*
X105952381Y-22885947D02*
X106033333Y-22885947D01*
X106033333Y-22885947D02*
X106154762Y-22845471D01*
X106154762Y-22845471D02*
X106195238Y-22804994D01*
X106195238Y-22804994D02*
X106195238Y-22521661D01*
X106195238Y-22521661D02*
X106033333Y-22521661D01*
X106559523Y-22885947D02*
X106559523Y-22035947D01*
X106559523Y-22035947D02*
X106883333Y-22035947D01*
X106883333Y-22035947D02*
X106964285Y-22076423D01*
X106964285Y-22076423D02*
X107004762Y-22116899D01*
X107004762Y-22116899D02*
X107045238Y-22197851D01*
X107045238Y-22197851D02*
X107045238Y-22319280D01*
X107045238Y-22319280D02*
X107004762Y-22400232D01*
X107004762Y-22400232D02*
X106964285Y-22440709D01*
X106964285Y-22440709D02*
X106883333Y-22481185D01*
X106883333Y-22481185D02*
X106559523Y-22481185D01*
X107369047Y-22845471D02*
X107490476Y-22885947D01*
X107490476Y-22885947D02*
X107692857Y-22885947D01*
X107692857Y-22885947D02*
X107773809Y-22845471D01*
X107773809Y-22845471D02*
X107814285Y-22804994D01*
X107814285Y-22804994D02*
X107854762Y-22724042D01*
X107854762Y-22724042D02*
X107854762Y-22643090D01*
X107854762Y-22643090D02*
X107814285Y-22562137D01*
X107814285Y-22562137D02*
X107773809Y-22521661D01*
X107773809Y-22521661D02*
X107692857Y-22481185D01*
X107692857Y-22481185D02*
X107530952Y-22440709D01*
X107530952Y-22440709D02*
X107450000Y-22400232D01*
X107450000Y-22400232D02*
X107409523Y-22359756D01*
X107409523Y-22359756D02*
X107369047Y-22278804D01*
X107369047Y-22278804D02*
X107369047Y-22197851D01*
X107369047Y-22197851D02*
X107409523Y-22116899D01*
X107409523Y-22116899D02*
X107450000Y-22076423D01*
X107450000Y-22076423D02*
X107530952Y-22035947D01*
X107530952Y-22035947D02*
X107733333Y-22035947D01*
X107733333Y-22035947D02*
X107854762Y-22076423D01*
X108745238Y-22035947D02*
X109028571Y-22885947D01*
X109028571Y-22885947D02*
X109311905Y-22035947D01*
X110080952Y-22804994D02*
X110040476Y-22845471D01*
X110040476Y-22845471D02*
X109919047Y-22885947D01*
X109919047Y-22885947D02*
X109838095Y-22885947D01*
X109838095Y-22885947D02*
X109716666Y-22845471D01*
X109716666Y-22845471D02*
X109635714Y-22764518D01*
X109635714Y-22764518D02*
X109595237Y-22683566D01*
X109595237Y-22683566D02*
X109554761Y-22521661D01*
X109554761Y-22521661D02*
X109554761Y-22400232D01*
X109554761Y-22400232D02*
X109595237Y-22238328D01*
X109595237Y-22238328D02*
X109635714Y-22157375D01*
X109635714Y-22157375D02*
X109716666Y-22076423D01*
X109716666Y-22076423D02*
X109838095Y-22035947D01*
X109838095Y-22035947D02*
X109919047Y-22035947D01*
X109919047Y-22035947D02*
X110040476Y-22076423D01*
X110040476Y-22076423D02*
X110080952Y-22116899D01*
X110930952Y-22804994D02*
X110890476Y-22845471D01*
X110890476Y-22845471D02*
X110769047Y-22885947D01*
X110769047Y-22885947D02*
X110688095Y-22885947D01*
X110688095Y-22885947D02*
X110566666Y-22845471D01*
X110566666Y-22845471D02*
X110485714Y-22764518D01*
X110485714Y-22764518D02*
X110445237Y-22683566D01*
X110445237Y-22683566D02*
X110404761Y-22521661D01*
X110404761Y-22521661D02*
X110404761Y-22400232D01*
X110404761Y-22400232D02*
X110445237Y-22238328D01*
X110445237Y-22238328D02*
X110485714Y-22157375D01*
X110485714Y-22157375D02*
X110566666Y-22076423D01*
X110566666Y-22076423D02*
X110688095Y-22035947D01*
X110688095Y-22035947D02*
X110769047Y-22035947D01*
X110769047Y-22035947D02*
X110890476Y-22076423D01*
X110890476Y-22076423D02*
X110930952Y-22116899D01*
X111295237Y-22440709D02*
X111942857Y-22440709D01*
X111942857Y-22683566D02*
X111295237Y-22683566D01*
X112266666Y-22035947D02*
X112792857Y-22035947D01*
X112792857Y-22035947D02*
X112509523Y-22359756D01*
X112509523Y-22359756D02*
X112630952Y-22359756D01*
X112630952Y-22359756D02*
X112711904Y-22400232D01*
X112711904Y-22400232D02*
X112752380Y-22440709D01*
X112752380Y-22440709D02*
X112792857Y-22521661D01*
X112792857Y-22521661D02*
X112792857Y-22724042D01*
X112792857Y-22724042D02*
X112752380Y-22804994D01*
X112752380Y-22804994D02*
X112711904Y-22845471D01*
X112711904Y-22845471D02*
X112630952Y-22885947D01*
X112630952Y-22885947D02*
X112388095Y-22885947D01*
X112388095Y-22885947D02*
X112307142Y-22845471D01*
X112307142Y-22845471D02*
X112266666Y-22804994D01*
X113035714Y-22035947D02*
X113319047Y-22885947D01*
X113319047Y-22885947D02*
X113602381Y-22035947D01*
X113804761Y-22035947D02*
X114330952Y-22035947D01*
X114330952Y-22035947D02*
X114047618Y-22359756D01*
X114047618Y-22359756D02*
X114169047Y-22359756D01*
X114169047Y-22359756D02*
X114249999Y-22400232D01*
X114249999Y-22400232D02*
X114290475Y-22440709D01*
X114290475Y-22440709D02*
X114330952Y-22521661D01*
X114330952Y-22521661D02*
X114330952Y-22724042D01*
X114330952Y-22724042D02*
X114290475Y-22804994D01*
X114290475Y-22804994D02*
X114249999Y-22845471D01*
X114249999Y-22845471D02*
X114169047Y-22885947D01*
X114169047Y-22885947D02*
X113926190Y-22885947D01*
X113926190Y-22885947D02*
X113845237Y-22845471D01*
X113845237Y-22845471D02*
X113804761Y-22804994D01*
D11*
X57685713Y-93265700D02*
X58371428Y-93265700D01*
X58028570Y-93608557D02*
X58028570Y-92922842D01*
X59228571Y-92708557D02*
X58799999Y-92708557D01*
X58799999Y-92708557D02*
X58757142Y-93137128D01*
X58757142Y-93137128D02*
X58799999Y-93094271D01*
X58799999Y-93094271D02*
X58885714Y-93051414D01*
X58885714Y-93051414D02*
X59099999Y-93051414D01*
X59099999Y-93051414D02*
X59185714Y-93094271D01*
X59185714Y-93094271D02*
X59228571Y-93137128D01*
X59228571Y-93137128D02*
X59271428Y-93222842D01*
X59271428Y-93222842D02*
X59271428Y-93437128D01*
X59271428Y-93437128D02*
X59228571Y-93522842D01*
X59228571Y-93522842D02*
X59185714Y-93565700D01*
X59185714Y-93565700D02*
X59099999Y-93608557D01*
X59099999Y-93608557D02*
X58885714Y-93608557D01*
X58885714Y-93608557D02*
X58799999Y-93565700D01*
X58799999Y-93565700D02*
X58757142Y-93522842D01*
X59528571Y-92708557D02*
X59828571Y-93608557D01*
X59828571Y-93608557D02*
X60128571Y-92708557D01*
X61585714Y-93608557D02*
X61071428Y-93608557D01*
X61328571Y-93608557D02*
X61328571Y-92708557D01*
X61328571Y-92708557D02*
X61242857Y-92837128D01*
X61242857Y-92837128D02*
X61157142Y-92922842D01*
X61157142Y-92922842D02*
X61071428Y-92965700D01*
X61928571Y-93351414D02*
X62357143Y-93351414D01*
X61842857Y-93608557D02*
X62142857Y-92708557D01*
X62142857Y-92708557D02*
X62442857Y-93608557D01*
X64714286Y-92751414D02*
X64628572Y-92708557D01*
X64628572Y-92708557D02*
X64500000Y-92708557D01*
X64500000Y-92708557D02*
X64371429Y-92751414D01*
X64371429Y-92751414D02*
X64285714Y-92837128D01*
X64285714Y-92837128D02*
X64242857Y-92922842D01*
X64242857Y-92922842D02*
X64200000Y-93094271D01*
X64200000Y-93094271D02*
X64200000Y-93222842D01*
X64200000Y-93222842D02*
X64242857Y-93394271D01*
X64242857Y-93394271D02*
X64285714Y-93479985D01*
X64285714Y-93479985D02*
X64371429Y-93565700D01*
X64371429Y-93565700D02*
X64500000Y-93608557D01*
X64500000Y-93608557D02*
X64585714Y-93608557D01*
X64585714Y-93608557D02*
X64714286Y-93565700D01*
X64714286Y-93565700D02*
X64757143Y-93522842D01*
X64757143Y-93522842D02*
X64757143Y-93222842D01*
X64757143Y-93222842D02*
X64585714Y-93222842D01*
X65142857Y-93608557D02*
X65142857Y-92708557D01*
X65142857Y-92708557D02*
X65657143Y-93608557D01*
X65657143Y-93608557D02*
X65657143Y-92708557D01*
X66085714Y-93608557D02*
X66085714Y-92708557D01*
X66085714Y-92708557D02*
X66300000Y-92708557D01*
X66300000Y-92708557D02*
X66428571Y-92751414D01*
X66428571Y-92751414D02*
X66514286Y-92837128D01*
X66514286Y-92837128D02*
X66557143Y-92922842D01*
X66557143Y-92922842D02*
X66600000Y-93094271D01*
X66600000Y-93094271D02*
X66600000Y-93222842D01*
X66600000Y-93222842D02*
X66557143Y-93394271D01*
X66557143Y-93394271D02*
X66514286Y-93479985D01*
X66514286Y-93479985D02*
X66428571Y-93565700D01*
X66428571Y-93565700D02*
X66300000Y-93608557D01*
X66300000Y-93608557D02*
X66085714Y-93608557D01*
X102685713Y-93265700D02*
X103371428Y-93265700D01*
X103028570Y-93608557D02*
X103028570Y-92922842D01*
X104228571Y-92708557D02*
X103799999Y-92708557D01*
X103799999Y-92708557D02*
X103757142Y-93137128D01*
X103757142Y-93137128D02*
X103799999Y-93094271D01*
X103799999Y-93094271D02*
X103885714Y-93051414D01*
X103885714Y-93051414D02*
X104099999Y-93051414D01*
X104099999Y-93051414D02*
X104185714Y-93094271D01*
X104185714Y-93094271D02*
X104228571Y-93137128D01*
X104228571Y-93137128D02*
X104271428Y-93222842D01*
X104271428Y-93222842D02*
X104271428Y-93437128D01*
X104271428Y-93437128D02*
X104228571Y-93522842D01*
X104228571Y-93522842D02*
X104185714Y-93565700D01*
X104185714Y-93565700D02*
X104099999Y-93608557D01*
X104099999Y-93608557D02*
X103885714Y-93608557D01*
X103885714Y-93608557D02*
X103799999Y-93565700D01*
X103799999Y-93565700D02*
X103757142Y-93522842D01*
X104528571Y-92708557D02*
X104828571Y-93608557D01*
X104828571Y-93608557D02*
X105128571Y-92708557D01*
X106071428Y-92794271D02*
X106114285Y-92751414D01*
X106114285Y-92751414D02*
X106200000Y-92708557D01*
X106200000Y-92708557D02*
X106414285Y-92708557D01*
X106414285Y-92708557D02*
X106500000Y-92751414D01*
X106500000Y-92751414D02*
X106542857Y-92794271D01*
X106542857Y-92794271D02*
X106585714Y-92879985D01*
X106585714Y-92879985D02*
X106585714Y-92965700D01*
X106585714Y-92965700D02*
X106542857Y-93094271D01*
X106542857Y-93094271D02*
X106028571Y-93608557D01*
X106028571Y-93608557D02*
X106585714Y-93608557D01*
X106928571Y-93351414D02*
X107357143Y-93351414D01*
X106842857Y-93608557D02*
X107142857Y-92708557D01*
X107142857Y-92708557D02*
X107442857Y-93608557D01*
X109714286Y-92751414D02*
X109628572Y-92708557D01*
X109628572Y-92708557D02*
X109500000Y-92708557D01*
X109500000Y-92708557D02*
X109371429Y-92751414D01*
X109371429Y-92751414D02*
X109285714Y-92837128D01*
X109285714Y-92837128D02*
X109242857Y-92922842D01*
X109242857Y-92922842D02*
X109200000Y-93094271D01*
X109200000Y-93094271D02*
X109200000Y-93222842D01*
X109200000Y-93222842D02*
X109242857Y-93394271D01*
X109242857Y-93394271D02*
X109285714Y-93479985D01*
X109285714Y-93479985D02*
X109371429Y-93565700D01*
X109371429Y-93565700D02*
X109500000Y-93608557D01*
X109500000Y-93608557D02*
X109585714Y-93608557D01*
X109585714Y-93608557D02*
X109714286Y-93565700D01*
X109714286Y-93565700D02*
X109757143Y-93522842D01*
X109757143Y-93522842D02*
X109757143Y-93222842D01*
X109757143Y-93222842D02*
X109585714Y-93222842D01*
X110142857Y-93608557D02*
X110142857Y-92708557D01*
X110142857Y-92708557D02*
X110657143Y-93608557D01*
X110657143Y-93608557D02*
X110657143Y-92708557D01*
X111085714Y-93608557D02*
X111085714Y-92708557D01*
X111085714Y-92708557D02*
X111300000Y-92708557D01*
X111300000Y-92708557D02*
X111428571Y-92751414D01*
X111428571Y-92751414D02*
X111514286Y-92837128D01*
X111514286Y-92837128D02*
X111557143Y-92922842D01*
X111557143Y-92922842D02*
X111600000Y-93094271D01*
X111600000Y-93094271D02*
X111600000Y-93222842D01*
X111600000Y-93222842D02*
X111557143Y-93394271D01*
X111557143Y-93394271D02*
X111514286Y-93479985D01*
X111514286Y-93479985D02*
X111428571Y-93565700D01*
X111428571Y-93565700D02*
X111300000Y-93608557D01*
X111300000Y-93608557D02*
X111085714Y-93608557D01*
D12*
X101333333Y-58406680D02*
X101476190Y-58454299D01*
X101476190Y-58454299D02*
X101714285Y-58454299D01*
X101714285Y-58454299D02*
X101809523Y-58406680D01*
X101809523Y-58406680D02*
X101857142Y-58359060D01*
X101857142Y-58359060D02*
X101904761Y-58263822D01*
X101904761Y-58263822D02*
X101904761Y-58168584D01*
X101904761Y-58168584D02*
X101857142Y-58073346D01*
X101857142Y-58073346D02*
X101809523Y-58025727D01*
X101809523Y-58025727D02*
X101714285Y-57978108D01*
X101714285Y-57978108D02*
X101523809Y-57930489D01*
X101523809Y-57930489D02*
X101428571Y-57882870D01*
X101428571Y-57882870D02*
X101380952Y-57835251D01*
X101380952Y-57835251D02*
X101333333Y-57740013D01*
X101333333Y-57740013D02*
X101333333Y-57644775D01*
X101333333Y-57644775D02*
X101380952Y-57549537D01*
X101380952Y-57549537D02*
X101428571Y-57501918D01*
X101428571Y-57501918D02*
X101523809Y-57454299D01*
X101523809Y-57454299D02*
X101761904Y-57454299D01*
X101761904Y-57454299D02*
X101904761Y-57501918D01*
X102333333Y-58454299D02*
X102333333Y-57454299D01*
X102809523Y-58454299D02*
X102809523Y-57454299D01*
X102809523Y-57454299D02*
X103142856Y-58168584D01*
X103142856Y-58168584D02*
X103476189Y-57454299D01*
X103476189Y-57454299D02*
X103476189Y-58454299D01*
X105190475Y-57454299D02*
X104714285Y-57454299D01*
X104714285Y-57454299D02*
X104666666Y-57930489D01*
X104666666Y-57930489D02*
X104714285Y-57882870D01*
X104714285Y-57882870D02*
X104809523Y-57835251D01*
X104809523Y-57835251D02*
X105047618Y-57835251D01*
X105047618Y-57835251D02*
X105142856Y-57882870D01*
X105142856Y-57882870D02*
X105190475Y-57930489D01*
X105190475Y-57930489D02*
X105238094Y-58025727D01*
X105238094Y-58025727D02*
X105238094Y-58263822D01*
X105238094Y-58263822D02*
X105190475Y-58359060D01*
X105190475Y-58359060D02*
X105142856Y-58406680D01*
X105142856Y-58406680D02*
X105047618Y-58454299D01*
X105047618Y-58454299D02*
X104809523Y-58454299D01*
X104809523Y-58454299D02*
X104714285Y-58406680D01*
X104714285Y-58406680D02*
X104666666Y-58359060D01*
X105523809Y-57454299D02*
X105857142Y-58454299D01*
X105857142Y-58454299D02*
X106190475Y-57454299D01*
X107238095Y-57549537D02*
X107285714Y-57501918D01*
X107285714Y-57501918D02*
X107380952Y-57454299D01*
X107380952Y-57454299D02*
X107619047Y-57454299D01*
X107619047Y-57454299D02*
X107714285Y-57501918D01*
X107714285Y-57501918D02*
X107761904Y-57549537D01*
X107761904Y-57549537D02*
X107809523Y-57644775D01*
X107809523Y-57644775D02*
X107809523Y-57740013D01*
X107809523Y-57740013D02*
X107761904Y-57882870D01*
X107761904Y-57882870D02*
X107190476Y-58454299D01*
X107190476Y-58454299D02*
X107809523Y-58454299D01*
X108190476Y-58168584D02*
X108666666Y-58168584D01*
X108095238Y-58454299D02*
X108428571Y-57454299D01*
X108428571Y-57454299D02*
X108761904Y-58454299D01*
D13*
X104338095Y-70457419D02*
X104338095Y-71266942D01*
X104338095Y-71266942D02*
X104385714Y-71362180D01*
X104385714Y-71362180D02*
X104433333Y-71409800D01*
X104433333Y-71409800D02*
X104528571Y-71457419D01*
X104528571Y-71457419D02*
X104719047Y-71457419D01*
X104719047Y-71457419D02*
X104814285Y-71409800D01*
X104814285Y-71409800D02*
X104861904Y-71362180D01*
X104861904Y-71362180D02*
X104909523Y-71266942D01*
X104909523Y-71266942D02*
X104909523Y-70457419D01*
X105814285Y-70790752D02*
X105814285Y-71457419D01*
X105576190Y-70409800D02*
X105338095Y-71124085D01*
X105338095Y-71124085D02*
X105957142Y-71124085D01*
D14*
X95095456Y-70646516D02*
X95500218Y-70646516D01*
X95014504Y-70889373D02*
X95297837Y-70039373D01*
X95297837Y-70039373D02*
X95581171Y-70889373D01*
X95864503Y-70889373D02*
X95864503Y-70039373D01*
X95864503Y-70039373D02*
X96350218Y-70889373D01*
X96350218Y-70889373D02*
X96350218Y-70039373D01*
X96633551Y-70039373D02*
X97119265Y-70039373D01*
X96876408Y-70889373D02*
X96876408Y-70039373D01*
X95114504Y-72539373D02*
X95397837Y-73389373D01*
X95397837Y-73389373D02*
X95681171Y-72539373D01*
X96450218Y-73308420D02*
X96409742Y-73348897D01*
X96409742Y-73348897D02*
X96288313Y-73389373D01*
X96288313Y-73389373D02*
X96207361Y-73389373D01*
X96207361Y-73389373D02*
X96085932Y-73348897D01*
X96085932Y-73348897D02*
X96004980Y-73267944D01*
X96004980Y-73267944D02*
X95964503Y-73186992D01*
X95964503Y-73186992D02*
X95924027Y-73025087D01*
X95924027Y-73025087D02*
X95924027Y-72903658D01*
X95924027Y-72903658D02*
X95964503Y-72741754D01*
X95964503Y-72741754D02*
X96004980Y-72660801D01*
X96004980Y-72660801D02*
X96085932Y-72579849D01*
X96085932Y-72579849D02*
X96207361Y-72539373D01*
X96207361Y-72539373D02*
X96288313Y-72539373D01*
X96288313Y-72539373D02*
X96409742Y-72579849D01*
X96409742Y-72579849D02*
X96450218Y-72620325D01*
X97300218Y-73308420D02*
X97259742Y-73348897D01*
X97259742Y-73348897D02*
X97138313Y-73389373D01*
X97138313Y-73389373D02*
X97057361Y-73389373D01*
X97057361Y-73389373D02*
X96935932Y-73348897D01*
X96935932Y-73348897D02*
X96854980Y-73267944D01*
X96854980Y-73267944D02*
X96814503Y-73186992D01*
X96814503Y-73186992D02*
X96774027Y-73025087D01*
X96774027Y-73025087D02*
X96774027Y-72903658D01*
X96774027Y-72903658D02*
X96814503Y-72741754D01*
X96814503Y-72741754D02*
X96854980Y-72660801D01*
X96854980Y-72660801D02*
X96935932Y-72579849D01*
X96935932Y-72579849D02*
X97057361Y-72539373D01*
X97057361Y-72539373D02*
X97138313Y-72539373D01*
X97138313Y-72539373D02*
X97259742Y-72579849D01*
X97259742Y-72579849D02*
X97300218Y-72620325D01*
X95721647Y-75989373D02*
X95438313Y-75584611D01*
X95235932Y-75989373D02*
X95235932Y-75139373D01*
X95235932Y-75139373D02*
X95559742Y-75139373D01*
X95559742Y-75139373D02*
X95640694Y-75179849D01*
X95640694Y-75179849D02*
X95681171Y-75220325D01*
X95681171Y-75220325D02*
X95721647Y-75301277D01*
X95721647Y-75301277D02*
X95721647Y-75422706D01*
X95721647Y-75422706D02*
X95681171Y-75503658D01*
X95681171Y-75503658D02*
X95640694Y-75544135D01*
X95640694Y-75544135D02*
X95559742Y-75584611D01*
X95559742Y-75584611D02*
X95235932Y-75584611D01*
X96045456Y-75948897D02*
X96166885Y-75989373D01*
X96166885Y-75989373D02*
X96369266Y-75989373D01*
X96369266Y-75989373D02*
X96450218Y-75948897D01*
X96450218Y-75948897D02*
X96490694Y-75908420D01*
X96490694Y-75908420D02*
X96531171Y-75827468D01*
X96531171Y-75827468D02*
X96531171Y-75746516D01*
X96531171Y-75746516D02*
X96490694Y-75665563D01*
X96490694Y-75665563D02*
X96450218Y-75625087D01*
X96450218Y-75625087D02*
X96369266Y-75584611D01*
X96369266Y-75584611D02*
X96207361Y-75544135D01*
X96207361Y-75544135D02*
X96126409Y-75503658D01*
X96126409Y-75503658D02*
X96085932Y-75463182D01*
X96085932Y-75463182D02*
X96045456Y-75382230D01*
X96045456Y-75382230D02*
X96045456Y-75301277D01*
X96045456Y-75301277D02*
X96085932Y-75220325D01*
X96085932Y-75220325D02*
X96126409Y-75179849D01*
X96126409Y-75179849D02*
X96207361Y-75139373D01*
X96207361Y-75139373D02*
X96409742Y-75139373D01*
X96409742Y-75139373D02*
X96531171Y-75179849D01*
X96774028Y-75139373D02*
X97259742Y-75139373D01*
X97016885Y-75989373D02*
X97016885Y-75139373D01*
X95771647Y-78439373D02*
X95488313Y-78034611D01*
X95285932Y-78439373D02*
X95285932Y-77589373D01*
X95285932Y-77589373D02*
X95609742Y-77589373D01*
X95609742Y-77589373D02*
X95690694Y-77629849D01*
X95690694Y-77629849D02*
X95731171Y-77670325D01*
X95731171Y-77670325D02*
X95771647Y-77751277D01*
X95771647Y-77751277D02*
X95771647Y-77872706D01*
X95771647Y-77872706D02*
X95731171Y-77953658D01*
X95731171Y-77953658D02*
X95690694Y-77994135D01*
X95690694Y-77994135D02*
X95609742Y-78034611D01*
X95609742Y-78034611D02*
X95285932Y-78034611D01*
X96054980Y-77589373D02*
X96621647Y-78439373D01*
X96621647Y-77589373D02*
X96054980Y-78439373D01*
X96945456Y-78439373D02*
X96945456Y-77589373D01*
X96945456Y-77589373D02*
X97147837Y-77589373D01*
X97147837Y-77589373D02*
X97269266Y-77629849D01*
X97269266Y-77629849D02*
X97350218Y-77710801D01*
X97350218Y-77710801D02*
X97390695Y-77791754D01*
X97390695Y-77791754D02*
X97431171Y-77953658D01*
X97431171Y-77953658D02*
X97431171Y-78075087D01*
X97431171Y-78075087D02*
X97390695Y-78236992D01*
X97390695Y-78236992D02*
X97350218Y-78317944D01*
X97350218Y-78317944D02*
X97269266Y-78398897D01*
X97269266Y-78398897D02*
X97147837Y-78439373D01*
X97147837Y-78439373D02*
X96945456Y-78439373D01*
X95164504Y-80039373D02*
X95650218Y-80039373D01*
X95407361Y-80889373D02*
X95407361Y-80039373D01*
X95852599Y-80039373D02*
X96419266Y-80889373D01*
X96419266Y-80039373D02*
X95852599Y-80889373D01*
X96743075Y-80889373D02*
X96743075Y-80039373D01*
X96743075Y-80039373D02*
X96945456Y-80039373D01*
X96945456Y-80039373D02*
X97066885Y-80079849D01*
X97066885Y-80079849D02*
X97147837Y-80160801D01*
X97147837Y-80160801D02*
X97188314Y-80241754D01*
X97188314Y-80241754D02*
X97228790Y-80403658D01*
X97228790Y-80403658D02*
X97228790Y-80525087D01*
X97228790Y-80525087D02*
X97188314Y-80686992D01*
X97188314Y-80686992D02*
X97147837Y-80767944D01*
X97147837Y-80767944D02*
X97066885Y-80848897D01*
X97066885Y-80848897D02*
X96945456Y-80889373D01*
X96945456Y-80889373D02*
X96743075Y-80889373D01*
X95781171Y-82779849D02*
X95700218Y-82739373D01*
X95700218Y-82739373D02*
X95578790Y-82739373D01*
X95578790Y-82739373D02*
X95457361Y-82779849D01*
X95457361Y-82779849D02*
X95376409Y-82860801D01*
X95376409Y-82860801D02*
X95335932Y-82941754D01*
X95335932Y-82941754D02*
X95295456Y-83103658D01*
X95295456Y-83103658D02*
X95295456Y-83225087D01*
X95295456Y-83225087D02*
X95335932Y-83386992D01*
X95335932Y-83386992D02*
X95376409Y-83467944D01*
X95376409Y-83467944D02*
X95457361Y-83548897D01*
X95457361Y-83548897D02*
X95578790Y-83589373D01*
X95578790Y-83589373D02*
X95659742Y-83589373D01*
X95659742Y-83589373D02*
X95781171Y-83548897D01*
X95781171Y-83548897D02*
X95821647Y-83508420D01*
X95821647Y-83508420D02*
X95821647Y-83225087D01*
X95821647Y-83225087D02*
X95659742Y-83225087D01*
X96185932Y-83589373D02*
X96185932Y-82739373D01*
X96185932Y-82739373D02*
X96671647Y-83589373D01*
X96671647Y-83589373D02*
X96671647Y-82739373D01*
X97076408Y-83589373D02*
X97076408Y-82739373D01*
X97076408Y-82739373D02*
X97278789Y-82739373D01*
X97278789Y-82739373D02*
X97400218Y-82779849D01*
X97400218Y-82779849D02*
X97481170Y-82860801D01*
X97481170Y-82860801D02*
X97521647Y-82941754D01*
X97521647Y-82941754D02*
X97562123Y-83103658D01*
X97562123Y-83103658D02*
X97562123Y-83225087D01*
X97562123Y-83225087D02*
X97521647Y-83386992D01*
X97521647Y-83386992D02*
X97481170Y-83467944D01*
X97481170Y-83467944D02*
X97400218Y-83548897D01*
X97400218Y-83548897D02*
X97278789Y-83589373D01*
X97278789Y-83589373D02*
X97076408Y-83589373D01*
X111345456Y-86048897D02*
X111466885Y-86089373D01*
X111466885Y-86089373D02*
X111669266Y-86089373D01*
X111669266Y-86089373D02*
X111750218Y-86048897D01*
X111750218Y-86048897D02*
X111790694Y-86008420D01*
X111790694Y-86008420D02*
X111831171Y-85927468D01*
X111831171Y-85927468D02*
X111831171Y-85846516D01*
X111831171Y-85846516D02*
X111790694Y-85765563D01*
X111790694Y-85765563D02*
X111750218Y-85725087D01*
X111750218Y-85725087D02*
X111669266Y-85684611D01*
X111669266Y-85684611D02*
X111507361Y-85644135D01*
X111507361Y-85644135D02*
X111426409Y-85603658D01*
X111426409Y-85603658D02*
X111385932Y-85563182D01*
X111385932Y-85563182D02*
X111345456Y-85482230D01*
X111345456Y-85482230D02*
X111345456Y-85401277D01*
X111345456Y-85401277D02*
X111385932Y-85320325D01*
X111385932Y-85320325D02*
X111426409Y-85279849D01*
X111426409Y-85279849D02*
X111507361Y-85239373D01*
X111507361Y-85239373D02*
X111709742Y-85239373D01*
X111709742Y-85239373D02*
X111831171Y-85279849D01*
X112195456Y-86089373D02*
X112195456Y-85239373D01*
X112195456Y-85239373D02*
X112519266Y-85239373D01*
X112519266Y-85239373D02*
X112600218Y-85279849D01*
X112600218Y-85279849D02*
X112640695Y-85320325D01*
X112640695Y-85320325D02*
X112681171Y-85401277D01*
X112681171Y-85401277D02*
X112681171Y-85522706D01*
X112681171Y-85522706D02*
X112640695Y-85603658D01*
X112640695Y-85603658D02*
X112600218Y-85644135D01*
X112600218Y-85644135D02*
X112519266Y-85684611D01*
X112519266Y-85684611D02*
X112195456Y-85684611D01*
X113045456Y-86089373D02*
X113045456Y-85239373D01*
X113531171Y-86089373D02*
X113166885Y-85603658D01*
X113531171Y-85239373D02*
X113045456Y-85725087D01*
X113895456Y-86089373D02*
X113895456Y-85239373D01*
X113895456Y-85239373D02*
X114381171Y-86089373D01*
X114381171Y-86089373D02*
X114381171Y-85239373D01*
X111435932Y-80989373D02*
X111435932Y-80139373D01*
X111435932Y-80139373D02*
X111719266Y-80746516D01*
X111719266Y-80746516D02*
X112002599Y-80139373D01*
X112002599Y-80139373D02*
X112002599Y-80989373D01*
X112407361Y-80989373D02*
X112407361Y-80139373D01*
X113297838Y-80908420D02*
X113257362Y-80948897D01*
X113257362Y-80948897D02*
X113135933Y-80989373D01*
X113135933Y-80989373D02*
X113054981Y-80989373D01*
X113054981Y-80989373D02*
X112933552Y-80948897D01*
X112933552Y-80948897D02*
X112852600Y-80867944D01*
X112852600Y-80867944D02*
X112812123Y-80786992D01*
X112812123Y-80786992D02*
X112771647Y-80625087D01*
X112771647Y-80625087D02*
X112771647Y-80503658D01*
X112771647Y-80503658D02*
X112812123Y-80341754D01*
X112812123Y-80341754D02*
X112852600Y-80260801D01*
X112852600Y-80260801D02*
X112933552Y-80179849D01*
X112933552Y-80179849D02*
X113054981Y-80139373D01*
X113054981Y-80139373D02*
X113135933Y-80139373D01*
X113135933Y-80139373D02*
X113257362Y-80179849D01*
X113257362Y-80179849D02*
X113297838Y-80220325D01*
X113662123Y-80989373D02*
X113662123Y-80139373D01*
X113662123Y-80139373D02*
X114147838Y-80989373D01*
X114147838Y-80989373D02*
X114147838Y-80139373D01*
X111395456Y-83498897D02*
X111516885Y-83539373D01*
X111516885Y-83539373D02*
X111719266Y-83539373D01*
X111719266Y-83539373D02*
X111800218Y-83498897D01*
X111800218Y-83498897D02*
X111840694Y-83458420D01*
X111840694Y-83458420D02*
X111881171Y-83377468D01*
X111881171Y-83377468D02*
X111881171Y-83296516D01*
X111881171Y-83296516D02*
X111840694Y-83215563D01*
X111840694Y-83215563D02*
X111800218Y-83175087D01*
X111800218Y-83175087D02*
X111719266Y-83134611D01*
X111719266Y-83134611D02*
X111557361Y-83094135D01*
X111557361Y-83094135D02*
X111476409Y-83053658D01*
X111476409Y-83053658D02*
X111435932Y-83013182D01*
X111435932Y-83013182D02*
X111395456Y-82932230D01*
X111395456Y-82932230D02*
X111395456Y-82851277D01*
X111395456Y-82851277D02*
X111435932Y-82770325D01*
X111435932Y-82770325D02*
X111476409Y-82729849D01*
X111476409Y-82729849D02*
X111557361Y-82689373D01*
X111557361Y-82689373D02*
X111759742Y-82689373D01*
X111759742Y-82689373D02*
X111881171Y-82729849D01*
X112245456Y-83539373D02*
X112245456Y-82689373D01*
X112245456Y-82689373D02*
X112569266Y-82689373D01*
X112569266Y-82689373D02*
X112650218Y-82729849D01*
X112650218Y-82729849D02*
X112690695Y-82770325D01*
X112690695Y-82770325D02*
X112731171Y-82851277D01*
X112731171Y-82851277D02*
X112731171Y-82972706D01*
X112731171Y-82972706D02*
X112690695Y-83053658D01*
X112690695Y-83053658D02*
X112650218Y-83094135D01*
X112650218Y-83094135D02*
X112569266Y-83134611D01*
X112569266Y-83134611D02*
X112245456Y-83134611D01*
X113095456Y-83539373D02*
X113095456Y-82689373D01*
X113581171Y-83539373D02*
X113216885Y-83053658D01*
X113581171Y-82689373D02*
X113095456Y-83175087D01*
X113945456Y-83539373D02*
X113945456Y-82689373D01*
X113945456Y-82689373D02*
X114269266Y-82689373D01*
X114269266Y-82689373D02*
X114350218Y-82729849D01*
X114350218Y-82729849D02*
X114390695Y-82770325D01*
X114390695Y-82770325D02*
X114431171Y-82851277D01*
X114431171Y-82851277D02*
X114431171Y-82972706D01*
X114431171Y-82972706D02*
X114390695Y-83053658D01*
X114390695Y-83053658D02*
X114350218Y-83094135D01*
X114350218Y-83094135D02*
X114269266Y-83134611D01*
X114269266Y-83134611D02*
X113945456Y-83134611D01*
X111485932Y-78339373D02*
X111485932Y-77489373D01*
X111485932Y-77489373D02*
X111769266Y-78096516D01*
X111769266Y-78096516D02*
X112052599Y-77489373D01*
X112052599Y-77489373D02*
X112052599Y-78339373D01*
X112457361Y-78339373D02*
X112457361Y-77489373D01*
X113347838Y-78258420D02*
X113307362Y-78298897D01*
X113307362Y-78298897D02*
X113185933Y-78339373D01*
X113185933Y-78339373D02*
X113104981Y-78339373D01*
X113104981Y-78339373D02*
X112983552Y-78298897D01*
X112983552Y-78298897D02*
X112902600Y-78217944D01*
X112902600Y-78217944D02*
X112862123Y-78136992D01*
X112862123Y-78136992D02*
X112821647Y-77975087D01*
X112821647Y-77975087D02*
X112821647Y-77853658D01*
X112821647Y-77853658D02*
X112862123Y-77691754D01*
X112862123Y-77691754D02*
X112902600Y-77610801D01*
X112902600Y-77610801D02*
X112983552Y-77529849D01*
X112983552Y-77529849D02*
X113104981Y-77489373D01*
X113104981Y-77489373D02*
X113185933Y-77489373D01*
X113185933Y-77489373D02*
X113307362Y-77529849D01*
X113307362Y-77529849D02*
X113347838Y-77570325D01*
X113712123Y-78339373D02*
X113712123Y-77489373D01*
X113712123Y-77489373D02*
X114035933Y-77489373D01*
X114035933Y-77489373D02*
X114116885Y-77529849D01*
X114116885Y-77529849D02*
X114157362Y-77570325D01*
X114157362Y-77570325D02*
X114197838Y-77651277D01*
X114197838Y-77651277D02*
X114197838Y-77772706D01*
X114197838Y-77772706D02*
X114157362Y-77853658D01*
X114157362Y-77853658D02*
X114116885Y-77894135D01*
X114116885Y-77894135D02*
X114035933Y-77934611D01*
X114035933Y-77934611D02*
X113712123Y-77934611D01*
X112121647Y-73439373D02*
X111838313Y-73034611D01*
X111635932Y-73439373D02*
X111635932Y-72589373D01*
X111635932Y-72589373D02*
X111959742Y-72589373D01*
X111959742Y-72589373D02*
X112040694Y-72629849D01*
X112040694Y-72629849D02*
X112081171Y-72670325D01*
X112081171Y-72670325D02*
X112121647Y-72751277D01*
X112121647Y-72751277D02*
X112121647Y-72872706D01*
X112121647Y-72872706D02*
X112081171Y-72953658D01*
X112081171Y-72953658D02*
X112040694Y-72994135D01*
X112040694Y-72994135D02*
X111959742Y-73034611D01*
X111959742Y-73034611D02*
X111635932Y-73034611D01*
X112485932Y-73439373D02*
X112485932Y-72589373D01*
X111635932Y-75839373D02*
X111635932Y-74989373D01*
X111635932Y-74989373D02*
X111838313Y-74989373D01*
X111838313Y-74989373D02*
X111959742Y-75029849D01*
X111959742Y-75029849D02*
X112040694Y-75110801D01*
X112040694Y-75110801D02*
X112081171Y-75191754D01*
X112081171Y-75191754D02*
X112121647Y-75353658D01*
X112121647Y-75353658D02*
X112121647Y-75475087D01*
X112121647Y-75475087D02*
X112081171Y-75636992D01*
X112081171Y-75636992D02*
X112040694Y-75717944D01*
X112040694Y-75717944D02*
X111959742Y-75798897D01*
X111959742Y-75798897D02*
X111838313Y-75839373D01*
X111838313Y-75839373D02*
X111635932Y-75839373D01*
X112364504Y-74989373D02*
X112850218Y-74989373D01*
X112607361Y-75839373D02*
X112607361Y-74989373D01*
X113619266Y-75839373D02*
X113335932Y-75434611D01*
X113133551Y-75839373D02*
X113133551Y-74989373D01*
X113133551Y-74989373D02*
X113457361Y-74989373D01*
X113457361Y-74989373D02*
X113538313Y-75029849D01*
X113538313Y-75029849D02*
X113578790Y-75070325D01*
X113578790Y-75070325D02*
X113619266Y-75151277D01*
X113619266Y-75151277D02*
X113619266Y-75272706D01*
X113619266Y-75272706D02*
X113578790Y-75353658D01*
X113578790Y-75353658D02*
X113538313Y-75394135D01*
X113538313Y-75394135D02*
X113457361Y-75434611D01*
X113457361Y-75434611D02*
X113133551Y-75434611D01*
D11*
X65508095Y-56134819D02*
X65508095Y-56944342D01*
X65508095Y-56944342D02*
X65555714Y-57039580D01*
X65555714Y-57039580D02*
X65603333Y-57087200D01*
X65603333Y-57087200D02*
X65698571Y-57134819D01*
X65698571Y-57134819D02*
X65889047Y-57134819D01*
X65889047Y-57134819D02*
X65984285Y-57087200D01*
X65984285Y-57087200D02*
X66031904Y-57039580D01*
X66031904Y-57039580D02*
X66079523Y-56944342D01*
X66079523Y-56944342D02*
X66079523Y-56134819D01*
X66508095Y-56230057D02*
X66555714Y-56182438D01*
X66555714Y-56182438D02*
X66650952Y-56134819D01*
X66650952Y-56134819D02*
X66889047Y-56134819D01*
X66889047Y-56134819D02*
X66984285Y-56182438D01*
X66984285Y-56182438D02*
X67031904Y-56230057D01*
X67031904Y-56230057D02*
X67079523Y-56325295D01*
X67079523Y-56325295D02*
X67079523Y-56420533D01*
X67079523Y-56420533D02*
X67031904Y-56563390D01*
X67031904Y-56563390D02*
X66460476Y-57134819D01*
X66460476Y-57134819D02*
X67079523Y-57134819D01*
X67476667Y-58674819D02*
X67810000Y-59674819D01*
X67810000Y-59674819D02*
X68143333Y-58674819D01*
X69048095Y-59579580D02*
X69000476Y-59627200D01*
X69000476Y-59627200D02*
X68857619Y-59674819D01*
X68857619Y-59674819D02*
X68762381Y-59674819D01*
X68762381Y-59674819D02*
X68619524Y-59627200D01*
X68619524Y-59627200D02*
X68524286Y-59531961D01*
X68524286Y-59531961D02*
X68476667Y-59436723D01*
X68476667Y-59436723D02*
X68429048Y-59246247D01*
X68429048Y-59246247D02*
X68429048Y-59103390D01*
X68429048Y-59103390D02*
X68476667Y-58912914D01*
X68476667Y-58912914D02*
X68524286Y-58817676D01*
X68524286Y-58817676D02*
X68619524Y-58722438D01*
X68619524Y-58722438D02*
X68762381Y-58674819D01*
X68762381Y-58674819D02*
X68857619Y-58674819D01*
X68857619Y-58674819D02*
X69000476Y-58722438D01*
X69000476Y-58722438D02*
X69048095Y-58770057D01*
X70048095Y-59579580D02*
X70000476Y-59627200D01*
X70000476Y-59627200D02*
X69857619Y-59674819D01*
X69857619Y-59674819D02*
X69762381Y-59674819D01*
X69762381Y-59674819D02*
X69619524Y-59627200D01*
X69619524Y-59627200D02*
X69524286Y-59531961D01*
X69524286Y-59531961D02*
X69476667Y-59436723D01*
X69476667Y-59436723D02*
X69429048Y-59246247D01*
X69429048Y-59246247D02*
X69429048Y-59103390D01*
X69429048Y-59103390D02*
X69476667Y-58912914D01*
X69476667Y-58912914D02*
X69524286Y-58817676D01*
X69524286Y-58817676D02*
X69619524Y-58722438D01*
X69619524Y-58722438D02*
X69762381Y-58674819D01*
X69762381Y-58674819D02*
X69857619Y-58674819D01*
X69857619Y-58674819D02*
X70000476Y-58722438D01*
X70000476Y-58722438D02*
X70048095Y-58770057D01*
X68048095Y-61262438D02*
X67952857Y-61214819D01*
X67952857Y-61214819D02*
X67810000Y-61214819D01*
X67810000Y-61214819D02*
X67667143Y-61262438D01*
X67667143Y-61262438D02*
X67571905Y-61357676D01*
X67571905Y-61357676D02*
X67524286Y-61452914D01*
X67524286Y-61452914D02*
X67476667Y-61643390D01*
X67476667Y-61643390D02*
X67476667Y-61786247D01*
X67476667Y-61786247D02*
X67524286Y-61976723D01*
X67524286Y-61976723D02*
X67571905Y-62071961D01*
X67571905Y-62071961D02*
X67667143Y-62167200D01*
X67667143Y-62167200D02*
X67810000Y-62214819D01*
X67810000Y-62214819D02*
X67905238Y-62214819D01*
X67905238Y-62214819D02*
X68048095Y-62167200D01*
X68048095Y-62167200D02*
X68095714Y-62119580D01*
X68095714Y-62119580D02*
X68095714Y-61786247D01*
X68095714Y-61786247D02*
X67905238Y-61786247D01*
X68524286Y-62214819D02*
X68524286Y-61214819D01*
X68524286Y-61214819D02*
X69095714Y-62214819D01*
X69095714Y-62214819D02*
X69095714Y-61214819D01*
X69571905Y-62214819D02*
X69571905Y-61214819D01*
X69571905Y-61214819D02*
X69810000Y-61214819D01*
X69810000Y-61214819D02*
X69952857Y-61262438D01*
X69952857Y-61262438D02*
X70048095Y-61357676D01*
X70048095Y-61357676D02*
X70095714Y-61452914D01*
X70095714Y-61452914D02*
X70143333Y-61643390D01*
X70143333Y-61643390D02*
X70143333Y-61786247D01*
X70143333Y-61786247D02*
X70095714Y-61976723D01*
X70095714Y-61976723D02*
X70048095Y-62071961D01*
X70048095Y-62071961D02*
X69952857Y-62167200D01*
X69952857Y-62167200D02*
X69810000Y-62214819D01*
X69810000Y-62214819D02*
X69571905Y-62214819D01*
X67619524Y-64707200D02*
X67762381Y-64754819D01*
X67762381Y-64754819D02*
X68000476Y-64754819D01*
X68000476Y-64754819D02*
X68095714Y-64707200D01*
X68095714Y-64707200D02*
X68143333Y-64659580D01*
X68143333Y-64659580D02*
X68190952Y-64564342D01*
X68190952Y-64564342D02*
X68190952Y-64469104D01*
X68190952Y-64469104D02*
X68143333Y-64373866D01*
X68143333Y-64373866D02*
X68095714Y-64326247D01*
X68095714Y-64326247D02*
X68000476Y-64278628D01*
X68000476Y-64278628D02*
X67810000Y-64231009D01*
X67810000Y-64231009D02*
X67714762Y-64183390D01*
X67714762Y-64183390D02*
X67667143Y-64135771D01*
X67667143Y-64135771D02*
X67619524Y-64040533D01*
X67619524Y-64040533D02*
X67619524Y-63945295D01*
X67619524Y-63945295D02*
X67667143Y-63850057D01*
X67667143Y-63850057D02*
X67714762Y-63802438D01*
X67714762Y-63802438D02*
X67810000Y-63754819D01*
X67810000Y-63754819D02*
X68048095Y-63754819D01*
X68048095Y-63754819D02*
X68190952Y-63802438D01*
X69190952Y-64659580D02*
X69143333Y-64707200D01*
X69143333Y-64707200D02*
X69000476Y-64754819D01*
X69000476Y-64754819D02*
X68905238Y-64754819D01*
X68905238Y-64754819D02*
X68762381Y-64707200D01*
X68762381Y-64707200D02*
X68667143Y-64611961D01*
X68667143Y-64611961D02*
X68619524Y-64516723D01*
X68619524Y-64516723D02*
X68571905Y-64326247D01*
X68571905Y-64326247D02*
X68571905Y-64183390D01*
X68571905Y-64183390D02*
X68619524Y-63992914D01*
X68619524Y-63992914D02*
X68667143Y-63897676D01*
X68667143Y-63897676D02*
X68762381Y-63802438D01*
X68762381Y-63802438D02*
X68905238Y-63754819D01*
X68905238Y-63754819D02*
X69000476Y-63754819D01*
X69000476Y-63754819D02*
X69143333Y-63802438D01*
X69143333Y-63802438D02*
X69190952Y-63850057D01*
X70095714Y-64754819D02*
X69619524Y-64754819D01*
X69619524Y-64754819D02*
X69619524Y-63754819D01*
X67595714Y-67247200D02*
X67738571Y-67294819D01*
X67738571Y-67294819D02*
X67976666Y-67294819D01*
X67976666Y-67294819D02*
X68071904Y-67247200D01*
X68071904Y-67247200D02*
X68119523Y-67199580D01*
X68119523Y-67199580D02*
X68167142Y-67104342D01*
X68167142Y-67104342D02*
X68167142Y-67009104D01*
X68167142Y-67009104D02*
X68119523Y-66913866D01*
X68119523Y-66913866D02*
X68071904Y-66866247D01*
X68071904Y-66866247D02*
X67976666Y-66818628D01*
X67976666Y-66818628D02*
X67786190Y-66771009D01*
X67786190Y-66771009D02*
X67690952Y-66723390D01*
X67690952Y-66723390D02*
X67643333Y-66675771D01*
X67643333Y-66675771D02*
X67595714Y-66580533D01*
X67595714Y-66580533D02*
X67595714Y-66485295D01*
X67595714Y-66485295D02*
X67643333Y-66390057D01*
X67643333Y-66390057D02*
X67690952Y-66342438D01*
X67690952Y-66342438D02*
X67786190Y-66294819D01*
X67786190Y-66294819D02*
X68024285Y-66294819D01*
X68024285Y-66294819D02*
X68167142Y-66342438D01*
X68595714Y-67294819D02*
X68595714Y-66294819D01*
X68595714Y-66294819D02*
X68833809Y-66294819D01*
X68833809Y-66294819D02*
X68976666Y-66342438D01*
X68976666Y-66342438D02*
X69071904Y-66437676D01*
X69071904Y-66437676D02*
X69119523Y-66532914D01*
X69119523Y-66532914D02*
X69167142Y-66723390D01*
X69167142Y-66723390D02*
X69167142Y-66866247D01*
X69167142Y-66866247D02*
X69119523Y-67056723D01*
X69119523Y-67056723D02*
X69071904Y-67151961D01*
X69071904Y-67151961D02*
X68976666Y-67247200D01*
X68976666Y-67247200D02*
X68833809Y-67294819D01*
X68833809Y-67294819D02*
X68595714Y-67294819D01*
X69548095Y-67009104D02*
X70024285Y-67009104D01*
X69452857Y-67294819D02*
X69786190Y-66294819D01*
X69786190Y-66294819D02*
X70119523Y-67294819D01*
X67548095Y-68834819D02*
X68214761Y-69834819D01*
X68214761Y-68834819D02*
X67548095Y-69834819D01*
X68595714Y-69834819D02*
X68595714Y-68834819D01*
X68595714Y-68834819D02*
X68833809Y-68834819D01*
X68833809Y-68834819D02*
X68976666Y-68882438D01*
X68976666Y-68882438D02*
X69071904Y-68977676D01*
X69071904Y-68977676D02*
X69119523Y-69072914D01*
X69119523Y-69072914D02*
X69167142Y-69263390D01*
X69167142Y-69263390D02*
X69167142Y-69406247D01*
X69167142Y-69406247D02*
X69119523Y-69596723D01*
X69119523Y-69596723D02*
X69071904Y-69691961D01*
X69071904Y-69691961D02*
X68976666Y-69787200D01*
X68976666Y-69787200D02*
X68833809Y-69834819D01*
X68833809Y-69834819D02*
X68595714Y-69834819D01*
X69548095Y-69549104D02*
X70024285Y-69549104D01*
X69452857Y-69834819D02*
X69786190Y-68834819D01*
X69786190Y-68834819D02*
X70119523Y-69834819D01*
X67571905Y-71374819D02*
X68238571Y-72374819D01*
X68238571Y-71374819D02*
X67571905Y-72374819D01*
X69190952Y-72279580D02*
X69143333Y-72327200D01*
X69143333Y-72327200D02*
X69000476Y-72374819D01*
X69000476Y-72374819D02*
X68905238Y-72374819D01*
X68905238Y-72374819D02*
X68762381Y-72327200D01*
X68762381Y-72327200D02*
X68667143Y-72231961D01*
X68667143Y-72231961D02*
X68619524Y-72136723D01*
X68619524Y-72136723D02*
X68571905Y-71946247D01*
X68571905Y-71946247D02*
X68571905Y-71803390D01*
X68571905Y-71803390D02*
X68619524Y-71612914D01*
X68619524Y-71612914D02*
X68667143Y-71517676D01*
X68667143Y-71517676D02*
X68762381Y-71422438D01*
X68762381Y-71422438D02*
X68905238Y-71374819D01*
X68905238Y-71374819D02*
X69000476Y-71374819D01*
X69000476Y-71374819D02*
X69143333Y-71422438D01*
X69143333Y-71422438D02*
X69190952Y-71470057D01*
X70095714Y-72374819D02*
X69619524Y-72374819D01*
X69619524Y-72374819D02*
X69619524Y-71374819D01*
X67571905Y-74629104D02*
X68048095Y-74629104D01*
X67476667Y-74914819D02*
X67810000Y-73914819D01*
X67810000Y-73914819D02*
X68143333Y-74914819D01*
X68476667Y-74914819D02*
X68476667Y-73914819D01*
X68476667Y-73914819D02*
X68714762Y-73914819D01*
X68714762Y-73914819D02*
X68857619Y-73962438D01*
X68857619Y-73962438D02*
X68952857Y-74057676D01*
X68952857Y-74057676D02*
X69000476Y-74152914D01*
X69000476Y-74152914D02*
X69048095Y-74343390D01*
X69048095Y-74343390D02*
X69048095Y-74486247D01*
X69048095Y-74486247D02*
X69000476Y-74676723D01*
X69000476Y-74676723D02*
X68952857Y-74771961D01*
X68952857Y-74771961D02*
X68857619Y-74867200D01*
X68857619Y-74867200D02*
X68714762Y-74914819D01*
X68714762Y-74914819D02*
X68476667Y-74914819D01*
X69476667Y-74914819D02*
X69476667Y-73914819D01*
X69476667Y-73914819D02*
X69714762Y-73914819D01*
X69714762Y-73914819D02*
X69857619Y-73962438D01*
X69857619Y-73962438D02*
X69952857Y-74057676D01*
X69952857Y-74057676D02*
X70000476Y-74152914D01*
X70000476Y-74152914D02*
X70048095Y-74343390D01*
X70048095Y-74343390D02*
X70048095Y-74486247D01*
X70048095Y-74486247D02*
X70000476Y-74676723D01*
X70000476Y-74676723D02*
X69952857Y-74771961D01*
X69952857Y-74771961D02*
X69857619Y-74867200D01*
X69857619Y-74867200D02*
X69714762Y-74914819D01*
X69714762Y-74914819D02*
X69476667Y-74914819D01*
X67905238Y-77454819D02*
X67905238Y-76454819D01*
X68381428Y-77454819D02*
X68381428Y-76454819D01*
X68381428Y-76454819D02*
X68952856Y-77454819D01*
X68952856Y-77454819D02*
X68952856Y-76454819D01*
X69286190Y-76454819D02*
X69857618Y-76454819D01*
X69571904Y-77454819D02*
X69571904Y-76454819D01*
X107366666Y-94874819D02*
X107366666Y-95589104D01*
X107366666Y-95589104D02*
X107319047Y-95731961D01*
X107319047Y-95731961D02*
X107223809Y-95827200D01*
X107223809Y-95827200D02*
X107080952Y-95874819D01*
X107080952Y-95874819D02*
X106985714Y-95874819D01*
X107795238Y-94970057D02*
X107842857Y-94922438D01*
X107842857Y-94922438D02*
X107938095Y-94874819D01*
X107938095Y-94874819D02*
X108176190Y-94874819D01*
X108176190Y-94874819D02*
X108271428Y-94922438D01*
X108271428Y-94922438D02*
X108319047Y-94970057D01*
X108319047Y-94970057D02*
X108366666Y-95065295D01*
X108366666Y-95065295D02*
X108366666Y-95160533D01*
X108366666Y-95160533D02*
X108319047Y-95303390D01*
X108319047Y-95303390D02*
X107747619Y-95874819D01*
X107747619Y-95874819D02*
X108366666Y-95874819D01*
X83333333Y-85109580D02*
X83285714Y-85157200D01*
X83285714Y-85157200D02*
X83142857Y-85204819D01*
X83142857Y-85204819D02*
X83047619Y-85204819D01*
X83047619Y-85204819D02*
X82904762Y-85157200D01*
X82904762Y-85157200D02*
X82809524Y-85061961D01*
X82809524Y-85061961D02*
X82761905Y-84966723D01*
X82761905Y-84966723D02*
X82714286Y-84776247D01*
X82714286Y-84776247D02*
X82714286Y-84633390D01*
X82714286Y-84633390D02*
X82761905Y-84442914D01*
X82761905Y-84442914D02*
X82809524Y-84347676D01*
X82809524Y-84347676D02*
X82904762Y-84252438D01*
X82904762Y-84252438D02*
X83047619Y-84204819D01*
X83047619Y-84204819D02*
X83142857Y-84204819D01*
X83142857Y-84204819D02*
X83285714Y-84252438D01*
X83285714Y-84252438D02*
X83333333Y-84300057D01*
X84285714Y-85204819D02*
X83714286Y-85204819D01*
X84000000Y-85204819D02*
X84000000Y-84204819D01*
X84000000Y-84204819D02*
X83904762Y-84347676D01*
X83904762Y-84347676D02*
X83809524Y-84442914D01*
X83809524Y-84442914D02*
X83714286Y-84490533D01*
X56583333Y-29109580D02*
X56535714Y-29157200D01*
X56535714Y-29157200D02*
X56392857Y-29204819D01*
X56392857Y-29204819D02*
X56297619Y-29204819D01*
X56297619Y-29204819D02*
X56154762Y-29157200D01*
X56154762Y-29157200D02*
X56059524Y-29061961D01*
X56059524Y-29061961D02*
X56011905Y-28966723D01*
X56011905Y-28966723D02*
X55964286Y-28776247D01*
X55964286Y-28776247D02*
X55964286Y-28633390D01*
X55964286Y-28633390D02*
X56011905Y-28442914D01*
X56011905Y-28442914D02*
X56059524Y-28347676D01*
X56059524Y-28347676D02*
X56154762Y-28252438D01*
X56154762Y-28252438D02*
X56297619Y-28204819D01*
X56297619Y-28204819D02*
X56392857Y-28204819D01*
X56392857Y-28204819D02*
X56535714Y-28252438D01*
X56535714Y-28252438D02*
X56583333Y-28300057D01*
X56916667Y-28204819D02*
X57535714Y-28204819D01*
X57535714Y-28204819D02*
X57202381Y-28585771D01*
X57202381Y-28585771D02*
X57345238Y-28585771D01*
X57345238Y-28585771D02*
X57440476Y-28633390D01*
X57440476Y-28633390D02*
X57488095Y-28681009D01*
X57488095Y-28681009D02*
X57535714Y-28776247D01*
X57535714Y-28776247D02*
X57535714Y-29014342D01*
X57535714Y-29014342D02*
X57488095Y-29109580D01*
X57488095Y-29109580D02*
X57440476Y-29157200D01*
X57440476Y-29157200D02*
X57345238Y-29204819D01*
X57345238Y-29204819D02*
X57059524Y-29204819D01*
X57059524Y-29204819D02*
X56964286Y-29157200D01*
X56964286Y-29157200D02*
X56916667Y-29109580D01*
X34938095Y-45354819D02*
X34938095Y-46164342D01*
X34938095Y-46164342D02*
X34985714Y-46259580D01*
X34985714Y-46259580D02*
X35033333Y-46307200D01*
X35033333Y-46307200D02*
X35128571Y-46354819D01*
X35128571Y-46354819D02*
X35319047Y-46354819D01*
X35319047Y-46354819D02*
X35414285Y-46307200D01*
X35414285Y-46307200D02*
X35461904Y-46259580D01*
X35461904Y-46259580D02*
X35509523Y-46164342D01*
X35509523Y-46164342D02*
X35509523Y-45354819D01*
X36509523Y-46354819D02*
X35938095Y-46354819D01*
X36223809Y-46354819D02*
X36223809Y-45354819D01*
X36223809Y-45354819D02*
X36128571Y-45497676D01*
X36128571Y-45497676D02*
X36033333Y-45592914D01*
X36033333Y-45592914D02*
X35938095Y-45640533D01*
X35631009Y-80820475D02*
X35631009Y-80487142D01*
X36154819Y-80344285D02*
X36154819Y-80820475D01*
X36154819Y-80820475D02*
X35154819Y-80820475D01*
X35154819Y-80820475D02*
X35154819Y-80344285D01*
X36107200Y-79963332D02*
X36154819Y-79820475D01*
X36154819Y-79820475D02*
X36154819Y-79582380D01*
X36154819Y-79582380D02*
X36107200Y-79487142D01*
X36107200Y-79487142D02*
X36059580Y-79439523D01*
X36059580Y-79439523D02*
X35964342Y-79391904D01*
X35964342Y-79391904D02*
X35869104Y-79391904D01*
X35869104Y-79391904D02*
X35773866Y-79439523D01*
X35773866Y-79439523D02*
X35726247Y-79487142D01*
X35726247Y-79487142D02*
X35678628Y-79582380D01*
X35678628Y-79582380D02*
X35631009Y-79772856D01*
X35631009Y-79772856D02*
X35583390Y-79868094D01*
X35583390Y-79868094D02*
X35535771Y-79915713D01*
X35535771Y-79915713D02*
X35440533Y-79963332D01*
X35440533Y-79963332D02*
X35345295Y-79963332D01*
X35345295Y-79963332D02*
X35250057Y-79915713D01*
X35250057Y-79915713D02*
X35202438Y-79868094D01*
X35202438Y-79868094D02*
X35154819Y-79772856D01*
X35154819Y-79772856D02*
X35154819Y-79534761D01*
X35154819Y-79534761D02*
X35202438Y-79391904D01*
X36154819Y-78963332D02*
X35154819Y-78963332D01*
X35154819Y-78963332D02*
X35154819Y-78582380D01*
X35154819Y-78582380D02*
X35202438Y-78487142D01*
X35202438Y-78487142D02*
X35250057Y-78439523D01*
X35250057Y-78439523D02*
X35345295Y-78391904D01*
X35345295Y-78391904D02*
X35488152Y-78391904D01*
X35488152Y-78391904D02*
X35583390Y-78439523D01*
X35583390Y-78439523D02*
X35631009Y-78487142D01*
X35631009Y-78487142D02*
X35678628Y-78582380D01*
X35678628Y-78582380D02*
X35678628Y-78963332D01*
X35154819Y-78058570D02*
X35154819Y-77439523D01*
X35154819Y-77439523D02*
X35535771Y-77772856D01*
X35535771Y-77772856D02*
X35535771Y-77629999D01*
X35535771Y-77629999D02*
X35583390Y-77534761D01*
X35583390Y-77534761D02*
X35631009Y-77487142D01*
X35631009Y-77487142D02*
X35726247Y-77439523D01*
X35726247Y-77439523D02*
X35964342Y-77439523D01*
X35964342Y-77439523D02*
X36059580Y-77487142D01*
X36059580Y-77487142D02*
X36107200Y-77534761D01*
X36107200Y-77534761D02*
X36154819Y-77629999D01*
X36154819Y-77629999D02*
X36154819Y-77915713D01*
X36154819Y-77915713D02*
X36107200Y-78010951D01*
X36107200Y-78010951D02*
X36059580Y-78058570D01*
X35250057Y-77058570D02*
X35202438Y-77010951D01*
X35202438Y-77010951D02*
X35154819Y-76915713D01*
X35154819Y-76915713D02*
X35154819Y-76677618D01*
X35154819Y-76677618D02*
X35202438Y-76582380D01*
X35202438Y-76582380D02*
X35250057Y-76534761D01*
X35250057Y-76534761D02*
X35345295Y-76487142D01*
X35345295Y-76487142D02*
X35440533Y-76487142D01*
X35440533Y-76487142D02*
X35583390Y-76534761D01*
X35583390Y-76534761D02*
X36154819Y-77106189D01*
X36154819Y-77106189D02*
X36154819Y-76487142D01*
X35773866Y-76058570D02*
X35773866Y-75296666D01*
X36154819Y-74820475D02*
X35154819Y-74820475D01*
X35154819Y-74820475D02*
X35154819Y-74582380D01*
X35154819Y-74582380D02*
X35202438Y-74439523D01*
X35202438Y-74439523D02*
X35297676Y-74344285D01*
X35297676Y-74344285D02*
X35392914Y-74296666D01*
X35392914Y-74296666D02*
X35583390Y-74249047D01*
X35583390Y-74249047D02*
X35726247Y-74249047D01*
X35726247Y-74249047D02*
X35916723Y-74296666D01*
X35916723Y-74296666D02*
X36011961Y-74344285D01*
X36011961Y-74344285D02*
X36107200Y-74439523D01*
X36107200Y-74439523D02*
X36154819Y-74582380D01*
X36154819Y-74582380D02*
X36154819Y-74820475D01*
X36107200Y-73439523D02*
X36154819Y-73534761D01*
X36154819Y-73534761D02*
X36154819Y-73725237D01*
X36154819Y-73725237D02*
X36107200Y-73820475D01*
X36107200Y-73820475D02*
X36011961Y-73868094D01*
X36011961Y-73868094D02*
X35631009Y-73868094D01*
X35631009Y-73868094D02*
X35535771Y-73820475D01*
X35535771Y-73820475D02*
X35488152Y-73725237D01*
X35488152Y-73725237D02*
X35488152Y-73534761D01*
X35488152Y-73534761D02*
X35535771Y-73439523D01*
X35535771Y-73439523D02*
X35631009Y-73391904D01*
X35631009Y-73391904D02*
X35726247Y-73391904D01*
X35726247Y-73391904D02*
X35821485Y-73868094D01*
X35488152Y-73058570D02*
X36154819Y-72820475D01*
X36154819Y-72820475D02*
X35488152Y-72582380D01*
X36154819Y-72201427D02*
X35154819Y-72201427D01*
X36154819Y-71629999D02*
X35583390Y-72058570D01*
X35154819Y-71629999D02*
X35726247Y-72201427D01*
X36154819Y-71201427D02*
X35488152Y-71201427D01*
X35154819Y-71201427D02*
X35202438Y-71249046D01*
X35202438Y-71249046D02*
X35250057Y-71201427D01*
X35250057Y-71201427D02*
X35202438Y-71153808D01*
X35202438Y-71153808D02*
X35154819Y-71201427D01*
X35154819Y-71201427D02*
X35250057Y-71201427D01*
X35488152Y-70868094D02*
X35488152Y-70487142D01*
X35154819Y-70725237D02*
X36011961Y-70725237D01*
X36011961Y-70725237D02*
X36107200Y-70677618D01*
X36107200Y-70677618D02*
X36154819Y-70582380D01*
X36154819Y-70582380D02*
X36154819Y-70487142D01*
X36059580Y-69582380D02*
X36107200Y-69629999D01*
X36107200Y-69629999D02*
X36154819Y-69772856D01*
X36154819Y-69772856D02*
X36154819Y-69868094D01*
X36154819Y-69868094D02*
X36107200Y-70010951D01*
X36107200Y-70010951D02*
X36011961Y-70106189D01*
X36011961Y-70106189D02*
X35916723Y-70153808D01*
X35916723Y-70153808D02*
X35726247Y-70201427D01*
X35726247Y-70201427D02*
X35583390Y-70201427D01*
X35583390Y-70201427D02*
X35392914Y-70153808D01*
X35392914Y-70153808D02*
X35297676Y-70106189D01*
X35297676Y-70106189D02*
X35202438Y-70010951D01*
X35202438Y-70010951D02*
X35154819Y-69868094D01*
X35154819Y-69868094D02*
X35154819Y-69772856D01*
X35154819Y-69772856D02*
X35202438Y-69629999D01*
X35202438Y-69629999D02*
X35250057Y-69582380D01*
X35154819Y-68487141D02*
X35154819Y-67868094D01*
X35154819Y-67868094D02*
X35535771Y-68201427D01*
X35535771Y-68201427D02*
X35535771Y-68058570D01*
X35535771Y-68058570D02*
X35583390Y-67963332D01*
X35583390Y-67963332D02*
X35631009Y-67915713D01*
X35631009Y-67915713D02*
X35726247Y-67868094D01*
X35726247Y-67868094D02*
X35964342Y-67868094D01*
X35964342Y-67868094D02*
X36059580Y-67915713D01*
X36059580Y-67915713D02*
X36107200Y-67963332D01*
X36107200Y-67963332D02*
X36154819Y-68058570D01*
X36154819Y-68058570D02*
X36154819Y-68344284D01*
X36154819Y-68344284D02*
X36107200Y-68439522D01*
X36107200Y-68439522D02*
X36059580Y-68487141D01*
X35583390Y-67296665D02*
X35535771Y-67391903D01*
X35535771Y-67391903D02*
X35488152Y-67439522D01*
X35488152Y-67439522D02*
X35392914Y-67487141D01*
X35392914Y-67487141D02*
X35345295Y-67487141D01*
X35345295Y-67487141D02*
X35250057Y-67439522D01*
X35250057Y-67439522D02*
X35202438Y-67391903D01*
X35202438Y-67391903D02*
X35154819Y-67296665D01*
X35154819Y-67296665D02*
X35154819Y-67106189D01*
X35154819Y-67106189D02*
X35202438Y-67010951D01*
X35202438Y-67010951D02*
X35250057Y-66963332D01*
X35250057Y-66963332D02*
X35345295Y-66915713D01*
X35345295Y-66915713D02*
X35392914Y-66915713D01*
X35392914Y-66915713D02*
X35488152Y-66963332D01*
X35488152Y-66963332D02*
X35535771Y-67010951D01*
X35535771Y-67010951D02*
X35583390Y-67106189D01*
X35583390Y-67106189D02*
X35583390Y-67296665D01*
X35583390Y-67296665D02*
X35631009Y-67391903D01*
X35631009Y-67391903D02*
X35678628Y-67439522D01*
X35678628Y-67439522D02*
X35773866Y-67487141D01*
X35773866Y-67487141D02*
X35964342Y-67487141D01*
X35964342Y-67487141D02*
X36059580Y-67439522D01*
X36059580Y-67439522D02*
X36107200Y-67391903D01*
X36107200Y-67391903D02*
X36154819Y-67296665D01*
X36154819Y-67296665D02*
X36154819Y-67106189D01*
X36154819Y-67106189D02*
X36107200Y-67010951D01*
X36107200Y-67010951D02*
X36059580Y-66963332D01*
X36059580Y-66963332D02*
X35964342Y-66915713D01*
X35964342Y-66915713D02*
X35773866Y-66915713D01*
X35773866Y-66915713D02*
X35678628Y-66963332D01*
X35678628Y-66963332D02*
X35631009Y-67010951D01*
X35631009Y-67010951D02*
X35583390Y-67106189D01*
X35773866Y-66487141D02*
X35773866Y-65725237D01*
X35488152Y-65249046D02*
X36488152Y-65249046D01*
X35535771Y-65249046D02*
X35488152Y-65153808D01*
X35488152Y-65153808D02*
X35488152Y-64963332D01*
X35488152Y-64963332D02*
X35535771Y-64868094D01*
X35535771Y-64868094D02*
X35583390Y-64820475D01*
X35583390Y-64820475D02*
X35678628Y-64772856D01*
X35678628Y-64772856D02*
X35964342Y-64772856D01*
X35964342Y-64772856D02*
X36059580Y-64820475D01*
X36059580Y-64820475D02*
X36107200Y-64868094D01*
X36107200Y-64868094D02*
X36154819Y-64963332D01*
X36154819Y-64963332D02*
X36154819Y-65153808D01*
X36154819Y-65153808D02*
X36107200Y-65249046D01*
X36154819Y-64344284D02*
X35488152Y-64344284D01*
X35154819Y-64344284D02*
X35202438Y-64391903D01*
X35202438Y-64391903D02*
X35250057Y-64344284D01*
X35250057Y-64344284D02*
X35202438Y-64296665D01*
X35202438Y-64296665D02*
X35154819Y-64344284D01*
X35154819Y-64344284D02*
X35250057Y-64344284D01*
X35488152Y-63868094D02*
X36154819Y-63868094D01*
X35583390Y-63868094D02*
X35535771Y-63820475D01*
X35535771Y-63820475D02*
X35488152Y-63725237D01*
X35488152Y-63725237D02*
X35488152Y-63582380D01*
X35488152Y-63582380D02*
X35535771Y-63487142D01*
X35535771Y-63487142D02*
X35631009Y-63439523D01*
X35631009Y-63439523D02*
X36154819Y-63439523D01*
X25079289Y-93426099D02*
X24603099Y-93426099D01*
X24603099Y-93426099D02*
X24555480Y-93902289D01*
X24555480Y-93902289D02*
X24603099Y-93854670D01*
X24603099Y-93854670D02*
X24698337Y-93807051D01*
X24698337Y-93807051D02*
X24936432Y-93807051D01*
X24936432Y-93807051D02*
X25031670Y-93854670D01*
X25031670Y-93854670D02*
X25079289Y-93902289D01*
X25079289Y-93902289D02*
X25126908Y-93997527D01*
X25126908Y-93997527D02*
X25126908Y-94235622D01*
X25126908Y-94235622D02*
X25079289Y-94330860D01*
X25079289Y-94330860D02*
X25031670Y-94378480D01*
X25031670Y-94378480D02*
X24936432Y-94426099D01*
X24936432Y-94426099D02*
X24698337Y-94426099D01*
X24698337Y-94426099D02*
X24603099Y-94378480D01*
X24603099Y-94378480D02*
X24555480Y-94330860D01*
X25412623Y-93426099D02*
X25745956Y-94426099D01*
X25745956Y-94426099D02*
X26079289Y-93426099D01*
X24511541Y-47454819D02*
X25130588Y-47454819D01*
X25130588Y-47454819D02*
X24797255Y-47835771D01*
X24797255Y-47835771D02*
X24940112Y-47835771D01*
X24940112Y-47835771D02*
X25035350Y-47883390D01*
X25035350Y-47883390D02*
X25082969Y-47931009D01*
X25082969Y-47931009D02*
X25130588Y-48026247D01*
X25130588Y-48026247D02*
X25130588Y-48264342D01*
X25130588Y-48264342D02*
X25082969Y-48359580D01*
X25082969Y-48359580D02*
X25035350Y-48407200D01*
X25035350Y-48407200D02*
X24940112Y-48454819D01*
X24940112Y-48454819D02*
X24654398Y-48454819D01*
X24654398Y-48454819D02*
X24559160Y-48407200D01*
X24559160Y-48407200D02*
X24511541Y-48359580D01*
X25416303Y-47454819D02*
X25749636Y-48454819D01*
X25749636Y-48454819D02*
X26082969Y-47454819D01*
X26321065Y-47454819D02*
X26940112Y-47454819D01*
X26940112Y-47454819D02*
X26606779Y-47835771D01*
X26606779Y-47835771D02*
X26749636Y-47835771D01*
X26749636Y-47835771D02*
X26844874Y-47883390D01*
X26844874Y-47883390D02*
X26892493Y-47931009D01*
X26892493Y-47931009D02*
X26940112Y-48026247D01*
X26940112Y-48026247D02*
X26940112Y-48264342D01*
X26940112Y-48264342D02*
X26892493Y-48359580D01*
X26892493Y-48359580D02*
X26844874Y-48407200D01*
X26844874Y-48407200D02*
X26749636Y-48454819D01*
X26749636Y-48454819D02*
X26463922Y-48454819D01*
X26463922Y-48454819D02*
X26368684Y-48407200D01*
X26368684Y-48407200D02*
X26321065Y-48359580D01*
X24449636Y-52615427D02*
X24732969Y-53465427D01*
X24732969Y-53465427D02*
X25016303Y-52615427D01*
X25299635Y-53465427D02*
X25299635Y-52615427D01*
X25299635Y-52615427D02*
X25623445Y-52615427D01*
X25623445Y-52615427D02*
X25704397Y-52655903D01*
X25704397Y-52655903D02*
X25744874Y-52696379D01*
X25744874Y-52696379D02*
X25785350Y-52777331D01*
X25785350Y-52777331D02*
X25785350Y-52898760D01*
X25785350Y-52898760D02*
X25744874Y-52979712D01*
X25744874Y-52979712D02*
X25704397Y-53020189D01*
X25704397Y-53020189D02*
X25623445Y-53060665D01*
X25623445Y-53060665D02*
X25299635Y-53060665D01*
X26756778Y-52574951D02*
X26028207Y-53667808D01*
X27485350Y-52655903D02*
X27404397Y-52615427D01*
X27404397Y-52615427D02*
X27282969Y-52615427D01*
X27282969Y-52615427D02*
X27161540Y-52655903D01*
X27161540Y-52655903D02*
X27080588Y-52736855D01*
X27080588Y-52736855D02*
X27040111Y-52817808D01*
X27040111Y-52817808D02*
X26999635Y-52979712D01*
X26999635Y-52979712D02*
X26999635Y-53101141D01*
X26999635Y-53101141D02*
X27040111Y-53263046D01*
X27040111Y-53263046D02*
X27080588Y-53343998D01*
X27080588Y-53343998D02*
X27161540Y-53424951D01*
X27161540Y-53424951D02*
X27282969Y-53465427D01*
X27282969Y-53465427D02*
X27363921Y-53465427D01*
X27363921Y-53465427D02*
X27485350Y-53424951D01*
X27485350Y-53424951D02*
X27525826Y-53384474D01*
X27525826Y-53384474D02*
X27525826Y-53101141D01*
X27525826Y-53101141D02*
X27363921Y-53101141D01*
X27890111Y-53465427D02*
X27890111Y-52615427D01*
X27890111Y-52615427D02*
X28213921Y-52615427D01*
X28213921Y-52615427D02*
X28294873Y-52655903D01*
X28294873Y-52655903D02*
X28335350Y-52696379D01*
X28335350Y-52696379D02*
X28375826Y-52777331D01*
X28375826Y-52777331D02*
X28375826Y-52898760D01*
X28375826Y-52898760D02*
X28335350Y-52979712D01*
X28335350Y-52979712D02*
X28294873Y-53020189D01*
X28294873Y-53020189D02*
X28213921Y-53060665D01*
X28213921Y-53060665D02*
X27890111Y-53060665D01*
X28740111Y-53465427D02*
X28740111Y-52615427D01*
X29306778Y-52615427D02*
X29468683Y-52615427D01*
X29468683Y-52615427D02*
X29549635Y-52655903D01*
X29549635Y-52655903D02*
X29630588Y-52736855D01*
X29630588Y-52736855D02*
X29671064Y-52898760D01*
X29671064Y-52898760D02*
X29671064Y-53182093D01*
X29671064Y-53182093D02*
X29630588Y-53343998D01*
X29630588Y-53343998D02*
X29549635Y-53424951D01*
X29549635Y-53424951D02*
X29468683Y-53465427D01*
X29468683Y-53465427D02*
X29306778Y-53465427D01*
X29306778Y-53465427D02*
X29225826Y-53424951D01*
X29225826Y-53424951D02*
X29144873Y-53343998D01*
X29144873Y-53343998D02*
X29104397Y-53182093D01*
X29104397Y-53182093D02*
X29104397Y-52898760D01*
X29104397Y-52898760D02*
X29144873Y-52736855D01*
X29144873Y-52736855D02*
X29225826Y-52655903D01*
X29225826Y-52655903D02*
X29306778Y-52615427D01*
X29954397Y-52615427D02*
X30480588Y-52615427D01*
X30480588Y-52615427D02*
X30197254Y-52939236D01*
X30197254Y-52939236D02*
X30318683Y-52939236D01*
X30318683Y-52939236D02*
X30399635Y-52979712D01*
X30399635Y-52979712D02*
X30440111Y-53020189D01*
X30440111Y-53020189D02*
X30480588Y-53101141D01*
X30480588Y-53101141D02*
X30480588Y-53303522D01*
X30480588Y-53303522D02*
X30440111Y-53384474D01*
X30440111Y-53384474D02*
X30399635Y-53424951D01*
X30399635Y-53424951D02*
X30318683Y-53465427D01*
X30318683Y-53465427D02*
X30075826Y-53465427D01*
X30075826Y-53465427D02*
X29994873Y-53424951D01*
X29994873Y-53424951D02*
X29954397Y-53384474D01*
X31209159Y-52615427D02*
X31047254Y-52615427D01*
X31047254Y-52615427D02*
X30966302Y-52655903D01*
X30966302Y-52655903D02*
X30925826Y-52696379D01*
X30925826Y-52696379D02*
X30844873Y-52817808D01*
X30844873Y-52817808D02*
X30804397Y-52979712D01*
X30804397Y-52979712D02*
X30804397Y-53303522D01*
X30804397Y-53303522D02*
X30844873Y-53384474D01*
X30844873Y-53384474D02*
X30885350Y-53424951D01*
X30885350Y-53424951D02*
X30966302Y-53465427D01*
X30966302Y-53465427D02*
X31128207Y-53465427D01*
X31128207Y-53465427D02*
X31209159Y-53424951D01*
X31209159Y-53424951D02*
X31249635Y-53384474D01*
X31249635Y-53384474D02*
X31290112Y-53303522D01*
X31290112Y-53303522D02*
X31290112Y-53101141D01*
X31290112Y-53101141D02*
X31249635Y-53020189D01*
X31249635Y-53020189D02*
X31209159Y-52979712D01*
X31209159Y-52979712D02*
X31128207Y-52939236D01*
X31128207Y-52939236D02*
X30966302Y-52939236D01*
X30966302Y-52939236D02*
X30885350Y-52979712D01*
X30885350Y-52979712D02*
X30844873Y-53020189D01*
X30844873Y-53020189D02*
X30804397Y-53101141D01*
X24449636Y-55155427D02*
X24732969Y-56005427D01*
X24732969Y-56005427D02*
X25016303Y-55155427D01*
X25299635Y-56005427D02*
X25299635Y-55155427D01*
X25299635Y-55155427D02*
X25785350Y-56005427D01*
X25785350Y-56005427D02*
X25785350Y-55155427D01*
X26797254Y-55114951D02*
X26068683Y-56207808D01*
X27525826Y-55195903D02*
X27444873Y-55155427D01*
X27444873Y-55155427D02*
X27323445Y-55155427D01*
X27323445Y-55155427D02*
X27202016Y-55195903D01*
X27202016Y-55195903D02*
X27121064Y-55276855D01*
X27121064Y-55276855D02*
X27080587Y-55357808D01*
X27080587Y-55357808D02*
X27040111Y-55519712D01*
X27040111Y-55519712D02*
X27040111Y-55641141D01*
X27040111Y-55641141D02*
X27080587Y-55803046D01*
X27080587Y-55803046D02*
X27121064Y-55883998D01*
X27121064Y-55883998D02*
X27202016Y-55964951D01*
X27202016Y-55964951D02*
X27323445Y-56005427D01*
X27323445Y-56005427D02*
X27404397Y-56005427D01*
X27404397Y-56005427D02*
X27525826Y-55964951D01*
X27525826Y-55964951D02*
X27566302Y-55924474D01*
X27566302Y-55924474D02*
X27566302Y-55641141D01*
X27566302Y-55641141D02*
X27404397Y-55641141D01*
X27930587Y-56005427D02*
X27930587Y-55155427D01*
X27930587Y-55155427D02*
X28254397Y-55155427D01*
X28254397Y-55155427D02*
X28335349Y-55195903D01*
X28335349Y-55195903D02*
X28375826Y-55236379D01*
X28375826Y-55236379D02*
X28416302Y-55317331D01*
X28416302Y-55317331D02*
X28416302Y-55438760D01*
X28416302Y-55438760D02*
X28375826Y-55519712D01*
X28375826Y-55519712D02*
X28335349Y-55560189D01*
X28335349Y-55560189D02*
X28254397Y-55600665D01*
X28254397Y-55600665D02*
X27930587Y-55600665D01*
X28780587Y-56005427D02*
X28780587Y-55155427D01*
X29347254Y-55155427D02*
X29509159Y-55155427D01*
X29509159Y-55155427D02*
X29590111Y-55195903D01*
X29590111Y-55195903D02*
X29671064Y-55276855D01*
X29671064Y-55276855D02*
X29711540Y-55438760D01*
X29711540Y-55438760D02*
X29711540Y-55722093D01*
X29711540Y-55722093D02*
X29671064Y-55883998D01*
X29671064Y-55883998D02*
X29590111Y-55964951D01*
X29590111Y-55964951D02*
X29509159Y-56005427D01*
X29509159Y-56005427D02*
X29347254Y-56005427D01*
X29347254Y-56005427D02*
X29266302Y-55964951D01*
X29266302Y-55964951D02*
X29185349Y-55883998D01*
X29185349Y-55883998D02*
X29144873Y-55722093D01*
X29144873Y-55722093D02*
X29144873Y-55438760D01*
X29144873Y-55438760D02*
X29185349Y-55276855D01*
X29185349Y-55276855D02*
X29266302Y-55195903D01*
X29266302Y-55195903D02*
X29347254Y-55155427D01*
X29994873Y-55155427D02*
X30521064Y-55155427D01*
X30521064Y-55155427D02*
X30237730Y-55479236D01*
X30237730Y-55479236D02*
X30359159Y-55479236D01*
X30359159Y-55479236D02*
X30440111Y-55519712D01*
X30440111Y-55519712D02*
X30480587Y-55560189D01*
X30480587Y-55560189D02*
X30521064Y-55641141D01*
X30521064Y-55641141D02*
X30521064Y-55843522D01*
X30521064Y-55843522D02*
X30480587Y-55924474D01*
X30480587Y-55924474D02*
X30440111Y-55964951D01*
X30440111Y-55964951D02*
X30359159Y-56005427D01*
X30359159Y-56005427D02*
X30116302Y-56005427D01*
X30116302Y-56005427D02*
X30035349Y-55964951D01*
X30035349Y-55964951D02*
X29994873Y-55924474D01*
X30925826Y-56005427D02*
X31087730Y-56005427D01*
X31087730Y-56005427D02*
X31168683Y-55964951D01*
X31168683Y-55964951D02*
X31209159Y-55924474D01*
X31209159Y-55924474D02*
X31290111Y-55803046D01*
X31290111Y-55803046D02*
X31330588Y-55641141D01*
X31330588Y-55641141D02*
X31330588Y-55317331D01*
X31330588Y-55317331D02*
X31290111Y-55236379D01*
X31290111Y-55236379D02*
X31249635Y-55195903D01*
X31249635Y-55195903D02*
X31168683Y-55155427D01*
X31168683Y-55155427D02*
X31006778Y-55155427D01*
X31006778Y-55155427D02*
X30925826Y-55195903D01*
X30925826Y-55195903D02*
X30885349Y-55236379D01*
X30885349Y-55236379D02*
X30844873Y-55317331D01*
X30844873Y-55317331D02*
X30844873Y-55519712D01*
X30844873Y-55519712D02*
X30885349Y-55600665D01*
X30885349Y-55600665D02*
X30925826Y-55641141D01*
X30925826Y-55641141D02*
X31006778Y-55681617D01*
X31006778Y-55681617D02*
X31168683Y-55681617D01*
X31168683Y-55681617D02*
X31249635Y-55641141D01*
X31249635Y-55641141D02*
X31290111Y-55600665D01*
X31290111Y-55600665D02*
X31330588Y-55519712D01*
X25016303Y-57735903D02*
X24935350Y-57695427D01*
X24935350Y-57695427D02*
X24813922Y-57695427D01*
X24813922Y-57695427D02*
X24692493Y-57735903D01*
X24692493Y-57735903D02*
X24611541Y-57816855D01*
X24611541Y-57816855D02*
X24571064Y-57897808D01*
X24571064Y-57897808D02*
X24530588Y-58059712D01*
X24530588Y-58059712D02*
X24530588Y-58181141D01*
X24530588Y-58181141D02*
X24571064Y-58343046D01*
X24571064Y-58343046D02*
X24611541Y-58423998D01*
X24611541Y-58423998D02*
X24692493Y-58504951D01*
X24692493Y-58504951D02*
X24813922Y-58545427D01*
X24813922Y-58545427D02*
X24894874Y-58545427D01*
X24894874Y-58545427D02*
X25016303Y-58504951D01*
X25016303Y-58504951D02*
X25056779Y-58464474D01*
X25056779Y-58464474D02*
X25056779Y-58181141D01*
X25056779Y-58181141D02*
X24894874Y-58181141D01*
X25421064Y-58545427D02*
X25421064Y-57695427D01*
X25421064Y-57695427D02*
X25744874Y-57695427D01*
X25744874Y-57695427D02*
X25825826Y-57735903D01*
X25825826Y-57735903D02*
X25866303Y-57776379D01*
X25866303Y-57776379D02*
X25906779Y-57857331D01*
X25906779Y-57857331D02*
X25906779Y-57978760D01*
X25906779Y-57978760D02*
X25866303Y-58059712D01*
X25866303Y-58059712D02*
X25825826Y-58100189D01*
X25825826Y-58100189D02*
X25744874Y-58140665D01*
X25744874Y-58140665D02*
X25421064Y-58140665D01*
X26271064Y-58545427D02*
X26271064Y-57695427D01*
X26837731Y-57695427D02*
X26999636Y-57695427D01*
X26999636Y-57695427D02*
X27080588Y-57735903D01*
X27080588Y-57735903D02*
X27161541Y-57816855D01*
X27161541Y-57816855D02*
X27202017Y-57978760D01*
X27202017Y-57978760D02*
X27202017Y-58262093D01*
X27202017Y-58262093D02*
X27161541Y-58423998D01*
X27161541Y-58423998D02*
X27080588Y-58504951D01*
X27080588Y-58504951D02*
X26999636Y-58545427D01*
X26999636Y-58545427D02*
X26837731Y-58545427D01*
X26837731Y-58545427D02*
X26756779Y-58504951D01*
X26756779Y-58504951D02*
X26675826Y-58423998D01*
X26675826Y-58423998D02*
X26635350Y-58262093D01*
X26635350Y-58262093D02*
X26635350Y-57978760D01*
X26635350Y-57978760D02*
X26675826Y-57816855D01*
X26675826Y-57816855D02*
X26756779Y-57735903D01*
X26756779Y-57735903D02*
X26837731Y-57695427D01*
X27485350Y-57695427D02*
X28011541Y-57695427D01*
X28011541Y-57695427D02*
X27728207Y-58019236D01*
X27728207Y-58019236D02*
X27849636Y-58019236D01*
X27849636Y-58019236D02*
X27930588Y-58059712D01*
X27930588Y-58059712D02*
X27971064Y-58100189D01*
X27971064Y-58100189D02*
X28011541Y-58181141D01*
X28011541Y-58181141D02*
X28011541Y-58383522D01*
X28011541Y-58383522D02*
X27971064Y-58464474D01*
X27971064Y-58464474D02*
X27930588Y-58504951D01*
X27930588Y-58504951D02*
X27849636Y-58545427D01*
X27849636Y-58545427D02*
X27606779Y-58545427D01*
X27606779Y-58545427D02*
X27525826Y-58504951D01*
X27525826Y-58504951D02*
X27485350Y-58464474D01*
X28740112Y-57978760D02*
X28740112Y-58545427D01*
X28537731Y-57654951D02*
X28335350Y-58262093D01*
X28335350Y-58262093D02*
X28861541Y-58262093D01*
X25016303Y-60275903D02*
X24935350Y-60235427D01*
X24935350Y-60235427D02*
X24813922Y-60235427D01*
X24813922Y-60235427D02*
X24692493Y-60275903D01*
X24692493Y-60275903D02*
X24611541Y-60356855D01*
X24611541Y-60356855D02*
X24571064Y-60437808D01*
X24571064Y-60437808D02*
X24530588Y-60599712D01*
X24530588Y-60599712D02*
X24530588Y-60721141D01*
X24530588Y-60721141D02*
X24571064Y-60883046D01*
X24571064Y-60883046D02*
X24611541Y-60963998D01*
X24611541Y-60963998D02*
X24692493Y-61044951D01*
X24692493Y-61044951D02*
X24813922Y-61085427D01*
X24813922Y-61085427D02*
X24894874Y-61085427D01*
X24894874Y-61085427D02*
X25016303Y-61044951D01*
X25016303Y-61044951D02*
X25056779Y-61004474D01*
X25056779Y-61004474D02*
X25056779Y-60721141D01*
X25056779Y-60721141D02*
X24894874Y-60721141D01*
X25421064Y-61085427D02*
X25421064Y-60235427D01*
X25421064Y-60235427D02*
X25744874Y-60235427D01*
X25744874Y-60235427D02*
X25825826Y-60275903D01*
X25825826Y-60275903D02*
X25866303Y-60316379D01*
X25866303Y-60316379D02*
X25906779Y-60397331D01*
X25906779Y-60397331D02*
X25906779Y-60518760D01*
X25906779Y-60518760D02*
X25866303Y-60599712D01*
X25866303Y-60599712D02*
X25825826Y-60640189D01*
X25825826Y-60640189D02*
X25744874Y-60680665D01*
X25744874Y-60680665D02*
X25421064Y-60680665D01*
X26271064Y-61085427D02*
X26271064Y-60235427D01*
X26837731Y-60235427D02*
X26999636Y-60235427D01*
X26999636Y-60235427D02*
X27080588Y-60275903D01*
X27080588Y-60275903D02*
X27161541Y-60356855D01*
X27161541Y-60356855D02*
X27202017Y-60518760D01*
X27202017Y-60518760D02*
X27202017Y-60802093D01*
X27202017Y-60802093D02*
X27161541Y-60963998D01*
X27161541Y-60963998D02*
X27080588Y-61044951D01*
X27080588Y-61044951D02*
X26999636Y-61085427D01*
X26999636Y-61085427D02*
X26837731Y-61085427D01*
X26837731Y-61085427D02*
X26756779Y-61044951D01*
X26756779Y-61044951D02*
X26675826Y-60963998D01*
X26675826Y-60963998D02*
X26635350Y-60802093D01*
X26635350Y-60802093D02*
X26635350Y-60518760D01*
X26635350Y-60518760D02*
X26675826Y-60356855D01*
X26675826Y-60356855D02*
X26756779Y-60275903D01*
X26756779Y-60275903D02*
X26837731Y-60235427D01*
X27485350Y-60235427D02*
X28011541Y-60235427D01*
X28011541Y-60235427D02*
X27728207Y-60559236D01*
X27728207Y-60559236D02*
X27849636Y-60559236D01*
X27849636Y-60559236D02*
X27930588Y-60599712D01*
X27930588Y-60599712D02*
X27971064Y-60640189D01*
X27971064Y-60640189D02*
X28011541Y-60721141D01*
X28011541Y-60721141D02*
X28011541Y-60923522D01*
X28011541Y-60923522D02*
X27971064Y-61004474D01*
X27971064Y-61004474D02*
X27930588Y-61044951D01*
X27930588Y-61044951D02*
X27849636Y-61085427D01*
X27849636Y-61085427D02*
X27606779Y-61085427D01*
X27606779Y-61085427D02*
X27525826Y-61044951D01*
X27525826Y-61044951D02*
X27485350Y-61004474D01*
X28780588Y-60235427D02*
X28375826Y-60235427D01*
X28375826Y-60235427D02*
X28335350Y-60640189D01*
X28335350Y-60640189D02*
X28375826Y-60599712D01*
X28375826Y-60599712D02*
X28456779Y-60559236D01*
X28456779Y-60559236D02*
X28659160Y-60559236D01*
X28659160Y-60559236D02*
X28740112Y-60599712D01*
X28740112Y-60599712D02*
X28780588Y-60640189D01*
X28780588Y-60640189D02*
X28821065Y-60721141D01*
X28821065Y-60721141D02*
X28821065Y-60923522D01*
X28821065Y-60923522D02*
X28780588Y-61004474D01*
X28780588Y-61004474D02*
X28740112Y-61044951D01*
X28740112Y-61044951D02*
X28659160Y-61085427D01*
X28659160Y-61085427D02*
X28456779Y-61085427D01*
X28456779Y-61085427D02*
X28375826Y-61044951D01*
X28375826Y-61044951D02*
X28335350Y-61004474D01*
X25016303Y-62815903D02*
X24935350Y-62775427D01*
X24935350Y-62775427D02*
X24813922Y-62775427D01*
X24813922Y-62775427D02*
X24692493Y-62815903D01*
X24692493Y-62815903D02*
X24611541Y-62896855D01*
X24611541Y-62896855D02*
X24571064Y-62977808D01*
X24571064Y-62977808D02*
X24530588Y-63139712D01*
X24530588Y-63139712D02*
X24530588Y-63261141D01*
X24530588Y-63261141D02*
X24571064Y-63423046D01*
X24571064Y-63423046D02*
X24611541Y-63503998D01*
X24611541Y-63503998D02*
X24692493Y-63584951D01*
X24692493Y-63584951D02*
X24813922Y-63625427D01*
X24813922Y-63625427D02*
X24894874Y-63625427D01*
X24894874Y-63625427D02*
X25016303Y-63584951D01*
X25016303Y-63584951D02*
X25056779Y-63544474D01*
X25056779Y-63544474D02*
X25056779Y-63261141D01*
X25056779Y-63261141D02*
X24894874Y-63261141D01*
X25421064Y-63625427D02*
X25421064Y-62775427D01*
X25421064Y-62775427D02*
X25744874Y-62775427D01*
X25744874Y-62775427D02*
X25825826Y-62815903D01*
X25825826Y-62815903D02*
X25866303Y-62856379D01*
X25866303Y-62856379D02*
X25906779Y-62937331D01*
X25906779Y-62937331D02*
X25906779Y-63058760D01*
X25906779Y-63058760D02*
X25866303Y-63139712D01*
X25866303Y-63139712D02*
X25825826Y-63180189D01*
X25825826Y-63180189D02*
X25744874Y-63220665D01*
X25744874Y-63220665D02*
X25421064Y-63220665D01*
X26271064Y-63625427D02*
X26271064Y-62775427D01*
X26837731Y-62775427D02*
X26999636Y-62775427D01*
X26999636Y-62775427D02*
X27080588Y-62815903D01*
X27080588Y-62815903D02*
X27161541Y-62896855D01*
X27161541Y-62896855D02*
X27202017Y-63058760D01*
X27202017Y-63058760D02*
X27202017Y-63342093D01*
X27202017Y-63342093D02*
X27161541Y-63503998D01*
X27161541Y-63503998D02*
X27080588Y-63584951D01*
X27080588Y-63584951D02*
X26999636Y-63625427D01*
X26999636Y-63625427D02*
X26837731Y-63625427D01*
X26837731Y-63625427D02*
X26756779Y-63584951D01*
X26756779Y-63584951D02*
X26675826Y-63503998D01*
X26675826Y-63503998D02*
X26635350Y-63342093D01*
X26635350Y-63342093D02*
X26635350Y-63058760D01*
X26635350Y-63058760D02*
X26675826Y-62896855D01*
X26675826Y-62896855D02*
X26756779Y-62815903D01*
X26756779Y-62815903D02*
X26837731Y-62775427D01*
X27485350Y-62775427D02*
X28011541Y-62775427D01*
X28011541Y-62775427D02*
X27728207Y-63099236D01*
X27728207Y-63099236D02*
X27849636Y-63099236D01*
X27849636Y-63099236D02*
X27930588Y-63139712D01*
X27930588Y-63139712D02*
X27971064Y-63180189D01*
X27971064Y-63180189D02*
X28011541Y-63261141D01*
X28011541Y-63261141D02*
X28011541Y-63463522D01*
X28011541Y-63463522D02*
X27971064Y-63544474D01*
X27971064Y-63544474D02*
X27930588Y-63584951D01*
X27930588Y-63584951D02*
X27849636Y-63625427D01*
X27849636Y-63625427D02*
X27606779Y-63625427D01*
X27606779Y-63625427D02*
X27525826Y-63584951D01*
X27525826Y-63584951D02*
X27485350Y-63544474D01*
X28335350Y-62856379D02*
X28375826Y-62815903D01*
X28375826Y-62815903D02*
X28456779Y-62775427D01*
X28456779Y-62775427D02*
X28659160Y-62775427D01*
X28659160Y-62775427D02*
X28740112Y-62815903D01*
X28740112Y-62815903D02*
X28780588Y-62856379D01*
X28780588Y-62856379D02*
X28821065Y-62937331D01*
X28821065Y-62937331D02*
X28821065Y-63018284D01*
X28821065Y-63018284D02*
X28780588Y-63139712D01*
X28780588Y-63139712D02*
X28294874Y-63625427D01*
X28294874Y-63625427D02*
X28821065Y-63625427D01*
X25016303Y-65355903D02*
X24935350Y-65315427D01*
X24935350Y-65315427D02*
X24813922Y-65315427D01*
X24813922Y-65315427D02*
X24692493Y-65355903D01*
X24692493Y-65355903D02*
X24611541Y-65436855D01*
X24611541Y-65436855D02*
X24571064Y-65517808D01*
X24571064Y-65517808D02*
X24530588Y-65679712D01*
X24530588Y-65679712D02*
X24530588Y-65801141D01*
X24530588Y-65801141D02*
X24571064Y-65963046D01*
X24571064Y-65963046D02*
X24611541Y-66043998D01*
X24611541Y-66043998D02*
X24692493Y-66124951D01*
X24692493Y-66124951D02*
X24813922Y-66165427D01*
X24813922Y-66165427D02*
X24894874Y-66165427D01*
X24894874Y-66165427D02*
X25016303Y-66124951D01*
X25016303Y-66124951D02*
X25056779Y-66084474D01*
X25056779Y-66084474D02*
X25056779Y-65801141D01*
X25056779Y-65801141D02*
X24894874Y-65801141D01*
X25421064Y-66165427D02*
X25421064Y-65315427D01*
X25421064Y-65315427D02*
X25744874Y-65315427D01*
X25744874Y-65315427D02*
X25825826Y-65355903D01*
X25825826Y-65355903D02*
X25866303Y-65396379D01*
X25866303Y-65396379D02*
X25906779Y-65477331D01*
X25906779Y-65477331D02*
X25906779Y-65598760D01*
X25906779Y-65598760D02*
X25866303Y-65679712D01*
X25866303Y-65679712D02*
X25825826Y-65720189D01*
X25825826Y-65720189D02*
X25744874Y-65760665D01*
X25744874Y-65760665D02*
X25421064Y-65760665D01*
X26271064Y-66165427D02*
X26271064Y-65315427D01*
X26837731Y-65315427D02*
X26999636Y-65315427D01*
X26999636Y-65315427D02*
X27080588Y-65355903D01*
X27080588Y-65355903D02*
X27161541Y-65436855D01*
X27161541Y-65436855D02*
X27202017Y-65598760D01*
X27202017Y-65598760D02*
X27202017Y-65882093D01*
X27202017Y-65882093D02*
X27161541Y-66043998D01*
X27161541Y-66043998D02*
X27080588Y-66124951D01*
X27080588Y-66124951D02*
X26999636Y-66165427D01*
X26999636Y-66165427D02*
X26837731Y-66165427D01*
X26837731Y-66165427D02*
X26756779Y-66124951D01*
X26756779Y-66124951D02*
X26675826Y-66043998D01*
X26675826Y-66043998D02*
X26635350Y-65882093D01*
X26635350Y-65882093D02*
X26635350Y-65598760D01*
X26635350Y-65598760D02*
X26675826Y-65436855D01*
X26675826Y-65436855D02*
X26756779Y-65355903D01*
X26756779Y-65355903D02*
X26837731Y-65315427D01*
X27485350Y-65315427D02*
X28011541Y-65315427D01*
X28011541Y-65315427D02*
X27728207Y-65639236D01*
X27728207Y-65639236D02*
X27849636Y-65639236D01*
X27849636Y-65639236D02*
X27930588Y-65679712D01*
X27930588Y-65679712D02*
X27971064Y-65720189D01*
X27971064Y-65720189D02*
X28011541Y-65801141D01*
X28011541Y-65801141D02*
X28011541Y-66003522D01*
X28011541Y-66003522D02*
X27971064Y-66084474D01*
X27971064Y-66084474D02*
X27930588Y-66124951D01*
X27930588Y-66124951D02*
X27849636Y-66165427D01*
X27849636Y-66165427D02*
X27606779Y-66165427D01*
X27606779Y-66165427D02*
X27525826Y-66124951D01*
X27525826Y-66124951D02*
X27485350Y-66084474D01*
X28294874Y-65315427D02*
X28821065Y-65315427D01*
X28821065Y-65315427D02*
X28537731Y-65639236D01*
X28537731Y-65639236D02*
X28659160Y-65639236D01*
X28659160Y-65639236D02*
X28740112Y-65679712D01*
X28740112Y-65679712D02*
X28780588Y-65720189D01*
X28780588Y-65720189D02*
X28821065Y-65801141D01*
X28821065Y-65801141D02*
X28821065Y-66003522D01*
X28821065Y-66003522D02*
X28780588Y-66084474D01*
X28780588Y-66084474D02*
X28740112Y-66124951D01*
X28740112Y-66124951D02*
X28659160Y-66165427D01*
X28659160Y-66165427D02*
X28416303Y-66165427D01*
X28416303Y-66165427D02*
X28335350Y-66124951D01*
X28335350Y-66124951D02*
X28294874Y-66084474D01*
X25016303Y-67895903D02*
X24935350Y-67855427D01*
X24935350Y-67855427D02*
X24813922Y-67855427D01*
X24813922Y-67855427D02*
X24692493Y-67895903D01*
X24692493Y-67895903D02*
X24611541Y-67976855D01*
X24611541Y-67976855D02*
X24571064Y-68057808D01*
X24571064Y-68057808D02*
X24530588Y-68219712D01*
X24530588Y-68219712D02*
X24530588Y-68341141D01*
X24530588Y-68341141D02*
X24571064Y-68503046D01*
X24571064Y-68503046D02*
X24611541Y-68583998D01*
X24611541Y-68583998D02*
X24692493Y-68664951D01*
X24692493Y-68664951D02*
X24813922Y-68705427D01*
X24813922Y-68705427D02*
X24894874Y-68705427D01*
X24894874Y-68705427D02*
X25016303Y-68664951D01*
X25016303Y-68664951D02*
X25056779Y-68624474D01*
X25056779Y-68624474D02*
X25056779Y-68341141D01*
X25056779Y-68341141D02*
X24894874Y-68341141D01*
X25421064Y-68705427D02*
X25421064Y-67855427D01*
X25421064Y-67855427D02*
X25744874Y-67855427D01*
X25744874Y-67855427D02*
X25825826Y-67895903D01*
X25825826Y-67895903D02*
X25866303Y-67936379D01*
X25866303Y-67936379D02*
X25906779Y-68017331D01*
X25906779Y-68017331D02*
X25906779Y-68138760D01*
X25906779Y-68138760D02*
X25866303Y-68219712D01*
X25866303Y-68219712D02*
X25825826Y-68260189D01*
X25825826Y-68260189D02*
X25744874Y-68300665D01*
X25744874Y-68300665D02*
X25421064Y-68300665D01*
X26271064Y-68705427D02*
X26271064Y-67855427D01*
X26837731Y-67855427D02*
X26999636Y-67855427D01*
X26999636Y-67855427D02*
X27080588Y-67895903D01*
X27080588Y-67895903D02*
X27161541Y-67976855D01*
X27161541Y-67976855D02*
X27202017Y-68138760D01*
X27202017Y-68138760D02*
X27202017Y-68422093D01*
X27202017Y-68422093D02*
X27161541Y-68583998D01*
X27161541Y-68583998D02*
X27080588Y-68664951D01*
X27080588Y-68664951D02*
X26999636Y-68705427D01*
X26999636Y-68705427D02*
X26837731Y-68705427D01*
X26837731Y-68705427D02*
X26756779Y-68664951D01*
X26756779Y-68664951D02*
X26675826Y-68583998D01*
X26675826Y-68583998D02*
X26635350Y-68422093D01*
X26635350Y-68422093D02*
X26635350Y-68138760D01*
X26635350Y-68138760D02*
X26675826Y-67976855D01*
X26675826Y-67976855D02*
X26756779Y-67895903D01*
X26756779Y-67895903D02*
X26837731Y-67855427D01*
X27525826Y-67936379D02*
X27566302Y-67895903D01*
X27566302Y-67895903D02*
X27647255Y-67855427D01*
X27647255Y-67855427D02*
X27849636Y-67855427D01*
X27849636Y-67855427D02*
X27930588Y-67895903D01*
X27930588Y-67895903D02*
X27971064Y-67936379D01*
X27971064Y-67936379D02*
X28011541Y-68017331D01*
X28011541Y-68017331D02*
X28011541Y-68098284D01*
X28011541Y-68098284D02*
X27971064Y-68219712D01*
X27971064Y-68219712D02*
X27485350Y-68705427D01*
X27485350Y-68705427D02*
X28011541Y-68705427D01*
X28780588Y-67855427D02*
X28375826Y-67855427D01*
X28375826Y-67855427D02*
X28335350Y-68260189D01*
X28335350Y-68260189D02*
X28375826Y-68219712D01*
X28375826Y-68219712D02*
X28456779Y-68179236D01*
X28456779Y-68179236D02*
X28659160Y-68179236D01*
X28659160Y-68179236D02*
X28740112Y-68219712D01*
X28740112Y-68219712D02*
X28780588Y-68260189D01*
X28780588Y-68260189D02*
X28821065Y-68341141D01*
X28821065Y-68341141D02*
X28821065Y-68543522D01*
X28821065Y-68543522D02*
X28780588Y-68624474D01*
X28780588Y-68624474D02*
X28740112Y-68664951D01*
X28740112Y-68664951D02*
X28659160Y-68705427D01*
X28659160Y-68705427D02*
X28456779Y-68705427D01*
X28456779Y-68705427D02*
X28375826Y-68664951D01*
X28375826Y-68664951D02*
X28335350Y-68624474D01*
X25016303Y-70435903D02*
X24935350Y-70395427D01*
X24935350Y-70395427D02*
X24813922Y-70395427D01*
X24813922Y-70395427D02*
X24692493Y-70435903D01*
X24692493Y-70435903D02*
X24611541Y-70516855D01*
X24611541Y-70516855D02*
X24571064Y-70597808D01*
X24571064Y-70597808D02*
X24530588Y-70759712D01*
X24530588Y-70759712D02*
X24530588Y-70881141D01*
X24530588Y-70881141D02*
X24571064Y-71043046D01*
X24571064Y-71043046D02*
X24611541Y-71123998D01*
X24611541Y-71123998D02*
X24692493Y-71204951D01*
X24692493Y-71204951D02*
X24813922Y-71245427D01*
X24813922Y-71245427D02*
X24894874Y-71245427D01*
X24894874Y-71245427D02*
X25016303Y-71204951D01*
X25016303Y-71204951D02*
X25056779Y-71164474D01*
X25056779Y-71164474D02*
X25056779Y-70881141D01*
X25056779Y-70881141D02*
X24894874Y-70881141D01*
X25421064Y-71245427D02*
X25421064Y-70395427D01*
X25421064Y-70395427D02*
X25744874Y-70395427D01*
X25744874Y-70395427D02*
X25825826Y-70435903D01*
X25825826Y-70435903D02*
X25866303Y-70476379D01*
X25866303Y-70476379D02*
X25906779Y-70557331D01*
X25906779Y-70557331D02*
X25906779Y-70678760D01*
X25906779Y-70678760D02*
X25866303Y-70759712D01*
X25866303Y-70759712D02*
X25825826Y-70800189D01*
X25825826Y-70800189D02*
X25744874Y-70840665D01*
X25744874Y-70840665D02*
X25421064Y-70840665D01*
X26271064Y-71245427D02*
X26271064Y-70395427D01*
X26837731Y-70395427D02*
X26999636Y-70395427D01*
X26999636Y-70395427D02*
X27080588Y-70435903D01*
X27080588Y-70435903D02*
X27161541Y-70516855D01*
X27161541Y-70516855D02*
X27202017Y-70678760D01*
X27202017Y-70678760D02*
X27202017Y-70962093D01*
X27202017Y-70962093D02*
X27161541Y-71123998D01*
X27161541Y-71123998D02*
X27080588Y-71204951D01*
X27080588Y-71204951D02*
X26999636Y-71245427D01*
X26999636Y-71245427D02*
X26837731Y-71245427D01*
X26837731Y-71245427D02*
X26756779Y-71204951D01*
X26756779Y-71204951D02*
X26675826Y-71123998D01*
X26675826Y-71123998D02*
X26635350Y-70962093D01*
X26635350Y-70962093D02*
X26635350Y-70678760D01*
X26635350Y-70678760D02*
X26675826Y-70516855D01*
X26675826Y-70516855D02*
X26756779Y-70435903D01*
X26756779Y-70435903D02*
X26837731Y-70395427D01*
X27525826Y-70476379D02*
X27566302Y-70435903D01*
X27566302Y-70435903D02*
X27647255Y-70395427D01*
X27647255Y-70395427D02*
X27849636Y-70395427D01*
X27849636Y-70395427D02*
X27930588Y-70435903D01*
X27930588Y-70435903D02*
X27971064Y-70476379D01*
X27971064Y-70476379D02*
X28011541Y-70557331D01*
X28011541Y-70557331D02*
X28011541Y-70638284D01*
X28011541Y-70638284D02*
X27971064Y-70759712D01*
X27971064Y-70759712D02*
X27485350Y-71245427D01*
X27485350Y-71245427D02*
X28011541Y-71245427D01*
X28740112Y-70395427D02*
X28578207Y-70395427D01*
X28578207Y-70395427D02*
X28497255Y-70435903D01*
X28497255Y-70435903D02*
X28456779Y-70476379D01*
X28456779Y-70476379D02*
X28375826Y-70597808D01*
X28375826Y-70597808D02*
X28335350Y-70759712D01*
X28335350Y-70759712D02*
X28335350Y-71083522D01*
X28335350Y-71083522D02*
X28375826Y-71164474D01*
X28375826Y-71164474D02*
X28416303Y-71204951D01*
X28416303Y-71204951D02*
X28497255Y-71245427D01*
X28497255Y-71245427D02*
X28659160Y-71245427D01*
X28659160Y-71245427D02*
X28740112Y-71204951D01*
X28740112Y-71204951D02*
X28780588Y-71164474D01*
X28780588Y-71164474D02*
X28821065Y-71083522D01*
X28821065Y-71083522D02*
X28821065Y-70881141D01*
X28821065Y-70881141D02*
X28780588Y-70800189D01*
X28780588Y-70800189D02*
X28740112Y-70759712D01*
X28740112Y-70759712D02*
X28659160Y-70719236D01*
X28659160Y-70719236D02*
X28497255Y-70719236D01*
X28497255Y-70719236D02*
X28416303Y-70759712D01*
X28416303Y-70759712D02*
X28375826Y-70800189D01*
X28375826Y-70800189D02*
X28335350Y-70881141D01*
X25016303Y-72975903D02*
X24935350Y-72935427D01*
X24935350Y-72935427D02*
X24813922Y-72935427D01*
X24813922Y-72935427D02*
X24692493Y-72975903D01*
X24692493Y-72975903D02*
X24611541Y-73056855D01*
X24611541Y-73056855D02*
X24571064Y-73137808D01*
X24571064Y-73137808D02*
X24530588Y-73299712D01*
X24530588Y-73299712D02*
X24530588Y-73421141D01*
X24530588Y-73421141D02*
X24571064Y-73583046D01*
X24571064Y-73583046D02*
X24611541Y-73663998D01*
X24611541Y-73663998D02*
X24692493Y-73744951D01*
X24692493Y-73744951D02*
X24813922Y-73785427D01*
X24813922Y-73785427D02*
X24894874Y-73785427D01*
X24894874Y-73785427D02*
X25016303Y-73744951D01*
X25016303Y-73744951D02*
X25056779Y-73704474D01*
X25056779Y-73704474D02*
X25056779Y-73421141D01*
X25056779Y-73421141D02*
X24894874Y-73421141D01*
X25421064Y-73785427D02*
X25421064Y-72935427D01*
X25421064Y-72935427D02*
X25744874Y-72935427D01*
X25744874Y-72935427D02*
X25825826Y-72975903D01*
X25825826Y-72975903D02*
X25866303Y-73016379D01*
X25866303Y-73016379D02*
X25906779Y-73097331D01*
X25906779Y-73097331D02*
X25906779Y-73218760D01*
X25906779Y-73218760D02*
X25866303Y-73299712D01*
X25866303Y-73299712D02*
X25825826Y-73340189D01*
X25825826Y-73340189D02*
X25744874Y-73380665D01*
X25744874Y-73380665D02*
X25421064Y-73380665D01*
X26271064Y-73785427D02*
X26271064Y-72935427D01*
X26837731Y-72935427D02*
X26999636Y-72935427D01*
X26999636Y-72935427D02*
X27080588Y-72975903D01*
X27080588Y-72975903D02*
X27161541Y-73056855D01*
X27161541Y-73056855D02*
X27202017Y-73218760D01*
X27202017Y-73218760D02*
X27202017Y-73502093D01*
X27202017Y-73502093D02*
X27161541Y-73663998D01*
X27161541Y-73663998D02*
X27080588Y-73744951D01*
X27080588Y-73744951D02*
X26999636Y-73785427D01*
X26999636Y-73785427D02*
X26837731Y-73785427D01*
X26837731Y-73785427D02*
X26756779Y-73744951D01*
X26756779Y-73744951D02*
X26675826Y-73663998D01*
X26675826Y-73663998D02*
X26635350Y-73502093D01*
X26635350Y-73502093D02*
X26635350Y-73218760D01*
X26635350Y-73218760D02*
X26675826Y-73056855D01*
X26675826Y-73056855D02*
X26756779Y-72975903D01*
X26756779Y-72975903D02*
X26837731Y-72935427D01*
X27525826Y-73016379D02*
X27566302Y-72975903D01*
X27566302Y-72975903D02*
X27647255Y-72935427D01*
X27647255Y-72935427D02*
X27849636Y-72935427D01*
X27849636Y-72935427D02*
X27930588Y-72975903D01*
X27930588Y-72975903D02*
X27971064Y-73016379D01*
X27971064Y-73016379D02*
X28011541Y-73097331D01*
X28011541Y-73097331D02*
X28011541Y-73178284D01*
X28011541Y-73178284D02*
X27971064Y-73299712D01*
X27971064Y-73299712D02*
X27485350Y-73785427D01*
X27485350Y-73785427D02*
X28011541Y-73785427D01*
X28294874Y-72935427D02*
X28861541Y-72935427D01*
X28861541Y-72935427D02*
X28497255Y-73785427D01*
X25016303Y-75515903D02*
X24935350Y-75475427D01*
X24935350Y-75475427D02*
X24813922Y-75475427D01*
X24813922Y-75475427D02*
X24692493Y-75515903D01*
X24692493Y-75515903D02*
X24611541Y-75596855D01*
X24611541Y-75596855D02*
X24571064Y-75677808D01*
X24571064Y-75677808D02*
X24530588Y-75839712D01*
X24530588Y-75839712D02*
X24530588Y-75961141D01*
X24530588Y-75961141D02*
X24571064Y-76123046D01*
X24571064Y-76123046D02*
X24611541Y-76203998D01*
X24611541Y-76203998D02*
X24692493Y-76284951D01*
X24692493Y-76284951D02*
X24813922Y-76325427D01*
X24813922Y-76325427D02*
X24894874Y-76325427D01*
X24894874Y-76325427D02*
X25016303Y-76284951D01*
X25016303Y-76284951D02*
X25056779Y-76244474D01*
X25056779Y-76244474D02*
X25056779Y-75961141D01*
X25056779Y-75961141D02*
X24894874Y-75961141D01*
X25421064Y-76325427D02*
X25421064Y-75475427D01*
X25421064Y-75475427D02*
X25744874Y-75475427D01*
X25744874Y-75475427D02*
X25825826Y-75515903D01*
X25825826Y-75515903D02*
X25866303Y-75556379D01*
X25866303Y-75556379D02*
X25906779Y-75637331D01*
X25906779Y-75637331D02*
X25906779Y-75758760D01*
X25906779Y-75758760D02*
X25866303Y-75839712D01*
X25866303Y-75839712D02*
X25825826Y-75880189D01*
X25825826Y-75880189D02*
X25744874Y-75920665D01*
X25744874Y-75920665D02*
X25421064Y-75920665D01*
X26271064Y-76325427D02*
X26271064Y-75475427D01*
X26837731Y-75475427D02*
X26999636Y-75475427D01*
X26999636Y-75475427D02*
X27080588Y-75515903D01*
X27080588Y-75515903D02*
X27161541Y-75596855D01*
X27161541Y-75596855D02*
X27202017Y-75758760D01*
X27202017Y-75758760D02*
X27202017Y-76042093D01*
X27202017Y-76042093D02*
X27161541Y-76203998D01*
X27161541Y-76203998D02*
X27080588Y-76284951D01*
X27080588Y-76284951D02*
X26999636Y-76325427D01*
X26999636Y-76325427D02*
X26837731Y-76325427D01*
X26837731Y-76325427D02*
X26756779Y-76284951D01*
X26756779Y-76284951D02*
X26675826Y-76203998D01*
X26675826Y-76203998D02*
X26635350Y-76042093D01*
X26635350Y-76042093D02*
X26635350Y-75758760D01*
X26635350Y-75758760D02*
X26675826Y-75596855D01*
X26675826Y-75596855D02*
X26756779Y-75515903D01*
X26756779Y-75515903D02*
X26837731Y-75475427D01*
X28011541Y-76325427D02*
X27525826Y-76325427D01*
X27768683Y-76325427D02*
X27768683Y-75475427D01*
X27768683Y-75475427D02*
X27687731Y-75596855D01*
X27687731Y-75596855D02*
X27606779Y-75677808D01*
X27606779Y-75677808D02*
X27525826Y-75718284D01*
X28740112Y-75758760D02*
X28740112Y-76325427D01*
X28537731Y-75434951D02*
X28335350Y-76042093D01*
X28335350Y-76042093D02*
X28861541Y-76042093D01*
X29792493Y-75434951D02*
X29063922Y-76527808D01*
X30075826Y-76325427D02*
X30075826Y-75475427D01*
X30075826Y-75475427D02*
X30359160Y-76082570D01*
X30359160Y-76082570D02*
X30642493Y-75475427D01*
X30642493Y-75475427D02*
X30642493Y-76325427D01*
X30925827Y-75475427D02*
X31411541Y-75475427D01*
X31168684Y-76325427D02*
X31168684Y-75475427D01*
X31694874Y-76325427D02*
X31694874Y-75475427D01*
X31694874Y-75475427D02*
X31978208Y-76082570D01*
X31978208Y-76082570D02*
X32261541Y-75475427D01*
X32261541Y-75475427D02*
X32261541Y-76325427D01*
X32625827Y-76284951D02*
X32747256Y-76325427D01*
X32747256Y-76325427D02*
X32949637Y-76325427D01*
X32949637Y-76325427D02*
X33030589Y-76284951D01*
X33030589Y-76284951D02*
X33071065Y-76244474D01*
X33071065Y-76244474D02*
X33111542Y-76163522D01*
X33111542Y-76163522D02*
X33111542Y-76082570D01*
X33111542Y-76082570D02*
X33071065Y-76001617D01*
X33071065Y-76001617D02*
X33030589Y-75961141D01*
X33030589Y-75961141D02*
X32949637Y-75920665D01*
X32949637Y-75920665D02*
X32787732Y-75880189D01*
X32787732Y-75880189D02*
X32706780Y-75839712D01*
X32706780Y-75839712D02*
X32666303Y-75799236D01*
X32666303Y-75799236D02*
X32625827Y-75718284D01*
X32625827Y-75718284D02*
X32625827Y-75637331D01*
X32625827Y-75637331D02*
X32666303Y-75556379D01*
X32666303Y-75556379D02*
X32706780Y-75515903D01*
X32706780Y-75515903D02*
X32787732Y-75475427D01*
X32787732Y-75475427D02*
X32990113Y-75475427D01*
X32990113Y-75475427D02*
X33111542Y-75515903D01*
X25016303Y-78055903D02*
X24935350Y-78015427D01*
X24935350Y-78015427D02*
X24813922Y-78015427D01*
X24813922Y-78015427D02*
X24692493Y-78055903D01*
X24692493Y-78055903D02*
X24611541Y-78136855D01*
X24611541Y-78136855D02*
X24571064Y-78217808D01*
X24571064Y-78217808D02*
X24530588Y-78379712D01*
X24530588Y-78379712D02*
X24530588Y-78501141D01*
X24530588Y-78501141D02*
X24571064Y-78663046D01*
X24571064Y-78663046D02*
X24611541Y-78743998D01*
X24611541Y-78743998D02*
X24692493Y-78824951D01*
X24692493Y-78824951D02*
X24813922Y-78865427D01*
X24813922Y-78865427D02*
X24894874Y-78865427D01*
X24894874Y-78865427D02*
X25016303Y-78824951D01*
X25016303Y-78824951D02*
X25056779Y-78784474D01*
X25056779Y-78784474D02*
X25056779Y-78501141D01*
X25056779Y-78501141D02*
X24894874Y-78501141D01*
X25421064Y-78865427D02*
X25421064Y-78015427D01*
X25421064Y-78015427D02*
X25744874Y-78015427D01*
X25744874Y-78015427D02*
X25825826Y-78055903D01*
X25825826Y-78055903D02*
X25866303Y-78096379D01*
X25866303Y-78096379D02*
X25906779Y-78177331D01*
X25906779Y-78177331D02*
X25906779Y-78298760D01*
X25906779Y-78298760D02*
X25866303Y-78379712D01*
X25866303Y-78379712D02*
X25825826Y-78420189D01*
X25825826Y-78420189D02*
X25744874Y-78460665D01*
X25744874Y-78460665D02*
X25421064Y-78460665D01*
X26271064Y-78865427D02*
X26271064Y-78015427D01*
X26837731Y-78015427D02*
X26999636Y-78015427D01*
X26999636Y-78015427D02*
X27080588Y-78055903D01*
X27080588Y-78055903D02*
X27161541Y-78136855D01*
X27161541Y-78136855D02*
X27202017Y-78298760D01*
X27202017Y-78298760D02*
X27202017Y-78582093D01*
X27202017Y-78582093D02*
X27161541Y-78743998D01*
X27161541Y-78743998D02*
X27080588Y-78824951D01*
X27080588Y-78824951D02*
X26999636Y-78865427D01*
X26999636Y-78865427D02*
X26837731Y-78865427D01*
X26837731Y-78865427D02*
X26756779Y-78824951D01*
X26756779Y-78824951D02*
X26675826Y-78743998D01*
X26675826Y-78743998D02*
X26635350Y-78582093D01*
X26635350Y-78582093D02*
X26635350Y-78298760D01*
X26635350Y-78298760D02*
X26675826Y-78136855D01*
X26675826Y-78136855D02*
X26756779Y-78055903D01*
X26756779Y-78055903D02*
X26837731Y-78015427D01*
X28011541Y-78865427D02*
X27525826Y-78865427D01*
X27768683Y-78865427D02*
X27768683Y-78015427D01*
X27768683Y-78015427D02*
X27687731Y-78136855D01*
X27687731Y-78136855D02*
X27606779Y-78217808D01*
X27606779Y-78217808D02*
X27525826Y-78258284D01*
X28335350Y-78096379D02*
X28375826Y-78055903D01*
X28375826Y-78055903D02*
X28456779Y-78015427D01*
X28456779Y-78015427D02*
X28659160Y-78015427D01*
X28659160Y-78015427D02*
X28740112Y-78055903D01*
X28740112Y-78055903D02*
X28780588Y-78096379D01*
X28780588Y-78096379D02*
X28821065Y-78177331D01*
X28821065Y-78177331D02*
X28821065Y-78258284D01*
X28821065Y-78258284D02*
X28780588Y-78379712D01*
X28780588Y-78379712D02*
X28294874Y-78865427D01*
X28294874Y-78865427D02*
X28821065Y-78865427D01*
X29792493Y-77974951D02*
X29063922Y-79067808D01*
X30075826Y-78865427D02*
X30075826Y-78015427D01*
X30075826Y-78015427D02*
X30359160Y-78622570D01*
X30359160Y-78622570D02*
X30642493Y-78015427D01*
X30642493Y-78015427D02*
X30642493Y-78865427D01*
X30925827Y-78015427D02*
X31411541Y-78015427D01*
X31168684Y-78865427D02*
X31168684Y-78015427D01*
X31694874Y-78865427D02*
X31694874Y-78015427D01*
X31694874Y-78015427D02*
X31897255Y-78015427D01*
X31897255Y-78015427D02*
X32018684Y-78055903D01*
X32018684Y-78055903D02*
X32099636Y-78136855D01*
X32099636Y-78136855D02*
X32140113Y-78217808D01*
X32140113Y-78217808D02*
X32180589Y-78379712D01*
X32180589Y-78379712D02*
X32180589Y-78501141D01*
X32180589Y-78501141D02*
X32140113Y-78663046D01*
X32140113Y-78663046D02*
X32099636Y-78743998D01*
X32099636Y-78743998D02*
X32018684Y-78824951D01*
X32018684Y-78824951D02*
X31897255Y-78865427D01*
X31897255Y-78865427D02*
X31694874Y-78865427D01*
X32544874Y-78865427D02*
X32544874Y-78015427D01*
X25130588Y-80522438D02*
X25035350Y-80474819D01*
X25035350Y-80474819D02*
X24892493Y-80474819D01*
X24892493Y-80474819D02*
X24749636Y-80522438D01*
X24749636Y-80522438D02*
X24654398Y-80617676D01*
X24654398Y-80617676D02*
X24606779Y-80712914D01*
X24606779Y-80712914D02*
X24559160Y-80903390D01*
X24559160Y-80903390D02*
X24559160Y-81046247D01*
X24559160Y-81046247D02*
X24606779Y-81236723D01*
X24606779Y-81236723D02*
X24654398Y-81331961D01*
X24654398Y-81331961D02*
X24749636Y-81427200D01*
X24749636Y-81427200D02*
X24892493Y-81474819D01*
X24892493Y-81474819D02*
X24987731Y-81474819D01*
X24987731Y-81474819D02*
X25130588Y-81427200D01*
X25130588Y-81427200D02*
X25178207Y-81379580D01*
X25178207Y-81379580D02*
X25178207Y-81046247D01*
X25178207Y-81046247D02*
X24987731Y-81046247D01*
X25606779Y-81474819D02*
X25606779Y-80474819D01*
X25606779Y-80474819D02*
X26178207Y-81474819D01*
X26178207Y-81474819D02*
X26178207Y-80474819D01*
X26654398Y-81474819D02*
X26654398Y-80474819D01*
X26654398Y-80474819D02*
X26892493Y-80474819D01*
X26892493Y-80474819D02*
X27035350Y-80522438D01*
X27035350Y-80522438D02*
X27130588Y-80617676D01*
X27130588Y-80617676D02*
X27178207Y-80712914D01*
X27178207Y-80712914D02*
X27225826Y-80903390D01*
X27225826Y-80903390D02*
X27225826Y-81046247D01*
X27225826Y-81046247D02*
X27178207Y-81236723D01*
X27178207Y-81236723D02*
X27130588Y-81331961D01*
X27130588Y-81331961D02*
X27035350Y-81427200D01*
X27035350Y-81427200D02*
X26892493Y-81474819D01*
X26892493Y-81474819D02*
X26654398Y-81474819D01*
X25016303Y-83135903D02*
X24935350Y-83095427D01*
X24935350Y-83095427D02*
X24813922Y-83095427D01*
X24813922Y-83095427D02*
X24692493Y-83135903D01*
X24692493Y-83135903D02*
X24611541Y-83216855D01*
X24611541Y-83216855D02*
X24571064Y-83297808D01*
X24571064Y-83297808D02*
X24530588Y-83459712D01*
X24530588Y-83459712D02*
X24530588Y-83581141D01*
X24530588Y-83581141D02*
X24571064Y-83743046D01*
X24571064Y-83743046D02*
X24611541Y-83823998D01*
X24611541Y-83823998D02*
X24692493Y-83904951D01*
X24692493Y-83904951D02*
X24813922Y-83945427D01*
X24813922Y-83945427D02*
X24894874Y-83945427D01*
X24894874Y-83945427D02*
X25016303Y-83904951D01*
X25016303Y-83904951D02*
X25056779Y-83864474D01*
X25056779Y-83864474D02*
X25056779Y-83581141D01*
X25056779Y-83581141D02*
X24894874Y-83581141D01*
X25421064Y-83945427D02*
X25421064Y-83095427D01*
X25421064Y-83095427D02*
X25744874Y-83095427D01*
X25744874Y-83095427D02*
X25825826Y-83135903D01*
X25825826Y-83135903D02*
X25866303Y-83176379D01*
X25866303Y-83176379D02*
X25906779Y-83257331D01*
X25906779Y-83257331D02*
X25906779Y-83378760D01*
X25906779Y-83378760D02*
X25866303Y-83459712D01*
X25866303Y-83459712D02*
X25825826Y-83500189D01*
X25825826Y-83500189D02*
X25744874Y-83540665D01*
X25744874Y-83540665D02*
X25421064Y-83540665D01*
X26271064Y-83945427D02*
X26271064Y-83095427D01*
X26837731Y-83095427D02*
X26999636Y-83095427D01*
X26999636Y-83095427D02*
X27080588Y-83135903D01*
X27080588Y-83135903D02*
X27161541Y-83216855D01*
X27161541Y-83216855D02*
X27202017Y-83378760D01*
X27202017Y-83378760D02*
X27202017Y-83662093D01*
X27202017Y-83662093D02*
X27161541Y-83823998D01*
X27161541Y-83823998D02*
X27080588Y-83904951D01*
X27080588Y-83904951D02*
X26999636Y-83945427D01*
X26999636Y-83945427D02*
X26837731Y-83945427D01*
X26837731Y-83945427D02*
X26756779Y-83904951D01*
X26756779Y-83904951D02*
X26675826Y-83823998D01*
X26675826Y-83823998D02*
X26635350Y-83662093D01*
X26635350Y-83662093D02*
X26635350Y-83378760D01*
X26635350Y-83378760D02*
X26675826Y-83216855D01*
X26675826Y-83216855D02*
X26756779Y-83135903D01*
X26756779Y-83135903D02*
X26837731Y-83095427D01*
X28011541Y-83945427D02*
X27525826Y-83945427D01*
X27768683Y-83945427D02*
X27768683Y-83095427D01*
X27768683Y-83095427D02*
X27687731Y-83216855D01*
X27687731Y-83216855D02*
X27606779Y-83297808D01*
X27606779Y-83297808D02*
X27525826Y-83338284D01*
X28294874Y-83095427D02*
X28821065Y-83095427D01*
X28821065Y-83095427D02*
X28537731Y-83419236D01*
X28537731Y-83419236D02*
X28659160Y-83419236D01*
X28659160Y-83419236D02*
X28740112Y-83459712D01*
X28740112Y-83459712D02*
X28780588Y-83500189D01*
X28780588Y-83500189D02*
X28821065Y-83581141D01*
X28821065Y-83581141D02*
X28821065Y-83783522D01*
X28821065Y-83783522D02*
X28780588Y-83864474D01*
X28780588Y-83864474D02*
X28740112Y-83904951D01*
X28740112Y-83904951D02*
X28659160Y-83945427D01*
X28659160Y-83945427D02*
X28416303Y-83945427D01*
X28416303Y-83945427D02*
X28335350Y-83904951D01*
X28335350Y-83904951D02*
X28294874Y-83864474D01*
X29792493Y-83054951D02*
X29063922Y-84147808D01*
X30075826Y-83945427D02*
X30075826Y-83095427D01*
X30075826Y-83095427D02*
X30359160Y-83702570D01*
X30359160Y-83702570D02*
X30642493Y-83095427D01*
X30642493Y-83095427D02*
X30642493Y-83945427D01*
X30925827Y-83095427D02*
X31411541Y-83095427D01*
X31168684Y-83945427D02*
X31168684Y-83095427D01*
X32180589Y-83864474D02*
X32140113Y-83904951D01*
X32140113Y-83904951D02*
X32018684Y-83945427D01*
X32018684Y-83945427D02*
X31937732Y-83945427D01*
X31937732Y-83945427D02*
X31816303Y-83904951D01*
X31816303Y-83904951D02*
X31735351Y-83823998D01*
X31735351Y-83823998D02*
X31694874Y-83743046D01*
X31694874Y-83743046D02*
X31654398Y-83581141D01*
X31654398Y-83581141D02*
X31654398Y-83459712D01*
X31654398Y-83459712D02*
X31694874Y-83297808D01*
X31694874Y-83297808D02*
X31735351Y-83216855D01*
X31735351Y-83216855D02*
X31816303Y-83135903D01*
X31816303Y-83135903D02*
X31937732Y-83095427D01*
X31937732Y-83095427D02*
X32018684Y-83095427D01*
X32018684Y-83095427D02*
X32140113Y-83135903D01*
X32140113Y-83135903D02*
X32180589Y-83176379D01*
X32544874Y-83945427D02*
X32544874Y-83095427D01*
X33030589Y-83945427D02*
X32666303Y-83459712D01*
X33030589Y-83095427D02*
X32544874Y-83581141D01*
X24571064Y-86485427D02*
X24571064Y-85635427D01*
X24571064Y-85635427D02*
X24773445Y-85635427D01*
X24773445Y-85635427D02*
X24894874Y-85675903D01*
X24894874Y-85675903D02*
X24975826Y-85756855D01*
X24975826Y-85756855D02*
X25016303Y-85837808D01*
X25016303Y-85837808D02*
X25056779Y-85999712D01*
X25056779Y-85999712D02*
X25056779Y-86121141D01*
X25056779Y-86121141D02*
X25016303Y-86283046D01*
X25016303Y-86283046D02*
X24975826Y-86363998D01*
X24975826Y-86363998D02*
X24894874Y-86444951D01*
X24894874Y-86444951D02*
X24773445Y-86485427D01*
X24773445Y-86485427D02*
X24571064Y-86485427D01*
X25380588Y-85716379D02*
X25421064Y-85675903D01*
X25421064Y-85675903D02*
X25502017Y-85635427D01*
X25502017Y-85635427D02*
X25704398Y-85635427D01*
X25704398Y-85635427D02*
X25785350Y-85675903D01*
X25785350Y-85675903D02*
X25825826Y-85716379D01*
X25825826Y-85716379D02*
X25866303Y-85797331D01*
X25866303Y-85797331D02*
X25866303Y-85878284D01*
X25866303Y-85878284D02*
X25825826Y-85999712D01*
X25825826Y-85999712D02*
X25340112Y-86485427D01*
X25340112Y-86485427D02*
X25866303Y-86485427D01*
X24571064Y-89025427D02*
X24571064Y-88175427D01*
X24571064Y-88175427D02*
X24773445Y-88175427D01*
X24773445Y-88175427D02*
X24894874Y-88215903D01*
X24894874Y-88215903D02*
X24975826Y-88296855D01*
X24975826Y-88296855D02*
X25016303Y-88377808D01*
X25016303Y-88377808D02*
X25056779Y-88539712D01*
X25056779Y-88539712D02*
X25056779Y-88661141D01*
X25056779Y-88661141D02*
X25016303Y-88823046D01*
X25016303Y-88823046D02*
X24975826Y-88903998D01*
X24975826Y-88903998D02*
X24894874Y-88984951D01*
X24894874Y-88984951D02*
X24773445Y-89025427D01*
X24773445Y-89025427D02*
X24571064Y-89025427D01*
X25340112Y-88175427D02*
X25866303Y-88175427D01*
X25866303Y-88175427D02*
X25582969Y-88499236D01*
X25582969Y-88499236D02*
X25704398Y-88499236D01*
X25704398Y-88499236D02*
X25785350Y-88539712D01*
X25785350Y-88539712D02*
X25825826Y-88580189D01*
X25825826Y-88580189D02*
X25866303Y-88661141D01*
X25866303Y-88661141D02*
X25866303Y-88863522D01*
X25866303Y-88863522D02*
X25825826Y-88944474D01*
X25825826Y-88944474D02*
X25785350Y-88984951D01*
X25785350Y-88984951D02*
X25704398Y-89025427D01*
X25704398Y-89025427D02*
X25461541Y-89025427D01*
X25461541Y-89025427D02*
X25380588Y-88984951D01*
X25380588Y-88984951D02*
X25340112Y-88944474D01*
X25056779Y-91484474D02*
X25016303Y-91524951D01*
X25016303Y-91524951D02*
X24894874Y-91565427D01*
X24894874Y-91565427D02*
X24813922Y-91565427D01*
X24813922Y-91565427D02*
X24692493Y-91524951D01*
X24692493Y-91524951D02*
X24611541Y-91443998D01*
X24611541Y-91443998D02*
X24571064Y-91363046D01*
X24571064Y-91363046D02*
X24530588Y-91201141D01*
X24530588Y-91201141D02*
X24530588Y-91079712D01*
X24530588Y-91079712D02*
X24571064Y-90917808D01*
X24571064Y-90917808D02*
X24611541Y-90836855D01*
X24611541Y-90836855D02*
X24692493Y-90755903D01*
X24692493Y-90755903D02*
X24813922Y-90715427D01*
X24813922Y-90715427D02*
X24894874Y-90715427D01*
X24894874Y-90715427D02*
X25016303Y-90755903D01*
X25016303Y-90755903D02*
X25056779Y-90796379D01*
X25421064Y-91565427D02*
X25421064Y-90715427D01*
X25421064Y-90715427D02*
X25704398Y-91322570D01*
X25704398Y-91322570D02*
X25987731Y-90715427D01*
X25987731Y-90715427D02*
X25987731Y-91565427D01*
X26392493Y-91565427D02*
X26392493Y-90715427D01*
X26392493Y-90715427D02*
X26594874Y-90715427D01*
X26594874Y-90715427D02*
X26716303Y-90755903D01*
X26716303Y-90755903D02*
X26797255Y-90836855D01*
X26797255Y-90836855D02*
X26837732Y-90917808D01*
X26837732Y-90917808D02*
X26878208Y-91079712D01*
X26878208Y-91079712D02*
X26878208Y-91201141D01*
X26878208Y-91201141D02*
X26837732Y-91363046D01*
X26837732Y-91363046D02*
X26797255Y-91443998D01*
X26797255Y-91443998D02*
X26716303Y-91524951D01*
X26716303Y-91524951D02*
X26594874Y-91565427D01*
X26594874Y-91565427D02*
X26392493Y-91565427D01*
X24501921Y-50468289D02*
X24835254Y-50468289D01*
X24978111Y-50992099D02*
X24501921Y-50992099D01*
X24501921Y-50992099D02*
X24501921Y-49992099D01*
X24501921Y-49992099D02*
X24978111Y-49992099D01*
X25406683Y-50992099D02*
X25406683Y-49992099D01*
X25406683Y-49992099D02*
X25978111Y-50992099D01*
X25978111Y-50992099D02*
X25978111Y-49992099D01*
X27168587Y-49944480D02*
X26311445Y-51230194D01*
X28073349Y-50992099D02*
X27740016Y-50515908D01*
X27501921Y-50992099D02*
X27501921Y-49992099D01*
X27501921Y-49992099D02*
X27882873Y-49992099D01*
X27882873Y-49992099D02*
X27978111Y-50039718D01*
X27978111Y-50039718D02*
X28025730Y-50087337D01*
X28025730Y-50087337D02*
X28073349Y-50182575D01*
X28073349Y-50182575D02*
X28073349Y-50325432D01*
X28073349Y-50325432D02*
X28025730Y-50420670D01*
X28025730Y-50420670D02*
X27978111Y-50468289D01*
X27978111Y-50468289D02*
X27882873Y-50515908D01*
X27882873Y-50515908D02*
X27501921Y-50515908D01*
X28501921Y-50468289D02*
X28835254Y-50468289D01*
X28978111Y-50992099D02*
X28501921Y-50992099D01*
X28501921Y-50992099D02*
X28501921Y-49992099D01*
X28501921Y-49992099D02*
X28978111Y-49992099D01*
X29359064Y-50944480D02*
X29501921Y-50992099D01*
X29501921Y-50992099D02*
X29740016Y-50992099D01*
X29740016Y-50992099D02*
X29835254Y-50944480D01*
X29835254Y-50944480D02*
X29882873Y-50896860D01*
X29882873Y-50896860D02*
X29930492Y-50801622D01*
X29930492Y-50801622D02*
X29930492Y-50706384D01*
X29930492Y-50706384D02*
X29882873Y-50611146D01*
X29882873Y-50611146D02*
X29835254Y-50563527D01*
X29835254Y-50563527D02*
X29740016Y-50515908D01*
X29740016Y-50515908D02*
X29549540Y-50468289D01*
X29549540Y-50468289D02*
X29454302Y-50420670D01*
X29454302Y-50420670D02*
X29406683Y-50373051D01*
X29406683Y-50373051D02*
X29359064Y-50277813D01*
X29359064Y-50277813D02*
X29359064Y-50182575D01*
X29359064Y-50182575D02*
X29406683Y-50087337D01*
X29406683Y-50087337D02*
X29454302Y-50039718D01*
X29454302Y-50039718D02*
X29549540Y-49992099D01*
X29549540Y-49992099D02*
X29787635Y-49992099D01*
X29787635Y-49992099D02*
X29930492Y-50039718D01*
X30359064Y-50468289D02*
X30692397Y-50468289D01*
X30835254Y-50992099D02*
X30359064Y-50992099D01*
X30359064Y-50992099D02*
X30359064Y-49992099D01*
X30359064Y-49992099D02*
X30835254Y-49992099D01*
X31120969Y-49992099D02*
X31692397Y-49992099D01*
X31406683Y-50992099D02*
X31406683Y-49992099D01*
X44745601Y-47502438D02*
X44650363Y-47454819D01*
X44650363Y-47454819D02*
X44507506Y-47454819D01*
X44507506Y-47454819D02*
X44364649Y-47502438D01*
X44364649Y-47502438D02*
X44269411Y-47597676D01*
X44269411Y-47597676D02*
X44221792Y-47692914D01*
X44221792Y-47692914D02*
X44174173Y-47883390D01*
X44174173Y-47883390D02*
X44174173Y-48026247D01*
X44174173Y-48026247D02*
X44221792Y-48216723D01*
X44221792Y-48216723D02*
X44269411Y-48311961D01*
X44269411Y-48311961D02*
X44364649Y-48407200D01*
X44364649Y-48407200D02*
X44507506Y-48454819D01*
X44507506Y-48454819D02*
X44602744Y-48454819D01*
X44602744Y-48454819D02*
X44745601Y-48407200D01*
X44745601Y-48407200D02*
X44793220Y-48359580D01*
X44793220Y-48359580D02*
X44793220Y-48026247D01*
X44793220Y-48026247D02*
X44602744Y-48026247D01*
X45221792Y-48454819D02*
X45221792Y-47454819D01*
X45221792Y-47454819D02*
X45793220Y-48454819D01*
X45793220Y-48454819D02*
X45793220Y-47454819D01*
X46269411Y-48454819D02*
X46269411Y-47454819D01*
X46269411Y-47454819D02*
X46507506Y-47454819D01*
X46507506Y-47454819D02*
X46650363Y-47502438D01*
X46650363Y-47502438D02*
X46745601Y-47597676D01*
X46745601Y-47597676D02*
X46793220Y-47692914D01*
X46793220Y-47692914D02*
X46840839Y-47883390D01*
X46840839Y-47883390D02*
X46840839Y-48026247D01*
X46840839Y-48026247D02*
X46793220Y-48216723D01*
X46793220Y-48216723D02*
X46745601Y-48311961D01*
X46745601Y-48311961D02*
X46650363Y-48407200D01*
X46650363Y-48407200D02*
X46507506Y-48454819D01*
X46507506Y-48454819D02*
X46269411Y-48454819D01*
X43064649Y-50115903D02*
X42983696Y-50075427D01*
X42983696Y-50075427D02*
X42862268Y-50075427D01*
X42862268Y-50075427D02*
X42740839Y-50115903D01*
X42740839Y-50115903D02*
X42659887Y-50196855D01*
X42659887Y-50196855D02*
X42619410Y-50277808D01*
X42619410Y-50277808D02*
X42578934Y-50439712D01*
X42578934Y-50439712D02*
X42578934Y-50561141D01*
X42578934Y-50561141D02*
X42619410Y-50723046D01*
X42619410Y-50723046D02*
X42659887Y-50803998D01*
X42659887Y-50803998D02*
X42740839Y-50884951D01*
X42740839Y-50884951D02*
X42862268Y-50925427D01*
X42862268Y-50925427D02*
X42943220Y-50925427D01*
X42943220Y-50925427D02*
X43064649Y-50884951D01*
X43064649Y-50884951D02*
X43105125Y-50844474D01*
X43105125Y-50844474D02*
X43105125Y-50561141D01*
X43105125Y-50561141D02*
X42943220Y-50561141D01*
X43469410Y-50925427D02*
X43469410Y-50075427D01*
X43469410Y-50075427D02*
X43793220Y-50075427D01*
X43793220Y-50075427D02*
X43874172Y-50115903D01*
X43874172Y-50115903D02*
X43914649Y-50156379D01*
X43914649Y-50156379D02*
X43955125Y-50237331D01*
X43955125Y-50237331D02*
X43955125Y-50358760D01*
X43955125Y-50358760D02*
X43914649Y-50439712D01*
X43914649Y-50439712D02*
X43874172Y-50480189D01*
X43874172Y-50480189D02*
X43793220Y-50520665D01*
X43793220Y-50520665D02*
X43469410Y-50520665D01*
X44319410Y-50925427D02*
X44319410Y-50075427D01*
X44886077Y-50075427D02*
X45047982Y-50075427D01*
X45047982Y-50075427D02*
X45128934Y-50115903D01*
X45128934Y-50115903D02*
X45209887Y-50196855D01*
X45209887Y-50196855D02*
X45250363Y-50358760D01*
X45250363Y-50358760D02*
X45250363Y-50642093D01*
X45250363Y-50642093D02*
X45209887Y-50803998D01*
X45209887Y-50803998D02*
X45128934Y-50884951D01*
X45128934Y-50884951D02*
X45047982Y-50925427D01*
X45047982Y-50925427D02*
X44886077Y-50925427D01*
X44886077Y-50925427D02*
X44805125Y-50884951D01*
X44805125Y-50884951D02*
X44724172Y-50803998D01*
X44724172Y-50803998D02*
X44683696Y-50642093D01*
X44683696Y-50642093D02*
X44683696Y-50358760D01*
X44683696Y-50358760D02*
X44724172Y-50196855D01*
X44724172Y-50196855D02*
X44805125Y-50115903D01*
X44805125Y-50115903D02*
X44886077Y-50075427D01*
X45574172Y-50156379D02*
X45614648Y-50115903D01*
X45614648Y-50115903D02*
X45695601Y-50075427D01*
X45695601Y-50075427D02*
X45897982Y-50075427D01*
X45897982Y-50075427D02*
X45978934Y-50115903D01*
X45978934Y-50115903D02*
X46019410Y-50156379D01*
X46019410Y-50156379D02*
X46059887Y-50237331D01*
X46059887Y-50237331D02*
X46059887Y-50318284D01*
X46059887Y-50318284D02*
X46019410Y-50439712D01*
X46019410Y-50439712D02*
X45533696Y-50925427D01*
X45533696Y-50925427D02*
X46059887Y-50925427D01*
X46343220Y-50075427D02*
X46869411Y-50075427D01*
X46869411Y-50075427D02*
X46586077Y-50399236D01*
X46586077Y-50399236D02*
X46707506Y-50399236D01*
X46707506Y-50399236D02*
X46788458Y-50439712D01*
X46788458Y-50439712D02*
X46828934Y-50480189D01*
X46828934Y-50480189D02*
X46869411Y-50561141D01*
X46869411Y-50561141D02*
X46869411Y-50763522D01*
X46869411Y-50763522D02*
X46828934Y-50844474D01*
X46828934Y-50844474D02*
X46788458Y-50884951D01*
X46788458Y-50884951D02*
X46707506Y-50925427D01*
X46707506Y-50925427D02*
X46464649Y-50925427D01*
X46464649Y-50925427D02*
X46383696Y-50884951D01*
X46383696Y-50884951D02*
X46343220Y-50844474D01*
X43064649Y-52655903D02*
X42983696Y-52615427D01*
X42983696Y-52615427D02*
X42862268Y-52615427D01*
X42862268Y-52615427D02*
X42740839Y-52655903D01*
X42740839Y-52655903D02*
X42659887Y-52736855D01*
X42659887Y-52736855D02*
X42619410Y-52817808D01*
X42619410Y-52817808D02*
X42578934Y-52979712D01*
X42578934Y-52979712D02*
X42578934Y-53101141D01*
X42578934Y-53101141D02*
X42619410Y-53263046D01*
X42619410Y-53263046D02*
X42659887Y-53343998D01*
X42659887Y-53343998D02*
X42740839Y-53424951D01*
X42740839Y-53424951D02*
X42862268Y-53465427D01*
X42862268Y-53465427D02*
X42943220Y-53465427D01*
X42943220Y-53465427D02*
X43064649Y-53424951D01*
X43064649Y-53424951D02*
X43105125Y-53384474D01*
X43105125Y-53384474D02*
X43105125Y-53101141D01*
X43105125Y-53101141D02*
X42943220Y-53101141D01*
X43469410Y-53465427D02*
X43469410Y-52615427D01*
X43469410Y-52615427D02*
X43793220Y-52615427D01*
X43793220Y-52615427D02*
X43874172Y-52655903D01*
X43874172Y-52655903D02*
X43914649Y-52696379D01*
X43914649Y-52696379D02*
X43955125Y-52777331D01*
X43955125Y-52777331D02*
X43955125Y-52898760D01*
X43955125Y-52898760D02*
X43914649Y-52979712D01*
X43914649Y-52979712D02*
X43874172Y-53020189D01*
X43874172Y-53020189D02*
X43793220Y-53060665D01*
X43793220Y-53060665D02*
X43469410Y-53060665D01*
X44319410Y-53465427D02*
X44319410Y-52615427D01*
X44886077Y-52615427D02*
X45047982Y-52615427D01*
X45047982Y-52615427D02*
X45128934Y-52655903D01*
X45128934Y-52655903D02*
X45209887Y-52736855D01*
X45209887Y-52736855D02*
X45250363Y-52898760D01*
X45250363Y-52898760D02*
X45250363Y-53182093D01*
X45250363Y-53182093D02*
X45209887Y-53343998D01*
X45209887Y-53343998D02*
X45128934Y-53424951D01*
X45128934Y-53424951D02*
X45047982Y-53465427D01*
X45047982Y-53465427D02*
X44886077Y-53465427D01*
X44886077Y-53465427D02*
X44805125Y-53424951D01*
X44805125Y-53424951D02*
X44724172Y-53343998D01*
X44724172Y-53343998D02*
X44683696Y-53182093D01*
X44683696Y-53182093D02*
X44683696Y-52898760D01*
X44683696Y-52898760D02*
X44724172Y-52736855D01*
X44724172Y-52736855D02*
X44805125Y-52655903D01*
X44805125Y-52655903D02*
X44886077Y-52615427D01*
X45574172Y-52696379D02*
X45614648Y-52655903D01*
X45614648Y-52655903D02*
X45695601Y-52615427D01*
X45695601Y-52615427D02*
X45897982Y-52615427D01*
X45897982Y-52615427D02*
X45978934Y-52655903D01*
X45978934Y-52655903D02*
X46019410Y-52696379D01*
X46019410Y-52696379D02*
X46059887Y-52777331D01*
X46059887Y-52777331D02*
X46059887Y-52858284D01*
X46059887Y-52858284D02*
X46019410Y-52979712D01*
X46019410Y-52979712D02*
X45533696Y-53465427D01*
X45533696Y-53465427D02*
X46059887Y-53465427D01*
X46383696Y-52696379D02*
X46424172Y-52655903D01*
X46424172Y-52655903D02*
X46505125Y-52615427D01*
X46505125Y-52615427D02*
X46707506Y-52615427D01*
X46707506Y-52615427D02*
X46788458Y-52655903D01*
X46788458Y-52655903D02*
X46828934Y-52696379D01*
X46828934Y-52696379D02*
X46869411Y-52777331D01*
X46869411Y-52777331D02*
X46869411Y-52858284D01*
X46869411Y-52858284D02*
X46828934Y-52979712D01*
X46828934Y-52979712D02*
X46343220Y-53465427D01*
X46343220Y-53465427D02*
X46869411Y-53465427D01*
X38976554Y-55195903D02*
X38895601Y-55155427D01*
X38895601Y-55155427D02*
X38774173Y-55155427D01*
X38774173Y-55155427D02*
X38652744Y-55195903D01*
X38652744Y-55195903D02*
X38571792Y-55276855D01*
X38571792Y-55276855D02*
X38531315Y-55357808D01*
X38531315Y-55357808D02*
X38490839Y-55519712D01*
X38490839Y-55519712D02*
X38490839Y-55641141D01*
X38490839Y-55641141D02*
X38531315Y-55803046D01*
X38531315Y-55803046D02*
X38571792Y-55883998D01*
X38571792Y-55883998D02*
X38652744Y-55964951D01*
X38652744Y-55964951D02*
X38774173Y-56005427D01*
X38774173Y-56005427D02*
X38855125Y-56005427D01*
X38855125Y-56005427D02*
X38976554Y-55964951D01*
X38976554Y-55964951D02*
X39017030Y-55924474D01*
X39017030Y-55924474D02*
X39017030Y-55641141D01*
X39017030Y-55641141D02*
X38855125Y-55641141D01*
X39381315Y-56005427D02*
X39381315Y-55155427D01*
X39381315Y-55155427D02*
X39705125Y-55155427D01*
X39705125Y-55155427D02*
X39786077Y-55195903D01*
X39786077Y-55195903D02*
X39826554Y-55236379D01*
X39826554Y-55236379D02*
X39867030Y-55317331D01*
X39867030Y-55317331D02*
X39867030Y-55438760D01*
X39867030Y-55438760D02*
X39826554Y-55519712D01*
X39826554Y-55519712D02*
X39786077Y-55560189D01*
X39786077Y-55560189D02*
X39705125Y-55600665D01*
X39705125Y-55600665D02*
X39381315Y-55600665D01*
X40231315Y-56005427D02*
X40231315Y-55155427D01*
X40797982Y-55155427D02*
X40959887Y-55155427D01*
X40959887Y-55155427D02*
X41040839Y-55195903D01*
X41040839Y-55195903D02*
X41121792Y-55276855D01*
X41121792Y-55276855D02*
X41162268Y-55438760D01*
X41162268Y-55438760D02*
X41162268Y-55722093D01*
X41162268Y-55722093D02*
X41121792Y-55883998D01*
X41121792Y-55883998D02*
X41040839Y-55964951D01*
X41040839Y-55964951D02*
X40959887Y-56005427D01*
X40959887Y-56005427D02*
X40797982Y-56005427D01*
X40797982Y-56005427D02*
X40717030Y-55964951D01*
X40717030Y-55964951D02*
X40636077Y-55883998D01*
X40636077Y-55883998D02*
X40595601Y-55722093D01*
X40595601Y-55722093D02*
X40595601Y-55438760D01*
X40595601Y-55438760D02*
X40636077Y-55276855D01*
X40636077Y-55276855D02*
X40717030Y-55195903D01*
X40717030Y-55195903D02*
X40797982Y-55155427D01*
X41971792Y-56005427D02*
X41486077Y-56005427D01*
X41728934Y-56005427D02*
X41728934Y-55155427D01*
X41728934Y-55155427D02*
X41647982Y-55276855D01*
X41647982Y-55276855D02*
X41567030Y-55357808D01*
X41567030Y-55357808D02*
X41486077Y-55398284D01*
X42943220Y-55114951D02*
X42214649Y-56207808D01*
X43226553Y-55155427D02*
X43226553Y-55843522D01*
X43226553Y-55843522D02*
X43267030Y-55924474D01*
X43267030Y-55924474D02*
X43307506Y-55964951D01*
X43307506Y-55964951D02*
X43388458Y-56005427D01*
X43388458Y-56005427D02*
X43550363Y-56005427D01*
X43550363Y-56005427D02*
X43631315Y-55964951D01*
X43631315Y-55964951D02*
X43671792Y-55924474D01*
X43671792Y-55924474D02*
X43712268Y-55843522D01*
X43712268Y-55843522D02*
X43712268Y-55155427D01*
X44278934Y-55155427D02*
X44359887Y-55155427D01*
X44359887Y-55155427D02*
X44440839Y-55195903D01*
X44440839Y-55195903D02*
X44481315Y-55236379D01*
X44481315Y-55236379D02*
X44521791Y-55317331D01*
X44521791Y-55317331D02*
X44562268Y-55479236D01*
X44562268Y-55479236D02*
X44562268Y-55681617D01*
X44562268Y-55681617D02*
X44521791Y-55843522D01*
X44521791Y-55843522D02*
X44481315Y-55924474D01*
X44481315Y-55924474D02*
X44440839Y-55964951D01*
X44440839Y-55964951D02*
X44359887Y-56005427D01*
X44359887Y-56005427D02*
X44278934Y-56005427D01*
X44278934Y-56005427D02*
X44197982Y-55964951D01*
X44197982Y-55964951D02*
X44157506Y-55924474D01*
X44157506Y-55924474D02*
X44117029Y-55843522D01*
X44117029Y-55843522D02*
X44076553Y-55681617D01*
X44076553Y-55681617D02*
X44076553Y-55479236D01*
X44076553Y-55479236D02*
X44117029Y-55317331D01*
X44117029Y-55317331D02*
X44157506Y-55236379D01*
X44157506Y-55236379D02*
X44197982Y-55195903D01*
X44197982Y-55195903D02*
X44278934Y-55155427D01*
X44805125Y-55155427D02*
X45290839Y-55155427D01*
X45047982Y-56005427D02*
X45047982Y-55155427D01*
X45493220Y-55155427D02*
X46059887Y-56005427D01*
X46059887Y-55155427D02*
X45493220Y-56005427D01*
X46383696Y-56005427D02*
X46383696Y-55155427D01*
X46383696Y-55155427D02*
X46586077Y-55155427D01*
X46586077Y-55155427D02*
X46707506Y-55195903D01*
X46707506Y-55195903D02*
X46788458Y-55276855D01*
X46788458Y-55276855D02*
X46828935Y-55357808D01*
X46828935Y-55357808D02*
X46869411Y-55519712D01*
X46869411Y-55519712D02*
X46869411Y-55641141D01*
X46869411Y-55641141D02*
X46828935Y-55803046D01*
X46828935Y-55803046D02*
X46788458Y-55883998D01*
X46788458Y-55883998D02*
X46707506Y-55964951D01*
X46707506Y-55964951D02*
X46586077Y-56005427D01*
X46586077Y-56005427D02*
X46383696Y-56005427D01*
X38774173Y-57735903D02*
X38693220Y-57695427D01*
X38693220Y-57695427D02*
X38571792Y-57695427D01*
X38571792Y-57695427D02*
X38450363Y-57735903D01*
X38450363Y-57735903D02*
X38369411Y-57816855D01*
X38369411Y-57816855D02*
X38328934Y-57897808D01*
X38328934Y-57897808D02*
X38288458Y-58059712D01*
X38288458Y-58059712D02*
X38288458Y-58181141D01*
X38288458Y-58181141D02*
X38328934Y-58343046D01*
X38328934Y-58343046D02*
X38369411Y-58423998D01*
X38369411Y-58423998D02*
X38450363Y-58504951D01*
X38450363Y-58504951D02*
X38571792Y-58545427D01*
X38571792Y-58545427D02*
X38652744Y-58545427D01*
X38652744Y-58545427D02*
X38774173Y-58504951D01*
X38774173Y-58504951D02*
X38814649Y-58464474D01*
X38814649Y-58464474D02*
X38814649Y-58181141D01*
X38814649Y-58181141D02*
X38652744Y-58181141D01*
X39178934Y-58545427D02*
X39178934Y-57695427D01*
X39178934Y-57695427D02*
X39502744Y-57695427D01*
X39502744Y-57695427D02*
X39583696Y-57735903D01*
X39583696Y-57735903D02*
X39624173Y-57776379D01*
X39624173Y-57776379D02*
X39664649Y-57857331D01*
X39664649Y-57857331D02*
X39664649Y-57978760D01*
X39664649Y-57978760D02*
X39624173Y-58059712D01*
X39624173Y-58059712D02*
X39583696Y-58100189D01*
X39583696Y-58100189D02*
X39502744Y-58140665D01*
X39502744Y-58140665D02*
X39178934Y-58140665D01*
X40028934Y-58545427D02*
X40028934Y-57695427D01*
X40595601Y-57695427D02*
X40757506Y-57695427D01*
X40757506Y-57695427D02*
X40838458Y-57735903D01*
X40838458Y-57735903D02*
X40919411Y-57816855D01*
X40919411Y-57816855D02*
X40959887Y-57978760D01*
X40959887Y-57978760D02*
X40959887Y-58262093D01*
X40959887Y-58262093D02*
X40919411Y-58423998D01*
X40919411Y-58423998D02*
X40838458Y-58504951D01*
X40838458Y-58504951D02*
X40757506Y-58545427D01*
X40757506Y-58545427D02*
X40595601Y-58545427D01*
X40595601Y-58545427D02*
X40514649Y-58504951D01*
X40514649Y-58504951D02*
X40433696Y-58423998D01*
X40433696Y-58423998D02*
X40393220Y-58262093D01*
X40393220Y-58262093D02*
X40393220Y-57978760D01*
X40393220Y-57978760D02*
X40433696Y-57816855D01*
X40433696Y-57816855D02*
X40514649Y-57735903D01*
X40514649Y-57735903D02*
X40595601Y-57695427D01*
X41243220Y-57695427D02*
X41769411Y-57695427D01*
X41769411Y-57695427D02*
X41486077Y-58019236D01*
X41486077Y-58019236D02*
X41607506Y-58019236D01*
X41607506Y-58019236D02*
X41688458Y-58059712D01*
X41688458Y-58059712D02*
X41728934Y-58100189D01*
X41728934Y-58100189D02*
X41769411Y-58181141D01*
X41769411Y-58181141D02*
X41769411Y-58383522D01*
X41769411Y-58383522D02*
X41728934Y-58464474D01*
X41728934Y-58464474D02*
X41688458Y-58504951D01*
X41688458Y-58504951D02*
X41607506Y-58545427D01*
X41607506Y-58545427D02*
X41364649Y-58545427D01*
X41364649Y-58545427D02*
X41283696Y-58504951D01*
X41283696Y-58504951D02*
X41243220Y-58464474D01*
X42740839Y-57654951D02*
X42012268Y-58747808D01*
X43024172Y-57695427D02*
X43024172Y-58383522D01*
X43024172Y-58383522D02*
X43064649Y-58464474D01*
X43064649Y-58464474D02*
X43105125Y-58504951D01*
X43105125Y-58504951D02*
X43186077Y-58545427D01*
X43186077Y-58545427D02*
X43347982Y-58545427D01*
X43347982Y-58545427D02*
X43428934Y-58504951D01*
X43428934Y-58504951D02*
X43469411Y-58464474D01*
X43469411Y-58464474D02*
X43509887Y-58383522D01*
X43509887Y-58383522D02*
X43509887Y-57695427D01*
X44076553Y-57695427D02*
X44157506Y-57695427D01*
X44157506Y-57695427D02*
X44238458Y-57735903D01*
X44238458Y-57735903D02*
X44278934Y-57776379D01*
X44278934Y-57776379D02*
X44319410Y-57857331D01*
X44319410Y-57857331D02*
X44359887Y-58019236D01*
X44359887Y-58019236D02*
X44359887Y-58221617D01*
X44359887Y-58221617D02*
X44319410Y-58383522D01*
X44319410Y-58383522D02*
X44278934Y-58464474D01*
X44278934Y-58464474D02*
X44238458Y-58504951D01*
X44238458Y-58504951D02*
X44157506Y-58545427D01*
X44157506Y-58545427D02*
X44076553Y-58545427D01*
X44076553Y-58545427D02*
X43995601Y-58504951D01*
X43995601Y-58504951D02*
X43955125Y-58464474D01*
X43955125Y-58464474D02*
X43914648Y-58383522D01*
X43914648Y-58383522D02*
X43874172Y-58221617D01*
X43874172Y-58221617D02*
X43874172Y-58019236D01*
X43874172Y-58019236D02*
X43914648Y-57857331D01*
X43914648Y-57857331D02*
X43955125Y-57776379D01*
X43955125Y-57776379D02*
X43995601Y-57735903D01*
X43995601Y-57735903D02*
X44076553Y-57695427D01*
X45209887Y-58545427D02*
X44926553Y-58140665D01*
X44724172Y-58545427D02*
X44724172Y-57695427D01*
X44724172Y-57695427D02*
X45047982Y-57695427D01*
X45047982Y-57695427D02*
X45128934Y-57735903D01*
X45128934Y-57735903D02*
X45169411Y-57776379D01*
X45169411Y-57776379D02*
X45209887Y-57857331D01*
X45209887Y-57857331D02*
X45209887Y-57978760D01*
X45209887Y-57978760D02*
X45169411Y-58059712D01*
X45169411Y-58059712D02*
X45128934Y-58100189D01*
X45128934Y-58100189D02*
X45047982Y-58140665D01*
X45047982Y-58140665D02*
X44724172Y-58140665D01*
X45493220Y-57695427D02*
X46059887Y-58545427D01*
X46059887Y-57695427D02*
X45493220Y-58545427D01*
X46383696Y-58545427D02*
X46383696Y-57695427D01*
X46383696Y-57695427D02*
X46586077Y-57695427D01*
X46586077Y-57695427D02*
X46707506Y-57735903D01*
X46707506Y-57735903D02*
X46788458Y-57816855D01*
X46788458Y-57816855D02*
X46828935Y-57897808D01*
X46828935Y-57897808D02*
X46869411Y-58059712D01*
X46869411Y-58059712D02*
X46869411Y-58181141D01*
X46869411Y-58181141D02*
X46828935Y-58343046D01*
X46828935Y-58343046D02*
X46788458Y-58423998D01*
X46788458Y-58423998D02*
X46707506Y-58504951D01*
X46707506Y-58504951D02*
X46586077Y-58545427D01*
X46586077Y-58545427D02*
X46383696Y-58545427D01*
X43064649Y-60275903D02*
X42983696Y-60235427D01*
X42983696Y-60235427D02*
X42862268Y-60235427D01*
X42862268Y-60235427D02*
X42740839Y-60275903D01*
X42740839Y-60275903D02*
X42659887Y-60356855D01*
X42659887Y-60356855D02*
X42619410Y-60437808D01*
X42619410Y-60437808D02*
X42578934Y-60599712D01*
X42578934Y-60599712D02*
X42578934Y-60721141D01*
X42578934Y-60721141D02*
X42619410Y-60883046D01*
X42619410Y-60883046D02*
X42659887Y-60963998D01*
X42659887Y-60963998D02*
X42740839Y-61044951D01*
X42740839Y-61044951D02*
X42862268Y-61085427D01*
X42862268Y-61085427D02*
X42943220Y-61085427D01*
X42943220Y-61085427D02*
X43064649Y-61044951D01*
X43064649Y-61044951D02*
X43105125Y-61004474D01*
X43105125Y-61004474D02*
X43105125Y-60721141D01*
X43105125Y-60721141D02*
X42943220Y-60721141D01*
X43469410Y-61085427D02*
X43469410Y-60235427D01*
X43469410Y-60235427D02*
X43793220Y-60235427D01*
X43793220Y-60235427D02*
X43874172Y-60275903D01*
X43874172Y-60275903D02*
X43914649Y-60316379D01*
X43914649Y-60316379D02*
X43955125Y-60397331D01*
X43955125Y-60397331D02*
X43955125Y-60518760D01*
X43955125Y-60518760D02*
X43914649Y-60599712D01*
X43914649Y-60599712D02*
X43874172Y-60640189D01*
X43874172Y-60640189D02*
X43793220Y-60680665D01*
X43793220Y-60680665D02*
X43469410Y-60680665D01*
X44319410Y-61085427D02*
X44319410Y-60235427D01*
X44886077Y-60235427D02*
X45047982Y-60235427D01*
X45047982Y-60235427D02*
X45128934Y-60275903D01*
X45128934Y-60275903D02*
X45209887Y-60356855D01*
X45209887Y-60356855D02*
X45250363Y-60518760D01*
X45250363Y-60518760D02*
X45250363Y-60802093D01*
X45250363Y-60802093D02*
X45209887Y-60963998D01*
X45209887Y-60963998D02*
X45128934Y-61044951D01*
X45128934Y-61044951D02*
X45047982Y-61085427D01*
X45047982Y-61085427D02*
X44886077Y-61085427D01*
X44886077Y-61085427D02*
X44805125Y-61044951D01*
X44805125Y-61044951D02*
X44724172Y-60963998D01*
X44724172Y-60963998D02*
X44683696Y-60802093D01*
X44683696Y-60802093D02*
X44683696Y-60518760D01*
X44683696Y-60518760D02*
X44724172Y-60356855D01*
X44724172Y-60356855D02*
X44805125Y-60275903D01*
X44805125Y-60275903D02*
X44886077Y-60235427D01*
X45574172Y-60316379D02*
X45614648Y-60275903D01*
X45614648Y-60275903D02*
X45695601Y-60235427D01*
X45695601Y-60235427D02*
X45897982Y-60235427D01*
X45897982Y-60235427D02*
X45978934Y-60275903D01*
X45978934Y-60275903D02*
X46019410Y-60316379D01*
X46019410Y-60316379D02*
X46059887Y-60397331D01*
X46059887Y-60397331D02*
X46059887Y-60478284D01*
X46059887Y-60478284D02*
X46019410Y-60599712D01*
X46019410Y-60599712D02*
X45533696Y-61085427D01*
X45533696Y-61085427D02*
X46059887Y-61085427D01*
X46869411Y-61085427D02*
X46383696Y-61085427D01*
X46626553Y-61085427D02*
X46626553Y-60235427D01*
X46626553Y-60235427D02*
X46545601Y-60356855D01*
X46545601Y-60356855D02*
X46464649Y-60437808D01*
X46464649Y-60437808D02*
X46383696Y-60478284D01*
X44745601Y-62742438D02*
X44650363Y-62694819D01*
X44650363Y-62694819D02*
X44507506Y-62694819D01*
X44507506Y-62694819D02*
X44364649Y-62742438D01*
X44364649Y-62742438D02*
X44269411Y-62837676D01*
X44269411Y-62837676D02*
X44221792Y-62932914D01*
X44221792Y-62932914D02*
X44174173Y-63123390D01*
X44174173Y-63123390D02*
X44174173Y-63266247D01*
X44174173Y-63266247D02*
X44221792Y-63456723D01*
X44221792Y-63456723D02*
X44269411Y-63551961D01*
X44269411Y-63551961D02*
X44364649Y-63647200D01*
X44364649Y-63647200D02*
X44507506Y-63694819D01*
X44507506Y-63694819D02*
X44602744Y-63694819D01*
X44602744Y-63694819D02*
X44745601Y-63647200D01*
X44745601Y-63647200D02*
X44793220Y-63599580D01*
X44793220Y-63599580D02*
X44793220Y-63266247D01*
X44793220Y-63266247D02*
X44602744Y-63266247D01*
X45221792Y-63694819D02*
X45221792Y-62694819D01*
X45221792Y-62694819D02*
X45793220Y-63694819D01*
X45793220Y-63694819D02*
X45793220Y-62694819D01*
X46269411Y-63694819D02*
X46269411Y-62694819D01*
X46269411Y-62694819D02*
X46507506Y-62694819D01*
X46507506Y-62694819D02*
X46650363Y-62742438D01*
X46650363Y-62742438D02*
X46745601Y-62837676D01*
X46745601Y-62837676D02*
X46793220Y-62932914D01*
X46793220Y-62932914D02*
X46840839Y-63123390D01*
X46840839Y-63123390D02*
X46840839Y-63266247D01*
X46840839Y-63266247D02*
X46793220Y-63456723D01*
X46793220Y-63456723D02*
X46745601Y-63551961D01*
X46745601Y-63551961D02*
X46650363Y-63647200D01*
X46650363Y-63647200D02*
X46507506Y-63694819D01*
X46507506Y-63694819D02*
X46269411Y-63694819D01*
X43064649Y-65355903D02*
X42983696Y-65315427D01*
X42983696Y-65315427D02*
X42862268Y-65315427D01*
X42862268Y-65315427D02*
X42740839Y-65355903D01*
X42740839Y-65355903D02*
X42659887Y-65436855D01*
X42659887Y-65436855D02*
X42619410Y-65517808D01*
X42619410Y-65517808D02*
X42578934Y-65679712D01*
X42578934Y-65679712D02*
X42578934Y-65801141D01*
X42578934Y-65801141D02*
X42619410Y-65963046D01*
X42619410Y-65963046D02*
X42659887Y-66043998D01*
X42659887Y-66043998D02*
X42740839Y-66124951D01*
X42740839Y-66124951D02*
X42862268Y-66165427D01*
X42862268Y-66165427D02*
X42943220Y-66165427D01*
X42943220Y-66165427D02*
X43064649Y-66124951D01*
X43064649Y-66124951D02*
X43105125Y-66084474D01*
X43105125Y-66084474D02*
X43105125Y-65801141D01*
X43105125Y-65801141D02*
X42943220Y-65801141D01*
X43469410Y-66165427D02*
X43469410Y-65315427D01*
X43469410Y-65315427D02*
X43793220Y-65315427D01*
X43793220Y-65315427D02*
X43874172Y-65355903D01*
X43874172Y-65355903D02*
X43914649Y-65396379D01*
X43914649Y-65396379D02*
X43955125Y-65477331D01*
X43955125Y-65477331D02*
X43955125Y-65598760D01*
X43955125Y-65598760D02*
X43914649Y-65679712D01*
X43914649Y-65679712D02*
X43874172Y-65720189D01*
X43874172Y-65720189D02*
X43793220Y-65760665D01*
X43793220Y-65760665D02*
X43469410Y-65760665D01*
X44319410Y-66165427D02*
X44319410Y-65315427D01*
X44886077Y-65315427D02*
X45047982Y-65315427D01*
X45047982Y-65315427D02*
X45128934Y-65355903D01*
X45128934Y-65355903D02*
X45209887Y-65436855D01*
X45209887Y-65436855D02*
X45250363Y-65598760D01*
X45250363Y-65598760D02*
X45250363Y-65882093D01*
X45250363Y-65882093D02*
X45209887Y-66043998D01*
X45209887Y-66043998D02*
X45128934Y-66124951D01*
X45128934Y-66124951D02*
X45047982Y-66165427D01*
X45047982Y-66165427D02*
X44886077Y-66165427D01*
X44886077Y-66165427D02*
X44805125Y-66124951D01*
X44805125Y-66124951D02*
X44724172Y-66043998D01*
X44724172Y-66043998D02*
X44683696Y-65882093D01*
X44683696Y-65882093D02*
X44683696Y-65598760D01*
X44683696Y-65598760D02*
X44724172Y-65436855D01*
X44724172Y-65436855D02*
X44805125Y-65355903D01*
X44805125Y-65355903D02*
X44886077Y-65315427D01*
X46059887Y-66165427D02*
X45574172Y-66165427D01*
X45817029Y-66165427D02*
X45817029Y-65315427D01*
X45817029Y-65315427D02*
X45736077Y-65436855D01*
X45736077Y-65436855D02*
X45655125Y-65517808D01*
X45655125Y-65517808D02*
X45574172Y-65558284D01*
X46464649Y-66165427D02*
X46626553Y-66165427D01*
X46626553Y-66165427D02*
X46707506Y-66124951D01*
X46707506Y-66124951D02*
X46747982Y-66084474D01*
X46747982Y-66084474D02*
X46828934Y-65963046D01*
X46828934Y-65963046D02*
X46869411Y-65801141D01*
X46869411Y-65801141D02*
X46869411Y-65477331D01*
X46869411Y-65477331D02*
X46828934Y-65396379D01*
X46828934Y-65396379D02*
X46788458Y-65355903D01*
X46788458Y-65355903D02*
X46707506Y-65315427D01*
X46707506Y-65315427D02*
X46545601Y-65315427D01*
X46545601Y-65315427D02*
X46464649Y-65355903D01*
X46464649Y-65355903D02*
X46424172Y-65396379D01*
X46424172Y-65396379D02*
X46383696Y-65477331D01*
X46383696Y-65477331D02*
X46383696Y-65679712D01*
X46383696Y-65679712D02*
X46424172Y-65760665D01*
X46424172Y-65760665D02*
X46464649Y-65801141D01*
X46464649Y-65801141D02*
X46545601Y-65841617D01*
X46545601Y-65841617D02*
X46707506Y-65841617D01*
X46707506Y-65841617D02*
X46788458Y-65801141D01*
X46788458Y-65801141D02*
X46828934Y-65760665D01*
X46828934Y-65760665D02*
X46869411Y-65679712D01*
X43064649Y-67895903D02*
X42983696Y-67855427D01*
X42983696Y-67855427D02*
X42862268Y-67855427D01*
X42862268Y-67855427D02*
X42740839Y-67895903D01*
X42740839Y-67895903D02*
X42659887Y-67976855D01*
X42659887Y-67976855D02*
X42619410Y-68057808D01*
X42619410Y-68057808D02*
X42578934Y-68219712D01*
X42578934Y-68219712D02*
X42578934Y-68341141D01*
X42578934Y-68341141D02*
X42619410Y-68503046D01*
X42619410Y-68503046D02*
X42659887Y-68583998D01*
X42659887Y-68583998D02*
X42740839Y-68664951D01*
X42740839Y-68664951D02*
X42862268Y-68705427D01*
X42862268Y-68705427D02*
X42943220Y-68705427D01*
X42943220Y-68705427D02*
X43064649Y-68664951D01*
X43064649Y-68664951D02*
X43105125Y-68624474D01*
X43105125Y-68624474D02*
X43105125Y-68341141D01*
X43105125Y-68341141D02*
X42943220Y-68341141D01*
X43469410Y-68705427D02*
X43469410Y-67855427D01*
X43469410Y-67855427D02*
X43793220Y-67855427D01*
X43793220Y-67855427D02*
X43874172Y-67895903D01*
X43874172Y-67895903D02*
X43914649Y-67936379D01*
X43914649Y-67936379D02*
X43955125Y-68017331D01*
X43955125Y-68017331D02*
X43955125Y-68138760D01*
X43955125Y-68138760D02*
X43914649Y-68219712D01*
X43914649Y-68219712D02*
X43874172Y-68260189D01*
X43874172Y-68260189D02*
X43793220Y-68300665D01*
X43793220Y-68300665D02*
X43469410Y-68300665D01*
X44319410Y-68705427D02*
X44319410Y-67855427D01*
X44886077Y-67855427D02*
X45047982Y-67855427D01*
X45047982Y-67855427D02*
X45128934Y-67895903D01*
X45128934Y-67895903D02*
X45209887Y-67976855D01*
X45209887Y-67976855D02*
X45250363Y-68138760D01*
X45250363Y-68138760D02*
X45250363Y-68422093D01*
X45250363Y-68422093D02*
X45209887Y-68583998D01*
X45209887Y-68583998D02*
X45128934Y-68664951D01*
X45128934Y-68664951D02*
X45047982Y-68705427D01*
X45047982Y-68705427D02*
X44886077Y-68705427D01*
X44886077Y-68705427D02*
X44805125Y-68664951D01*
X44805125Y-68664951D02*
X44724172Y-68583998D01*
X44724172Y-68583998D02*
X44683696Y-68422093D01*
X44683696Y-68422093D02*
X44683696Y-68138760D01*
X44683696Y-68138760D02*
X44724172Y-67976855D01*
X44724172Y-67976855D02*
X44805125Y-67895903D01*
X44805125Y-67895903D02*
X44886077Y-67855427D01*
X46059887Y-68705427D02*
X45574172Y-68705427D01*
X45817029Y-68705427D02*
X45817029Y-67855427D01*
X45817029Y-67855427D02*
X45736077Y-67976855D01*
X45736077Y-67976855D02*
X45655125Y-68057808D01*
X45655125Y-68057808D02*
X45574172Y-68098284D01*
X46545601Y-68219712D02*
X46464649Y-68179236D01*
X46464649Y-68179236D02*
X46424172Y-68138760D01*
X46424172Y-68138760D02*
X46383696Y-68057808D01*
X46383696Y-68057808D02*
X46383696Y-68017331D01*
X46383696Y-68017331D02*
X46424172Y-67936379D01*
X46424172Y-67936379D02*
X46464649Y-67895903D01*
X46464649Y-67895903D02*
X46545601Y-67855427D01*
X46545601Y-67855427D02*
X46707506Y-67855427D01*
X46707506Y-67855427D02*
X46788458Y-67895903D01*
X46788458Y-67895903D02*
X46828934Y-67936379D01*
X46828934Y-67936379D02*
X46869411Y-68017331D01*
X46869411Y-68017331D02*
X46869411Y-68057808D01*
X46869411Y-68057808D02*
X46828934Y-68138760D01*
X46828934Y-68138760D02*
X46788458Y-68179236D01*
X46788458Y-68179236D02*
X46707506Y-68219712D01*
X46707506Y-68219712D02*
X46545601Y-68219712D01*
X46545601Y-68219712D02*
X46464649Y-68260189D01*
X46464649Y-68260189D02*
X46424172Y-68300665D01*
X46424172Y-68300665D02*
X46383696Y-68381617D01*
X46383696Y-68381617D02*
X46383696Y-68543522D01*
X46383696Y-68543522D02*
X46424172Y-68624474D01*
X46424172Y-68624474D02*
X46464649Y-68664951D01*
X46464649Y-68664951D02*
X46545601Y-68705427D01*
X46545601Y-68705427D02*
X46707506Y-68705427D01*
X46707506Y-68705427D02*
X46788458Y-68664951D01*
X46788458Y-68664951D02*
X46828934Y-68624474D01*
X46828934Y-68624474D02*
X46869411Y-68543522D01*
X46869411Y-68543522D02*
X46869411Y-68381617D01*
X46869411Y-68381617D02*
X46828934Y-68300665D01*
X46828934Y-68300665D02*
X46788458Y-68260189D01*
X46788458Y-68260189D02*
X46707506Y-68219712D01*
X43874173Y-70435903D02*
X43793220Y-70395427D01*
X43793220Y-70395427D02*
X43671792Y-70395427D01*
X43671792Y-70395427D02*
X43550363Y-70435903D01*
X43550363Y-70435903D02*
X43469411Y-70516855D01*
X43469411Y-70516855D02*
X43428934Y-70597808D01*
X43428934Y-70597808D02*
X43388458Y-70759712D01*
X43388458Y-70759712D02*
X43388458Y-70881141D01*
X43388458Y-70881141D02*
X43428934Y-71043046D01*
X43428934Y-71043046D02*
X43469411Y-71123998D01*
X43469411Y-71123998D02*
X43550363Y-71204951D01*
X43550363Y-71204951D02*
X43671792Y-71245427D01*
X43671792Y-71245427D02*
X43752744Y-71245427D01*
X43752744Y-71245427D02*
X43874173Y-71204951D01*
X43874173Y-71204951D02*
X43914649Y-71164474D01*
X43914649Y-71164474D02*
X43914649Y-70881141D01*
X43914649Y-70881141D02*
X43752744Y-70881141D01*
X44278934Y-71245427D02*
X44278934Y-70395427D01*
X44278934Y-70395427D02*
X44602744Y-70395427D01*
X44602744Y-70395427D02*
X44683696Y-70435903D01*
X44683696Y-70435903D02*
X44724173Y-70476379D01*
X44724173Y-70476379D02*
X44764649Y-70557331D01*
X44764649Y-70557331D02*
X44764649Y-70678760D01*
X44764649Y-70678760D02*
X44724173Y-70759712D01*
X44724173Y-70759712D02*
X44683696Y-70800189D01*
X44683696Y-70800189D02*
X44602744Y-70840665D01*
X44602744Y-70840665D02*
X44278934Y-70840665D01*
X45128934Y-71245427D02*
X45128934Y-70395427D01*
X45695601Y-70395427D02*
X45857506Y-70395427D01*
X45857506Y-70395427D02*
X45938458Y-70435903D01*
X45938458Y-70435903D02*
X46019411Y-70516855D01*
X46019411Y-70516855D02*
X46059887Y-70678760D01*
X46059887Y-70678760D02*
X46059887Y-70962093D01*
X46059887Y-70962093D02*
X46019411Y-71123998D01*
X46019411Y-71123998D02*
X45938458Y-71204951D01*
X45938458Y-71204951D02*
X45857506Y-71245427D01*
X45857506Y-71245427D02*
X45695601Y-71245427D01*
X45695601Y-71245427D02*
X45614649Y-71204951D01*
X45614649Y-71204951D02*
X45533696Y-71123998D01*
X45533696Y-71123998D02*
X45493220Y-70962093D01*
X45493220Y-70962093D02*
X45493220Y-70678760D01*
X45493220Y-70678760D02*
X45533696Y-70516855D01*
X45533696Y-70516855D02*
X45614649Y-70435903D01*
X45614649Y-70435903D02*
X45695601Y-70395427D01*
X46828934Y-70395427D02*
X46424172Y-70395427D01*
X46424172Y-70395427D02*
X46383696Y-70800189D01*
X46383696Y-70800189D02*
X46424172Y-70759712D01*
X46424172Y-70759712D02*
X46505125Y-70719236D01*
X46505125Y-70719236D02*
X46707506Y-70719236D01*
X46707506Y-70719236D02*
X46788458Y-70759712D01*
X46788458Y-70759712D02*
X46828934Y-70800189D01*
X46828934Y-70800189D02*
X46869411Y-70881141D01*
X46869411Y-70881141D02*
X46869411Y-71083522D01*
X46869411Y-71083522D02*
X46828934Y-71164474D01*
X46828934Y-71164474D02*
X46788458Y-71204951D01*
X46788458Y-71204951D02*
X46707506Y-71245427D01*
X46707506Y-71245427D02*
X46505125Y-71245427D01*
X46505125Y-71245427D02*
X46424172Y-71204951D01*
X46424172Y-71204951D02*
X46383696Y-71164474D01*
X43064649Y-72975903D02*
X42983696Y-72935427D01*
X42983696Y-72935427D02*
X42862268Y-72935427D01*
X42862268Y-72935427D02*
X42740839Y-72975903D01*
X42740839Y-72975903D02*
X42659887Y-73056855D01*
X42659887Y-73056855D02*
X42619410Y-73137808D01*
X42619410Y-73137808D02*
X42578934Y-73299712D01*
X42578934Y-73299712D02*
X42578934Y-73421141D01*
X42578934Y-73421141D02*
X42619410Y-73583046D01*
X42619410Y-73583046D02*
X42659887Y-73663998D01*
X42659887Y-73663998D02*
X42740839Y-73744951D01*
X42740839Y-73744951D02*
X42862268Y-73785427D01*
X42862268Y-73785427D02*
X42943220Y-73785427D01*
X42943220Y-73785427D02*
X43064649Y-73744951D01*
X43064649Y-73744951D02*
X43105125Y-73704474D01*
X43105125Y-73704474D02*
X43105125Y-73421141D01*
X43105125Y-73421141D02*
X42943220Y-73421141D01*
X43469410Y-73785427D02*
X43469410Y-72935427D01*
X43469410Y-72935427D02*
X43793220Y-72935427D01*
X43793220Y-72935427D02*
X43874172Y-72975903D01*
X43874172Y-72975903D02*
X43914649Y-73016379D01*
X43914649Y-73016379D02*
X43955125Y-73097331D01*
X43955125Y-73097331D02*
X43955125Y-73218760D01*
X43955125Y-73218760D02*
X43914649Y-73299712D01*
X43914649Y-73299712D02*
X43874172Y-73340189D01*
X43874172Y-73340189D02*
X43793220Y-73380665D01*
X43793220Y-73380665D02*
X43469410Y-73380665D01*
X44319410Y-73785427D02*
X44319410Y-72935427D01*
X44886077Y-72935427D02*
X45047982Y-72935427D01*
X45047982Y-72935427D02*
X45128934Y-72975903D01*
X45128934Y-72975903D02*
X45209887Y-73056855D01*
X45209887Y-73056855D02*
X45250363Y-73218760D01*
X45250363Y-73218760D02*
X45250363Y-73502093D01*
X45250363Y-73502093D02*
X45209887Y-73663998D01*
X45209887Y-73663998D02*
X45128934Y-73744951D01*
X45128934Y-73744951D02*
X45047982Y-73785427D01*
X45047982Y-73785427D02*
X44886077Y-73785427D01*
X44886077Y-73785427D02*
X44805125Y-73744951D01*
X44805125Y-73744951D02*
X44724172Y-73663998D01*
X44724172Y-73663998D02*
X44683696Y-73502093D01*
X44683696Y-73502093D02*
X44683696Y-73218760D01*
X44683696Y-73218760D02*
X44724172Y-73056855D01*
X44724172Y-73056855D02*
X44805125Y-72975903D01*
X44805125Y-72975903D02*
X44886077Y-72935427D01*
X46059887Y-73785427D02*
X45574172Y-73785427D01*
X45817029Y-73785427D02*
X45817029Y-72935427D01*
X45817029Y-72935427D02*
X45736077Y-73056855D01*
X45736077Y-73056855D02*
X45655125Y-73137808D01*
X45655125Y-73137808D02*
X45574172Y-73178284D01*
X46343220Y-72935427D02*
X46909887Y-72935427D01*
X46909887Y-72935427D02*
X46545601Y-73785427D01*
X43064649Y-75515903D02*
X42983696Y-75475427D01*
X42983696Y-75475427D02*
X42862268Y-75475427D01*
X42862268Y-75475427D02*
X42740839Y-75515903D01*
X42740839Y-75515903D02*
X42659887Y-75596855D01*
X42659887Y-75596855D02*
X42619410Y-75677808D01*
X42619410Y-75677808D02*
X42578934Y-75839712D01*
X42578934Y-75839712D02*
X42578934Y-75961141D01*
X42578934Y-75961141D02*
X42619410Y-76123046D01*
X42619410Y-76123046D02*
X42659887Y-76203998D01*
X42659887Y-76203998D02*
X42740839Y-76284951D01*
X42740839Y-76284951D02*
X42862268Y-76325427D01*
X42862268Y-76325427D02*
X42943220Y-76325427D01*
X42943220Y-76325427D02*
X43064649Y-76284951D01*
X43064649Y-76284951D02*
X43105125Y-76244474D01*
X43105125Y-76244474D02*
X43105125Y-75961141D01*
X43105125Y-75961141D02*
X42943220Y-75961141D01*
X43469410Y-76325427D02*
X43469410Y-75475427D01*
X43469410Y-75475427D02*
X43793220Y-75475427D01*
X43793220Y-75475427D02*
X43874172Y-75515903D01*
X43874172Y-75515903D02*
X43914649Y-75556379D01*
X43914649Y-75556379D02*
X43955125Y-75637331D01*
X43955125Y-75637331D02*
X43955125Y-75758760D01*
X43955125Y-75758760D02*
X43914649Y-75839712D01*
X43914649Y-75839712D02*
X43874172Y-75880189D01*
X43874172Y-75880189D02*
X43793220Y-75920665D01*
X43793220Y-75920665D02*
X43469410Y-75920665D01*
X44319410Y-76325427D02*
X44319410Y-75475427D01*
X44886077Y-75475427D02*
X45047982Y-75475427D01*
X45047982Y-75475427D02*
X45128934Y-75515903D01*
X45128934Y-75515903D02*
X45209887Y-75596855D01*
X45209887Y-75596855D02*
X45250363Y-75758760D01*
X45250363Y-75758760D02*
X45250363Y-76042093D01*
X45250363Y-76042093D02*
X45209887Y-76203998D01*
X45209887Y-76203998D02*
X45128934Y-76284951D01*
X45128934Y-76284951D02*
X45047982Y-76325427D01*
X45047982Y-76325427D02*
X44886077Y-76325427D01*
X44886077Y-76325427D02*
X44805125Y-76284951D01*
X44805125Y-76284951D02*
X44724172Y-76203998D01*
X44724172Y-76203998D02*
X44683696Y-76042093D01*
X44683696Y-76042093D02*
X44683696Y-75758760D01*
X44683696Y-75758760D02*
X44724172Y-75596855D01*
X44724172Y-75596855D02*
X44805125Y-75515903D01*
X44805125Y-75515903D02*
X44886077Y-75475427D01*
X46059887Y-76325427D02*
X45574172Y-76325427D01*
X45817029Y-76325427D02*
X45817029Y-75475427D01*
X45817029Y-75475427D02*
X45736077Y-75596855D01*
X45736077Y-75596855D02*
X45655125Y-75677808D01*
X45655125Y-75677808D02*
X45574172Y-75718284D01*
X46788458Y-75475427D02*
X46626553Y-75475427D01*
X46626553Y-75475427D02*
X46545601Y-75515903D01*
X46545601Y-75515903D02*
X46505125Y-75556379D01*
X46505125Y-75556379D02*
X46424172Y-75677808D01*
X46424172Y-75677808D02*
X46383696Y-75839712D01*
X46383696Y-75839712D02*
X46383696Y-76163522D01*
X46383696Y-76163522D02*
X46424172Y-76244474D01*
X46424172Y-76244474D02*
X46464649Y-76284951D01*
X46464649Y-76284951D02*
X46545601Y-76325427D01*
X46545601Y-76325427D02*
X46707506Y-76325427D01*
X46707506Y-76325427D02*
X46788458Y-76284951D01*
X46788458Y-76284951D02*
X46828934Y-76244474D01*
X46828934Y-76244474D02*
X46869411Y-76163522D01*
X46869411Y-76163522D02*
X46869411Y-75961141D01*
X46869411Y-75961141D02*
X46828934Y-75880189D01*
X46828934Y-75880189D02*
X46788458Y-75839712D01*
X46788458Y-75839712D02*
X46707506Y-75799236D01*
X46707506Y-75799236D02*
X46545601Y-75799236D01*
X46545601Y-75799236D02*
X46464649Y-75839712D01*
X46464649Y-75839712D02*
X46424172Y-75880189D01*
X46424172Y-75880189D02*
X46383696Y-75961141D01*
X43874173Y-78055903D02*
X43793220Y-78015427D01*
X43793220Y-78015427D02*
X43671792Y-78015427D01*
X43671792Y-78015427D02*
X43550363Y-78055903D01*
X43550363Y-78055903D02*
X43469411Y-78136855D01*
X43469411Y-78136855D02*
X43428934Y-78217808D01*
X43428934Y-78217808D02*
X43388458Y-78379712D01*
X43388458Y-78379712D02*
X43388458Y-78501141D01*
X43388458Y-78501141D02*
X43428934Y-78663046D01*
X43428934Y-78663046D02*
X43469411Y-78743998D01*
X43469411Y-78743998D02*
X43550363Y-78824951D01*
X43550363Y-78824951D02*
X43671792Y-78865427D01*
X43671792Y-78865427D02*
X43752744Y-78865427D01*
X43752744Y-78865427D02*
X43874173Y-78824951D01*
X43874173Y-78824951D02*
X43914649Y-78784474D01*
X43914649Y-78784474D02*
X43914649Y-78501141D01*
X43914649Y-78501141D02*
X43752744Y-78501141D01*
X44278934Y-78865427D02*
X44278934Y-78015427D01*
X44278934Y-78015427D02*
X44602744Y-78015427D01*
X44602744Y-78015427D02*
X44683696Y-78055903D01*
X44683696Y-78055903D02*
X44724173Y-78096379D01*
X44724173Y-78096379D02*
X44764649Y-78177331D01*
X44764649Y-78177331D02*
X44764649Y-78298760D01*
X44764649Y-78298760D02*
X44724173Y-78379712D01*
X44724173Y-78379712D02*
X44683696Y-78420189D01*
X44683696Y-78420189D02*
X44602744Y-78460665D01*
X44602744Y-78460665D02*
X44278934Y-78460665D01*
X45128934Y-78865427D02*
X45128934Y-78015427D01*
X45695601Y-78015427D02*
X45857506Y-78015427D01*
X45857506Y-78015427D02*
X45938458Y-78055903D01*
X45938458Y-78055903D02*
X46019411Y-78136855D01*
X46019411Y-78136855D02*
X46059887Y-78298760D01*
X46059887Y-78298760D02*
X46059887Y-78582093D01*
X46059887Y-78582093D02*
X46019411Y-78743998D01*
X46019411Y-78743998D02*
X45938458Y-78824951D01*
X45938458Y-78824951D02*
X45857506Y-78865427D01*
X45857506Y-78865427D02*
X45695601Y-78865427D01*
X45695601Y-78865427D02*
X45614649Y-78824951D01*
X45614649Y-78824951D02*
X45533696Y-78743998D01*
X45533696Y-78743998D02*
X45493220Y-78582093D01*
X45493220Y-78582093D02*
X45493220Y-78298760D01*
X45493220Y-78298760D02*
X45533696Y-78136855D01*
X45533696Y-78136855D02*
X45614649Y-78055903D01*
X45614649Y-78055903D02*
X45695601Y-78015427D01*
X46788458Y-78298760D02*
X46788458Y-78865427D01*
X46586077Y-77974951D02*
X46383696Y-78582093D01*
X46383696Y-78582093D02*
X46909887Y-78582093D01*
X43874173Y-80595903D02*
X43793220Y-80555427D01*
X43793220Y-80555427D02*
X43671792Y-80555427D01*
X43671792Y-80555427D02*
X43550363Y-80595903D01*
X43550363Y-80595903D02*
X43469411Y-80676855D01*
X43469411Y-80676855D02*
X43428934Y-80757808D01*
X43428934Y-80757808D02*
X43388458Y-80919712D01*
X43388458Y-80919712D02*
X43388458Y-81041141D01*
X43388458Y-81041141D02*
X43428934Y-81203046D01*
X43428934Y-81203046D02*
X43469411Y-81283998D01*
X43469411Y-81283998D02*
X43550363Y-81364951D01*
X43550363Y-81364951D02*
X43671792Y-81405427D01*
X43671792Y-81405427D02*
X43752744Y-81405427D01*
X43752744Y-81405427D02*
X43874173Y-81364951D01*
X43874173Y-81364951D02*
X43914649Y-81324474D01*
X43914649Y-81324474D02*
X43914649Y-81041141D01*
X43914649Y-81041141D02*
X43752744Y-81041141D01*
X44278934Y-81405427D02*
X44278934Y-80555427D01*
X44278934Y-80555427D02*
X44602744Y-80555427D01*
X44602744Y-80555427D02*
X44683696Y-80595903D01*
X44683696Y-80595903D02*
X44724173Y-80636379D01*
X44724173Y-80636379D02*
X44764649Y-80717331D01*
X44764649Y-80717331D02*
X44764649Y-80838760D01*
X44764649Y-80838760D02*
X44724173Y-80919712D01*
X44724173Y-80919712D02*
X44683696Y-80960189D01*
X44683696Y-80960189D02*
X44602744Y-81000665D01*
X44602744Y-81000665D02*
X44278934Y-81000665D01*
X45128934Y-81405427D02*
X45128934Y-80555427D01*
X45695601Y-80555427D02*
X45857506Y-80555427D01*
X45857506Y-80555427D02*
X45938458Y-80595903D01*
X45938458Y-80595903D02*
X46019411Y-80676855D01*
X46019411Y-80676855D02*
X46059887Y-80838760D01*
X46059887Y-80838760D02*
X46059887Y-81122093D01*
X46059887Y-81122093D02*
X46019411Y-81283998D01*
X46019411Y-81283998D02*
X45938458Y-81364951D01*
X45938458Y-81364951D02*
X45857506Y-81405427D01*
X45857506Y-81405427D02*
X45695601Y-81405427D01*
X45695601Y-81405427D02*
X45614649Y-81364951D01*
X45614649Y-81364951D02*
X45533696Y-81283998D01*
X45533696Y-81283998D02*
X45493220Y-81122093D01*
X45493220Y-81122093D02*
X45493220Y-80838760D01*
X45493220Y-80838760D02*
X45533696Y-80676855D01*
X45533696Y-80676855D02*
X45614649Y-80595903D01*
X45614649Y-80595903D02*
X45695601Y-80555427D01*
X46586077Y-80555427D02*
X46667030Y-80555427D01*
X46667030Y-80555427D02*
X46747982Y-80595903D01*
X46747982Y-80595903D02*
X46788458Y-80636379D01*
X46788458Y-80636379D02*
X46828934Y-80717331D01*
X46828934Y-80717331D02*
X46869411Y-80879236D01*
X46869411Y-80879236D02*
X46869411Y-81081617D01*
X46869411Y-81081617D02*
X46828934Y-81243522D01*
X46828934Y-81243522D02*
X46788458Y-81324474D01*
X46788458Y-81324474D02*
X46747982Y-81364951D01*
X46747982Y-81364951D02*
X46667030Y-81405427D01*
X46667030Y-81405427D02*
X46586077Y-81405427D01*
X46586077Y-81405427D02*
X46505125Y-81364951D01*
X46505125Y-81364951D02*
X46464649Y-81324474D01*
X46464649Y-81324474D02*
X46424172Y-81243522D01*
X46424172Y-81243522D02*
X46383696Y-81081617D01*
X46383696Y-81081617D02*
X46383696Y-80879236D01*
X46383696Y-80879236D02*
X46424172Y-80717331D01*
X46424172Y-80717331D02*
X46464649Y-80636379D01*
X46464649Y-80636379D02*
X46505125Y-80595903D01*
X46505125Y-80595903D02*
X46586077Y-80555427D01*
X43874173Y-83135903D02*
X43793220Y-83095427D01*
X43793220Y-83095427D02*
X43671792Y-83095427D01*
X43671792Y-83095427D02*
X43550363Y-83135903D01*
X43550363Y-83135903D02*
X43469411Y-83216855D01*
X43469411Y-83216855D02*
X43428934Y-83297808D01*
X43428934Y-83297808D02*
X43388458Y-83459712D01*
X43388458Y-83459712D02*
X43388458Y-83581141D01*
X43388458Y-83581141D02*
X43428934Y-83743046D01*
X43428934Y-83743046D02*
X43469411Y-83823998D01*
X43469411Y-83823998D02*
X43550363Y-83904951D01*
X43550363Y-83904951D02*
X43671792Y-83945427D01*
X43671792Y-83945427D02*
X43752744Y-83945427D01*
X43752744Y-83945427D02*
X43874173Y-83904951D01*
X43874173Y-83904951D02*
X43914649Y-83864474D01*
X43914649Y-83864474D02*
X43914649Y-83581141D01*
X43914649Y-83581141D02*
X43752744Y-83581141D01*
X44278934Y-83945427D02*
X44278934Y-83095427D01*
X44278934Y-83095427D02*
X44602744Y-83095427D01*
X44602744Y-83095427D02*
X44683696Y-83135903D01*
X44683696Y-83135903D02*
X44724173Y-83176379D01*
X44724173Y-83176379D02*
X44764649Y-83257331D01*
X44764649Y-83257331D02*
X44764649Y-83378760D01*
X44764649Y-83378760D02*
X44724173Y-83459712D01*
X44724173Y-83459712D02*
X44683696Y-83500189D01*
X44683696Y-83500189D02*
X44602744Y-83540665D01*
X44602744Y-83540665D02*
X44278934Y-83540665D01*
X45128934Y-83945427D02*
X45128934Y-83095427D01*
X45695601Y-83095427D02*
X45857506Y-83095427D01*
X45857506Y-83095427D02*
X45938458Y-83135903D01*
X45938458Y-83135903D02*
X46019411Y-83216855D01*
X46019411Y-83216855D02*
X46059887Y-83378760D01*
X46059887Y-83378760D02*
X46059887Y-83662093D01*
X46059887Y-83662093D02*
X46019411Y-83823998D01*
X46019411Y-83823998D02*
X45938458Y-83904951D01*
X45938458Y-83904951D02*
X45857506Y-83945427D01*
X45857506Y-83945427D02*
X45695601Y-83945427D01*
X45695601Y-83945427D02*
X45614649Y-83904951D01*
X45614649Y-83904951D02*
X45533696Y-83823998D01*
X45533696Y-83823998D02*
X45493220Y-83662093D01*
X45493220Y-83662093D02*
X45493220Y-83378760D01*
X45493220Y-83378760D02*
X45533696Y-83216855D01*
X45533696Y-83216855D02*
X45614649Y-83135903D01*
X45614649Y-83135903D02*
X45695601Y-83095427D01*
X46383696Y-83176379D02*
X46424172Y-83135903D01*
X46424172Y-83135903D02*
X46505125Y-83095427D01*
X46505125Y-83095427D02*
X46707506Y-83095427D01*
X46707506Y-83095427D02*
X46788458Y-83135903D01*
X46788458Y-83135903D02*
X46828934Y-83176379D01*
X46828934Y-83176379D02*
X46869411Y-83257331D01*
X46869411Y-83257331D02*
X46869411Y-83338284D01*
X46869411Y-83338284D02*
X46828934Y-83459712D01*
X46828934Y-83459712D02*
X46343220Y-83945427D01*
X46343220Y-83945427D02*
X46869411Y-83945427D01*
X38814649Y-85675903D02*
X38733696Y-85635427D01*
X38733696Y-85635427D02*
X38612268Y-85635427D01*
X38612268Y-85635427D02*
X38490839Y-85675903D01*
X38490839Y-85675903D02*
X38409887Y-85756855D01*
X38409887Y-85756855D02*
X38369410Y-85837808D01*
X38369410Y-85837808D02*
X38328934Y-85999712D01*
X38328934Y-85999712D02*
X38328934Y-86121141D01*
X38328934Y-86121141D02*
X38369410Y-86283046D01*
X38369410Y-86283046D02*
X38409887Y-86363998D01*
X38409887Y-86363998D02*
X38490839Y-86444951D01*
X38490839Y-86444951D02*
X38612268Y-86485427D01*
X38612268Y-86485427D02*
X38693220Y-86485427D01*
X38693220Y-86485427D02*
X38814649Y-86444951D01*
X38814649Y-86444951D02*
X38855125Y-86404474D01*
X38855125Y-86404474D02*
X38855125Y-86121141D01*
X38855125Y-86121141D02*
X38693220Y-86121141D01*
X39219410Y-86485427D02*
X39219410Y-85635427D01*
X39219410Y-85635427D02*
X39543220Y-85635427D01*
X39543220Y-85635427D02*
X39624172Y-85675903D01*
X39624172Y-85675903D02*
X39664649Y-85716379D01*
X39664649Y-85716379D02*
X39705125Y-85797331D01*
X39705125Y-85797331D02*
X39705125Y-85918760D01*
X39705125Y-85918760D02*
X39664649Y-85999712D01*
X39664649Y-85999712D02*
X39624172Y-86040189D01*
X39624172Y-86040189D02*
X39543220Y-86080665D01*
X39543220Y-86080665D02*
X39219410Y-86080665D01*
X40069410Y-86485427D02*
X40069410Y-85635427D01*
X40636077Y-85635427D02*
X40797982Y-85635427D01*
X40797982Y-85635427D02*
X40878934Y-85675903D01*
X40878934Y-85675903D02*
X40959887Y-85756855D01*
X40959887Y-85756855D02*
X41000363Y-85918760D01*
X41000363Y-85918760D02*
X41000363Y-86202093D01*
X41000363Y-86202093D02*
X40959887Y-86363998D01*
X40959887Y-86363998D02*
X40878934Y-86444951D01*
X40878934Y-86444951D02*
X40797982Y-86485427D01*
X40797982Y-86485427D02*
X40636077Y-86485427D01*
X40636077Y-86485427D02*
X40555125Y-86444951D01*
X40555125Y-86444951D02*
X40474172Y-86363998D01*
X40474172Y-86363998D02*
X40433696Y-86202093D01*
X40433696Y-86202093D02*
X40433696Y-85918760D01*
X40433696Y-85918760D02*
X40474172Y-85756855D01*
X40474172Y-85756855D02*
X40555125Y-85675903D01*
X40555125Y-85675903D02*
X40636077Y-85635427D01*
X41809887Y-86485427D02*
X41324172Y-86485427D01*
X41567029Y-86485427D02*
X41567029Y-85635427D01*
X41567029Y-85635427D02*
X41486077Y-85756855D01*
X41486077Y-85756855D02*
X41405125Y-85837808D01*
X41405125Y-85837808D02*
X41324172Y-85878284D01*
X42578934Y-85635427D02*
X42174172Y-85635427D01*
X42174172Y-85635427D02*
X42133696Y-86040189D01*
X42133696Y-86040189D02*
X42174172Y-85999712D01*
X42174172Y-85999712D02*
X42255125Y-85959236D01*
X42255125Y-85959236D02*
X42457506Y-85959236D01*
X42457506Y-85959236D02*
X42538458Y-85999712D01*
X42538458Y-85999712D02*
X42578934Y-86040189D01*
X42578934Y-86040189D02*
X42619411Y-86121141D01*
X42619411Y-86121141D02*
X42619411Y-86323522D01*
X42619411Y-86323522D02*
X42578934Y-86404474D01*
X42578934Y-86404474D02*
X42538458Y-86444951D01*
X42538458Y-86444951D02*
X42457506Y-86485427D01*
X42457506Y-86485427D02*
X42255125Y-86485427D01*
X42255125Y-86485427D02*
X42174172Y-86444951D01*
X42174172Y-86444951D02*
X42133696Y-86404474D01*
X43590839Y-85594951D02*
X42862268Y-86687808D01*
X43874172Y-86485427D02*
X43874172Y-85635427D01*
X43874172Y-85635427D02*
X44157506Y-86242570D01*
X44157506Y-86242570D02*
X44440839Y-85635427D01*
X44440839Y-85635427D02*
X44440839Y-86485427D01*
X44724173Y-85635427D02*
X45209887Y-85635427D01*
X44967030Y-86485427D02*
X44967030Y-85635427D01*
X45493220Y-86485427D02*
X45493220Y-85635427D01*
X45493220Y-85635427D02*
X45695601Y-85635427D01*
X45695601Y-85635427D02*
X45817030Y-85675903D01*
X45817030Y-85675903D02*
X45897982Y-85756855D01*
X45897982Y-85756855D02*
X45938459Y-85837808D01*
X45938459Y-85837808D02*
X45978935Y-85999712D01*
X45978935Y-85999712D02*
X45978935Y-86121141D01*
X45978935Y-86121141D02*
X45938459Y-86283046D01*
X45938459Y-86283046D02*
X45897982Y-86363998D01*
X45897982Y-86363998D02*
X45817030Y-86444951D01*
X45817030Y-86444951D02*
X45695601Y-86485427D01*
X45695601Y-86485427D02*
X45493220Y-86485427D01*
X46505125Y-85635427D02*
X46667030Y-85635427D01*
X46667030Y-85635427D02*
X46747982Y-85675903D01*
X46747982Y-85675903D02*
X46828935Y-85756855D01*
X46828935Y-85756855D02*
X46869411Y-85918760D01*
X46869411Y-85918760D02*
X46869411Y-86202093D01*
X46869411Y-86202093D02*
X46828935Y-86363998D01*
X46828935Y-86363998D02*
X46747982Y-86444951D01*
X46747982Y-86444951D02*
X46667030Y-86485427D01*
X46667030Y-86485427D02*
X46505125Y-86485427D01*
X46505125Y-86485427D02*
X46424173Y-86444951D01*
X46424173Y-86444951D02*
X46343220Y-86363998D01*
X46343220Y-86363998D02*
X46302744Y-86202093D01*
X46302744Y-86202093D02*
X46302744Y-85918760D01*
X46302744Y-85918760D02*
X46343220Y-85756855D01*
X46343220Y-85756855D02*
X46424173Y-85675903D01*
X46424173Y-85675903D02*
X46505125Y-85635427D01*
X45574172Y-89025427D02*
X45574172Y-88175427D01*
X45574172Y-88175427D02*
X45776553Y-88175427D01*
X45776553Y-88175427D02*
X45897982Y-88215903D01*
X45897982Y-88215903D02*
X45978934Y-88296855D01*
X45978934Y-88296855D02*
X46019411Y-88377808D01*
X46019411Y-88377808D02*
X46059887Y-88539712D01*
X46059887Y-88539712D02*
X46059887Y-88661141D01*
X46059887Y-88661141D02*
X46019411Y-88823046D01*
X46019411Y-88823046D02*
X45978934Y-88903998D01*
X45978934Y-88903998D02*
X45897982Y-88984951D01*
X45897982Y-88984951D02*
X45776553Y-89025427D01*
X45776553Y-89025427D02*
X45574172Y-89025427D01*
X46869411Y-89025427D02*
X46383696Y-89025427D01*
X46626553Y-89025427D02*
X46626553Y-88175427D01*
X46626553Y-88175427D02*
X46545601Y-88296855D01*
X46545601Y-88296855D02*
X46464649Y-88377808D01*
X46464649Y-88377808D02*
X46383696Y-88418284D01*
X45574172Y-91565427D02*
X45574172Y-90715427D01*
X45574172Y-90715427D02*
X45776553Y-90715427D01*
X45776553Y-90715427D02*
X45897982Y-90755903D01*
X45897982Y-90755903D02*
X45978934Y-90836855D01*
X45978934Y-90836855D02*
X46019411Y-90917808D01*
X46019411Y-90917808D02*
X46059887Y-91079712D01*
X46059887Y-91079712D02*
X46059887Y-91201141D01*
X46059887Y-91201141D02*
X46019411Y-91363046D01*
X46019411Y-91363046D02*
X45978934Y-91443998D01*
X45978934Y-91443998D02*
X45897982Y-91524951D01*
X45897982Y-91524951D02*
X45776553Y-91565427D01*
X45776553Y-91565427D02*
X45574172Y-91565427D01*
X46586077Y-90715427D02*
X46667030Y-90715427D01*
X46667030Y-90715427D02*
X46747982Y-90755903D01*
X46747982Y-90755903D02*
X46788458Y-90796379D01*
X46788458Y-90796379D02*
X46828934Y-90877331D01*
X46828934Y-90877331D02*
X46869411Y-91039236D01*
X46869411Y-91039236D02*
X46869411Y-91241617D01*
X46869411Y-91241617D02*
X46828934Y-91403522D01*
X46828934Y-91403522D02*
X46788458Y-91484474D01*
X46788458Y-91484474D02*
X46747982Y-91524951D01*
X46747982Y-91524951D02*
X46667030Y-91565427D01*
X46667030Y-91565427D02*
X46586077Y-91565427D01*
X46586077Y-91565427D02*
X46505125Y-91524951D01*
X46505125Y-91524951D02*
X46464649Y-91484474D01*
X46464649Y-91484474D02*
X46424172Y-91403522D01*
X46424172Y-91403522D02*
X46383696Y-91241617D01*
X46383696Y-91241617D02*
X46383696Y-91039236D01*
X46383696Y-91039236D02*
X46424172Y-90877331D01*
X46424172Y-90877331D02*
X46464649Y-90796379D01*
X46464649Y-90796379D02*
X46505125Y-90755903D01*
X46505125Y-90755903D02*
X46586077Y-90715427D01*
X45331316Y-94024474D02*
X45290840Y-94064951D01*
X45290840Y-94064951D02*
X45169411Y-94105427D01*
X45169411Y-94105427D02*
X45088459Y-94105427D01*
X45088459Y-94105427D02*
X44967030Y-94064951D01*
X44967030Y-94064951D02*
X44886078Y-93983998D01*
X44886078Y-93983998D02*
X44845601Y-93903046D01*
X44845601Y-93903046D02*
X44805125Y-93741141D01*
X44805125Y-93741141D02*
X44805125Y-93619712D01*
X44805125Y-93619712D02*
X44845601Y-93457808D01*
X44845601Y-93457808D02*
X44886078Y-93376855D01*
X44886078Y-93376855D02*
X44967030Y-93295903D01*
X44967030Y-93295903D02*
X45088459Y-93255427D01*
X45088459Y-93255427D02*
X45169411Y-93255427D01*
X45169411Y-93255427D02*
X45290840Y-93295903D01*
X45290840Y-93295903D02*
X45331316Y-93336379D01*
X46100363Y-94105427D02*
X45695601Y-94105427D01*
X45695601Y-94105427D02*
X45695601Y-93255427D01*
X46383696Y-94105427D02*
X46383696Y-93255427D01*
X46869411Y-94105427D02*
X46505125Y-93619712D01*
X46869411Y-93255427D02*
X46383696Y-93741141D01*
X62366666Y-94874819D02*
X62366666Y-95589104D01*
X62366666Y-95589104D02*
X62319047Y-95731961D01*
X62319047Y-95731961D02*
X62223809Y-95827200D01*
X62223809Y-95827200D02*
X62080952Y-95874819D01*
X62080952Y-95874819D02*
X61985714Y-95874819D01*
X63366666Y-95874819D02*
X62795238Y-95874819D01*
X63080952Y-95874819D02*
X63080952Y-94874819D01*
X63080952Y-94874819D02*
X62985714Y-95017676D01*
X62985714Y-95017676D02*
X62890476Y-95112914D01*
X62890476Y-95112914D02*
X62795238Y-95160533D01*
X94738095Y-21454819D02*
X94738095Y-22264342D01*
X94738095Y-22264342D02*
X94785714Y-22359580D01*
X94785714Y-22359580D02*
X94833333Y-22407200D01*
X94833333Y-22407200D02*
X94928571Y-22454819D01*
X94928571Y-22454819D02*
X95119047Y-22454819D01*
X95119047Y-22454819D02*
X95214285Y-22407200D01*
X95214285Y-22407200D02*
X95261904Y-22359580D01*
X95261904Y-22359580D02*
X95309523Y-22264342D01*
X95309523Y-22264342D02*
X95309523Y-21454819D01*
X95690476Y-21454819D02*
X96309523Y-21454819D01*
X96309523Y-21454819D02*
X95976190Y-21835771D01*
X95976190Y-21835771D02*
X96119047Y-21835771D01*
X96119047Y-21835771D02*
X96214285Y-21883390D01*
X96214285Y-21883390D02*
X96261904Y-21931009D01*
X96261904Y-21931009D02*
X96309523Y-22026247D01*
X96309523Y-22026247D02*
X96309523Y-22264342D01*
X96309523Y-22264342D02*
X96261904Y-22359580D01*
X96261904Y-22359580D02*
X96214285Y-22407200D01*
X96214285Y-22407200D02*
X96119047Y-22454819D01*
X96119047Y-22454819D02*
X95833333Y-22454819D01*
X95833333Y-22454819D02*
X95738095Y-22407200D01*
X95738095Y-22407200D02*
X95690476Y-22359580D01*
%TO.C,U2*%
D15*
X63730000Y-57696000D02*
X80240000Y-57696000D01*
X63730000Y-78270000D02*
X63730000Y-57696000D01*
X80240000Y-57696000D02*
X80240000Y-78270000D01*
X80240000Y-78270000D02*
X63730000Y-78270000D01*
X79067832Y-59982000D02*
G75*
G02*
X76332168Y-59982000I-1367832J0D01*
G01*
X76332168Y-59982000D02*
G75*
G02*
X79067832Y-59982000I1367832J0D01*
G01*
X79067832Y-75984000D02*
G75*
G02*
X76332168Y-75984000I-1367832J0D01*
G01*
X76332168Y-75984000D02*
G75*
G02*
X79067832Y-75984000I1367832J0D01*
G01*
%TO.C,C1*%
X78020354Y-88125000D02*
X79020354Y-88125000D01*
X78520354Y-87625000D02*
X78520354Y-88625000D01*
X83500000Y-85920000D02*
X83500000Y-96080000D01*
X83540000Y-85920000D02*
X83540000Y-96080000D01*
X83580000Y-85921000D02*
X83580000Y-96079000D01*
X83620000Y-85921000D02*
X83620000Y-96079000D01*
X83660000Y-85923000D02*
X83660000Y-96077000D01*
X83700000Y-85924000D02*
X83700000Y-96076000D01*
X83740000Y-85926000D02*
X83740000Y-96074000D01*
X83780000Y-85928000D02*
X83780000Y-96072000D01*
X83820000Y-85930000D02*
X83820000Y-96070000D01*
X83860000Y-85933000D02*
X83860000Y-96067000D01*
X83900000Y-85936000D02*
X83900000Y-96064000D01*
X83940000Y-85939000D02*
X83940000Y-96061000D01*
X83980000Y-85943000D02*
X83980000Y-96057000D01*
X84020000Y-85946000D02*
X84020000Y-96054000D01*
X84060000Y-85951000D02*
X84060000Y-96049000D01*
X84100000Y-85955000D02*
X84100000Y-96045000D01*
X84140000Y-85960000D02*
X84140000Y-96040000D01*
X84180000Y-85965000D02*
X84180000Y-96035000D01*
X84220000Y-85971000D02*
X84220000Y-96029000D01*
X84260000Y-85977000D02*
X84260000Y-96023000D01*
X84300000Y-85983000D02*
X84300000Y-96017000D01*
X84340000Y-85989000D02*
X84340000Y-96011000D01*
X84380000Y-85996000D02*
X84380000Y-96004000D01*
X84420000Y-86003000D02*
X84420000Y-95997000D01*
X84460000Y-86011000D02*
X84460000Y-95989000D01*
X84500000Y-86019000D02*
X84500000Y-95981000D01*
X84540000Y-86027000D02*
X84540000Y-95973000D01*
X84580000Y-86035000D02*
X84580000Y-95965000D01*
X84620000Y-86044000D02*
X84620000Y-95956000D01*
X84660000Y-86053000D02*
X84660000Y-95947000D01*
X84700000Y-86063000D02*
X84700000Y-95937000D01*
X84740000Y-86072000D02*
X84740000Y-95928000D01*
X84780000Y-86083000D02*
X84780000Y-89760000D01*
X84780000Y-92240000D02*
X84780000Y-95917000D01*
X84820000Y-86093000D02*
X84820000Y-89760000D01*
X84820000Y-92240000D02*
X84820000Y-95907000D01*
X84860000Y-86104000D02*
X84860000Y-89760000D01*
X84860000Y-92240000D02*
X84860000Y-95896000D01*
X84900000Y-86115000D02*
X84900000Y-89760000D01*
X84900000Y-92240000D02*
X84900000Y-95885000D01*
X84940000Y-86127000D02*
X84940000Y-89760000D01*
X84940000Y-92240000D02*
X84940000Y-95873000D01*
X84980000Y-86139000D02*
X84980000Y-89760000D01*
X84980000Y-92240000D02*
X84980000Y-95861000D01*
X85020000Y-86151000D02*
X85020000Y-89760000D01*
X85020000Y-92240000D02*
X85020000Y-95849000D01*
X85060000Y-86163000D02*
X85060000Y-89760000D01*
X85060000Y-92240000D02*
X85060000Y-95837000D01*
X85100000Y-86176000D02*
X85100000Y-89760000D01*
X85100000Y-92240000D02*
X85100000Y-95824000D01*
X85140000Y-86190000D02*
X85140000Y-89760000D01*
X85140000Y-92240000D02*
X85140000Y-95810000D01*
X85180000Y-86203000D02*
X85180000Y-89760000D01*
X85180000Y-92240000D02*
X85180000Y-95797000D01*
X85220000Y-86218000D02*
X85220000Y-89760000D01*
X85220000Y-92240000D02*
X85220000Y-95782000D01*
X85260000Y-86232000D02*
X85260000Y-89760000D01*
X85260000Y-92240000D02*
X85260000Y-95768000D01*
X85300000Y-86247000D02*
X85300000Y-89760000D01*
X85300000Y-92240000D02*
X85300000Y-95753000D01*
X85340000Y-86262000D02*
X85340000Y-89760000D01*
X85340000Y-92240000D02*
X85340000Y-95738000D01*
X85380000Y-86278000D02*
X85380000Y-89760000D01*
X85380000Y-92240000D02*
X85380000Y-95722000D01*
X85420000Y-86294000D02*
X85420000Y-89760000D01*
X85420000Y-92240000D02*
X85420000Y-95706000D01*
X85460000Y-86310000D02*
X85460000Y-89760000D01*
X85460000Y-92240000D02*
X85460000Y-95690000D01*
X85500000Y-86327000D02*
X85500000Y-89760000D01*
X85500000Y-92240000D02*
X85500000Y-95673000D01*
X85540000Y-86344000D02*
X85540000Y-89760000D01*
X85540000Y-92240000D02*
X85540000Y-95656000D01*
X85580000Y-86362000D02*
X85580000Y-89760000D01*
X85580000Y-92240000D02*
X85580000Y-95638000D01*
X85620000Y-86380000D02*
X85620000Y-89760000D01*
X85620000Y-92240000D02*
X85620000Y-95620000D01*
X85660000Y-86398000D02*
X85660000Y-89760000D01*
X85660000Y-92240000D02*
X85660000Y-95602000D01*
X85700000Y-86417000D02*
X85700000Y-89760000D01*
X85700000Y-92240000D02*
X85700000Y-95583000D01*
X85740000Y-86436000D02*
X85740000Y-89760000D01*
X85740000Y-92240000D02*
X85740000Y-95564000D01*
X85780000Y-86456000D02*
X85780000Y-89760000D01*
X85780000Y-92240000D02*
X85780000Y-95544000D01*
X85820000Y-86476000D02*
X85820000Y-89760000D01*
X85820000Y-92240000D02*
X85820000Y-95524000D01*
X85860000Y-86496000D02*
X85860000Y-89760000D01*
X85860000Y-92240000D02*
X85860000Y-95504000D01*
X85900000Y-86517000D02*
X85900000Y-89760000D01*
X85900000Y-92240000D02*
X85900000Y-95483000D01*
X85940000Y-86539000D02*
X85940000Y-89760000D01*
X85940000Y-92240000D02*
X85940000Y-95461000D01*
X85980000Y-86561000D02*
X85980000Y-89760000D01*
X85980000Y-92240000D02*
X85980000Y-95439000D01*
X86020000Y-86583000D02*
X86020000Y-89760000D01*
X86020000Y-92240000D02*
X86020000Y-95417000D01*
X86060000Y-86606000D02*
X86060000Y-89760000D01*
X86060000Y-92240000D02*
X86060000Y-95394000D01*
X86100000Y-86629000D02*
X86100000Y-89760000D01*
X86100000Y-92240000D02*
X86100000Y-95371000D01*
X86140000Y-86653000D02*
X86140000Y-89760000D01*
X86140000Y-92240000D02*
X86140000Y-95347000D01*
X86180000Y-86677000D02*
X86180000Y-89760000D01*
X86180000Y-92240000D02*
X86180000Y-95323000D01*
X86220000Y-86702000D02*
X86220000Y-89760000D01*
X86220000Y-92240000D02*
X86220000Y-95298000D01*
X86260000Y-86728000D02*
X86260000Y-89760000D01*
X86260000Y-92240000D02*
X86260000Y-95272000D01*
X86300000Y-86753000D02*
X86300000Y-89760000D01*
X86300000Y-92240000D02*
X86300000Y-95247000D01*
X86340000Y-86780000D02*
X86340000Y-89760000D01*
X86340000Y-92240000D02*
X86340000Y-95220000D01*
X86380000Y-86807000D02*
X86380000Y-89760000D01*
X86380000Y-92240000D02*
X86380000Y-95193000D01*
X86420000Y-86834000D02*
X86420000Y-89760000D01*
X86420000Y-92240000D02*
X86420000Y-95166000D01*
X86460000Y-86862000D02*
X86460000Y-89760000D01*
X86460000Y-92240000D02*
X86460000Y-95138000D01*
X86500000Y-86891000D02*
X86500000Y-89760000D01*
X86500000Y-92240000D02*
X86500000Y-95109000D01*
X86540000Y-86920000D02*
X86540000Y-89760000D01*
X86540000Y-92240000D02*
X86540000Y-95080000D01*
X86580000Y-86950000D02*
X86580000Y-89760000D01*
X86580000Y-92240000D02*
X86580000Y-95050000D01*
X86620000Y-86980000D02*
X86620000Y-89760000D01*
X86620000Y-92240000D02*
X86620000Y-95020000D01*
X86660000Y-87012000D02*
X86660000Y-89760000D01*
X86660000Y-92240000D02*
X86660000Y-94988000D01*
X86700000Y-87043000D02*
X86700000Y-89760000D01*
X86700000Y-92240000D02*
X86700000Y-94957000D01*
X86740000Y-87076000D02*
X86740000Y-89760000D01*
X86740000Y-92240000D02*
X86740000Y-94924000D01*
X86780000Y-87109000D02*
X86780000Y-89760000D01*
X86780000Y-92240000D02*
X86780000Y-94891000D01*
X86820000Y-87142000D02*
X86820000Y-89760000D01*
X86820000Y-92240000D02*
X86820000Y-94858000D01*
X86860000Y-87177000D02*
X86860000Y-89760000D01*
X86860000Y-92240000D02*
X86860000Y-94823000D01*
X86900000Y-87212000D02*
X86900000Y-89760000D01*
X86900000Y-92240000D02*
X86900000Y-94788000D01*
X86940000Y-87248000D02*
X86940000Y-89760000D01*
X86940000Y-92240000D02*
X86940000Y-94752000D01*
X86980000Y-87284000D02*
X86980000Y-89760000D01*
X86980000Y-92240000D02*
X86980000Y-94716000D01*
X87020000Y-87322000D02*
X87020000Y-89760000D01*
X87020000Y-92240000D02*
X87020000Y-94678000D01*
X87060000Y-87360000D02*
X87060000Y-89760000D01*
X87060000Y-92240000D02*
X87060000Y-94640000D01*
X87100000Y-87399000D02*
X87100000Y-89760000D01*
X87100000Y-92240000D02*
X87100000Y-94601000D01*
X87140000Y-87439000D02*
X87140000Y-89760000D01*
X87140000Y-92240000D02*
X87140000Y-94561000D01*
X87180000Y-87480000D02*
X87180000Y-89760000D01*
X87180000Y-92240000D02*
X87180000Y-94520000D01*
X87220000Y-87522000D02*
X87220000Y-89760000D01*
X87220000Y-92240000D02*
X87220000Y-94478000D01*
X87260000Y-87565000D02*
X87260000Y-94435000D01*
X87300000Y-87609000D02*
X87300000Y-94391000D01*
X87340000Y-87653000D02*
X87340000Y-94347000D01*
X87380000Y-87699000D02*
X87380000Y-94301000D01*
X87420000Y-87746000D02*
X87420000Y-94254000D01*
X87460000Y-87795000D02*
X87460000Y-94205000D01*
X87500000Y-87844000D02*
X87500000Y-94156000D01*
X87540000Y-87895000D02*
X87540000Y-94105000D01*
X87580000Y-87947000D02*
X87580000Y-94053000D01*
X87620000Y-88000000D02*
X87620000Y-94000000D01*
X87660000Y-88055000D02*
X87660000Y-93945000D01*
X87700000Y-88112000D02*
X87700000Y-93888000D01*
X87740000Y-88170000D02*
X87740000Y-93830000D01*
X87780000Y-88230000D02*
X87780000Y-93770000D01*
X87820000Y-88292000D02*
X87820000Y-93708000D01*
X87860000Y-88356000D02*
X87860000Y-93644000D01*
X87900000Y-88422000D02*
X87900000Y-93578000D01*
X87940000Y-88490000D02*
X87940000Y-93510000D01*
X87980000Y-88561000D02*
X87980000Y-93439000D01*
X88020000Y-88635000D02*
X88020000Y-93365000D01*
X88060000Y-88712000D02*
X88060000Y-93288000D01*
X88100000Y-88792000D02*
X88100000Y-93208000D01*
X88140000Y-88876000D02*
X88140000Y-93124000D01*
X88180000Y-88963000D02*
X88180000Y-93037000D01*
X88220000Y-89056000D02*
X88220000Y-92944000D01*
X88260000Y-89154000D02*
X88260000Y-92846000D01*
X88300000Y-89258000D02*
X88300000Y-92742000D01*
X88340000Y-89370000D02*
X88340000Y-92630000D01*
X88380000Y-89491000D02*
X88380000Y-92509000D01*
X88420000Y-89623000D02*
X88420000Y-92377000D01*
X88460000Y-89770000D02*
X88460000Y-92230000D01*
X88500000Y-89938000D02*
X88500000Y-92062000D01*
X88540000Y-90138000D02*
X88540000Y-91862000D01*
X88580000Y-90401000D02*
X88580000Y-91599000D01*
X88620000Y-91000000D02*
G75*
G02*
X78380000Y-91000000I-5120000J0D01*
G01*
X78380000Y-91000000D02*
G75*
G02*
X88620000Y-91000000I5120000J0D01*
G01*
%TO.C,C3*%
X52340302Y-31685000D02*
X53140302Y-31685000D01*
X52740302Y-31285000D02*
X52740302Y-32085000D01*
X56750000Y-29920000D02*
X56750000Y-38080000D01*
X56790000Y-29920000D02*
X56790000Y-38080000D01*
X56830000Y-29921000D02*
X56830000Y-38079000D01*
X56870000Y-29922000D02*
X56870000Y-38078000D01*
X56910000Y-29923000D02*
X56910000Y-38077000D01*
X56950000Y-29925000D02*
X56950000Y-38075000D01*
X56990000Y-29927000D02*
X56990000Y-38073000D01*
X57030000Y-29930000D02*
X57030000Y-38070000D01*
X57070000Y-29932000D02*
X57070000Y-38068000D01*
X57110000Y-29936000D02*
X57110000Y-38064000D01*
X57150000Y-29939000D02*
X57150000Y-38061000D01*
X57190000Y-29944000D02*
X57190000Y-38056000D01*
X57230000Y-29948000D02*
X57230000Y-38052000D01*
X57270000Y-29953000D02*
X57270000Y-38047000D01*
X57310000Y-29958000D02*
X57310000Y-38042000D01*
X57350000Y-29964000D02*
X57350000Y-38036000D01*
X57390000Y-29970000D02*
X57390000Y-38030000D01*
X57430000Y-29977000D02*
X57430000Y-38023000D01*
X57470000Y-29983000D02*
X57470000Y-32960000D01*
X57470000Y-35040000D02*
X57470000Y-38017000D01*
X57510000Y-29991000D02*
X57510000Y-32960000D01*
X57510000Y-35040000D02*
X57510000Y-38009000D01*
X57550000Y-29998000D02*
X57550000Y-32960000D01*
X57550000Y-35040000D02*
X57550000Y-38002000D01*
X57590000Y-30007000D02*
X57590000Y-32960000D01*
X57590000Y-35040000D02*
X57590000Y-37993000D01*
X57630000Y-30015000D02*
X57630000Y-32960000D01*
X57630000Y-35040000D02*
X57630000Y-37985000D01*
X57670000Y-30024000D02*
X57670000Y-32960000D01*
X57670000Y-35040000D02*
X57670000Y-37976000D01*
X57710000Y-30033000D02*
X57710000Y-32960000D01*
X57710000Y-35040000D02*
X57710000Y-37967000D01*
X57750000Y-30043000D02*
X57750000Y-32960000D01*
X57750000Y-35040000D02*
X57750000Y-37957000D01*
X57790000Y-30053000D02*
X57790000Y-32960000D01*
X57790000Y-35040000D02*
X57790000Y-37947000D01*
X57830000Y-30064000D02*
X57830000Y-32960000D01*
X57830000Y-35040000D02*
X57830000Y-37936000D01*
X57870000Y-30075000D02*
X57870000Y-32960000D01*
X57870000Y-35040000D02*
X57870000Y-37925000D01*
X57910000Y-30087000D02*
X57910000Y-32960000D01*
X57910000Y-35040000D02*
X57910000Y-37913000D01*
X57950000Y-30099000D02*
X57950000Y-32960000D01*
X57950000Y-35040000D02*
X57950000Y-37901000D01*
X57990000Y-30111000D02*
X57990000Y-32960000D01*
X57990000Y-35040000D02*
X57990000Y-37889000D01*
X58030000Y-30124000D02*
X58030000Y-32960000D01*
X58030000Y-35040000D02*
X58030000Y-37876000D01*
X58070000Y-30137000D02*
X58070000Y-32960000D01*
X58070000Y-35040000D02*
X58070000Y-37863000D01*
X58110000Y-30151000D02*
X58110000Y-32960000D01*
X58110000Y-35040000D02*
X58110000Y-37849000D01*
X58150000Y-30165000D02*
X58150000Y-32960000D01*
X58150000Y-35040000D02*
X58150000Y-37835000D01*
X58190000Y-30180000D02*
X58190000Y-32960000D01*
X58190000Y-35040000D02*
X58190000Y-37820000D01*
X58230000Y-30195000D02*
X58230000Y-32960000D01*
X58230000Y-35040000D02*
X58230000Y-37805000D01*
X58270000Y-30211000D02*
X58270000Y-32960000D01*
X58270000Y-35040000D02*
X58270000Y-37789000D01*
X58310000Y-30227000D02*
X58310000Y-32960000D01*
X58310000Y-35040000D02*
X58310000Y-37773000D01*
X58350000Y-30243000D02*
X58350000Y-32960000D01*
X58350000Y-35040000D02*
X58350000Y-37757000D01*
X58390000Y-30260000D02*
X58390000Y-32960000D01*
X58390000Y-35040000D02*
X58390000Y-37740000D01*
X58430000Y-30278000D02*
X58430000Y-32960000D01*
X58430000Y-35040000D02*
X58430000Y-37722000D01*
X58470000Y-30296000D02*
X58470000Y-32960000D01*
X58470000Y-35040000D02*
X58470000Y-37704000D01*
X58510000Y-30315000D02*
X58510000Y-32960000D01*
X58510000Y-35040000D02*
X58510000Y-37685000D01*
X58550000Y-30334000D02*
X58550000Y-32960000D01*
X58550000Y-35040000D02*
X58550000Y-37666000D01*
X58590000Y-30354000D02*
X58590000Y-32960000D01*
X58590000Y-35040000D02*
X58590000Y-37646000D01*
X58630000Y-30374000D02*
X58630000Y-32960000D01*
X58630000Y-35040000D02*
X58630000Y-37626000D01*
X58670000Y-30395000D02*
X58670000Y-32960000D01*
X58670000Y-35040000D02*
X58670000Y-37605000D01*
X58710000Y-30416000D02*
X58710000Y-32960000D01*
X58710000Y-35040000D02*
X58710000Y-37584000D01*
X58750000Y-30438000D02*
X58750000Y-32960000D01*
X58750000Y-35040000D02*
X58750000Y-37562000D01*
X58790000Y-30461000D02*
X58790000Y-32960000D01*
X58790000Y-35040000D02*
X58790000Y-37539000D01*
X58830000Y-30484000D02*
X58830000Y-32960000D01*
X58830000Y-35040000D02*
X58830000Y-37516000D01*
X58870000Y-30507000D02*
X58870000Y-32960000D01*
X58870000Y-35040000D02*
X58870000Y-37493000D01*
X58910000Y-30532000D02*
X58910000Y-32960000D01*
X58910000Y-35040000D02*
X58910000Y-37468000D01*
X58950000Y-30557000D02*
X58950000Y-32960000D01*
X58950000Y-35040000D02*
X58950000Y-37443000D01*
X58990000Y-30582000D02*
X58990000Y-32960000D01*
X58990000Y-35040000D02*
X58990000Y-37418000D01*
X59030000Y-30608000D02*
X59030000Y-32960000D01*
X59030000Y-35040000D02*
X59030000Y-37392000D01*
X59070000Y-30635000D02*
X59070000Y-32960000D01*
X59070000Y-35040000D02*
X59070000Y-37365000D01*
X59110000Y-30663000D02*
X59110000Y-32960000D01*
X59110000Y-35040000D02*
X59110000Y-37337000D01*
X59150000Y-30691000D02*
X59150000Y-32960000D01*
X59150000Y-35040000D02*
X59150000Y-37309000D01*
X59190000Y-30720000D02*
X59190000Y-32960000D01*
X59190000Y-35040000D02*
X59190000Y-37280000D01*
X59230000Y-30750000D02*
X59230000Y-32960000D01*
X59230000Y-35040000D02*
X59230000Y-37250000D01*
X59270000Y-30781000D02*
X59270000Y-32960000D01*
X59270000Y-35040000D02*
X59270000Y-37219000D01*
X59310000Y-30812000D02*
X59310000Y-32960000D01*
X59310000Y-35040000D02*
X59310000Y-37188000D01*
X59350000Y-30844000D02*
X59350000Y-32960000D01*
X59350000Y-35040000D02*
X59350000Y-37156000D01*
X59390000Y-30877000D02*
X59390000Y-32960000D01*
X59390000Y-35040000D02*
X59390000Y-37123000D01*
X59430000Y-30911000D02*
X59430000Y-32960000D01*
X59430000Y-35040000D02*
X59430000Y-37089000D01*
X59470000Y-30945000D02*
X59470000Y-32960000D01*
X59470000Y-35040000D02*
X59470000Y-37055000D01*
X59510000Y-30981000D02*
X59510000Y-32960000D01*
X59510000Y-35040000D02*
X59510000Y-37019000D01*
X59550000Y-31018000D02*
X59550000Y-36982000D01*
X59590000Y-31055000D02*
X59590000Y-36945000D01*
X59630000Y-31094000D02*
X59630000Y-36906000D01*
X59670000Y-31133000D02*
X59670000Y-36867000D01*
X59710000Y-31174000D02*
X59710000Y-36826000D01*
X59750000Y-31216000D02*
X59750000Y-36784000D01*
X59790000Y-31259000D02*
X59790000Y-36741000D01*
X59830000Y-31304000D02*
X59830000Y-36696000D01*
X59870000Y-31349000D02*
X59870000Y-36651000D01*
X59910000Y-31396000D02*
X59910000Y-36604000D01*
X59950000Y-31445000D02*
X59950000Y-36555000D01*
X59990000Y-31495000D02*
X59990000Y-36505000D01*
X60030000Y-31547000D02*
X60030000Y-36453000D01*
X60070000Y-31600000D02*
X60070000Y-36400000D01*
X60110000Y-31656000D02*
X60110000Y-36344000D01*
X60150000Y-31713000D02*
X60150000Y-36287000D01*
X60190000Y-31773000D02*
X60190000Y-36227000D01*
X60230000Y-31835000D02*
X60230000Y-36165000D01*
X60270000Y-31899000D02*
X60270000Y-36101000D01*
X60310000Y-31966000D02*
X60310000Y-36034000D01*
X60350000Y-32036000D02*
X60350000Y-35964000D01*
X60390000Y-32110000D02*
X60390000Y-35890000D01*
X60430000Y-32187000D02*
X60430000Y-35813000D01*
X60470000Y-32269000D02*
X60470000Y-35731000D01*
X60510000Y-32356000D02*
X60510000Y-35644000D01*
X60550000Y-32448000D02*
X60550000Y-35552000D01*
X60590000Y-32547000D02*
X60590000Y-35453000D01*
X60630000Y-32654000D02*
X60630000Y-35346000D01*
X60670000Y-32772000D02*
X60670000Y-35228000D01*
X60710000Y-32903000D02*
X60710000Y-35097000D01*
X60750000Y-33053000D02*
X60750000Y-34947000D01*
X60790000Y-33232000D02*
X60790000Y-34768000D01*
X60830000Y-33467000D02*
X60830000Y-34533000D01*
X60870000Y-34000000D02*
G75*
G02*
X52630000Y-34000000I-4120000J0D01*
G01*
X52630000Y-34000000D02*
G75*
G02*
X60870000Y-34000000I4120000J0D01*
G01*
%TO.C,U1*%
X21500000Y-94820000D02*
X49899999Y-94820000D01*
X21500001Y-46900000D02*
X21500000Y-94820000D01*
X26730120Y-40986880D02*
X44713320Y-40986880D01*
X26730120Y-46879680D02*
X26730120Y-40986880D01*
X44713320Y-40986880D02*
X44713320Y-46879680D01*
X49899999Y-94820000D02*
X49900000Y-46900000D01*
X49900000Y-46900000D02*
X21500001Y-46900000D01*
%TO.C,U3*%
D11*
X69000000Y-24000000D02*
X120400000Y-24000000D01*
X120400000Y-50000000D01*
X69000000Y-50000000D01*
X69000000Y-24000000D01*
%TD*%
M02*
