%TF.GenerationSoftware,KiCad,Pcbnew,10.0.5*%
%TF.CreationDate,2026-09-01T08:53:20+07:00*%
%TF.ProjectId,vsmart-module-carrier,76736d61-7274-42d6-9d6f-64756c652d63,rev?*%
%TF.SameCoordinates,Original*%
%TF.FileFunction,Legend,Bot*%
%TF.FilePolarity,Positive*%
%FSLAX46Y46*%
G04 Gerber Fmt 4.6, Leading zero omitted, Abs format (unit mm)*
G04 Created by KiCad (PCBNEW 10.0.5) date 2026-09-01 08:53:20*
%MOMM*%
%LPD*%
G01*
G04 APERTURE LIST*
G04 Aperture macros list*
%AMRoundRect*
0 Rectangle with rounded corners*
0 $1 Rounding radius*
0 $2 $3 $4 $5 $6 $7 $8 $9 X,Y pos of 4 corners*
0 Add a 4 corners polygon primitive as box body*
4,1,4,$2,$3,$4,$5,$6,$7,$8,$9,$2,$3,0*
0 Add four circle primitives for the rounded corners*
1,1,$1+$1,$2,$3*
1,1,$1+$1,$4,$5*
1,1,$1+$1,$6,$7*
1,1,$1+$1,$8,$9*
0 Add four rect primitives between the rounded corners*
20,1,$1+$1,$2,$3,$4,$5,0*
20,1,$1+$1,$4,$5,$6,$7,0*
20,1,$1+$1,$6,$7,$8,$9,0*
20,1,$1+$1,$8,$9,$2,$3,0*%
G04 Aperture macros list end*
%ADD10C,0.150000*%
%ADD11C,2.000000*%
%ADD12R,1.700000X1.700000*%
%ADD13O,1.700000X1.700000*%
%ADD14C,1.524000*%
%ADD15C,3.200000*%
%ADD16RoundRect,0.250000X-1.125000X-1.125000X1.125000X-1.125000X1.125000X1.125000X-1.125000X1.125000X0*%
%ADD17C,2.750000*%
%ADD18RoundRect,0.250000X-0.750000X-0.750000X0.750000X-0.750000X0.750000X0.750000X-0.750000X0.750000X0*%
%ADD19RoundRect,0.250000X-0.550000X-0.550000X0.550000X-0.550000X0.550000X0.550000X-0.550000X0.550000X0*%
%ADD20C,1.600000*%
%ADD21R,2.000000X1.200000*%
%ADD22O,2.000000X1.200000*%
%ADD23R,1.800000X1.800000*%
%ADD24O,1.800000X1.800000*%
G04 APERTURE END LIST*
D10*
X92949999Y-99808557D02*
X92649999Y-100708557D01*
X92649999Y-100708557D02*
X92349999Y-99808557D01*
X92092856Y-100665700D02*
X91964285Y-100708557D01*
X91964285Y-100708557D02*
X91749999Y-100708557D01*
X91749999Y-100708557D02*
X91664285Y-100665700D01*
X91664285Y-100665700D02*
X91621427Y-100622842D01*
X91621427Y-100622842D02*
X91578570Y-100537128D01*
X91578570Y-100537128D02*
X91578570Y-100451414D01*
X91578570Y-100451414D02*
X91621427Y-100365700D01*
X91621427Y-100365700D02*
X91664285Y-100322842D01*
X91664285Y-100322842D02*
X91749999Y-100279985D01*
X91749999Y-100279985D02*
X91921427Y-100237128D01*
X91921427Y-100237128D02*
X92007142Y-100194271D01*
X92007142Y-100194271D02*
X92049999Y-100151414D01*
X92049999Y-100151414D02*
X92092856Y-100065700D01*
X92092856Y-100065700D02*
X92092856Y-99979985D01*
X92092856Y-99979985D02*
X92049999Y-99894271D01*
X92049999Y-99894271D02*
X92007142Y-99851414D01*
X92007142Y-99851414D02*
X91921427Y-99808557D01*
X91921427Y-99808557D02*
X91707142Y-99808557D01*
X91707142Y-99808557D02*
X91578570Y-99851414D01*
X91192856Y-100708557D02*
X91192856Y-99808557D01*
X91192856Y-99808557D02*
X90892856Y-100451414D01*
X90892856Y-100451414D02*
X90592856Y-99808557D01*
X90592856Y-99808557D02*
X90592856Y-100708557D01*
X90207142Y-100451414D02*
X89778571Y-100451414D01*
X90292856Y-100708557D02*
X89992856Y-99808557D01*
X89992856Y-99808557D02*
X89692856Y-100708557D01*
X88878570Y-100708557D02*
X89178570Y-100279985D01*
X89392856Y-100708557D02*
X89392856Y-99808557D01*
X89392856Y-99808557D02*
X89049999Y-99808557D01*
X89049999Y-99808557D02*
X88964284Y-99851414D01*
X88964284Y-99851414D02*
X88921427Y-99894271D01*
X88921427Y-99894271D02*
X88878570Y-99979985D01*
X88878570Y-99979985D02*
X88878570Y-100108557D01*
X88878570Y-100108557D02*
X88921427Y-100194271D01*
X88921427Y-100194271D02*
X88964284Y-100237128D01*
X88964284Y-100237128D02*
X89049999Y-100279985D01*
X89049999Y-100279985D02*
X89392856Y-100279985D01*
X88621427Y-99808557D02*
X88107142Y-99808557D01*
X88364284Y-100708557D02*
X88364284Y-99808557D01*
X86607142Y-100622842D02*
X86649999Y-100665700D01*
X86649999Y-100665700D02*
X86778571Y-100708557D01*
X86778571Y-100708557D02*
X86864285Y-100708557D01*
X86864285Y-100708557D02*
X86992856Y-100665700D01*
X86992856Y-100665700D02*
X87078571Y-100579985D01*
X87078571Y-100579985D02*
X87121428Y-100494271D01*
X87121428Y-100494271D02*
X87164285Y-100322842D01*
X87164285Y-100322842D02*
X87164285Y-100194271D01*
X87164285Y-100194271D02*
X87121428Y-100022842D01*
X87121428Y-100022842D02*
X87078571Y-99937128D01*
X87078571Y-99937128D02*
X86992856Y-99851414D01*
X86992856Y-99851414D02*
X86864285Y-99808557D01*
X86864285Y-99808557D02*
X86778571Y-99808557D01*
X86778571Y-99808557D02*
X86649999Y-99851414D01*
X86649999Y-99851414D02*
X86607142Y-99894271D01*
X86264285Y-100451414D02*
X85835714Y-100451414D01*
X86349999Y-100708557D02*
X86049999Y-99808557D01*
X86049999Y-99808557D02*
X85749999Y-100708557D01*
X84935713Y-100708557D02*
X85235713Y-100279985D01*
X85449999Y-100708557D02*
X85449999Y-99808557D01*
X85449999Y-99808557D02*
X85107142Y-99808557D01*
X85107142Y-99808557D02*
X85021427Y-99851414D01*
X85021427Y-99851414D02*
X84978570Y-99894271D01*
X84978570Y-99894271D02*
X84935713Y-99979985D01*
X84935713Y-99979985D02*
X84935713Y-100108557D01*
X84935713Y-100108557D02*
X84978570Y-100194271D01*
X84978570Y-100194271D02*
X85021427Y-100237128D01*
X85021427Y-100237128D02*
X85107142Y-100279985D01*
X85107142Y-100279985D02*
X85449999Y-100279985D01*
X84035713Y-100708557D02*
X84335713Y-100279985D01*
X84549999Y-100708557D02*
X84549999Y-99808557D01*
X84549999Y-99808557D02*
X84207142Y-99808557D01*
X84207142Y-99808557D02*
X84121427Y-99851414D01*
X84121427Y-99851414D02*
X84078570Y-99894271D01*
X84078570Y-99894271D02*
X84035713Y-99979985D01*
X84035713Y-99979985D02*
X84035713Y-100108557D01*
X84035713Y-100108557D02*
X84078570Y-100194271D01*
X84078570Y-100194271D02*
X84121427Y-100237128D01*
X84121427Y-100237128D02*
X84207142Y-100279985D01*
X84207142Y-100279985D02*
X84549999Y-100279985D01*
X83649999Y-100708557D02*
X83649999Y-99808557D01*
X83221428Y-100237128D02*
X82921428Y-100237128D01*
X82792856Y-100708557D02*
X83221428Y-100708557D01*
X83221428Y-100708557D02*
X83221428Y-99808557D01*
X83221428Y-99808557D02*
X82792856Y-99808557D01*
X81892856Y-100708557D02*
X82192856Y-100279985D01*
X82407142Y-100708557D02*
X82407142Y-99808557D01*
X82407142Y-99808557D02*
X82064285Y-99808557D01*
X82064285Y-99808557D02*
X81978570Y-99851414D01*
X81978570Y-99851414D02*
X81935713Y-99894271D01*
X81935713Y-99894271D02*
X81892856Y-99979985D01*
X81892856Y-99979985D02*
X81892856Y-100108557D01*
X81892856Y-100108557D02*
X81935713Y-100194271D01*
X81935713Y-100194271D02*
X81978570Y-100237128D01*
X81978570Y-100237128D02*
X82064285Y-100279985D01*
X82064285Y-100279985D02*
X82407142Y-100279985D01*
X80307142Y-100708557D02*
X80607142Y-100279985D01*
X80821428Y-100708557D02*
X80821428Y-99808557D01*
X80821428Y-99808557D02*
X80478571Y-99808557D01*
X80478571Y-99808557D02*
X80392856Y-99851414D01*
X80392856Y-99851414D02*
X80349999Y-99894271D01*
X80349999Y-99894271D02*
X80307142Y-99979985D01*
X80307142Y-99979985D02*
X80307142Y-100108557D01*
X80307142Y-100108557D02*
X80349999Y-100194271D01*
X80349999Y-100194271D02*
X80392856Y-100237128D01*
X80392856Y-100237128D02*
X80478571Y-100279985D01*
X80478571Y-100279985D02*
X80821428Y-100279985D01*
X79921428Y-100237128D02*
X79621428Y-100237128D01*
X79492856Y-100708557D02*
X79921428Y-100708557D01*
X79921428Y-100708557D02*
X79921428Y-99808557D01*
X79921428Y-99808557D02*
X79492856Y-99808557D01*
X79235713Y-99808557D02*
X78935713Y-100708557D01*
X78935713Y-100708557D02*
X78635713Y-99808557D01*
X77135713Y-100622842D02*
X77178570Y-100665700D01*
X77178570Y-100665700D02*
X77307142Y-100708557D01*
X77307142Y-100708557D02*
X77392856Y-100708557D01*
X77392856Y-100708557D02*
X77521427Y-100665700D01*
X77521427Y-100665700D02*
X77607142Y-100579985D01*
X77607142Y-100579985D02*
X77649999Y-100494271D01*
X77649999Y-100494271D02*
X77692856Y-100322842D01*
X77692856Y-100322842D02*
X77692856Y-100194271D01*
X77692856Y-100194271D02*
X77649999Y-100022842D01*
X77649999Y-100022842D02*
X77607142Y-99937128D01*
X77607142Y-99937128D02*
X77521427Y-99851414D01*
X77521427Y-99851414D02*
X77392856Y-99808557D01*
X77392856Y-99808557D02*
X77307142Y-99808557D01*
X77307142Y-99808557D02*
X77178570Y-99851414D01*
X77178570Y-99851414D02*
X77135713Y-99894271D01*
%LPC*%
D11*
%TO.C,U4*%
X100723600Y-81940000D03*
D12*
X79000000Y-68380000D03*
D13*
X79000000Y-70920000D03*
X79000000Y-73460000D03*
X79000000Y-76000000D03*
X79000000Y-78540000D03*
X79000000Y-81080000D03*
D12*
X101073600Y-65856000D03*
D13*
X101073600Y-68396000D03*
X101073600Y-70936000D03*
X101073600Y-73476000D03*
X101073600Y-76016000D03*
X101073600Y-78556000D03*
%TD*%
D14*
%TO.C,U2*%
X55000000Y-43220000D03*
X55000000Y-45760000D03*
X55000000Y-48300000D03*
X55000000Y-50840000D03*
X55000000Y-53380000D03*
X55000000Y-55920000D03*
X55000000Y-58460000D03*
X55000000Y-61000000D03*
%TD*%
D15*
%TO.C,MH1*%
X25000000Y-25000000D03*
%TD*%
%TO.C,MH4*%
X110000000Y-85000000D03*
%TD*%
%TO.C,MH2*%
X110000000Y-25000000D03*
%TD*%
D16*
%TO.C,J2*%
X67000000Y-86000000D03*
D17*
X72400000Y-86000000D03*
%TD*%
D18*
%TO.C,C1*%
X66000000Y-74000000D03*
D11*
X71000000Y-74000000D03*
%TD*%
D19*
%TO.C,C3*%
X55000000Y-27000000D03*
D20*
X58500000Y-27000000D03*
%TD*%
D21*
%TO.C,U1*%
X23000000Y-34000000D03*
D22*
X23000000Y-36540000D03*
X23000000Y-39080000D03*
X23000000Y-41620000D03*
X23000000Y-44160000D03*
X23000000Y-46700000D03*
X23000000Y-49240000D03*
X23000000Y-51780000D03*
X23000000Y-54320000D03*
X23000000Y-56860000D03*
X23000000Y-59400000D03*
X23000000Y-61940000D03*
X23000000Y-64480000D03*
X23000000Y-67020000D03*
X23000000Y-69560000D03*
X23000000Y-72100000D03*
X23000000Y-74640000D03*
X23000000Y-77180000D03*
X23000000Y-79720000D03*
X48396320Y-79717280D03*
X48396320Y-77177280D03*
X48400000Y-74640000D03*
X48400000Y-72100000D03*
X48400000Y-69560000D03*
X48400000Y-67020000D03*
X48400000Y-64480000D03*
X48400000Y-61940000D03*
X48400000Y-59400000D03*
X48400000Y-56860000D03*
X48400000Y-54320000D03*
X48400000Y-51780000D03*
X48400000Y-49240000D03*
X48400000Y-46700000D03*
X48400000Y-44160000D03*
X48400000Y-41620000D03*
X48400000Y-39080000D03*
X48400000Y-36540000D03*
X48400000Y-34000000D03*
%TD*%
D23*
%TO.C,U3*%
X100000000Y-38190000D03*
D24*
X100000000Y-40730000D03*
X100000000Y-43270000D03*
X100000000Y-45810000D03*
%TD*%
D16*
%TO.C,J1*%
X53000000Y-86000000D03*
D17*
X58400000Y-86000000D03*
%TD*%
D15*
%TO.C,MH3*%
X25000000Y-85000000D03*
%TD*%
%LPD*%
M02*
