M48
; DRILL file KiCad 10.0.5 date 2026-08-31T10:10:10
; FORMAT={-:-/ absolute / metric / decimal}
; #@! TF.CreationDate,2026-08-31T10:10:10+07:00
; #@! TF.GenerationSoftware,Kicad,Pcbnew,10.0.5
; #@! TF.FileFunction,Plated,1,2,PTH
FMAT,2
METRIC
; #@! TA.AperFunction,Plated,PTH,ViaDrill
T1C0.300
; #@! TA.AperFunction,Plated,PTH,ComponentDrill
T2C0.762
; #@! TA.AperFunction,Plated,PTH,ComponentDrill
T3C0.800
; #@! TA.AperFunction,Plated,PTH,ComponentDrill
T4C1.000
; #@! TA.AperFunction,Plated,PTH,ComponentDrill
T5C1.750
%
G90
G05
T1
X29.312Y-73.617
X31.0Y-40.0
X32.2Y-60.61
X33.8Y-60.61
X44.0Y-72.5
X44.0Y-74.1
X44.022Y-75.225
X48.4Y-77.12
X49.101Y-74.693
X50.19Y-71.733
X50.708Y-72.408
X76.0Y-57.8
X76.0Y-60.0
T2
X26.7Y-32.22
X26.7Y-34.76
X26.7Y-37.3
X26.7Y-39.84
X26.7Y-42.38
X26.7Y-44.92
X26.7Y-47.46
X26.7Y-50.0
T3
X52.5Y-42.0
X56.0Y-42.0
T4
X30.38Y-59.34
X30.38Y-61.88
X30.38Y-64.42
X30.38Y-66.96
X30.38Y-69.5
X30.38Y-72.04
X30.38Y-74.58
X30.38Y-77.12
X30.38Y-79.66
X45.62Y-59.34
X45.62Y-61.88
X45.62Y-64.42
X45.62Y-66.96
X45.62Y-69.5
X45.62Y-72.04
X45.62Y-74.58
X45.62Y-77.12
X45.62Y-79.66
X51.0Y-66.0
X56.0Y-66.0
X61.125Y-67.524
X61.125Y-70.064
X61.125Y-72.604
X61.125Y-75.144
X61.125Y-77.684
X61.125Y-80.224
X83.199Y-65.0
X83.199Y-67.54
X83.199Y-70.08
X83.199Y-72.62
X83.199Y-75.16
X83.199Y-77.7
X83.5Y-38.69
X83.5Y-41.23
X83.5Y-43.77
X83.5Y-46.31
T5
X50.5Y-78.5
X53.5Y-24.6
X53.5Y-30.0
X55.9Y-78.5
M30
