M48
; DRILL file KiCad 10.0.5 date 2026-08-30T11:49:37
; FORMAT={-:-/ absolute / metric / decimal}
; #@! TF.CreationDate,2026-08-30T11:49:37+07:00
; #@! TF.GenerationSoftware,Kicad,Pcbnew,10.0.5
; #@! TF.FileFunction,Plated,1,2,PTH
FMAT,2
METRIC
; #@! TA.AperFunction,Plated,PTH,ViaDrill
T1C0.300
; #@! TA.AperFunction,Plated,PTH,ComponentDrill
T2C0.762
; #@! TA.AperFunction,Plated,PTH,ComponentDrill
T3C0.800
; #@! TA.AperFunction,Plated,PTH,ComponentDrill
T4C1.000
; #@! TA.AperFunction,Plated,PTH,ComponentDrill
T5C1.750
%
G90
G05
T1
X21.95Y-21.95
X21.95Y-26.95
X21.95Y-31.95
X21.95Y-36.95
X21.95Y-41.95
X21.95Y-46.95
X21.95Y-51.95
X21.95Y-56.95
X21.95Y-61.95
X21.95Y-66.95
X21.95Y-71.95
X26.95Y-21.95
X26.95Y-26.95
X26.95Y-51.95
X26.95Y-56.95
X26.95Y-61.95
X26.95Y-66.95
X26.95Y-71.95
X26.95Y-76.95
X31.0Y-40.0
X31.95Y-21.95
X31.95Y-26.95
X31.95Y-31.95
X31.95Y-36.95
X31.95Y-41.95
X31.95Y-46.95
X31.95Y-51.95
X32.2Y-59.7
X32.2Y-60.61
X33.8Y-59.7
X33.8Y-60.61
X36.95Y-21.95
X36.95Y-26.95
X36.95Y-31.95
X36.95Y-36.95
X36.95Y-41.95
X36.95Y-46.95
X36.95Y-51.95
X36.95Y-61.95
X36.95Y-66.95
X41.95Y-21.95
X41.95Y-26.95
X41.95Y-31.95
X41.95Y-36.95
X41.95Y-41.95
X41.95Y-46.95
X41.95Y-51.95
X41.95Y-61.95
X41.95Y-66.95
X44.0Y-62.3
X44.0Y-72.5
X44.0Y-74.1
X46.5Y-62.5
X46.95Y-21.95
X46.95Y-26.95
X46.95Y-31.95
X46.95Y-36.95
X46.95Y-41.95
X46.95Y-46.95
X46.95Y-51.95
X47.2Y-58.1
X47.2Y-59.0
X47.2Y-62.0
X48.4Y-77.12
X48.4Y-78.0
X51.95Y-21.95
X51.95Y-26.95
X51.95Y-61.95
X56.95Y-21.95
X56.95Y-26.95
X56.95Y-36.95
X56.95Y-46.95
X56.95Y-51.95
X56.95Y-61.95
X56.95Y-71.95
X61.95Y-21.95
X61.95Y-26.95
X61.95Y-36.95
X61.95Y-41.95
X61.95Y-46.95
X61.95Y-51.95
X66.95Y-21.95
X66.95Y-26.95
X66.95Y-36.95
X66.95Y-41.95
X66.95Y-46.95
X66.95Y-51.95
X66.95Y-61.95
X66.95Y-66.95
X66.95Y-71.95
X66.95Y-76.95
X71.95Y-21.95
X71.95Y-26.95
X71.95Y-36.95
X71.95Y-41.95
X71.95Y-46.95
X71.95Y-51.95
X71.95Y-61.95
X71.95Y-66.95
X71.95Y-71.95
X71.95Y-76.95
X76.0Y-57.8
X76.0Y-60.0
X76.9Y-57.8
X76.9Y-60.0
X76.95Y-21.95
X76.95Y-26.95
X76.95Y-36.95
X76.95Y-46.95
X76.95Y-51.95
X76.95Y-56.95
X76.95Y-61.95
X76.95Y-66.95
X76.95Y-71.95
X76.95Y-76.95
X81.95Y-21.95
X81.95Y-26.95
X81.95Y-31.95
X81.95Y-36.95
X81.95Y-46.95
X81.95Y-51.95
X81.95Y-56.95
X81.95Y-61.95
X86.95Y-21.95
X86.95Y-26.95
X86.95Y-31.95
X86.95Y-36.95
X86.95Y-41.95
X86.95Y-46.95
X86.95Y-51.95
X86.95Y-56.95
X86.95Y-61.95
X86.95Y-66.95
X86.95Y-71.95
X86.95Y-76.95
X91.95Y-21.95
X91.95Y-26.95
X91.95Y-31.95
X91.95Y-36.95
X91.95Y-41.95
X91.95Y-46.95
X91.95Y-51.95
X91.95Y-56.95
X91.95Y-61.95
X91.95Y-66.95
X91.95Y-71.95
T2
X26.7Y-32.22
X26.7Y-34.76
X26.7Y-37.3
X26.7Y-39.84
X26.7Y-42.38
X26.7Y-44.92
X26.7Y-47.46
X26.7Y-50.0
T3
X52.5Y-42.0
X56.0Y-42.0
T4
X30.38Y-59.34
X30.38Y-61.88
X30.38Y-64.42
X30.38Y-66.96
X30.38Y-69.5
X30.38Y-72.04
X30.38Y-74.58
X30.38Y-77.12
X30.38Y-79.66
X45.62Y-59.34
X45.62Y-61.88
X45.62Y-64.42
X45.62Y-66.96
X45.62Y-69.5
X45.62Y-72.04
X45.62Y-74.58
X45.62Y-77.12
X45.62Y-79.66
X51.0Y-66.0
X56.0Y-66.0
X61.126Y-62.476
X61.126Y-65.016
X61.126Y-67.556
X61.126Y-70.096
X61.126Y-72.636
X61.126Y-75.176
X83.2Y-65.0
X83.2Y-67.54
X83.2Y-70.08
X83.2Y-72.62
X83.2Y-75.16
X83.2Y-77.7
X83.5Y-38.69
X83.5Y-41.23
X83.5Y-43.77
X83.5Y-46.31
T5
X50.5Y-78.5
X53.5Y-24.6
X53.5Y-30.0
X55.9Y-78.5
M30
