M48
; DRILL file KiCad 10.0.5 date 2026-09-01T08:53:21
; FORMAT={-:-/ absolute / metric / decimal}
; #@! TF.CreationDate,2026-09-01T08:53:21+07:00
; #@! TF.GenerationSoftware,Kicad,Pcbnew,10.0.5
; #@! TF.FileFunction,MixedPlating,1,2
FMAT,2
METRIC
; #@! TA.AperFunction,Plated,PTH,ViaDrill
T1C0.300
; #@! TA.AperFunction,Plated,PTH,ComponentDrill
T2C0.762
; #@! TA.AperFunction,Plated,PTH,ComponentDrill
T3C0.800
; #@! TA.AperFunction,Plated,PTH,ComponentDrill
T4C1.000
; #@! TA.AperFunction,Plated,PTH,ComponentDrill
T5C1.750
; #@! TA.AperFunction,NonPlated,NPTH,ComponentDrill
T6C2.000
; #@! TA.AperFunction,NonPlated,NPTH,ComponentDrill
T7C3.200
%
G90
G05
T1
X31.0Y-40.0
X32.2Y-60.61
X33.8Y-60.61
X44.0Y-72.5
X44.0Y-74.1
X47.987Y-70.119
X48.1Y-68.771
X48.4Y-77.12
X49.102Y-71.733
X76.0Y-57.8
X76.0Y-60.0
T2
X26.7Y-32.22
X26.7Y-34.76
X26.7Y-37.3
X26.7Y-39.84
X26.7Y-42.38
X26.7Y-44.92
X26.7Y-47.46
X26.7Y-50.0
T3
X52.5Y-42.0
X56.0Y-42.0
T4
X30.38Y-59.34
X30.38Y-61.88
X30.38Y-64.42
X30.38Y-66.96
X30.38Y-69.5
X30.38Y-72.04
X30.38Y-74.58
X30.38Y-77.12
X30.38Y-79.66
X45.62Y-59.34
X45.62Y-61.88
X45.62Y-64.42
X45.62Y-66.96
X45.62Y-69.5
X45.62Y-72.04
X45.62Y-74.58
X45.62Y-77.12
X45.62Y-79.66
X51.0Y-66.0
X56.0Y-66.0
X61.126Y-64.746
X61.126Y-67.286
X61.126Y-69.826
X61.126Y-72.366
X61.126Y-74.906
X61.126Y-77.446
X83.2Y-62.222
X83.2Y-64.762
X83.2Y-67.302
X83.2Y-69.842
X83.2Y-72.382
X83.2Y-74.922
X83.5Y-38.69
X83.5Y-41.23
X83.5Y-43.77
X83.5Y-46.31
T5
X50.5Y-78.5
X53.5Y-24.6
X53.5Y-30.0
X55.9Y-78.5
T6
X82.85Y-78.306
T7
X23.5Y-77.0
X24.0Y-25.0
X90.0Y-25.0
X90.0Y-77.0
M30
