%TF.GenerationSoftware,KiCad,Pcbnew,10.0.5*%
%TF.CreationDate,2026-09-01T08:53:21+07:00*%
%TF.ProjectId,vsmart-module-esp32-s3-mini,76736d61-7274-42d6-9d6f-64756c652d65,rev?*%
%TF.SameCoordinates,Original*%
%TF.FileFunction,Legend,Bot*%
%TF.FilePolarity,Positive*%
%FSLAX46Y46*%
G04 Gerber Fmt 4.6, Leading zero omitted, Abs format (unit mm)*
G04 Created by KiCad (PCBNEW 10.0.5) date 2026-09-01 08:53:21*
%MOMM*%
%LPD*%
G01*
G04 APERTURE LIST*
G04 Aperture macros list*
%AMRoundRect*
0 Rectangle with rounded corners*
0 $1 Rounding radius*
0 $2 $3 $4 $5 $6 $7 $8 $9 X,Y pos of 4 corners*
0 Add a 4 corners polygon primitive as box body*
4,1,4,$2,$3,$4,$5,$6,$7,$8,$9,$2,$3,0*
0 Add four circle primitives for the rounded corners*
1,1,$1+$1,$2,$3*
1,1,$1+$1,$4,$5*
1,1,$1+$1,$6,$7*
1,1,$1+$1,$8,$9*
0 Add four rect primitives between the rounded corners*
20,1,$1+$1,$2,$3,$4,$5,0*
20,1,$1+$1,$4,$5,$6,$7,0*
20,1,$1+$1,$6,$7,$8,$9,0*
20,1,$1+$1,$8,$9,$2,$3,0*%
G04 Aperture macros list end*
%ADD10C,0.120000*%
%ADD11C,3.200000*%
%ADD12RoundRect,0.250000X-1.125000X-1.125000X1.125000X-1.125000X1.125000X1.125000X-1.125000X1.125000X0*%
%ADD13C,2.750000*%
%ADD14RoundRect,0.250000X-0.550000X-0.550000X0.550000X-0.550000X0.550000X0.550000X-0.550000X0.550000X0*%
%ADD15C,1.600000*%
%ADD16C,2.004000*%
%ADD17RoundRect,0.102000X-0.900000X-0.900000X0.900000X-0.900000X0.900000X0.900000X-0.900000X0.900000X0*%
%ADD18RoundRect,0.250000X-0.750000X-0.750000X0.750000X-0.750000X0.750000X0.750000X-0.750000X0.750000X0*%
%ADD19C,2.000000*%
%ADD20C,1.524000*%
%ADD21R,1.800000X1.800000*%
%ADD22O,1.800000X1.800000*%
%ADD23RoundRect,0.250000X1.125000X-1.125000X1.125000X1.125000X-1.125000X1.125000X-1.125000X-1.125000X0*%
%ADD24R,1.700000X1.700000*%
%ADD25O,1.700000X1.700000*%
G04 APERTURE END LIST*
D10*
X42928571Y-79652974D02*
X42500000Y-79652974D01*
X43014285Y-79910117D02*
X42714285Y-79010117D01*
X42714285Y-79010117D02*
X42414285Y-79910117D01*
X42114285Y-79910117D02*
X42114285Y-79010117D01*
X42114285Y-79010117D02*
X41599999Y-79910117D01*
X41599999Y-79910117D02*
X41599999Y-79010117D01*
X41299999Y-79010117D02*
X40785714Y-79010117D01*
X41042856Y-79910117D02*
X41042856Y-79010117D01*
X39800000Y-79910117D02*
X39800000Y-79010117D01*
X39285714Y-79910117D02*
X39671428Y-79395831D01*
X39285714Y-79010117D02*
X39800000Y-79524402D01*
X38900000Y-79438688D02*
X38600000Y-79438688D01*
X38471428Y-79910117D02*
X38900000Y-79910117D01*
X38900000Y-79910117D02*
X38900000Y-79010117D01*
X38900000Y-79010117D02*
X38471428Y-79010117D01*
X38085714Y-79438688D02*
X37785714Y-79438688D01*
X37657142Y-79910117D02*
X38085714Y-79910117D01*
X38085714Y-79910117D02*
X38085714Y-79010117D01*
X38085714Y-79010117D02*
X37657142Y-79010117D01*
X37271428Y-79910117D02*
X37271428Y-79010117D01*
X37271428Y-79010117D02*
X36928571Y-79010117D01*
X36928571Y-79010117D02*
X36842856Y-79052974D01*
X36842856Y-79052974D02*
X36799999Y-79095831D01*
X36799999Y-79095831D02*
X36757142Y-79181545D01*
X36757142Y-79181545D02*
X36757142Y-79310117D01*
X36757142Y-79310117D02*
X36799999Y-79395831D01*
X36799999Y-79395831D02*
X36842856Y-79438688D01*
X36842856Y-79438688D02*
X36928571Y-79481545D01*
X36928571Y-79481545D02*
X37271428Y-79481545D01*
X36371428Y-79567260D02*
X35685714Y-79567260D01*
X35085713Y-79010117D02*
X34914285Y-79010117D01*
X34914285Y-79010117D02*
X34828570Y-79052974D01*
X34828570Y-79052974D02*
X34742856Y-79138688D01*
X34742856Y-79138688D02*
X34699999Y-79310117D01*
X34699999Y-79310117D02*
X34699999Y-79610117D01*
X34699999Y-79610117D02*
X34742856Y-79781545D01*
X34742856Y-79781545D02*
X34828570Y-79867260D01*
X34828570Y-79867260D02*
X34914285Y-79910117D01*
X34914285Y-79910117D02*
X35085713Y-79910117D01*
X35085713Y-79910117D02*
X35171428Y-79867260D01*
X35171428Y-79867260D02*
X35257142Y-79781545D01*
X35257142Y-79781545D02*
X35299999Y-79610117D01*
X35299999Y-79610117D02*
X35299999Y-79310117D01*
X35299999Y-79310117D02*
X35257142Y-79138688D01*
X35257142Y-79138688D02*
X35171428Y-79052974D01*
X35171428Y-79052974D02*
X35085713Y-79010117D01*
X34314285Y-79010117D02*
X34314285Y-79738688D01*
X34314285Y-79738688D02*
X34271428Y-79824402D01*
X34271428Y-79824402D02*
X34228571Y-79867260D01*
X34228571Y-79867260D02*
X34142856Y-79910117D01*
X34142856Y-79910117D02*
X33971428Y-79910117D01*
X33971428Y-79910117D02*
X33885713Y-79867260D01*
X33885713Y-79867260D02*
X33842856Y-79824402D01*
X33842856Y-79824402D02*
X33799999Y-79738688D01*
X33799999Y-79738688D02*
X33799999Y-79010117D01*
X33499999Y-79010117D02*
X32985714Y-79010117D01*
X33242856Y-79910117D02*
X33242856Y-79010117D01*
%LPC*%
D11*
%TO.C,MH1*%
X24000000Y-25000000D03*
%TD*%
D12*
%TO.C,J2*%
X50500000Y-78500000D03*
D13*
X55900000Y-78500000D03*
%TD*%
D11*
%TO.C,MH3*%
X23500000Y-77000000D03*
%TD*%
%TO.C,MH4*%
X90000000Y-77000000D03*
%TD*%
D14*
%TO.C,C3*%
X52500000Y-42000000D03*
D15*
X56000000Y-42000000D03*
%TD*%
D11*
%TO.C,MH2*%
X90000000Y-25000000D03*
%TD*%
D16*
%TO.C,U1*%
X30380000Y-64420000D03*
X30380000Y-66960000D03*
X30380000Y-69500000D03*
X45620000Y-64420000D03*
X30380000Y-72040000D03*
X30380000Y-74580000D03*
D17*
X45620000Y-59340000D03*
D16*
X30380000Y-77120000D03*
X30380000Y-79660000D03*
X45620000Y-79660000D03*
X45620000Y-77120000D03*
X45620000Y-74580000D03*
X45620000Y-72040000D03*
X45620000Y-69500000D03*
X45620000Y-66960000D03*
X45620000Y-61880000D03*
X30380000Y-61880000D03*
X30380000Y-59340000D03*
%TD*%
D18*
%TO.C,C1*%
X51000000Y-66000000D03*
D19*
X56000000Y-66000000D03*
%TD*%
D20*
%TO.C,U2*%
X26700000Y-32220000D03*
X26700000Y-34760000D03*
X26700000Y-37300000D03*
X26700000Y-39840000D03*
X26700000Y-42380000D03*
X26700000Y-44920000D03*
X26700000Y-47460000D03*
X26700000Y-50000000D03*
%TD*%
D21*
%TO.C,U3*%
X83500000Y-38690000D03*
D22*
X83500000Y-41230000D03*
X83500000Y-43770000D03*
X83500000Y-46310000D03*
%TD*%
D23*
%TO.C,J1*%
X53500000Y-30000000D03*
D13*
X53500000Y-24600000D03*
%TD*%
D19*
%TO.C,U4*%
X82850000Y-78306000D03*
D24*
X61126400Y-64746000D03*
D25*
X61126400Y-67286000D03*
X61126400Y-69826000D03*
X61126400Y-72366000D03*
X61126400Y-74906000D03*
X61126400Y-77446000D03*
D24*
X83200000Y-62222000D03*
D25*
X83200000Y-64762000D03*
X83200000Y-67302000D03*
X83200000Y-69842000D03*
X83200000Y-72382000D03*
X83200000Y-74922000D03*
%TD*%
%LPD*%
M02*
