%TF.GenerationSoftware,KiCad,Pcbnew,10.0.5*%
%TF.CreationDate,2026-09-10T11:57:11+07:00*%
%TF.ProjectId,vsmart-module-esp32-s3-mini,76736d61-7274-42d6-9d6f-64756c652d65,rev?*%
%TF.SameCoordinates,Original*%
%TF.FileFunction,Copper,L1,Top*%
%TF.FilePolarity,Positive*%
%FSLAX46Y46*%
G04 Gerber Fmt 4.6, Leading zero omitted, Abs format (unit mm)*
G04 Created by KiCad (PCBNEW 10.0.5) date 2026-09-10 11:57:11*
%MOMM*%
%LPD*%
G01*
G04 APERTURE LIST*
G04 Aperture macros list*
%AMRoundRect*
0 Rectangle with rounded corners*
0 $1 Rounding radius*
0 $2 $3 $4 $5 $6 $7 $8 $9 X,Y pos of 4 corners*
0 Add a 4 corners polygon primitive as box body*
4,1,4,$2,$3,$4,$5,$6,$7,$8,$9,$2,$3,0*
0 Add four circle primitives for the rounded corners*
1,1,$1+$1,$2,$3*
1,1,$1+$1,$4,$5*
1,1,$1+$1,$6,$7*
1,1,$1+$1,$8,$9*
0 Add four rect primitives between the rounded corners*
20,1,$1+$1,$2,$3,$4,$5,0*
20,1,$1+$1,$4,$5,$6,$7,0*
20,1,$1+$1,$6,$7,$8,$9,0*
20,1,$1+$1,$8,$9,$2,$3,0*%
G04 Aperture macros list end*
%TA.AperFunction,ComponentPad*%
%ADD10RoundRect,0.250000X-1.125000X-1.125000X1.125000X-1.125000X1.125000X1.125000X-1.125000X1.125000X0*%
%TD*%
%TA.AperFunction,ComponentPad*%
%ADD11C,2.750000*%
%TD*%
%TA.AperFunction,ComponentPad*%
%ADD12RoundRect,0.250000X-0.550000X-0.550000X0.550000X-0.550000X0.550000X0.550000X-0.550000X0.550000X0*%
%TD*%
%TA.AperFunction,ComponentPad*%
%ADD13C,1.600000*%
%TD*%
%TA.AperFunction,ComponentPad*%
%ADD14C,1.800000*%
%TD*%
%TA.AperFunction,ComponentPad*%
%ADD15R,1.800000X1.800000*%
%TD*%
%TA.AperFunction,ComponentPad*%
%ADD16RoundRect,0.250000X-0.750000X-0.750000X0.750000X-0.750000X0.750000X0.750000X-0.750000X0.750000X0*%
%TD*%
%TA.AperFunction,ComponentPad*%
%ADD17C,2.000000*%
%TD*%
%TA.AperFunction,ComponentPad*%
%ADD18C,1.524000*%
%TD*%
%TA.AperFunction,ComponentPad*%
%ADD19O,1.800000X1.800000*%
%TD*%
%TA.AperFunction,ComponentPad*%
%ADD20RoundRect,0.250000X1.125000X-1.125000X1.125000X1.125000X-1.125000X1.125000X-1.125000X-1.125000X0*%
%TD*%
%TA.AperFunction,ComponentPad*%
%ADD21R,1.700000X1.700000*%
%TD*%
%TA.AperFunction,ComponentPad*%
%ADD22O,1.700000X1.700000*%
%TD*%
%TA.AperFunction,ViaPad*%
%ADD23C,0.600000*%
%TD*%
%TA.AperFunction,Conductor*%
%ADD24C,1.500000*%
%TD*%
%TA.AperFunction,Conductor*%
%ADD25C,0.200000*%
%TD*%
%TA.AperFunction,Conductor*%
%ADD26C,0.250000*%
%TD*%
G04 APERTURE END LIST*
D10*
%TO.P,J2,1*%
%TO.N,+5V_SIM*%
X50500000Y-78500000D03*
D11*
%TO.P,J2,2*%
%TO.N,GND*%
X55900000Y-78500000D03*
%TD*%
D12*
%TO.P,C3,1*%
%TO.N,+5V*%
X45500000Y-36000000D03*
D13*
%TO.P,C3,2*%
%TO.N,GND*%
X49000000Y-36000000D03*
%TD*%
D14*
%TO.P,U1,1*%
%TO.N,N/C*%
X30380000Y-64420000D03*
%TO.P,U1,2*%
X30380000Y-66960000D03*
%TO.P,U1,3*%
X30380000Y-69500000D03*
%TO.P,U1,3V3*%
%TO.N,+3V3*%
X45620000Y-64420000D03*
%TO.P,U1,4*%
%TO.N,N/C*%
X30380000Y-72040000D03*
%TO.P,U1,5*%
X30380000Y-74580000D03*
D15*
%TO.P,U1,5V*%
%TO.N,+5V*%
X45620000Y-59340000D03*
D14*
%TO.P,U1,6*%
%TO.N,SIM_RX*%
X30380000Y-77120000D03*
%TO.P,U1,7*%
%TO.N,SIM_TX*%
X30380000Y-79660000D03*
%TO.P,U1,8*%
%TO.N,I2C_SDA*%
X45620000Y-79660000D03*
%TO.P,U1,9*%
%TO.N,I2C_SCL*%
X45620000Y-77120000D03*
%TO.P,U1,10*%
%TO.N,MPU_INT*%
X45620000Y-74580000D03*
%TO.P,U1,11*%
%TO.N,SIM_DTR*%
X45620000Y-72040000D03*
%TO.P,U1,12*%
%TO.N,SIM_RST*%
X45620000Y-69500000D03*
%TO.P,U1,13*%
%TO.N,SIM_RI*%
X45620000Y-66960000D03*
%TO.P,U1,GND*%
%TO.N,GND*%
X45620000Y-61880000D03*
%TO.P,U1,RX*%
%TO.N,GPS_RX*%
X30380000Y-61880000D03*
%TO.P,U1,TX*%
%TO.N,GPS_TX*%
X30380000Y-59340000D03*
%TD*%
D16*
%TO.P,C1,1*%
%TO.N,+5V_SIM*%
X51000000Y-66000000D03*
D17*
%TO.P,C1,2*%
%TO.N,GND*%
X56000000Y-66000000D03*
%TD*%
D18*
%TO.P,U2,1*%
%TO.N,+3V3*%
X26700000Y-32220000D03*
%TO.P,U2,2*%
%TO.N,GND*%
X26700000Y-34760000D03*
%TO.P,U2,3*%
%TO.N,I2C_SCL*%
X26700000Y-37300000D03*
%TO.P,U2,4*%
%TO.N,I2C_SDA*%
X26700000Y-39840000D03*
%TO.P,U2,5*%
%TO.N,N/C*%
X26700000Y-42380000D03*
%TO.P,U2,6*%
X26700000Y-44920000D03*
%TO.P,U2,7*%
%TO.N,GND*%
X26700000Y-47460000D03*
%TO.P,U2,8*%
%TO.N,MPU_INT*%
X26700000Y-50000000D03*
%TD*%
D15*
%TO.P,U3,1*%
%TO.N,+3V3*%
X88000000Y-38690000D03*
D19*
%TO.P,U3,2*%
%TO.N,GPS_TX*%
X88000000Y-41230000D03*
%TO.P,U3,3*%
%TO.N,GPS_RX*%
X88000000Y-43770000D03*
%TO.P,U3,4*%
%TO.N,GND*%
X88000000Y-46310000D03*
%TD*%
D20*
%TO.P,J1,1*%
%TO.N,+5V*%
X33000000Y-24000000D03*
D11*
%TO.P,J1,2*%
%TO.N,GND*%
X38400000Y-24000000D03*
%TD*%
D21*
%TO.P,U4,1*%
%TO.N,SIM_RI*%
X61126400Y-64746000D03*
D22*
%TO.P,U4,2*%
%TO.N,SIM_DTR*%
X61126400Y-67286000D03*
%TO.P,U4,3*%
%TO.N,N/C*%
X61126400Y-69826000D03*
%TO.P,U4,4*%
X61126400Y-72366000D03*
%TO.P,U4,5*%
X61126400Y-74906000D03*
%TO.P,U4,6*%
X61126400Y-77446000D03*
D21*
%TO.P,U4,7*%
X83200000Y-62222000D03*
D22*
%TO.P,U4,8*%
%TO.N,+5V_SIM*%
X83200000Y-64762000D03*
%TO.P,U4,9*%
%TO.N,SIM_RST*%
X83200000Y-67302000D03*
%TO.P,U4,10*%
%TO.N,SIM_TX*%
X83200000Y-69842000D03*
%TO.P,U4,11*%
%TO.N,SIM_RX*%
X83200000Y-72382000D03*
%TO.P,U4,12*%
%TO.N,GND*%
X83200000Y-74922000D03*
%TD*%
D23*
%TO.N,GND*%
X80450000Y-60450000D03*
X40450000Y-55450000D03*
X80450000Y-25450000D03*
X90450000Y-65450000D03*
X25450000Y-60450000D03*
X60450000Y-80450000D03*
X70450000Y-50450000D03*
X65450000Y-65450000D03*
X60450000Y-30450000D03*
X85450000Y-60450000D03*
X60450000Y-55450000D03*
X40450000Y-50450000D03*
X30450000Y-55450000D03*
X76950000Y-57800000D03*
X70450000Y-25450000D03*
X85450000Y-35450000D03*
X35450000Y-45450000D03*
X70450000Y-30450000D03*
X90450000Y-30450000D03*
X25450000Y-30450000D03*
X75450000Y-75450000D03*
X40450000Y-35450000D03*
X75450000Y-35450000D03*
X25450000Y-65450000D03*
X55450000Y-75450000D03*
X85450000Y-40450000D03*
X30450000Y-35450000D03*
X90450000Y-70450000D03*
X40450000Y-25450000D03*
X85450000Y-50450000D03*
X65450000Y-80450000D03*
X85450000Y-75450000D03*
X85450000Y-25450000D03*
X31325000Y-40893000D03*
X25450000Y-55450000D03*
X30450000Y-30450000D03*
X85450000Y-65450000D03*
X35450000Y-30450000D03*
X60450000Y-25450000D03*
X70450000Y-45450000D03*
X55450000Y-35450000D03*
X55450000Y-80450000D03*
X65450000Y-35450000D03*
X25450000Y-35450000D03*
X65450000Y-25450000D03*
X34411000Y-61338000D03*
X80450000Y-50450000D03*
X35450000Y-55450000D03*
X35450000Y-35450000D03*
X85450000Y-30450000D03*
X70450000Y-55450000D03*
X35450000Y-50450000D03*
X65450000Y-50450000D03*
X30450000Y-50450000D03*
X65450000Y-30450000D03*
X55450000Y-25450000D03*
X25450000Y-80450000D03*
X60450000Y-35450000D03*
X35450000Y-25450000D03*
X55450000Y-55450000D03*
X30450000Y-25450000D03*
X55450000Y-45450000D03*
X40450000Y-45450000D03*
X70450000Y-35450000D03*
X49427000Y-70840000D03*
X90450000Y-35450000D03*
X45450000Y-25450000D03*
X85450000Y-45450000D03*
X25450000Y-75450000D03*
X85450000Y-70450000D03*
X90450000Y-50450000D03*
X47164000Y-68606000D03*
X65450000Y-55450000D03*
X30450000Y-45450000D03*
X75450000Y-65450000D03*
X50450000Y-25450000D03*
X80450000Y-30450000D03*
X80450000Y-80450000D03*
X75450000Y-80450000D03*
X40450000Y-30450000D03*
X45450000Y-30450000D03*
X70450000Y-75450000D03*
X55450000Y-50450000D03*
X45450000Y-50450000D03*
X65450000Y-45450000D03*
X80450000Y-35450000D03*
X90450000Y-60450000D03*
X85450000Y-80450000D03*
X70450000Y-65450000D03*
X90450000Y-55450000D03*
X80450000Y-65450000D03*
X45450000Y-45450000D03*
X80450000Y-55450000D03*
X80450000Y-45450000D03*
X75450000Y-25450000D03*
X60450000Y-50450000D03*
X75450000Y-30450000D03*
X50450000Y-45450000D03*
X80450000Y-75450000D03*
X50450000Y-50450000D03*
X76950000Y-60000000D03*
X65450000Y-75450000D03*
X32811000Y-61338000D03*
X60450000Y-45450000D03*
X90450000Y-80450000D03*
X48565000Y-78056000D03*
X70450000Y-80450000D03*
X85450000Y-55450000D03*
%TO.N,SIM_RX*%
X49102500Y-71733000D03*
%TO.N,SIM_TX*%
X47987200Y-70118800D03*
%TO.N,I2C_SCL*%
X48400000Y-77120000D03*
%TO.N,MPU_INT*%
X44000000Y-74100000D03*
X44000000Y-72500000D03*
%TO.N,SIM_DTR*%
X48100000Y-68771000D03*
%TD*%
%TO.N,+5V_SIM*%
D24*
X81500000Y-63750000D02*
X81500000Y-64000000D01*
X81000000Y-62500000D02*
X81000000Y-63750000D01*
X81000000Y-63750000D02*
X81500000Y-63750000D01*
X51000000Y-62500000D02*
X81000000Y-62500000D01*
X81750000Y-64000000D02*
X81750000Y-64500000D01*
X81500000Y-64000000D02*
X81750000Y-64000000D01*
X51000000Y-66000000D02*
X51000000Y-62500000D01*
X81750000Y-64500000D02*
X83250000Y-64500000D01*
X83250000Y-64500000D02*
X83200000Y-64760000D01*
%TO.N,SIM_RX*%
D25*
X83200000Y-72382000D02*
X82048300Y-72382000D01*
X50927100Y-73557600D02*
X49102500Y-71733000D01*
X82048300Y-72382000D02*
X80872700Y-73557600D01*
X80872700Y-73557600D02*
X50927100Y-73557600D01*
%TO.N,SIM_TX*%
X83200000Y-69842000D02*
X82048300Y-69842000D01*
X82048300Y-69842000D02*
X80894300Y-70996000D01*
X52924300Y-70118800D02*
X47987200Y-70118800D01*
X80894300Y-70996000D02*
X53801500Y-70996000D01*
X53801500Y-70996000D02*
X52924300Y-70118800D01*
%TO.N,I2C_SDA*%
D26*
X27800000Y-39840000D02*
X27900000Y-39840000D01*
X47400000Y-75870000D02*
X27800000Y-75870000D01*
X27800000Y-39840000D02*
X26700000Y-39840000D01*
X47400000Y-79660000D02*
X47400000Y-75870000D01*
X27800000Y-75870000D02*
X27900000Y-75870000D01*
X45620000Y-79660000D02*
X47400000Y-79660000D01*
X27900000Y-75870000D02*
X27900000Y-39840000D01*
%TO.N,I2C_SCL*%
X28400000Y-70770000D02*
X28400000Y-37300000D01*
X28400000Y-37300000D02*
X26700000Y-37300000D01*
X48400000Y-70770000D02*
X28400000Y-70770000D01*
X48400000Y-77120000D02*
X48400000Y-70770000D01*
%TO.N,MPU_INT*%
X44000000Y-74100000D02*
X44000000Y-72500000D01*
%TO.N,SIM_DTR*%
D25*
X58489700Y-68771000D02*
X48100000Y-68771000D01*
X59974700Y-67286000D02*
X58489700Y-68771000D01*
X61126400Y-67286000D02*
X59974700Y-67286000D01*
%TO.N,SIM_RST*%
X59820000Y-68556000D02*
X80794300Y-68556000D01*
X83200000Y-67302000D02*
X82048300Y-67302000D01*
X58876000Y-69500000D02*
X59820000Y-68556000D01*
X80794300Y-68556000D02*
X82048300Y-67302000D01*
X45620000Y-69500000D02*
X58876000Y-69500000D01*
%TO.N,SIM_RI*%
X59974700Y-64746000D02*
X57388300Y-67332400D01*
X45992400Y-67332400D02*
X45620000Y-66960000D01*
X45992400Y-67332400D02*
X45992400Y-67402400D01*
X57388300Y-67402400D02*
X45992400Y-67402400D01*
X61126400Y-64746000D02*
X59974700Y-64746000D01*
X57388300Y-67332400D02*
X57388300Y-67402400D01*
%TO.N,GPS_RX*%
D26*
X32000000Y-62000000D02*
X32000000Y-43750000D01*
X32000000Y-43750000D02*
X88000000Y-43770000D01*
X30380000Y-61880000D02*
X32000000Y-62000000D01*
%TD*%
%TA.AperFunction,Conductor*%
%TO.N,GND*%
G36*
X91002992Y-20500681D02*
G01*
X91295309Y-20518362D01*
X91307164Y-20519802D01*
X91592280Y-20572051D01*
X91603882Y-20574911D01*
X91880623Y-20661147D01*
X91891786Y-20665380D01*
X92152200Y-20782583D01*
X92156118Y-20784347D01*
X92166690Y-20789895D01*
X92414770Y-20939864D01*
X92424583Y-20946638D01*
X92652755Y-21125400D01*
X92661704Y-21133327D01*
X92866672Y-21338295D01*
X92874599Y-21347244D01*
X93053356Y-21575409D01*
X93060138Y-21585233D01*
X93210100Y-21833303D01*
X93215652Y-21843881D01*
X93334616Y-22108206D01*
X93338855Y-22119384D01*
X93425087Y-22396114D01*
X93427948Y-22407722D01*
X93480196Y-22692828D01*
X93481637Y-22704695D01*
X93499319Y-22997006D01*
X93499500Y-23002984D01*
X93499500Y-78997015D01*
X93499319Y-79002993D01*
X93481637Y-79295304D01*
X93480196Y-79307171D01*
X93427948Y-79592277D01*
X93425087Y-79603885D01*
X93338855Y-79880615D01*
X93334616Y-79891793D01*
X93215652Y-80156118D01*
X93210096Y-80166703D01*
X93060142Y-80414758D01*
X93053356Y-80424590D01*
X92874599Y-80652755D01*
X92866672Y-80661704D01*
X92661704Y-80866672D01*
X92652755Y-80874599D01*
X92424590Y-81053356D01*
X92414758Y-81060142D01*
X92177212Y-81203744D01*
X92166703Y-81210097D01*
X92156118Y-81215652D01*
X91891793Y-81334616D01*
X91880615Y-81338855D01*
X91603885Y-81425087D01*
X91592277Y-81427948D01*
X91307171Y-81480196D01*
X91295304Y-81481637D01*
X91023993Y-81498048D01*
X91002991Y-81499319D01*
X90997015Y-81499500D01*
X44599000Y-81499500D01*
X44540809Y-81480593D01*
X44504845Y-81431093D01*
X44500000Y-81400500D01*
X44500000Y-80465555D01*
X44518907Y-80407364D01*
X44568407Y-80371400D01*
X44629593Y-80371400D01*
X44679091Y-80407362D01*
X44704310Y-80442073D01*
X44837927Y-80575690D01*
X44990801Y-80686760D01*
X45159168Y-80772547D01*
X45338882Y-80830940D01*
X45338883Y-80830940D01*
X45338886Y-80830941D01*
X45525516Y-80860500D01*
X45525519Y-80860500D01*
X45714484Y-80860500D01*
X45901113Y-80830941D01*
X45901114Y-80830940D01*
X45901118Y-80830940D01*
X46080832Y-80772547D01*
X46249199Y-80686760D01*
X46402073Y-80575690D01*
X46535690Y-80442073D01*
X46646760Y-80289199D01*
X46723007Y-80139554D01*
X46766272Y-80096290D01*
X46811217Y-80085500D01*
X47456016Y-80085500D01*
X47456018Y-80085500D01*
X47564237Y-80056503D01*
X47564239Y-80056501D01*
X47564241Y-80056501D01*
X47593064Y-80039859D01*
X47661263Y-80000485D01*
X47740485Y-79921263D01*
X47796503Y-79824237D01*
X47825500Y-79716018D01*
X47825500Y-77633743D01*
X47844407Y-77575552D01*
X47893907Y-77539588D01*
X47955093Y-77539588D01*
X47994501Y-77563737D01*
X48031284Y-77600520D01*
X48168216Y-77679577D01*
X48320943Y-77720500D01*
X48320945Y-77720500D01*
X48479055Y-77720500D01*
X48479057Y-77720500D01*
X48631784Y-77679577D01*
X48676000Y-77654048D01*
X48735848Y-77641327D01*
X48791744Y-77666213D01*
X48822337Y-77719201D01*
X48824500Y-77739785D01*
X48824500Y-79668106D01*
X48835123Y-79756565D01*
X48890637Y-79897339D01*
X48890638Y-79897341D01*
X48890639Y-79897342D01*
X48982078Y-80017922D01*
X49102658Y-80109361D01*
X49102659Y-80109361D01*
X49102660Y-80109362D01*
X49131746Y-80120832D01*
X49243436Y-80164877D01*
X49331898Y-80175500D01*
X49331900Y-80175500D01*
X51668100Y-80175500D01*
X51668102Y-80175500D01*
X51756564Y-80164877D01*
X51897342Y-80109361D01*
X52017922Y-80017922D01*
X52109361Y-79897342D01*
X52164877Y-79756564D01*
X52175500Y-79668102D01*
X52175500Y-78377105D01*
X54025000Y-78377105D01*
X54025000Y-78622894D01*
X54057081Y-78866571D01*
X54057081Y-78866576D01*
X54120695Y-79103984D01*
X54120699Y-79103997D01*
X54214753Y-79331067D01*
X54214755Y-79331072D01*
X54337647Y-79543926D01*
X54409229Y-79637215D01*
X55127545Y-78918898D01*
X55220343Y-79057780D01*
X55342220Y-79179657D01*
X55481099Y-79272452D01*
X54762783Y-79990769D01*
X54856073Y-80062352D01*
X55068927Y-80185244D01*
X55068932Y-80185246D01*
X55296002Y-80279300D01*
X55296015Y-80279304D01*
X55533425Y-80342918D01*
X55777105Y-80374999D01*
X55777107Y-80375000D01*
X56022893Y-80375000D01*
X56022894Y-80374999D01*
X56266571Y-80342918D01*
X56266576Y-80342918D01*
X56503984Y-80279304D01*
X56503997Y-80279300D01*
X56731067Y-80185246D01*
X56731072Y-80185244D01*
X56943922Y-80062355D01*
X57037215Y-79990769D01*
X56318899Y-79272453D01*
X56457780Y-79179657D01*
X56579657Y-79057780D01*
X56672453Y-78918899D01*
X57390769Y-79637215D01*
X57462355Y-79543922D01*
X57585244Y-79331072D01*
X57585246Y-79331067D01*
X57679300Y-79103997D01*
X57679304Y-79103984D01*
X57742918Y-78866576D01*
X57742918Y-78866571D01*
X57774999Y-78622894D01*
X57775000Y-78622893D01*
X57775000Y-78377107D01*
X57774999Y-78377105D01*
X57742918Y-78133428D01*
X57742918Y-78133423D01*
X57679304Y-77896015D01*
X57679300Y-77896002D01*
X57585246Y-77668932D01*
X57585244Y-77668927D01*
X57462352Y-77456073D01*
X57428408Y-77411834D01*
X57428405Y-77411832D01*
X57390769Y-77362784D01*
X56672453Y-78081099D01*
X56579657Y-77942220D01*
X56457780Y-77820343D01*
X56318898Y-77727545D01*
X56690994Y-77355450D01*
X59975900Y-77355450D01*
X59975900Y-77536549D01*
X60004228Y-77715406D01*
X60060188Y-77887637D01*
X60132874Y-78030292D01*
X60142404Y-78048994D01*
X60248847Y-78195501D01*
X60376899Y-78323553D01*
X60523406Y-78429996D01*
X60684761Y-78512211D01*
X60856991Y-78568171D01*
X60928536Y-78579502D01*
X61035851Y-78596500D01*
X61035854Y-78596500D01*
X61216949Y-78596500D01*
X61306377Y-78582335D01*
X61395809Y-78568171D01*
X61568039Y-78512211D01*
X61729394Y-78429996D01*
X61875901Y-78323553D01*
X61991875Y-78207579D01*
X81599500Y-78207579D01*
X81599500Y-78404420D01*
X81630289Y-78598821D01*
X81691116Y-78786025D01*
X81773950Y-78948598D01*
X81780476Y-78961405D01*
X81896172Y-79120646D01*
X82035354Y-79259828D01*
X82194595Y-79375524D01*
X82369975Y-79464884D01*
X82557174Y-79525709D01*
X82557175Y-79525709D01*
X82557178Y-79525710D01*
X82751580Y-79556500D01*
X82751583Y-79556500D01*
X82948420Y-79556500D01*
X83142821Y-79525710D01*
X83142822Y-79525709D01*
X83142826Y-79525709D01*
X83330025Y-79464884D01*
X83505405Y-79375524D01*
X83664646Y-79259828D01*
X83803828Y-79120646D01*
X83919524Y-78961405D01*
X84008884Y-78786025D01*
X84069709Y-78598826D01*
X84069710Y-78598821D01*
X84100500Y-78404420D01*
X84100500Y-78207579D01*
X84069710Y-78013178D01*
X84069709Y-78013174D01*
X84008884Y-77825975D01*
X83919524Y-77650595D01*
X83803828Y-77491354D01*
X83664646Y-77352172D01*
X83505405Y-77236476D01*
X83505404Y-77236475D01*
X83505402Y-77236474D01*
X83330025Y-77147116D01*
X83142821Y-77086289D01*
X82948420Y-77055500D01*
X82948417Y-77055500D01*
X82751583Y-77055500D01*
X82751580Y-77055500D01*
X82557178Y-77086289D01*
X82369974Y-77147116D01*
X82194597Y-77236474D01*
X82035355Y-77352171D01*
X81896171Y-77491355D01*
X81780474Y-77650597D01*
X81691116Y-77825974D01*
X81630289Y-78013178D01*
X81599500Y-78207579D01*
X61991875Y-78207579D01*
X62003953Y-78195501D01*
X62110396Y-78048994D01*
X62192611Y-77887639D01*
X62248571Y-77715409D01*
X62275603Y-77544736D01*
X62276900Y-77536549D01*
X62276900Y-77355450D01*
X62248571Y-77176593D01*
X62248571Y-77176591D01*
X62192611Y-77004361D01*
X62161809Y-76943909D01*
X62149839Y-76920416D01*
X62149838Y-76920414D01*
X62128589Y-76878710D01*
X88149500Y-76878710D01*
X88149500Y-77121289D01*
X88165581Y-77243434D01*
X88180327Y-77355450D01*
X88181161Y-77361781D01*
X88181161Y-77361786D01*
X88243944Y-77596092D01*
X88243948Y-77596105D01*
X88336772Y-77820204D01*
X88336774Y-77820208D01*
X88336776Y-77820212D01*
X88448183Y-78013174D01*
X88458066Y-78030292D01*
X88605729Y-78222731D01*
X88605731Y-78222733D01*
X88605735Y-78222738D01*
X88777262Y-78394265D01*
X88777266Y-78394268D01*
X88777268Y-78394270D01*
X88969707Y-78541933D01*
X88969711Y-78541936D01*
X89179788Y-78663224D01*
X89403900Y-78756054D01*
X89638211Y-78818838D01*
X89878712Y-78850500D01*
X89878713Y-78850500D01*
X90121287Y-78850500D01*
X90121288Y-78850500D01*
X90361789Y-78818838D01*
X90596100Y-78756054D01*
X90820212Y-78663224D01*
X91030289Y-78541936D01*
X91222738Y-78394265D01*
X91394265Y-78222738D01*
X91541936Y-78030289D01*
X91663224Y-77820212D01*
X91756054Y-77596100D01*
X91818838Y-77361789D01*
X91850500Y-77121288D01*
X91850500Y-76878712D01*
X91818838Y-76638211D01*
X91756054Y-76403900D01*
X91678391Y-76216406D01*
X91663227Y-76179795D01*
X91663226Y-76179794D01*
X91663224Y-76179788D01*
X91541936Y-75969711D01*
X91508408Y-75926016D01*
X91394270Y-75777268D01*
X91394268Y-75777266D01*
X91394265Y-75777262D01*
X91222738Y-75605735D01*
X91222733Y-75605731D01*
X91222731Y-75605729D01*
X91030292Y-75458066D01*
X91006795Y-75444500D01*
X90820212Y-75336776D01*
X90820208Y-75336774D01*
X90820204Y-75336772D01*
X90596105Y-75243948D01*
X90596104Y-75243947D01*
X90596100Y-75243946D01*
X90361789Y-75181162D01*
X90361786Y-75181161D01*
X90361784Y-75181161D01*
X90121289Y-75149500D01*
X90121288Y-75149500D01*
X89878712Y-75149500D01*
X89878710Y-75149500D01*
X89638218Y-75181161D01*
X89638213Y-75181161D01*
X89403907Y-75243944D01*
X89403894Y-75243948D01*
X89179795Y-75336772D01*
X88969707Y-75458066D01*
X88777268Y-75605729D01*
X88605729Y-75777268D01*
X88458066Y-75969707D01*
X88336772Y-76179795D01*
X88243948Y-76403894D01*
X88243944Y-76403907D01*
X88181161Y-76638213D01*
X88181161Y-76638218D01*
X88149500Y-76878710D01*
X62128589Y-76878710D01*
X62110399Y-76843011D01*
X62110398Y-76843009D01*
X62110396Y-76843006D01*
X62003953Y-76696499D01*
X61875901Y-76568447D01*
X61729394Y-76462004D01*
X61729393Y-76462003D01*
X61729391Y-76462002D01*
X61568037Y-76379788D01*
X61395806Y-76323828D01*
X61216949Y-76295500D01*
X61216946Y-76295500D01*
X61035854Y-76295500D01*
X61035851Y-76295500D01*
X60856993Y-76323828D01*
X60684762Y-76379788D01*
X60523408Y-76462002D01*
X60483770Y-76490801D01*
X60376899Y-76568447D01*
X60248847Y-76696499D01*
X60209046Y-76751281D01*
X60142402Y-76843008D01*
X60060188Y-77004362D01*
X60004228Y-77176593D01*
X59975900Y-77355450D01*
X56690994Y-77355450D01*
X57037215Y-77009229D01*
X56943926Y-76937647D01*
X56731072Y-76814755D01*
X56731067Y-76814753D01*
X56503997Y-76720699D01*
X56503984Y-76720695D01*
X56266574Y-76657081D01*
X56022894Y-76625000D01*
X55777105Y-76625000D01*
X55533428Y-76657081D01*
X55533423Y-76657081D01*
X55296015Y-76720695D01*
X55296002Y-76720699D01*
X55068932Y-76814753D01*
X55068927Y-76814755D01*
X54856078Y-76937644D01*
X54762783Y-77009229D01*
X55481100Y-77727546D01*
X55342220Y-77820343D01*
X55220343Y-77942220D01*
X55127546Y-78081100D01*
X54409229Y-77362783D01*
X54337644Y-77456078D01*
X54214755Y-77668927D01*
X54214753Y-77668932D01*
X54120699Y-77896002D01*
X54120695Y-77896015D01*
X54057081Y-78133423D01*
X54057081Y-78133428D01*
X54025000Y-78377105D01*
X52175500Y-78377105D01*
X52175500Y-77331898D01*
X52164877Y-77243436D01*
X52116708Y-77121288D01*
X52109362Y-77102660D01*
X52109361Y-77102659D01*
X52109361Y-77102658D01*
X52017922Y-76982078D01*
X51897342Y-76890639D01*
X51897341Y-76890638D01*
X51897339Y-76890637D01*
X51756565Y-76835123D01*
X51668106Y-76824500D01*
X51668102Y-76824500D01*
X49331898Y-76824500D01*
X49331893Y-76824500D01*
X49243434Y-76835123D01*
X49102656Y-76890639D01*
X49093548Y-76897546D01*
X49035756Y-76917638D01*
X48977191Y-76899924D01*
X48947999Y-76868162D01*
X48880520Y-76751284D01*
X48880517Y-76751281D01*
X48854495Y-76725258D01*
X48826719Y-76670741D01*
X48825500Y-76655256D01*
X48825500Y-72409480D01*
X48844407Y-72351289D01*
X48893907Y-72315325D01*
X48950119Y-72313853D01*
X49023443Y-72333500D01*
X49095599Y-72333500D01*
X49153790Y-72352407D01*
X49165603Y-72362496D01*
X50681187Y-73878080D01*
X50681189Y-73878081D01*
X50681190Y-73878082D01*
X50681191Y-73878083D01*
X50772508Y-73930805D01*
X50772506Y-73930805D01*
X50772510Y-73930806D01*
X50772512Y-73930807D01*
X50874373Y-73958100D01*
X60208239Y-73958100D01*
X60266430Y-73977007D01*
X60302394Y-74026507D01*
X60302394Y-74087693D01*
X60278244Y-74127101D01*
X60248847Y-74156499D01*
X60232458Y-74179057D01*
X60142402Y-74303008D01*
X60060188Y-74464362D01*
X60004228Y-74636593D01*
X59975900Y-74815450D01*
X59975900Y-74996549D01*
X60004228Y-75175406D01*
X60060188Y-75347637D01*
X60124317Y-75473498D01*
X60142404Y-75508994D01*
X60248847Y-75655501D01*
X60376899Y-75783553D01*
X60523406Y-75889996D01*
X60684761Y-75972211D01*
X60856991Y-76028171D01*
X60928536Y-76039502D01*
X61035851Y-76056500D01*
X61035854Y-76056500D01*
X61216949Y-76056500D01*
X61306377Y-76042335D01*
X61395809Y-76028171D01*
X61568039Y-75972211D01*
X61729394Y-75889996D01*
X61875901Y-75783553D01*
X62003953Y-75655501D01*
X62110396Y-75508994D01*
X62192611Y-75347639D01*
X62248571Y-75175409D01*
X62276900Y-74996546D01*
X62276900Y-74815454D01*
X62276900Y-74815450D01*
X62254179Y-74671999D01*
X62248571Y-74636591D01*
X62192611Y-74464361D01*
X62110396Y-74303006D01*
X62003953Y-74156499D01*
X61974555Y-74127101D01*
X61946780Y-74072587D01*
X61956351Y-74012155D01*
X61999616Y-73968890D01*
X62044561Y-73958100D01*
X80925425Y-73958100D01*
X80925427Y-73958100D01*
X81027288Y-73930807D01*
X81027290Y-73930805D01*
X81027292Y-73930805D01*
X81118608Y-73878083D01*
X81118608Y-73878082D01*
X81118613Y-73878080D01*
X82050692Y-72945999D01*
X82105207Y-72918224D01*
X82165639Y-72927795D01*
X82208903Y-72971059D01*
X82216000Y-72984988D01*
X82216001Y-72984990D01*
X82216002Y-72984991D01*
X82216004Y-72984994D01*
X82322447Y-73131501D01*
X82450499Y-73259553D01*
X82597006Y-73365996D01*
X82758361Y-73448211D01*
X82769483Y-73451824D01*
X82772983Y-73452962D01*
X82822483Y-73488926D01*
X82841391Y-73547116D01*
X82822484Y-73605307D01*
X82772985Y-73641271D01*
X82772984Y-73641272D01*
X82681784Y-73670904D01*
X82492447Y-73767375D01*
X82320535Y-73892277D01*
X82170277Y-74042535D01*
X82045375Y-74214447D01*
X81948904Y-74403784D01*
X81883241Y-74605877D01*
X81872768Y-74671999D01*
X81872769Y-74672000D01*
X82766988Y-74672000D01*
X82734075Y-74729007D01*
X82700000Y-74856174D01*
X82700000Y-74987826D01*
X82734075Y-75114993D01*
X82766988Y-75172000D01*
X81872769Y-75172000D01*
X81883241Y-75238122D01*
X81948904Y-75440215D01*
X82045375Y-75629552D01*
X82170277Y-75801464D01*
X82320535Y-75951722D01*
X82492447Y-76076624D01*
X82681784Y-76173095D01*
X82883877Y-76238758D01*
X82949999Y-76249231D01*
X82950000Y-76249230D01*
X82950000Y-75355012D01*
X83007007Y-75387925D01*
X83134174Y-75422000D01*
X83265826Y-75422000D01*
X83392993Y-75387925D01*
X83450000Y-75355012D01*
X83450000Y-76249231D01*
X83516122Y-76238758D01*
X83718215Y-76173095D01*
X83907552Y-76076624D01*
X84079464Y-75951722D01*
X84229722Y-75801464D01*
X84354624Y-75629552D01*
X84451095Y-75440215D01*
X84516758Y-75238122D01*
X84527231Y-75172000D01*
X83633012Y-75172000D01*
X83665925Y-75114993D01*
X83700000Y-74987826D01*
X83700000Y-74856174D01*
X83665925Y-74729007D01*
X83633012Y-74672000D01*
X84527231Y-74672000D01*
X84527231Y-74671999D01*
X84516758Y-74605877D01*
X84451095Y-74403784D01*
X84354624Y-74214447D01*
X84229722Y-74042535D01*
X84079464Y-73892277D01*
X83907552Y-73767375D01*
X83718215Y-73670904D01*
X83627015Y-73641272D01*
X83577515Y-73605308D01*
X83558608Y-73547117D01*
X83577515Y-73488926D01*
X83627013Y-73452962D01*
X83627017Y-73452962D01*
X83627018Y-73452962D01*
X83641633Y-73448213D01*
X83641633Y-73448212D01*
X83641639Y-73448211D01*
X83802994Y-73365996D01*
X83949501Y-73259553D01*
X84077553Y-73131501D01*
X84183996Y-72984994D01*
X84266211Y-72823639D01*
X84322171Y-72651409D01*
X84350500Y-72472546D01*
X84350500Y-72291454D01*
X84350500Y-72291450D01*
X84325638Y-72134481D01*
X84322171Y-72112591D01*
X84266211Y-71940361D01*
X84183996Y-71779006D01*
X84077553Y-71632499D01*
X83949501Y-71504447D01*
X83802994Y-71398004D01*
X83802993Y-71398003D01*
X83802991Y-71398002D01*
X83641637Y-71315788D01*
X83469406Y-71259828D01*
X83290549Y-71231500D01*
X83290546Y-71231500D01*
X83109454Y-71231500D01*
X83109451Y-71231500D01*
X82930593Y-71259828D01*
X82758362Y-71315788D01*
X82597008Y-71398002D01*
X82524675Y-71450555D01*
X82450499Y-71504447D01*
X82322447Y-71632499D01*
X82269225Y-71705752D01*
X82216002Y-71779008D01*
X82177129Y-71855301D01*
X82140369Y-71927446D01*
X82097106Y-71970710D01*
X82052161Y-71981500D01*
X81995573Y-71981500D01*
X81977803Y-71986261D01*
X81893712Y-72008792D01*
X81892292Y-72009613D01*
X81892291Y-72009612D01*
X81802389Y-72061518D01*
X80735803Y-73128104D01*
X80681286Y-73155881D01*
X80665799Y-73157100D01*
X62168027Y-73157100D01*
X62109836Y-73138193D01*
X62073872Y-73088693D01*
X62073872Y-73027507D01*
X62087933Y-72999911D01*
X62110396Y-72968994D01*
X62192611Y-72807639D01*
X62248571Y-72635409D01*
X62269886Y-72500832D01*
X62276900Y-72456549D01*
X62276900Y-72275450D01*
X62248571Y-72096593D01*
X62248571Y-72096591D01*
X62192611Y-71924361D01*
X62110396Y-71763006D01*
X62003953Y-71616499D01*
X61952955Y-71565501D01*
X61925180Y-71510987D01*
X61934751Y-71450555D01*
X61978016Y-71407290D01*
X62022961Y-71396500D01*
X80947025Y-71396500D01*
X80947027Y-71396500D01*
X81048888Y-71369207D01*
X81048890Y-71369205D01*
X81048892Y-71369205D01*
X81140208Y-71316483D01*
X81140208Y-71316482D01*
X81140213Y-71316480D01*
X82050692Y-70405999D01*
X82105207Y-70378224D01*
X82165639Y-70387795D01*
X82208903Y-70431059D01*
X82216000Y-70444988D01*
X82216001Y-70444990D01*
X82216002Y-70444991D01*
X82216004Y-70444994D01*
X82322447Y-70591501D01*
X82450499Y-70719553D01*
X82597006Y-70825996D01*
X82758361Y-70908211D01*
X82930591Y-70964171D01*
X83002136Y-70975502D01*
X83109451Y-70992500D01*
X83109454Y-70992500D01*
X83290549Y-70992500D01*
X83379977Y-70978335D01*
X83469409Y-70964171D01*
X83641639Y-70908211D01*
X83802994Y-70825996D01*
X83949501Y-70719553D01*
X84077553Y-70591501D01*
X84183996Y-70444994D01*
X84266211Y-70283639D01*
X84322171Y-70111409D01*
X84346020Y-69960832D01*
X84350500Y-69932549D01*
X84350500Y-69751450D01*
X84322171Y-69572593D01*
X84322171Y-69572591D01*
X84266211Y-69400361D01*
X84183996Y-69239006D01*
X84077553Y-69092499D01*
X83949501Y-68964447D01*
X83802994Y-68858004D01*
X83802993Y-68858003D01*
X83802991Y-68858002D01*
X83641637Y-68775788D01*
X83469406Y-68719828D01*
X83290549Y-68691500D01*
X83290546Y-68691500D01*
X83109454Y-68691500D01*
X83109451Y-68691500D01*
X82930593Y-68719828D01*
X82758362Y-68775788D01*
X82597008Y-68858002D01*
X82523752Y-68911225D01*
X82450499Y-68964447D01*
X82322447Y-69092499D01*
X82269225Y-69165752D01*
X82216002Y-69239008D01*
X82177129Y-69315301D01*
X82140369Y-69387446D01*
X82097106Y-69430710D01*
X82052161Y-69441500D01*
X81995573Y-69441500D01*
X81893713Y-69468793D01*
X81807964Y-69518300D01*
X81807962Y-69518300D01*
X81802386Y-69521520D01*
X80757403Y-70566504D01*
X80702886Y-70594281D01*
X80687399Y-70595500D01*
X62183721Y-70595500D01*
X62125530Y-70576593D01*
X62089566Y-70527093D01*
X62089566Y-70465907D01*
X62103628Y-70438310D01*
X62105969Y-70435086D01*
X62110396Y-70428994D01*
X62192611Y-70267639D01*
X62248571Y-70095409D01*
X62270880Y-69954555D01*
X62276900Y-69916549D01*
X62276900Y-69735450D01*
X62248571Y-69556593D01*
X62248571Y-69556591D01*
X62192611Y-69384361D01*
X62110396Y-69223006D01*
X62030973Y-69113689D01*
X62012066Y-69055500D01*
X62030973Y-68997310D01*
X62080473Y-68961346D01*
X62111066Y-68956500D01*
X80847025Y-68956500D01*
X80847027Y-68956500D01*
X80948888Y-68929207D01*
X80948890Y-68929205D01*
X80948892Y-68929205D01*
X81040208Y-68876483D01*
X81040208Y-68876482D01*
X81040213Y-68876480D01*
X82050692Y-67865999D01*
X82105207Y-67838224D01*
X82165639Y-67847795D01*
X82208903Y-67891059D01*
X82216000Y-67904988D01*
X82216001Y-67904990D01*
X82216002Y-67904991D01*
X82216004Y-67904994D01*
X82322447Y-68051501D01*
X82450499Y-68179553D01*
X82597006Y-68285996D01*
X82758361Y-68368211D01*
X82930591Y-68424171D01*
X83002136Y-68435502D01*
X83109451Y-68452500D01*
X83109454Y-68452500D01*
X83290549Y-68452500D01*
X83379977Y-68438335D01*
X83469409Y-68424171D01*
X83641639Y-68368211D01*
X83802994Y-68285996D01*
X83949501Y-68179553D01*
X84077553Y-68051501D01*
X84183996Y-67904994D01*
X84266211Y-67743639D01*
X84322171Y-67571409D01*
X84350500Y-67392546D01*
X84350500Y-67211454D01*
X84350500Y-67211450D01*
X84322171Y-67032593D01*
X84322171Y-67032591D01*
X84266211Y-66860361D01*
X84183996Y-66699006D01*
X84077553Y-66552499D01*
X83949501Y-66424447D01*
X83802994Y-66318004D01*
X83802993Y-66318003D01*
X83802991Y-66318002D01*
X83641637Y-66235788D01*
X83469406Y-66179828D01*
X83290549Y-66151500D01*
X83290546Y-66151500D01*
X83109454Y-66151500D01*
X83109451Y-66151500D01*
X82930593Y-66179828D01*
X82758362Y-66235788D01*
X82597008Y-66318002D01*
X82551244Y-66351252D01*
X82450499Y-66424447D01*
X82322447Y-66552499D01*
X82314604Y-66563294D01*
X82216002Y-66699008D01*
X82177129Y-66775301D01*
X82140369Y-66847446D01*
X82097106Y-66890710D01*
X82052161Y-66901500D01*
X81995573Y-66901500D01*
X81933229Y-66918204D01*
X81893707Y-66928794D01*
X81802391Y-66981516D01*
X80657403Y-68126504D01*
X80602886Y-68154281D01*
X80587399Y-68155500D01*
X62111066Y-68155500D01*
X62052875Y-68136593D01*
X62016911Y-68087093D01*
X62016911Y-68025907D01*
X62030974Y-67998309D01*
X62098774Y-67904991D01*
X62110396Y-67888994D01*
X62192611Y-67727639D01*
X62248571Y-67555409D01*
X62269886Y-67420832D01*
X62276900Y-67376549D01*
X62276900Y-67195450D01*
X62248571Y-67016593D01*
X62248571Y-67016591D01*
X62192611Y-66844361D01*
X62110396Y-66683006D01*
X62003953Y-66536499D01*
X61875901Y-66408447D01*
X61729394Y-66302004D01*
X61729393Y-66302003D01*
X61729391Y-66302002D01*
X61568037Y-66219788D01*
X61395806Y-66163828D01*
X61216949Y-66135500D01*
X61216946Y-66135500D01*
X61035854Y-66135500D01*
X61035851Y-66135500D01*
X60856993Y-66163828D01*
X60684762Y-66219788D01*
X60523408Y-66302002D01*
X60483770Y-66330801D01*
X60376899Y-66408447D01*
X60248847Y-66536499D01*
X60220296Y-66575796D01*
X60142402Y-66683008D01*
X60103529Y-66759301D01*
X60066769Y-66831446D01*
X60023506Y-66874710D01*
X59978561Y-66885500D01*
X59921973Y-66885500D01*
X59862259Y-66901500D01*
X59820107Y-66912794D01*
X59728791Y-66965516D01*
X58352803Y-68341504D01*
X58298286Y-68369281D01*
X58282799Y-68370500D01*
X48589744Y-68370500D01*
X48531553Y-68351593D01*
X48519741Y-68341504D01*
X48468718Y-68290482D01*
X48468716Y-68290480D01*
X48331784Y-68211423D01*
X48179057Y-68170500D01*
X48020943Y-68170500D01*
X47868216Y-68211423D01*
X47731284Y-68290480D01*
X47619480Y-68402284D01*
X47540423Y-68539216D01*
X47499500Y-68691943D01*
X47499500Y-68850057D01*
X47532945Y-68974879D01*
X47529743Y-69035978D01*
X47491238Y-69083528D01*
X47437319Y-69099500D01*
X46823687Y-69099500D01*
X46765496Y-69080593D01*
X46735213Y-69042175D01*
X46734313Y-69042634D01*
X46646761Y-68870803D01*
X46637462Y-68858004D01*
X46535690Y-68717927D01*
X46402073Y-68584310D01*
X46249199Y-68473240D01*
X46249198Y-68473239D01*
X46249196Y-68473238D01*
X46080832Y-68387453D01*
X45901113Y-68329058D01*
X45893046Y-68327781D01*
X45838529Y-68300004D01*
X45810751Y-68245488D01*
X45820322Y-68185056D01*
X45863586Y-68141791D01*
X45893046Y-68132219D01*
X45901113Y-68130941D01*
X45901114Y-68130940D01*
X45901118Y-68130940D01*
X46080832Y-68072547D01*
X46249199Y-67986760D01*
X46402073Y-67875690D01*
X46429968Y-67847795D01*
X46445868Y-67831896D01*
X46500385Y-67804119D01*
X46515871Y-67802900D01*
X57441025Y-67802900D01*
X57441027Y-67802900D01*
X57542887Y-67775607D01*
X57634213Y-67722880D01*
X57708780Y-67648313D01*
X57761507Y-67556987D01*
X57766133Y-67539718D01*
X57791755Y-67495336D01*
X59806898Y-65480193D01*
X59861413Y-65452418D01*
X59921845Y-65461989D01*
X59965110Y-65505254D01*
X59975900Y-65550198D01*
X59975900Y-65640859D01*
X59975901Y-65640864D01*
X59978814Y-65665990D01*
X60004156Y-65723385D01*
X60024194Y-65768765D01*
X60103635Y-65848206D01*
X60206409Y-65893585D01*
X60231535Y-65896500D01*
X62021264Y-65896499D01*
X62046391Y-65893585D01*
X62149165Y-65848206D01*
X62228606Y-65768765D01*
X62273985Y-65665991D01*
X62276900Y-65640865D01*
X62276899Y-63851136D01*
X62273985Y-63826009D01*
X62228606Y-63723235D01*
X62224872Y-63719501D01*
X62197097Y-63664987D01*
X62206668Y-63604555D01*
X62249933Y-63561290D01*
X62294878Y-63550500D01*
X79850500Y-63550500D01*
X79908691Y-63569407D01*
X79944655Y-63618907D01*
X79949500Y-63649500D01*
X79949500Y-63853467D01*
X79989869Y-64056418D01*
X80069058Y-64247597D01*
X80177713Y-64410212D01*
X80184023Y-64419655D01*
X80330345Y-64565977D01*
X80502402Y-64680941D01*
X80589658Y-64717084D01*
X80688426Y-64757995D01*
X80734951Y-64797732D01*
X80742004Y-64811573D01*
X80819058Y-64997597D01*
X80908123Y-65130893D01*
X80934023Y-65169655D01*
X81080345Y-65315977D01*
X81252402Y-65430941D01*
X81443580Y-65510130D01*
X81646535Y-65550500D01*
X82320438Y-65550500D01*
X82378629Y-65569407D01*
X82390441Y-65579496D01*
X82430942Y-65619996D01*
X82450499Y-65639553D01*
X82597006Y-65745996D01*
X82758361Y-65828211D01*
X82930591Y-65884171D01*
X82990029Y-65893585D01*
X83109451Y-65912500D01*
X83109454Y-65912500D01*
X83290549Y-65912500D01*
X83391566Y-65896500D01*
X83469409Y-65884171D01*
X83641639Y-65828211D01*
X83802994Y-65745996D01*
X83949501Y-65639553D01*
X84077553Y-65511501D01*
X84183996Y-65364994D01*
X84266211Y-65203639D01*
X84322171Y-65031409D01*
X84346020Y-64880832D01*
X84350500Y-64852549D01*
X84350500Y-64671450D01*
X84322171Y-64492593D01*
X84322171Y-64492591D01*
X84305345Y-64440804D01*
X84300500Y-64410212D01*
X84300500Y-64396545D01*
X84300500Y-64396535D01*
X84300498Y-64396525D01*
X84300267Y-64394184D01*
X84300260Y-64394043D01*
X84300188Y-64393358D01*
X84300118Y-64392671D01*
X84300083Y-64392315D01*
X84300070Y-64392231D01*
X84299821Y-64389863D01*
X84299821Y-64389854D01*
X84279719Y-64292054D01*
X84279594Y-64291436D01*
X84260130Y-64193580D01*
X84260125Y-64193568D01*
X84259437Y-64191299D01*
X84259411Y-64191195D01*
X84259273Y-64190751D01*
X84259080Y-64190122D01*
X84258901Y-64189534D01*
X84258861Y-64189423D01*
X84258159Y-64187159D01*
X84219265Y-64094925D01*
X84180941Y-64002402D01*
X84180936Y-64002394D01*
X84179817Y-64000299D01*
X84179775Y-64000212D01*
X84179521Y-63999743D01*
X84179204Y-63999153D01*
X84178954Y-63998686D01*
X84178893Y-63998584D01*
X84177760Y-63996497D01*
X84177757Y-63996490D01*
X84121725Y-63913776D01*
X84121418Y-63913319D01*
X84081426Y-63853467D01*
X84065977Y-63830345D01*
X84064465Y-63828503D01*
X84064393Y-63828406D01*
X84064009Y-63827944D01*
X84063606Y-63827456D01*
X84063306Y-63827091D01*
X84063238Y-63827016D01*
X84061703Y-63825169D01*
X83990723Y-63755087D01*
X83990277Y-63754644D01*
X83919662Y-63684030D01*
X83919655Y-63684023D01*
X83919646Y-63684017D01*
X83917788Y-63682492D01*
X83917694Y-63682407D01*
X83917324Y-63682107D01*
X83916870Y-63681736D01*
X83916440Y-63681383D01*
X83916325Y-63681299D01*
X83914450Y-63679780D01*
X83831173Y-63624898D01*
X83830651Y-63624551D01*
X83747602Y-63569061D01*
X83745499Y-63567937D01*
X83745373Y-63567862D01*
X83744674Y-63567494D01*
X83744213Y-63567250D01*
X83743872Y-63567068D01*
X83743804Y-63567036D01*
X83741673Y-63565914D01*
X83735005Y-63563202D01*
X83688228Y-63523762D01*
X83673567Y-63464359D01*
X83696622Y-63407683D01*
X83748587Y-63375383D01*
X83772309Y-63372499D01*
X84094861Y-63372499D01*
X84094864Y-63372499D01*
X84119991Y-63369585D01*
X84222765Y-63324206D01*
X84302206Y-63244765D01*
X84347585Y-63141991D01*
X84350500Y-63116865D01*
X84350499Y-61327136D01*
X84347585Y-61302009D01*
X84302206Y-61199235D01*
X84222765Y-61119794D01*
X84119991Y-61074415D01*
X84119990Y-61074414D01*
X84119988Y-61074414D01*
X84094868Y-61071500D01*
X82305139Y-61071500D01*
X82305136Y-61071501D01*
X82280009Y-61074414D01*
X82177235Y-61119794D01*
X82097794Y-61199235D01*
X82052414Y-61302011D01*
X82049500Y-61327130D01*
X82049500Y-61853477D01*
X82030593Y-61911668D01*
X81981093Y-61947632D01*
X81919907Y-61947632D01*
X81870407Y-61911668D01*
X81868185Y-61908479D01*
X81815980Y-61830349D01*
X81815979Y-61830348D01*
X81815977Y-61830345D01*
X81669655Y-61684023D01*
X81497598Y-61569059D01*
X81497599Y-61569059D01*
X81497597Y-61569058D01*
X81306418Y-61489869D01*
X81103467Y-61449500D01*
X81103465Y-61449500D01*
X51103465Y-61449500D01*
X50896535Y-61449500D01*
X50896532Y-61449500D01*
X50693581Y-61489869D01*
X50502402Y-61569058D01*
X50330348Y-61684020D01*
X50184020Y-61830348D01*
X50069058Y-62002402D01*
X49989869Y-62193581D01*
X49949500Y-62396532D01*
X49949500Y-64737819D01*
X49930593Y-64796010D01*
X49910320Y-64816702D01*
X49857079Y-64857075D01*
X49765640Y-64977656D01*
X49765637Y-64977660D01*
X49710123Y-65118434D01*
X49699500Y-65206893D01*
X49699500Y-66793106D01*
X49710880Y-66887866D01*
X49708753Y-66888121D01*
X49705308Y-66939701D01*
X49666125Y-66986693D01*
X49613402Y-67001900D01*
X46919500Y-67001900D01*
X46861309Y-66982993D01*
X46825345Y-66933493D01*
X46820500Y-66902900D01*
X46820500Y-66865515D01*
X46790941Y-66678886D01*
X46757444Y-66575793D01*
X46732547Y-66499168D01*
X46646760Y-66330801D01*
X46535690Y-66177927D01*
X46402073Y-66044310D01*
X46249199Y-65933240D01*
X46249198Y-65933239D01*
X46249196Y-65933238D01*
X46080832Y-65847453D01*
X45901113Y-65789058D01*
X45893046Y-65787781D01*
X45838529Y-65760004D01*
X45810751Y-65705488D01*
X45820322Y-65645056D01*
X45863586Y-65601791D01*
X45893046Y-65592219D01*
X45901113Y-65590941D01*
X45901114Y-65590940D01*
X45901118Y-65590940D01*
X46080832Y-65532547D01*
X46249199Y-65446760D01*
X46402073Y-65335690D01*
X46535690Y-65202073D01*
X46646760Y-65049199D01*
X46732547Y-64880832D01*
X46790940Y-64701118D01*
X46794136Y-64680941D01*
X46820500Y-64514484D01*
X46820500Y-64325515D01*
X46790941Y-64138886D01*
X46764146Y-64056420D01*
X46732547Y-63959168D01*
X46646760Y-63790801D01*
X46535690Y-63637927D01*
X46402073Y-63504310D01*
X46249199Y-63393240D01*
X46249198Y-63393239D01*
X46249196Y-63393238D01*
X46080832Y-63307453D01*
X45901113Y-63249058D01*
X45714484Y-63219500D01*
X45714481Y-63219500D01*
X45525519Y-63219500D01*
X45525516Y-63219500D01*
X45338886Y-63249058D01*
X45159167Y-63307453D01*
X44990803Y-63393238D01*
X44837928Y-63504309D01*
X44704309Y-63637928D01*
X44593238Y-63790803D01*
X44507453Y-63959167D01*
X44449058Y-64138886D01*
X44419500Y-64325515D01*
X44419500Y-64514484D01*
X44449058Y-64701113D01*
X44507453Y-64880832D01*
X44584175Y-65031409D01*
X44593240Y-65049199D01*
X44704310Y-65202073D01*
X44837927Y-65335690D01*
X44990801Y-65446760D01*
X45159168Y-65532547D01*
X45338882Y-65590940D01*
X45338883Y-65590940D01*
X45338886Y-65590941D01*
X45346954Y-65592219D01*
X45401471Y-65619996D01*
X45429248Y-65674513D01*
X45419677Y-65734945D01*
X45376412Y-65778210D01*
X45346954Y-65787781D01*
X45338886Y-65789058D01*
X45159167Y-65847453D01*
X44990803Y-65933238D01*
X44837928Y-66044309D01*
X44704309Y-66177928D01*
X44593238Y-66330803D01*
X44507453Y-66499167D01*
X44449058Y-66678886D01*
X44419500Y-66865515D01*
X44419500Y-67054484D01*
X44449058Y-67241113D01*
X44507453Y-67420832D01*
X44584175Y-67571409D01*
X44593240Y-67589199D01*
X44704310Y-67742073D01*
X44837927Y-67875690D01*
X44990801Y-67986760D01*
X45159168Y-68072547D01*
X45338882Y-68130940D01*
X45338883Y-68130940D01*
X45338886Y-68130941D01*
X45346954Y-68132219D01*
X45401471Y-68159996D01*
X45429248Y-68214513D01*
X45419677Y-68274945D01*
X45376412Y-68318210D01*
X45346954Y-68327781D01*
X45338886Y-68329058D01*
X45159167Y-68387453D01*
X44990803Y-68473238D01*
X44837928Y-68584309D01*
X44704309Y-68717928D01*
X44593238Y-68870803D01*
X44507453Y-69039167D01*
X44449058Y-69218886D01*
X44419500Y-69405515D01*
X44419500Y-69594484D01*
X44449058Y-69781113D01*
X44507453Y-69960832D01*
X44593238Y-70129196D01*
X44635460Y-70187309D01*
X44654367Y-70245500D01*
X44635460Y-70303691D01*
X44585960Y-70339655D01*
X44555367Y-70344500D01*
X31444633Y-70344500D01*
X31386442Y-70325593D01*
X31350478Y-70276093D01*
X31350478Y-70214907D01*
X31364540Y-70187309D01*
X31406760Y-70129199D01*
X31492547Y-69960832D01*
X31550940Y-69781118D01*
X31550941Y-69781113D01*
X31580500Y-69594484D01*
X31580500Y-69405515D01*
X31550941Y-69218886D01*
X31509875Y-69092499D01*
X31492547Y-69039168D01*
X31406760Y-68870801D01*
X31295690Y-68717927D01*
X31162073Y-68584310D01*
X31009199Y-68473240D01*
X31009198Y-68473239D01*
X31009196Y-68473238D01*
X30840832Y-68387453D01*
X30661113Y-68329058D01*
X30653046Y-68327781D01*
X30598529Y-68300004D01*
X30570751Y-68245488D01*
X30580322Y-68185056D01*
X30623586Y-68141791D01*
X30653046Y-68132219D01*
X30661113Y-68130941D01*
X30661114Y-68130940D01*
X30661118Y-68130940D01*
X30840832Y-68072547D01*
X31009199Y-67986760D01*
X31162073Y-67875690D01*
X31295690Y-67742073D01*
X31406760Y-67589199D01*
X31492547Y-67420832D01*
X31550940Y-67241118D01*
X31550941Y-67241113D01*
X31580500Y-67054484D01*
X31580500Y-66865515D01*
X31550941Y-66678886D01*
X31517444Y-66575793D01*
X31492547Y-66499168D01*
X31406760Y-66330801D01*
X31295690Y-66177927D01*
X31162073Y-66044310D01*
X31009199Y-65933240D01*
X31009198Y-65933239D01*
X31009196Y-65933238D01*
X30840832Y-65847453D01*
X30661113Y-65789058D01*
X30653046Y-65787781D01*
X30598529Y-65760004D01*
X30570751Y-65705488D01*
X30580322Y-65645056D01*
X30623586Y-65601791D01*
X30653046Y-65592219D01*
X30661113Y-65590941D01*
X30661114Y-65590940D01*
X30661118Y-65590940D01*
X30840832Y-65532547D01*
X31009199Y-65446760D01*
X31162073Y-65335690D01*
X31295690Y-65202073D01*
X31406760Y-65049199D01*
X31492547Y-64880832D01*
X31550940Y-64701118D01*
X31554136Y-64680941D01*
X31580500Y-64514484D01*
X31580500Y-64325515D01*
X31550941Y-64138886D01*
X31524146Y-64056420D01*
X31492547Y-63959168D01*
X31406760Y-63790801D01*
X31295690Y-63637927D01*
X31162073Y-63504310D01*
X31009199Y-63393240D01*
X31009198Y-63393239D01*
X31009196Y-63393238D01*
X30840832Y-63307453D01*
X30661113Y-63249058D01*
X30653046Y-63247781D01*
X30598529Y-63220004D01*
X30570751Y-63165488D01*
X30580322Y-63105056D01*
X30623586Y-63061791D01*
X30653046Y-63052219D01*
X30661113Y-63050941D01*
X30661114Y-63050940D01*
X30661118Y-63050940D01*
X30840832Y-62992547D01*
X31009199Y-62906760D01*
X31162073Y-62795690D01*
X31295690Y-62662073D01*
X31406760Y-62509199D01*
X31438977Y-62445968D01*
X31482240Y-62402705D01*
X31534498Y-62392184D01*
X31919295Y-62420687D01*
X31937600Y-62423789D01*
X31943982Y-62425500D01*
X31980588Y-62425500D01*
X31987901Y-62425770D01*
X32024432Y-62428476D01*
X32030069Y-62427404D01*
X32030924Y-62427242D01*
X32049413Y-62425500D01*
X32056018Y-62425500D01*
X32091408Y-62416017D01*
X32098485Y-62414398D01*
X32134498Y-62407552D01*
X32140445Y-62404681D01*
X32157850Y-62398214D01*
X32164237Y-62396503D01*
X32195962Y-62378185D01*
X32202392Y-62374783D01*
X32235397Y-62358855D01*
X32240399Y-62354542D01*
X32255549Y-62343784D01*
X32256444Y-62343266D01*
X32261263Y-62340485D01*
X32287174Y-62314572D01*
X32292508Y-62309618D01*
X32320254Y-62285701D01*
X32323970Y-62280240D01*
X32335811Y-62265936D01*
X32340485Y-62261263D01*
X32358807Y-62229525D01*
X32362670Y-62223372D01*
X32383287Y-62193079D01*
X32385462Y-62186842D01*
X32393205Y-62169948D01*
X32396503Y-62164237D01*
X32405990Y-62128825D01*
X32408125Y-62121896D01*
X32420199Y-62087297D01*
X32420686Y-62080716D01*
X32423789Y-62062398D01*
X32425500Y-62056018D01*
X32425500Y-62019397D01*
X32425770Y-62012084D01*
X32426487Y-62002402D01*
X32428475Y-61975567D01*
X32427241Y-61969079D01*
X32425500Y-61950592D01*
X32425500Y-58395130D01*
X44419500Y-58395130D01*
X44419500Y-60284860D01*
X44419501Y-60284863D01*
X44422414Y-60309990D01*
X44447481Y-60366760D01*
X44467794Y-60412765D01*
X44547235Y-60492206D01*
X44650009Y-60537585D01*
X44675135Y-60540500D01*
X46564864Y-60540499D01*
X46589991Y-60537585D01*
X46692765Y-60492206D01*
X46772206Y-60412765D01*
X46817585Y-60309991D01*
X46820500Y-60284865D01*
X46820499Y-58395136D01*
X46817585Y-58370009D01*
X46772206Y-58267235D01*
X46692765Y-58187794D01*
X46589991Y-58142415D01*
X46589990Y-58142414D01*
X46589988Y-58142414D01*
X46564868Y-58139500D01*
X44675139Y-58139500D01*
X44675136Y-58139501D01*
X44650009Y-58142414D01*
X44547235Y-58187794D01*
X44467794Y-58267235D01*
X44422414Y-58370011D01*
X44419500Y-58395130D01*
X32425500Y-58395130D01*
X32425500Y-44274687D01*
X32444407Y-44216496D01*
X32493907Y-44180532D01*
X32524532Y-44175687D01*
X86808604Y-44195073D01*
X86866785Y-44214001D01*
X86896774Y-44249125D01*
X86973240Y-44399199D01*
X87084310Y-44552073D01*
X87217927Y-44685690D01*
X87370801Y-44796760D01*
X87370803Y-44796761D01*
X87455346Y-44839838D01*
X87498611Y-44883103D01*
X87508182Y-44943535D01*
X87480404Y-44998052D01*
X87455346Y-45016258D01*
X87266242Y-45112611D01*
X87087962Y-45242139D01*
X86932139Y-45397962D01*
X86802611Y-45576242D01*
X86702569Y-45772586D01*
X86634471Y-45982170D01*
X86622144Y-46059999D01*
X86622145Y-46060000D01*
X87566988Y-46060000D01*
X87534075Y-46117007D01*
X87500000Y-46244174D01*
X87500000Y-46375826D01*
X87534075Y-46502993D01*
X87566988Y-46560000D01*
X86622144Y-46560000D01*
X86634471Y-46637829D01*
X86702569Y-46847413D01*
X86802611Y-47043757D01*
X86932139Y-47222037D01*
X87087962Y-47377860D01*
X87266242Y-47507388D01*
X87462586Y-47607430D01*
X87672169Y-47675528D01*
X87749999Y-47687854D01*
X87750000Y-47687853D01*
X87750000Y-46743012D01*
X87807007Y-46775925D01*
X87934174Y-46810000D01*
X88065826Y-46810000D01*
X88192993Y-46775925D01*
X88250000Y-46743012D01*
X88250000Y-47687854D01*
X88327830Y-47675528D01*
X88537413Y-47607430D01*
X88733757Y-47507388D01*
X88912037Y-47377860D01*
X89067860Y-47222037D01*
X89197388Y-47043757D01*
X89297430Y-46847413D01*
X89365528Y-46637829D01*
X89377855Y-46560000D01*
X88433012Y-46560000D01*
X88465925Y-46502993D01*
X88500000Y-46375826D01*
X88500000Y-46244174D01*
X88465925Y-46117007D01*
X88433012Y-46060000D01*
X89377855Y-46060000D01*
X89377855Y-46059999D01*
X89365528Y-45982170D01*
X89297430Y-45772586D01*
X89197388Y-45576242D01*
X89067860Y-45397962D01*
X88912037Y-45242139D01*
X88733757Y-45112611D01*
X88544653Y-45016258D01*
X88501388Y-44972993D01*
X88491817Y-44912561D01*
X88519594Y-44858044D01*
X88544653Y-44839838D01*
X88629199Y-44796760D01*
X88782073Y-44685690D01*
X88915690Y-44552073D01*
X89026760Y-44399199D01*
X89112547Y-44230832D01*
X89170940Y-44051118D01*
X89173870Y-44032621D01*
X89200500Y-43864484D01*
X89200500Y-43675515D01*
X89170941Y-43488886D01*
X89155869Y-43442499D01*
X89112547Y-43309168D01*
X89026760Y-43140801D01*
X88915690Y-42987927D01*
X88782073Y-42854310D01*
X88629199Y-42743240D01*
X88629198Y-42743239D01*
X88629196Y-42743238D01*
X88460832Y-42657453D01*
X88281113Y-42599058D01*
X88273046Y-42597781D01*
X88218529Y-42570004D01*
X88190751Y-42515488D01*
X88200322Y-42455056D01*
X88243586Y-42411791D01*
X88273046Y-42402219D01*
X88281113Y-42400941D01*
X88281114Y-42400940D01*
X88281118Y-42400940D01*
X88460832Y-42342547D01*
X88629199Y-42256760D01*
X88782073Y-42145690D01*
X88915690Y-42012073D01*
X89026760Y-41859199D01*
X89112547Y-41690832D01*
X89170940Y-41511118D01*
X89173870Y-41492621D01*
X89200500Y-41324484D01*
X89200500Y-41135515D01*
X89170941Y-40948886D01*
X89155869Y-40902499D01*
X89112547Y-40769168D01*
X89026760Y-40600801D01*
X88915690Y-40447927D01*
X88782073Y-40314310D01*
X88629199Y-40203240D01*
X88629198Y-40203239D01*
X88629196Y-40203238D01*
X88460832Y-40117453D01*
X88356810Y-40083654D01*
X88307310Y-40047690D01*
X88288403Y-39989499D01*
X88307310Y-39931308D01*
X88356811Y-39895344D01*
X88387401Y-39890499D01*
X88944864Y-39890499D01*
X88969991Y-39887585D01*
X89072765Y-39842206D01*
X89152206Y-39762765D01*
X89197585Y-39659991D01*
X89200500Y-39634865D01*
X89200499Y-37745136D01*
X89197585Y-37720009D01*
X89152206Y-37617235D01*
X89072765Y-37537794D01*
X88969991Y-37492415D01*
X88969990Y-37492414D01*
X88969988Y-37492414D01*
X88944868Y-37489500D01*
X87055139Y-37489500D01*
X87055136Y-37489501D01*
X87030009Y-37492414D01*
X86927235Y-37537794D01*
X86847794Y-37617235D01*
X86802414Y-37720011D01*
X86799500Y-37745130D01*
X86799500Y-39634860D01*
X86799501Y-39634863D01*
X86802414Y-39659990D01*
X86827756Y-39717385D01*
X86847794Y-39762765D01*
X86927235Y-39842206D01*
X87030009Y-39887585D01*
X87055135Y-39890500D01*
X87612597Y-39890499D01*
X87670786Y-39909406D01*
X87706750Y-39958906D01*
X87706750Y-40020092D01*
X87670786Y-40069592D01*
X87643188Y-40083653D01*
X87539174Y-40117449D01*
X87539171Y-40117451D01*
X87370803Y-40203238D01*
X87217928Y-40314309D01*
X87084309Y-40447928D01*
X86973238Y-40600803D01*
X86887453Y-40769167D01*
X86829058Y-40948886D01*
X86799500Y-41135515D01*
X86799500Y-41324484D01*
X86829058Y-41511113D01*
X86887453Y-41690832D01*
X86893499Y-41702699D01*
X86973240Y-41859199D01*
X87084310Y-42012073D01*
X87217927Y-42145690D01*
X87370801Y-42256760D01*
X87539168Y-42342547D01*
X87718882Y-42400940D01*
X87718883Y-42400940D01*
X87718886Y-42400941D01*
X87726954Y-42402219D01*
X87781471Y-42429996D01*
X87809248Y-42484513D01*
X87799677Y-42544945D01*
X87756412Y-42588210D01*
X87726954Y-42597781D01*
X87718886Y-42599058D01*
X87539167Y-42657453D01*
X87370803Y-42743238D01*
X87217928Y-42854309D01*
X87084309Y-42987928D01*
X86973238Y-43140803D01*
X86897210Y-43290019D01*
X86853945Y-43333284D01*
X86808965Y-43344074D01*
X32062380Y-43324521D01*
X32062043Y-43324500D01*
X32056018Y-43324500D01*
X32000134Y-43324500D01*
X31944134Y-43324480D01*
X31944059Y-43324500D01*
X31943982Y-43324500D01*
X31890309Y-43338881D01*
X31835905Y-43353438D01*
X31835837Y-43353477D01*
X31835763Y-43353497D01*
X31786934Y-43381688D01*
X31738859Y-43409422D01*
X31738805Y-43409475D01*
X31738737Y-43409515D01*
X31699233Y-43449018D01*
X31693195Y-43455051D01*
X31693193Y-43455053D01*
X31661749Y-43486475D01*
X31661748Y-43486475D01*
X31659608Y-43488615D01*
X31659568Y-43488683D01*
X31659515Y-43488737D01*
X31631937Y-43536503D01*
X31603556Y-43585621D01*
X31603536Y-43585695D01*
X31603497Y-43585763D01*
X31588960Y-43640015D01*
X31586749Y-43648252D01*
X31586748Y-43648256D01*
X31574508Y-43693871D01*
X31574500Y-43693938D01*
X31574500Y-43749883D01*
X31574478Y-43812216D01*
X31574500Y-43812547D01*
X31574500Y-58636984D01*
X31555593Y-58695175D01*
X31506093Y-58731139D01*
X31444907Y-58731139D01*
X31395408Y-58695175D01*
X31295694Y-58557932D01*
X31295692Y-58557930D01*
X31295690Y-58557927D01*
X31162073Y-58424310D01*
X31009199Y-58313240D01*
X31009198Y-58313239D01*
X31009196Y-58313238D01*
X30840832Y-58227453D01*
X30661113Y-58169058D01*
X30474484Y-58139500D01*
X30474481Y-58139500D01*
X30285519Y-58139500D01*
X30285516Y-58139500D01*
X30098886Y-58169058D01*
X29919167Y-58227453D01*
X29750803Y-58313238D01*
X29597928Y-58424309D01*
X29464309Y-58557928D01*
X29353238Y-58710803D01*
X29267453Y-58879167D01*
X29209058Y-59058886D01*
X29179500Y-59245515D01*
X29179500Y-59434484D01*
X29209058Y-59621113D01*
X29267453Y-59800832D01*
X29342876Y-59948860D01*
X29353240Y-59969199D01*
X29464310Y-60122073D01*
X29597927Y-60255690D01*
X29750801Y-60366760D01*
X29919168Y-60452547D01*
X30098882Y-60510940D01*
X30098883Y-60510940D01*
X30098886Y-60510941D01*
X30106954Y-60512219D01*
X30161471Y-60539996D01*
X30189248Y-60594513D01*
X30179677Y-60654945D01*
X30136412Y-60698210D01*
X30106954Y-60707781D01*
X30098886Y-60709058D01*
X29919167Y-60767453D01*
X29750803Y-60853238D01*
X29597928Y-60964309D01*
X29464309Y-61097928D01*
X29353238Y-61250803D01*
X29267453Y-61419167D01*
X29209058Y-61598886D01*
X29179500Y-61785515D01*
X29179500Y-61974484D01*
X29209058Y-62161113D01*
X29267453Y-62340832D01*
X29353237Y-62509195D01*
X29353240Y-62509199D01*
X29464310Y-62662073D01*
X29597927Y-62795690D01*
X29750801Y-62906760D01*
X29919168Y-62992547D01*
X30098882Y-63050940D01*
X30098883Y-63050940D01*
X30098886Y-63050941D01*
X30106954Y-63052219D01*
X30161471Y-63079996D01*
X30189248Y-63134513D01*
X30179677Y-63194945D01*
X30136412Y-63238210D01*
X30106954Y-63247781D01*
X30098886Y-63249058D01*
X29919167Y-63307453D01*
X29750803Y-63393238D01*
X29597928Y-63504309D01*
X29464309Y-63637928D01*
X29353238Y-63790803D01*
X29267453Y-63959167D01*
X29209058Y-64138886D01*
X29179500Y-64325515D01*
X29179500Y-64514484D01*
X29209058Y-64701113D01*
X29267453Y-64880832D01*
X29344175Y-65031409D01*
X29353240Y-65049199D01*
X29464310Y-65202073D01*
X29597927Y-65335690D01*
X29750801Y-65446760D01*
X29919168Y-65532547D01*
X30098882Y-65590940D01*
X30098883Y-65590940D01*
X30098886Y-65590941D01*
X30106954Y-65592219D01*
X30161471Y-65619996D01*
X30189248Y-65674513D01*
X30179677Y-65734945D01*
X30136412Y-65778210D01*
X30106954Y-65787781D01*
X30098886Y-65789058D01*
X29919167Y-65847453D01*
X29750803Y-65933238D01*
X29597928Y-66044309D01*
X29464309Y-66177928D01*
X29353238Y-66330803D01*
X29267453Y-66499167D01*
X29209058Y-66678886D01*
X29179500Y-66865515D01*
X29179500Y-67054484D01*
X29209058Y-67241113D01*
X29267453Y-67420832D01*
X29344175Y-67571409D01*
X29353240Y-67589199D01*
X29464310Y-67742073D01*
X29597927Y-67875690D01*
X29750801Y-67986760D01*
X29919168Y-68072547D01*
X30098882Y-68130940D01*
X30098883Y-68130940D01*
X30098886Y-68130941D01*
X30106954Y-68132219D01*
X30161471Y-68159996D01*
X30189248Y-68214513D01*
X30179677Y-68274945D01*
X30136412Y-68318210D01*
X30106954Y-68327781D01*
X30098886Y-68329058D01*
X29919167Y-68387453D01*
X29750803Y-68473238D01*
X29597928Y-68584309D01*
X29464309Y-68717928D01*
X29353238Y-68870803D01*
X29267453Y-69039167D01*
X29209058Y-69218886D01*
X29179500Y-69405515D01*
X29179500Y-69594484D01*
X29209058Y-69781113D01*
X29267453Y-69960832D01*
X29353238Y-70129196D01*
X29395460Y-70187309D01*
X29414367Y-70245500D01*
X29395460Y-70303691D01*
X29345960Y-70339655D01*
X29315367Y-70344500D01*
X28924500Y-70344500D01*
X28866309Y-70325593D01*
X28830345Y-70276093D01*
X28825500Y-70245500D01*
X28825500Y-37243983D01*
X28812469Y-37195350D01*
X28796503Y-37135763D01*
X28796501Y-37135760D01*
X28796501Y-37135758D01*
X28740486Y-37038739D01*
X28740485Y-37038737D01*
X28661263Y-36959515D01*
X28632527Y-36942924D01*
X28564240Y-36903498D01*
X28564242Y-36903498D01*
X28522251Y-36892247D01*
X28456018Y-36874500D01*
X28456016Y-36874500D01*
X27739943Y-36874500D01*
X27681752Y-36855593D01*
X27648479Y-36813385D01*
X27641576Y-36796720D01*
X27594269Y-36725920D01*
X27525298Y-36622696D01*
X27377304Y-36474702D01*
X27203282Y-36358425D01*
X27203283Y-36358425D01*
X27203281Y-36358424D01*
X27009923Y-36278332D01*
X27009917Y-36278330D01*
X26804649Y-36237500D01*
X26804647Y-36237500D01*
X26595353Y-36237500D01*
X26595350Y-36237500D01*
X26390082Y-36278330D01*
X26390076Y-36278332D01*
X26196718Y-36358424D01*
X26022699Y-36474699D01*
X25874699Y-36622699D01*
X25758424Y-36796718D01*
X25678332Y-36990076D01*
X25678330Y-36990082D01*
X25637500Y-37195350D01*
X25637500Y-37404649D01*
X25678330Y-37609917D01*
X25678332Y-37609923D01*
X25758424Y-37803281D01*
X25758425Y-37803282D01*
X25874702Y-37977304D01*
X26022696Y-38125298D01*
X26196718Y-38241575D01*
X26390080Y-38321669D01*
X26595353Y-38362500D01*
X26595354Y-38362500D01*
X26804646Y-38362500D01*
X26804647Y-38362500D01*
X27009920Y-38321669D01*
X27203282Y-38241575D01*
X27377304Y-38125298D01*
X27525298Y-37977304D01*
X27641575Y-37803282D01*
X27648479Y-37786615D01*
X27688215Y-37740089D01*
X27739943Y-37725500D01*
X27875500Y-37725500D01*
X27933691Y-37744407D01*
X27969655Y-37793907D01*
X27974500Y-37824500D01*
X27974500Y-39315500D01*
X27955593Y-39373691D01*
X27906093Y-39409655D01*
X27875500Y-39414500D01*
X27739943Y-39414500D01*
X27681752Y-39395593D01*
X27648479Y-39353385D01*
X27641576Y-39336720D01*
X27627397Y-39315500D01*
X27525298Y-39162696D01*
X27377304Y-39014702D01*
X27203282Y-38898425D01*
X27203283Y-38898425D01*
X27203281Y-38898424D01*
X27009923Y-38818332D01*
X27009917Y-38818330D01*
X26804649Y-38777500D01*
X26804647Y-38777500D01*
X26595353Y-38777500D01*
X26595350Y-38777500D01*
X26390082Y-38818330D01*
X26390076Y-38818332D01*
X26196718Y-38898424D01*
X26022699Y-39014699D01*
X25874699Y-39162699D01*
X25758424Y-39336718D01*
X25678332Y-39530076D01*
X25678330Y-39530082D01*
X25637500Y-39735350D01*
X25637500Y-39944649D01*
X25678330Y-40149917D01*
X25678332Y-40149923D01*
X25758424Y-40343281D01*
X25874699Y-40517300D01*
X25874702Y-40517304D01*
X26022696Y-40665298D01*
X26196718Y-40781575D01*
X26390080Y-40861669D01*
X26595353Y-40902500D01*
X26595354Y-40902500D01*
X26804646Y-40902500D01*
X26804647Y-40902500D01*
X27009920Y-40861669D01*
X27203282Y-40781575D01*
X27237523Y-40758696D01*
X27320499Y-40703254D01*
X27379387Y-40686645D01*
X27436790Y-40707823D01*
X27470783Y-40758696D01*
X27474500Y-40785569D01*
X27474500Y-41434430D01*
X27455593Y-41492621D01*
X27406093Y-41528585D01*
X27344907Y-41528585D01*
X27320499Y-41516746D01*
X27203281Y-41438424D01*
X27009923Y-41358332D01*
X27009917Y-41358330D01*
X26804649Y-41317500D01*
X26804647Y-41317500D01*
X26595353Y-41317500D01*
X26595350Y-41317500D01*
X26390082Y-41358330D01*
X26390076Y-41358332D01*
X26196718Y-41438424D01*
X26022699Y-41554699D01*
X25874699Y-41702699D01*
X25758424Y-41876718D01*
X25678332Y-42070076D01*
X25678330Y-42070082D01*
X25637500Y-42275350D01*
X25637500Y-42484649D01*
X25678330Y-42689917D01*
X25678332Y-42689923D01*
X25758424Y-42883281D01*
X25874699Y-43057300D01*
X25874702Y-43057304D01*
X26022696Y-43205298D01*
X26196718Y-43321575D01*
X26390080Y-43401669D01*
X26595353Y-43442500D01*
X26595354Y-43442500D01*
X26804646Y-43442500D01*
X26804647Y-43442500D01*
X27009920Y-43401669D01*
X27203282Y-43321575D01*
X27250509Y-43290019D01*
X27320499Y-43243254D01*
X27379387Y-43226645D01*
X27436790Y-43247823D01*
X27470783Y-43298696D01*
X27474500Y-43325569D01*
X27474500Y-43974430D01*
X27455593Y-44032621D01*
X27406093Y-44068585D01*
X27344907Y-44068585D01*
X27320499Y-44056746D01*
X27203281Y-43978424D01*
X27009923Y-43898332D01*
X27009917Y-43898330D01*
X26804649Y-43857500D01*
X26804647Y-43857500D01*
X26595353Y-43857500D01*
X26595350Y-43857500D01*
X26390082Y-43898330D01*
X26390076Y-43898332D01*
X26196718Y-43978424D01*
X26022699Y-44094699D01*
X25874699Y-44242699D01*
X25758424Y-44416718D01*
X25678332Y-44610076D01*
X25678330Y-44610082D01*
X25637500Y-44815350D01*
X25637500Y-45024649D01*
X25678330Y-45229917D01*
X25678332Y-45229923D01*
X25758424Y-45423281D01*
X25758425Y-45423282D01*
X25874702Y-45597304D01*
X26022696Y-45745298D01*
X26196718Y-45861575D01*
X26390080Y-45941669D01*
X26595353Y-45982500D01*
X26595354Y-45982500D01*
X26804646Y-45982500D01*
X26804647Y-45982500D01*
X27009920Y-45941669D01*
X27203282Y-45861575D01*
X27280470Y-45810000D01*
X27320499Y-45783254D01*
X27379387Y-45766645D01*
X27436790Y-45787823D01*
X27470783Y-45838696D01*
X27474500Y-45865569D01*
X27474500Y-46276698D01*
X27455593Y-46334889D01*
X27406093Y-46370853D01*
X27344907Y-46370853D01*
X27330555Y-46364908D01*
X27184440Y-46290459D01*
X26995514Y-46229073D01*
X26799325Y-46198000D01*
X26600675Y-46198000D01*
X26404485Y-46229073D01*
X26215559Y-46290459D01*
X26038567Y-46380641D01*
X26001283Y-46407728D01*
X26570591Y-46977037D01*
X26507007Y-46994075D01*
X26392993Y-47059901D01*
X26299901Y-47152993D01*
X26234075Y-47267007D01*
X26217037Y-47330592D01*
X25647728Y-46761283D01*
X25620641Y-46798567D01*
X25530459Y-46975559D01*
X25469073Y-47164485D01*
X25438000Y-47360674D01*
X25438000Y-47559325D01*
X25469073Y-47755514D01*
X25530459Y-47944440D01*
X25620637Y-48121425D01*
X25647729Y-48158714D01*
X26217036Y-47589406D01*
X26234075Y-47652993D01*
X26299901Y-47767007D01*
X26392993Y-47860099D01*
X26507007Y-47925925D01*
X26570590Y-47942962D01*
X26001283Y-48512270D01*
X26038564Y-48539357D01*
X26038568Y-48539359D01*
X26215559Y-48629540D01*
X26404485Y-48690926D01*
X26600675Y-48722000D01*
X26799325Y-48722000D01*
X26995514Y-48690926D01*
X27184444Y-48629539D01*
X27184447Y-48629538D01*
X27330555Y-48555092D01*
X27390987Y-48545520D01*
X27445503Y-48573297D01*
X27473281Y-48627814D01*
X27474500Y-48643301D01*
X27474500Y-49054430D01*
X27455593Y-49112621D01*
X27406093Y-49148585D01*
X27344907Y-49148585D01*
X27320499Y-49136746D01*
X27203281Y-49058424D01*
X27009923Y-48978332D01*
X27009917Y-48978330D01*
X26804649Y-48937500D01*
X26804647Y-48937500D01*
X26595353Y-48937500D01*
X26595350Y-48937500D01*
X26390082Y-48978330D01*
X26390076Y-48978332D01*
X26196718Y-49058424D01*
X26022699Y-49174699D01*
X25874699Y-49322699D01*
X25758424Y-49496718D01*
X25678332Y-49690076D01*
X25678330Y-49690082D01*
X25637500Y-49895350D01*
X25637500Y-50104649D01*
X25678330Y-50309917D01*
X25678332Y-50309923D01*
X25758424Y-50503281D01*
X25758425Y-50503282D01*
X25874702Y-50677304D01*
X26022696Y-50825298D01*
X26196718Y-50941575D01*
X26390080Y-51021669D01*
X26595353Y-51062500D01*
X26595354Y-51062500D01*
X26804646Y-51062500D01*
X26804647Y-51062500D01*
X27009920Y-51021669D01*
X27203282Y-50941575D01*
X27237523Y-50918696D01*
X27320499Y-50863254D01*
X27379387Y-50846645D01*
X27436790Y-50867823D01*
X27470783Y-50918696D01*
X27474500Y-50945569D01*
X27474500Y-75556255D01*
X27461236Y-75605755D01*
X27403498Y-75705758D01*
X27403497Y-75705763D01*
X27374500Y-75813982D01*
X27374500Y-75926018D01*
X27400072Y-76021455D01*
X27403498Y-76034241D01*
X27459513Y-76131260D01*
X27459515Y-76131263D01*
X27538737Y-76210485D01*
X27538739Y-76210486D01*
X27635759Y-76266501D01*
X27635757Y-76266501D01*
X27635761Y-76266502D01*
X27635763Y-76266503D01*
X27743982Y-76295500D01*
X27843982Y-76295500D01*
X27956018Y-76295500D01*
X29300836Y-76295500D01*
X29359027Y-76314407D01*
X29394991Y-76363907D01*
X29394991Y-76425093D01*
X29380929Y-76452691D01*
X29353238Y-76490803D01*
X29267453Y-76659167D01*
X29209058Y-76838886D01*
X29179500Y-77025515D01*
X29179500Y-77214484D01*
X29209058Y-77401113D01*
X29267453Y-77580832D01*
X29340698Y-77724585D01*
X29353240Y-77749199D01*
X29464310Y-77902073D01*
X29597927Y-78035690D01*
X29750801Y-78146760D01*
X29919168Y-78232547D01*
X30098882Y-78290940D01*
X30098883Y-78290940D01*
X30098886Y-78290941D01*
X30106954Y-78292219D01*
X30161471Y-78319996D01*
X30189248Y-78374513D01*
X30179677Y-78434945D01*
X30136412Y-78478210D01*
X30106954Y-78487781D01*
X30098886Y-78489058D01*
X29919167Y-78547453D01*
X29750803Y-78633238D01*
X29597928Y-78744309D01*
X29464309Y-78877928D01*
X29353238Y-79030803D01*
X29267453Y-79199167D01*
X29209058Y-79378886D01*
X29179500Y-79565515D01*
X29179500Y-79754484D01*
X29209058Y-79941113D01*
X29267453Y-80120832D01*
X29295307Y-80175500D01*
X29353240Y-80289199D01*
X29464310Y-80442073D01*
X29597927Y-80575690D01*
X29750801Y-80686760D01*
X29919168Y-80772547D01*
X30098882Y-80830940D01*
X30098883Y-80830940D01*
X30098886Y-80830941D01*
X30285516Y-80860500D01*
X30285519Y-80860500D01*
X30474484Y-80860500D01*
X30661113Y-80830941D01*
X30661114Y-80830940D01*
X30661118Y-80830940D01*
X30840832Y-80772547D01*
X31009199Y-80686760D01*
X31162073Y-80575690D01*
X31295690Y-80442073D01*
X31320908Y-80407362D01*
X31370407Y-80371400D01*
X31431593Y-80371400D01*
X31481093Y-80407364D01*
X31500000Y-80465555D01*
X31500000Y-81400500D01*
X31481093Y-81458691D01*
X31431593Y-81494655D01*
X31401000Y-81499500D01*
X23002985Y-81499500D01*
X22997008Y-81499319D01*
X22973564Y-81497900D01*
X22704695Y-81481637D01*
X22692828Y-81480196D01*
X22407722Y-81427948D01*
X22396114Y-81425087D01*
X22119384Y-81338855D01*
X22108206Y-81334616D01*
X21843881Y-81215652D01*
X21833303Y-81210100D01*
X21585233Y-81060138D01*
X21575413Y-81053359D01*
X21347244Y-80874599D01*
X21338295Y-80866672D01*
X21133327Y-80661704D01*
X21125400Y-80652755D01*
X21065023Y-80575690D01*
X20946638Y-80424583D01*
X20939864Y-80414770D01*
X20789895Y-80166690D01*
X20784347Y-80156118D01*
X20752564Y-80085500D01*
X20665380Y-79891786D01*
X20661147Y-79880623D01*
X20574911Y-79603882D01*
X20572051Y-79592277D01*
X20519802Y-79307164D01*
X20518362Y-79295303D01*
X20516216Y-79259828D01*
X20500681Y-79002992D01*
X20500500Y-78997015D01*
X20500500Y-76878710D01*
X21649500Y-76878710D01*
X21649500Y-77121289D01*
X21665581Y-77243434D01*
X21680327Y-77355450D01*
X21681161Y-77361781D01*
X21681161Y-77361786D01*
X21743944Y-77596092D01*
X21743948Y-77596105D01*
X21836772Y-77820204D01*
X21836774Y-77820208D01*
X21836776Y-77820212D01*
X21948183Y-78013174D01*
X21958066Y-78030292D01*
X22105729Y-78222731D01*
X22105731Y-78222733D01*
X22105735Y-78222738D01*
X22277262Y-78394265D01*
X22277266Y-78394268D01*
X22277268Y-78394270D01*
X22469707Y-78541933D01*
X22469711Y-78541936D01*
X22679788Y-78663224D01*
X22903900Y-78756054D01*
X23138211Y-78818838D01*
X23378712Y-78850500D01*
X23378713Y-78850500D01*
X23621287Y-78850500D01*
X23621288Y-78850500D01*
X23861789Y-78818838D01*
X24096100Y-78756054D01*
X24320212Y-78663224D01*
X24530289Y-78541936D01*
X24722738Y-78394265D01*
X24894265Y-78222738D01*
X25041936Y-78030289D01*
X25163224Y-77820212D01*
X25256054Y-77596100D01*
X25318838Y-77361789D01*
X25350500Y-77121288D01*
X25350500Y-76878712D01*
X25318838Y-76638211D01*
X25256054Y-76403900D01*
X25178391Y-76216406D01*
X25163227Y-76179795D01*
X25163226Y-76179794D01*
X25163224Y-76179788D01*
X25041936Y-75969711D01*
X25008408Y-75926016D01*
X24894270Y-75777268D01*
X24894268Y-75777266D01*
X24894265Y-75777262D01*
X24722738Y-75605735D01*
X24722733Y-75605731D01*
X24722731Y-75605729D01*
X24530292Y-75458066D01*
X24506795Y-75444500D01*
X24320212Y-75336776D01*
X24320208Y-75336774D01*
X24320204Y-75336772D01*
X24096105Y-75243948D01*
X24096104Y-75243947D01*
X24096100Y-75243946D01*
X23861789Y-75181162D01*
X23861786Y-75181161D01*
X23861784Y-75181161D01*
X23621289Y-75149500D01*
X23621288Y-75149500D01*
X23378712Y-75149500D01*
X23378710Y-75149500D01*
X23138218Y-75181161D01*
X23138213Y-75181161D01*
X22903907Y-75243944D01*
X22903894Y-75243948D01*
X22679795Y-75336772D01*
X22469707Y-75458066D01*
X22277268Y-75605729D01*
X22105729Y-75777268D01*
X21958066Y-75969707D01*
X21836772Y-76179795D01*
X21743948Y-76403894D01*
X21743944Y-76403907D01*
X21681161Y-76638213D01*
X21681161Y-76638218D01*
X21649500Y-76878710D01*
X20500500Y-76878710D01*
X20500500Y-34660674D01*
X25438000Y-34660674D01*
X25438000Y-34859325D01*
X25469073Y-35055514D01*
X25530459Y-35244440D01*
X25620637Y-35421425D01*
X25647729Y-35458714D01*
X26217036Y-34889406D01*
X26234075Y-34952993D01*
X26299901Y-35067007D01*
X26392993Y-35160099D01*
X26507007Y-35225925D01*
X26570590Y-35242962D01*
X26001283Y-35812270D01*
X26038564Y-35839357D01*
X26038568Y-35839359D01*
X26215559Y-35929540D01*
X26404485Y-35990926D01*
X26600675Y-36022000D01*
X26799325Y-36022000D01*
X26995514Y-35990926D01*
X27184440Y-35929540D01*
X27361434Y-35839357D01*
X27398715Y-35812270D01*
X26829407Y-35242962D01*
X26892993Y-35225925D01*
X27007007Y-35160099D01*
X27100099Y-35067007D01*
X27165925Y-34952993D01*
X27182962Y-34889407D01*
X27752270Y-35458715D01*
X27779357Y-35421434D01*
X27786766Y-35406893D01*
X44399500Y-35406893D01*
X44399500Y-36593106D01*
X44410123Y-36681565D01*
X44465637Y-36822339D01*
X44465638Y-36822341D01*
X44465639Y-36822342D01*
X44557078Y-36942922D01*
X44677658Y-37034361D01*
X44677659Y-37034361D01*
X44677660Y-37034362D01*
X44748047Y-37062119D01*
X44818436Y-37089877D01*
X44906898Y-37100500D01*
X44906900Y-37100500D01*
X46093100Y-37100500D01*
X46093102Y-37100500D01*
X46181564Y-37089877D01*
X46322342Y-37034361D01*
X46442922Y-36942922D01*
X46534361Y-36822342D01*
X46589877Y-36681564D01*
X46600500Y-36593102D01*
X46600500Y-35897684D01*
X47700000Y-35897684D01*
X47700000Y-36102315D01*
X47732008Y-36304412D01*
X47795243Y-36499027D01*
X47888139Y-36681348D01*
X47888143Y-36681353D01*
X47920523Y-36725920D01*
X47920524Y-36725920D01*
X48600000Y-36046444D01*
X48600000Y-36052661D01*
X48627259Y-36154394D01*
X48679920Y-36245606D01*
X48754394Y-36320080D01*
X48845606Y-36372741D01*
X48947339Y-36400000D01*
X48953553Y-36400000D01*
X48274078Y-37079475D01*
X48318647Y-37111858D01*
X48500972Y-37204756D01*
X48695587Y-37267991D01*
X48897685Y-37300000D01*
X49102315Y-37300000D01*
X49304412Y-37267991D01*
X49499027Y-37204756D01*
X49681342Y-37111863D01*
X49681350Y-37111858D01*
X49725920Y-37079475D01*
X49046445Y-36400000D01*
X49052661Y-36400000D01*
X49154394Y-36372741D01*
X49245606Y-36320080D01*
X49320080Y-36245606D01*
X49372741Y-36154394D01*
X49400000Y-36052661D01*
X49400000Y-36046445D01*
X50079475Y-36725920D01*
X50111858Y-36681350D01*
X50111863Y-36681342D01*
X50204756Y-36499027D01*
X50267991Y-36304412D01*
X50300000Y-36102315D01*
X50300000Y-35897684D01*
X50267991Y-35695587D01*
X50204756Y-35500972D01*
X50111858Y-35318647D01*
X50079475Y-35274078D01*
X49400000Y-35953553D01*
X49400000Y-35947339D01*
X49372741Y-35845606D01*
X49320080Y-35754394D01*
X49245606Y-35679920D01*
X49154394Y-35627259D01*
X49052661Y-35600000D01*
X49046445Y-35600000D01*
X49725920Y-34920524D01*
X49725920Y-34920523D01*
X49681353Y-34888143D01*
X49681348Y-34888139D01*
X49499027Y-34795243D01*
X49304412Y-34732008D01*
X49102315Y-34700000D01*
X48897685Y-34700000D01*
X48695587Y-34732008D01*
X48500972Y-34795243D01*
X48318651Y-34888139D01*
X48318647Y-34888141D01*
X48274078Y-34920523D01*
X48953555Y-35600000D01*
X48947339Y-35600000D01*
X48845606Y-35627259D01*
X48754394Y-35679920D01*
X48679920Y-35754394D01*
X48627259Y-35845606D01*
X48600000Y-35947339D01*
X48600000Y-35953555D01*
X47920523Y-35274078D01*
X47888141Y-35318647D01*
X47888139Y-35318651D01*
X47795243Y-35500972D01*
X47732008Y-35695587D01*
X47700000Y-35897684D01*
X46600500Y-35897684D01*
X46600500Y-35406898D01*
X46589877Y-35318436D01*
X46534361Y-35177658D01*
X46442922Y-35057078D01*
X46322342Y-34965639D01*
X46322341Y-34965638D01*
X46322339Y-34965637D01*
X46181565Y-34910123D01*
X46093106Y-34899500D01*
X46093102Y-34899500D01*
X44906898Y-34899500D01*
X44906893Y-34899500D01*
X44818434Y-34910123D01*
X44677660Y-34965637D01*
X44677656Y-34965640D01*
X44557081Y-35057075D01*
X44557075Y-35057081D01*
X44465640Y-35177656D01*
X44465637Y-35177660D01*
X44410123Y-35318434D01*
X44399500Y-35406893D01*
X27786766Y-35406893D01*
X27811173Y-35358994D01*
X27869540Y-35244440D01*
X27930926Y-35055514D01*
X27962000Y-34859325D01*
X27962000Y-34660674D01*
X27930926Y-34464485D01*
X27869540Y-34275559D01*
X27779359Y-34098568D01*
X27779357Y-34098564D01*
X27752270Y-34061283D01*
X27182962Y-34630590D01*
X27165925Y-34567007D01*
X27100099Y-34452993D01*
X27007007Y-34359901D01*
X26892993Y-34294075D01*
X26829406Y-34277036D01*
X27398714Y-33707729D01*
X27361425Y-33680637D01*
X27184440Y-33590459D01*
X26995514Y-33529073D01*
X26799325Y-33498000D01*
X26600675Y-33498000D01*
X26404485Y-33529073D01*
X26215559Y-33590459D01*
X26038567Y-33680641D01*
X26001283Y-33707728D01*
X26570592Y-34277037D01*
X26507007Y-34294075D01*
X26392993Y-34359901D01*
X26299901Y-34452993D01*
X26234075Y-34567007D01*
X26217037Y-34630592D01*
X25647728Y-34061283D01*
X25620641Y-34098567D01*
X25530459Y-34275559D01*
X25469073Y-34464485D01*
X25438000Y-34660674D01*
X20500500Y-34660674D01*
X20500500Y-32115350D01*
X25637500Y-32115350D01*
X25637500Y-32324649D01*
X25678330Y-32529917D01*
X25678332Y-32529923D01*
X25758424Y-32723281D01*
X25758425Y-32723282D01*
X25874702Y-32897304D01*
X26022696Y-33045298D01*
X26196718Y-33161575D01*
X26390080Y-33241669D01*
X26595353Y-33282500D01*
X26595354Y-33282500D01*
X26804646Y-33282500D01*
X26804647Y-33282500D01*
X27009920Y-33241669D01*
X27203282Y-33161575D01*
X27377304Y-33045298D01*
X27525298Y-32897304D01*
X27641575Y-32723282D01*
X27721669Y-32529920D01*
X27762500Y-32324647D01*
X27762500Y-32115353D01*
X27721669Y-31910080D01*
X27641575Y-31716718D01*
X27525298Y-31542696D01*
X27377304Y-31394702D01*
X27203282Y-31278425D01*
X27203283Y-31278425D01*
X27203281Y-31278424D01*
X27009923Y-31198332D01*
X27009917Y-31198330D01*
X26804649Y-31157500D01*
X26804647Y-31157500D01*
X26595353Y-31157500D01*
X26595350Y-31157500D01*
X26390082Y-31198330D01*
X26390076Y-31198332D01*
X26196718Y-31278424D01*
X26022699Y-31394699D01*
X25874699Y-31542699D01*
X25758424Y-31716718D01*
X25678332Y-31910076D01*
X25678330Y-31910082D01*
X25637500Y-32115350D01*
X20500500Y-32115350D01*
X20500500Y-24878710D01*
X22149500Y-24878710D01*
X22149500Y-25121289D01*
X22181161Y-25361781D01*
X22181161Y-25361786D01*
X22243944Y-25596092D01*
X22243948Y-25596105D01*
X22336772Y-25820204D01*
X22336774Y-25820208D01*
X22336776Y-25820212D01*
X22368408Y-25875000D01*
X22458066Y-26030292D01*
X22605729Y-26222731D01*
X22605731Y-26222733D01*
X22605735Y-26222738D01*
X22777262Y-26394265D01*
X22777266Y-26394268D01*
X22777268Y-26394270D01*
X22969707Y-26541933D01*
X22969711Y-26541936D01*
X23179788Y-26663224D01*
X23403900Y-26756054D01*
X23638211Y-26818838D01*
X23878712Y-26850500D01*
X23878713Y-26850500D01*
X24121287Y-26850500D01*
X24121288Y-26850500D01*
X24361789Y-26818838D01*
X24596100Y-26756054D01*
X24820212Y-26663224D01*
X25030289Y-26541936D01*
X25222738Y-26394265D01*
X25394265Y-26222738D01*
X25541936Y-26030289D01*
X25663224Y-25820212D01*
X25756054Y-25596100D01*
X25818838Y-25361789D01*
X25850500Y-25121288D01*
X25850500Y-24878712D01*
X25818838Y-24638211D01*
X25756054Y-24403900D01*
X25663224Y-24179788D01*
X25541936Y-23969711D01*
X25541933Y-23969707D01*
X25394270Y-23777268D01*
X25394268Y-23777266D01*
X25394265Y-23777262D01*
X25222738Y-23605735D01*
X25222733Y-23605731D01*
X25222731Y-23605729D01*
X25030292Y-23458066D01*
X25002846Y-23442220D01*
X24820212Y-23336776D01*
X24820208Y-23336774D01*
X24820204Y-23336772D01*
X24596105Y-23243948D01*
X24596104Y-23243947D01*
X24596100Y-23243946D01*
X24361789Y-23181162D01*
X24361786Y-23181161D01*
X24361784Y-23181161D01*
X24121289Y-23149500D01*
X24121288Y-23149500D01*
X23878712Y-23149500D01*
X23878710Y-23149500D01*
X23638218Y-23181161D01*
X23638213Y-23181161D01*
X23403907Y-23243944D01*
X23403894Y-23243948D01*
X23179795Y-23336772D01*
X22969707Y-23458066D01*
X22777268Y-23605729D01*
X22605729Y-23777268D01*
X22458066Y-23969707D01*
X22336772Y-24179795D01*
X22243948Y-24403894D01*
X22243944Y-24403907D01*
X22181161Y-24638213D01*
X22181161Y-24638218D01*
X22149500Y-24878710D01*
X20500500Y-24878710D01*
X20500500Y-23002984D01*
X20500681Y-22997007D01*
X20503157Y-22956073D01*
X20510668Y-22831893D01*
X31324500Y-22831893D01*
X31324500Y-25168106D01*
X31335123Y-25256565D01*
X31390637Y-25397339D01*
X31390638Y-25397341D01*
X31390639Y-25397342D01*
X31482078Y-25517922D01*
X31602658Y-25609361D01*
X31602659Y-25609361D01*
X31602660Y-25609362D01*
X31673047Y-25637119D01*
X31743436Y-25664877D01*
X31831898Y-25675500D01*
X31831900Y-25675500D01*
X34168100Y-25675500D01*
X34168102Y-25675500D01*
X34256564Y-25664877D01*
X34397342Y-25609361D01*
X34517922Y-25517922D01*
X34609361Y-25397342D01*
X34664877Y-25256564D01*
X34675500Y-25168102D01*
X34675500Y-23877105D01*
X36525000Y-23877105D01*
X36525000Y-24122894D01*
X36557081Y-24366571D01*
X36557081Y-24366576D01*
X36620695Y-24603984D01*
X36620699Y-24603997D01*
X36714753Y-24831067D01*
X36714755Y-24831072D01*
X36837647Y-25043926D01*
X36909229Y-25137215D01*
X37627545Y-24418898D01*
X37720343Y-24557780D01*
X37842220Y-24679657D01*
X37981099Y-24772452D01*
X37262783Y-25490769D01*
X37356073Y-25562352D01*
X37568927Y-25685244D01*
X37568932Y-25685246D01*
X37796002Y-25779300D01*
X37796015Y-25779304D01*
X38033425Y-25842918D01*
X38277105Y-25874999D01*
X38277107Y-25875000D01*
X38522893Y-25875000D01*
X38522894Y-25874999D01*
X38766571Y-25842918D01*
X38766576Y-25842918D01*
X39003984Y-25779304D01*
X39003997Y-25779300D01*
X39231067Y-25685246D01*
X39231072Y-25685244D01*
X39443922Y-25562355D01*
X39537215Y-25490769D01*
X38818899Y-24772453D01*
X38957780Y-24679657D01*
X39079657Y-24557780D01*
X39172453Y-24418899D01*
X39890769Y-25137215D01*
X39962355Y-25043922D01*
X40057741Y-24878710D01*
X88149500Y-24878710D01*
X88149500Y-25121289D01*
X88181161Y-25361781D01*
X88181161Y-25361786D01*
X88243944Y-25596092D01*
X88243948Y-25596105D01*
X88336772Y-25820204D01*
X88336774Y-25820208D01*
X88336776Y-25820212D01*
X88368408Y-25875000D01*
X88458066Y-26030292D01*
X88605729Y-26222731D01*
X88605731Y-26222733D01*
X88605735Y-26222738D01*
X88777262Y-26394265D01*
X88777266Y-26394268D01*
X88777268Y-26394270D01*
X88969707Y-26541933D01*
X88969711Y-26541936D01*
X89179788Y-26663224D01*
X89403900Y-26756054D01*
X89638211Y-26818838D01*
X89878712Y-26850500D01*
X89878713Y-26850500D01*
X90121287Y-26850500D01*
X90121288Y-26850500D01*
X90361789Y-26818838D01*
X90596100Y-26756054D01*
X90820212Y-26663224D01*
X91030289Y-26541936D01*
X91222738Y-26394265D01*
X91394265Y-26222738D01*
X91541936Y-26030289D01*
X91663224Y-25820212D01*
X91756054Y-25596100D01*
X91818838Y-25361789D01*
X91850500Y-25121288D01*
X91850500Y-24878712D01*
X91818838Y-24638211D01*
X91756054Y-24403900D01*
X91663224Y-24179788D01*
X91541936Y-23969711D01*
X91541933Y-23969707D01*
X91394270Y-23777268D01*
X91394268Y-23777266D01*
X91394265Y-23777262D01*
X91222738Y-23605735D01*
X91222733Y-23605731D01*
X91222731Y-23605729D01*
X91030292Y-23458066D01*
X91002846Y-23442220D01*
X90820212Y-23336776D01*
X90820208Y-23336774D01*
X90820204Y-23336772D01*
X90596105Y-23243948D01*
X90596104Y-23243947D01*
X90596100Y-23243946D01*
X90361789Y-23181162D01*
X90361786Y-23181161D01*
X90361784Y-23181161D01*
X90121289Y-23149500D01*
X90121288Y-23149500D01*
X89878712Y-23149500D01*
X89878710Y-23149500D01*
X89638218Y-23181161D01*
X89638213Y-23181161D01*
X89403907Y-23243944D01*
X89403894Y-23243948D01*
X89179795Y-23336772D01*
X88969707Y-23458066D01*
X88777268Y-23605729D01*
X88605729Y-23777268D01*
X88458066Y-23969707D01*
X88336772Y-24179795D01*
X88243948Y-24403894D01*
X88243944Y-24403907D01*
X88181161Y-24638213D01*
X88181161Y-24638218D01*
X88149500Y-24878710D01*
X40057741Y-24878710D01*
X40085245Y-24831071D01*
X40085246Y-24831068D01*
X40179300Y-24603997D01*
X40179304Y-24603984D01*
X40242918Y-24366576D01*
X40242918Y-24366571D01*
X40274999Y-24122894D01*
X40275000Y-24122893D01*
X40275000Y-23877107D01*
X40274999Y-23877105D01*
X40242918Y-23633428D01*
X40242918Y-23633423D01*
X40179304Y-23396015D01*
X40179300Y-23396002D01*
X40085246Y-23168932D01*
X40085244Y-23168927D01*
X39962352Y-22956073D01*
X39890768Y-22862783D01*
X39172452Y-23581098D01*
X39079657Y-23442220D01*
X38957780Y-23320343D01*
X38818898Y-23227545D01*
X39537215Y-22509229D01*
X39443926Y-22437647D01*
X39231072Y-22314755D01*
X39231067Y-22314753D01*
X39003997Y-22220699D01*
X39003984Y-22220695D01*
X38766574Y-22157081D01*
X38522894Y-22125000D01*
X38277105Y-22125000D01*
X38033428Y-22157081D01*
X38033423Y-22157081D01*
X37796015Y-22220695D01*
X37796002Y-22220699D01*
X37568932Y-22314753D01*
X37568927Y-22314755D01*
X37356078Y-22437644D01*
X37262783Y-22509229D01*
X37981100Y-23227546D01*
X37842220Y-23320343D01*
X37720343Y-23442220D01*
X37627546Y-23581100D01*
X36909229Y-22862783D01*
X36837644Y-22956078D01*
X36714755Y-23168927D01*
X36714753Y-23168932D01*
X36620699Y-23396002D01*
X36620695Y-23396015D01*
X36557081Y-23633423D01*
X36557081Y-23633428D01*
X36525000Y-23877105D01*
X34675500Y-23877105D01*
X34675500Y-22831898D01*
X34664877Y-22743436D01*
X34609361Y-22602658D01*
X34517922Y-22482078D01*
X34397342Y-22390639D01*
X34397341Y-22390638D01*
X34397339Y-22390637D01*
X34256565Y-22335123D01*
X34168106Y-22324500D01*
X34168102Y-22324500D01*
X31831898Y-22324500D01*
X31831893Y-22324500D01*
X31743434Y-22335123D01*
X31602660Y-22390637D01*
X31602656Y-22390640D01*
X31482081Y-22482075D01*
X31482075Y-22482081D01*
X31390640Y-22602656D01*
X31390637Y-22602660D01*
X31335123Y-22743434D01*
X31324500Y-22831893D01*
X20510668Y-22831893D01*
X20518363Y-22704686D01*
X20519801Y-22692837D01*
X20572052Y-22407715D01*
X20574912Y-22396114D01*
X20576618Y-22390640D01*
X20661148Y-22119370D01*
X20665378Y-22108218D01*
X20784350Y-21843875D01*
X20789891Y-21833315D01*
X20939868Y-21585221D01*
X20946632Y-21575424D01*
X21125407Y-21347235D01*
X21133319Y-21338303D01*
X21338303Y-21133319D01*
X21347235Y-21125407D01*
X21575424Y-20946632D01*
X21585221Y-20939868D01*
X21833315Y-20789891D01*
X21843875Y-20784350D01*
X22108218Y-20665378D01*
X22119370Y-20661148D01*
X22396121Y-20574910D01*
X22407715Y-20572052D01*
X22692837Y-20519801D01*
X22704688Y-20518362D01*
X22997008Y-20500681D01*
X23002985Y-20500500D01*
X23065892Y-20500500D01*
X90934108Y-20500500D01*
X90997015Y-20500500D01*
X91002992Y-20500681D01*
G37*
%TD.AperFunction*%
%TA.AperFunction,Conductor*%
G36*
X52775590Y-70538207D02*
G01*
X52787403Y-70548296D01*
X53555587Y-71316480D01*
X53555589Y-71316481D01*
X53555590Y-71316482D01*
X53555591Y-71316483D01*
X53646908Y-71369205D01*
X53646906Y-71369205D01*
X53646910Y-71369206D01*
X53646912Y-71369207D01*
X53748773Y-71396500D01*
X53854227Y-71396500D01*
X60229839Y-71396500D01*
X60288030Y-71415407D01*
X60323994Y-71464907D01*
X60323994Y-71526093D01*
X60299844Y-71565501D01*
X60248847Y-71616499D01*
X60221642Y-71653944D01*
X60142402Y-71763008D01*
X60060188Y-71924362D01*
X60004228Y-72096593D01*
X59975900Y-72275450D01*
X59975900Y-72456549D01*
X60004228Y-72635406D01*
X60055895Y-72794425D01*
X60060189Y-72807639D01*
X60142404Y-72968994D01*
X60164865Y-72999909D01*
X60183773Y-73058099D01*
X60164866Y-73116290D01*
X60115367Y-73152254D01*
X60084773Y-73157100D01*
X51134001Y-73157100D01*
X51075810Y-73138193D01*
X51063997Y-73128104D01*
X49731996Y-71796103D01*
X49704219Y-71741586D01*
X49703000Y-71726099D01*
X49703000Y-71653944D01*
X49697254Y-71632499D01*
X49662077Y-71501216D01*
X49583020Y-71364284D01*
X49471216Y-71252480D01*
X49334284Y-71173423D01*
X49181557Y-71132500D01*
X49023443Y-71132500D01*
X48986656Y-71142356D01*
X48950122Y-71152146D01*
X48889021Y-71148943D01*
X48841471Y-71110438D01*
X48825500Y-71056519D01*
X48825500Y-70713983D01*
X48825500Y-70713982D01*
X48806727Y-70643920D01*
X48809929Y-70582822D01*
X48848434Y-70535272D01*
X48902354Y-70519300D01*
X52717399Y-70519300D01*
X52775590Y-70538207D01*
G37*
%TD.AperFunction*%
%TA.AperFunction,Conductor*%
G36*
X60016113Y-63569407D02*
G01*
X60052077Y-63618907D01*
X60052077Y-63680093D01*
X60027927Y-63719501D01*
X60024194Y-63723235D01*
X59978814Y-63826011D01*
X59975900Y-63851130D01*
X59975900Y-64255084D01*
X59956993Y-64313275D01*
X59907493Y-64349239D01*
X59902524Y-64350711D01*
X59871691Y-64358972D01*
X59820112Y-64372793D01*
X59820110Y-64372793D01*
X59820106Y-64372795D01*
X59728791Y-64425516D01*
X59728790Y-64425517D01*
X57591012Y-66563294D01*
X57536495Y-66591071D01*
X57476063Y-66581500D01*
X57432798Y-66538235D01*
X57423227Y-66477803D01*
X57426854Y-66462696D01*
X57463065Y-66351252D01*
X57500000Y-66118056D01*
X57500000Y-65881943D01*
X57463065Y-65648747D01*
X57463064Y-65648743D01*
X57390107Y-65424206D01*
X57390105Y-65424203D01*
X57282915Y-65213829D01*
X57282913Y-65213825D01*
X57222659Y-65130893D01*
X56482962Y-65870590D01*
X56465925Y-65807007D01*
X56400099Y-65692993D01*
X56307007Y-65599901D01*
X56192993Y-65534075D01*
X56129407Y-65517036D01*
X56869105Y-64777339D01*
X56786169Y-64717084D01*
X56575796Y-64609894D01*
X56575793Y-64609892D01*
X56351256Y-64536935D01*
X56351252Y-64536934D01*
X56118056Y-64500000D01*
X55881944Y-64500000D01*
X55648747Y-64536934D01*
X55648743Y-64536935D01*
X55424206Y-64609892D01*
X55424203Y-64609894D01*
X55213823Y-64717088D01*
X55130893Y-64777339D01*
X55870591Y-65517037D01*
X55807007Y-65534075D01*
X55692993Y-65599901D01*
X55599901Y-65692993D01*
X55534075Y-65807007D01*
X55517037Y-65870591D01*
X54777339Y-65130893D01*
X54717088Y-65213823D01*
X54609894Y-65424203D01*
X54609892Y-65424206D01*
X54536935Y-65648743D01*
X54536934Y-65648747D01*
X54500000Y-65881943D01*
X54500000Y-66118056D01*
X54536934Y-66351252D01*
X54536935Y-66351256D01*
X54609892Y-66575793D01*
X54609894Y-66575796D01*
X54717083Y-66786168D01*
X54759616Y-66844709D01*
X54778523Y-66902900D01*
X54759616Y-66961091D01*
X54710116Y-66997055D01*
X54679523Y-67001900D01*
X52386598Y-67001900D01*
X52328407Y-66982993D01*
X52292443Y-66933493D01*
X52290928Y-66888083D01*
X52289120Y-66887866D01*
X52290700Y-66874710D01*
X52300500Y-66793102D01*
X52300500Y-65206898D01*
X52289877Y-65118436D01*
X52255557Y-65031406D01*
X52234362Y-64977660D01*
X52234361Y-64977659D01*
X52234361Y-64977658D01*
X52142922Y-64857078D01*
X52086366Y-64814189D01*
X52083263Y-64811396D01*
X52069947Y-64788338D01*
X52054738Y-64766476D01*
X52053848Y-64760460D01*
X52052665Y-64758411D01*
X52053030Y-64754930D01*
X52050500Y-64737819D01*
X52050500Y-63649500D01*
X52069407Y-63591309D01*
X52118907Y-63555345D01*
X52149500Y-63550500D01*
X59957922Y-63550500D01*
X60016113Y-63569407D01*
G37*
%TD.AperFunction*%
%TD*%
M02*
