%TF.GenerationSoftware,KiCad,Pcbnew,10.0.5*%
%TF.CreationDate,2026-09-10T11:57:11+07:00*%
%TF.ProjectId,vsmart-module-esp32-s3-mini,76736d61-7274-42d6-9d6f-64756c652d65,rev?*%
%TF.SameCoordinates,Original*%
%TF.FileFunction,Legend,Top*%
%TF.FilePolarity,Positive*%
%FSLAX46Y46*%
G04 Gerber Fmt 4.6, Leading zero omitted, Abs format (unit mm)*
G04 Created by KiCad (PCBNEW 10.0.5) date 2026-09-10 11:57:11*
%MOMM*%
%LPD*%
G01*
G04 APERTURE LIST*
%ADD10C,0.130000*%
%ADD11C,0.150000*%
%ADD12C,0.170000*%
%ADD13C,0.100000*%
%ADD14C,0.127000*%
%ADD15C,0.120000*%
%ADD16C,0.200000*%
G04 APERTURE END LIST*
D10*
X31390476Y-27363335D02*
X31390476Y-26563335D01*
X31390476Y-26563335D02*
X31657142Y-27134763D01*
X31657142Y-27134763D02*
X31923809Y-26563335D01*
X31923809Y-26563335D02*
X31923809Y-27363335D01*
X32304762Y-27363335D02*
X32304762Y-26563335D01*
X32304762Y-26563335D02*
X32609524Y-26563335D01*
X32609524Y-26563335D02*
X32685714Y-26601430D01*
X32685714Y-26601430D02*
X32723809Y-26639525D01*
X32723809Y-26639525D02*
X32761905Y-26715716D01*
X32761905Y-26715716D02*
X32761905Y-26830001D01*
X32761905Y-26830001D02*
X32723809Y-26906192D01*
X32723809Y-26906192D02*
X32685714Y-26944287D01*
X32685714Y-26944287D02*
X32609524Y-26982382D01*
X32609524Y-26982382D02*
X32304762Y-26982382D01*
X33104762Y-26563335D02*
X33104762Y-27210954D01*
X33104762Y-27210954D02*
X33142857Y-27287144D01*
X33142857Y-27287144D02*
X33180952Y-27325240D01*
X33180952Y-27325240D02*
X33257143Y-27363335D01*
X33257143Y-27363335D02*
X33409524Y-27363335D01*
X33409524Y-27363335D02*
X33485714Y-27325240D01*
X33485714Y-27325240D02*
X33523809Y-27287144D01*
X33523809Y-27287144D02*
X33561905Y-27210954D01*
X33561905Y-27210954D02*
X33561905Y-26563335D01*
X34285714Y-26563335D02*
X34133333Y-26563335D01*
X34133333Y-26563335D02*
X34057142Y-26601430D01*
X34057142Y-26601430D02*
X34019047Y-26639525D01*
X34019047Y-26639525D02*
X33942857Y-26753811D01*
X33942857Y-26753811D02*
X33904761Y-26906192D01*
X33904761Y-26906192D02*
X33904761Y-27210954D01*
X33904761Y-27210954D02*
X33942857Y-27287144D01*
X33942857Y-27287144D02*
X33980952Y-27325240D01*
X33980952Y-27325240D02*
X34057142Y-27363335D01*
X34057142Y-27363335D02*
X34209523Y-27363335D01*
X34209523Y-27363335D02*
X34285714Y-27325240D01*
X34285714Y-27325240D02*
X34323809Y-27287144D01*
X34323809Y-27287144D02*
X34361904Y-27210954D01*
X34361904Y-27210954D02*
X34361904Y-27020478D01*
X34361904Y-27020478D02*
X34323809Y-26944287D01*
X34323809Y-26944287D02*
X34285714Y-26906192D01*
X34285714Y-26906192D02*
X34209523Y-26868097D01*
X34209523Y-26868097D02*
X34057142Y-26868097D01*
X34057142Y-26868097D02*
X33980952Y-26906192D01*
X33980952Y-26906192D02*
X33942857Y-26944287D01*
X33942857Y-26944287D02*
X33904761Y-27020478D01*
X34857143Y-26563335D02*
X34933333Y-26563335D01*
X34933333Y-26563335D02*
X35009524Y-26601430D01*
X35009524Y-26601430D02*
X35047619Y-26639525D01*
X35047619Y-26639525D02*
X35085714Y-26715716D01*
X35085714Y-26715716D02*
X35123809Y-26868097D01*
X35123809Y-26868097D02*
X35123809Y-27058573D01*
X35123809Y-27058573D02*
X35085714Y-27210954D01*
X35085714Y-27210954D02*
X35047619Y-27287144D01*
X35047619Y-27287144D02*
X35009524Y-27325240D01*
X35009524Y-27325240D02*
X34933333Y-27363335D01*
X34933333Y-27363335D02*
X34857143Y-27363335D01*
X34857143Y-27363335D02*
X34780952Y-27325240D01*
X34780952Y-27325240D02*
X34742857Y-27287144D01*
X34742857Y-27287144D02*
X34704762Y-27210954D01*
X34704762Y-27210954D02*
X34666666Y-27058573D01*
X34666666Y-27058573D02*
X34666666Y-26868097D01*
X34666666Y-26868097D02*
X34704762Y-26715716D01*
X34704762Y-26715716D02*
X34742857Y-26639525D01*
X34742857Y-26639525D02*
X34780952Y-26601430D01*
X34780952Y-26601430D02*
X34857143Y-26563335D01*
X35847619Y-26563335D02*
X35466667Y-26563335D01*
X35466667Y-26563335D02*
X35428571Y-26944287D01*
X35428571Y-26944287D02*
X35466667Y-26906192D01*
X35466667Y-26906192D02*
X35542857Y-26868097D01*
X35542857Y-26868097D02*
X35733333Y-26868097D01*
X35733333Y-26868097D02*
X35809524Y-26906192D01*
X35809524Y-26906192D02*
X35847619Y-26944287D01*
X35847619Y-26944287D02*
X35885714Y-27020478D01*
X35885714Y-27020478D02*
X35885714Y-27210954D01*
X35885714Y-27210954D02*
X35847619Y-27287144D01*
X35847619Y-27287144D02*
X35809524Y-27325240D01*
X35809524Y-27325240D02*
X35733333Y-27363335D01*
X35733333Y-27363335D02*
X35542857Y-27363335D01*
X35542857Y-27363335D02*
X35466667Y-27325240D01*
X35466667Y-27325240D02*
X35428571Y-27287144D01*
X36380953Y-26563335D02*
X36457143Y-26563335D01*
X36457143Y-26563335D02*
X36533334Y-26601430D01*
X36533334Y-26601430D02*
X36571429Y-26639525D01*
X36571429Y-26639525D02*
X36609524Y-26715716D01*
X36609524Y-26715716D02*
X36647619Y-26868097D01*
X36647619Y-26868097D02*
X36647619Y-27058573D01*
X36647619Y-27058573D02*
X36609524Y-27210954D01*
X36609524Y-27210954D02*
X36571429Y-27287144D01*
X36571429Y-27287144D02*
X36533334Y-27325240D01*
X36533334Y-27325240D02*
X36457143Y-27363335D01*
X36457143Y-27363335D02*
X36380953Y-27363335D01*
X36380953Y-27363335D02*
X36304762Y-27325240D01*
X36304762Y-27325240D02*
X36266667Y-27287144D01*
X36266667Y-27287144D02*
X36228572Y-27210954D01*
X36228572Y-27210954D02*
X36190476Y-27058573D01*
X36190476Y-27058573D02*
X36190476Y-26868097D01*
X36190476Y-26868097D02*
X36228572Y-26715716D01*
X36228572Y-26715716D02*
X36266667Y-26639525D01*
X36266667Y-26639525D02*
X36304762Y-26601430D01*
X36304762Y-26601430D02*
X36380953Y-26563335D01*
X35028571Y-54444287D02*
X35295237Y-54444287D01*
X35409523Y-54863335D02*
X35028571Y-54863335D01*
X35028571Y-54863335D02*
X35028571Y-54063335D01*
X35028571Y-54063335D02*
X35409523Y-54063335D01*
X35714285Y-54825240D02*
X35828571Y-54863335D01*
X35828571Y-54863335D02*
X36019047Y-54863335D01*
X36019047Y-54863335D02*
X36095238Y-54825240D01*
X36095238Y-54825240D02*
X36133333Y-54787144D01*
X36133333Y-54787144D02*
X36171428Y-54710954D01*
X36171428Y-54710954D02*
X36171428Y-54634763D01*
X36171428Y-54634763D02*
X36133333Y-54558573D01*
X36133333Y-54558573D02*
X36095238Y-54520478D01*
X36095238Y-54520478D02*
X36019047Y-54482382D01*
X36019047Y-54482382D02*
X35866666Y-54444287D01*
X35866666Y-54444287D02*
X35790476Y-54406192D01*
X35790476Y-54406192D02*
X35752381Y-54368097D01*
X35752381Y-54368097D02*
X35714285Y-54291906D01*
X35714285Y-54291906D02*
X35714285Y-54215716D01*
X35714285Y-54215716D02*
X35752381Y-54139525D01*
X35752381Y-54139525D02*
X35790476Y-54101430D01*
X35790476Y-54101430D02*
X35866666Y-54063335D01*
X35866666Y-54063335D02*
X36057143Y-54063335D01*
X36057143Y-54063335D02*
X36171428Y-54101430D01*
X36514286Y-54863335D02*
X36514286Y-54063335D01*
X36514286Y-54063335D02*
X36819048Y-54063335D01*
X36819048Y-54063335D02*
X36895238Y-54101430D01*
X36895238Y-54101430D02*
X36933333Y-54139525D01*
X36933333Y-54139525D02*
X36971429Y-54215716D01*
X36971429Y-54215716D02*
X36971429Y-54330001D01*
X36971429Y-54330001D02*
X36933333Y-54406192D01*
X36933333Y-54406192D02*
X36895238Y-54444287D01*
X36895238Y-54444287D02*
X36819048Y-54482382D01*
X36819048Y-54482382D02*
X36514286Y-54482382D01*
X37238095Y-54063335D02*
X37733333Y-54063335D01*
X37733333Y-54063335D02*
X37466667Y-54368097D01*
X37466667Y-54368097D02*
X37580952Y-54368097D01*
X37580952Y-54368097D02*
X37657143Y-54406192D01*
X37657143Y-54406192D02*
X37695238Y-54444287D01*
X37695238Y-54444287D02*
X37733333Y-54520478D01*
X37733333Y-54520478D02*
X37733333Y-54710954D01*
X37733333Y-54710954D02*
X37695238Y-54787144D01*
X37695238Y-54787144D02*
X37657143Y-54825240D01*
X37657143Y-54825240D02*
X37580952Y-54863335D01*
X37580952Y-54863335D02*
X37352381Y-54863335D01*
X37352381Y-54863335D02*
X37276190Y-54825240D01*
X37276190Y-54825240D02*
X37238095Y-54787144D01*
X38038095Y-54139525D02*
X38076191Y-54101430D01*
X38076191Y-54101430D02*
X38152381Y-54063335D01*
X38152381Y-54063335D02*
X38342857Y-54063335D01*
X38342857Y-54063335D02*
X38419048Y-54101430D01*
X38419048Y-54101430D02*
X38457143Y-54139525D01*
X38457143Y-54139525D02*
X38495238Y-54215716D01*
X38495238Y-54215716D02*
X38495238Y-54291906D01*
X38495238Y-54291906D02*
X38457143Y-54406192D01*
X38457143Y-54406192D02*
X38000000Y-54863335D01*
X38000000Y-54863335D02*
X38495238Y-54863335D01*
X38838096Y-54558573D02*
X39447620Y-54558573D01*
X39790476Y-54825240D02*
X39904762Y-54863335D01*
X39904762Y-54863335D02*
X40095238Y-54863335D01*
X40095238Y-54863335D02*
X40171429Y-54825240D01*
X40171429Y-54825240D02*
X40209524Y-54787144D01*
X40209524Y-54787144D02*
X40247619Y-54710954D01*
X40247619Y-54710954D02*
X40247619Y-54634763D01*
X40247619Y-54634763D02*
X40209524Y-54558573D01*
X40209524Y-54558573D02*
X40171429Y-54520478D01*
X40171429Y-54520478D02*
X40095238Y-54482382D01*
X40095238Y-54482382D02*
X39942857Y-54444287D01*
X39942857Y-54444287D02*
X39866667Y-54406192D01*
X39866667Y-54406192D02*
X39828572Y-54368097D01*
X39828572Y-54368097D02*
X39790476Y-54291906D01*
X39790476Y-54291906D02*
X39790476Y-54215716D01*
X39790476Y-54215716D02*
X39828572Y-54139525D01*
X39828572Y-54139525D02*
X39866667Y-54101430D01*
X39866667Y-54101430D02*
X39942857Y-54063335D01*
X39942857Y-54063335D02*
X40133334Y-54063335D01*
X40133334Y-54063335D02*
X40247619Y-54101430D01*
X40514286Y-54063335D02*
X41009524Y-54063335D01*
X41009524Y-54063335D02*
X40742858Y-54368097D01*
X40742858Y-54368097D02*
X40857143Y-54368097D01*
X40857143Y-54368097D02*
X40933334Y-54406192D01*
X40933334Y-54406192D02*
X40971429Y-54444287D01*
X40971429Y-54444287D02*
X41009524Y-54520478D01*
X41009524Y-54520478D02*
X41009524Y-54710954D01*
X41009524Y-54710954D02*
X40971429Y-54787144D01*
X40971429Y-54787144D02*
X40933334Y-54825240D01*
X40933334Y-54825240D02*
X40857143Y-54863335D01*
X40857143Y-54863335D02*
X40628572Y-54863335D01*
X40628572Y-54863335D02*
X40552381Y-54825240D01*
X40552381Y-54825240D02*
X40514286Y-54787144D01*
X66838095Y-21763335D02*
X66571428Y-21382382D01*
X66380952Y-21763335D02*
X66380952Y-20963335D01*
X66380952Y-20963335D02*
X66685714Y-20963335D01*
X66685714Y-20963335D02*
X66761904Y-21001430D01*
X66761904Y-21001430D02*
X66799999Y-21039525D01*
X66799999Y-21039525D02*
X66838095Y-21115716D01*
X66838095Y-21115716D02*
X66838095Y-21230001D01*
X66838095Y-21230001D02*
X66799999Y-21306192D01*
X66799999Y-21306192D02*
X66761904Y-21344287D01*
X66761904Y-21344287D02*
X66685714Y-21382382D01*
X66685714Y-21382382D02*
X66380952Y-21382382D01*
X67180952Y-21344287D02*
X67447618Y-21344287D01*
X67561904Y-21763335D02*
X67180952Y-21763335D01*
X67180952Y-21763335D02*
X67180952Y-20963335D01*
X67180952Y-20963335D02*
X67561904Y-20963335D01*
X67790476Y-20963335D02*
X68057143Y-21763335D01*
X68057143Y-21763335D02*
X68323809Y-20963335D01*
X69466666Y-21344287D02*
X69580952Y-21382382D01*
X69580952Y-21382382D02*
X69619047Y-21420478D01*
X69619047Y-21420478D02*
X69657143Y-21496668D01*
X69657143Y-21496668D02*
X69657143Y-21610954D01*
X69657143Y-21610954D02*
X69619047Y-21687144D01*
X69619047Y-21687144D02*
X69580952Y-21725240D01*
X69580952Y-21725240D02*
X69504762Y-21763335D01*
X69504762Y-21763335D02*
X69200000Y-21763335D01*
X69200000Y-21763335D02*
X69200000Y-20963335D01*
X69200000Y-20963335D02*
X69466666Y-20963335D01*
X69466666Y-20963335D02*
X69542857Y-21001430D01*
X69542857Y-21001430D02*
X69580952Y-21039525D01*
X69580952Y-21039525D02*
X69619047Y-21115716D01*
X69619047Y-21115716D02*
X69619047Y-21191906D01*
X69619047Y-21191906D02*
X69580952Y-21268097D01*
X69580952Y-21268097D02*
X69542857Y-21306192D01*
X69542857Y-21306192D02*
X69466666Y-21344287D01*
X69466666Y-21344287D02*
X69200000Y-21344287D01*
X69590475Y-25601430D02*
X69514285Y-25563335D01*
X69514285Y-25563335D02*
X69399999Y-25563335D01*
X69399999Y-25563335D02*
X69285713Y-25601430D01*
X69285713Y-25601430D02*
X69209523Y-25677620D01*
X69209523Y-25677620D02*
X69171428Y-25753811D01*
X69171428Y-25753811D02*
X69133332Y-25906192D01*
X69133332Y-25906192D02*
X69133332Y-26020478D01*
X69133332Y-26020478D02*
X69171428Y-26172859D01*
X69171428Y-26172859D02*
X69209523Y-26249049D01*
X69209523Y-26249049D02*
X69285713Y-26325240D01*
X69285713Y-26325240D02*
X69399999Y-26363335D01*
X69399999Y-26363335D02*
X69476190Y-26363335D01*
X69476190Y-26363335D02*
X69590475Y-26325240D01*
X69590475Y-26325240D02*
X69628571Y-26287144D01*
X69628571Y-26287144D02*
X69628571Y-26020478D01*
X69628571Y-26020478D02*
X69476190Y-26020478D01*
X69971428Y-26363335D02*
X69971428Y-25563335D01*
X69971428Y-25563335D02*
X70276190Y-25563335D01*
X70276190Y-25563335D02*
X70352380Y-25601430D01*
X70352380Y-25601430D02*
X70390475Y-25639525D01*
X70390475Y-25639525D02*
X70428571Y-25715716D01*
X70428571Y-25715716D02*
X70428571Y-25830001D01*
X70428571Y-25830001D02*
X70390475Y-25906192D01*
X70390475Y-25906192D02*
X70352380Y-25944287D01*
X70352380Y-25944287D02*
X70276190Y-25982382D01*
X70276190Y-25982382D02*
X69971428Y-25982382D01*
X70733332Y-26325240D02*
X70847618Y-26363335D01*
X70847618Y-26363335D02*
X71038094Y-26363335D01*
X71038094Y-26363335D02*
X71114285Y-26325240D01*
X71114285Y-26325240D02*
X71152380Y-26287144D01*
X71152380Y-26287144D02*
X71190475Y-26210954D01*
X71190475Y-26210954D02*
X71190475Y-26134763D01*
X71190475Y-26134763D02*
X71152380Y-26058573D01*
X71152380Y-26058573D02*
X71114285Y-26020478D01*
X71114285Y-26020478D02*
X71038094Y-25982382D01*
X71038094Y-25982382D02*
X70885713Y-25944287D01*
X70885713Y-25944287D02*
X70809523Y-25906192D01*
X70809523Y-25906192D02*
X70771428Y-25868097D01*
X70771428Y-25868097D02*
X70733332Y-25791906D01*
X70733332Y-25791906D02*
X70733332Y-25715716D01*
X70733332Y-25715716D02*
X70771428Y-25639525D01*
X70771428Y-25639525D02*
X70809523Y-25601430D01*
X70809523Y-25601430D02*
X70885713Y-25563335D01*
X70885713Y-25563335D02*
X71076190Y-25563335D01*
X71076190Y-25563335D02*
X71190475Y-25601430D01*
X72142857Y-26363335D02*
X72142857Y-25563335D01*
X72142857Y-25563335D02*
X72600000Y-26363335D01*
X72600000Y-26363335D02*
X72600000Y-25563335D01*
X72980952Y-25944287D02*
X73247618Y-25944287D01*
X73361904Y-26363335D02*
X72980952Y-26363335D01*
X72980952Y-26363335D02*
X72980952Y-25563335D01*
X72980952Y-25563335D02*
X73361904Y-25563335D01*
X73857143Y-25563335D02*
X74009524Y-25563335D01*
X74009524Y-25563335D02*
X74085714Y-25601430D01*
X74085714Y-25601430D02*
X74161905Y-25677620D01*
X74161905Y-25677620D02*
X74200000Y-25830001D01*
X74200000Y-25830001D02*
X74200000Y-26096668D01*
X74200000Y-26096668D02*
X74161905Y-26249049D01*
X74161905Y-26249049D02*
X74085714Y-26325240D01*
X74085714Y-26325240D02*
X74009524Y-26363335D01*
X74009524Y-26363335D02*
X73857143Y-26363335D01*
X73857143Y-26363335D02*
X73780952Y-26325240D01*
X73780952Y-26325240D02*
X73704762Y-26249049D01*
X73704762Y-26249049D02*
X73666666Y-26096668D01*
X73666666Y-26096668D02*
X73666666Y-25830001D01*
X73666666Y-25830001D02*
X73704762Y-25677620D01*
X73704762Y-25677620D02*
X73780952Y-25601430D01*
X73780952Y-25601430D02*
X73857143Y-25563335D01*
X74542857Y-26058573D02*
X75152381Y-26058573D01*
X75457142Y-25563335D02*
X75990476Y-25563335D01*
X75990476Y-25563335D02*
X75647618Y-26363335D01*
X76295238Y-26363335D02*
X76295238Y-25563335D01*
X76295238Y-25563335D02*
X76561904Y-26134763D01*
X76561904Y-26134763D02*
X76828571Y-25563335D01*
X76828571Y-25563335D02*
X76828571Y-26363335D01*
X73066666Y-81725240D02*
X73180952Y-81763335D01*
X73180952Y-81763335D02*
X73371428Y-81763335D01*
X73371428Y-81763335D02*
X73447619Y-81725240D01*
X73447619Y-81725240D02*
X73485714Y-81687144D01*
X73485714Y-81687144D02*
X73523809Y-81610954D01*
X73523809Y-81610954D02*
X73523809Y-81534763D01*
X73523809Y-81534763D02*
X73485714Y-81458573D01*
X73485714Y-81458573D02*
X73447619Y-81420478D01*
X73447619Y-81420478D02*
X73371428Y-81382382D01*
X73371428Y-81382382D02*
X73219047Y-81344287D01*
X73219047Y-81344287D02*
X73142857Y-81306192D01*
X73142857Y-81306192D02*
X73104762Y-81268097D01*
X73104762Y-81268097D02*
X73066666Y-81191906D01*
X73066666Y-81191906D02*
X73066666Y-81115716D01*
X73066666Y-81115716D02*
X73104762Y-81039525D01*
X73104762Y-81039525D02*
X73142857Y-81001430D01*
X73142857Y-81001430D02*
X73219047Y-80963335D01*
X73219047Y-80963335D02*
X73409524Y-80963335D01*
X73409524Y-80963335D02*
X73523809Y-81001430D01*
X73866667Y-81763335D02*
X73866667Y-80963335D01*
X74247619Y-81763335D02*
X74247619Y-80963335D01*
X74247619Y-80963335D02*
X74514285Y-81534763D01*
X74514285Y-81534763D02*
X74780952Y-80963335D01*
X74780952Y-80963335D02*
X74780952Y-81763335D01*
X76152381Y-80963335D02*
X75771429Y-80963335D01*
X75771429Y-80963335D02*
X75733333Y-81344287D01*
X75733333Y-81344287D02*
X75771429Y-81306192D01*
X75771429Y-81306192D02*
X75847619Y-81268097D01*
X75847619Y-81268097D02*
X76038095Y-81268097D01*
X76038095Y-81268097D02*
X76114286Y-81306192D01*
X76114286Y-81306192D02*
X76152381Y-81344287D01*
X76152381Y-81344287D02*
X76190476Y-81420478D01*
X76190476Y-81420478D02*
X76190476Y-81610954D01*
X76190476Y-81610954D02*
X76152381Y-81687144D01*
X76152381Y-81687144D02*
X76114286Y-81725240D01*
X76114286Y-81725240D02*
X76038095Y-81763335D01*
X76038095Y-81763335D02*
X75847619Y-81763335D01*
X75847619Y-81763335D02*
X75771429Y-81725240D01*
X75771429Y-81725240D02*
X75733333Y-81687144D01*
X76419048Y-80963335D02*
X76685715Y-81763335D01*
X76685715Y-81763335D02*
X76952381Y-80963335D01*
X77790476Y-81039525D02*
X77828572Y-81001430D01*
X77828572Y-81001430D02*
X77904762Y-80963335D01*
X77904762Y-80963335D02*
X78095238Y-80963335D01*
X78095238Y-80963335D02*
X78171429Y-81001430D01*
X78171429Y-81001430D02*
X78209524Y-81039525D01*
X78209524Y-81039525D02*
X78247619Y-81115716D01*
X78247619Y-81115716D02*
X78247619Y-81191906D01*
X78247619Y-81191906D02*
X78209524Y-81306192D01*
X78209524Y-81306192D02*
X77752381Y-81763335D01*
X77752381Y-81763335D02*
X78247619Y-81763335D01*
X78552381Y-81534763D02*
X78933334Y-81534763D01*
X78476191Y-81763335D02*
X78742858Y-80963335D01*
X78742858Y-80963335D02*
X79009524Y-81763335D01*
X75833333Y-27563335D02*
X76100000Y-28363335D01*
X76100000Y-28363335D02*
X76366666Y-27563335D01*
X77090476Y-28287144D02*
X77052380Y-28325240D01*
X77052380Y-28325240D02*
X76938095Y-28363335D01*
X76938095Y-28363335D02*
X76861904Y-28363335D01*
X76861904Y-28363335D02*
X76747618Y-28325240D01*
X76747618Y-28325240D02*
X76671428Y-28249049D01*
X76671428Y-28249049D02*
X76633333Y-28172859D01*
X76633333Y-28172859D02*
X76595237Y-28020478D01*
X76595237Y-28020478D02*
X76595237Y-27906192D01*
X76595237Y-27906192D02*
X76633333Y-27753811D01*
X76633333Y-27753811D02*
X76671428Y-27677620D01*
X76671428Y-27677620D02*
X76747618Y-27601430D01*
X76747618Y-27601430D02*
X76861904Y-27563335D01*
X76861904Y-27563335D02*
X76938095Y-27563335D01*
X76938095Y-27563335D02*
X77052380Y-27601430D01*
X77052380Y-27601430D02*
X77090476Y-27639525D01*
X77890476Y-28287144D02*
X77852380Y-28325240D01*
X77852380Y-28325240D02*
X77738095Y-28363335D01*
X77738095Y-28363335D02*
X77661904Y-28363335D01*
X77661904Y-28363335D02*
X77547618Y-28325240D01*
X77547618Y-28325240D02*
X77471428Y-28249049D01*
X77471428Y-28249049D02*
X77433333Y-28172859D01*
X77433333Y-28172859D02*
X77395237Y-28020478D01*
X77395237Y-28020478D02*
X77395237Y-27906192D01*
X77395237Y-27906192D02*
X77433333Y-27753811D01*
X77433333Y-27753811D02*
X77471428Y-27677620D01*
X77471428Y-27677620D02*
X77547618Y-27601430D01*
X77547618Y-27601430D02*
X77661904Y-27563335D01*
X77661904Y-27563335D02*
X77738095Y-27563335D01*
X77738095Y-27563335D02*
X77852380Y-27601430D01*
X77852380Y-27601430D02*
X77890476Y-27639525D01*
X78233333Y-27944287D02*
X78842857Y-27944287D01*
X78842857Y-28172859D02*
X78233333Y-28172859D01*
X79147618Y-27563335D02*
X79642856Y-27563335D01*
X79642856Y-27563335D02*
X79376190Y-27868097D01*
X79376190Y-27868097D02*
X79490475Y-27868097D01*
X79490475Y-27868097D02*
X79566666Y-27906192D01*
X79566666Y-27906192D02*
X79604761Y-27944287D01*
X79604761Y-27944287D02*
X79642856Y-28020478D01*
X79642856Y-28020478D02*
X79642856Y-28210954D01*
X79642856Y-28210954D02*
X79604761Y-28287144D01*
X79604761Y-28287144D02*
X79566666Y-28325240D01*
X79566666Y-28325240D02*
X79490475Y-28363335D01*
X79490475Y-28363335D02*
X79261904Y-28363335D01*
X79261904Y-28363335D02*
X79185713Y-28325240D01*
X79185713Y-28325240D02*
X79147618Y-28287144D01*
X79871428Y-27563335D02*
X80138095Y-28363335D01*
X80138095Y-28363335D02*
X80404761Y-27563335D01*
X80595237Y-27563335D02*
X81090475Y-27563335D01*
X81090475Y-27563335D02*
X80823809Y-27868097D01*
X80823809Y-27868097D02*
X80938094Y-27868097D01*
X80938094Y-27868097D02*
X81014285Y-27906192D01*
X81014285Y-27906192D02*
X81052380Y-27944287D01*
X81052380Y-27944287D02*
X81090475Y-28020478D01*
X81090475Y-28020478D02*
X81090475Y-28210954D01*
X81090475Y-28210954D02*
X81052380Y-28287144D01*
X81052380Y-28287144D02*
X81014285Y-28325240D01*
X81014285Y-28325240D02*
X80938094Y-28363335D01*
X80938094Y-28363335D02*
X80709523Y-28363335D01*
X80709523Y-28363335D02*
X80633332Y-28325240D01*
X80633332Y-28325240D02*
X80595237Y-28287144D01*
D11*
X28685713Y-20665700D02*
X29371428Y-20665700D01*
X29028570Y-21008557D02*
X29028570Y-20322842D01*
X30228571Y-20108557D02*
X29799999Y-20108557D01*
X29799999Y-20108557D02*
X29757142Y-20537128D01*
X29757142Y-20537128D02*
X29799999Y-20494271D01*
X29799999Y-20494271D02*
X29885714Y-20451414D01*
X29885714Y-20451414D02*
X30099999Y-20451414D01*
X30099999Y-20451414D02*
X30185714Y-20494271D01*
X30185714Y-20494271D02*
X30228571Y-20537128D01*
X30228571Y-20537128D02*
X30271428Y-20622842D01*
X30271428Y-20622842D02*
X30271428Y-20837128D01*
X30271428Y-20837128D02*
X30228571Y-20922842D01*
X30228571Y-20922842D02*
X30185714Y-20965700D01*
X30185714Y-20965700D02*
X30099999Y-21008557D01*
X30099999Y-21008557D02*
X29885714Y-21008557D01*
X29885714Y-21008557D02*
X29799999Y-20965700D01*
X29799999Y-20965700D02*
X29757142Y-20922842D01*
X30528571Y-20108557D02*
X30828571Y-21008557D01*
X30828571Y-21008557D02*
X31128571Y-20108557D01*
X32585714Y-21008557D02*
X32071428Y-21008557D01*
X32328571Y-21008557D02*
X32328571Y-20108557D01*
X32328571Y-20108557D02*
X32242857Y-20237128D01*
X32242857Y-20237128D02*
X32157142Y-20322842D01*
X32157142Y-20322842D02*
X32071428Y-20365700D01*
X32928571Y-20751414D02*
X33357143Y-20751414D01*
X32842857Y-21008557D02*
X33142857Y-20108557D01*
X33142857Y-20108557D02*
X33442857Y-21008557D01*
X37714286Y-20151414D02*
X37628572Y-20108557D01*
X37628572Y-20108557D02*
X37500000Y-20108557D01*
X37500000Y-20108557D02*
X37371429Y-20151414D01*
X37371429Y-20151414D02*
X37285714Y-20237128D01*
X37285714Y-20237128D02*
X37242857Y-20322842D01*
X37242857Y-20322842D02*
X37200000Y-20494271D01*
X37200000Y-20494271D02*
X37200000Y-20622842D01*
X37200000Y-20622842D02*
X37242857Y-20794271D01*
X37242857Y-20794271D02*
X37285714Y-20879985D01*
X37285714Y-20879985D02*
X37371429Y-20965700D01*
X37371429Y-20965700D02*
X37500000Y-21008557D01*
X37500000Y-21008557D02*
X37585714Y-21008557D01*
X37585714Y-21008557D02*
X37714286Y-20965700D01*
X37714286Y-20965700D02*
X37757143Y-20922842D01*
X37757143Y-20922842D02*
X37757143Y-20622842D01*
X37757143Y-20622842D02*
X37585714Y-20622842D01*
X38142857Y-21008557D02*
X38142857Y-20108557D01*
X38142857Y-20108557D02*
X38657143Y-21008557D01*
X38657143Y-21008557D02*
X38657143Y-20108557D01*
X39085714Y-21008557D02*
X39085714Y-20108557D01*
X39085714Y-20108557D02*
X39300000Y-20108557D01*
X39300000Y-20108557D02*
X39428571Y-20151414D01*
X39428571Y-20151414D02*
X39514286Y-20237128D01*
X39514286Y-20237128D02*
X39557143Y-20322842D01*
X39557143Y-20322842D02*
X39600000Y-20494271D01*
X39600000Y-20494271D02*
X39600000Y-20622842D01*
X39600000Y-20622842D02*
X39557143Y-20794271D01*
X39557143Y-20794271D02*
X39514286Y-20879985D01*
X39514286Y-20879985D02*
X39428571Y-20965700D01*
X39428571Y-20965700D02*
X39300000Y-21008557D01*
X39300000Y-21008557D02*
X39085714Y-21008557D01*
X48185713Y-81115700D02*
X48871428Y-81115700D01*
X48528570Y-81458557D02*
X48528570Y-80772842D01*
X49728571Y-80558557D02*
X49299999Y-80558557D01*
X49299999Y-80558557D02*
X49257142Y-80987128D01*
X49257142Y-80987128D02*
X49299999Y-80944271D01*
X49299999Y-80944271D02*
X49385714Y-80901414D01*
X49385714Y-80901414D02*
X49599999Y-80901414D01*
X49599999Y-80901414D02*
X49685714Y-80944271D01*
X49685714Y-80944271D02*
X49728571Y-80987128D01*
X49728571Y-80987128D02*
X49771428Y-81072842D01*
X49771428Y-81072842D02*
X49771428Y-81287128D01*
X49771428Y-81287128D02*
X49728571Y-81372842D01*
X49728571Y-81372842D02*
X49685714Y-81415700D01*
X49685714Y-81415700D02*
X49599999Y-81458557D01*
X49599999Y-81458557D02*
X49385714Y-81458557D01*
X49385714Y-81458557D02*
X49299999Y-81415700D01*
X49299999Y-81415700D02*
X49257142Y-81372842D01*
X50028571Y-80558557D02*
X50328571Y-81458557D01*
X50328571Y-81458557D02*
X50628571Y-80558557D01*
X51571428Y-80644271D02*
X51614285Y-80601414D01*
X51614285Y-80601414D02*
X51700000Y-80558557D01*
X51700000Y-80558557D02*
X51914285Y-80558557D01*
X51914285Y-80558557D02*
X52000000Y-80601414D01*
X52000000Y-80601414D02*
X52042857Y-80644271D01*
X52042857Y-80644271D02*
X52085714Y-80729985D01*
X52085714Y-80729985D02*
X52085714Y-80815700D01*
X52085714Y-80815700D02*
X52042857Y-80944271D01*
X52042857Y-80944271D02*
X51528571Y-81458557D01*
X51528571Y-81458557D02*
X52085714Y-81458557D01*
X52428571Y-81201414D02*
X52857143Y-81201414D01*
X52342857Y-81458557D02*
X52642857Y-80558557D01*
X52642857Y-80558557D02*
X52942857Y-81458557D01*
X55214286Y-80601414D02*
X55128572Y-80558557D01*
X55128572Y-80558557D02*
X55000000Y-80558557D01*
X55000000Y-80558557D02*
X54871429Y-80601414D01*
X54871429Y-80601414D02*
X54785714Y-80687128D01*
X54785714Y-80687128D02*
X54742857Y-80772842D01*
X54742857Y-80772842D02*
X54700000Y-80944271D01*
X54700000Y-80944271D02*
X54700000Y-81072842D01*
X54700000Y-81072842D02*
X54742857Y-81244271D01*
X54742857Y-81244271D02*
X54785714Y-81329985D01*
X54785714Y-81329985D02*
X54871429Y-81415700D01*
X54871429Y-81415700D02*
X55000000Y-81458557D01*
X55000000Y-81458557D02*
X55085714Y-81458557D01*
X55085714Y-81458557D02*
X55214286Y-81415700D01*
X55214286Y-81415700D02*
X55257143Y-81372842D01*
X55257143Y-81372842D02*
X55257143Y-81072842D01*
X55257143Y-81072842D02*
X55085714Y-81072842D01*
X55642857Y-81458557D02*
X55642857Y-80558557D01*
X55642857Y-80558557D02*
X56157143Y-81458557D01*
X56157143Y-81458557D02*
X56157143Y-80558557D01*
X56585714Y-81458557D02*
X56585714Y-80558557D01*
X56585714Y-80558557D02*
X56800000Y-80558557D01*
X56800000Y-80558557D02*
X56928571Y-80601414D01*
X56928571Y-80601414D02*
X57014286Y-80687128D01*
X57014286Y-80687128D02*
X57057143Y-80772842D01*
X57057143Y-80772842D02*
X57100000Y-80944271D01*
X57100000Y-80944271D02*
X57100000Y-81072842D01*
X57100000Y-81072842D02*
X57057143Y-81244271D01*
X57057143Y-81244271D02*
X57014286Y-81329985D01*
X57014286Y-81329985D02*
X56928571Y-81415700D01*
X56928571Y-81415700D02*
X56800000Y-81458557D01*
X56800000Y-81458557D02*
X56585714Y-81458557D01*
D12*
X52573809Y-20800040D02*
X52940476Y-21900040D01*
X52940476Y-21900040D02*
X53307143Y-20800040D01*
X53621428Y-21847660D02*
X53778571Y-21900040D01*
X53778571Y-21900040D02*
X54040476Y-21900040D01*
X54040476Y-21900040D02*
X54145238Y-21847660D01*
X54145238Y-21847660D02*
X54197619Y-21795279D01*
X54197619Y-21795279D02*
X54250000Y-21690517D01*
X54250000Y-21690517D02*
X54250000Y-21585755D01*
X54250000Y-21585755D02*
X54197619Y-21480993D01*
X54197619Y-21480993D02*
X54145238Y-21428612D01*
X54145238Y-21428612D02*
X54040476Y-21376231D01*
X54040476Y-21376231D02*
X53830952Y-21323850D01*
X53830952Y-21323850D02*
X53726190Y-21271469D01*
X53726190Y-21271469D02*
X53673809Y-21219088D01*
X53673809Y-21219088D02*
X53621428Y-21114326D01*
X53621428Y-21114326D02*
X53621428Y-21009564D01*
X53621428Y-21009564D02*
X53673809Y-20904802D01*
X53673809Y-20904802D02*
X53726190Y-20852421D01*
X53726190Y-20852421D02*
X53830952Y-20800040D01*
X53830952Y-20800040D02*
X54092857Y-20800040D01*
X54092857Y-20800040D02*
X54250000Y-20852421D01*
X54721428Y-21900040D02*
X54721428Y-20800040D01*
X54721428Y-20800040D02*
X55088095Y-21585755D01*
X55088095Y-21585755D02*
X55454762Y-20800040D01*
X55454762Y-20800040D02*
X55454762Y-21900040D01*
X55926190Y-21585755D02*
X56450000Y-21585755D01*
X55821428Y-21900040D02*
X56188095Y-20800040D01*
X56188095Y-20800040D02*
X56554762Y-21900040D01*
X57550000Y-21900040D02*
X57183333Y-21376231D01*
X56921428Y-21900040D02*
X56921428Y-20800040D01*
X56921428Y-20800040D02*
X57340476Y-20800040D01*
X57340476Y-20800040D02*
X57445238Y-20852421D01*
X57445238Y-20852421D02*
X57497619Y-20904802D01*
X57497619Y-20904802D02*
X57550000Y-21009564D01*
X57550000Y-21009564D02*
X57550000Y-21166707D01*
X57550000Y-21166707D02*
X57497619Y-21271469D01*
X57497619Y-21271469D02*
X57445238Y-21323850D01*
X57445238Y-21323850D02*
X57340476Y-21376231D01*
X57340476Y-21376231D02*
X56921428Y-21376231D01*
X57864285Y-20800040D02*
X58492857Y-20800040D01*
X58178571Y-21900040D02*
X58178571Y-20800040D01*
X59645237Y-21847660D02*
X59802380Y-21900040D01*
X59802380Y-21900040D02*
X60064285Y-21900040D01*
X60064285Y-21900040D02*
X60169047Y-21847660D01*
X60169047Y-21847660D02*
X60221428Y-21795279D01*
X60221428Y-21795279D02*
X60273809Y-21690517D01*
X60273809Y-21690517D02*
X60273809Y-21585755D01*
X60273809Y-21585755D02*
X60221428Y-21480993D01*
X60221428Y-21480993D02*
X60169047Y-21428612D01*
X60169047Y-21428612D02*
X60064285Y-21376231D01*
X60064285Y-21376231D02*
X59854761Y-21323850D01*
X59854761Y-21323850D02*
X59749999Y-21271469D01*
X59749999Y-21271469D02*
X59697618Y-21219088D01*
X59697618Y-21219088D02*
X59645237Y-21114326D01*
X59645237Y-21114326D02*
X59645237Y-21009564D01*
X59645237Y-21009564D02*
X59697618Y-20904802D01*
X59697618Y-20904802D02*
X59749999Y-20852421D01*
X59749999Y-20852421D02*
X59854761Y-20800040D01*
X59854761Y-20800040D02*
X60116666Y-20800040D01*
X60116666Y-20800040D02*
X60273809Y-20852421D01*
X60640475Y-20800040D02*
X61321428Y-20800040D01*
X61321428Y-20800040D02*
X60954761Y-21219088D01*
X60954761Y-21219088D02*
X61111904Y-21219088D01*
X61111904Y-21219088D02*
X61216666Y-21271469D01*
X61216666Y-21271469D02*
X61269047Y-21323850D01*
X61269047Y-21323850D02*
X61321428Y-21428612D01*
X61321428Y-21428612D02*
X61321428Y-21690517D01*
X61321428Y-21690517D02*
X61269047Y-21795279D01*
X61269047Y-21795279D02*
X61216666Y-21847660D01*
X61216666Y-21847660D02*
X61111904Y-21900040D01*
X61111904Y-21900040D02*
X60797618Y-21900040D01*
X60797618Y-21900040D02*
X60692856Y-21847660D01*
X60692856Y-21847660D02*
X60640475Y-21795279D01*
D11*
X22666667Y-21304819D02*
X22666667Y-20304819D01*
X22666667Y-20304819D02*
X23000000Y-21019104D01*
X23000000Y-21019104D02*
X23333333Y-20304819D01*
X23333333Y-20304819D02*
X23333333Y-21304819D01*
X23809524Y-21304819D02*
X23809524Y-20304819D01*
X23809524Y-20781009D02*
X24380952Y-20781009D01*
X24380952Y-21304819D02*
X24380952Y-20304819D01*
X25380952Y-21304819D02*
X24809524Y-21304819D01*
X25095238Y-21304819D02*
X25095238Y-20304819D01*
X25095238Y-20304819D02*
X25000000Y-20447676D01*
X25000000Y-20447676D02*
X24904762Y-20542914D01*
X24904762Y-20542914D02*
X24809524Y-20590533D01*
X52866666Y-75374819D02*
X52866666Y-76089104D01*
X52866666Y-76089104D02*
X52819047Y-76231961D01*
X52819047Y-76231961D02*
X52723809Y-76327200D01*
X52723809Y-76327200D02*
X52580952Y-76374819D01*
X52580952Y-76374819D02*
X52485714Y-76374819D01*
X53295238Y-75470057D02*
X53342857Y-75422438D01*
X53342857Y-75422438D02*
X53438095Y-75374819D01*
X53438095Y-75374819D02*
X53676190Y-75374819D01*
X53676190Y-75374819D02*
X53771428Y-75422438D01*
X53771428Y-75422438D02*
X53819047Y-75470057D01*
X53819047Y-75470057D02*
X53866666Y-75565295D01*
X53866666Y-75565295D02*
X53866666Y-75660533D01*
X53866666Y-75660533D02*
X53819047Y-75803390D01*
X53819047Y-75803390D02*
X53247619Y-76374819D01*
X53247619Y-76374819D02*
X53866666Y-76374819D01*
X22166667Y-73304819D02*
X22166667Y-72304819D01*
X22166667Y-72304819D02*
X22500000Y-73019104D01*
X22500000Y-73019104D02*
X22833333Y-72304819D01*
X22833333Y-72304819D02*
X22833333Y-73304819D01*
X23309524Y-73304819D02*
X23309524Y-72304819D01*
X23309524Y-72781009D02*
X23880952Y-72781009D01*
X23880952Y-73304819D02*
X23880952Y-72304819D01*
X24261905Y-72304819D02*
X24880952Y-72304819D01*
X24880952Y-72304819D02*
X24547619Y-72685771D01*
X24547619Y-72685771D02*
X24690476Y-72685771D01*
X24690476Y-72685771D02*
X24785714Y-72733390D01*
X24785714Y-72733390D02*
X24833333Y-72781009D01*
X24833333Y-72781009D02*
X24880952Y-72876247D01*
X24880952Y-72876247D02*
X24880952Y-73114342D01*
X24880952Y-73114342D02*
X24833333Y-73209580D01*
X24833333Y-73209580D02*
X24785714Y-73257200D01*
X24785714Y-73257200D02*
X24690476Y-73304819D01*
X24690476Y-73304819D02*
X24404762Y-73304819D01*
X24404762Y-73304819D02*
X24309524Y-73257200D01*
X24309524Y-73257200D02*
X24261905Y-73209580D01*
X88666667Y-73304819D02*
X88666667Y-72304819D01*
X88666667Y-72304819D02*
X89000000Y-73019104D01*
X89000000Y-73019104D02*
X89333333Y-72304819D01*
X89333333Y-72304819D02*
X89333333Y-73304819D01*
X89809524Y-73304819D02*
X89809524Y-72304819D01*
X89809524Y-72781009D02*
X90380952Y-72781009D01*
X90380952Y-73304819D02*
X90380952Y-72304819D01*
X91285714Y-72638152D02*
X91285714Y-73304819D01*
X91047619Y-72257200D02*
X90809524Y-72971485D01*
X90809524Y-72971485D02*
X91428571Y-72971485D01*
X47083333Y-31109580D02*
X47035714Y-31157200D01*
X47035714Y-31157200D02*
X46892857Y-31204819D01*
X46892857Y-31204819D02*
X46797619Y-31204819D01*
X46797619Y-31204819D02*
X46654762Y-31157200D01*
X46654762Y-31157200D02*
X46559524Y-31061961D01*
X46559524Y-31061961D02*
X46511905Y-30966723D01*
X46511905Y-30966723D02*
X46464286Y-30776247D01*
X46464286Y-30776247D02*
X46464286Y-30633390D01*
X46464286Y-30633390D02*
X46511905Y-30442914D01*
X46511905Y-30442914D02*
X46559524Y-30347676D01*
X46559524Y-30347676D02*
X46654762Y-30252438D01*
X46654762Y-30252438D02*
X46797619Y-30204819D01*
X46797619Y-30204819D02*
X46892857Y-30204819D01*
X46892857Y-30204819D02*
X47035714Y-30252438D01*
X47035714Y-30252438D02*
X47083333Y-30300057D01*
X47416667Y-30204819D02*
X48035714Y-30204819D01*
X48035714Y-30204819D02*
X47702381Y-30585771D01*
X47702381Y-30585771D02*
X47845238Y-30585771D01*
X47845238Y-30585771D02*
X47940476Y-30633390D01*
X47940476Y-30633390D02*
X47988095Y-30681009D01*
X47988095Y-30681009D02*
X48035714Y-30776247D01*
X48035714Y-30776247D02*
X48035714Y-31014342D01*
X48035714Y-31014342D02*
X47988095Y-31109580D01*
X47988095Y-31109580D02*
X47940476Y-31157200D01*
X47940476Y-31157200D02*
X47845238Y-31204819D01*
X47845238Y-31204819D02*
X47559524Y-31204819D01*
X47559524Y-31204819D02*
X47464286Y-31157200D01*
X47464286Y-31157200D02*
X47416667Y-31109580D01*
X88666667Y-21304819D02*
X88666667Y-20304819D01*
X88666667Y-20304819D02*
X89000000Y-21019104D01*
X89000000Y-21019104D02*
X89333333Y-20304819D01*
X89333333Y-20304819D02*
X89333333Y-21304819D01*
X89809524Y-21304819D02*
X89809524Y-20304819D01*
X89809524Y-20781009D02*
X90380952Y-20781009D01*
X90380952Y-21304819D02*
X90380952Y-20304819D01*
X90809524Y-20400057D02*
X90857143Y-20352438D01*
X90857143Y-20352438D02*
X90952381Y-20304819D01*
X90952381Y-20304819D02*
X91190476Y-20304819D01*
X91190476Y-20304819D02*
X91285714Y-20352438D01*
X91285714Y-20352438D02*
X91333333Y-20400057D01*
X91333333Y-20400057D02*
X91380952Y-20495295D01*
X91380952Y-20495295D02*
X91380952Y-20590533D01*
X91380952Y-20590533D02*
X91333333Y-20733390D01*
X91333333Y-20733390D02*
X90761905Y-21304819D01*
X90761905Y-21304819D02*
X91380952Y-21304819D01*
X31163095Y-54119819D02*
X31163095Y-54929342D01*
X31163095Y-54929342D02*
X31210714Y-55024580D01*
X31210714Y-55024580D02*
X31258333Y-55072200D01*
X31258333Y-55072200D02*
X31353571Y-55119819D01*
X31353571Y-55119819D02*
X31544047Y-55119819D01*
X31544047Y-55119819D02*
X31639285Y-55072200D01*
X31639285Y-55072200D02*
X31686904Y-55024580D01*
X31686904Y-55024580D02*
X31734523Y-54929342D01*
X31734523Y-54929342D02*
X31734523Y-54119819D01*
X32734523Y-55119819D02*
X32163095Y-55119819D01*
X32448809Y-55119819D02*
X32448809Y-54119819D01*
X32448809Y-54119819D02*
X32353571Y-54262676D01*
X32353571Y-54262676D02*
X32258333Y-54357914D01*
X32258333Y-54357914D02*
X32163095Y-54405533D01*
X53333333Y-60109580D02*
X53285714Y-60157200D01*
X53285714Y-60157200D02*
X53142857Y-60204819D01*
X53142857Y-60204819D02*
X53047619Y-60204819D01*
X53047619Y-60204819D02*
X52904762Y-60157200D01*
X52904762Y-60157200D02*
X52809524Y-60061961D01*
X52809524Y-60061961D02*
X52761905Y-59966723D01*
X52761905Y-59966723D02*
X52714286Y-59776247D01*
X52714286Y-59776247D02*
X52714286Y-59633390D01*
X52714286Y-59633390D02*
X52761905Y-59442914D01*
X52761905Y-59442914D02*
X52809524Y-59347676D01*
X52809524Y-59347676D02*
X52904762Y-59252438D01*
X52904762Y-59252438D02*
X53047619Y-59204819D01*
X53047619Y-59204819D02*
X53142857Y-59204819D01*
X53142857Y-59204819D02*
X53285714Y-59252438D01*
X53285714Y-59252438D02*
X53333333Y-59300057D01*
X54285714Y-60204819D02*
X53714286Y-60204819D01*
X54000000Y-60204819D02*
X54000000Y-59204819D01*
X54000000Y-59204819D02*
X53904762Y-59347676D01*
X53904762Y-59347676D02*
X53809524Y-59442914D01*
X53809524Y-59442914D02*
X53714286Y-59490533D01*
X27208095Y-29134819D02*
X27208095Y-29944342D01*
X27208095Y-29944342D02*
X27255714Y-30039580D01*
X27255714Y-30039580D02*
X27303333Y-30087200D01*
X27303333Y-30087200D02*
X27398571Y-30134819D01*
X27398571Y-30134819D02*
X27589047Y-30134819D01*
X27589047Y-30134819D02*
X27684285Y-30087200D01*
X27684285Y-30087200D02*
X27731904Y-30039580D01*
X27731904Y-30039580D02*
X27779523Y-29944342D01*
X27779523Y-29944342D02*
X27779523Y-29134819D01*
X28208095Y-29230057D02*
X28255714Y-29182438D01*
X28255714Y-29182438D02*
X28350952Y-29134819D01*
X28350952Y-29134819D02*
X28589047Y-29134819D01*
X28589047Y-29134819D02*
X28684285Y-29182438D01*
X28684285Y-29182438D02*
X28731904Y-29230057D01*
X28731904Y-29230057D02*
X28779523Y-29325295D01*
X28779523Y-29325295D02*
X28779523Y-29420533D01*
X28779523Y-29420533D02*
X28731904Y-29563390D01*
X28731904Y-29563390D02*
X28160476Y-30134819D01*
X28160476Y-30134819D02*
X28779523Y-30134819D01*
X29176667Y-31674819D02*
X29510000Y-32674819D01*
X29510000Y-32674819D02*
X29843333Y-31674819D01*
X30748095Y-32579580D02*
X30700476Y-32627200D01*
X30700476Y-32627200D02*
X30557619Y-32674819D01*
X30557619Y-32674819D02*
X30462381Y-32674819D01*
X30462381Y-32674819D02*
X30319524Y-32627200D01*
X30319524Y-32627200D02*
X30224286Y-32531961D01*
X30224286Y-32531961D02*
X30176667Y-32436723D01*
X30176667Y-32436723D02*
X30129048Y-32246247D01*
X30129048Y-32246247D02*
X30129048Y-32103390D01*
X30129048Y-32103390D02*
X30176667Y-31912914D01*
X30176667Y-31912914D02*
X30224286Y-31817676D01*
X30224286Y-31817676D02*
X30319524Y-31722438D01*
X30319524Y-31722438D02*
X30462381Y-31674819D01*
X30462381Y-31674819D02*
X30557619Y-31674819D01*
X30557619Y-31674819D02*
X30700476Y-31722438D01*
X30700476Y-31722438D02*
X30748095Y-31770057D01*
X31748095Y-32579580D02*
X31700476Y-32627200D01*
X31700476Y-32627200D02*
X31557619Y-32674819D01*
X31557619Y-32674819D02*
X31462381Y-32674819D01*
X31462381Y-32674819D02*
X31319524Y-32627200D01*
X31319524Y-32627200D02*
X31224286Y-32531961D01*
X31224286Y-32531961D02*
X31176667Y-32436723D01*
X31176667Y-32436723D02*
X31129048Y-32246247D01*
X31129048Y-32246247D02*
X31129048Y-32103390D01*
X31129048Y-32103390D02*
X31176667Y-31912914D01*
X31176667Y-31912914D02*
X31224286Y-31817676D01*
X31224286Y-31817676D02*
X31319524Y-31722438D01*
X31319524Y-31722438D02*
X31462381Y-31674819D01*
X31462381Y-31674819D02*
X31557619Y-31674819D01*
X31557619Y-31674819D02*
X31700476Y-31722438D01*
X31700476Y-31722438D02*
X31748095Y-31770057D01*
X29748095Y-34262438D02*
X29652857Y-34214819D01*
X29652857Y-34214819D02*
X29510000Y-34214819D01*
X29510000Y-34214819D02*
X29367143Y-34262438D01*
X29367143Y-34262438D02*
X29271905Y-34357676D01*
X29271905Y-34357676D02*
X29224286Y-34452914D01*
X29224286Y-34452914D02*
X29176667Y-34643390D01*
X29176667Y-34643390D02*
X29176667Y-34786247D01*
X29176667Y-34786247D02*
X29224286Y-34976723D01*
X29224286Y-34976723D02*
X29271905Y-35071961D01*
X29271905Y-35071961D02*
X29367143Y-35167200D01*
X29367143Y-35167200D02*
X29510000Y-35214819D01*
X29510000Y-35214819D02*
X29605238Y-35214819D01*
X29605238Y-35214819D02*
X29748095Y-35167200D01*
X29748095Y-35167200D02*
X29795714Y-35119580D01*
X29795714Y-35119580D02*
X29795714Y-34786247D01*
X29795714Y-34786247D02*
X29605238Y-34786247D01*
X30224286Y-35214819D02*
X30224286Y-34214819D01*
X30224286Y-34214819D02*
X30795714Y-35214819D01*
X30795714Y-35214819D02*
X30795714Y-34214819D01*
X31271905Y-35214819D02*
X31271905Y-34214819D01*
X31271905Y-34214819D02*
X31510000Y-34214819D01*
X31510000Y-34214819D02*
X31652857Y-34262438D01*
X31652857Y-34262438D02*
X31748095Y-34357676D01*
X31748095Y-34357676D02*
X31795714Y-34452914D01*
X31795714Y-34452914D02*
X31843333Y-34643390D01*
X31843333Y-34643390D02*
X31843333Y-34786247D01*
X31843333Y-34786247D02*
X31795714Y-34976723D01*
X31795714Y-34976723D02*
X31748095Y-35071961D01*
X31748095Y-35071961D02*
X31652857Y-35167200D01*
X31652857Y-35167200D02*
X31510000Y-35214819D01*
X31510000Y-35214819D02*
X31271905Y-35214819D01*
X29319524Y-37707200D02*
X29462381Y-37754819D01*
X29462381Y-37754819D02*
X29700476Y-37754819D01*
X29700476Y-37754819D02*
X29795714Y-37707200D01*
X29795714Y-37707200D02*
X29843333Y-37659580D01*
X29843333Y-37659580D02*
X29890952Y-37564342D01*
X29890952Y-37564342D02*
X29890952Y-37469104D01*
X29890952Y-37469104D02*
X29843333Y-37373866D01*
X29843333Y-37373866D02*
X29795714Y-37326247D01*
X29795714Y-37326247D02*
X29700476Y-37278628D01*
X29700476Y-37278628D02*
X29510000Y-37231009D01*
X29510000Y-37231009D02*
X29414762Y-37183390D01*
X29414762Y-37183390D02*
X29367143Y-37135771D01*
X29367143Y-37135771D02*
X29319524Y-37040533D01*
X29319524Y-37040533D02*
X29319524Y-36945295D01*
X29319524Y-36945295D02*
X29367143Y-36850057D01*
X29367143Y-36850057D02*
X29414762Y-36802438D01*
X29414762Y-36802438D02*
X29510000Y-36754819D01*
X29510000Y-36754819D02*
X29748095Y-36754819D01*
X29748095Y-36754819D02*
X29890952Y-36802438D01*
X30890952Y-37659580D02*
X30843333Y-37707200D01*
X30843333Y-37707200D02*
X30700476Y-37754819D01*
X30700476Y-37754819D02*
X30605238Y-37754819D01*
X30605238Y-37754819D02*
X30462381Y-37707200D01*
X30462381Y-37707200D02*
X30367143Y-37611961D01*
X30367143Y-37611961D02*
X30319524Y-37516723D01*
X30319524Y-37516723D02*
X30271905Y-37326247D01*
X30271905Y-37326247D02*
X30271905Y-37183390D01*
X30271905Y-37183390D02*
X30319524Y-36992914D01*
X30319524Y-36992914D02*
X30367143Y-36897676D01*
X30367143Y-36897676D02*
X30462381Y-36802438D01*
X30462381Y-36802438D02*
X30605238Y-36754819D01*
X30605238Y-36754819D02*
X30700476Y-36754819D01*
X30700476Y-36754819D02*
X30843333Y-36802438D01*
X30843333Y-36802438D02*
X30890952Y-36850057D01*
X31795714Y-37754819D02*
X31319524Y-37754819D01*
X31319524Y-37754819D02*
X31319524Y-36754819D01*
X29295714Y-40247200D02*
X29438571Y-40294819D01*
X29438571Y-40294819D02*
X29676666Y-40294819D01*
X29676666Y-40294819D02*
X29771904Y-40247200D01*
X29771904Y-40247200D02*
X29819523Y-40199580D01*
X29819523Y-40199580D02*
X29867142Y-40104342D01*
X29867142Y-40104342D02*
X29867142Y-40009104D01*
X29867142Y-40009104D02*
X29819523Y-39913866D01*
X29819523Y-39913866D02*
X29771904Y-39866247D01*
X29771904Y-39866247D02*
X29676666Y-39818628D01*
X29676666Y-39818628D02*
X29486190Y-39771009D01*
X29486190Y-39771009D02*
X29390952Y-39723390D01*
X29390952Y-39723390D02*
X29343333Y-39675771D01*
X29343333Y-39675771D02*
X29295714Y-39580533D01*
X29295714Y-39580533D02*
X29295714Y-39485295D01*
X29295714Y-39485295D02*
X29343333Y-39390057D01*
X29343333Y-39390057D02*
X29390952Y-39342438D01*
X29390952Y-39342438D02*
X29486190Y-39294819D01*
X29486190Y-39294819D02*
X29724285Y-39294819D01*
X29724285Y-39294819D02*
X29867142Y-39342438D01*
X30295714Y-40294819D02*
X30295714Y-39294819D01*
X30295714Y-39294819D02*
X30533809Y-39294819D01*
X30533809Y-39294819D02*
X30676666Y-39342438D01*
X30676666Y-39342438D02*
X30771904Y-39437676D01*
X30771904Y-39437676D02*
X30819523Y-39532914D01*
X30819523Y-39532914D02*
X30867142Y-39723390D01*
X30867142Y-39723390D02*
X30867142Y-39866247D01*
X30867142Y-39866247D02*
X30819523Y-40056723D01*
X30819523Y-40056723D02*
X30771904Y-40151961D01*
X30771904Y-40151961D02*
X30676666Y-40247200D01*
X30676666Y-40247200D02*
X30533809Y-40294819D01*
X30533809Y-40294819D02*
X30295714Y-40294819D01*
X31248095Y-40009104D02*
X31724285Y-40009104D01*
X31152857Y-40294819D02*
X31486190Y-39294819D01*
X31486190Y-39294819D02*
X31819523Y-40294819D01*
X29248095Y-41834819D02*
X29914761Y-42834819D01*
X29914761Y-41834819D02*
X29248095Y-42834819D01*
X30295714Y-42834819D02*
X30295714Y-41834819D01*
X30295714Y-41834819D02*
X30533809Y-41834819D01*
X30533809Y-41834819D02*
X30676666Y-41882438D01*
X30676666Y-41882438D02*
X30771904Y-41977676D01*
X30771904Y-41977676D02*
X30819523Y-42072914D01*
X30819523Y-42072914D02*
X30867142Y-42263390D01*
X30867142Y-42263390D02*
X30867142Y-42406247D01*
X30867142Y-42406247D02*
X30819523Y-42596723D01*
X30819523Y-42596723D02*
X30771904Y-42691961D01*
X30771904Y-42691961D02*
X30676666Y-42787200D01*
X30676666Y-42787200D02*
X30533809Y-42834819D01*
X30533809Y-42834819D02*
X30295714Y-42834819D01*
X31248095Y-42549104D02*
X31724285Y-42549104D01*
X31152857Y-42834819D02*
X31486190Y-41834819D01*
X31486190Y-41834819D02*
X31819523Y-42834819D01*
X29271905Y-44374819D02*
X29938571Y-45374819D01*
X29938571Y-44374819D02*
X29271905Y-45374819D01*
X30890952Y-45279580D02*
X30843333Y-45327200D01*
X30843333Y-45327200D02*
X30700476Y-45374819D01*
X30700476Y-45374819D02*
X30605238Y-45374819D01*
X30605238Y-45374819D02*
X30462381Y-45327200D01*
X30462381Y-45327200D02*
X30367143Y-45231961D01*
X30367143Y-45231961D02*
X30319524Y-45136723D01*
X30319524Y-45136723D02*
X30271905Y-44946247D01*
X30271905Y-44946247D02*
X30271905Y-44803390D01*
X30271905Y-44803390D02*
X30319524Y-44612914D01*
X30319524Y-44612914D02*
X30367143Y-44517676D01*
X30367143Y-44517676D02*
X30462381Y-44422438D01*
X30462381Y-44422438D02*
X30605238Y-44374819D01*
X30605238Y-44374819D02*
X30700476Y-44374819D01*
X30700476Y-44374819D02*
X30843333Y-44422438D01*
X30843333Y-44422438D02*
X30890952Y-44470057D01*
X31795714Y-45374819D02*
X31319524Y-45374819D01*
X31319524Y-45374819D02*
X31319524Y-44374819D01*
X29271905Y-47629104D02*
X29748095Y-47629104D01*
X29176667Y-47914819D02*
X29510000Y-46914819D01*
X29510000Y-46914819D02*
X29843333Y-47914819D01*
X30176667Y-47914819D02*
X30176667Y-46914819D01*
X30176667Y-46914819D02*
X30414762Y-46914819D01*
X30414762Y-46914819D02*
X30557619Y-46962438D01*
X30557619Y-46962438D02*
X30652857Y-47057676D01*
X30652857Y-47057676D02*
X30700476Y-47152914D01*
X30700476Y-47152914D02*
X30748095Y-47343390D01*
X30748095Y-47343390D02*
X30748095Y-47486247D01*
X30748095Y-47486247D02*
X30700476Y-47676723D01*
X30700476Y-47676723D02*
X30652857Y-47771961D01*
X30652857Y-47771961D02*
X30557619Y-47867200D01*
X30557619Y-47867200D02*
X30414762Y-47914819D01*
X30414762Y-47914819D02*
X30176667Y-47914819D01*
X31176667Y-47914819D02*
X31176667Y-46914819D01*
X31176667Y-46914819D02*
X31414762Y-46914819D01*
X31414762Y-46914819D02*
X31557619Y-46962438D01*
X31557619Y-46962438D02*
X31652857Y-47057676D01*
X31652857Y-47057676D02*
X31700476Y-47152914D01*
X31700476Y-47152914D02*
X31748095Y-47343390D01*
X31748095Y-47343390D02*
X31748095Y-47486247D01*
X31748095Y-47486247D02*
X31700476Y-47676723D01*
X31700476Y-47676723D02*
X31652857Y-47771961D01*
X31652857Y-47771961D02*
X31557619Y-47867200D01*
X31557619Y-47867200D02*
X31414762Y-47914819D01*
X31414762Y-47914819D02*
X31176667Y-47914819D01*
X29605238Y-50454819D02*
X29605238Y-49454819D01*
X30081428Y-50454819D02*
X30081428Y-49454819D01*
X30081428Y-49454819D02*
X30652856Y-50454819D01*
X30652856Y-50454819D02*
X30652856Y-49454819D01*
X30986190Y-49454819D02*
X31557618Y-49454819D01*
X31271904Y-50454819D02*
X31271904Y-49454819D01*
X70738095Y-27454819D02*
X70738095Y-28264342D01*
X70738095Y-28264342D02*
X70785714Y-28359580D01*
X70785714Y-28359580D02*
X70833333Y-28407200D01*
X70833333Y-28407200D02*
X70928571Y-28454819D01*
X70928571Y-28454819D02*
X71119047Y-28454819D01*
X71119047Y-28454819D02*
X71214285Y-28407200D01*
X71214285Y-28407200D02*
X71261904Y-28359580D01*
X71261904Y-28359580D02*
X71309523Y-28264342D01*
X71309523Y-28264342D02*
X71309523Y-27454819D01*
X71690476Y-27454819D02*
X72309523Y-27454819D01*
X72309523Y-27454819D02*
X71976190Y-27835771D01*
X71976190Y-27835771D02*
X72119047Y-27835771D01*
X72119047Y-27835771D02*
X72214285Y-27883390D01*
X72214285Y-27883390D02*
X72261904Y-27931009D01*
X72261904Y-27931009D02*
X72309523Y-28026247D01*
X72309523Y-28026247D02*
X72309523Y-28264342D01*
X72309523Y-28264342D02*
X72261904Y-28359580D01*
X72261904Y-28359580D02*
X72214285Y-28407200D01*
X72214285Y-28407200D02*
X72119047Y-28454819D01*
X72119047Y-28454819D02*
X71833333Y-28454819D01*
X71833333Y-28454819D02*
X71738095Y-28407200D01*
X71738095Y-28407200D02*
X71690476Y-28359580D01*
X56185715Y-51908557D02*
X56185715Y-52508557D01*
X55800000Y-51908557D02*
X55800000Y-52379985D01*
X55800000Y-52379985D02*
X55842857Y-52465700D01*
X55842857Y-52465700D02*
X55928572Y-52508557D01*
X55928572Y-52508557D02*
X56057143Y-52508557D01*
X56057143Y-52508557D02*
X56142857Y-52465700D01*
X56142857Y-52465700D02*
X56185715Y-52422842D01*
X56614286Y-52422842D02*
X56657143Y-52465700D01*
X56657143Y-52465700D02*
X56614286Y-52508557D01*
X56614286Y-52508557D02*
X56571429Y-52465700D01*
X56571429Y-52465700D02*
X56614286Y-52422842D01*
X56614286Y-52422842D02*
X56614286Y-52508557D01*
X57342857Y-52037128D02*
X57042857Y-52037128D01*
X57042857Y-52508557D02*
X57042857Y-51608557D01*
X57042857Y-51608557D02*
X57471429Y-51608557D01*
X58242858Y-52508557D02*
X57814286Y-52508557D01*
X57814286Y-52508557D02*
X57814286Y-51608557D01*
X59185714Y-52251414D02*
X59614286Y-52251414D01*
X59100000Y-52508557D02*
X59400000Y-51608557D01*
X59400000Y-51608557D02*
X59700000Y-52508557D01*
X60000000Y-52508557D02*
X60000000Y-51608557D01*
X60000000Y-51608557D02*
X60514286Y-52508557D01*
X60514286Y-52508557D02*
X60514286Y-51608557D01*
X60814286Y-51608557D02*
X61328572Y-51608557D01*
X61071429Y-52508557D02*
X61071429Y-51608557D01*
X90384398Y-38198557D02*
X90684398Y-39098557D01*
X90684398Y-39098557D02*
X90984398Y-38198557D01*
X91798684Y-39012842D02*
X91755827Y-39055700D01*
X91755827Y-39055700D02*
X91627255Y-39098557D01*
X91627255Y-39098557D02*
X91541541Y-39098557D01*
X91541541Y-39098557D02*
X91412970Y-39055700D01*
X91412970Y-39055700D02*
X91327255Y-38969985D01*
X91327255Y-38969985D02*
X91284398Y-38884271D01*
X91284398Y-38884271D02*
X91241541Y-38712842D01*
X91241541Y-38712842D02*
X91241541Y-38584271D01*
X91241541Y-38584271D02*
X91284398Y-38412842D01*
X91284398Y-38412842D02*
X91327255Y-38327128D01*
X91327255Y-38327128D02*
X91412970Y-38241414D01*
X91412970Y-38241414D02*
X91541541Y-38198557D01*
X91541541Y-38198557D02*
X91627255Y-38198557D01*
X91627255Y-38198557D02*
X91755827Y-38241414D01*
X91755827Y-38241414D02*
X91798684Y-38284271D01*
X92698684Y-39012842D02*
X92655827Y-39055700D01*
X92655827Y-39055700D02*
X92527255Y-39098557D01*
X92527255Y-39098557D02*
X92441541Y-39098557D01*
X92441541Y-39098557D02*
X92312970Y-39055700D01*
X92312970Y-39055700D02*
X92227255Y-38969985D01*
X92227255Y-38969985D02*
X92184398Y-38884271D01*
X92184398Y-38884271D02*
X92141541Y-38712842D01*
X92141541Y-38712842D02*
X92141541Y-38584271D01*
X92141541Y-38584271D02*
X92184398Y-38412842D01*
X92184398Y-38412842D02*
X92227255Y-38327128D01*
X92227255Y-38327128D02*
X92312970Y-38241414D01*
X92312970Y-38241414D02*
X92441541Y-38198557D01*
X92441541Y-38198557D02*
X92527255Y-38198557D01*
X92527255Y-38198557D02*
X92655827Y-38241414D01*
X92655827Y-38241414D02*
X92698684Y-38284271D01*
X91027255Y-41638557D02*
X90727255Y-41209985D01*
X90512969Y-41638557D02*
X90512969Y-40738557D01*
X90512969Y-40738557D02*
X90855826Y-40738557D01*
X90855826Y-40738557D02*
X90941541Y-40781414D01*
X90941541Y-40781414D02*
X90984398Y-40824271D01*
X90984398Y-40824271D02*
X91027255Y-40909985D01*
X91027255Y-40909985D02*
X91027255Y-41038557D01*
X91027255Y-41038557D02*
X90984398Y-41124271D01*
X90984398Y-41124271D02*
X90941541Y-41167128D01*
X90941541Y-41167128D02*
X90855826Y-41209985D01*
X90855826Y-41209985D02*
X90512969Y-41209985D01*
X91327255Y-40738557D02*
X91927255Y-41638557D01*
X91927255Y-40738557D02*
X91327255Y-41638557D01*
X90384398Y-43278557D02*
X90898684Y-43278557D01*
X90641541Y-44178557D02*
X90641541Y-43278557D01*
X91112969Y-43278557D02*
X91712969Y-44178557D01*
X91712969Y-43278557D02*
X91112969Y-44178557D01*
X90984398Y-45861414D02*
X90898684Y-45818557D01*
X90898684Y-45818557D02*
X90770112Y-45818557D01*
X90770112Y-45818557D02*
X90641541Y-45861414D01*
X90641541Y-45861414D02*
X90555826Y-45947128D01*
X90555826Y-45947128D02*
X90512969Y-46032842D01*
X90512969Y-46032842D02*
X90470112Y-46204271D01*
X90470112Y-46204271D02*
X90470112Y-46332842D01*
X90470112Y-46332842D02*
X90512969Y-46504271D01*
X90512969Y-46504271D02*
X90555826Y-46589985D01*
X90555826Y-46589985D02*
X90641541Y-46675700D01*
X90641541Y-46675700D02*
X90770112Y-46718557D01*
X90770112Y-46718557D02*
X90855826Y-46718557D01*
X90855826Y-46718557D02*
X90984398Y-46675700D01*
X90984398Y-46675700D02*
X91027255Y-46632842D01*
X91027255Y-46632842D02*
X91027255Y-46332842D01*
X91027255Y-46332842D02*
X90855826Y-46332842D01*
X91412969Y-46718557D02*
X91412969Y-45818557D01*
X91412969Y-45818557D02*
X91927255Y-46718557D01*
X91927255Y-46718557D02*
X91927255Y-45818557D01*
X92355826Y-46718557D02*
X92355826Y-45818557D01*
X92355826Y-45818557D02*
X92570112Y-45818557D01*
X92570112Y-45818557D02*
X92698683Y-45861414D01*
X92698683Y-45861414D02*
X92784398Y-45947128D01*
X92784398Y-45947128D02*
X92827255Y-46032842D01*
X92827255Y-46032842D02*
X92870112Y-46204271D01*
X92870112Y-46204271D02*
X92870112Y-46332842D01*
X92870112Y-46332842D02*
X92827255Y-46504271D01*
X92827255Y-46504271D02*
X92784398Y-46589985D01*
X92784398Y-46589985D02*
X92698683Y-46675700D01*
X92698683Y-46675700D02*
X92570112Y-46718557D01*
X92570112Y-46718557D02*
X92355826Y-46718557D01*
X35154819Y-21753333D02*
X35869104Y-21753333D01*
X35869104Y-21753333D02*
X36011961Y-21800952D01*
X36011961Y-21800952D02*
X36107200Y-21896190D01*
X36107200Y-21896190D02*
X36154819Y-22039047D01*
X36154819Y-22039047D02*
X36154819Y-22134285D01*
X36154819Y-20753333D02*
X36154819Y-21324761D01*
X36154819Y-21039047D02*
X35154819Y-21039047D01*
X35154819Y-21039047D02*
X35297676Y-21134285D01*
X35297676Y-21134285D02*
X35392914Y-21229523D01*
X35392914Y-21229523D02*
X35440533Y-21324761D01*
D13*
X72288304Y-74908580D02*
X72288304Y-74099057D01*
X72288304Y-74099057D02*
X72240685Y-74003819D01*
X72240685Y-74003819D02*
X72193066Y-73956200D01*
X72193066Y-73956200D02*
X72097828Y-73908580D01*
X72097828Y-73908580D02*
X71907352Y-73908580D01*
X71907352Y-73908580D02*
X71812114Y-73956200D01*
X71812114Y-73956200D02*
X71764495Y-74003819D01*
X71764495Y-74003819D02*
X71716876Y-74099057D01*
X71716876Y-74099057D02*
X71716876Y-74908580D01*
X70812114Y-74575247D02*
X70812114Y-73908580D01*
X71050209Y-74956200D02*
X71288304Y-74241914D01*
X71288304Y-74241914D02*
X70669257Y-74241914D01*
D14*
X64571190Y-64141491D02*
X64401856Y-63760538D01*
X64280904Y-64141491D02*
X64280904Y-63341491D01*
X64280904Y-63341491D02*
X64474428Y-63341491D01*
X64474428Y-63341491D02*
X64522809Y-63379586D01*
X64522809Y-63379586D02*
X64546999Y-63417681D01*
X64546999Y-63417681D02*
X64571190Y-63493872D01*
X64571190Y-63493872D02*
X64571190Y-63608157D01*
X64571190Y-63608157D02*
X64546999Y-63684348D01*
X64546999Y-63684348D02*
X64522809Y-63722443D01*
X64522809Y-63722443D02*
X64474428Y-63760538D01*
X64474428Y-63760538D02*
X64280904Y-63760538D01*
X64788904Y-64141491D02*
X64788904Y-63341491D01*
X64280904Y-66691491D02*
X64280904Y-65891491D01*
X64280904Y-65891491D02*
X64401856Y-65891491D01*
X64401856Y-65891491D02*
X64474428Y-65929586D01*
X64474428Y-65929586D02*
X64522809Y-66005776D01*
X64522809Y-66005776D02*
X64546999Y-66081967D01*
X64546999Y-66081967D02*
X64571190Y-66234348D01*
X64571190Y-66234348D02*
X64571190Y-66348634D01*
X64571190Y-66348634D02*
X64546999Y-66501015D01*
X64546999Y-66501015D02*
X64522809Y-66577205D01*
X64522809Y-66577205D02*
X64474428Y-66653396D01*
X64474428Y-66653396D02*
X64401856Y-66691491D01*
X64401856Y-66691491D02*
X64280904Y-66691491D01*
X64716332Y-65891491D02*
X65006618Y-65891491D01*
X64861475Y-66691491D02*
X64861475Y-65891491D01*
X65466238Y-66691491D02*
X65296904Y-66310538D01*
X65175952Y-66691491D02*
X65175952Y-65891491D01*
X65175952Y-65891491D02*
X65369476Y-65891491D01*
X65369476Y-65891491D02*
X65417857Y-65929586D01*
X65417857Y-65929586D02*
X65442047Y-65967681D01*
X65442047Y-65967681D02*
X65466238Y-66043872D01*
X65466238Y-66043872D02*
X65466238Y-66158157D01*
X65466238Y-66158157D02*
X65442047Y-66234348D01*
X65442047Y-66234348D02*
X65417857Y-66272443D01*
X65417857Y-66272443D02*
X65369476Y-66310538D01*
X65369476Y-66310538D02*
X65175952Y-66310538D01*
X64430904Y-69241491D02*
X64430904Y-68441491D01*
X64430904Y-68441491D02*
X64600237Y-69012919D01*
X64600237Y-69012919D02*
X64769571Y-68441491D01*
X64769571Y-68441491D02*
X64769571Y-69241491D01*
X65011475Y-69241491D02*
X65011475Y-68441491D01*
X65543666Y-69165300D02*
X65519475Y-69203396D01*
X65519475Y-69203396D02*
X65446904Y-69241491D01*
X65446904Y-69241491D02*
X65398523Y-69241491D01*
X65398523Y-69241491D02*
X65325951Y-69203396D01*
X65325951Y-69203396D02*
X65277570Y-69127205D01*
X65277570Y-69127205D02*
X65253380Y-69051015D01*
X65253380Y-69051015D02*
X65229189Y-68898634D01*
X65229189Y-68898634D02*
X65229189Y-68784348D01*
X65229189Y-68784348D02*
X65253380Y-68631967D01*
X65253380Y-68631967D02*
X65277570Y-68555776D01*
X65277570Y-68555776D02*
X65325951Y-68479586D01*
X65325951Y-68479586D02*
X65398523Y-68441491D01*
X65398523Y-68441491D02*
X65446904Y-68441491D01*
X65446904Y-68441491D02*
X65519475Y-68479586D01*
X65519475Y-68479586D02*
X65543666Y-68517681D01*
X65761380Y-69241491D02*
X65761380Y-68441491D01*
X65761380Y-68441491D02*
X65954904Y-68441491D01*
X65954904Y-68441491D02*
X66003285Y-68479586D01*
X66003285Y-68479586D02*
X66027475Y-68517681D01*
X66027475Y-68517681D02*
X66051666Y-68593872D01*
X66051666Y-68593872D02*
X66051666Y-68708157D01*
X66051666Y-68708157D02*
X66027475Y-68784348D01*
X66027475Y-68784348D02*
X66003285Y-68822443D01*
X66003285Y-68822443D02*
X65954904Y-68860538D01*
X65954904Y-68860538D02*
X65761380Y-68860538D01*
X64480904Y-71891491D02*
X64480904Y-71091491D01*
X64480904Y-71091491D02*
X64650237Y-71662919D01*
X64650237Y-71662919D02*
X64819571Y-71091491D01*
X64819571Y-71091491D02*
X64819571Y-71891491D01*
X65061475Y-71891491D02*
X65061475Y-71091491D01*
X65593666Y-71815300D02*
X65569475Y-71853396D01*
X65569475Y-71853396D02*
X65496904Y-71891491D01*
X65496904Y-71891491D02*
X65448523Y-71891491D01*
X65448523Y-71891491D02*
X65375951Y-71853396D01*
X65375951Y-71853396D02*
X65327570Y-71777205D01*
X65327570Y-71777205D02*
X65303380Y-71701015D01*
X65303380Y-71701015D02*
X65279189Y-71548634D01*
X65279189Y-71548634D02*
X65279189Y-71434348D01*
X65279189Y-71434348D02*
X65303380Y-71281967D01*
X65303380Y-71281967D02*
X65327570Y-71205776D01*
X65327570Y-71205776D02*
X65375951Y-71129586D01*
X65375951Y-71129586D02*
X65448523Y-71091491D01*
X65448523Y-71091491D02*
X65496904Y-71091491D01*
X65496904Y-71091491D02*
X65569475Y-71129586D01*
X65569475Y-71129586D02*
X65593666Y-71167681D01*
X65811380Y-71891491D02*
X65811380Y-71091491D01*
X65811380Y-71091491D02*
X66101666Y-71891491D01*
X66101666Y-71891491D02*
X66101666Y-71091491D01*
X64456713Y-74353396D02*
X64529285Y-74391491D01*
X64529285Y-74391491D02*
X64650237Y-74391491D01*
X64650237Y-74391491D02*
X64698618Y-74353396D01*
X64698618Y-74353396D02*
X64722809Y-74315300D01*
X64722809Y-74315300D02*
X64746999Y-74239110D01*
X64746999Y-74239110D02*
X64746999Y-74162919D01*
X64746999Y-74162919D02*
X64722809Y-74086729D01*
X64722809Y-74086729D02*
X64698618Y-74048634D01*
X64698618Y-74048634D02*
X64650237Y-74010538D01*
X64650237Y-74010538D02*
X64553475Y-73972443D01*
X64553475Y-73972443D02*
X64505094Y-73934348D01*
X64505094Y-73934348D02*
X64480904Y-73896253D01*
X64480904Y-73896253D02*
X64456713Y-73820062D01*
X64456713Y-73820062D02*
X64456713Y-73743872D01*
X64456713Y-73743872D02*
X64480904Y-73667681D01*
X64480904Y-73667681D02*
X64505094Y-73629586D01*
X64505094Y-73629586D02*
X64553475Y-73591491D01*
X64553475Y-73591491D02*
X64674428Y-73591491D01*
X64674428Y-73591491D02*
X64746999Y-73629586D01*
X64964714Y-74391491D02*
X64964714Y-73591491D01*
X64964714Y-73591491D02*
X65158238Y-73591491D01*
X65158238Y-73591491D02*
X65206619Y-73629586D01*
X65206619Y-73629586D02*
X65230809Y-73667681D01*
X65230809Y-73667681D02*
X65255000Y-73743872D01*
X65255000Y-73743872D02*
X65255000Y-73858157D01*
X65255000Y-73858157D02*
X65230809Y-73934348D01*
X65230809Y-73934348D02*
X65206619Y-73972443D01*
X65206619Y-73972443D02*
X65158238Y-74010538D01*
X65158238Y-74010538D02*
X64964714Y-74010538D01*
X65472714Y-74391491D02*
X65472714Y-73591491D01*
X65763000Y-74391491D02*
X65545285Y-73934348D01*
X65763000Y-73591491D02*
X65472714Y-74048634D01*
X65980714Y-74391491D02*
X65980714Y-73591491D01*
X65980714Y-73591491D02*
X66174238Y-73591491D01*
X66174238Y-73591491D02*
X66222619Y-73629586D01*
X66222619Y-73629586D02*
X66246809Y-73667681D01*
X66246809Y-73667681D02*
X66271000Y-73743872D01*
X66271000Y-73743872D02*
X66271000Y-73858157D01*
X66271000Y-73858157D02*
X66246809Y-73934348D01*
X66246809Y-73934348D02*
X66222619Y-73972443D01*
X66222619Y-73972443D02*
X66174238Y-74010538D01*
X66174238Y-74010538D02*
X65980714Y-74010538D01*
X64506713Y-76753396D02*
X64579285Y-76791491D01*
X64579285Y-76791491D02*
X64700237Y-76791491D01*
X64700237Y-76791491D02*
X64748618Y-76753396D01*
X64748618Y-76753396D02*
X64772809Y-76715300D01*
X64772809Y-76715300D02*
X64796999Y-76639110D01*
X64796999Y-76639110D02*
X64796999Y-76562919D01*
X64796999Y-76562919D02*
X64772809Y-76486729D01*
X64772809Y-76486729D02*
X64748618Y-76448634D01*
X64748618Y-76448634D02*
X64700237Y-76410538D01*
X64700237Y-76410538D02*
X64603475Y-76372443D01*
X64603475Y-76372443D02*
X64555094Y-76334348D01*
X64555094Y-76334348D02*
X64530904Y-76296253D01*
X64530904Y-76296253D02*
X64506713Y-76220062D01*
X64506713Y-76220062D02*
X64506713Y-76143872D01*
X64506713Y-76143872D02*
X64530904Y-76067681D01*
X64530904Y-76067681D02*
X64555094Y-76029586D01*
X64555094Y-76029586D02*
X64603475Y-75991491D01*
X64603475Y-75991491D02*
X64724428Y-75991491D01*
X64724428Y-75991491D02*
X64796999Y-76029586D01*
X65014714Y-76791491D02*
X65014714Y-75991491D01*
X65014714Y-75991491D02*
X65208238Y-75991491D01*
X65208238Y-75991491D02*
X65256619Y-76029586D01*
X65256619Y-76029586D02*
X65280809Y-76067681D01*
X65280809Y-76067681D02*
X65305000Y-76143872D01*
X65305000Y-76143872D02*
X65305000Y-76258157D01*
X65305000Y-76258157D02*
X65280809Y-76334348D01*
X65280809Y-76334348D02*
X65256619Y-76372443D01*
X65256619Y-76372443D02*
X65208238Y-76410538D01*
X65208238Y-76410538D02*
X65014714Y-76410538D01*
X65522714Y-76791491D02*
X65522714Y-75991491D01*
X65813000Y-76791491D02*
X65595285Y-76334348D01*
X65813000Y-75991491D02*
X65522714Y-76448634D01*
X66030714Y-76791491D02*
X66030714Y-75991491D01*
X66030714Y-75991491D02*
X66321000Y-76791491D01*
X66321000Y-76791491D02*
X66321000Y-75991491D01*
X79506713Y-61364919D02*
X79748618Y-61364919D01*
X79458332Y-61593491D02*
X79627666Y-60793491D01*
X79627666Y-60793491D02*
X79796999Y-61593491D01*
X79966333Y-61593491D02*
X79966333Y-60793491D01*
X79966333Y-60793491D02*
X80256619Y-61593491D01*
X80256619Y-61593491D02*
X80256619Y-60793491D01*
X80425951Y-60793491D02*
X80716237Y-60793491D01*
X80571094Y-61593491D02*
X80571094Y-60793491D01*
X79458332Y-63373491D02*
X79627666Y-64173491D01*
X79627666Y-64173491D02*
X79796999Y-63373491D01*
X80256619Y-64097300D02*
X80232428Y-64135396D01*
X80232428Y-64135396D02*
X80159857Y-64173491D01*
X80159857Y-64173491D02*
X80111476Y-64173491D01*
X80111476Y-64173491D02*
X80038904Y-64135396D01*
X80038904Y-64135396D02*
X79990523Y-64059205D01*
X79990523Y-64059205D02*
X79966333Y-63983015D01*
X79966333Y-63983015D02*
X79942142Y-63830634D01*
X79942142Y-63830634D02*
X79942142Y-63716348D01*
X79942142Y-63716348D02*
X79966333Y-63563967D01*
X79966333Y-63563967D02*
X79990523Y-63487776D01*
X79990523Y-63487776D02*
X80038904Y-63411586D01*
X80038904Y-63411586D02*
X80111476Y-63373491D01*
X80111476Y-63373491D02*
X80159857Y-63373491D01*
X80159857Y-63373491D02*
X80232428Y-63411586D01*
X80232428Y-63411586D02*
X80256619Y-63449681D01*
X80764619Y-64097300D02*
X80740428Y-64135396D01*
X80740428Y-64135396D02*
X80667857Y-64173491D01*
X80667857Y-64173491D02*
X80619476Y-64173491D01*
X80619476Y-64173491D02*
X80546904Y-64135396D01*
X80546904Y-64135396D02*
X80498523Y-64059205D01*
X80498523Y-64059205D02*
X80474333Y-63983015D01*
X80474333Y-63983015D02*
X80450142Y-63830634D01*
X80450142Y-63830634D02*
X80450142Y-63716348D01*
X80450142Y-63716348D02*
X80474333Y-63563967D01*
X80474333Y-63563967D02*
X80498523Y-63487776D01*
X80498523Y-63487776D02*
X80546904Y-63411586D01*
X80546904Y-63411586D02*
X80619476Y-63373491D01*
X80619476Y-63373491D02*
X80667857Y-63373491D01*
X80667857Y-63373491D02*
X80740428Y-63411586D01*
X80740428Y-63411586D02*
X80764619Y-63449681D01*
X79821190Y-66653491D02*
X79651856Y-66272538D01*
X79530904Y-66653491D02*
X79530904Y-65853491D01*
X79530904Y-65853491D02*
X79724428Y-65853491D01*
X79724428Y-65853491D02*
X79772809Y-65891586D01*
X79772809Y-65891586D02*
X79796999Y-65929681D01*
X79796999Y-65929681D02*
X79821190Y-66005872D01*
X79821190Y-66005872D02*
X79821190Y-66120157D01*
X79821190Y-66120157D02*
X79796999Y-66196348D01*
X79796999Y-66196348D02*
X79772809Y-66234443D01*
X79772809Y-66234443D02*
X79724428Y-66272538D01*
X79724428Y-66272538D02*
X79530904Y-66272538D01*
X80014713Y-66615396D02*
X80087285Y-66653491D01*
X80087285Y-66653491D02*
X80208237Y-66653491D01*
X80208237Y-66653491D02*
X80256618Y-66615396D01*
X80256618Y-66615396D02*
X80280809Y-66577300D01*
X80280809Y-66577300D02*
X80304999Y-66501110D01*
X80304999Y-66501110D02*
X80304999Y-66424919D01*
X80304999Y-66424919D02*
X80280809Y-66348729D01*
X80280809Y-66348729D02*
X80256618Y-66310634D01*
X80256618Y-66310634D02*
X80208237Y-66272538D01*
X80208237Y-66272538D02*
X80111475Y-66234443D01*
X80111475Y-66234443D02*
X80063094Y-66196348D01*
X80063094Y-66196348D02*
X80038904Y-66158253D01*
X80038904Y-66158253D02*
X80014713Y-66082062D01*
X80014713Y-66082062D02*
X80014713Y-66005872D01*
X80014713Y-66005872D02*
X80038904Y-65929681D01*
X80038904Y-65929681D02*
X80063094Y-65891586D01*
X80063094Y-65891586D02*
X80111475Y-65853491D01*
X80111475Y-65853491D02*
X80232428Y-65853491D01*
X80232428Y-65853491D02*
X80304999Y-65891586D01*
X80450142Y-65853491D02*
X80740428Y-65853491D01*
X80595285Y-66653491D02*
X80595285Y-65853491D01*
X79821190Y-69283491D02*
X79651856Y-68902538D01*
X79530904Y-69283491D02*
X79530904Y-68483491D01*
X79530904Y-68483491D02*
X79724428Y-68483491D01*
X79724428Y-68483491D02*
X79772809Y-68521586D01*
X79772809Y-68521586D02*
X79796999Y-68559681D01*
X79796999Y-68559681D02*
X79821190Y-68635872D01*
X79821190Y-68635872D02*
X79821190Y-68750157D01*
X79821190Y-68750157D02*
X79796999Y-68826348D01*
X79796999Y-68826348D02*
X79772809Y-68864443D01*
X79772809Y-68864443D02*
X79724428Y-68902538D01*
X79724428Y-68902538D02*
X79530904Y-68902538D01*
X79990523Y-68483491D02*
X80329190Y-69283491D01*
X80329190Y-68483491D02*
X79990523Y-69283491D01*
X80522714Y-69283491D02*
X80522714Y-68483491D01*
X80522714Y-68483491D02*
X80643666Y-68483491D01*
X80643666Y-68483491D02*
X80716238Y-68521586D01*
X80716238Y-68521586D02*
X80764619Y-68597776D01*
X80764619Y-68597776D02*
X80788809Y-68673967D01*
X80788809Y-68673967D02*
X80813000Y-68826348D01*
X80813000Y-68826348D02*
X80813000Y-68940634D01*
X80813000Y-68940634D02*
X80788809Y-69093015D01*
X80788809Y-69093015D02*
X80764619Y-69169205D01*
X80764619Y-69169205D02*
X80716238Y-69245396D01*
X80716238Y-69245396D02*
X80643666Y-69283491D01*
X80643666Y-69283491D02*
X80522714Y-69283491D01*
X79458332Y-71113491D02*
X79748618Y-71113491D01*
X79603475Y-71913491D02*
X79603475Y-71113491D01*
X79869571Y-71113491D02*
X80208238Y-71913491D01*
X80208238Y-71113491D02*
X79869571Y-71913491D01*
X80401762Y-71913491D02*
X80401762Y-71113491D01*
X80401762Y-71113491D02*
X80522714Y-71113491D01*
X80522714Y-71113491D02*
X80595286Y-71151586D01*
X80595286Y-71151586D02*
X80643667Y-71227776D01*
X80643667Y-71227776D02*
X80667857Y-71303967D01*
X80667857Y-71303967D02*
X80692048Y-71456348D01*
X80692048Y-71456348D02*
X80692048Y-71570634D01*
X80692048Y-71570634D02*
X80667857Y-71723015D01*
X80667857Y-71723015D02*
X80643667Y-71799205D01*
X80643667Y-71799205D02*
X80595286Y-71875396D01*
X80595286Y-71875396D02*
X80522714Y-71913491D01*
X80522714Y-71913491D02*
X80401762Y-71913491D01*
X79796999Y-73531586D02*
X79748618Y-73493491D01*
X79748618Y-73493491D02*
X79676047Y-73493491D01*
X79676047Y-73493491D02*
X79603475Y-73531586D01*
X79603475Y-73531586D02*
X79555094Y-73607776D01*
X79555094Y-73607776D02*
X79530904Y-73683967D01*
X79530904Y-73683967D02*
X79506713Y-73836348D01*
X79506713Y-73836348D02*
X79506713Y-73950634D01*
X79506713Y-73950634D02*
X79530904Y-74103015D01*
X79530904Y-74103015D02*
X79555094Y-74179205D01*
X79555094Y-74179205D02*
X79603475Y-74255396D01*
X79603475Y-74255396D02*
X79676047Y-74293491D01*
X79676047Y-74293491D02*
X79724428Y-74293491D01*
X79724428Y-74293491D02*
X79796999Y-74255396D01*
X79796999Y-74255396D02*
X79821190Y-74217300D01*
X79821190Y-74217300D02*
X79821190Y-73950634D01*
X79821190Y-73950634D02*
X79724428Y-73950634D01*
X80038904Y-74293491D02*
X80038904Y-73493491D01*
X80038904Y-73493491D02*
X80329190Y-74293491D01*
X80329190Y-74293491D02*
X80329190Y-73493491D01*
X80571094Y-74293491D02*
X80571094Y-73493491D01*
X80571094Y-73493491D02*
X80692046Y-73493491D01*
X80692046Y-73493491D02*
X80764618Y-73531586D01*
X80764618Y-73531586D02*
X80812999Y-73607776D01*
X80812999Y-73607776D02*
X80837189Y-73683967D01*
X80837189Y-73683967D02*
X80861380Y-73836348D01*
X80861380Y-73836348D02*
X80861380Y-73950634D01*
X80861380Y-73950634D02*
X80837189Y-74103015D01*
X80837189Y-74103015D02*
X80812999Y-74179205D01*
X80812999Y-74179205D02*
X80764618Y-74255396D01*
X80764618Y-74255396D02*
X80692046Y-74293491D01*
X80692046Y-74293491D02*
X80571094Y-74293491D01*
%TO.C,C3*%
D15*
X42840302Y-33685000D02*
X43640302Y-33685000D01*
X43240302Y-33285000D02*
X43240302Y-34085000D01*
X47250000Y-31920000D02*
X47250000Y-40080000D01*
X47290000Y-31920000D02*
X47290000Y-40080000D01*
X47330000Y-31921000D02*
X47330000Y-40079000D01*
X47370000Y-31922000D02*
X47370000Y-40078000D01*
X47410000Y-31923000D02*
X47410000Y-40077000D01*
X47450000Y-31925000D02*
X47450000Y-40075000D01*
X47490000Y-31927000D02*
X47490000Y-40073000D01*
X47530000Y-31930000D02*
X47530000Y-40070000D01*
X47570000Y-31932000D02*
X47570000Y-40068000D01*
X47610000Y-31936000D02*
X47610000Y-40064000D01*
X47650000Y-31939000D02*
X47650000Y-40061000D01*
X47690000Y-31944000D02*
X47690000Y-40056000D01*
X47730000Y-31948000D02*
X47730000Y-40052000D01*
X47770000Y-31953000D02*
X47770000Y-40047000D01*
X47810000Y-31958000D02*
X47810000Y-40042000D01*
X47850000Y-31964000D02*
X47850000Y-40036000D01*
X47890000Y-31970000D02*
X47890000Y-40030000D01*
X47930000Y-31977000D02*
X47930000Y-40023000D01*
X47970000Y-31983000D02*
X47970000Y-34960000D01*
X47970000Y-37040000D02*
X47970000Y-40017000D01*
X48010000Y-31991000D02*
X48010000Y-34960000D01*
X48010000Y-37040000D02*
X48010000Y-40009000D01*
X48050000Y-31998000D02*
X48050000Y-34960000D01*
X48050000Y-37040000D02*
X48050000Y-40002000D01*
X48090000Y-32007000D02*
X48090000Y-34960000D01*
X48090000Y-37040000D02*
X48090000Y-39993000D01*
X48130000Y-32015000D02*
X48130000Y-34960000D01*
X48130000Y-37040000D02*
X48130000Y-39985000D01*
X48170000Y-32024000D02*
X48170000Y-34960000D01*
X48170000Y-37040000D02*
X48170000Y-39976000D01*
X48210000Y-32033000D02*
X48210000Y-34960000D01*
X48210000Y-37040000D02*
X48210000Y-39967000D01*
X48250000Y-32043000D02*
X48250000Y-34960000D01*
X48250000Y-37040000D02*
X48250000Y-39957000D01*
X48290000Y-32053000D02*
X48290000Y-34960000D01*
X48290000Y-37040000D02*
X48290000Y-39947000D01*
X48330000Y-32064000D02*
X48330000Y-34960000D01*
X48330000Y-37040000D02*
X48330000Y-39936000D01*
X48370000Y-32075000D02*
X48370000Y-34960000D01*
X48370000Y-37040000D02*
X48370000Y-39925000D01*
X48410000Y-32087000D02*
X48410000Y-34960000D01*
X48410000Y-37040000D02*
X48410000Y-39913000D01*
X48450000Y-32099000D02*
X48450000Y-34960000D01*
X48450000Y-37040000D02*
X48450000Y-39901000D01*
X48490000Y-32111000D02*
X48490000Y-34960000D01*
X48490000Y-37040000D02*
X48490000Y-39889000D01*
X48530000Y-32124000D02*
X48530000Y-34960000D01*
X48530000Y-37040000D02*
X48530000Y-39876000D01*
X48570000Y-32137000D02*
X48570000Y-34960000D01*
X48570000Y-37040000D02*
X48570000Y-39863000D01*
X48610000Y-32151000D02*
X48610000Y-34960000D01*
X48610000Y-37040000D02*
X48610000Y-39849000D01*
X48650000Y-32165000D02*
X48650000Y-34960000D01*
X48650000Y-37040000D02*
X48650000Y-39835000D01*
X48690000Y-32180000D02*
X48690000Y-34960000D01*
X48690000Y-37040000D02*
X48690000Y-39820000D01*
X48730000Y-32195000D02*
X48730000Y-34960000D01*
X48730000Y-37040000D02*
X48730000Y-39805000D01*
X48770000Y-32211000D02*
X48770000Y-34960000D01*
X48770000Y-37040000D02*
X48770000Y-39789000D01*
X48810000Y-32227000D02*
X48810000Y-34960000D01*
X48810000Y-37040000D02*
X48810000Y-39773000D01*
X48850000Y-32243000D02*
X48850000Y-34960000D01*
X48850000Y-37040000D02*
X48850000Y-39757000D01*
X48890000Y-32260000D02*
X48890000Y-34960000D01*
X48890000Y-37040000D02*
X48890000Y-39740000D01*
X48930000Y-32278000D02*
X48930000Y-34960000D01*
X48930000Y-37040000D02*
X48930000Y-39722000D01*
X48970000Y-32296000D02*
X48970000Y-34960000D01*
X48970000Y-37040000D02*
X48970000Y-39704000D01*
X49010000Y-32315000D02*
X49010000Y-34960000D01*
X49010000Y-37040000D02*
X49010000Y-39685000D01*
X49050000Y-32334000D02*
X49050000Y-34960000D01*
X49050000Y-37040000D02*
X49050000Y-39666000D01*
X49090000Y-32354000D02*
X49090000Y-34960000D01*
X49090000Y-37040000D02*
X49090000Y-39646000D01*
X49130000Y-32374000D02*
X49130000Y-34960000D01*
X49130000Y-37040000D02*
X49130000Y-39626000D01*
X49170000Y-32395000D02*
X49170000Y-34960000D01*
X49170000Y-37040000D02*
X49170000Y-39605000D01*
X49210000Y-32416000D02*
X49210000Y-34960000D01*
X49210000Y-37040000D02*
X49210000Y-39584000D01*
X49250000Y-32438000D02*
X49250000Y-34960000D01*
X49250000Y-37040000D02*
X49250000Y-39562000D01*
X49290000Y-32461000D02*
X49290000Y-34960000D01*
X49290000Y-37040000D02*
X49290000Y-39539000D01*
X49330000Y-32484000D02*
X49330000Y-34960000D01*
X49330000Y-37040000D02*
X49330000Y-39516000D01*
X49370000Y-32507000D02*
X49370000Y-34960000D01*
X49370000Y-37040000D02*
X49370000Y-39493000D01*
X49410000Y-32532000D02*
X49410000Y-34960000D01*
X49410000Y-37040000D02*
X49410000Y-39468000D01*
X49450000Y-32557000D02*
X49450000Y-34960000D01*
X49450000Y-37040000D02*
X49450000Y-39443000D01*
X49490000Y-32582000D02*
X49490000Y-34960000D01*
X49490000Y-37040000D02*
X49490000Y-39418000D01*
X49530000Y-32608000D02*
X49530000Y-34960000D01*
X49530000Y-37040000D02*
X49530000Y-39392000D01*
X49570000Y-32635000D02*
X49570000Y-34960000D01*
X49570000Y-37040000D02*
X49570000Y-39365000D01*
X49610000Y-32663000D02*
X49610000Y-34960000D01*
X49610000Y-37040000D02*
X49610000Y-39337000D01*
X49650000Y-32691000D02*
X49650000Y-34960000D01*
X49650000Y-37040000D02*
X49650000Y-39309000D01*
X49690000Y-32720000D02*
X49690000Y-34960000D01*
X49690000Y-37040000D02*
X49690000Y-39280000D01*
X49730000Y-32750000D02*
X49730000Y-34960000D01*
X49730000Y-37040000D02*
X49730000Y-39250000D01*
X49770000Y-32781000D02*
X49770000Y-34960000D01*
X49770000Y-37040000D02*
X49770000Y-39219000D01*
X49810000Y-32812000D02*
X49810000Y-34960000D01*
X49810000Y-37040000D02*
X49810000Y-39188000D01*
X49850000Y-32844000D02*
X49850000Y-34960000D01*
X49850000Y-37040000D02*
X49850000Y-39156000D01*
X49890000Y-32877000D02*
X49890000Y-34960000D01*
X49890000Y-37040000D02*
X49890000Y-39123000D01*
X49930000Y-32911000D02*
X49930000Y-34960000D01*
X49930000Y-37040000D02*
X49930000Y-39089000D01*
X49970000Y-32945000D02*
X49970000Y-34960000D01*
X49970000Y-37040000D02*
X49970000Y-39055000D01*
X50010000Y-32981000D02*
X50010000Y-34960000D01*
X50010000Y-37040000D02*
X50010000Y-39019000D01*
X50050000Y-33018000D02*
X50050000Y-38982000D01*
X50090000Y-33055000D02*
X50090000Y-38945000D01*
X50130000Y-33094000D02*
X50130000Y-38906000D01*
X50170000Y-33133000D02*
X50170000Y-38867000D01*
X50210000Y-33174000D02*
X50210000Y-38826000D01*
X50250000Y-33216000D02*
X50250000Y-38784000D01*
X50290000Y-33259000D02*
X50290000Y-38741000D01*
X50330000Y-33304000D02*
X50330000Y-38696000D01*
X50370000Y-33349000D02*
X50370000Y-38651000D01*
X50410000Y-33396000D02*
X50410000Y-38604000D01*
X50450000Y-33445000D02*
X50450000Y-38555000D01*
X50490000Y-33495000D02*
X50490000Y-38505000D01*
X50530000Y-33547000D02*
X50530000Y-38453000D01*
X50570000Y-33600000D02*
X50570000Y-38400000D01*
X50610000Y-33656000D02*
X50610000Y-38344000D01*
X50650000Y-33713000D02*
X50650000Y-38287000D01*
X50690000Y-33773000D02*
X50690000Y-38227000D01*
X50730000Y-33835000D02*
X50730000Y-38165000D01*
X50770000Y-33899000D02*
X50770000Y-38101000D01*
X50810000Y-33966000D02*
X50810000Y-38034000D01*
X50850000Y-34036000D02*
X50850000Y-37964000D01*
X50890000Y-34110000D02*
X50890000Y-37890000D01*
X50930000Y-34187000D02*
X50930000Y-37813000D01*
X50970000Y-34269000D02*
X50970000Y-37731000D01*
X51010000Y-34356000D02*
X51010000Y-37644000D01*
X51050000Y-34448000D02*
X51050000Y-37552000D01*
X51090000Y-34547000D02*
X51090000Y-37453000D01*
X51130000Y-34654000D02*
X51130000Y-37346000D01*
X51170000Y-34772000D02*
X51170000Y-37228000D01*
X51210000Y-34903000D02*
X51210000Y-37097000D01*
X51250000Y-35053000D02*
X51250000Y-36947000D01*
X51290000Y-35232000D02*
X51290000Y-36768000D01*
X51330000Y-35467000D02*
X51330000Y-36533000D01*
X51370000Y-36000000D02*
G75*
G02*
X43130000Y-36000000I-4120000J0D01*
G01*
X43130000Y-36000000D02*
G75*
G02*
X51370000Y-36000000I4120000J0D01*
G01*
%TO.C,U1*%
D14*
X29000000Y-80250000D02*
X29000000Y-58750000D01*
X30000000Y-57750000D02*
X33390000Y-57750000D01*
X33390000Y-57750000D02*
X42330000Y-57750000D01*
X42330000Y-57750000D02*
X46000000Y-57750000D01*
X46000000Y-81250000D02*
X30000000Y-81250000D01*
X47000000Y-58750000D02*
X47000000Y-80250000D01*
X29000000Y-58750000D02*
G75*
G02*
X30000000Y-57750000I999999J1D01*
G01*
X30000000Y-81250000D02*
G75*
G02*
X29000000Y-80250000I-1J999999D01*
G01*
X46000000Y-57750000D02*
G75*
G02*
X47000000Y-58750000I0J-1000000D01*
G01*
X47000000Y-80250000D02*
G75*
G02*
X46000000Y-81250000I-1000000J0D01*
G01*
D16*
X28350000Y-59340000D02*
G75*
G02*
X28150000Y-59340000I-100000J0D01*
G01*
X28150000Y-59340000D02*
G75*
G02*
X28350000Y-59340000I100000J0D01*
G01*
%TO.C,C1*%
D15*
X48020354Y-63125000D02*
X49020354Y-63125000D01*
X48520354Y-62625000D02*
X48520354Y-63625000D01*
X53500000Y-60920000D02*
X53500000Y-71080000D01*
X53540000Y-60920000D02*
X53540000Y-71080000D01*
X53580000Y-60921000D02*
X53580000Y-71079000D01*
X53620000Y-60921000D02*
X53620000Y-71079000D01*
X53660000Y-60923000D02*
X53660000Y-71077000D01*
X53700000Y-60924000D02*
X53700000Y-71076000D01*
X53740000Y-60926000D02*
X53740000Y-71074000D01*
X53780000Y-60928000D02*
X53780000Y-71072000D01*
X53820000Y-60930000D02*
X53820000Y-71070000D01*
X53860000Y-60933000D02*
X53860000Y-71067000D01*
X53900000Y-60936000D02*
X53900000Y-71064000D01*
X53940000Y-60939000D02*
X53940000Y-71061000D01*
X53980000Y-60943000D02*
X53980000Y-71057000D01*
X54020000Y-60946000D02*
X54020000Y-71054000D01*
X54060000Y-60951000D02*
X54060000Y-71049000D01*
X54100000Y-60955000D02*
X54100000Y-71045000D01*
X54140000Y-60960000D02*
X54140000Y-71040000D01*
X54180000Y-60965000D02*
X54180000Y-71035000D01*
X54220000Y-60971000D02*
X54220000Y-71029000D01*
X54260000Y-60977000D02*
X54260000Y-71023000D01*
X54300000Y-60983000D02*
X54300000Y-71017000D01*
X54340000Y-60989000D02*
X54340000Y-71011000D01*
X54380000Y-60996000D02*
X54380000Y-71004000D01*
X54420000Y-61003000D02*
X54420000Y-70997000D01*
X54460000Y-61011000D02*
X54460000Y-70989000D01*
X54500000Y-61019000D02*
X54500000Y-70981000D01*
X54540000Y-61027000D02*
X54540000Y-70973000D01*
X54580000Y-61035000D02*
X54580000Y-70965000D01*
X54620000Y-61044000D02*
X54620000Y-70956000D01*
X54660000Y-61053000D02*
X54660000Y-70947000D01*
X54700000Y-61063000D02*
X54700000Y-70937000D01*
X54740000Y-61072000D02*
X54740000Y-70928000D01*
X54780000Y-61083000D02*
X54780000Y-64760000D01*
X54780000Y-67240000D02*
X54780000Y-70917000D01*
X54820000Y-61093000D02*
X54820000Y-64760000D01*
X54820000Y-67240000D02*
X54820000Y-70907000D01*
X54860000Y-61104000D02*
X54860000Y-64760000D01*
X54860000Y-67240000D02*
X54860000Y-70896000D01*
X54900000Y-61115000D02*
X54900000Y-64760000D01*
X54900000Y-67240000D02*
X54900000Y-70885000D01*
X54940000Y-61127000D02*
X54940000Y-64760000D01*
X54940000Y-67240000D02*
X54940000Y-70873000D01*
X54980000Y-61139000D02*
X54980000Y-64760000D01*
X54980000Y-67240000D02*
X54980000Y-70861000D01*
X55020000Y-61151000D02*
X55020000Y-64760000D01*
X55020000Y-67240000D02*
X55020000Y-70849000D01*
X55060000Y-61163000D02*
X55060000Y-64760000D01*
X55060000Y-67240000D02*
X55060000Y-70837000D01*
X55100000Y-61176000D02*
X55100000Y-64760000D01*
X55100000Y-67240000D02*
X55100000Y-70824000D01*
X55140000Y-61190000D02*
X55140000Y-64760000D01*
X55140000Y-67240000D02*
X55140000Y-70810000D01*
X55180000Y-61203000D02*
X55180000Y-64760000D01*
X55180000Y-67240000D02*
X55180000Y-70797000D01*
X55220000Y-61218000D02*
X55220000Y-64760000D01*
X55220000Y-67240000D02*
X55220000Y-70782000D01*
X55260000Y-61232000D02*
X55260000Y-64760000D01*
X55260000Y-67240000D02*
X55260000Y-70768000D01*
X55300000Y-61247000D02*
X55300000Y-64760000D01*
X55300000Y-67240000D02*
X55300000Y-70753000D01*
X55340000Y-61262000D02*
X55340000Y-64760000D01*
X55340000Y-67240000D02*
X55340000Y-70738000D01*
X55380000Y-61278000D02*
X55380000Y-64760000D01*
X55380000Y-67240000D02*
X55380000Y-70722000D01*
X55420000Y-61294000D02*
X55420000Y-64760000D01*
X55420000Y-67240000D02*
X55420000Y-70706000D01*
X55460000Y-61310000D02*
X55460000Y-64760000D01*
X55460000Y-67240000D02*
X55460000Y-70690000D01*
X55500000Y-61327000D02*
X55500000Y-64760000D01*
X55500000Y-67240000D02*
X55500000Y-70673000D01*
X55540000Y-61344000D02*
X55540000Y-64760000D01*
X55540000Y-67240000D02*
X55540000Y-70656000D01*
X55580000Y-61362000D02*
X55580000Y-64760000D01*
X55580000Y-67240000D02*
X55580000Y-70638000D01*
X55620000Y-61380000D02*
X55620000Y-64760000D01*
X55620000Y-67240000D02*
X55620000Y-70620000D01*
X55660000Y-61398000D02*
X55660000Y-64760000D01*
X55660000Y-67240000D02*
X55660000Y-70602000D01*
X55700000Y-61417000D02*
X55700000Y-64760000D01*
X55700000Y-67240000D02*
X55700000Y-70583000D01*
X55740000Y-61436000D02*
X55740000Y-64760000D01*
X55740000Y-67240000D02*
X55740000Y-70564000D01*
X55780000Y-61456000D02*
X55780000Y-64760000D01*
X55780000Y-67240000D02*
X55780000Y-70544000D01*
X55820000Y-61476000D02*
X55820000Y-64760000D01*
X55820000Y-67240000D02*
X55820000Y-70524000D01*
X55860000Y-61496000D02*
X55860000Y-64760000D01*
X55860000Y-67240000D02*
X55860000Y-70504000D01*
X55900000Y-61517000D02*
X55900000Y-64760000D01*
X55900000Y-67240000D02*
X55900000Y-70483000D01*
X55940000Y-61539000D02*
X55940000Y-64760000D01*
X55940000Y-67240000D02*
X55940000Y-70461000D01*
X55980000Y-61561000D02*
X55980000Y-64760000D01*
X55980000Y-67240000D02*
X55980000Y-70439000D01*
X56020000Y-61583000D02*
X56020000Y-64760000D01*
X56020000Y-67240000D02*
X56020000Y-70417000D01*
X56060000Y-61606000D02*
X56060000Y-64760000D01*
X56060000Y-67240000D02*
X56060000Y-70394000D01*
X56100000Y-61629000D02*
X56100000Y-64760000D01*
X56100000Y-67240000D02*
X56100000Y-70371000D01*
X56140000Y-61653000D02*
X56140000Y-64760000D01*
X56140000Y-67240000D02*
X56140000Y-70347000D01*
X56180000Y-61677000D02*
X56180000Y-64760000D01*
X56180000Y-67240000D02*
X56180000Y-70323000D01*
X56220000Y-61702000D02*
X56220000Y-64760000D01*
X56220000Y-67240000D02*
X56220000Y-70298000D01*
X56260000Y-61728000D02*
X56260000Y-64760000D01*
X56260000Y-67240000D02*
X56260000Y-70272000D01*
X56300000Y-61753000D02*
X56300000Y-64760000D01*
X56300000Y-67240000D02*
X56300000Y-70247000D01*
X56340000Y-61780000D02*
X56340000Y-64760000D01*
X56340000Y-67240000D02*
X56340000Y-70220000D01*
X56380000Y-61807000D02*
X56380000Y-64760000D01*
X56380000Y-67240000D02*
X56380000Y-70193000D01*
X56420000Y-61834000D02*
X56420000Y-64760000D01*
X56420000Y-67240000D02*
X56420000Y-70166000D01*
X56460000Y-61862000D02*
X56460000Y-64760000D01*
X56460000Y-67240000D02*
X56460000Y-70138000D01*
X56500000Y-61891000D02*
X56500000Y-64760000D01*
X56500000Y-67240000D02*
X56500000Y-70109000D01*
X56540000Y-61920000D02*
X56540000Y-64760000D01*
X56540000Y-67240000D02*
X56540000Y-70080000D01*
X56580000Y-61950000D02*
X56580000Y-64760000D01*
X56580000Y-67240000D02*
X56580000Y-70050000D01*
X56620000Y-61980000D02*
X56620000Y-64760000D01*
X56620000Y-67240000D02*
X56620000Y-70020000D01*
X56660000Y-62012000D02*
X56660000Y-64760000D01*
X56660000Y-67240000D02*
X56660000Y-69988000D01*
X56700000Y-62043000D02*
X56700000Y-64760000D01*
X56700000Y-67240000D02*
X56700000Y-69957000D01*
X56740000Y-62076000D02*
X56740000Y-64760000D01*
X56740000Y-67240000D02*
X56740000Y-69924000D01*
X56780000Y-62109000D02*
X56780000Y-64760000D01*
X56780000Y-67240000D02*
X56780000Y-69891000D01*
X56820000Y-62142000D02*
X56820000Y-64760000D01*
X56820000Y-67240000D02*
X56820000Y-69858000D01*
X56860000Y-62177000D02*
X56860000Y-64760000D01*
X56860000Y-67240000D02*
X56860000Y-69823000D01*
X56900000Y-62212000D02*
X56900000Y-64760000D01*
X56900000Y-67240000D02*
X56900000Y-69788000D01*
X56940000Y-62248000D02*
X56940000Y-64760000D01*
X56940000Y-67240000D02*
X56940000Y-69752000D01*
X56980000Y-62284000D02*
X56980000Y-64760000D01*
X56980000Y-67240000D02*
X56980000Y-69716000D01*
X57020000Y-62322000D02*
X57020000Y-64760000D01*
X57020000Y-67240000D02*
X57020000Y-69678000D01*
X57060000Y-62360000D02*
X57060000Y-64760000D01*
X57060000Y-67240000D02*
X57060000Y-69640000D01*
X57100000Y-62399000D02*
X57100000Y-64760000D01*
X57100000Y-67240000D02*
X57100000Y-69601000D01*
X57140000Y-62439000D02*
X57140000Y-64760000D01*
X57140000Y-67240000D02*
X57140000Y-69561000D01*
X57180000Y-62480000D02*
X57180000Y-64760000D01*
X57180000Y-67240000D02*
X57180000Y-69520000D01*
X57220000Y-62522000D02*
X57220000Y-64760000D01*
X57220000Y-67240000D02*
X57220000Y-69478000D01*
X57260000Y-62565000D02*
X57260000Y-69435000D01*
X57300000Y-62609000D02*
X57300000Y-69391000D01*
X57340000Y-62653000D02*
X57340000Y-69347000D01*
X57380000Y-62699000D02*
X57380000Y-69301000D01*
X57420000Y-62746000D02*
X57420000Y-69254000D01*
X57460000Y-62795000D02*
X57460000Y-69205000D01*
X57500000Y-62844000D02*
X57500000Y-69156000D01*
X57540000Y-62895000D02*
X57540000Y-69105000D01*
X57580000Y-62947000D02*
X57580000Y-69053000D01*
X57620000Y-63000000D02*
X57620000Y-69000000D01*
X57660000Y-63055000D02*
X57660000Y-68945000D01*
X57700000Y-63112000D02*
X57700000Y-68888000D01*
X57740000Y-63170000D02*
X57740000Y-68830000D01*
X57780000Y-63230000D02*
X57780000Y-68770000D01*
X57820000Y-63292000D02*
X57820000Y-68708000D01*
X57860000Y-63356000D02*
X57860000Y-68644000D01*
X57900000Y-63422000D02*
X57900000Y-68578000D01*
X57940000Y-63490000D02*
X57940000Y-68510000D01*
X57980000Y-63561000D02*
X57980000Y-68439000D01*
X58020000Y-63635000D02*
X58020000Y-68365000D01*
X58060000Y-63712000D02*
X58060000Y-68288000D01*
X58100000Y-63792000D02*
X58100000Y-68208000D01*
X58140000Y-63876000D02*
X58140000Y-68124000D01*
X58180000Y-63963000D02*
X58180000Y-68037000D01*
X58220000Y-64056000D02*
X58220000Y-67944000D01*
X58260000Y-64154000D02*
X58260000Y-67846000D01*
X58300000Y-64258000D02*
X58300000Y-67742000D01*
X58340000Y-64370000D02*
X58340000Y-67630000D01*
X58380000Y-64491000D02*
X58380000Y-67509000D01*
X58420000Y-64623000D02*
X58420000Y-67377000D01*
X58460000Y-64770000D02*
X58460000Y-67230000D01*
X58500000Y-64938000D02*
X58500000Y-67062000D01*
X58540000Y-65138000D02*
X58540000Y-66862000D01*
X58580000Y-65401000D02*
X58580000Y-66599000D01*
X58620000Y-66000000D02*
G75*
G02*
X48380000Y-66000000I-5120000J0D01*
G01*
X48380000Y-66000000D02*
G75*
G02*
X58620000Y-66000000I5120000J0D01*
G01*
%TO.C,U2*%
X25430000Y-30696000D02*
X41940000Y-30696000D01*
X25430000Y-51270000D02*
X25430000Y-30696000D01*
X41940000Y-30696000D02*
X41940000Y-51270000D01*
X41940000Y-51270000D02*
X25430000Y-51270000D01*
X40767832Y-32982000D02*
G75*
G02*
X38032168Y-32982000I-1367832J0D01*
G01*
X38032168Y-32982000D02*
G75*
G02*
X40767832Y-32982000I1367832J0D01*
G01*
X40767832Y-48984000D02*
G75*
G02*
X38032168Y-48984000I-1367832J0D01*
G01*
X38032168Y-48984000D02*
G75*
G02*
X40767832Y-48984000I1367832J0D01*
G01*
%TO.C,U3*%
D11*
X53000000Y-50500000D02*
X57000000Y-50500000D01*
X86400000Y-36900000D02*
X89600000Y-36900000D01*
X53000000Y-29500000D02*
X90000000Y-29500000D01*
X90000000Y-55500000D01*
X53000000Y-55500000D01*
X53000000Y-29500000D01*
%TD*%
M02*
