%TF.GenerationSoftware,KiCad,Pcbnew,10.0.5*%
%TF.CreationDate,2026-09-10T11:57:11+07:00*%
%TF.ProjectId,vsmart-module-esp32-s3-mini,76736d61-7274-42d6-9d6f-64756c652d65,rev?*%
%TF.SameCoordinates,Original*%
%TF.FileFunction,Copper,L2,Bot*%
%TF.FilePolarity,Positive*%
%FSLAX46Y46*%
G04 Gerber Fmt 4.6, Leading zero omitted, Abs format (unit mm)*
G04 Created by KiCad (PCBNEW 10.0.5) date 2026-09-10 11:57:11*
%MOMM*%
%LPD*%
G01*
G04 APERTURE LIST*
G04 Aperture macros list*
%AMRoundRect*
0 Rectangle with rounded corners*
0 $1 Rounding radius*
0 $2 $3 $4 $5 $6 $7 $8 $9 X,Y pos of 4 corners*
0 Add a 4 corners polygon primitive as box body*
4,1,4,$2,$3,$4,$5,$6,$7,$8,$9,$2,$3,0*
0 Add four circle primitives for the rounded corners*
1,1,$1+$1,$2,$3*
1,1,$1+$1,$4,$5*
1,1,$1+$1,$6,$7*
1,1,$1+$1,$8,$9*
0 Add four rect primitives between the rounded corners*
20,1,$1+$1,$2,$3,$4,$5,0*
20,1,$1+$1,$4,$5,$6,$7,0*
20,1,$1+$1,$6,$7,$8,$9,0*
20,1,$1+$1,$8,$9,$2,$3,0*%
G04 Aperture macros list end*
%TA.AperFunction,ComponentPad*%
%ADD10RoundRect,0.250000X-1.125000X-1.125000X1.125000X-1.125000X1.125000X1.125000X-1.125000X1.125000X0*%
%TD*%
%TA.AperFunction,ComponentPad*%
%ADD11C,2.750000*%
%TD*%
%TA.AperFunction,ComponentPad*%
%ADD12RoundRect,0.250000X-0.550000X-0.550000X0.550000X-0.550000X0.550000X0.550000X-0.550000X0.550000X0*%
%TD*%
%TA.AperFunction,ComponentPad*%
%ADD13C,1.600000*%
%TD*%
%TA.AperFunction,ComponentPad*%
%ADD14C,1.800000*%
%TD*%
%TA.AperFunction,ComponentPad*%
%ADD15R,1.800000X1.800000*%
%TD*%
%TA.AperFunction,ComponentPad*%
%ADD16RoundRect,0.250000X-0.750000X-0.750000X0.750000X-0.750000X0.750000X0.750000X-0.750000X0.750000X0*%
%TD*%
%TA.AperFunction,ComponentPad*%
%ADD17C,2.000000*%
%TD*%
%TA.AperFunction,ComponentPad*%
%ADD18C,1.524000*%
%TD*%
%TA.AperFunction,ComponentPad*%
%ADD19O,1.800000X1.800000*%
%TD*%
%TA.AperFunction,ComponentPad*%
%ADD20RoundRect,0.250000X1.125000X-1.125000X1.125000X1.125000X-1.125000X1.125000X-1.125000X-1.125000X0*%
%TD*%
%TA.AperFunction,ComponentPad*%
%ADD21R,1.700000X1.700000*%
%TD*%
%TA.AperFunction,ComponentPad*%
%ADD22O,1.700000X1.700000*%
%TD*%
%TA.AperFunction,ViaPad*%
%ADD23C,0.600000*%
%TD*%
%TA.AperFunction,Conductor*%
%ADD24C,2.000000*%
%TD*%
%TA.AperFunction,Conductor*%
%ADD25C,1.000000*%
%TD*%
%TA.AperFunction,Conductor*%
%ADD26C,0.500000*%
%TD*%
%TA.AperFunction,Conductor*%
%ADD27C,0.200000*%
%TD*%
%TA.AperFunction,Conductor*%
%ADD28C,0.250000*%
%TD*%
G04 APERTURE END LIST*
D10*
%TO.P,J2,1*%
%TO.N,+5V_SIM*%
X50500000Y-78500000D03*
D11*
%TO.P,J2,2*%
%TO.N,GND*%
X55900000Y-78500000D03*
%TD*%
D12*
%TO.P,C3,1*%
%TO.N,+5V*%
X45500000Y-36000000D03*
D13*
%TO.P,C3,2*%
%TO.N,GND*%
X49000000Y-36000000D03*
%TD*%
D14*
%TO.P,U1,1*%
%TO.N,N/C*%
X30380000Y-64420000D03*
%TO.P,U1,2*%
X30380000Y-66960000D03*
%TO.P,U1,3*%
X30380000Y-69500000D03*
%TO.P,U1,3V3*%
%TO.N,+3V3*%
X45620000Y-64420000D03*
%TO.P,U1,4*%
%TO.N,N/C*%
X30380000Y-72040000D03*
%TO.P,U1,5*%
X30380000Y-74580000D03*
D15*
%TO.P,U1,5V*%
%TO.N,+5V*%
X45620000Y-59340000D03*
D14*
%TO.P,U1,6*%
%TO.N,SIM_RX*%
X30380000Y-77120000D03*
%TO.P,U1,7*%
%TO.N,SIM_TX*%
X30380000Y-79660000D03*
%TO.P,U1,8*%
%TO.N,I2C_SDA*%
X45620000Y-79660000D03*
%TO.P,U1,9*%
%TO.N,I2C_SCL*%
X45620000Y-77120000D03*
%TO.P,U1,10*%
%TO.N,MPU_INT*%
X45620000Y-74580000D03*
%TO.P,U1,11*%
%TO.N,SIM_DTR*%
X45620000Y-72040000D03*
%TO.P,U1,12*%
%TO.N,SIM_RST*%
X45620000Y-69500000D03*
%TO.P,U1,13*%
%TO.N,SIM_RI*%
X45620000Y-66960000D03*
%TO.P,U1,GND*%
%TO.N,GND*%
X45620000Y-61880000D03*
%TO.P,U1,RX*%
%TO.N,GPS_RX*%
X30380000Y-61880000D03*
%TO.P,U1,TX*%
%TO.N,GPS_TX*%
X30380000Y-59340000D03*
%TD*%
D16*
%TO.P,C1,1*%
%TO.N,+5V_SIM*%
X51000000Y-66000000D03*
D17*
%TO.P,C1,2*%
%TO.N,GND*%
X56000000Y-66000000D03*
%TD*%
D18*
%TO.P,U2,1*%
%TO.N,+3V3*%
X26700000Y-32220000D03*
%TO.P,U2,2*%
%TO.N,GND*%
X26700000Y-34760000D03*
%TO.P,U2,3*%
%TO.N,I2C_SCL*%
X26700000Y-37300000D03*
%TO.P,U2,4*%
%TO.N,I2C_SDA*%
X26700000Y-39840000D03*
%TO.P,U2,5*%
%TO.N,N/C*%
X26700000Y-42380000D03*
%TO.P,U2,6*%
X26700000Y-44920000D03*
%TO.P,U2,7*%
%TO.N,GND*%
X26700000Y-47460000D03*
%TO.P,U2,8*%
%TO.N,MPU_INT*%
X26700000Y-50000000D03*
%TD*%
D15*
%TO.P,U3,1*%
%TO.N,+3V3*%
X88000000Y-38690000D03*
D19*
%TO.P,U3,2*%
%TO.N,GPS_TX*%
X88000000Y-41230000D03*
%TO.P,U3,3*%
%TO.N,GPS_RX*%
X88000000Y-43770000D03*
%TO.P,U3,4*%
%TO.N,GND*%
X88000000Y-46310000D03*
%TD*%
D20*
%TO.P,J1,1*%
%TO.N,+5V*%
X33000000Y-24000000D03*
D11*
%TO.P,J1,2*%
%TO.N,GND*%
X38400000Y-24000000D03*
%TD*%
D21*
%TO.P,U4,1*%
%TO.N,SIM_RI*%
X61126400Y-64746000D03*
D22*
%TO.P,U4,2*%
%TO.N,SIM_DTR*%
X61126400Y-67286000D03*
%TO.P,U4,3*%
%TO.N,N/C*%
X61126400Y-69826000D03*
%TO.P,U4,4*%
X61126400Y-72366000D03*
%TO.P,U4,5*%
X61126400Y-74906000D03*
%TO.P,U4,6*%
X61126400Y-77446000D03*
D21*
%TO.P,U4,7*%
X83200000Y-62222000D03*
D22*
%TO.P,U4,8*%
%TO.N,+5V_SIM*%
X83200000Y-64762000D03*
%TO.P,U4,9*%
%TO.N,SIM_RST*%
X83200000Y-67302000D03*
%TO.P,U4,10*%
%TO.N,SIM_TX*%
X83200000Y-69842000D03*
%TO.P,U4,11*%
%TO.N,SIM_RX*%
X83200000Y-72382000D03*
%TO.P,U4,12*%
%TO.N,GND*%
X83200000Y-74922000D03*
%TD*%
D23*
%TO.N,GND*%
X80450000Y-60450000D03*
X40450000Y-55450000D03*
X80450000Y-25450000D03*
X90450000Y-65450000D03*
X25450000Y-60450000D03*
X60450000Y-80450000D03*
X70450000Y-50450000D03*
X65450000Y-65450000D03*
X60450000Y-30450000D03*
X85450000Y-60450000D03*
X60450000Y-55450000D03*
X40450000Y-50450000D03*
X30450000Y-55450000D03*
X76950000Y-57800000D03*
X70450000Y-25450000D03*
X85450000Y-35450000D03*
X35450000Y-45450000D03*
X70450000Y-30450000D03*
X90450000Y-30450000D03*
X25450000Y-30450000D03*
X75450000Y-75450000D03*
X40450000Y-35450000D03*
X75450000Y-35450000D03*
X25450000Y-65450000D03*
X55450000Y-75450000D03*
X85450000Y-40450000D03*
X30450000Y-35450000D03*
X90450000Y-70450000D03*
X40450000Y-25450000D03*
X85450000Y-50450000D03*
X65450000Y-80450000D03*
X85450000Y-75450000D03*
X85450000Y-25450000D03*
X31325000Y-40893000D03*
X25450000Y-55450000D03*
X30450000Y-30450000D03*
X85450000Y-65450000D03*
X35450000Y-30450000D03*
X60450000Y-25450000D03*
X70450000Y-45450000D03*
X55450000Y-35450000D03*
X55450000Y-80450000D03*
X65450000Y-35450000D03*
X25450000Y-35450000D03*
X65450000Y-25450000D03*
X34411000Y-61338000D03*
X80450000Y-50450000D03*
X35450000Y-55450000D03*
X35450000Y-35450000D03*
X85450000Y-30450000D03*
X70450000Y-55450000D03*
X35450000Y-50450000D03*
X65450000Y-50450000D03*
X30450000Y-50450000D03*
X65450000Y-30450000D03*
X55450000Y-25450000D03*
X25450000Y-80450000D03*
X60450000Y-35450000D03*
X35450000Y-25450000D03*
X55450000Y-55450000D03*
X30450000Y-25450000D03*
X55450000Y-45450000D03*
X40450000Y-45450000D03*
X70450000Y-35450000D03*
X49427000Y-70840000D03*
X90450000Y-35450000D03*
X45450000Y-25450000D03*
X85450000Y-45450000D03*
X25450000Y-75450000D03*
X85450000Y-70450000D03*
X90450000Y-50450000D03*
X47164000Y-68606000D03*
X65450000Y-55450000D03*
X30450000Y-45450000D03*
X75450000Y-65450000D03*
X50450000Y-25450000D03*
X80450000Y-30450000D03*
X80450000Y-80450000D03*
X75450000Y-80450000D03*
X40450000Y-30450000D03*
X45450000Y-30450000D03*
X70450000Y-75450000D03*
X55450000Y-50450000D03*
X45450000Y-50450000D03*
X65450000Y-45450000D03*
X80450000Y-35450000D03*
X90450000Y-60450000D03*
X85450000Y-80450000D03*
X70450000Y-65450000D03*
X90450000Y-55450000D03*
X80450000Y-65450000D03*
X45450000Y-45450000D03*
X80450000Y-55450000D03*
X80450000Y-45450000D03*
X75450000Y-25450000D03*
X60450000Y-50450000D03*
X75450000Y-30450000D03*
X50450000Y-45450000D03*
X80450000Y-75450000D03*
X50450000Y-50450000D03*
X76950000Y-60000000D03*
X65450000Y-75450000D03*
X32811000Y-61338000D03*
X60450000Y-45450000D03*
X90450000Y-80450000D03*
X48565000Y-78056000D03*
X70450000Y-80450000D03*
X85450000Y-55450000D03*
%TO.N,SIM_RX*%
X49102500Y-71733000D03*
%TO.N,SIM_TX*%
X47987200Y-70118800D03*
%TO.N,I2C_SCL*%
X48400000Y-77120000D03*
%TO.N,MPU_INT*%
X44000000Y-74100000D03*
X44000000Y-72500000D03*
%TO.N,SIM_DTR*%
X48100000Y-68771000D03*
%TD*%
%TO.N,+5V_SIM*%
D24*
X51500000Y-66000000D02*
X51000000Y-66000000D01*
X50500000Y-78500000D02*
X51500000Y-78500000D01*
X51500000Y-78500000D02*
X51500000Y-66000000D01*
%TO.N,+5V*%
D25*
X45500000Y-36750000D02*
X45500000Y-36000000D01*
X33000000Y-24000000D02*
X33000000Y-36750000D01*
X33000000Y-36750000D02*
X45500000Y-36750000D01*
X46750000Y-36000000D02*
X46750000Y-59250000D01*
X45500000Y-36000000D02*
X46750000Y-36000000D01*
X46750000Y-59250000D02*
X45620000Y-59340000D01*
%TO.N,+3V3*%
D26*
X26700000Y-32220000D02*
X26750000Y-22000000D01*
X87750000Y-38750000D02*
X88000000Y-38690000D01*
X87750000Y-22000000D02*
X87750000Y-38750000D01*
X28000000Y-38000000D02*
X28000000Y-32250000D01*
X28000000Y-32250000D02*
X26700000Y-32220000D01*
X45620000Y-64420000D02*
X36250000Y-64500000D01*
X26750000Y-22000000D02*
X87750000Y-22000000D01*
X36250000Y-64500000D02*
X36250000Y-38000000D01*
X36250000Y-38000000D02*
X28000000Y-38000000D01*
%TO.N,SIM_RX*%
D27*
X49102500Y-71733000D02*
X49102500Y-72809200D01*
X46064300Y-75847400D02*
X31522600Y-75847400D01*
X49102500Y-72809200D02*
X46064300Y-75847400D01*
X30380000Y-76990000D02*
X30380000Y-77120000D01*
X31522600Y-75847400D02*
X30380000Y-76990000D01*
%TO.N,SIM_TX*%
X29142500Y-78422500D02*
X29142500Y-74093600D01*
X47987200Y-71399800D02*
X47987200Y-70118800D01*
X30380000Y-79660000D02*
X29142500Y-78422500D01*
X29926100Y-73310000D02*
X46077000Y-73310000D01*
X29142500Y-74093600D02*
X29926100Y-73310000D01*
X46077000Y-73310000D02*
X47987200Y-71399800D01*
%TO.N,I2C_SCL*%
D28*
X45620000Y-77120000D02*
X48400000Y-77120000D01*
%TO.N,MPU_INT*%
X44000000Y-70770000D02*
X24000000Y-70770000D01*
X44000000Y-74580000D02*
X44000000Y-74100000D01*
X26700000Y-51000000D02*
X26700000Y-50000000D01*
X44000000Y-72500000D02*
X44000000Y-70770000D01*
X45620000Y-74580000D02*
X44000000Y-74580000D01*
X24000000Y-51000000D02*
X26700000Y-51000000D01*
X24000000Y-70770000D02*
X24000000Y-51000000D01*
%TO.N,SIM_DTR*%
D27*
X48100000Y-68771000D02*
X45620000Y-71251000D01*
X45620000Y-71251000D02*
X45620000Y-72040000D01*
%TO.N,GPS_TX*%
D28*
X24750000Y-27000000D02*
X26000000Y-27000000D01*
X30380000Y-59340000D02*
X28000000Y-59250000D01*
X28000000Y-59250000D02*
X28000000Y-41000000D01*
X26000000Y-21250000D02*
X92000000Y-21250000D01*
X26000000Y-27000000D02*
X26000000Y-21250000D01*
X28000000Y-41000000D02*
X24750000Y-41000000D01*
X92000000Y-21250000D02*
X92000000Y-41250000D01*
X24750000Y-41000000D02*
X24750000Y-27000000D01*
X92000000Y-41250000D02*
X88000000Y-41230000D01*
%TD*%
%TA.AperFunction,Conductor*%
%TO.N,GND*%
G36*
X91002992Y-20500681D02*
G01*
X91295309Y-20518362D01*
X91307164Y-20519802D01*
X91592280Y-20572051D01*
X91603882Y-20574911D01*
X91783823Y-20630983D01*
X91833754Y-20666346D01*
X91853363Y-20724304D01*
X91835160Y-20782719D01*
X91786098Y-20819278D01*
X91754370Y-20824500D01*
X26056018Y-20824500D01*
X25943982Y-20824500D01*
X25877748Y-20842247D01*
X25835758Y-20853498D01*
X25738739Y-20909513D01*
X25659513Y-20988739D01*
X25603498Y-21085758D01*
X25574500Y-21193983D01*
X25574500Y-23720503D01*
X25555593Y-23778694D01*
X25506093Y-23814658D01*
X25444907Y-23814658D01*
X25396962Y-23780776D01*
X25394269Y-23777267D01*
X25394268Y-23777266D01*
X25394265Y-23777262D01*
X25222738Y-23605735D01*
X25222733Y-23605731D01*
X25222731Y-23605729D01*
X25030292Y-23458066D01*
X25002846Y-23442220D01*
X24820212Y-23336776D01*
X24820208Y-23336774D01*
X24820204Y-23336772D01*
X24596105Y-23243948D01*
X24596104Y-23243947D01*
X24596100Y-23243946D01*
X24361789Y-23181162D01*
X24361786Y-23181161D01*
X24361784Y-23181161D01*
X24121289Y-23149500D01*
X24121288Y-23149500D01*
X23878712Y-23149500D01*
X23878710Y-23149500D01*
X23638218Y-23181161D01*
X23638213Y-23181161D01*
X23403907Y-23243944D01*
X23403894Y-23243948D01*
X23179795Y-23336772D01*
X22969707Y-23458066D01*
X22777268Y-23605729D01*
X22605729Y-23777268D01*
X22458066Y-23969707D01*
X22336772Y-24179795D01*
X22243948Y-24403894D01*
X22243944Y-24403907D01*
X22181161Y-24638213D01*
X22181161Y-24638218D01*
X22149500Y-24878710D01*
X22149500Y-25121289D01*
X22181161Y-25361781D01*
X22181161Y-25361786D01*
X22243944Y-25596092D01*
X22243948Y-25596105D01*
X22336772Y-25820204D01*
X22336774Y-25820208D01*
X22336776Y-25820212D01*
X22368408Y-25875000D01*
X22458066Y-26030292D01*
X22605729Y-26222731D01*
X22605730Y-26222732D01*
X22605735Y-26222738D01*
X22777262Y-26394265D01*
X22777266Y-26394268D01*
X22777268Y-26394270D01*
X22969707Y-26541933D01*
X22969711Y-26541936D01*
X23179788Y-26663224D01*
X23403900Y-26756054D01*
X23638211Y-26818838D01*
X23878712Y-26850500D01*
X23878713Y-26850500D01*
X24121287Y-26850500D01*
X24121288Y-26850500D01*
X24212694Y-26838466D01*
X24272853Y-26849616D01*
X24314971Y-26893998D01*
X24321861Y-26937493D01*
X24324500Y-26937493D01*
X24324500Y-26943982D01*
X24324500Y-41056018D01*
X24345801Y-41135515D01*
X24353498Y-41164241D01*
X24409513Y-41261260D01*
X24409515Y-41261263D01*
X24488737Y-41340485D01*
X24488739Y-41340486D01*
X24585759Y-41396501D01*
X24585757Y-41396501D01*
X24585761Y-41396502D01*
X24585763Y-41396503D01*
X24693982Y-41425500D01*
X24806018Y-41425500D01*
X25912891Y-41425500D01*
X25971082Y-41444407D01*
X26007046Y-41493907D01*
X26007046Y-41555093D01*
X25982896Y-41594501D01*
X25916282Y-41661116D01*
X25874699Y-41702699D01*
X25758424Y-41876718D01*
X25678332Y-42070076D01*
X25678330Y-42070082D01*
X25637500Y-42275350D01*
X25637500Y-42484649D01*
X25678330Y-42689917D01*
X25678332Y-42689923D01*
X25758424Y-42883281D01*
X25874699Y-43057300D01*
X25874702Y-43057304D01*
X26022696Y-43205298D01*
X26196718Y-43321575D01*
X26390080Y-43401669D01*
X26595353Y-43442500D01*
X26595354Y-43442500D01*
X26804646Y-43442500D01*
X26804647Y-43442500D01*
X27009920Y-43401669D01*
X27203282Y-43321575D01*
X27377304Y-43205298D01*
X27405498Y-43177103D01*
X27460013Y-43149328D01*
X27520445Y-43158899D01*
X27563710Y-43202164D01*
X27574500Y-43247109D01*
X27574500Y-44052890D01*
X27555593Y-44111081D01*
X27506093Y-44147045D01*
X27444907Y-44147045D01*
X27405498Y-44122895D01*
X27377304Y-44094701D01*
X27203281Y-43978424D01*
X27009923Y-43898332D01*
X27009917Y-43898330D01*
X26804649Y-43857500D01*
X26804647Y-43857500D01*
X26595353Y-43857500D01*
X26595350Y-43857500D01*
X26390082Y-43898330D01*
X26390076Y-43898332D01*
X26196718Y-43978424D01*
X26022699Y-44094699D01*
X25874699Y-44242699D01*
X25758424Y-44416718D01*
X25678332Y-44610076D01*
X25678330Y-44610082D01*
X25637500Y-44815350D01*
X25637500Y-45024649D01*
X25678330Y-45229917D01*
X25678332Y-45229923D01*
X25758424Y-45423281D01*
X25860629Y-45576242D01*
X25874702Y-45597304D01*
X26022696Y-45745298D01*
X26196718Y-45861575D01*
X26390080Y-45941669D01*
X26595353Y-45982500D01*
X26595354Y-45982500D01*
X26804646Y-45982500D01*
X26804647Y-45982500D01*
X27009920Y-45941669D01*
X27203282Y-45861575D01*
X27377304Y-45745298D01*
X27405498Y-45717103D01*
X27460013Y-45689328D01*
X27520445Y-45698899D01*
X27563710Y-45742164D01*
X27574500Y-45787109D01*
X27574500Y-46341145D01*
X27555593Y-46399336D01*
X27506093Y-46435300D01*
X27444907Y-46435300D01*
X27417310Y-46421238D01*
X27361435Y-46380642D01*
X27361431Y-46380640D01*
X27184440Y-46290459D01*
X26995514Y-46229073D01*
X26799325Y-46198000D01*
X26600675Y-46198000D01*
X26404485Y-46229073D01*
X26215559Y-46290459D01*
X26038567Y-46380641D01*
X26001283Y-46407728D01*
X26570591Y-46977037D01*
X26507007Y-46994075D01*
X26392993Y-47059901D01*
X26299901Y-47152993D01*
X26234075Y-47267007D01*
X26217037Y-47330592D01*
X25647728Y-46761283D01*
X25620641Y-46798567D01*
X25530459Y-46975559D01*
X25469073Y-47164485D01*
X25438000Y-47360674D01*
X25438000Y-47559325D01*
X25469073Y-47755514D01*
X25530459Y-47944440D01*
X25620637Y-48121425D01*
X25647729Y-48158714D01*
X26217036Y-47589406D01*
X26234075Y-47652993D01*
X26299901Y-47767007D01*
X26392993Y-47860099D01*
X26507007Y-47925925D01*
X26570590Y-47942962D01*
X26001283Y-48512270D01*
X26038564Y-48539357D01*
X26038568Y-48539359D01*
X26215559Y-48629540D01*
X26404485Y-48690926D01*
X26600675Y-48722000D01*
X26799325Y-48722000D01*
X26995514Y-48690926D01*
X27184440Y-48629540D01*
X27361431Y-48539359D01*
X27361437Y-48539355D01*
X27417309Y-48498762D01*
X27475499Y-48479854D01*
X27533690Y-48498761D01*
X27569654Y-48548261D01*
X27574500Y-48578854D01*
X27574500Y-49132890D01*
X27555593Y-49191081D01*
X27506093Y-49227045D01*
X27444907Y-49227045D01*
X27405498Y-49202895D01*
X27377304Y-49174701D01*
X27203281Y-49058424D01*
X27009923Y-48978332D01*
X27009917Y-48978330D01*
X26804649Y-48937500D01*
X26804647Y-48937500D01*
X26595353Y-48937500D01*
X26595350Y-48937500D01*
X26390082Y-48978330D01*
X26390076Y-48978332D01*
X26196718Y-49058424D01*
X26022699Y-49174699D01*
X25874699Y-49322699D01*
X25758424Y-49496718D01*
X25678332Y-49690076D01*
X25678330Y-49690082D01*
X25637500Y-49895350D01*
X25637500Y-50104649D01*
X25678330Y-50309917D01*
X25678332Y-50309923D01*
X25731224Y-50437614D01*
X25736025Y-50498611D01*
X25704056Y-50550780D01*
X25647528Y-50574195D01*
X25639760Y-50574500D01*
X24056018Y-50574500D01*
X23943982Y-50574500D01*
X23877748Y-50592247D01*
X23835758Y-50603498D01*
X23738739Y-50659513D01*
X23659513Y-50738739D01*
X23603498Y-50835758D01*
X23603497Y-50835763D01*
X23574500Y-50943982D01*
X23574500Y-70826018D01*
X23586033Y-70869060D01*
X23603498Y-70934241D01*
X23649108Y-71013238D01*
X23659515Y-71031263D01*
X23738737Y-71110485D01*
X23738739Y-71110486D01*
X23835759Y-71166501D01*
X23835757Y-71166501D01*
X23835761Y-71166502D01*
X23835763Y-71166503D01*
X23943982Y-71195500D01*
X24056018Y-71195500D01*
X29315367Y-71195500D01*
X29373558Y-71214407D01*
X29409522Y-71263907D01*
X29409522Y-71325093D01*
X29395460Y-71352691D01*
X29353238Y-71410803D01*
X29267453Y-71579167D01*
X29209058Y-71758886D01*
X29179500Y-71945515D01*
X29179500Y-72134484D01*
X29209058Y-72321113D01*
X29267453Y-72500832D01*
X29348802Y-72660490D01*
X29353240Y-72669199D01*
X29464310Y-72822073D01*
X29585969Y-72943732D01*
X29613745Y-72998247D01*
X29604174Y-73058679D01*
X29585968Y-73083737D01*
X28822020Y-73847686D01*
X28822016Y-73847691D01*
X28769293Y-73939011D01*
X28769292Y-73939011D01*
X28769293Y-73939012D01*
X28769293Y-73939013D01*
X28742000Y-74040873D01*
X28742000Y-78369773D01*
X28742000Y-78475227D01*
X28761368Y-78547512D01*
X28769294Y-78577092D01*
X28822016Y-78668408D01*
X28822020Y-78668413D01*
X29245668Y-79092062D01*
X29273445Y-79146578D01*
X29267697Y-79195157D01*
X29268655Y-79195469D01*
X29209058Y-79378886D01*
X29179500Y-79565515D01*
X29179500Y-79754484D01*
X29209058Y-79941113D01*
X29267453Y-80120832D01*
X29295307Y-80175500D01*
X29353240Y-80289199D01*
X29464310Y-80442073D01*
X29597927Y-80575690D01*
X29750801Y-80686760D01*
X29919168Y-80772547D01*
X30098882Y-80830940D01*
X30098883Y-80830940D01*
X30098886Y-80830941D01*
X30285516Y-80860500D01*
X30285519Y-80860500D01*
X30474484Y-80860500D01*
X30661113Y-80830941D01*
X30661114Y-80830940D01*
X30661118Y-80830940D01*
X30840832Y-80772547D01*
X31009199Y-80686760D01*
X31162073Y-80575690D01*
X31295690Y-80442073D01*
X31320908Y-80407362D01*
X31370407Y-80371400D01*
X31431593Y-80371400D01*
X31481093Y-80407364D01*
X31500000Y-80465555D01*
X31500000Y-81400500D01*
X31481093Y-81458691D01*
X31431593Y-81494655D01*
X31401000Y-81499500D01*
X23002985Y-81499500D01*
X22997008Y-81499319D01*
X22973564Y-81497900D01*
X22704695Y-81481637D01*
X22692828Y-81480196D01*
X22407722Y-81427948D01*
X22396114Y-81425087D01*
X22119384Y-81338855D01*
X22108206Y-81334616D01*
X21843881Y-81215652D01*
X21833303Y-81210100D01*
X21585233Y-81060138D01*
X21575413Y-81053359D01*
X21347244Y-80874599D01*
X21338295Y-80866672D01*
X21133327Y-80661704D01*
X21125400Y-80652755D01*
X21065023Y-80575690D01*
X20946638Y-80424583D01*
X20939864Y-80414770D01*
X20789895Y-80166690D01*
X20784347Y-80156118D01*
X20758142Y-80097894D01*
X20665380Y-79891786D01*
X20661147Y-79880623D01*
X20574911Y-79603882D01*
X20572051Y-79592277D01*
X20571098Y-79587076D01*
X20519802Y-79307164D01*
X20518362Y-79295303D01*
X20516216Y-79259828D01*
X20500681Y-79002992D01*
X20500500Y-78997015D01*
X20500500Y-76878710D01*
X21649500Y-76878710D01*
X21649500Y-77121289D01*
X21672048Y-77292565D01*
X21680327Y-77355450D01*
X21681161Y-77361781D01*
X21681161Y-77361786D01*
X21743944Y-77596092D01*
X21743948Y-77596105D01*
X21836772Y-77820204D01*
X21836774Y-77820208D01*
X21836776Y-77820212D01*
X21948183Y-78013174D01*
X21958066Y-78030292D01*
X22105729Y-78222731D01*
X22105731Y-78222733D01*
X22105735Y-78222738D01*
X22277262Y-78394265D01*
X22277266Y-78394268D01*
X22277268Y-78394270D01*
X22448510Y-78525668D01*
X22469711Y-78541936D01*
X22679788Y-78663224D01*
X22903900Y-78756054D01*
X23138211Y-78818838D01*
X23378712Y-78850500D01*
X23378713Y-78850500D01*
X23621287Y-78850500D01*
X23621288Y-78850500D01*
X23861789Y-78818838D01*
X24096100Y-78756054D01*
X24320212Y-78663224D01*
X24530289Y-78541936D01*
X24722738Y-78394265D01*
X24894265Y-78222738D01*
X25041936Y-78030289D01*
X25163224Y-77820212D01*
X25256054Y-77596100D01*
X25318838Y-77361789D01*
X25350500Y-77121288D01*
X25350500Y-76878712D01*
X25318838Y-76638211D01*
X25256054Y-76403900D01*
X25163224Y-76179788D01*
X25041936Y-75969711D01*
X25026090Y-75949060D01*
X24894270Y-75777268D01*
X24894268Y-75777266D01*
X24894265Y-75777262D01*
X24722738Y-75605735D01*
X24722733Y-75605731D01*
X24722731Y-75605729D01*
X24530292Y-75458066D01*
X24510952Y-75446900D01*
X24320212Y-75336776D01*
X24320208Y-75336774D01*
X24320204Y-75336772D01*
X24096105Y-75243948D01*
X24096104Y-75243947D01*
X24096100Y-75243946D01*
X23861789Y-75181162D01*
X23861786Y-75181161D01*
X23861784Y-75181161D01*
X23621289Y-75149500D01*
X23621288Y-75149500D01*
X23378712Y-75149500D01*
X23378710Y-75149500D01*
X23138218Y-75181161D01*
X23138213Y-75181161D01*
X22903907Y-75243944D01*
X22903894Y-75243948D01*
X22679795Y-75336772D01*
X22469707Y-75458066D01*
X22277268Y-75605729D01*
X22105729Y-75777268D01*
X21958066Y-75969707D01*
X21836772Y-76179795D01*
X21743948Y-76403894D01*
X21743944Y-76403907D01*
X21681161Y-76638213D01*
X21681161Y-76638218D01*
X21649500Y-76878710D01*
X20500500Y-76878710D01*
X20500500Y-23002984D01*
X20500681Y-22997007D01*
X20510668Y-22831898D01*
X20518362Y-22704688D01*
X20519801Y-22692837D01*
X20572052Y-22407715D01*
X20574912Y-22396114D01*
X20661148Y-22119370D01*
X20665378Y-22108218D01*
X20784350Y-21843875D01*
X20789891Y-21833315D01*
X20939868Y-21585221D01*
X20946632Y-21575424D01*
X21125407Y-21347235D01*
X21133319Y-21338303D01*
X21338303Y-21133319D01*
X21347235Y-21125407D01*
X21575424Y-20946632D01*
X21585221Y-20939868D01*
X21833315Y-20789891D01*
X21843875Y-20784350D01*
X22108218Y-20665378D01*
X22119370Y-20661148D01*
X22396121Y-20574910D01*
X22407715Y-20572052D01*
X22692837Y-20519801D01*
X22704688Y-20518362D01*
X22997008Y-20500681D01*
X23002985Y-20500500D01*
X23065892Y-20500500D01*
X90934108Y-20500500D01*
X90997015Y-20500500D01*
X91002992Y-20500681D01*
G37*
%TD.AperFunction*%
%TA.AperFunction,Conductor*%
G36*
X92575290Y-21064710D02*
G01*
X92652755Y-21125400D01*
X92661704Y-21133327D01*
X92866672Y-21338295D01*
X92874599Y-21347244D01*
X93053356Y-21575409D01*
X93060138Y-21585233D01*
X93210100Y-21833303D01*
X93215652Y-21843881D01*
X93334616Y-22108206D01*
X93338855Y-22119384D01*
X93425087Y-22396114D01*
X93427948Y-22407722D01*
X93480196Y-22692828D01*
X93481637Y-22704695D01*
X93499319Y-22997006D01*
X93499500Y-23002984D01*
X93499500Y-78997015D01*
X93499319Y-79002993D01*
X93481637Y-79295304D01*
X93480196Y-79307171D01*
X93427948Y-79592277D01*
X93425087Y-79603885D01*
X93338855Y-79880615D01*
X93334616Y-79891793D01*
X93215652Y-80156118D01*
X93210096Y-80166703D01*
X93060142Y-80414758D01*
X93053356Y-80424590D01*
X92874599Y-80652755D01*
X92866672Y-80661704D01*
X92661704Y-80866672D01*
X92652755Y-80874599D01*
X92424590Y-81053356D01*
X92414758Y-81060142D01*
X92177212Y-81203744D01*
X92166703Y-81210097D01*
X92156118Y-81215652D01*
X91891793Y-81334616D01*
X91880615Y-81338855D01*
X91603885Y-81425087D01*
X91592277Y-81427948D01*
X91307171Y-81480196D01*
X91295304Y-81481637D01*
X91023993Y-81498048D01*
X91002991Y-81499319D01*
X90997015Y-81499500D01*
X44599000Y-81499500D01*
X44540809Y-81480593D01*
X44504845Y-81431093D01*
X44500000Y-81400500D01*
X44500000Y-80465555D01*
X44518907Y-80407364D01*
X44568407Y-80371400D01*
X44629593Y-80371400D01*
X44679091Y-80407362D01*
X44704310Y-80442073D01*
X44837927Y-80575690D01*
X44990801Y-80686760D01*
X45159168Y-80772547D01*
X45338882Y-80830940D01*
X45338883Y-80830940D01*
X45338886Y-80830941D01*
X45525516Y-80860500D01*
X45525519Y-80860500D01*
X45714484Y-80860500D01*
X45901113Y-80830941D01*
X45901114Y-80830940D01*
X45901118Y-80830940D01*
X46080832Y-80772547D01*
X46249199Y-80686760D01*
X46402073Y-80575690D01*
X46535690Y-80442073D01*
X46646760Y-80289199D01*
X46732547Y-80120832D01*
X46790940Y-79941118D01*
X46797873Y-79897343D01*
X46820500Y-79754484D01*
X46820500Y-79565515D01*
X46790941Y-79378886D01*
X46789849Y-79375524D01*
X46732547Y-79199168D01*
X46646760Y-79030801D01*
X46535690Y-78877927D01*
X46402073Y-78744310D01*
X46249199Y-78633240D01*
X46249198Y-78633239D01*
X46249196Y-78633238D01*
X46080832Y-78547453D01*
X45901113Y-78489058D01*
X45893046Y-78487781D01*
X45838529Y-78460004D01*
X45810751Y-78405488D01*
X45820322Y-78345056D01*
X45863586Y-78301791D01*
X45893046Y-78292219D01*
X45901113Y-78290941D01*
X45901114Y-78290940D01*
X45901118Y-78290940D01*
X46080832Y-78232547D01*
X46249199Y-78146760D01*
X46402073Y-78035690D01*
X46535690Y-77902073D01*
X46646760Y-77749199D01*
X46723007Y-77599554D01*
X46766272Y-77556290D01*
X46811217Y-77545500D01*
X47935256Y-77545500D01*
X47993447Y-77564407D01*
X48005258Y-77574495D01*
X48026856Y-77596092D01*
X48031284Y-77600520D01*
X48168216Y-77679577D01*
X48320943Y-77720500D01*
X48320945Y-77720500D01*
X48479055Y-77720500D01*
X48479057Y-77720500D01*
X48631784Y-77679577D01*
X48676000Y-77654048D01*
X48735848Y-77641327D01*
X48791744Y-77666213D01*
X48822337Y-77719201D01*
X48824500Y-77739785D01*
X48824500Y-79668106D01*
X48835123Y-79756565D01*
X48890637Y-79897339D01*
X48890638Y-79897341D01*
X48890639Y-79897342D01*
X48982078Y-80017922D01*
X49102658Y-80109361D01*
X49102659Y-80109361D01*
X49102660Y-80109362D01*
X49131746Y-80120832D01*
X49243436Y-80164877D01*
X49331898Y-80175500D01*
X49331900Y-80175500D01*
X51668100Y-80175500D01*
X51668102Y-80175500D01*
X51756564Y-80164877D01*
X51897342Y-80109361D01*
X52017922Y-80017922D01*
X52109361Y-79897342D01*
X52164877Y-79756564D01*
X52175500Y-79668102D01*
X52175500Y-79667169D01*
X52175568Y-79666959D01*
X52175676Y-79665155D01*
X52175852Y-79665165D01*
X52175853Y-79665164D01*
X52175879Y-79665167D01*
X52176145Y-79665183D01*
X52194407Y-79608978D01*
X52216310Y-79587076D01*
X52245981Y-79565519D01*
X52347219Y-79491966D01*
X52491966Y-79347219D01*
X52582866Y-79222105D01*
X52612285Y-79181613D01*
X52612287Y-79181610D01*
X52705220Y-78999219D01*
X52768477Y-78804534D01*
X52771409Y-78786025D01*
X52800500Y-78602355D01*
X52800500Y-78377105D01*
X54025000Y-78377105D01*
X54025000Y-78622894D01*
X54057081Y-78866571D01*
X54057081Y-78866576D01*
X54120695Y-79103984D01*
X54120699Y-79103997D01*
X54214753Y-79331067D01*
X54214755Y-79331072D01*
X54337647Y-79543926D01*
X54409229Y-79637215D01*
X55127545Y-78918898D01*
X55220343Y-79057780D01*
X55342220Y-79179657D01*
X55481099Y-79272452D01*
X54762783Y-79990769D01*
X54856073Y-80062352D01*
X55068927Y-80185244D01*
X55068932Y-80185246D01*
X55296002Y-80279300D01*
X55296015Y-80279304D01*
X55533425Y-80342918D01*
X55777105Y-80374999D01*
X55777107Y-80375000D01*
X56022893Y-80375000D01*
X56022894Y-80374999D01*
X56266571Y-80342918D01*
X56266576Y-80342918D01*
X56503984Y-80279304D01*
X56503997Y-80279300D01*
X56731067Y-80185246D01*
X56731072Y-80185244D01*
X56943922Y-80062355D01*
X57037215Y-79990769D01*
X56318899Y-79272453D01*
X56457780Y-79179657D01*
X56579657Y-79057780D01*
X56672453Y-78918899D01*
X57390769Y-79637215D01*
X57462355Y-79543922D01*
X57585244Y-79331072D01*
X57585246Y-79331067D01*
X57679300Y-79103997D01*
X57679304Y-79103984D01*
X57742918Y-78866576D01*
X57742918Y-78866571D01*
X57774999Y-78622894D01*
X57775000Y-78622893D01*
X57775000Y-78377107D01*
X57774999Y-78377105D01*
X57742918Y-78133428D01*
X57742918Y-78133423D01*
X57679304Y-77896015D01*
X57679300Y-77896002D01*
X57585246Y-77668932D01*
X57585244Y-77668927D01*
X57462352Y-77456073D01*
X57428408Y-77411834D01*
X57428405Y-77411832D01*
X57390769Y-77362784D01*
X56672453Y-78081099D01*
X56579657Y-77942220D01*
X56457780Y-77820343D01*
X56318898Y-77727545D01*
X56690994Y-77355450D01*
X59975900Y-77355450D01*
X59975900Y-77536549D01*
X60004228Y-77715406D01*
X60060188Y-77887637D01*
X60132874Y-78030292D01*
X60142404Y-78048994D01*
X60248847Y-78195501D01*
X60376899Y-78323553D01*
X60523406Y-78429996D01*
X60684761Y-78512211D01*
X60856991Y-78568171D01*
X60928536Y-78579502D01*
X61035851Y-78596500D01*
X61035854Y-78596500D01*
X61216949Y-78596500D01*
X61306377Y-78582335D01*
X61395809Y-78568171D01*
X61568039Y-78512211D01*
X61729394Y-78429996D01*
X61875901Y-78323553D01*
X61991875Y-78207579D01*
X81599500Y-78207579D01*
X81599500Y-78404420D01*
X81630289Y-78598821D01*
X81691116Y-78786025D01*
X81773950Y-78948598D01*
X81780476Y-78961405D01*
X81896172Y-79120646D01*
X82035354Y-79259828D01*
X82194595Y-79375524D01*
X82369975Y-79464884D01*
X82557174Y-79525709D01*
X82557175Y-79525709D01*
X82557178Y-79525710D01*
X82751580Y-79556500D01*
X82751583Y-79556500D01*
X82948420Y-79556500D01*
X83142821Y-79525710D01*
X83142822Y-79525709D01*
X83142826Y-79525709D01*
X83330025Y-79464884D01*
X83505405Y-79375524D01*
X83664646Y-79259828D01*
X83803828Y-79120646D01*
X83919524Y-78961405D01*
X84008884Y-78786025D01*
X84069709Y-78598826D01*
X84069710Y-78598821D01*
X84100500Y-78404420D01*
X84100500Y-78207579D01*
X84069710Y-78013178D01*
X84059178Y-77980763D01*
X84008884Y-77825975D01*
X83919524Y-77650595D01*
X83803828Y-77491354D01*
X83664646Y-77352172D01*
X83505405Y-77236476D01*
X83505404Y-77236475D01*
X83505402Y-77236474D01*
X83330025Y-77147116D01*
X83142821Y-77086289D01*
X82948420Y-77055500D01*
X82948417Y-77055500D01*
X82751583Y-77055500D01*
X82751580Y-77055500D01*
X82557178Y-77086289D01*
X82369974Y-77147116D01*
X82194597Y-77236474D01*
X82035355Y-77352171D01*
X81896171Y-77491355D01*
X81780474Y-77650597D01*
X81691116Y-77825974D01*
X81630289Y-78013178D01*
X81599500Y-78207579D01*
X61991875Y-78207579D01*
X62003953Y-78195501D01*
X62110396Y-78048994D01*
X62192611Y-77887639D01*
X62248571Y-77715409D01*
X62266768Y-77600517D01*
X62276900Y-77536549D01*
X62276900Y-77355450D01*
X62248571Y-77176593D01*
X62248571Y-77176591D01*
X62192611Y-77004361D01*
X62168246Y-76956543D01*
X62149839Y-76920416D01*
X62149838Y-76920414D01*
X62128589Y-76878710D01*
X88149500Y-76878710D01*
X88149500Y-77121289D01*
X88172048Y-77292565D01*
X88180327Y-77355450D01*
X88181161Y-77361781D01*
X88181161Y-77361786D01*
X88243944Y-77596092D01*
X88243948Y-77596105D01*
X88336772Y-77820204D01*
X88336774Y-77820208D01*
X88336776Y-77820212D01*
X88448183Y-78013174D01*
X88458066Y-78030292D01*
X88605729Y-78222731D01*
X88605731Y-78222733D01*
X88605735Y-78222738D01*
X88777262Y-78394265D01*
X88777266Y-78394268D01*
X88777268Y-78394270D01*
X88948510Y-78525668D01*
X88969711Y-78541936D01*
X89179788Y-78663224D01*
X89403900Y-78756054D01*
X89638211Y-78818838D01*
X89878712Y-78850500D01*
X89878713Y-78850500D01*
X90121287Y-78850500D01*
X90121288Y-78850500D01*
X90361789Y-78818838D01*
X90596100Y-78756054D01*
X90820212Y-78663224D01*
X91030289Y-78541936D01*
X91222738Y-78394265D01*
X91394265Y-78222738D01*
X91541936Y-78030289D01*
X91663224Y-77820212D01*
X91756054Y-77596100D01*
X91818838Y-77361789D01*
X91850500Y-77121288D01*
X91850500Y-76878712D01*
X91818838Y-76638211D01*
X91756054Y-76403900D01*
X91663224Y-76179788D01*
X91541936Y-75969711D01*
X91526090Y-75949060D01*
X91394270Y-75777268D01*
X91394268Y-75777266D01*
X91394265Y-75777262D01*
X91222738Y-75605735D01*
X91222733Y-75605731D01*
X91222731Y-75605729D01*
X91030292Y-75458066D01*
X91010952Y-75446900D01*
X90820212Y-75336776D01*
X90820208Y-75336774D01*
X90820204Y-75336772D01*
X90596105Y-75243948D01*
X90596104Y-75243947D01*
X90596100Y-75243946D01*
X90361789Y-75181162D01*
X90361786Y-75181161D01*
X90361784Y-75181161D01*
X90121289Y-75149500D01*
X90121288Y-75149500D01*
X89878712Y-75149500D01*
X89878710Y-75149500D01*
X89638218Y-75181161D01*
X89638213Y-75181161D01*
X89403907Y-75243944D01*
X89403894Y-75243948D01*
X89179795Y-75336772D01*
X88969707Y-75458066D01*
X88777268Y-75605729D01*
X88605729Y-75777268D01*
X88458066Y-75969707D01*
X88336772Y-76179795D01*
X88243948Y-76403894D01*
X88243944Y-76403907D01*
X88181161Y-76638213D01*
X88181161Y-76638218D01*
X88149500Y-76878710D01*
X62128589Y-76878710D01*
X62110399Y-76843011D01*
X62110398Y-76843009D01*
X62110396Y-76843006D01*
X62003953Y-76696499D01*
X61875901Y-76568447D01*
X61729394Y-76462004D01*
X61729393Y-76462003D01*
X61729391Y-76462002D01*
X61568037Y-76379788D01*
X61395806Y-76323828D01*
X61216949Y-76295500D01*
X61216946Y-76295500D01*
X61035854Y-76295500D01*
X61035851Y-76295500D01*
X60856993Y-76323828D01*
X60684762Y-76379788D01*
X60523408Y-76462002D01*
X60483770Y-76490801D01*
X60376899Y-76568447D01*
X60248847Y-76696499D01*
X60231268Y-76720695D01*
X60142402Y-76843008D01*
X60060188Y-77004362D01*
X60004228Y-77176593D01*
X59975900Y-77355450D01*
X56690994Y-77355450D01*
X57037215Y-77009229D01*
X56943926Y-76937647D01*
X56731072Y-76814755D01*
X56731067Y-76814753D01*
X56503997Y-76720699D01*
X56503984Y-76720695D01*
X56266574Y-76657081D01*
X56022894Y-76625000D01*
X55777105Y-76625000D01*
X55533428Y-76657081D01*
X55533423Y-76657081D01*
X55296015Y-76720695D01*
X55296002Y-76720699D01*
X55068932Y-76814753D01*
X55068927Y-76814755D01*
X54856078Y-76937644D01*
X54762783Y-77009229D01*
X55481100Y-77727546D01*
X55342220Y-77820343D01*
X55220343Y-77942220D01*
X55127546Y-78081100D01*
X54409229Y-77362783D01*
X54337644Y-77456078D01*
X54214755Y-77668927D01*
X54214753Y-77668932D01*
X54120699Y-77896002D01*
X54120695Y-77896015D01*
X54057081Y-78133423D01*
X54057081Y-78133428D01*
X54025000Y-78377105D01*
X52800500Y-78377105D01*
X52800500Y-74815450D01*
X59975900Y-74815450D01*
X59975900Y-74996549D01*
X60004228Y-75175406D01*
X60060188Y-75347637D01*
X60116454Y-75458066D01*
X60142404Y-75508994D01*
X60248847Y-75655501D01*
X60376899Y-75783553D01*
X60523406Y-75889996D01*
X60684761Y-75972211D01*
X60856991Y-76028171D01*
X60928536Y-76039502D01*
X61035851Y-76056500D01*
X61035854Y-76056500D01*
X61216949Y-76056500D01*
X61306377Y-76042335D01*
X61395809Y-76028171D01*
X61568039Y-75972211D01*
X61729394Y-75889996D01*
X61875901Y-75783553D01*
X62003953Y-75655501D01*
X62110396Y-75508994D01*
X62192611Y-75347639D01*
X62248571Y-75175409D01*
X62258140Y-75114993D01*
X62276900Y-74996549D01*
X62276900Y-74815450D01*
X62261319Y-74717078D01*
X62254179Y-74671999D01*
X81872768Y-74671999D01*
X81872769Y-74672000D01*
X82766988Y-74672000D01*
X82734075Y-74729007D01*
X82700000Y-74856174D01*
X82700000Y-74987826D01*
X82734075Y-75114993D01*
X82766988Y-75172000D01*
X81872769Y-75172000D01*
X81883241Y-75238122D01*
X81948904Y-75440215D01*
X82045375Y-75629552D01*
X82170277Y-75801464D01*
X82320535Y-75951722D01*
X82492447Y-76076624D01*
X82681784Y-76173095D01*
X82883877Y-76238758D01*
X82949999Y-76249231D01*
X82950000Y-76249230D01*
X82950000Y-75355012D01*
X83007007Y-75387925D01*
X83134174Y-75422000D01*
X83265826Y-75422000D01*
X83392993Y-75387925D01*
X83450000Y-75355012D01*
X83450000Y-76249231D01*
X83516122Y-76238758D01*
X83718215Y-76173095D01*
X83907552Y-76076624D01*
X84079464Y-75951722D01*
X84229722Y-75801464D01*
X84354624Y-75629552D01*
X84451095Y-75440215D01*
X84516758Y-75238122D01*
X84527231Y-75172000D01*
X83633012Y-75172000D01*
X83665925Y-75114993D01*
X83700000Y-74987826D01*
X83700000Y-74856174D01*
X83665925Y-74729007D01*
X83633012Y-74672000D01*
X84527231Y-74672000D01*
X84527231Y-74671999D01*
X84516758Y-74605877D01*
X84451095Y-74403784D01*
X84354624Y-74214447D01*
X84229722Y-74042535D01*
X84079464Y-73892277D01*
X83907552Y-73767375D01*
X83718215Y-73670904D01*
X83627015Y-73641272D01*
X83577515Y-73605308D01*
X83558608Y-73547117D01*
X83577515Y-73488926D01*
X83627013Y-73452962D01*
X83627017Y-73452962D01*
X83627018Y-73452962D01*
X83641633Y-73448213D01*
X83641633Y-73448212D01*
X83641639Y-73448211D01*
X83802994Y-73365996D01*
X83949501Y-73259553D01*
X84077553Y-73131501D01*
X84183996Y-72984994D01*
X84266211Y-72823639D01*
X84322171Y-72651409D01*
X84350500Y-72472546D01*
X84350500Y-72291454D01*
X84350500Y-72291450D01*
X84325638Y-72134481D01*
X84322171Y-72112591D01*
X84266211Y-71940361D01*
X84183996Y-71779006D01*
X84077553Y-71632499D01*
X83949501Y-71504447D01*
X83802994Y-71398004D01*
X83802993Y-71398003D01*
X83802991Y-71398002D01*
X83641637Y-71315788D01*
X83469406Y-71259828D01*
X83290549Y-71231500D01*
X83290546Y-71231500D01*
X83109454Y-71231500D01*
X83109451Y-71231500D01*
X82930593Y-71259828D01*
X82758362Y-71315788D01*
X82597008Y-71398002D01*
X82523752Y-71451225D01*
X82450499Y-71504447D01*
X82322447Y-71632499D01*
X82269225Y-71705752D01*
X82216002Y-71779008D01*
X82133788Y-71940362D01*
X82077828Y-72112593D01*
X82049500Y-72291450D01*
X82049500Y-72472549D01*
X82077828Y-72651406D01*
X82133788Y-72823637D01*
X82207851Y-72968994D01*
X82216004Y-72984994D01*
X82322447Y-73131501D01*
X82450499Y-73259553D01*
X82597006Y-73365996D01*
X82758361Y-73448211D01*
X82769483Y-73451824D01*
X82772983Y-73452962D01*
X82822483Y-73488926D01*
X82841391Y-73547116D01*
X82822484Y-73605307D01*
X82772985Y-73641271D01*
X82772984Y-73641272D01*
X82681784Y-73670904D01*
X82492447Y-73767375D01*
X82320535Y-73892277D01*
X82170277Y-74042535D01*
X82045375Y-74214447D01*
X81948904Y-74403784D01*
X81883241Y-74605877D01*
X81872768Y-74671999D01*
X62254179Y-74671999D01*
X62248571Y-74636593D01*
X62248571Y-74636591D01*
X62192611Y-74464361D01*
X62110396Y-74303006D01*
X62003953Y-74156499D01*
X61875901Y-74028447D01*
X61729394Y-73922004D01*
X61729393Y-73922003D01*
X61729391Y-73922002D01*
X61568037Y-73839788D01*
X61395806Y-73783828D01*
X61216949Y-73755500D01*
X61216946Y-73755500D01*
X61035854Y-73755500D01*
X61035851Y-73755500D01*
X60856993Y-73783828D01*
X60684762Y-73839788D01*
X60523408Y-73922002D01*
X60483778Y-73950795D01*
X60376899Y-74028447D01*
X60248847Y-74156499D01*
X60232458Y-74179057D01*
X60142402Y-74303008D01*
X60060188Y-74464362D01*
X60004228Y-74636593D01*
X59975900Y-74815450D01*
X52800500Y-74815450D01*
X52800500Y-72275450D01*
X59975900Y-72275450D01*
X59975900Y-72456549D01*
X60004228Y-72635406D01*
X60060188Y-72807637D01*
X60139750Y-72963787D01*
X60142404Y-72968994D01*
X60248847Y-73115501D01*
X60376899Y-73243553D01*
X60523406Y-73349996D01*
X60684761Y-73432211D01*
X60856991Y-73488171D01*
X60928536Y-73499502D01*
X61035851Y-73516500D01*
X61035854Y-73516500D01*
X61216949Y-73516500D01*
X61306377Y-73502335D01*
X61395809Y-73488171D01*
X61568039Y-73432211D01*
X61729394Y-73349996D01*
X61875901Y-73243553D01*
X62003953Y-73115501D01*
X62110396Y-72968994D01*
X62192611Y-72807639D01*
X62248571Y-72635409D01*
X62269886Y-72500832D01*
X62276900Y-72456549D01*
X62276900Y-72275450D01*
X62251105Y-72112591D01*
X62248571Y-72096591D01*
X62192611Y-71924361D01*
X62110396Y-71763006D01*
X62003953Y-71616499D01*
X61875901Y-71488447D01*
X61729394Y-71382004D01*
X61729393Y-71382003D01*
X61729391Y-71382002D01*
X61568037Y-71299788D01*
X61395806Y-71243828D01*
X61216949Y-71215500D01*
X61216946Y-71215500D01*
X61035854Y-71215500D01*
X61035851Y-71215500D01*
X60856993Y-71243828D01*
X60684762Y-71299788D01*
X60523408Y-71382002D01*
X60455778Y-71431138D01*
X60376899Y-71488447D01*
X60248847Y-71616499D01*
X60221642Y-71653944D01*
X60142402Y-71763008D01*
X60060188Y-71924362D01*
X60004228Y-72096593D01*
X59975900Y-72275450D01*
X52800500Y-72275450D01*
X52800500Y-69735450D01*
X59975900Y-69735450D01*
X59975900Y-69916549D01*
X60004228Y-70095406D01*
X60060188Y-70267637D01*
X60114126Y-70373497D01*
X60142404Y-70428994D01*
X60248847Y-70575501D01*
X60376899Y-70703553D01*
X60523406Y-70809996D01*
X60684761Y-70892211D01*
X60856991Y-70948171D01*
X60928536Y-70959502D01*
X61035851Y-70976500D01*
X61035854Y-70976500D01*
X61216949Y-70976500D01*
X61306377Y-70962335D01*
X61395809Y-70948171D01*
X61568039Y-70892211D01*
X61729394Y-70809996D01*
X61875901Y-70703553D01*
X62003953Y-70575501D01*
X62110396Y-70428994D01*
X62192611Y-70267639D01*
X62248571Y-70095409D01*
X62269886Y-69960832D01*
X62276900Y-69916549D01*
X62276900Y-69751450D01*
X82049500Y-69751450D01*
X82049500Y-69932549D01*
X82077828Y-70111406D01*
X82133788Y-70283637D01*
X82207851Y-70428994D01*
X82216004Y-70444994D01*
X82322447Y-70591501D01*
X82450499Y-70719553D01*
X82597006Y-70825996D01*
X82758361Y-70908211D01*
X82930591Y-70964171D01*
X83002136Y-70975502D01*
X83109451Y-70992500D01*
X83109454Y-70992500D01*
X83290549Y-70992500D01*
X83391566Y-70976500D01*
X83469409Y-70964171D01*
X83641639Y-70908211D01*
X83802994Y-70825996D01*
X83949501Y-70719553D01*
X84077553Y-70591501D01*
X84183996Y-70444994D01*
X84266211Y-70283639D01*
X84322171Y-70111409D01*
X84350500Y-69932546D01*
X84350500Y-69751454D01*
X84350500Y-69751450D01*
X84322171Y-69572593D01*
X84322171Y-69572591D01*
X84266211Y-69400361D01*
X84183996Y-69239006D01*
X84077553Y-69092499D01*
X83949501Y-68964447D01*
X83802994Y-68858004D01*
X83802993Y-68858003D01*
X83802991Y-68858002D01*
X83641637Y-68775788D01*
X83469406Y-68719828D01*
X83290549Y-68691500D01*
X83290546Y-68691500D01*
X83109454Y-68691500D01*
X83109451Y-68691500D01*
X82930593Y-68719828D01*
X82758362Y-68775788D01*
X82597008Y-68858002D01*
X82523752Y-68911225D01*
X82450499Y-68964447D01*
X82322447Y-69092499D01*
X82288143Y-69139715D01*
X82216002Y-69239008D01*
X82133788Y-69400362D01*
X82077828Y-69572593D01*
X82049500Y-69751450D01*
X62276900Y-69751450D01*
X62276900Y-69735450D01*
X62248988Y-69559223D01*
X62248571Y-69556591D01*
X62192611Y-69384361D01*
X62110396Y-69223006D01*
X62003953Y-69076499D01*
X61875901Y-68948447D01*
X61729394Y-68842004D01*
X61729393Y-68842003D01*
X61729391Y-68842002D01*
X61568037Y-68759788D01*
X61395806Y-68703828D01*
X61216949Y-68675500D01*
X61216946Y-68675500D01*
X61035854Y-68675500D01*
X61035851Y-68675500D01*
X60856993Y-68703828D01*
X60684762Y-68759788D01*
X60523408Y-68842002D01*
X60483770Y-68870801D01*
X60376899Y-68948447D01*
X60248847Y-69076499D01*
X60202918Y-69139715D01*
X60142402Y-69223008D01*
X60060188Y-69384362D01*
X60004228Y-69556593D01*
X59975900Y-69735450D01*
X52800500Y-69735450D01*
X52800500Y-65897646D01*
X52799851Y-65893550D01*
X52799851Y-65893548D01*
X52799850Y-65893544D01*
X52798013Y-65881943D01*
X54500000Y-65881943D01*
X54500000Y-66118056D01*
X54536934Y-66351252D01*
X54536935Y-66351256D01*
X54609892Y-66575793D01*
X54609894Y-66575796D01*
X54717084Y-66786169D01*
X54777339Y-66869105D01*
X55517036Y-66129407D01*
X55534075Y-66192993D01*
X55599901Y-66307007D01*
X55692993Y-66400099D01*
X55807007Y-66465925D01*
X55870590Y-66482962D01*
X55130893Y-67222659D01*
X55213825Y-67282913D01*
X55213829Y-67282915D01*
X55424203Y-67390105D01*
X55424206Y-67390107D01*
X55648743Y-67463064D01*
X55648747Y-67463065D01*
X55881944Y-67500000D01*
X56118056Y-67500000D01*
X56351252Y-67463065D01*
X56351256Y-67463064D01*
X56575793Y-67390107D01*
X56575796Y-67390105D01*
X56786170Y-67282915D01*
X56786176Y-67282911D01*
X56869106Y-67222659D01*
X56841897Y-67195450D01*
X59975900Y-67195450D01*
X59975900Y-67376549D01*
X60004228Y-67555406D01*
X60060188Y-67727637D01*
X60067542Y-67742071D01*
X60142404Y-67888994D01*
X60248847Y-68035501D01*
X60376899Y-68163553D01*
X60523406Y-68269996D01*
X60684761Y-68352211D01*
X60856991Y-68408171D01*
X60928536Y-68419502D01*
X61035851Y-68436500D01*
X61035854Y-68436500D01*
X61216949Y-68436500D01*
X61306377Y-68422335D01*
X61395809Y-68408171D01*
X61568039Y-68352211D01*
X61729394Y-68269996D01*
X61875901Y-68163553D01*
X62003953Y-68035501D01*
X62110396Y-67888994D01*
X62192611Y-67727639D01*
X62248571Y-67555409D01*
X62269886Y-67420832D01*
X62276900Y-67376549D01*
X62276900Y-67211450D01*
X82049500Y-67211450D01*
X82049500Y-67392549D01*
X82077828Y-67571406D01*
X82133788Y-67743637D01*
X82207851Y-67888994D01*
X82216004Y-67904994D01*
X82322447Y-68051501D01*
X82450499Y-68179553D01*
X82597006Y-68285996D01*
X82758361Y-68368211D01*
X82930591Y-68424171D01*
X83002136Y-68435502D01*
X83109451Y-68452500D01*
X83109454Y-68452500D01*
X83290549Y-68452500D01*
X83391566Y-68436500D01*
X83469409Y-68424171D01*
X83641639Y-68368211D01*
X83802994Y-68285996D01*
X83949501Y-68179553D01*
X84077553Y-68051501D01*
X84183996Y-67904994D01*
X84266211Y-67743639D01*
X84322171Y-67571409D01*
X84350500Y-67392546D01*
X84350500Y-67211454D01*
X84350500Y-67211450D01*
X84322171Y-67032593D01*
X84322171Y-67032591D01*
X84266211Y-66860361D01*
X84183996Y-66699006D01*
X84077553Y-66552499D01*
X83949501Y-66424447D01*
X83802994Y-66318004D01*
X83802993Y-66318003D01*
X83802991Y-66318002D01*
X83641637Y-66235788D01*
X83469406Y-66179828D01*
X83290549Y-66151500D01*
X83290546Y-66151500D01*
X83109454Y-66151500D01*
X83109451Y-66151500D01*
X82930593Y-66179828D01*
X82758362Y-66235788D01*
X82597008Y-66318002D01*
X82523752Y-66371225D01*
X82450499Y-66424447D01*
X82322447Y-66552499D01*
X82305523Y-66575793D01*
X82216002Y-66699008D01*
X82133788Y-66860362D01*
X82077828Y-67032593D01*
X82049500Y-67211450D01*
X62276900Y-67211450D01*
X62276900Y-67195450D01*
X62248571Y-67016593D01*
X62248571Y-67016591D01*
X62192611Y-66844361D01*
X62110396Y-66683006D01*
X62003953Y-66536499D01*
X61875901Y-66408447D01*
X61729394Y-66302004D01*
X61729393Y-66302003D01*
X61729391Y-66302002D01*
X61568037Y-66219788D01*
X61395806Y-66163828D01*
X61216949Y-66135500D01*
X61216946Y-66135500D01*
X61035854Y-66135500D01*
X61035851Y-66135500D01*
X60856993Y-66163828D01*
X60684762Y-66219788D01*
X60523408Y-66302002D01*
X60450152Y-66355225D01*
X60376899Y-66408447D01*
X60248847Y-66536499D01*
X60220296Y-66575796D01*
X60142402Y-66683008D01*
X60060188Y-66844362D01*
X60004228Y-67016593D01*
X59975900Y-67195450D01*
X56841897Y-67195450D01*
X56129409Y-66482962D01*
X56192993Y-66465925D01*
X56307007Y-66400099D01*
X56400099Y-66307007D01*
X56465925Y-66192993D01*
X56482962Y-66129409D01*
X57222658Y-66869105D01*
X57222659Y-66869105D01*
X57282911Y-66786176D01*
X57282915Y-66786170D01*
X57390105Y-66575796D01*
X57390107Y-66575793D01*
X57463064Y-66351256D01*
X57463065Y-66351252D01*
X57500000Y-66118056D01*
X57500000Y-65881943D01*
X57463065Y-65648747D01*
X57463064Y-65648743D01*
X57390107Y-65424206D01*
X57390105Y-65424203D01*
X57282915Y-65213829D01*
X57282913Y-65213825D01*
X57222659Y-65130893D01*
X56482962Y-65870590D01*
X56465925Y-65807007D01*
X56400099Y-65692993D01*
X56307007Y-65599901D01*
X56192993Y-65534075D01*
X56129407Y-65517036D01*
X56869105Y-64777339D01*
X56786169Y-64717084D01*
X56575796Y-64609894D01*
X56575793Y-64609892D01*
X56351256Y-64536935D01*
X56351252Y-64536934D01*
X56118056Y-64500000D01*
X55881944Y-64500000D01*
X55648747Y-64536934D01*
X55648743Y-64536935D01*
X55424206Y-64609892D01*
X55424203Y-64609894D01*
X55213823Y-64717088D01*
X55130893Y-64777339D01*
X55870591Y-65517037D01*
X55807007Y-65534075D01*
X55692993Y-65599901D01*
X55599901Y-65692993D01*
X55534075Y-65807007D01*
X55517037Y-65870591D01*
X54777339Y-65130893D01*
X54717088Y-65213823D01*
X54609894Y-65424203D01*
X54609892Y-65424206D01*
X54536935Y-65648743D01*
X54536934Y-65648747D01*
X54500000Y-65881943D01*
X52798013Y-65881943D01*
X52768478Y-65695470D01*
X52758900Y-65665991D01*
X52705220Y-65500781D01*
X52612287Y-65318390D01*
X52612285Y-65318386D01*
X52491970Y-65152786D01*
X52491968Y-65152784D01*
X52491966Y-65152781D01*
X52347219Y-65008034D01*
X52347215Y-65008031D01*
X52347213Y-65008029D01*
X52194350Y-64896968D01*
X52194338Y-64896960D01*
X52181610Y-64887713D01*
X52172453Y-64883047D01*
X52168473Y-64880517D01*
X52162675Y-64873497D01*
X52148193Y-64861383D01*
X52147710Y-64861867D01*
X52142924Y-64857081D01*
X52142922Y-64857078D01*
X52022342Y-64765639D01*
X52022341Y-64765638D01*
X52022339Y-64765637D01*
X51881565Y-64710123D01*
X51793106Y-64699500D01*
X51793102Y-64699500D01*
X50206898Y-64699500D01*
X50206893Y-64699500D01*
X50118434Y-64710123D01*
X49977660Y-64765637D01*
X49977656Y-64765640D01*
X49857081Y-64857075D01*
X49857075Y-64857081D01*
X49765640Y-64977656D01*
X49765637Y-64977660D01*
X49710123Y-65118434D01*
X49699500Y-65206893D01*
X49699500Y-66793106D01*
X49710123Y-66881565D01*
X49765637Y-67022339D01*
X49765638Y-67022341D01*
X49765639Y-67022342D01*
X49857078Y-67142922D01*
X49977658Y-67234361D01*
X49977659Y-67234361D01*
X49977660Y-67234362D01*
X50118430Y-67289875D01*
X50118432Y-67289875D01*
X50118436Y-67289877D01*
X50118439Y-67289877D01*
X50124590Y-67291432D01*
X50123813Y-67294503D01*
X50167700Y-67314735D01*
X50197597Y-67368119D01*
X50199500Y-67387434D01*
X50199500Y-76725500D01*
X50180593Y-76783691D01*
X50131093Y-76819655D01*
X50100500Y-76824500D01*
X49331893Y-76824500D01*
X49243434Y-76835123D01*
X49102656Y-76890639D01*
X49093548Y-76897546D01*
X49035756Y-76917638D01*
X48977191Y-76899924D01*
X48947999Y-76868162D01*
X48880520Y-76751284D01*
X48768716Y-76639480D01*
X48631784Y-76560423D01*
X48479057Y-76519500D01*
X48320943Y-76519500D01*
X48168216Y-76560423D01*
X48056365Y-76625000D01*
X48031281Y-76639482D01*
X48005258Y-76665505D01*
X47950741Y-76693281D01*
X47935256Y-76694500D01*
X46811217Y-76694500D01*
X46753026Y-76675593D01*
X46723007Y-76640445D01*
X46722516Y-76639482D01*
X46646760Y-76490801D01*
X46535690Y-76337927D01*
X46407928Y-76210165D01*
X46380153Y-76155651D01*
X46389724Y-76095219D01*
X46407924Y-76070167D01*
X49348410Y-73129681D01*
X49348413Y-73129680D01*
X49422980Y-73055113D01*
X49475707Y-72963787D01*
X49485966Y-72925500D01*
X49503001Y-72861927D01*
X49503001Y-72756473D01*
X49503001Y-72750411D01*
X49503000Y-72750393D01*
X49503000Y-72222743D01*
X49521907Y-72164552D01*
X49531990Y-72152745D01*
X49583020Y-72101716D01*
X49662077Y-71964784D01*
X49703000Y-71812057D01*
X49703000Y-71653943D01*
X49662077Y-71501216D01*
X49583020Y-71364284D01*
X49471216Y-71252480D01*
X49334284Y-71173423D01*
X49181557Y-71132500D01*
X49023443Y-71132500D01*
X48870716Y-71173423D01*
X48733784Y-71252480D01*
X48621980Y-71364284D01*
X48572436Y-71450096D01*
X48526968Y-71491036D01*
X48466118Y-71497432D01*
X48413130Y-71466839D01*
X48388243Y-71410943D01*
X48387701Y-71400595D01*
X48387701Y-71341011D01*
X48387700Y-71340993D01*
X48387700Y-70608543D01*
X48406607Y-70550352D01*
X48416690Y-70538545D01*
X48467720Y-70487516D01*
X48546777Y-70350584D01*
X48587700Y-70197857D01*
X48587700Y-70039743D01*
X48546777Y-69887016D01*
X48467720Y-69750084D01*
X48355916Y-69638280D01*
X48218984Y-69559223D01*
X48218983Y-69559222D01*
X48218980Y-69559221D01*
X48205606Y-69555638D01*
X48154292Y-69522314D01*
X48132366Y-69465193D01*
X48148202Y-69406092D01*
X48195752Y-69367587D01*
X48205590Y-69364390D01*
X48331784Y-69330577D01*
X48468716Y-69251520D01*
X48580520Y-69139716D01*
X48659577Y-69002784D01*
X48700500Y-68850057D01*
X48700500Y-68691943D01*
X48659577Y-68539216D01*
X48580520Y-68402284D01*
X48468716Y-68290480D01*
X48331784Y-68211423D01*
X48179057Y-68170500D01*
X48020943Y-68170500D01*
X47868216Y-68211423D01*
X47731284Y-68290480D01*
X47619480Y-68402284D01*
X47540423Y-68539216D01*
X47499500Y-68691944D01*
X47499500Y-68764099D01*
X47480593Y-68822290D01*
X47470504Y-68834103D01*
X46968635Y-69335971D01*
X46914118Y-69363748D01*
X46853686Y-69354177D01*
X46810421Y-69310912D01*
X46800850Y-69281453D01*
X46790941Y-69218886D01*
X46765217Y-69139716D01*
X46732547Y-69039168D01*
X46646760Y-68870801D01*
X46535690Y-68717927D01*
X46402073Y-68584310D01*
X46249199Y-68473240D01*
X46249198Y-68473239D01*
X46249196Y-68473238D01*
X46080832Y-68387453D01*
X45901113Y-68329058D01*
X45893046Y-68327781D01*
X45838529Y-68300004D01*
X45810751Y-68245488D01*
X45820322Y-68185056D01*
X45863586Y-68141791D01*
X45893046Y-68132219D01*
X45901113Y-68130941D01*
X45901114Y-68130940D01*
X45901118Y-68130940D01*
X46080832Y-68072547D01*
X46249199Y-67986760D01*
X46402073Y-67875690D01*
X46535690Y-67742073D01*
X46646760Y-67589199D01*
X46732547Y-67420832D01*
X46790940Y-67241118D01*
X46793864Y-67222659D01*
X46820500Y-67054484D01*
X46820500Y-66865515D01*
X46790941Y-66678886D01*
X46749875Y-66552499D01*
X46732547Y-66499168D01*
X46646760Y-66330801D01*
X46535690Y-66177927D01*
X46402073Y-66044310D01*
X46249199Y-65933240D01*
X46249198Y-65933239D01*
X46249196Y-65933238D01*
X46080832Y-65847453D01*
X45901113Y-65789058D01*
X45893046Y-65787781D01*
X45838529Y-65760004D01*
X45810751Y-65705488D01*
X45820322Y-65645056D01*
X45863586Y-65601791D01*
X45893046Y-65592219D01*
X45901113Y-65590941D01*
X45901114Y-65590940D01*
X45901118Y-65590940D01*
X46080832Y-65532547D01*
X46249199Y-65446760D01*
X46402073Y-65335690D01*
X46535690Y-65202073D01*
X46646760Y-65049199D01*
X46732547Y-64880832D01*
X46790940Y-64701118D01*
X46791196Y-64699500D01*
X46820500Y-64514484D01*
X46820500Y-64325515D01*
X46790941Y-64138886D01*
X46749875Y-64012499D01*
X46732547Y-63959168D01*
X46732545Y-63959165D01*
X46732545Y-63959163D01*
X46732544Y-63959160D01*
X46698947Y-63893223D01*
X46698945Y-63893221D01*
X46694475Y-63884449D01*
X46677498Y-63851130D01*
X59975900Y-63851130D01*
X59975900Y-65640860D01*
X59975901Y-65640863D01*
X59978814Y-65665990D01*
X60004156Y-65723385D01*
X60024194Y-65768765D01*
X60103635Y-65848206D01*
X60206409Y-65893585D01*
X60231535Y-65896500D01*
X62021264Y-65896499D01*
X62046391Y-65893585D01*
X62149165Y-65848206D01*
X62228606Y-65768765D01*
X62273985Y-65665991D01*
X62276900Y-65640865D01*
X62276899Y-64671450D01*
X82049500Y-64671450D01*
X82049500Y-64852549D01*
X82077828Y-65031406D01*
X82133788Y-65203637D01*
X82201072Y-65335690D01*
X82216004Y-65364994D01*
X82322447Y-65511501D01*
X82450499Y-65639553D01*
X82597006Y-65745996D01*
X82758361Y-65828211D01*
X82930591Y-65884171D01*
X82989808Y-65893550D01*
X83109451Y-65912500D01*
X83109454Y-65912500D01*
X83290549Y-65912500D01*
X83391566Y-65896500D01*
X83469409Y-65884171D01*
X83641639Y-65828211D01*
X83802994Y-65745996D01*
X83949501Y-65639553D01*
X84077553Y-65511501D01*
X84183996Y-65364994D01*
X84266211Y-65203639D01*
X84322171Y-65031409D01*
X84336568Y-64940509D01*
X84350500Y-64852549D01*
X84350500Y-64671450D01*
X84322171Y-64492593D01*
X84322171Y-64492591D01*
X84266211Y-64320361D01*
X84183996Y-64159006D01*
X84077553Y-64012499D01*
X83949501Y-63884447D01*
X83802994Y-63778004D01*
X83802993Y-63778003D01*
X83802991Y-63778002D01*
X83641637Y-63695788D01*
X83469406Y-63639828D01*
X83290549Y-63611500D01*
X83290546Y-63611500D01*
X83109454Y-63611500D01*
X83109451Y-63611500D01*
X82930593Y-63639828D01*
X82758362Y-63695788D01*
X82597008Y-63778002D01*
X82530932Y-63826009D01*
X82450499Y-63884447D01*
X82322447Y-64012499D01*
X82269225Y-64085752D01*
X82216002Y-64159008D01*
X82133788Y-64320362D01*
X82077828Y-64492593D01*
X82049500Y-64671450D01*
X62276899Y-64671450D01*
X62276899Y-63851136D01*
X62273985Y-63826009D01*
X62228606Y-63723235D01*
X62149165Y-63643794D01*
X62046391Y-63598415D01*
X62046390Y-63598414D01*
X62046388Y-63598414D01*
X62021268Y-63595500D01*
X60231539Y-63595500D01*
X60231536Y-63595501D01*
X60206409Y-63598414D01*
X60103635Y-63643794D01*
X60024194Y-63723235D01*
X59978814Y-63826011D01*
X59975900Y-63851130D01*
X46677498Y-63851130D01*
X46646760Y-63790801D01*
X46535690Y-63637927D01*
X46402073Y-63504310D01*
X46249199Y-63393240D01*
X46249198Y-63393239D01*
X46249196Y-63393238D01*
X46080832Y-63307453D01*
X45901113Y-63249058D01*
X45714484Y-63219500D01*
X45714481Y-63219500D01*
X45525519Y-63219500D01*
X45525516Y-63219500D01*
X45338886Y-63249058D01*
X45159167Y-63307453D01*
X44990803Y-63393238D01*
X44837928Y-63504309D01*
X44704309Y-63637928D01*
X44593240Y-63790801D01*
X44575767Y-63825092D01*
X44532502Y-63868355D01*
X44488404Y-63879140D01*
X36900345Y-63943926D01*
X36841995Y-63925517D01*
X36805610Y-63876325D01*
X36800500Y-63844930D01*
X36800500Y-61327130D01*
X82049500Y-61327130D01*
X82049500Y-63116860D01*
X82049501Y-63116863D01*
X82052414Y-63141990D01*
X82062790Y-63165488D01*
X82097794Y-63244765D01*
X82177235Y-63324206D01*
X82280009Y-63369585D01*
X82305135Y-63372500D01*
X84094864Y-63372499D01*
X84119991Y-63369585D01*
X84222765Y-63324206D01*
X84302206Y-63244765D01*
X84347585Y-63141991D01*
X84350500Y-63116865D01*
X84350499Y-61327136D01*
X84347585Y-61302009D01*
X84302206Y-61199235D01*
X84222765Y-61119794D01*
X84119991Y-61074415D01*
X84119990Y-61074414D01*
X84119988Y-61074414D01*
X84094868Y-61071500D01*
X82305139Y-61071500D01*
X82305136Y-61071501D01*
X82280009Y-61074414D01*
X82177235Y-61119794D01*
X82097794Y-61199235D01*
X82052414Y-61302011D01*
X82049500Y-61327130D01*
X36800500Y-61327130D01*
X36800500Y-37927525D01*
X36762984Y-37787515D01*
X36762982Y-37787512D01*
X36762982Y-37787510D01*
X36711880Y-37699000D01*
X36699158Y-37639152D01*
X36724044Y-37583256D01*
X36777032Y-37552664D01*
X36797616Y-37550500D01*
X45578841Y-37550500D01*
X45578842Y-37550500D01*
X45733497Y-37519737D01*
X45812616Y-37486964D01*
X45873611Y-37482164D01*
X45925780Y-37514133D01*
X45949195Y-37570661D01*
X45949500Y-37578429D01*
X45949500Y-58040500D01*
X45930593Y-58098691D01*
X45881093Y-58134655D01*
X45850500Y-58139500D01*
X44675139Y-58139500D01*
X44675136Y-58139501D01*
X44650009Y-58142414D01*
X44547235Y-58187794D01*
X44467794Y-58267235D01*
X44422414Y-58370011D01*
X44419500Y-58395130D01*
X44419500Y-60284860D01*
X44419501Y-60284863D01*
X44422414Y-60309990D01*
X44447481Y-60366760D01*
X44467794Y-60412765D01*
X44547235Y-60492206D01*
X44650009Y-60537585D01*
X44675135Y-60540500D01*
X46564864Y-60540499D01*
X46589991Y-60537585D01*
X46692765Y-60492206D01*
X46772206Y-60412765D01*
X46817585Y-60309991D01*
X46820500Y-60284865D01*
X46820500Y-60136860D01*
X46839407Y-60078669D01*
X46888907Y-60042705D01*
X46892537Y-60041603D01*
X46933592Y-60029982D01*
X46941243Y-60028141D01*
X46983497Y-60019737D01*
X47007735Y-60009696D01*
X47018629Y-60005913D01*
X47043872Y-59998769D01*
X47082244Y-59979171D01*
X47089364Y-59975884D01*
X47129179Y-59959394D01*
X47150998Y-59944813D01*
X47160937Y-59938982D01*
X47184304Y-59927050D01*
X47218128Y-59900332D01*
X47224448Y-59895736D01*
X47260289Y-59871789D01*
X47278835Y-59853241D01*
X47287466Y-59845564D01*
X47308044Y-59829312D01*
X47335992Y-59796524D01*
X47341303Y-59790773D01*
X47371789Y-59760289D01*
X47386364Y-59738473D01*
X47393335Y-59729258D01*
X47398864Y-59722773D01*
X47410340Y-59709311D01*
X47431355Y-59671701D01*
X47435453Y-59665008D01*
X47447818Y-59646503D01*
X47459394Y-59629179D01*
X47469429Y-59604949D01*
X47474467Y-59594549D01*
X47487259Y-59571660D01*
X47500534Y-59530669D01*
X47503243Y-59523314D01*
X47519737Y-59483497D01*
X47524855Y-59457760D01*
X47527762Y-59446598D01*
X47535845Y-59421647D01*
X47540867Y-59378862D01*
X47542094Y-59371100D01*
X47550499Y-59328849D01*
X47550500Y-59328840D01*
X47550500Y-59302618D01*
X47551175Y-59291074D01*
X47551313Y-59289897D01*
X47554232Y-59265038D01*
X47550812Y-59222095D01*
X47550500Y-59214236D01*
X47550500Y-36370848D01*
X47569407Y-36312657D01*
X47618907Y-36276693D01*
X47680093Y-36276693D01*
X47729593Y-36312657D01*
X47743655Y-36340255D01*
X47795243Y-36499027D01*
X47888139Y-36681348D01*
X47888143Y-36681353D01*
X47920523Y-36725920D01*
X47920524Y-36725920D01*
X48600000Y-36046444D01*
X48600000Y-36052661D01*
X48627259Y-36154394D01*
X48679920Y-36245606D01*
X48754394Y-36320080D01*
X48845606Y-36372741D01*
X48947339Y-36400000D01*
X48953553Y-36400000D01*
X48274078Y-37079475D01*
X48318647Y-37111858D01*
X48500972Y-37204756D01*
X48695587Y-37267991D01*
X48897685Y-37300000D01*
X49102315Y-37300000D01*
X49304412Y-37267991D01*
X49499027Y-37204756D01*
X49681342Y-37111863D01*
X49681350Y-37111858D01*
X49725920Y-37079475D01*
X49046445Y-36400000D01*
X49052661Y-36400000D01*
X49154394Y-36372741D01*
X49245606Y-36320080D01*
X49320080Y-36245606D01*
X49372741Y-36154394D01*
X49400000Y-36052661D01*
X49400000Y-36046445D01*
X50079475Y-36725920D01*
X50111858Y-36681350D01*
X50111863Y-36681342D01*
X50204756Y-36499027D01*
X50267991Y-36304412D01*
X50300000Y-36102315D01*
X50300000Y-35897684D01*
X50267991Y-35695587D01*
X50204756Y-35500972D01*
X50111858Y-35318647D01*
X50079475Y-35274078D01*
X49400000Y-35953553D01*
X49400000Y-35947339D01*
X49372741Y-35845606D01*
X49320080Y-35754394D01*
X49245606Y-35679920D01*
X49154394Y-35627259D01*
X49052661Y-35600000D01*
X49046445Y-35600000D01*
X49725920Y-34920524D01*
X49725920Y-34920523D01*
X49681353Y-34888143D01*
X49681348Y-34888139D01*
X49499027Y-34795243D01*
X49304412Y-34732008D01*
X49102315Y-34700000D01*
X48897685Y-34700000D01*
X48695587Y-34732008D01*
X48500972Y-34795243D01*
X48318651Y-34888139D01*
X48318647Y-34888141D01*
X48274078Y-34920523D01*
X48953555Y-35600000D01*
X48947339Y-35600000D01*
X48845606Y-35627259D01*
X48754394Y-35679920D01*
X48679920Y-35754394D01*
X48627259Y-35845606D01*
X48600000Y-35947339D01*
X48600000Y-35953555D01*
X47920523Y-35274078D01*
X47888141Y-35318647D01*
X47888139Y-35318651D01*
X47795243Y-35500972D01*
X47732008Y-35695587D01*
X47718383Y-35781616D01*
X47690605Y-35836133D01*
X47636089Y-35863910D01*
X47575657Y-35854339D01*
X47532392Y-35811074D01*
X47523504Y-35785442D01*
X47519737Y-35766504D01*
X47519736Y-35766501D01*
X47459396Y-35620825D01*
X47459390Y-35620814D01*
X47379313Y-35500972D01*
X47371789Y-35489711D01*
X47260289Y-35378211D01*
X47208059Y-35343312D01*
X47129185Y-35290609D01*
X47129174Y-35290603D01*
X46983497Y-35230263D01*
X46828844Y-35199500D01*
X46828842Y-35199500D01*
X46600096Y-35199500D01*
X46589217Y-35195965D01*
X46577825Y-35196962D01*
X46563249Y-35187528D01*
X46541905Y-35180593D01*
X46525379Y-35165449D01*
X46523213Y-35162957D01*
X46442922Y-35057078D01*
X46322342Y-34965639D01*
X46322341Y-34965638D01*
X46322339Y-34965637D01*
X46181565Y-34910123D01*
X46093106Y-34899500D01*
X46093102Y-34899500D01*
X44906898Y-34899500D01*
X44906893Y-34899500D01*
X44818434Y-34910123D01*
X44677660Y-34965637D01*
X44677656Y-34965640D01*
X44557081Y-35057075D01*
X44557075Y-35057081D01*
X44465640Y-35177656D01*
X44465637Y-35177660D01*
X44410123Y-35318434D01*
X44399500Y-35406893D01*
X44399500Y-35850500D01*
X44380593Y-35908691D01*
X44331093Y-35944655D01*
X44300500Y-35949500D01*
X33899500Y-35949500D01*
X33841309Y-35930593D01*
X33805345Y-35881093D01*
X33800500Y-35850500D01*
X33800500Y-25774500D01*
X33819407Y-25716309D01*
X33868907Y-25680345D01*
X33899500Y-25675500D01*
X34168100Y-25675500D01*
X34168102Y-25675500D01*
X34256564Y-25664877D01*
X34397342Y-25609361D01*
X34517922Y-25517922D01*
X34609361Y-25397342D01*
X34664877Y-25256564D01*
X34675500Y-25168102D01*
X34675500Y-22831898D01*
X34664877Y-22743436D01*
X34649600Y-22704696D01*
X34642156Y-22685819D01*
X34638397Y-22624749D01*
X34671252Y-22573133D01*
X34728171Y-22550687D01*
X34734253Y-22550500D01*
X37263045Y-22550500D01*
X37321236Y-22569407D01*
X37333049Y-22579496D01*
X37981100Y-23227546D01*
X37842220Y-23320343D01*
X37720343Y-23442220D01*
X37627546Y-23581100D01*
X36909229Y-22862783D01*
X36837644Y-22956078D01*
X36714755Y-23168927D01*
X36714753Y-23168932D01*
X36620699Y-23396002D01*
X36620695Y-23396015D01*
X36557081Y-23633423D01*
X36557081Y-23633428D01*
X36525000Y-23877105D01*
X36525000Y-24122894D01*
X36557081Y-24366571D01*
X36557081Y-24366576D01*
X36620695Y-24603984D01*
X36620699Y-24603997D01*
X36714753Y-24831067D01*
X36714755Y-24831072D01*
X36837647Y-25043926D01*
X36909229Y-25137215D01*
X37627545Y-24418898D01*
X37720343Y-24557780D01*
X37842220Y-24679657D01*
X37981099Y-24772452D01*
X37262783Y-25490769D01*
X37356073Y-25562352D01*
X37568927Y-25685244D01*
X37568932Y-25685246D01*
X37796002Y-25779300D01*
X37796015Y-25779304D01*
X38033425Y-25842918D01*
X38277105Y-25874999D01*
X38277107Y-25875000D01*
X38522893Y-25875000D01*
X38522894Y-25874999D01*
X38766571Y-25842918D01*
X38766576Y-25842918D01*
X39003984Y-25779304D01*
X39003997Y-25779300D01*
X39231067Y-25685246D01*
X39231072Y-25685244D01*
X39443922Y-25562355D01*
X39537215Y-25490769D01*
X38818899Y-24772453D01*
X38957780Y-24679657D01*
X39079657Y-24557780D01*
X39172453Y-24418899D01*
X39890769Y-25137215D01*
X39962355Y-25043922D01*
X40085244Y-24831072D01*
X40085246Y-24831067D01*
X40179300Y-24603997D01*
X40179304Y-24603984D01*
X40242918Y-24366576D01*
X40242918Y-24366571D01*
X40274999Y-24122894D01*
X40275000Y-24122893D01*
X40275000Y-23877107D01*
X40274999Y-23877105D01*
X40242918Y-23633428D01*
X40242918Y-23633423D01*
X40179304Y-23396015D01*
X40179300Y-23396002D01*
X40085246Y-23168932D01*
X40085244Y-23168927D01*
X39962352Y-22956073D01*
X39890768Y-22862783D01*
X39172452Y-23581098D01*
X39079657Y-23442220D01*
X38957780Y-23320343D01*
X38818899Y-23227546D01*
X39466951Y-22579496D01*
X39521468Y-22551719D01*
X39536955Y-22550500D01*
X87100500Y-22550500D01*
X87158691Y-22569407D01*
X87194655Y-22618907D01*
X87199500Y-22649500D01*
X87199500Y-37390500D01*
X87180593Y-37448691D01*
X87131093Y-37484655D01*
X87100502Y-37489500D01*
X87055139Y-37489500D01*
X87055135Y-37489501D01*
X87030009Y-37492414D01*
X86927235Y-37537794D01*
X86847794Y-37617235D01*
X86802414Y-37720011D01*
X86799500Y-37745130D01*
X86799500Y-39634860D01*
X86799501Y-39634863D01*
X86802414Y-39659990D01*
X86827756Y-39717385D01*
X86847794Y-39762765D01*
X86927235Y-39842206D01*
X87030009Y-39887585D01*
X87055135Y-39890500D01*
X87612597Y-39890499D01*
X87670786Y-39909406D01*
X87706750Y-39958906D01*
X87706750Y-40020092D01*
X87670786Y-40069592D01*
X87643188Y-40083653D01*
X87539174Y-40117449D01*
X87539171Y-40117451D01*
X87370803Y-40203238D01*
X87217928Y-40314309D01*
X87084309Y-40447928D01*
X86973238Y-40600803D01*
X86887453Y-40769167D01*
X86829058Y-40948886D01*
X86799500Y-41135515D01*
X86799500Y-41324484D01*
X86829058Y-41511113D01*
X86887453Y-41690832D01*
X86973237Y-41859195D01*
X86973240Y-41859199D01*
X87084310Y-42012073D01*
X87217927Y-42145690D01*
X87370801Y-42256760D01*
X87539168Y-42342547D01*
X87718882Y-42400940D01*
X87718883Y-42400940D01*
X87718886Y-42400941D01*
X87726954Y-42402219D01*
X87781471Y-42429996D01*
X87809248Y-42484513D01*
X87799677Y-42544945D01*
X87756412Y-42588210D01*
X87726954Y-42597781D01*
X87718886Y-42599058D01*
X87539167Y-42657453D01*
X87370803Y-42743238D01*
X87217928Y-42854309D01*
X87084309Y-42987928D01*
X86973238Y-43140803D01*
X86887453Y-43309167D01*
X86829058Y-43488886D01*
X86799500Y-43675515D01*
X86799500Y-43864484D01*
X86829058Y-44051113D01*
X86887453Y-44230832D01*
X86893499Y-44242699D01*
X86973240Y-44399199D01*
X87084310Y-44552073D01*
X87217927Y-44685690D01*
X87370801Y-44796760D01*
X87370803Y-44796761D01*
X87455346Y-44839838D01*
X87498611Y-44883103D01*
X87508182Y-44943535D01*
X87480404Y-44998052D01*
X87455346Y-45016258D01*
X87266242Y-45112611D01*
X87087962Y-45242139D01*
X86932139Y-45397962D01*
X86802611Y-45576242D01*
X86702569Y-45772586D01*
X86634471Y-45982170D01*
X86622144Y-46059999D01*
X86622145Y-46060000D01*
X87566988Y-46060000D01*
X87534075Y-46117007D01*
X87500000Y-46244174D01*
X87500000Y-46375826D01*
X87534075Y-46502993D01*
X87566988Y-46560000D01*
X86622144Y-46560000D01*
X86634471Y-46637829D01*
X86702569Y-46847413D01*
X86802611Y-47043757D01*
X86932139Y-47222037D01*
X87087962Y-47377860D01*
X87266242Y-47507388D01*
X87462586Y-47607430D01*
X87672169Y-47675528D01*
X87749999Y-47687854D01*
X87750000Y-47687853D01*
X87750000Y-46743012D01*
X87807007Y-46775925D01*
X87934174Y-46810000D01*
X88065826Y-46810000D01*
X88192993Y-46775925D01*
X88250000Y-46743012D01*
X88250000Y-47687854D01*
X88327830Y-47675528D01*
X88537413Y-47607430D01*
X88733757Y-47507388D01*
X88912037Y-47377860D01*
X89067860Y-47222037D01*
X89197388Y-47043757D01*
X89297430Y-46847413D01*
X89365528Y-46637829D01*
X89377855Y-46560000D01*
X88433012Y-46560000D01*
X88465925Y-46502993D01*
X88500000Y-46375826D01*
X88500000Y-46244174D01*
X88465925Y-46117007D01*
X88433012Y-46060000D01*
X89377855Y-46060000D01*
X89377855Y-46059999D01*
X89365528Y-45982170D01*
X89297430Y-45772586D01*
X89197388Y-45576242D01*
X89067860Y-45397962D01*
X88912037Y-45242139D01*
X88733757Y-45112611D01*
X88544653Y-45016258D01*
X88501388Y-44972993D01*
X88491817Y-44912561D01*
X88519594Y-44858044D01*
X88544653Y-44839838D01*
X88629199Y-44796760D01*
X88782073Y-44685690D01*
X88915690Y-44552073D01*
X89026760Y-44399199D01*
X89112547Y-44230832D01*
X89170940Y-44051118D01*
X89170941Y-44051113D01*
X89200500Y-43864484D01*
X89200500Y-43675515D01*
X89170941Y-43488886D01*
X89155869Y-43442499D01*
X89112547Y-43309168D01*
X89026760Y-43140801D01*
X88915690Y-42987927D01*
X88782073Y-42854310D01*
X88629199Y-42743240D01*
X88629198Y-42743239D01*
X88629196Y-42743238D01*
X88460832Y-42657453D01*
X88281113Y-42599058D01*
X88273046Y-42597781D01*
X88218529Y-42570004D01*
X88190751Y-42515488D01*
X88200322Y-42455056D01*
X88243586Y-42411791D01*
X88273046Y-42402219D01*
X88281113Y-42400941D01*
X88281114Y-42400940D01*
X88281118Y-42400940D01*
X88460832Y-42342547D01*
X88629199Y-42256760D01*
X88782073Y-42145690D01*
X88915690Y-42012073D01*
X89026760Y-41859199D01*
X89099977Y-41715501D01*
X89143240Y-41672238D01*
X89188679Y-41661448D01*
X91935576Y-41675183D01*
X91940228Y-41675500D01*
X91943982Y-41675500D01*
X91998595Y-41675500D01*
X91999089Y-41675501D01*
X91999323Y-41675502D01*
X92053890Y-41675775D01*
X92053894Y-41675773D01*
X92053923Y-41675774D01*
X92054658Y-41675678D01*
X92055182Y-41675611D01*
X92055981Y-41675509D01*
X92056015Y-41675500D01*
X92056018Y-41675500D01*
X92109106Y-41661275D01*
X92162252Y-41647319D01*
X92162255Y-41647317D01*
X92162286Y-41647309D01*
X92163114Y-41646967D01*
X92163545Y-41646790D01*
X92164212Y-41646517D01*
X92164235Y-41646503D01*
X92164237Y-41646503D01*
X92211881Y-41618995D01*
X92259557Y-41591787D01*
X92259559Y-41591784D01*
X92259587Y-41591769D01*
X92260296Y-41591226D01*
X92260686Y-41590927D01*
X92261246Y-41590501D01*
X92261260Y-41590486D01*
X92261263Y-41590485D01*
X92300169Y-41551578D01*
X92339174Y-41512962D01*
X92339175Y-41512959D01*
X92339199Y-41512936D01*
X92339864Y-41512071D01*
X92340140Y-41511712D01*
X92340477Y-41511276D01*
X92340485Y-41511263D01*
X92367989Y-41463623D01*
X92395677Y-41416217D01*
X92395677Y-41416215D01*
X92395694Y-41416187D01*
X92396005Y-41415438D01*
X92396181Y-41415016D01*
X92396493Y-41414272D01*
X92396501Y-41414239D01*
X92396503Y-41414237D01*
X92410714Y-41361199D01*
X92425215Y-41308145D01*
X92425215Y-41308143D01*
X92425222Y-41308118D01*
X92425309Y-41307461D01*
X92425373Y-41306984D01*
X92425500Y-41306054D01*
X92425500Y-41251421D01*
X92425501Y-41250927D01*
X92425501Y-41250902D01*
X92425775Y-41196110D01*
X92425774Y-41196107D01*
X92425793Y-41192359D01*
X92425500Y-41187701D01*
X92425500Y-21193983D01*
X92425499Y-21193979D01*
X92418609Y-21168265D01*
X92421810Y-21107164D01*
X92460315Y-21059613D01*
X92519415Y-21043777D01*
X92575290Y-21064710D01*
G37*
%TD.AperFunction*%
%TA.AperFunction,Conductor*%
G36*
X26120703Y-27436050D02*
G01*
X26162823Y-27480430D01*
X26172469Y-27523540D01*
X26154217Y-31254389D01*
X26135025Y-31312487D01*
X26110220Y-31336220D01*
X26022696Y-31394702D01*
X26022687Y-31394709D01*
X25874701Y-31542696D01*
X25758424Y-31716718D01*
X25678332Y-31910076D01*
X25678330Y-31910082D01*
X25637500Y-32115350D01*
X25637500Y-32324649D01*
X25678330Y-32529917D01*
X25678332Y-32529923D01*
X25758424Y-32723281D01*
X25758425Y-32723282D01*
X25874702Y-32897304D01*
X26022696Y-33045298D01*
X26196718Y-33161575D01*
X26390080Y-33241669D01*
X26595353Y-33282500D01*
X26595354Y-33282500D01*
X26804646Y-33282500D01*
X26804647Y-33282500D01*
X27009920Y-33241669D01*
X27203282Y-33161575D01*
X27295499Y-33099957D01*
X27354386Y-33083349D01*
X27411790Y-33104526D01*
X27445783Y-33155400D01*
X27449500Y-33182273D01*
X27449500Y-33563960D01*
X27430593Y-33622151D01*
X27381093Y-33658115D01*
X27319907Y-33658115D01*
X27305555Y-33652170D01*
X27184440Y-33590459D01*
X26995514Y-33529073D01*
X26799325Y-33498000D01*
X26600675Y-33498000D01*
X26404485Y-33529073D01*
X26215559Y-33590459D01*
X26038567Y-33680641D01*
X26001283Y-33707728D01*
X26570591Y-34277037D01*
X26507007Y-34294075D01*
X26392993Y-34359901D01*
X26299901Y-34452993D01*
X26234075Y-34567007D01*
X26217037Y-34630592D01*
X25647728Y-34061283D01*
X25620641Y-34098567D01*
X25530459Y-34275559D01*
X25469073Y-34464485D01*
X25438000Y-34660674D01*
X25438000Y-34859325D01*
X25469073Y-35055514D01*
X25530459Y-35244440D01*
X25620637Y-35421425D01*
X25647729Y-35458714D01*
X26217036Y-34889406D01*
X26234075Y-34952993D01*
X26299901Y-35067007D01*
X26392993Y-35160099D01*
X26507007Y-35225925D01*
X26570590Y-35242962D01*
X26001283Y-35812270D01*
X26038564Y-35839357D01*
X26038568Y-35839359D01*
X26215559Y-35929540D01*
X26404485Y-35990926D01*
X26600675Y-36022000D01*
X26799325Y-36022000D01*
X26995514Y-35990926D01*
X27184443Y-35929539D01*
X27305554Y-35867830D01*
X27365987Y-35858258D01*
X27420503Y-35886035D01*
X27448281Y-35940551D01*
X27449500Y-35956039D01*
X27449500Y-36337726D01*
X27430593Y-36395917D01*
X27381093Y-36431881D01*
X27319907Y-36431881D01*
X27295499Y-36420042D01*
X27203281Y-36358424D01*
X27009923Y-36278332D01*
X27009917Y-36278330D01*
X26804649Y-36237500D01*
X26804647Y-36237500D01*
X26595353Y-36237500D01*
X26595350Y-36237500D01*
X26390082Y-36278330D01*
X26390076Y-36278332D01*
X26196718Y-36358424D01*
X26022699Y-36474699D01*
X25874699Y-36622699D01*
X25758424Y-36796718D01*
X25678332Y-36990076D01*
X25678330Y-36990082D01*
X25637500Y-37195350D01*
X25637500Y-37404649D01*
X25678330Y-37609917D01*
X25678332Y-37609923D01*
X25758424Y-37803281D01*
X25758425Y-37803282D01*
X25874702Y-37977304D01*
X26022696Y-38125298D01*
X26196718Y-38241575D01*
X26390080Y-38321669D01*
X26595353Y-38362500D01*
X26595354Y-38362500D01*
X26804646Y-38362500D01*
X26804647Y-38362500D01*
X27009920Y-38321669D01*
X27203282Y-38241575D01*
X27335671Y-38153115D01*
X27394559Y-38136507D01*
X27451962Y-38157685D01*
X27485955Y-38208558D01*
X27486298Y-38209806D01*
X27487016Y-38212485D01*
X27487017Y-38212488D01*
X27559487Y-38338010D01*
X27559489Y-38338012D01*
X27559491Y-38338015D01*
X27661985Y-38440509D01*
X27661987Y-38440510D01*
X27661989Y-38440512D01*
X27787511Y-38512982D01*
X27787512Y-38512982D01*
X27787515Y-38512984D01*
X27927525Y-38550500D01*
X35600500Y-38550500D01*
X35658691Y-38569407D01*
X35694655Y-38618907D01*
X35699500Y-38649500D01*
X35699500Y-64421290D01*
X35698891Y-64431226D01*
X35699496Y-64501890D01*
X35699500Y-64502736D01*
X35699500Y-64572620D01*
X35699752Y-64574415D01*
X35699866Y-64575259D01*
X35700099Y-64577031D01*
X35718728Y-64644253D01*
X35718950Y-64645067D01*
X35737052Y-64712623D01*
X35737753Y-64714274D01*
X35738070Y-64715031D01*
X35738773Y-64716728D01*
X35774216Y-64776926D01*
X35774641Y-64777655D01*
X35809561Y-64838137D01*
X35810686Y-64839578D01*
X35811201Y-64840244D01*
X35812288Y-64841660D01*
X35812391Y-64841762D01*
X35812393Y-64841764D01*
X35852134Y-64880832D01*
X35862067Y-64890597D01*
X35862667Y-64891191D01*
X35912090Y-64940614D01*
X35913557Y-64941720D01*
X35914220Y-64942224D01*
X35915633Y-64943308D01*
X35915757Y-64943378D01*
X35915758Y-64943379D01*
X35976323Y-64977660D01*
X35976369Y-64977686D01*
X35977103Y-64978105D01*
X36037638Y-65013055D01*
X36039277Y-65013717D01*
X36040090Y-65014050D01*
X36041763Y-65014743D01*
X36109402Y-65032249D01*
X36110184Y-65032455D01*
X36177525Y-65050500D01*
X36177527Y-65050500D01*
X36177665Y-65050537D01*
X36179464Y-65050759D01*
X36180298Y-65050865D01*
X36182088Y-65051100D01*
X36182227Y-65051098D01*
X36182228Y-65051099D01*
X36251917Y-65050503D01*
X36252762Y-65050500D01*
X36323504Y-65050500D01*
X36333405Y-65049807D01*
X44496525Y-64980111D01*
X44554873Y-64998520D01*
X44585577Y-65034161D01*
X44593236Y-65049193D01*
X44593237Y-65049195D01*
X44594185Y-65050500D01*
X44704310Y-65202073D01*
X44837927Y-65335690D01*
X44990801Y-65446760D01*
X45159168Y-65532547D01*
X45338882Y-65590940D01*
X45338883Y-65590940D01*
X45338886Y-65590941D01*
X45346954Y-65592219D01*
X45401471Y-65619996D01*
X45429248Y-65674513D01*
X45419677Y-65734945D01*
X45376412Y-65778210D01*
X45346954Y-65787781D01*
X45338886Y-65789058D01*
X45159167Y-65847453D01*
X44990803Y-65933238D01*
X44837928Y-66044309D01*
X44704309Y-66177928D01*
X44593238Y-66330803D01*
X44507453Y-66499167D01*
X44449058Y-66678886D01*
X44419500Y-66865515D01*
X44419500Y-67054484D01*
X44449058Y-67241113D01*
X44507453Y-67420832D01*
X44584175Y-67571409D01*
X44593240Y-67589199D01*
X44704310Y-67742073D01*
X44837927Y-67875690D01*
X44990801Y-67986760D01*
X45159168Y-68072547D01*
X45338882Y-68130940D01*
X45338883Y-68130940D01*
X45338886Y-68130941D01*
X45346954Y-68132219D01*
X45401471Y-68159996D01*
X45429248Y-68214513D01*
X45419677Y-68274945D01*
X45376412Y-68318210D01*
X45346954Y-68327781D01*
X45338886Y-68329058D01*
X45159167Y-68387453D01*
X44990803Y-68473238D01*
X44837928Y-68584309D01*
X44704309Y-68717928D01*
X44593238Y-68870803D01*
X44507453Y-69039167D01*
X44449058Y-69218886D01*
X44419500Y-69405515D01*
X44419500Y-69594484D01*
X44449058Y-69781113D01*
X44507453Y-69960832D01*
X44584175Y-70111409D01*
X44593240Y-70129199D01*
X44704310Y-70282073D01*
X44837927Y-70415690D01*
X44990801Y-70526760D01*
X45159168Y-70612547D01*
X45338882Y-70670940D01*
X45338883Y-70670940D01*
X45338886Y-70670941D01*
X45344146Y-70671773D01*
X45346946Y-70672217D01*
X45401465Y-70699990D01*
X45429247Y-70754504D01*
X45419680Y-70814937D01*
X45376419Y-70858205D01*
X45346962Y-70867779D01*
X45338884Y-70869058D01*
X45159167Y-70927453D01*
X44990803Y-71013238D01*
X44837928Y-71124309D01*
X44704305Y-71257932D01*
X44604592Y-71395175D01*
X44555092Y-71431139D01*
X44493907Y-71431138D01*
X44444407Y-71395174D01*
X44425500Y-71336984D01*
X44425500Y-70713983D01*
X44425500Y-70713982D01*
X44396503Y-70605763D01*
X44396501Y-70605760D01*
X44396501Y-70605758D01*
X44340486Y-70508739D01*
X44340485Y-70508737D01*
X44261263Y-70429515D01*
X44260361Y-70428994D01*
X44164240Y-70373498D01*
X44164242Y-70373498D01*
X44122251Y-70362247D01*
X44056018Y-70344500D01*
X44056016Y-70344500D01*
X31444633Y-70344500D01*
X31386442Y-70325593D01*
X31350478Y-70276093D01*
X31350478Y-70214907D01*
X31364540Y-70187309D01*
X31406760Y-70129199D01*
X31492547Y-69960832D01*
X31550940Y-69781118D01*
X31550941Y-69781113D01*
X31580500Y-69594484D01*
X31580500Y-69405515D01*
X31550941Y-69218886D01*
X31525217Y-69139716D01*
X31492547Y-69039168D01*
X31406760Y-68870801D01*
X31295690Y-68717927D01*
X31162073Y-68584310D01*
X31009199Y-68473240D01*
X31009198Y-68473239D01*
X31009196Y-68473238D01*
X30840832Y-68387453D01*
X30661113Y-68329058D01*
X30653046Y-68327781D01*
X30598529Y-68300004D01*
X30570751Y-68245488D01*
X30580322Y-68185056D01*
X30623586Y-68141791D01*
X30653046Y-68132219D01*
X30661113Y-68130941D01*
X30661114Y-68130940D01*
X30661118Y-68130940D01*
X30840832Y-68072547D01*
X31009199Y-67986760D01*
X31162073Y-67875690D01*
X31295690Y-67742073D01*
X31406760Y-67589199D01*
X31492547Y-67420832D01*
X31550940Y-67241118D01*
X31553864Y-67222659D01*
X31580500Y-67054484D01*
X31580500Y-66865515D01*
X31550941Y-66678886D01*
X31509875Y-66552499D01*
X31492547Y-66499168D01*
X31406760Y-66330801D01*
X31295690Y-66177927D01*
X31162073Y-66044310D01*
X31009199Y-65933240D01*
X31009198Y-65933239D01*
X31009196Y-65933238D01*
X30840832Y-65847453D01*
X30661113Y-65789058D01*
X30653046Y-65787781D01*
X30598529Y-65760004D01*
X30570751Y-65705488D01*
X30580322Y-65645056D01*
X30623586Y-65601791D01*
X30653046Y-65592219D01*
X30661113Y-65590941D01*
X30661114Y-65590940D01*
X30661118Y-65590940D01*
X30840832Y-65532547D01*
X31009199Y-65446760D01*
X31162073Y-65335690D01*
X31295690Y-65202073D01*
X31406760Y-65049199D01*
X31492547Y-64880832D01*
X31550940Y-64701118D01*
X31551196Y-64699500D01*
X31580500Y-64514484D01*
X31580500Y-64325515D01*
X31550941Y-64138886D01*
X31509875Y-64012499D01*
X31492547Y-63959168D01*
X31406760Y-63790801D01*
X31295690Y-63637927D01*
X31162073Y-63504310D01*
X31009199Y-63393240D01*
X31009198Y-63393239D01*
X31009196Y-63393238D01*
X30840832Y-63307453D01*
X30661113Y-63249058D01*
X30653046Y-63247781D01*
X30598529Y-63220004D01*
X30570751Y-63165488D01*
X30580322Y-63105056D01*
X30623586Y-63061791D01*
X30653046Y-63052219D01*
X30661113Y-63050941D01*
X30661114Y-63050940D01*
X30661118Y-63050940D01*
X30840832Y-62992547D01*
X31009199Y-62906760D01*
X31162073Y-62795690D01*
X31295690Y-62662073D01*
X31406760Y-62509199D01*
X31492547Y-62340832D01*
X31550940Y-62161118D01*
X31580500Y-61974481D01*
X31580500Y-61785519D01*
X31580500Y-61785515D01*
X31550941Y-61598886D01*
X31550940Y-61598882D01*
X31492547Y-61419168D01*
X31406760Y-61250801D01*
X31295690Y-61097927D01*
X31162073Y-60964310D01*
X31009199Y-60853240D01*
X31009198Y-60853239D01*
X31009196Y-60853238D01*
X30840832Y-60767453D01*
X30661113Y-60709058D01*
X30653046Y-60707781D01*
X30598529Y-60680004D01*
X30570751Y-60625488D01*
X30580322Y-60565056D01*
X30623586Y-60521791D01*
X30653046Y-60512219D01*
X30661113Y-60510941D01*
X30661114Y-60510940D01*
X30661118Y-60510940D01*
X30840832Y-60452547D01*
X31009199Y-60366760D01*
X31162073Y-60255690D01*
X31295690Y-60122073D01*
X31406760Y-59969199D01*
X31492547Y-59800832D01*
X31550940Y-59621118D01*
X31555792Y-59590485D01*
X31580500Y-59434484D01*
X31580500Y-59245515D01*
X31550941Y-59058886D01*
X31550940Y-59058882D01*
X31492547Y-58879168D01*
X31406760Y-58710801D01*
X31295690Y-58557927D01*
X31162073Y-58424310D01*
X31009199Y-58313240D01*
X31009198Y-58313239D01*
X31009196Y-58313238D01*
X30840832Y-58227453D01*
X30661113Y-58169058D01*
X30474484Y-58139500D01*
X30474481Y-58139500D01*
X30285519Y-58139500D01*
X30285516Y-58139500D01*
X30098886Y-58169058D01*
X29919167Y-58227453D01*
X29750803Y-58313238D01*
X29597928Y-58424309D01*
X29464309Y-58557928D01*
X29353237Y-58710804D01*
X29353236Y-58710806D01*
X29299696Y-58815884D01*
X29256431Y-58859148D01*
X29207746Y-58869867D01*
X28520759Y-58843888D01*
X28463324Y-58822796D01*
X28429257Y-58771972D01*
X28425500Y-58744959D01*
X28425500Y-40943983D01*
X28425500Y-40943982D01*
X28396503Y-40835763D01*
X28396501Y-40835760D01*
X28396501Y-40835758D01*
X28340486Y-40738739D01*
X28340485Y-40738737D01*
X28261263Y-40659515D01*
X28261260Y-40659513D01*
X28164240Y-40603498D01*
X28164242Y-40603498D01*
X28122251Y-40592247D01*
X28056018Y-40574500D01*
X28056016Y-40574500D01*
X27672297Y-40574500D01*
X27614106Y-40555593D01*
X27578142Y-40506093D01*
X27578142Y-40444907D01*
X27589981Y-40420499D01*
X27609376Y-40391471D01*
X27641575Y-40343282D01*
X27721669Y-40149920D01*
X27762500Y-39944647D01*
X27762500Y-39735353D01*
X27721669Y-39530080D01*
X27641575Y-39336718D01*
X27525298Y-39162696D01*
X27377304Y-39014702D01*
X27203282Y-38898425D01*
X27203283Y-38898425D01*
X27203281Y-38898424D01*
X27009923Y-38818332D01*
X27009917Y-38818330D01*
X26804649Y-38777500D01*
X26804647Y-38777500D01*
X26595353Y-38777500D01*
X26595350Y-38777500D01*
X26390082Y-38818330D01*
X26390076Y-38818332D01*
X26196718Y-38898424D01*
X26022699Y-39014699D01*
X25874699Y-39162699D01*
X25758424Y-39336718D01*
X25678332Y-39530076D01*
X25678330Y-39530082D01*
X25637500Y-39735350D01*
X25637500Y-39944649D01*
X25678330Y-40149917D01*
X25678332Y-40149923D01*
X25758424Y-40343281D01*
X25810019Y-40420499D01*
X25826627Y-40479387D01*
X25805449Y-40536791D01*
X25754575Y-40570783D01*
X25727703Y-40574500D01*
X25274500Y-40574500D01*
X25216309Y-40555593D01*
X25180345Y-40506093D01*
X25175500Y-40475500D01*
X25175500Y-27524500D01*
X25194407Y-27466309D01*
X25243907Y-27430345D01*
X25274500Y-27425500D01*
X26056017Y-27425500D01*
X26056018Y-27425500D01*
X26056018Y-27425499D01*
X26060542Y-27424904D01*
X26120703Y-27436050D01*
G37*
%TD.AperFunction*%
%TA.AperFunction,Conductor*%
G36*
X27520445Y-50778899D02*
G01*
X27563710Y-50822164D01*
X27574500Y-50867109D01*
X27574500Y-59240094D01*
X27574429Y-59243837D01*
X27572686Y-59289897D01*
X27573290Y-59296359D01*
X27573080Y-59296378D01*
X27573444Y-59299611D01*
X27573653Y-59299584D01*
X27574500Y-59306020D01*
X27586431Y-59350549D01*
X27587330Y-59354178D01*
X27597572Y-59399133D01*
X27599826Y-59405214D01*
X27599630Y-59405286D01*
X27600821Y-59408323D01*
X27601014Y-59408244D01*
X27603496Y-59414236D01*
X27626564Y-59454192D01*
X27628361Y-59457444D01*
X27640281Y-59480020D01*
X27649884Y-59498207D01*
X27653638Y-59503501D01*
X27653465Y-59503623D01*
X27655400Y-59506245D01*
X27655566Y-59506118D01*
X27659509Y-59511257D01*
X27692130Y-59543878D01*
X27694725Y-59546574D01*
X27726056Y-59580368D01*
X27731049Y-59584508D01*
X27730915Y-59584669D01*
X27733459Y-59586699D01*
X27733587Y-59586534D01*
X27738732Y-59590481D01*
X27738734Y-59590482D01*
X27738737Y-59590485D01*
X27754527Y-59599601D01*
X27778676Y-59613544D01*
X27781861Y-59615464D01*
X27820897Y-59640014D01*
X27820898Y-59640014D01*
X27820901Y-59640016D01*
X27826793Y-59642722D01*
X27826705Y-59642912D01*
X27829686Y-59644214D01*
X27829767Y-59644020D01*
X27835762Y-59646503D01*
X27880293Y-59658434D01*
X27883875Y-59659466D01*
X27927943Y-59673079D01*
X27927951Y-59673079D01*
X27934340Y-59674168D01*
X27934304Y-59674376D01*
X27937518Y-59674861D01*
X27937546Y-59674653D01*
X27943980Y-59675500D01*
X27943982Y-59675500D01*
X27990102Y-59675500D01*
X27993842Y-59675570D01*
X29173032Y-59720161D01*
X29230466Y-59741253D01*
X29263444Y-59788496D01*
X29267451Y-59800828D01*
X29337838Y-59938972D01*
X29353240Y-59969199D01*
X29464310Y-60122073D01*
X29597927Y-60255690D01*
X29750801Y-60366760D01*
X29919168Y-60452547D01*
X30098882Y-60510940D01*
X30098883Y-60510940D01*
X30098886Y-60510941D01*
X30106954Y-60512219D01*
X30161471Y-60539996D01*
X30189248Y-60594513D01*
X30179677Y-60654945D01*
X30136412Y-60698210D01*
X30106954Y-60707781D01*
X30098886Y-60709058D01*
X29919167Y-60767453D01*
X29750803Y-60853238D01*
X29597928Y-60964309D01*
X29464309Y-61097928D01*
X29353238Y-61250803D01*
X29267453Y-61419167D01*
X29209058Y-61598886D01*
X29179500Y-61785515D01*
X29179500Y-61974484D01*
X29209058Y-62161113D01*
X29209060Y-62161118D01*
X29267453Y-62340832D01*
X29353240Y-62509199D01*
X29464310Y-62662073D01*
X29597927Y-62795690D01*
X29750801Y-62906760D01*
X29919168Y-62992547D01*
X30098882Y-63050940D01*
X30098883Y-63050940D01*
X30098886Y-63050941D01*
X30106954Y-63052219D01*
X30161471Y-63079996D01*
X30189248Y-63134513D01*
X30179677Y-63194945D01*
X30136412Y-63238210D01*
X30106954Y-63247781D01*
X30098886Y-63249058D01*
X29919167Y-63307453D01*
X29750803Y-63393238D01*
X29597928Y-63504309D01*
X29464309Y-63637928D01*
X29353238Y-63790803D01*
X29267453Y-63959167D01*
X29209058Y-64138886D01*
X29179500Y-64325515D01*
X29179500Y-64514484D01*
X29209058Y-64701113D01*
X29267453Y-64880832D01*
X29353237Y-65049195D01*
X29353240Y-65049199D01*
X29464310Y-65202073D01*
X29597927Y-65335690D01*
X29750801Y-65446760D01*
X29919168Y-65532547D01*
X30098882Y-65590940D01*
X30098883Y-65590940D01*
X30098886Y-65590941D01*
X30106954Y-65592219D01*
X30161471Y-65619996D01*
X30189248Y-65674513D01*
X30179677Y-65734945D01*
X30136412Y-65778210D01*
X30106954Y-65787781D01*
X30098886Y-65789058D01*
X29919167Y-65847453D01*
X29750803Y-65933238D01*
X29597928Y-66044309D01*
X29464309Y-66177928D01*
X29353238Y-66330803D01*
X29267453Y-66499167D01*
X29209058Y-66678886D01*
X29179500Y-66865515D01*
X29179500Y-67054484D01*
X29209058Y-67241113D01*
X29267453Y-67420832D01*
X29344175Y-67571409D01*
X29353240Y-67589199D01*
X29464310Y-67742073D01*
X29597927Y-67875690D01*
X29750801Y-67986760D01*
X29919168Y-68072547D01*
X30098882Y-68130940D01*
X30098883Y-68130940D01*
X30098886Y-68130941D01*
X30106954Y-68132219D01*
X30161471Y-68159996D01*
X30189248Y-68214513D01*
X30179677Y-68274945D01*
X30136412Y-68318210D01*
X30106954Y-68327781D01*
X30098886Y-68329058D01*
X29919167Y-68387453D01*
X29750803Y-68473238D01*
X29597928Y-68584309D01*
X29464309Y-68717928D01*
X29353238Y-68870803D01*
X29267453Y-69039167D01*
X29209058Y-69218886D01*
X29179500Y-69405515D01*
X29179500Y-69594484D01*
X29209058Y-69781113D01*
X29267453Y-69960832D01*
X29344175Y-70111409D01*
X29353240Y-70129199D01*
X29393662Y-70184835D01*
X29395460Y-70187309D01*
X29414367Y-70245500D01*
X29395460Y-70303691D01*
X29345960Y-70339655D01*
X29315367Y-70344500D01*
X24524500Y-70344500D01*
X24466309Y-70325593D01*
X24430345Y-70276093D01*
X24425500Y-70245500D01*
X24425500Y-51524500D01*
X24444407Y-51466309D01*
X24493907Y-51430345D01*
X24524500Y-51425500D01*
X26756016Y-51425500D01*
X26756018Y-51425500D01*
X26864237Y-51396503D01*
X26864239Y-51396501D01*
X26864241Y-51396501D01*
X26893064Y-51379859D01*
X26961263Y-51340485D01*
X27040485Y-51261263D01*
X27096503Y-51164237D01*
X27125500Y-51056018D01*
X27125500Y-51039942D01*
X27144407Y-50981751D01*
X27186616Y-50948478D01*
X27203282Y-50941575D01*
X27377304Y-50825298D01*
X27405498Y-50797103D01*
X27460013Y-50769328D01*
X27520445Y-50778899D01*
G37*
%TD.AperFunction*%
%TA.AperFunction,Conductor*%
G36*
X88478042Y-26056325D02*
G01*
X88605729Y-26222731D01*
X88605730Y-26222732D01*
X88605735Y-26222738D01*
X88777262Y-26394265D01*
X88777266Y-26394268D01*
X88777268Y-26394270D01*
X88969707Y-26541933D01*
X88969711Y-26541936D01*
X89179788Y-26663224D01*
X89403900Y-26756054D01*
X89638211Y-26818838D01*
X89878712Y-26850500D01*
X89878713Y-26850500D01*
X90121287Y-26850500D01*
X90121288Y-26850500D01*
X90361789Y-26818838D01*
X90596100Y-26756054D01*
X90820212Y-26663224D01*
X91030289Y-26541936D01*
X91222738Y-26394265D01*
X91394265Y-26222738D01*
X91396957Y-26219230D01*
X91447381Y-26184573D01*
X91508546Y-26186174D01*
X91557088Y-26223421D01*
X91574500Y-26279496D01*
X91574500Y-40722869D01*
X91555593Y-40781060D01*
X91506093Y-40817024D01*
X91475005Y-40821868D01*
X89193760Y-40810462D01*
X89135665Y-40791264D01*
X89106045Y-40756408D01*
X89097042Y-40738739D01*
X89026760Y-40600801D01*
X88915690Y-40447927D01*
X88782073Y-40314310D01*
X88629199Y-40203240D01*
X88629198Y-40203239D01*
X88629196Y-40203238D01*
X88460832Y-40117453D01*
X88356810Y-40083654D01*
X88307310Y-40047690D01*
X88288403Y-39989499D01*
X88307310Y-39931308D01*
X88356811Y-39895344D01*
X88387401Y-39890499D01*
X88944864Y-39890499D01*
X88969991Y-39887585D01*
X89072765Y-39842206D01*
X89152206Y-39762765D01*
X89197585Y-39659991D01*
X89200500Y-39634865D01*
X89200499Y-37745136D01*
X89197585Y-37720009D01*
X89152206Y-37617235D01*
X89072765Y-37537794D01*
X88969991Y-37492415D01*
X88969990Y-37492414D01*
X88969988Y-37492414D01*
X88944869Y-37489500D01*
X88944865Y-37489500D01*
X88399500Y-37489500D01*
X88341309Y-37470593D01*
X88305345Y-37421093D01*
X88300500Y-37390500D01*
X88300500Y-26116592D01*
X88319407Y-26058401D01*
X88368907Y-26022437D01*
X88430093Y-26022437D01*
X88478042Y-26056325D01*
G37*
%TD.AperFunction*%
%TA.AperFunction,Conductor*%
G36*
X31323938Y-22569407D02*
G01*
X31359902Y-22618907D01*
X31359902Y-22680093D01*
X31357844Y-22685819D01*
X31335123Y-22743433D01*
X31324500Y-22831893D01*
X31324500Y-25168106D01*
X31335123Y-25256565D01*
X31390637Y-25397339D01*
X31390638Y-25397341D01*
X31390639Y-25397342D01*
X31482078Y-25517922D01*
X31602658Y-25609361D01*
X31602659Y-25609361D01*
X31602660Y-25609362D01*
X31673047Y-25637119D01*
X31743436Y-25664877D01*
X31831898Y-25675500D01*
X32100500Y-25675500D01*
X32158691Y-25694407D01*
X32194655Y-25743907D01*
X32199500Y-25774500D01*
X32199500Y-36828844D01*
X32230263Y-36983496D01*
X32230263Y-36983498D01*
X32290603Y-37129174D01*
X32290609Y-37129185D01*
X32334820Y-37195350D01*
X32378211Y-37260289D01*
X32378214Y-37260292D01*
X32398418Y-37280496D01*
X32426195Y-37335013D01*
X32416624Y-37395445D01*
X32373359Y-37438710D01*
X32328414Y-37449500D01*
X28649500Y-37449500D01*
X28591309Y-37430593D01*
X28555345Y-37381093D01*
X28550500Y-37350500D01*
X28550500Y-32257486D01*
X28550526Y-32255203D01*
X28552025Y-32190245D01*
X28552023Y-32190240D01*
X28552024Y-32190238D01*
X28551335Y-32183871D01*
X28550500Y-32177527D01*
X28550500Y-32177525D01*
X28533671Y-32114722D01*
X28533123Y-32112579D01*
X28517750Y-32049406D01*
X28517749Y-32049404D01*
X28515447Y-32043463D01*
X28512984Y-32037516D01*
X28512984Y-32037515D01*
X28480464Y-31981189D01*
X28479402Y-31979299D01*
X28448190Y-31922238D01*
X28444402Y-31917060D01*
X28440507Y-31911983D01*
X28394538Y-31866013D01*
X28392942Y-31864380D01*
X28348090Y-31817408D01*
X28343086Y-31813382D01*
X28338010Y-31809487D01*
X28281753Y-31777007D01*
X28279790Y-31775844D01*
X28224262Y-31742054D01*
X28218388Y-31739461D01*
X28212481Y-31737014D01*
X28149709Y-31720194D01*
X28147512Y-31719578D01*
X28085159Y-31701319D01*
X28078824Y-31700336D01*
X28072476Y-31699500D01*
X28072475Y-31699500D01*
X28072473Y-31699500D01*
X28007492Y-31699500D01*
X28005208Y-31699474D01*
X27675620Y-31691867D01*
X27617881Y-31671622D01*
X27595589Y-31647895D01*
X27525298Y-31542696D01*
X27377304Y-31394702D01*
X27299202Y-31342516D01*
X27261322Y-31294466D01*
X27255204Y-31259716D01*
X27273966Y-27424904D01*
X27297331Y-22649015D01*
X27316523Y-22590918D01*
X27366198Y-22555197D01*
X27396330Y-22550500D01*
X31265747Y-22550500D01*
X31323938Y-22569407D01*
G37*
%TD.AperFunction*%
%TD*%
M02*
