%TF.GenerationSoftware,KiCad,Pcbnew,10.0.5*%
%TF.CreationDate,2026-08-31T10:59:38+07:00*%
%TF.ProjectId,vsmart-module-esp32-s3-mini,76736d61-7274-42d6-9d6f-64756c652d65,rev?*%
%TF.SameCoordinates,Original*%
%TF.FileFunction,Copper,L1,Top*%
%TF.FilePolarity,Positive*%
%FSLAX46Y46*%
G04 Gerber Fmt 4.6, Leading zero omitted, Abs format (unit mm)*
G04 Created by KiCad (PCBNEW 10.0.5) date 2026-08-31 10:59:38*
%MOMM*%
%LPD*%
G01*
G04 APERTURE LIST*
G04 Aperture macros list*
%AMRoundRect*
0 Rectangle with rounded corners*
0 $1 Rounding radius*
0 $2 $3 $4 $5 $6 $7 $8 $9 X,Y pos of 4 corners*
0 Add a 4 corners polygon primitive as box body*
4,1,4,$2,$3,$4,$5,$6,$7,$8,$9,$2,$3,0*
0 Add four circle primitives for the rounded corners*
1,1,$1+$1,$2,$3*
1,1,$1+$1,$4,$5*
1,1,$1+$1,$6,$7*
1,1,$1+$1,$8,$9*
0 Add four rect primitives between the rounded corners*
20,1,$1+$1,$2,$3,$4,$5,0*
20,1,$1+$1,$4,$5,$6,$7,0*
20,1,$1+$1,$6,$7,$8,$9,0*
20,1,$1+$1,$8,$9,$2,$3,0*%
G04 Aperture macros list end*
%TA.AperFunction,ComponentPad*%
%ADD10RoundRect,0.250000X-1.125000X-1.125000X1.125000X-1.125000X1.125000X1.125000X-1.125000X1.125000X0*%
%TD*%
%TA.AperFunction,ComponentPad*%
%ADD11C,2.750000*%
%TD*%
%TA.AperFunction,ComponentPad*%
%ADD12RoundRect,0.250000X-0.550000X-0.550000X0.550000X-0.550000X0.550000X0.550000X-0.550000X0.550000X0*%
%TD*%
%TA.AperFunction,ComponentPad*%
%ADD13C,1.600000*%
%TD*%
%TA.AperFunction,ComponentPad*%
%ADD14C,1.800000*%
%TD*%
%TA.AperFunction,ComponentPad*%
%ADD15R,1.800000X1.800000*%
%TD*%
%TA.AperFunction,ComponentPad*%
%ADD16RoundRect,0.250000X-0.750000X-0.750000X0.750000X-0.750000X0.750000X0.750000X-0.750000X0.750000X0*%
%TD*%
%TA.AperFunction,ComponentPad*%
%ADD17C,2.000000*%
%TD*%
%TA.AperFunction,ComponentPad*%
%ADD18C,1.524000*%
%TD*%
%TA.AperFunction,ComponentPad*%
%ADD19O,1.800000X1.800000*%
%TD*%
%TA.AperFunction,ComponentPad*%
%ADD20RoundRect,0.250000X1.125000X-1.125000X1.125000X1.125000X-1.125000X1.125000X-1.125000X-1.125000X0*%
%TD*%
%TA.AperFunction,ComponentPad*%
%ADD21R,1.700000X1.700000*%
%TD*%
%TA.AperFunction,ComponentPad*%
%ADD22O,1.700000X1.700000*%
%TD*%
%TA.AperFunction,ViaPad*%
%ADD23C,0.600000*%
%TD*%
%TA.AperFunction,Conductor*%
%ADD24C,0.200000*%
%TD*%
%TA.AperFunction,Conductor*%
%ADD25C,1.000000*%
%TD*%
%TA.AperFunction,Conductor*%
%ADD26C,0.400000*%
%TD*%
%TA.AperFunction,Conductor*%
%ADD27C,0.300000*%
%TD*%
%TA.AperFunction,Conductor*%
%ADD28C,0.250000*%
%TD*%
G04 APERTURE END LIST*
D10*
%TO.P,J2,1*%
%TO.N,+5V_SIM*%
X50500000Y-78500000D03*
D11*
%TO.P,J2,2*%
%TO.N,GND*%
X55900000Y-78500000D03*
%TD*%
D12*
%TO.P,C3,1*%
%TO.N,+5V*%
X52500000Y-42000000D03*
D13*
%TO.P,C3,2*%
%TO.N,GND*%
X56000000Y-42000000D03*
%TD*%
D14*
%TO.P,U1,1*%
%TO.N,N/C*%
X30380000Y-64420000D03*
%TO.P,U1,2*%
X30380000Y-66960000D03*
%TO.P,U1,3*%
X30380000Y-69500000D03*
%TO.P,U1,3V3*%
%TO.N,+3V3*%
X45620000Y-64420000D03*
%TO.P,U1,4*%
%TO.N,N/C*%
X30380000Y-72040000D03*
%TO.P,U1,5*%
X30380000Y-74580000D03*
D15*
%TO.P,U1,5V*%
%TO.N,+5V*%
X45620000Y-59340000D03*
D14*
%TO.P,U1,6*%
%TO.N,SIM_RX*%
X30380000Y-77120000D03*
%TO.P,U1,7*%
%TO.N,SIM_TX*%
X30380000Y-79660000D03*
%TO.P,U1,8*%
%TO.N,I2C_SDA*%
X45620000Y-79660000D03*
%TO.P,U1,9*%
%TO.N,I2C_SCL*%
X45620000Y-77120000D03*
%TO.P,U1,10*%
%TO.N,MPU_INT*%
X45620000Y-74580000D03*
%TO.P,U1,11*%
%TO.N,SIM_DTR*%
X45620000Y-72040000D03*
%TO.P,U1,12*%
%TO.N,SIM_RST*%
X45620000Y-69500000D03*
%TO.P,U1,13*%
%TO.N,SIM_RI*%
X45620000Y-66960000D03*
%TO.P,U1,GND*%
%TO.N,GND*%
X45620000Y-61880000D03*
%TO.P,U1,RX*%
%TO.N,GPS_RX*%
X30380000Y-61880000D03*
%TO.P,U1,TX*%
%TO.N,GPS_TX*%
X30380000Y-59340000D03*
%TD*%
D16*
%TO.P,C1,1*%
%TO.N,+5V_SIM*%
X51000000Y-66000000D03*
D17*
%TO.P,C1,2*%
%TO.N,GND*%
X56000000Y-66000000D03*
%TD*%
D18*
%TO.P,U2,1*%
%TO.N,+3V3*%
X26700000Y-32220000D03*
%TO.P,U2,2*%
%TO.N,GND*%
X26700000Y-34760000D03*
%TO.P,U2,3*%
%TO.N,I2C_SCL*%
X26700000Y-37300000D03*
%TO.P,U2,4*%
%TO.N,I2C_SDA*%
X26700000Y-39840000D03*
%TO.P,U2,5*%
%TO.N,N/C*%
X26700000Y-42380000D03*
%TO.P,U2,6*%
X26700000Y-44920000D03*
%TO.P,U2,7*%
%TO.N,GND*%
X26700000Y-47460000D03*
%TO.P,U2,8*%
%TO.N,MPU_INT*%
X26700000Y-50000000D03*
%TD*%
D15*
%TO.P,U3,1*%
%TO.N,+3V3*%
X83500000Y-38690000D03*
D19*
%TO.P,U3,2*%
%TO.N,GPS_TX*%
X83500000Y-41230000D03*
%TO.P,U3,3*%
%TO.N,GPS_RX*%
X83500000Y-43770000D03*
%TO.P,U3,4*%
%TO.N,GND*%
X83500000Y-46310000D03*
%TD*%
D20*
%TO.P,J1,1*%
%TO.N,+5V*%
X53500000Y-30000000D03*
D11*
%TO.P,J1,2*%
%TO.N,GND*%
X53500000Y-24600000D03*
%TD*%
D21*
%TO.P,U4,1*%
%TO.N,SIM_RI*%
X61126400Y-59666000D03*
D22*
%TO.P,U4,2*%
%TO.N,SIM_DTR*%
X61126400Y-62206000D03*
%TO.P,U4,3*%
%TO.N,N/C*%
X61126400Y-64746000D03*
%TO.P,U4,4*%
X61126400Y-67286000D03*
%TO.P,U4,5*%
X61126400Y-69826000D03*
%TO.P,U4,6*%
X61126400Y-72366000D03*
D21*
%TO.P,U4,7*%
X83200000Y-57142000D03*
D22*
%TO.P,U4,8*%
%TO.N,+5V_SIM*%
X83200000Y-59682000D03*
%TO.P,U4,9*%
%TO.N,SIM_RST*%
X83200000Y-62222000D03*
%TO.P,U4,10*%
%TO.N,SIM_TX*%
X83200000Y-64762000D03*
%TO.P,U4,11*%
%TO.N,SIM_RX*%
X83200000Y-67302000D03*
%TO.P,U4,12*%
%TO.N,GND*%
X83200000Y-69842000D03*
%TD*%
D23*
%TO.N,+3V3*%
X31000000Y-40000000D03*
%TO.N,SIM_RX*%
X49179500Y-71918100D03*
%TO.N,SIM_TX*%
X49040800Y-68796000D03*
%TO.N,I2C_SCL*%
X48400000Y-77120000D03*
%TO.N,MPU_INT*%
X44000000Y-74100000D03*
X44000000Y-72500000D03*
%TO.N,GPS_RX*%
X32200000Y-60610000D03*
X76000000Y-57800000D03*
X76000000Y-60000000D03*
X33800000Y-60610000D03*
%TD*%
%TO.N,+5V_SIM*%
D24*
X83200000Y-59682000D02*
X82048300Y-59682000D01*
X56166300Y-60833700D02*
X51000000Y-66000000D01*
X82048300Y-59682000D02*
X80896600Y-60833700D01*
X80896600Y-60833700D02*
X56166300Y-60833700D01*
%TO.N,+5V*%
D25*
X45620000Y-56000000D02*
X45620000Y-59340000D01*
X52500000Y-56000000D02*
X45620000Y-56000000D01*
X51000000Y-32500000D02*
X51000000Y-42000000D01*
X51000000Y-42000000D02*
X52500000Y-42000000D01*
X51000000Y-30000000D02*
X51000000Y-32500000D01*
X52500000Y-42000000D02*
X52500000Y-56000000D01*
X53500000Y-30000000D02*
X51000000Y-30000000D01*
%TO.N,+3V3*%
D26*
X45620000Y-64420000D02*
X43000000Y-64420000D01*
X29000000Y-40000000D02*
X31000000Y-40000000D01*
D27*
X43000000Y-65690000D02*
X29000000Y-65690000D01*
D26*
X29000000Y-32220000D02*
X26700000Y-32220000D01*
X43000000Y-64420000D02*
X43000000Y-65690000D01*
X29000000Y-65690000D02*
X29000000Y-32220000D01*
%TO.N,SIM_RX*%
D24*
X50001600Y-71096000D02*
X78254300Y-71096000D01*
X83200000Y-67302000D02*
X82048300Y-67302000D01*
X78254300Y-71096000D02*
X82048300Y-67302000D01*
X49179500Y-71918100D02*
X50001600Y-71096000D01*
%TO.N,SIM_TX*%
X49040800Y-68796000D02*
X49383100Y-68453700D01*
X49383100Y-68453700D02*
X78356600Y-68453700D01*
X83200000Y-64762000D02*
X82048300Y-64762000D01*
X78356600Y-68453700D02*
X82048300Y-64762000D01*
%TO.N,I2C_SDA*%
D28*
X47400000Y-75870000D02*
X27800000Y-75870000D01*
X27800000Y-39840000D02*
X26700000Y-39840000D01*
X27800000Y-75870000D02*
X27800000Y-39840000D01*
X45620000Y-79660000D02*
X47400000Y-79660000D01*
X47400000Y-79660000D02*
X47400000Y-75870000D01*
%TO.N,I2C_SCL*%
X28400000Y-70770000D02*
X28400000Y-37300000D01*
X28400000Y-37300000D02*
X26700000Y-37300000D01*
X48400000Y-77120000D02*
X48400000Y-70770000D01*
X48400000Y-70770000D02*
X28400000Y-70770000D01*
%TO.N,MPU_INT*%
X44000000Y-74100000D02*
X44000000Y-72500000D01*
%TO.N,SIM_RST*%
D24*
X47631200Y-67488800D02*
X45620000Y-69500000D01*
X83200000Y-62222000D02*
X82048300Y-62222000D01*
X78156600Y-66113700D02*
X60565800Y-66113700D01*
X59190700Y-67488800D02*
X47631200Y-67488800D01*
X60565800Y-66113700D02*
X59190700Y-67488800D01*
X82048300Y-62222000D02*
X78156600Y-66113700D01*
%TO.N,SIM_RI*%
X61126400Y-59666000D02*
X52914000Y-59666000D01*
X52914000Y-59666000D02*
X45620000Y-66960000D01*
%TO.N,GPS_RX*%
D28*
X76000000Y-60000000D02*
X76000000Y-57800000D01*
X32200000Y-60610000D02*
X33800000Y-60610000D01*
%TD*%
%TA.AperFunction,Conductor*%
%TO.N,GND*%
G36*
X91002992Y-20500681D02*
G01*
X91295309Y-20518362D01*
X91307164Y-20519802D01*
X91592280Y-20572051D01*
X91603882Y-20574911D01*
X91880623Y-20661147D01*
X91891786Y-20665380D01*
X92152200Y-20782583D01*
X92156118Y-20784347D01*
X92166690Y-20789895D01*
X92414770Y-20939864D01*
X92424583Y-20946638D01*
X92652755Y-21125400D01*
X92661704Y-21133327D01*
X92866672Y-21338295D01*
X92874599Y-21347244D01*
X93053356Y-21575409D01*
X93060138Y-21585233D01*
X93210100Y-21833303D01*
X93215652Y-21843881D01*
X93334616Y-22108206D01*
X93338855Y-22119384D01*
X93425087Y-22396114D01*
X93427948Y-22407722D01*
X93480196Y-22692828D01*
X93481637Y-22704695D01*
X93499319Y-22997006D01*
X93499500Y-23002984D01*
X93499500Y-78997015D01*
X93499319Y-79002993D01*
X93481637Y-79295304D01*
X93480196Y-79307171D01*
X93427948Y-79592277D01*
X93425087Y-79603885D01*
X93338855Y-79880615D01*
X93334616Y-79891793D01*
X93215652Y-80156118D01*
X93210096Y-80166703D01*
X93060142Y-80414758D01*
X93053356Y-80424590D01*
X92874599Y-80652755D01*
X92866672Y-80661704D01*
X92661704Y-80866672D01*
X92652755Y-80874599D01*
X92424590Y-81053356D01*
X92414758Y-81060142D01*
X92177212Y-81203744D01*
X92166703Y-81210097D01*
X92156118Y-81215652D01*
X91891793Y-81334616D01*
X91880615Y-81338855D01*
X91603885Y-81425087D01*
X91592277Y-81427948D01*
X91307171Y-81480196D01*
X91295304Y-81481637D01*
X91023993Y-81498048D01*
X91002991Y-81499319D01*
X90997015Y-81499500D01*
X44599000Y-81499500D01*
X44540809Y-81480593D01*
X44504845Y-81431093D01*
X44500000Y-81400500D01*
X44500000Y-80465555D01*
X44518907Y-80407364D01*
X44568407Y-80371400D01*
X44629593Y-80371400D01*
X44679091Y-80407362D01*
X44704310Y-80442073D01*
X44837927Y-80575690D01*
X44990801Y-80686760D01*
X45159168Y-80772547D01*
X45338882Y-80830940D01*
X45338883Y-80830940D01*
X45338886Y-80830941D01*
X45525516Y-80860500D01*
X45525519Y-80860500D01*
X45714484Y-80860500D01*
X45901113Y-80830941D01*
X45901114Y-80830940D01*
X45901118Y-80830940D01*
X46080832Y-80772547D01*
X46249199Y-80686760D01*
X46402073Y-80575690D01*
X46535690Y-80442073D01*
X46646760Y-80289199D01*
X46723007Y-80139554D01*
X46766272Y-80096290D01*
X46811217Y-80085500D01*
X47456016Y-80085500D01*
X47456018Y-80085500D01*
X47564237Y-80056503D01*
X47564239Y-80056501D01*
X47564241Y-80056501D01*
X47593064Y-80039859D01*
X47661263Y-80000485D01*
X47740485Y-79921263D01*
X47796503Y-79824237D01*
X47825500Y-79716018D01*
X47825500Y-77633743D01*
X47844407Y-77575552D01*
X47893907Y-77539588D01*
X47955093Y-77539588D01*
X47994501Y-77563737D01*
X48031284Y-77600520D01*
X48168216Y-77679577D01*
X48320943Y-77720500D01*
X48320945Y-77720500D01*
X48479055Y-77720500D01*
X48479057Y-77720500D01*
X48631784Y-77679577D01*
X48676000Y-77654048D01*
X48735848Y-77641327D01*
X48791744Y-77666213D01*
X48822337Y-77719201D01*
X48824500Y-77739785D01*
X48824500Y-79668106D01*
X48835123Y-79756565D01*
X48890637Y-79897339D01*
X48890638Y-79897341D01*
X48890639Y-79897342D01*
X48982078Y-80017922D01*
X49102658Y-80109361D01*
X49102659Y-80109361D01*
X49102660Y-80109362D01*
X49131746Y-80120832D01*
X49243436Y-80164877D01*
X49331898Y-80175500D01*
X49331900Y-80175500D01*
X51668100Y-80175500D01*
X51668102Y-80175500D01*
X51756564Y-80164877D01*
X51897342Y-80109361D01*
X52017922Y-80017922D01*
X52109361Y-79897342D01*
X52164877Y-79756564D01*
X52175500Y-79668102D01*
X52175500Y-78377105D01*
X54025000Y-78377105D01*
X54025000Y-78622894D01*
X54057081Y-78866571D01*
X54057081Y-78866576D01*
X54120695Y-79103984D01*
X54120699Y-79103997D01*
X54214753Y-79331067D01*
X54214755Y-79331072D01*
X54337647Y-79543926D01*
X54409229Y-79637215D01*
X55127545Y-78918898D01*
X55220343Y-79057780D01*
X55342220Y-79179657D01*
X55481099Y-79272452D01*
X54762783Y-79990769D01*
X54856073Y-80062352D01*
X55068927Y-80185244D01*
X55068932Y-80185246D01*
X55296002Y-80279300D01*
X55296015Y-80279304D01*
X55533425Y-80342918D01*
X55777105Y-80374999D01*
X55777107Y-80375000D01*
X56022893Y-80375000D01*
X56022894Y-80374999D01*
X56266571Y-80342918D01*
X56266576Y-80342918D01*
X56503984Y-80279304D01*
X56503997Y-80279300D01*
X56731067Y-80185246D01*
X56731072Y-80185244D01*
X56943922Y-80062355D01*
X57037215Y-79990769D01*
X56318899Y-79272453D01*
X56457780Y-79179657D01*
X56579657Y-79057780D01*
X56672453Y-78918899D01*
X57390769Y-79637215D01*
X57462355Y-79543922D01*
X57585244Y-79331072D01*
X57585246Y-79331067D01*
X57679300Y-79103997D01*
X57679304Y-79103984D01*
X57742918Y-78866576D01*
X57742918Y-78866571D01*
X57774999Y-78622894D01*
X57775000Y-78622893D01*
X57775000Y-78377107D01*
X57774999Y-78377105D01*
X57742918Y-78133428D01*
X57742918Y-78133423D01*
X57679304Y-77896015D01*
X57679300Y-77896002D01*
X57585246Y-77668932D01*
X57585244Y-77668927D01*
X57462352Y-77456073D01*
X57390768Y-77362783D01*
X56672452Y-78081098D01*
X56579657Y-77942220D01*
X56457780Y-77820343D01*
X56318898Y-77727545D01*
X57037215Y-77009229D01*
X56943926Y-76937647D01*
X56731072Y-76814755D01*
X56731067Y-76814753D01*
X56503997Y-76720699D01*
X56503984Y-76720695D01*
X56266574Y-76657081D01*
X56022894Y-76625000D01*
X55777105Y-76625000D01*
X55533428Y-76657081D01*
X55533423Y-76657081D01*
X55296015Y-76720695D01*
X55296002Y-76720699D01*
X55068932Y-76814753D01*
X55068927Y-76814755D01*
X54856078Y-76937644D01*
X54762783Y-77009229D01*
X55481100Y-77727546D01*
X55342220Y-77820343D01*
X55220343Y-77942220D01*
X55127546Y-78081100D01*
X54409229Y-77362783D01*
X54337644Y-77456078D01*
X54214755Y-77668927D01*
X54214753Y-77668932D01*
X54120699Y-77896002D01*
X54120695Y-77896015D01*
X54057081Y-78133423D01*
X54057081Y-78133428D01*
X54025000Y-78377105D01*
X52175500Y-78377105D01*
X52175500Y-77331898D01*
X52164877Y-77243436D01*
X52116708Y-77121288D01*
X52109362Y-77102660D01*
X52109361Y-77102659D01*
X52109361Y-77102658D01*
X52017922Y-76982078D01*
X51897342Y-76890639D01*
X51897341Y-76890638D01*
X51897339Y-76890637D01*
X51756565Y-76835123D01*
X51668106Y-76824500D01*
X51668102Y-76824500D01*
X49331898Y-76824500D01*
X49331893Y-76824500D01*
X49243434Y-76835123D01*
X49102656Y-76890639D01*
X49093548Y-76897546D01*
X49035756Y-76917638D01*
X48977191Y-76899924D01*
X48947999Y-76868162D01*
X48880520Y-76751284D01*
X48880517Y-76751281D01*
X48854495Y-76725258D01*
X48826719Y-76670741D01*
X48825500Y-76655256D01*
X48825500Y-75667579D01*
X81599500Y-75667579D01*
X81599500Y-75864420D01*
X81630289Y-76058821D01*
X81691116Y-76246025D01*
X81771556Y-76403900D01*
X81780476Y-76421405D01*
X81896172Y-76580646D01*
X82035354Y-76719828D01*
X82194595Y-76835524D01*
X82369975Y-76924884D01*
X82557174Y-76985709D01*
X82557175Y-76985709D01*
X82557178Y-76985710D01*
X82751580Y-77016500D01*
X82751583Y-77016500D01*
X82948420Y-77016500D01*
X83142821Y-76985710D01*
X83142822Y-76985709D01*
X83142826Y-76985709D01*
X83330025Y-76924884D01*
X83420647Y-76878710D01*
X88149500Y-76878710D01*
X88149500Y-77121289D01*
X88181161Y-77361781D01*
X88181161Y-77361786D01*
X88243944Y-77596092D01*
X88243948Y-77596105D01*
X88336772Y-77820204D01*
X88336774Y-77820208D01*
X88336776Y-77820212D01*
X88458064Y-78030289D01*
X88458066Y-78030292D01*
X88605729Y-78222731D01*
X88605731Y-78222733D01*
X88605735Y-78222738D01*
X88777262Y-78394265D01*
X88777266Y-78394268D01*
X88777268Y-78394270D01*
X88969707Y-78541933D01*
X88969711Y-78541936D01*
X89179788Y-78663224D01*
X89403900Y-78756054D01*
X89638211Y-78818838D01*
X89878712Y-78850500D01*
X89878713Y-78850500D01*
X90121287Y-78850500D01*
X90121288Y-78850500D01*
X90361789Y-78818838D01*
X90596100Y-78756054D01*
X90820212Y-78663224D01*
X91030289Y-78541936D01*
X91222738Y-78394265D01*
X91394265Y-78222738D01*
X91541936Y-78030289D01*
X91663224Y-77820212D01*
X91756054Y-77596100D01*
X91818838Y-77361789D01*
X91850500Y-77121288D01*
X91850500Y-76878712D01*
X91818838Y-76638211D01*
X91756054Y-76403900D01*
X91678391Y-76216406D01*
X91663227Y-76179795D01*
X91663226Y-76179794D01*
X91663224Y-76179788D01*
X91541936Y-75969711D01*
X91461141Y-75864417D01*
X91394270Y-75777268D01*
X91394268Y-75777266D01*
X91394265Y-75777262D01*
X91222738Y-75605735D01*
X91222733Y-75605731D01*
X91222731Y-75605729D01*
X91030292Y-75458066D01*
X91006795Y-75444500D01*
X90820212Y-75336776D01*
X90820208Y-75336774D01*
X90820204Y-75336772D01*
X90596105Y-75243948D01*
X90596104Y-75243947D01*
X90596100Y-75243946D01*
X90361789Y-75181162D01*
X90361786Y-75181161D01*
X90361784Y-75181161D01*
X90121289Y-75149500D01*
X90121288Y-75149500D01*
X89878712Y-75149500D01*
X89878710Y-75149500D01*
X89638218Y-75181161D01*
X89638213Y-75181161D01*
X89403907Y-75243944D01*
X89403894Y-75243948D01*
X89179795Y-75336772D01*
X88969707Y-75458066D01*
X88777268Y-75605729D01*
X88605729Y-75777268D01*
X88458066Y-75969707D01*
X88336772Y-76179795D01*
X88243948Y-76403894D01*
X88243944Y-76403907D01*
X88181161Y-76638213D01*
X88181161Y-76638218D01*
X88149500Y-76878710D01*
X83420647Y-76878710D01*
X83505405Y-76835524D01*
X83664646Y-76719828D01*
X83803828Y-76580646D01*
X83919524Y-76421405D01*
X84008884Y-76246025D01*
X84069709Y-76058826D01*
X84073603Y-76034241D01*
X84100500Y-75864420D01*
X84100500Y-75667579D01*
X84069710Y-75473178D01*
X84038165Y-75376093D01*
X84008884Y-75285975D01*
X83919524Y-75110595D01*
X83803828Y-74951354D01*
X83664646Y-74812172D01*
X83505405Y-74696476D01*
X83505404Y-74696475D01*
X83505402Y-74696474D01*
X83330025Y-74607116D01*
X83142821Y-74546289D01*
X82948420Y-74515500D01*
X82948417Y-74515500D01*
X82751583Y-74515500D01*
X82751580Y-74515500D01*
X82557178Y-74546289D01*
X82369974Y-74607116D01*
X82194597Y-74696474D01*
X82035355Y-74812171D01*
X81896171Y-74951355D01*
X81780474Y-75110597D01*
X81691116Y-75285974D01*
X81630289Y-75473178D01*
X81599500Y-75667579D01*
X48825500Y-75667579D01*
X48825500Y-72573948D01*
X48844407Y-72515757D01*
X48893907Y-72479793D01*
X48950119Y-72478321D01*
X49100443Y-72518600D01*
X49100445Y-72518600D01*
X49258555Y-72518600D01*
X49258557Y-72518600D01*
X49411284Y-72477677D01*
X49548216Y-72398620D01*
X49660020Y-72286816D01*
X49739077Y-72149884D01*
X49780000Y-71997157D01*
X49780000Y-71925001D01*
X49798907Y-71866810D01*
X49808996Y-71854997D01*
X50138497Y-71525496D01*
X50193014Y-71497719D01*
X50208501Y-71496500D01*
X60141734Y-71496500D01*
X60199925Y-71515407D01*
X60235889Y-71564907D01*
X60235889Y-71626093D01*
X60221826Y-71653691D01*
X60142407Y-71763000D01*
X60142403Y-71763006D01*
X60060188Y-71924362D01*
X60004228Y-72096593D01*
X59975900Y-72275450D01*
X59975900Y-72456549D01*
X60004228Y-72635406D01*
X60060188Y-72807637D01*
X60119343Y-72923736D01*
X60142404Y-72968994D01*
X60248847Y-73115501D01*
X60376899Y-73243553D01*
X60523406Y-73349996D01*
X60684761Y-73432211D01*
X60856991Y-73488171D01*
X60928536Y-73499502D01*
X61035851Y-73516500D01*
X61035854Y-73516500D01*
X61216949Y-73516500D01*
X61306377Y-73502335D01*
X61395809Y-73488171D01*
X61568039Y-73432211D01*
X61729394Y-73349996D01*
X61875901Y-73243553D01*
X62003953Y-73115501D01*
X62110396Y-72968994D01*
X62192611Y-72807639D01*
X62248571Y-72635409D01*
X62273218Y-72479793D01*
X62276900Y-72456549D01*
X62276900Y-72275450D01*
X62248571Y-72096593D01*
X62248571Y-72096591D01*
X62192611Y-71924361D01*
X62110396Y-71763006D01*
X62030973Y-71653689D01*
X62012066Y-71595500D01*
X62030973Y-71537310D01*
X62080473Y-71501346D01*
X62111066Y-71496500D01*
X78307025Y-71496500D01*
X78307027Y-71496500D01*
X78408888Y-71469207D01*
X78408890Y-71469205D01*
X78408892Y-71469205D01*
X78500208Y-71416483D01*
X78500208Y-71416482D01*
X78500213Y-71416480D01*
X82050692Y-67865999D01*
X82105207Y-67838224D01*
X82165639Y-67847795D01*
X82208903Y-67891059D01*
X82216000Y-67904988D01*
X82216001Y-67904990D01*
X82216002Y-67904991D01*
X82216004Y-67904994D01*
X82322447Y-68051501D01*
X82450499Y-68179553D01*
X82597006Y-68285996D01*
X82758361Y-68368211D01*
X82769483Y-68371824D01*
X82772983Y-68372962D01*
X82822483Y-68408926D01*
X82841391Y-68467116D01*
X82822484Y-68525307D01*
X82772985Y-68561271D01*
X82772984Y-68561272D01*
X82681784Y-68590904D01*
X82492447Y-68687375D01*
X82320535Y-68812277D01*
X82170277Y-68962535D01*
X82045375Y-69134447D01*
X81948904Y-69323784D01*
X81883241Y-69525877D01*
X81872768Y-69591999D01*
X81872769Y-69592000D01*
X82766988Y-69592000D01*
X82734075Y-69649007D01*
X82700000Y-69776174D01*
X82700000Y-69907826D01*
X82734075Y-70034993D01*
X82766988Y-70092000D01*
X81872769Y-70092000D01*
X81883241Y-70158122D01*
X81948904Y-70360215D01*
X82045375Y-70549552D01*
X82170277Y-70721464D01*
X82320535Y-70871722D01*
X82492447Y-70996624D01*
X82681784Y-71093095D01*
X82883877Y-71158758D01*
X82949999Y-71169231D01*
X82950000Y-71169230D01*
X82950000Y-70275012D01*
X83007007Y-70307925D01*
X83134174Y-70342000D01*
X83265826Y-70342000D01*
X83392993Y-70307925D01*
X83450000Y-70275012D01*
X83450000Y-71169231D01*
X83516122Y-71158758D01*
X83718215Y-71093095D01*
X83907552Y-70996624D01*
X84079464Y-70871722D01*
X84229722Y-70721464D01*
X84354624Y-70549552D01*
X84451095Y-70360215D01*
X84516758Y-70158122D01*
X84527231Y-70092000D01*
X83633012Y-70092000D01*
X83665925Y-70034993D01*
X83700000Y-69907826D01*
X83700000Y-69776174D01*
X83665925Y-69649007D01*
X83633012Y-69592000D01*
X84527231Y-69592000D01*
X84527231Y-69591999D01*
X84516758Y-69525877D01*
X84451095Y-69323784D01*
X84354624Y-69134447D01*
X84229722Y-68962535D01*
X84079464Y-68812277D01*
X83907552Y-68687375D01*
X83718215Y-68590904D01*
X83627015Y-68561272D01*
X83577515Y-68525308D01*
X83558608Y-68467117D01*
X83577515Y-68408926D01*
X83627013Y-68372962D01*
X83627017Y-68372962D01*
X83627018Y-68372962D01*
X83641633Y-68368213D01*
X83641633Y-68368212D01*
X83641639Y-68368211D01*
X83802994Y-68285996D01*
X83949501Y-68179553D01*
X84077553Y-68051501D01*
X84183996Y-67904994D01*
X84266211Y-67743639D01*
X84322171Y-67571409D01*
X84346020Y-67420832D01*
X84350500Y-67392549D01*
X84350500Y-67211450D01*
X84322171Y-67032593D01*
X84322171Y-67032591D01*
X84266211Y-66860361D01*
X84183996Y-66699006D01*
X84077553Y-66552499D01*
X83949501Y-66424447D01*
X83802994Y-66318004D01*
X83802993Y-66318003D01*
X83802991Y-66318002D01*
X83641637Y-66235788D01*
X83469406Y-66179828D01*
X83290549Y-66151500D01*
X83290546Y-66151500D01*
X83109454Y-66151500D01*
X83109451Y-66151500D01*
X82930593Y-66179828D01*
X82758362Y-66235788D01*
X82597008Y-66318002D01*
X82551244Y-66351252D01*
X82450499Y-66424447D01*
X82322447Y-66552499D01*
X82305523Y-66575793D01*
X82216002Y-66699008D01*
X82177129Y-66775301D01*
X82140369Y-66847446D01*
X82097106Y-66890710D01*
X82052161Y-66901500D01*
X81995573Y-66901500D01*
X81933229Y-66918204D01*
X81893707Y-66928794D01*
X81802391Y-66981516D01*
X78117403Y-70666504D01*
X78062886Y-70694281D01*
X78047399Y-70695500D01*
X62111066Y-70695500D01*
X62052875Y-70676593D01*
X62016911Y-70627093D01*
X62016911Y-70565907D01*
X62030974Y-70538309D01*
X62052460Y-70508737D01*
X62110396Y-70428994D01*
X62192611Y-70267639D01*
X62248571Y-70095409D01*
X62276900Y-69916546D01*
X62276900Y-69735454D01*
X62276900Y-69735450D01*
X62248571Y-69556593D01*
X62248571Y-69556591D01*
X62192611Y-69384361D01*
X62110396Y-69223006D01*
X62003953Y-69076499D01*
X61950655Y-69023201D01*
X61922880Y-68968687D01*
X61932451Y-68908255D01*
X61975716Y-68864990D01*
X62020661Y-68854200D01*
X78409325Y-68854200D01*
X78409327Y-68854200D01*
X78511188Y-68826907D01*
X78511190Y-68826905D01*
X78511192Y-68826905D01*
X78602508Y-68774183D01*
X78602508Y-68774182D01*
X78602513Y-68774180D01*
X82050692Y-65325999D01*
X82105207Y-65298224D01*
X82165639Y-65307795D01*
X82208903Y-65351059D01*
X82216000Y-65364988D01*
X82216001Y-65364990D01*
X82216002Y-65364991D01*
X82216004Y-65364994D01*
X82322447Y-65511501D01*
X82450499Y-65639553D01*
X82597006Y-65745996D01*
X82758361Y-65828211D01*
X82930591Y-65884171D01*
X83002136Y-65895502D01*
X83109451Y-65912500D01*
X83109454Y-65912500D01*
X83290549Y-65912500D01*
X83379977Y-65898335D01*
X83469409Y-65884171D01*
X83641639Y-65828211D01*
X83802994Y-65745996D01*
X83949501Y-65639553D01*
X84077553Y-65511501D01*
X84183996Y-65364994D01*
X84266211Y-65203639D01*
X84322171Y-65031409D01*
X84349782Y-64857081D01*
X84350500Y-64852549D01*
X84350500Y-64671450D01*
X84322171Y-64492593D01*
X84322171Y-64492591D01*
X84266211Y-64320361D01*
X84183996Y-64159006D01*
X84077553Y-64012499D01*
X83949501Y-63884447D01*
X83802994Y-63778004D01*
X83802993Y-63778003D01*
X83802991Y-63778002D01*
X83641637Y-63695788D01*
X83469406Y-63639828D01*
X83290549Y-63611500D01*
X83290546Y-63611500D01*
X83109454Y-63611500D01*
X83109451Y-63611500D01*
X82930593Y-63639828D01*
X82758362Y-63695788D01*
X82597008Y-63778002D01*
X82523752Y-63831225D01*
X82450499Y-63884447D01*
X82322447Y-64012499D01*
X82317361Y-64019500D01*
X82216002Y-64159008D01*
X82181456Y-64226809D01*
X82140369Y-64307446D01*
X82097106Y-64350710D01*
X82052161Y-64361500D01*
X81995573Y-64361500D01*
X81933229Y-64378204D01*
X81893707Y-64388794D01*
X81802391Y-64441516D01*
X78219703Y-68024204D01*
X78165186Y-68051981D01*
X78149699Y-68053200D01*
X62185392Y-68053200D01*
X62127201Y-68034293D01*
X62091237Y-67984793D01*
X62091237Y-67923607D01*
X62105299Y-67896010D01*
X62106955Y-67893729D01*
X62110396Y-67888994D01*
X62192611Y-67727639D01*
X62248571Y-67555409D01*
X62262735Y-67465977D01*
X62276900Y-67376549D01*
X62276900Y-67195450D01*
X62248571Y-67016593D01*
X62248571Y-67016591D01*
X62192611Y-66844361D01*
X62110396Y-66683006D01*
X62101957Y-66671390D01*
X62083050Y-66613199D01*
X62101958Y-66555008D01*
X62151458Y-66519045D01*
X62182050Y-66514200D01*
X78209325Y-66514200D01*
X78209327Y-66514200D01*
X78311188Y-66486907D01*
X78311190Y-66486905D01*
X78311192Y-66486905D01*
X78402508Y-66434183D01*
X78402508Y-66434182D01*
X78402513Y-66434180D01*
X82050692Y-62785999D01*
X82105207Y-62758224D01*
X82165639Y-62767795D01*
X82208903Y-62811059D01*
X82216000Y-62824988D01*
X82216001Y-62824990D01*
X82216002Y-62824991D01*
X82216004Y-62824994D01*
X82322447Y-62971501D01*
X82450499Y-63099553D01*
X82597006Y-63205996D01*
X82758361Y-63288211D01*
X82930591Y-63344171D01*
X83002136Y-63355502D01*
X83109451Y-63372500D01*
X83109454Y-63372500D01*
X83290549Y-63372500D01*
X83391566Y-63356500D01*
X83469409Y-63344171D01*
X83641639Y-63288211D01*
X83802994Y-63205996D01*
X83949501Y-63099553D01*
X84077553Y-62971501D01*
X84183996Y-62824994D01*
X84266211Y-62663639D01*
X84322171Y-62491409D01*
X84350500Y-62312546D01*
X84350500Y-62131454D01*
X84350500Y-62131450D01*
X84322171Y-61952593D01*
X84322171Y-61952591D01*
X84266211Y-61780361D01*
X84183996Y-61619006D01*
X84077553Y-61472499D01*
X83949501Y-61344447D01*
X83802994Y-61238004D01*
X83802993Y-61238003D01*
X83802991Y-61238002D01*
X83641637Y-61155788D01*
X83469406Y-61099828D01*
X83290549Y-61071500D01*
X83290546Y-61071500D01*
X83109454Y-61071500D01*
X83109451Y-61071500D01*
X82930593Y-61099828D01*
X82758362Y-61155788D01*
X82597008Y-61238002D01*
X82576218Y-61253107D01*
X82450499Y-61344447D01*
X82322447Y-61472499D01*
X82269225Y-61545752D01*
X82216002Y-61619008D01*
X82177129Y-61695301D01*
X82140369Y-61767446D01*
X82097106Y-61810710D01*
X82052161Y-61821500D01*
X81995573Y-61821500D01*
X81933229Y-61838204D01*
X81893707Y-61848794D01*
X81802391Y-61901516D01*
X78019703Y-65684204D01*
X77965186Y-65711981D01*
X77949699Y-65713200D01*
X62025261Y-65713200D01*
X61967070Y-65694293D01*
X61931106Y-65644793D01*
X61931106Y-65583607D01*
X61955255Y-65544198D01*
X62003953Y-65495501D01*
X62110396Y-65348994D01*
X62192611Y-65187639D01*
X62248571Y-65015409D01*
X62273649Y-64857075D01*
X62276900Y-64836549D01*
X62276900Y-64655450D01*
X62254572Y-64514481D01*
X62248571Y-64476591D01*
X62192611Y-64304361D01*
X62110396Y-64143006D01*
X62003953Y-63996499D01*
X61875901Y-63868447D01*
X61729394Y-63762004D01*
X61729393Y-63762003D01*
X61729391Y-63762002D01*
X61568037Y-63679788D01*
X61395806Y-63623828D01*
X61216949Y-63595500D01*
X61216946Y-63595500D01*
X61035854Y-63595500D01*
X61035851Y-63595500D01*
X60856993Y-63623828D01*
X60684762Y-63679788D01*
X60523408Y-63762002D01*
X60483770Y-63790801D01*
X60376899Y-63868447D01*
X60248847Y-63996499D01*
X60232139Y-64019496D01*
X60142402Y-64143008D01*
X60060188Y-64304362D01*
X60004228Y-64476593D01*
X59975900Y-64655450D01*
X59975900Y-64836549D01*
X60004228Y-65015406D01*
X60060188Y-65187637D01*
X60138939Y-65342195D01*
X60142404Y-65348994D01*
X60248847Y-65495501D01*
X60372366Y-65619020D01*
X60400142Y-65673535D01*
X60390571Y-65733967D01*
X60351863Y-65774757D01*
X60319891Y-65793216D01*
X59053803Y-67059304D01*
X58999286Y-67087081D01*
X58983799Y-67088300D01*
X57257704Y-67088300D01*
X57199513Y-67069393D01*
X57163549Y-67019893D01*
X57163549Y-66958707D01*
X57177611Y-66931109D01*
X57282916Y-66786168D01*
X57390105Y-66575796D01*
X57390107Y-66575793D01*
X57463064Y-66351256D01*
X57463065Y-66351252D01*
X57500000Y-66118056D01*
X57500000Y-65881943D01*
X57463065Y-65648747D01*
X57463064Y-65648743D01*
X57390107Y-65424206D01*
X57390105Y-65424203D01*
X57282915Y-65213829D01*
X57282913Y-65213825D01*
X57222659Y-65130893D01*
X56482962Y-65870590D01*
X56465925Y-65807007D01*
X56400099Y-65692993D01*
X56307007Y-65599901D01*
X56192993Y-65534075D01*
X56129407Y-65517036D01*
X56869105Y-64777339D01*
X56786169Y-64717084D01*
X56575796Y-64609894D01*
X56575793Y-64609892D01*
X56351256Y-64536935D01*
X56351252Y-64536934D01*
X56118056Y-64500000D01*
X55881944Y-64500000D01*
X55648747Y-64536934D01*
X55648743Y-64536935D01*
X55424206Y-64609892D01*
X55424203Y-64609894D01*
X55213823Y-64717088D01*
X55130893Y-64777339D01*
X55870591Y-65517037D01*
X55807007Y-65534075D01*
X55692993Y-65599901D01*
X55599901Y-65692993D01*
X55534075Y-65807007D01*
X55517037Y-65870591D01*
X54777339Y-65130893D01*
X54717088Y-65213823D01*
X54609894Y-65424203D01*
X54609892Y-65424206D01*
X54536935Y-65648743D01*
X54536934Y-65648747D01*
X54500000Y-65881943D01*
X54500000Y-66118056D01*
X54536934Y-66351252D01*
X54536935Y-66351256D01*
X54609892Y-66575793D01*
X54609894Y-66575796D01*
X54717083Y-66786168D01*
X54822389Y-66931109D01*
X54841296Y-66989300D01*
X54822389Y-67047491D01*
X54772889Y-67083455D01*
X54742296Y-67088300D01*
X52353811Y-67088300D01*
X52295620Y-67069393D01*
X52259656Y-67019893D01*
X52259656Y-66958707D01*
X52261706Y-66952998D01*
X52289877Y-66881564D01*
X52300500Y-66793102D01*
X52300500Y-65306900D01*
X52319407Y-65248709D01*
X52329496Y-65236896D01*
X56303196Y-61263196D01*
X56357713Y-61235419D01*
X56373200Y-61234200D01*
X60232139Y-61234200D01*
X60290330Y-61253107D01*
X60326294Y-61302607D01*
X60326294Y-61363793D01*
X60302144Y-61403201D01*
X60248847Y-61456499D01*
X60195625Y-61529752D01*
X60142402Y-61603008D01*
X60060188Y-61764362D01*
X60004228Y-61936593D01*
X59975900Y-62115450D01*
X59975900Y-62296549D01*
X60004228Y-62475406D01*
X60060188Y-62647637D01*
X60067542Y-62662071D01*
X60142404Y-62808994D01*
X60248847Y-62955501D01*
X60376899Y-63083553D01*
X60523406Y-63189996D01*
X60684761Y-63272211D01*
X60856991Y-63328171D01*
X60928536Y-63339502D01*
X61035851Y-63356500D01*
X61035854Y-63356500D01*
X61216949Y-63356500D01*
X61306377Y-63342335D01*
X61395809Y-63328171D01*
X61568039Y-63272211D01*
X61729394Y-63189996D01*
X61875901Y-63083553D01*
X62003953Y-62955501D01*
X62110396Y-62808994D01*
X62192611Y-62647639D01*
X62248571Y-62475409D01*
X62269886Y-62340832D01*
X62276900Y-62296549D01*
X62276900Y-62115450D01*
X62248571Y-61936593D01*
X62248571Y-61936591D01*
X62192611Y-61764361D01*
X62110396Y-61603006D01*
X62003953Y-61456499D01*
X61950655Y-61403201D01*
X61922880Y-61348687D01*
X61932451Y-61288255D01*
X61975716Y-61244990D01*
X62020661Y-61234200D01*
X80949325Y-61234200D01*
X80949327Y-61234200D01*
X81051188Y-61206907D01*
X81051190Y-61206905D01*
X81051192Y-61206905D01*
X81142508Y-61154183D01*
X81142508Y-61154182D01*
X81142513Y-61154180D01*
X82050690Y-60246000D01*
X82105207Y-60218223D01*
X82165639Y-60227794D01*
X82208904Y-60271059D01*
X82208904Y-60271060D01*
X82216001Y-60284989D01*
X82216001Y-60284990D01*
X82216002Y-60284991D01*
X82216004Y-60284994D01*
X82322447Y-60431501D01*
X82450499Y-60559553D01*
X82597006Y-60665996D01*
X82758361Y-60748211D01*
X82930591Y-60804171D01*
X83002136Y-60815502D01*
X83109451Y-60832500D01*
X83109454Y-60832500D01*
X83290549Y-60832500D01*
X83379977Y-60818335D01*
X83469409Y-60804171D01*
X83641639Y-60748211D01*
X83802994Y-60665996D01*
X83949501Y-60559553D01*
X84077553Y-60431501D01*
X84183996Y-60284994D01*
X84266211Y-60123639D01*
X84322171Y-59951409D01*
X84350500Y-59772546D01*
X84350500Y-59591454D01*
X84350500Y-59591450D01*
X84325638Y-59434481D01*
X84322171Y-59412591D01*
X84266211Y-59240361D01*
X84183996Y-59079006D01*
X84077553Y-58932499D01*
X83949501Y-58804447D01*
X83802994Y-58698004D01*
X83802993Y-58698003D01*
X83802991Y-58698002D01*
X83641637Y-58615788D01*
X83469406Y-58559828D01*
X83290549Y-58531500D01*
X83290546Y-58531500D01*
X83109454Y-58531500D01*
X83109451Y-58531500D01*
X82930593Y-58559828D01*
X82758362Y-58615788D01*
X82597008Y-58698002D01*
X82530932Y-58746009D01*
X82450499Y-58804447D01*
X82322447Y-58932499D01*
X82269225Y-59005752D01*
X82216002Y-59079008D01*
X82171423Y-59166500D01*
X82141774Y-59224691D01*
X82140371Y-59227444D01*
X82097106Y-59270709D01*
X82052161Y-59281499D01*
X81995573Y-59281499D01*
X81893712Y-59308793D01*
X81893711Y-59308793D01*
X81893709Y-59308794D01*
X81868182Y-59323532D01*
X81848050Y-59335156D01*
X81819100Y-59351870D01*
X81802386Y-59361520D01*
X81727819Y-59436086D01*
X81727820Y-59436087D01*
X80759703Y-60404204D01*
X80705186Y-60431981D01*
X80689699Y-60433200D01*
X76614762Y-60433200D01*
X76556571Y-60414293D01*
X76520607Y-60364793D01*
X76520607Y-60303607D01*
X76529026Y-60284700D01*
X76536901Y-60271060D01*
X76559577Y-60231784D01*
X76600500Y-60079057D01*
X76600500Y-59920943D01*
X76559577Y-59768216D01*
X76480520Y-59631284D01*
X76470349Y-59621113D01*
X76454495Y-59605258D01*
X76426719Y-59550741D01*
X76425500Y-59535256D01*
X76425500Y-58264743D01*
X76444407Y-58206552D01*
X76454490Y-58194745D01*
X76480520Y-58168716D01*
X76559577Y-58031784D01*
X76600500Y-57879057D01*
X76600500Y-57720943D01*
X76559577Y-57568216D01*
X76480520Y-57431284D01*
X76368716Y-57319480D01*
X76231784Y-57240423D01*
X76079057Y-57199500D01*
X75920943Y-57199500D01*
X75768216Y-57240423D01*
X75631284Y-57319480D01*
X75519480Y-57431284D01*
X75440423Y-57568216D01*
X75399500Y-57720943D01*
X75399500Y-57879057D01*
X75440423Y-58031784D01*
X75519480Y-58168716D01*
X75545505Y-58194741D01*
X75573281Y-58249256D01*
X75574500Y-58264743D01*
X75574500Y-59535256D01*
X75555593Y-59593447D01*
X75545505Y-59605258D01*
X75519482Y-59631281D01*
X75519480Y-59631283D01*
X75519480Y-59631284D01*
X75440423Y-59768216D01*
X75399500Y-59920943D01*
X75399500Y-60079057D01*
X75440423Y-60231784D01*
X75440424Y-60231785D01*
X75440424Y-60231786D01*
X75470974Y-60284700D01*
X75483696Y-60344548D01*
X75458810Y-60400444D01*
X75405822Y-60431037D01*
X75385238Y-60433200D01*
X62375900Y-60433200D01*
X62317709Y-60414293D01*
X62281745Y-60364793D01*
X62276900Y-60334200D01*
X62276899Y-58771139D01*
X62276899Y-58771136D01*
X62273985Y-58746009D01*
X62228606Y-58643235D01*
X62149165Y-58563794D01*
X62046391Y-58518415D01*
X62046390Y-58518414D01*
X62046388Y-58518414D01*
X62021268Y-58515500D01*
X60231539Y-58515500D01*
X60231536Y-58515501D01*
X60206409Y-58518414D01*
X60103635Y-58563794D01*
X60024194Y-58643235D01*
X59978814Y-58746011D01*
X59975900Y-58771130D01*
X59975900Y-59166500D01*
X59956993Y-59224691D01*
X59907493Y-59260655D01*
X59876900Y-59265500D01*
X52972806Y-59265500D01*
X52972790Y-59265499D01*
X52966727Y-59265499D01*
X52861273Y-59265499D01*
X52861270Y-59265499D01*
X52759413Y-59292792D01*
X52759409Y-59292794D01*
X52668087Y-59345519D01*
X52593519Y-59420086D01*
X52593520Y-59420087D01*
X52593518Y-59420089D01*
X46692291Y-65321314D01*
X46637774Y-65349091D01*
X46577342Y-65339520D01*
X46534077Y-65296255D01*
X46524506Y-65235823D01*
X46542195Y-65193119D01*
X46546177Y-65187639D01*
X46646760Y-65049199D01*
X46732547Y-64880832D01*
X46790940Y-64701118D01*
X46791196Y-64699500D01*
X46820500Y-64514484D01*
X46820500Y-64325515D01*
X46790941Y-64138886D01*
X46790940Y-64138882D01*
X46732547Y-63959168D01*
X46646760Y-63790801D01*
X46535690Y-63637927D01*
X46402073Y-63504310D01*
X46249199Y-63393240D01*
X46249198Y-63393239D01*
X46249196Y-63393238D01*
X46080832Y-63307453D01*
X45901113Y-63249058D01*
X45714484Y-63219500D01*
X45714481Y-63219500D01*
X45525519Y-63219500D01*
X45525516Y-63219500D01*
X45338886Y-63249058D01*
X45159167Y-63307453D01*
X44990803Y-63393238D01*
X44837928Y-63504309D01*
X44704309Y-63637928D01*
X44593238Y-63790803D01*
X44555207Y-63865445D01*
X44511942Y-63908710D01*
X44466997Y-63919500D01*
X43065892Y-63919500D01*
X42934108Y-63919500D01*
X42856200Y-63940375D01*
X42806809Y-63953609D01*
X42692690Y-64019496D01*
X42599496Y-64112690D01*
X42533609Y-64226809D01*
X42533608Y-64226814D01*
X42500411Y-64350710D01*
X42499500Y-64354109D01*
X42499500Y-65140500D01*
X42480593Y-65198691D01*
X42431093Y-65234655D01*
X42400500Y-65239500D01*
X31462797Y-65239500D01*
X31404606Y-65220593D01*
X31368642Y-65171093D01*
X31368642Y-65109907D01*
X31382704Y-65082310D01*
X31406758Y-65049202D01*
X31406760Y-65049199D01*
X31492547Y-64880832D01*
X31550940Y-64701118D01*
X31551196Y-64699500D01*
X31580500Y-64514484D01*
X31580500Y-64325515D01*
X31550941Y-64138886D01*
X31550940Y-64138882D01*
X31492547Y-63959168D01*
X31406760Y-63790801D01*
X31295690Y-63637927D01*
X31162073Y-63504310D01*
X31009199Y-63393240D01*
X31009198Y-63393239D01*
X31009196Y-63393238D01*
X30840832Y-63307453D01*
X30661113Y-63249058D01*
X30653046Y-63247781D01*
X30598529Y-63220004D01*
X30570751Y-63165488D01*
X30580322Y-63105056D01*
X30623586Y-63061791D01*
X30653046Y-63052219D01*
X30661113Y-63050941D01*
X30661114Y-63050940D01*
X30661118Y-63050940D01*
X30840832Y-62992547D01*
X31009199Y-62906760D01*
X31162073Y-62795690D01*
X31295690Y-62662073D01*
X31406760Y-62509199D01*
X31492547Y-62340832D01*
X31550940Y-62161118D01*
X31550941Y-62161113D01*
X31580500Y-61974484D01*
X31580500Y-61785515D01*
X31550941Y-61598886D01*
X31509875Y-61472499D01*
X31492547Y-61419168D01*
X31406760Y-61250801D01*
X31295690Y-61097927D01*
X31162073Y-60964310D01*
X31009199Y-60853240D01*
X31009198Y-60853239D01*
X31009196Y-60853238D01*
X30840832Y-60767453D01*
X30661113Y-60709058D01*
X30653046Y-60707781D01*
X30598529Y-60680004D01*
X30570751Y-60625488D01*
X30580322Y-60565056D01*
X30614434Y-60530943D01*
X31599500Y-60530943D01*
X31599500Y-60689057D01*
X31640423Y-60841784D01*
X31719480Y-60978716D01*
X31831284Y-61090520D01*
X31968216Y-61169577D01*
X32120943Y-61210500D01*
X32120945Y-61210500D01*
X32279055Y-61210500D01*
X32279057Y-61210500D01*
X32431784Y-61169577D01*
X32568716Y-61090520D01*
X32587736Y-61071500D01*
X32594742Y-61064495D01*
X32649259Y-61036719D01*
X32664744Y-61035500D01*
X33335256Y-61035500D01*
X33393447Y-61054407D01*
X33405258Y-61064495D01*
X33431281Y-61090517D01*
X33431284Y-61090520D01*
X33568216Y-61169577D01*
X33720943Y-61210500D01*
X33720945Y-61210500D01*
X33879055Y-61210500D01*
X33879057Y-61210500D01*
X34031784Y-61169577D01*
X34168716Y-61090520D01*
X34280520Y-60978716D01*
X34359577Y-60841784D01*
X34400500Y-60689057D01*
X34400500Y-60530943D01*
X34359577Y-60378216D01*
X34280520Y-60241284D01*
X34168716Y-60129480D01*
X34031784Y-60050423D01*
X33879057Y-60009500D01*
X33720943Y-60009500D01*
X33568216Y-60050423D01*
X33441405Y-60123637D01*
X33431281Y-60129482D01*
X33405258Y-60155505D01*
X33350741Y-60183281D01*
X33335256Y-60184500D01*
X32664744Y-60184500D01*
X32606553Y-60165593D01*
X32594742Y-60155505D01*
X32568718Y-60129482D01*
X32568716Y-60129480D01*
X32431784Y-60050423D01*
X32279057Y-60009500D01*
X32120943Y-60009500D01*
X31968216Y-60050423D01*
X31831284Y-60129480D01*
X31719480Y-60241284D01*
X31640423Y-60378216D01*
X31599500Y-60530943D01*
X30614434Y-60530943D01*
X30623586Y-60521791D01*
X30653046Y-60512219D01*
X30661113Y-60510941D01*
X30661114Y-60510940D01*
X30661118Y-60510940D01*
X30840832Y-60452547D01*
X30853857Y-60445910D01*
X30872824Y-60436247D01*
X30872829Y-60436244D01*
X30958895Y-60392391D01*
X31009199Y-60366760D01*
X31162073Y-60255690D01*
X31295690Y-60122073D01*
X31406760Y-59969199D01*
X31492547Y-59800832D01*
X31550940Y-59621118D01*
X31555323Y-59593447D01*
X31580500Y-59434484D01*
X31580500Y-59245515D01*
X31550941Y-59058886D01*
X31509875Y-58932499D01*
X31492547Y-58879168D01*
X31406760Y-58710801D01*
X31295690Y-58557927D01*
X31162073Y-58424310D01*
X31121910Y-58395130D01*
X44419500Y-58395130D01*
X44419500Y-60284860D01*
X44419500Y-60284862D01*
X44419501Y-60284864D01*
X44419516Y-60284990D01*
X44422414Y-60309990D01*
X44427281Y-60321012D01*
X44467794Y-60412765D01*
X44547235Y-60492206D01*
X44650009Y-60537585D01*
X44675135Y-60540500D01*
X46564864Y-60540499D01*
X46589991Y-60537585D01*
X46692765Y-60492206D01*
X46772206Y-60412765D01*
X46817585Y-60309991D01*
X46820500Y-60284865D01*
X46820499Y-58395136D01*
X46817585Y-58370009D01*
X46772206Y-58267235D01*
X46692765Y-58187794D01*
X46589991Y-58142415D01*
X46589990Y-58142414D01*
X46589988Y-58142414D01*
X46564869Y-58139500D01*
X46564865Y-58139500D01*
X46519500Y-58139500D01*
X46461309Y-58120593D01*
X46425345Y-58071093D01*
X46420500Y-58040500D01*
X46420500Y-56899500D01*
X46439407Y-56841309D01*
X46488907Y-56805345D01*
X46519500Y-56800500D01*
X52578841Y-56800500D01*
X52578842Y-56800500D01*
X52733497Y-56769737D01*
X52879179Y-56709394D01*
X53010289Y-56621789D01*
X53121789Y-56510289D01*
X53209394Y-56379179D01*
X53264090Y-56247130D01*
X82049500Y-56247130D01*
X82049500Y-58036860D01*
X82049501Y-58036863D01*
X82052414Y-58061990D01*
X82077756Y-58119385D01*
X82097794Y-58164765D01*
X82177235Y-58244206D01*
X82280009Y-58289585D01*
X82305135Y-58292500D01*
X84094864Y-58292499D01*
X84119991Y-58289585D01*
X84222765Y-58244206D01*
X84302206Y-58164765D01*
X84347585Y-58061991D01*
X84350500Y-58036865D01*
X84350499Y-56247136D01*
X84347585Y-56222009D01*
X84302206Y-56119235D01*
X84222765Y-56039794D01*
X84119991Y-55994415D01*
X84119990Y-55994414D01*
X84119988Y-55994414D01*
X84094868Y-55991500D01*
X82305139Y-55991500D01*
X82305136Y-55991501D01*
X82280009Y-55994414D01*
X82177235Y-56039794D01*
X82097794Y-56119235D01*
X82052414Y-56222011D01*
X82049500Y-56247130D01*
X53264090Y-56247130D01*
X53269737Y-56233497D01*
X53270116Y-56231589D01*
X53271436Y-56224959D01*
X53292465Y-56119235D01*
X53300500Y-56078842D01*
X53300500Y-46059999D01*
X82122144Y-46059999D01*
X82122145Y-46060000D01*
X83066988Y-46060000D01*
X83034075Y-46117007D01*
X83000000Y-46244174D01*
X83000000Y-46375826D01*
X83034075Y-46502993D01*
X83066988Y-46560000D01*
X82122144Y-46560000D01*
X82134471Y-46637829D01*
X82202569Y-46847413D01*
X82302611Y-47043757D01*
X82432139Y-47222037D01*
X82587962Y-47377860D01*
X82766242Y-47507388D01*
X82962586Y-47607430D01*
X83172169Y-47675528D01*
X83249999Y-47687854D01*
X83250000Y-47687853D01*
X83250000Y-46743012D01*
X83307007Y-46775925D01*
X83434174Y-46810000D01*
X83565826Y-46810000D01*
X83692993Y-46775925D01*
X83750000Y-46743012D01*
X83750000Y-47687854D01*
X83827830Y-47675528D01*
X84037413Y-47607430D01*
X84233757Y-47507388D01*
X84412037Y-47377860D01*
X84567860Y-47222037D01*
X84697388Y-47043757D01*
X84797430Y-46847413D01*
X84865528Y-46637829D01*
X84877855Y-46560000D01*
X83933012Y-46560000D01*
X83965925Y-46502993D01*
X84000000Y-46375826D01*
X84000000Y-46244174D01*
X83965925Y-46117007D01*
X83933012Y-46060000D01*
X84877855Y-46060000D01*
X84877855Y-46059999D01*
X84865528Y-45982170D01*
X84797430Y-45772586D01*
X84697388Y-45576242D01*
X84567860Y-45397962D01*
X84412037Y-45242139D01*
X84233757Y-45112611D01*
X84044653Y-45016258D01*
X84001388Y-44972993D01*
X83991817Y-44912561D01*
X84019594Y-44858044D01*
X84044653Y-44839838D01*
X84129199Y-44796760D01*
X84282073Y-44685690D01*
X84415690Y-44552073D01*
X84526760Y-44399199D01*
X84612547Y-44230832D01*
X84670940Y-44051118D01*
X84670941Y-44051113D01*
X84700500Y-43864484D01*
X84700500Y-43675515D01*
X84670941Y-43488886D01*
X84655869Y-43442499D01*
X84612547Y-43309168D01*
X84526760Y-43140801D01*
X84415690Y-42987927D01*
X84282073Y-42854310D01*
X84129199Y-42743240D01*
X84129198Y-42743239D01*
X84129196Y-42743238D01*
X83960832Y-42657453D01*
X83781113Y-42599058D01*
X83773046Y-42597781D01*
X83718529Y-42570004D01*
X83690751Y-42515488D01*
X83700322Y-42455056D01*
X83743586Y-42411791D01*
X83773046Y-42402219D01*
X83781113Y-42400941D01*
X83781114Y-42400940D01*
X83781118Y-42400940D01*
X83960832Y-42342547D01*
X84129199Y-42256760D01*
X84282073Y-42145690D01*
X84415690Y-42012073D01*
X84526760Y-41859199D01*
X84612547Y-41690832D01*
X84670940Y-41511118D01*
X84672547Y-41500972D01*
X84700500Y-41324484D01*
X84700500Y-41135515D01*
X84670941Y-40948886D01*
X84661726Y-40920524D01*
X84612547Y-40769168D01*
X84526760Y-40600801D01*
X84415690Y-40447927D01*
X84282073Y-40314310D01*
X84129199Y-40203240D01*
X84129198Y-40203239D01*
X84129196Y-40203238D01*
X83960832Y-40117453D01*
X83856810Y-40083654D01*
X83807310Y-40047690D01*
X83788403Y-39989499D01*
X83807310Y-39931308D01*
X83856811Y-39895344D01*
X83887401Y-39890499D01*
X84444864Y-39890499D01*
X84469991Y-39887585D01*
X84572765Y-39842206D01*
X84652206Y-39762765D01*
X84697585Y-39659991D01*
X84700500Y-39634865D01*
X84700499Y-37745136D01*
X84697585Y-37720009D01*
X84652206Y-37617235D01*
X84572765Y-37537794D01*
X84469991Y-37492415D01*
X84469990Y-37492414D01*
X84469988Y-37492414D01*
X84444868Y-37489500D01*
X82555139Y-37489500D01*
X82555136Y-37489501D01*
X82530009Y-37492414D01*
X82427235Y-37537794D01*
X82347794Y-37617235D01*
X82302414Y-37720011D01*
X82299500Y-37745130D01*
X82299500Y-39634860D01*
X82299501Y-39634863D01*
X82302414Y-39659990D01*
X82327756Y-39717385D01*
X82347794Y-39762765D01*
X82427235Y-39842206D01*
X82530009Y-39887585D01*
X82555135Y-39890500D01*
X83112597Y-39890499D01*
X83170786Y-39909406D01*
X83206750Y-39958906D01*
X83206750Y-40020092D01*
X83170786Y-40069592D01*
X83143188Y-40083653D01*
X83039174Y-40117449D01*
X83039171Y-40117451D01*
X82870803Y-40203238D01*
X82717928Y-40314309D01*
X82584309Y-40447928D01*
X82473238Y-40600803D01*
X82387453Y-40769167D01*
X82329058Y-40948886D01*
X82299500Y-41135515D01*
X82299500Y-41324484D01*
X82329058Y-41511113D01*
X82387453Y-41690832D01*
X82393499Y-41702699D01*
X82473240Y-41859199D01*
X82584310Y-42012073D01*
X82717927Y-42145690D01*
X82870801Y-42256760D01*
X83039168Y-42342547D01*
X83218882Y-42400940D01*
X83218883Y-42400940D01*
X83218886Y-42400941D01*
X83226954Y-42402219D01*
X83281471Y-42429996D01*
X83309248Y-42484513D01*
X83299677Y-42544945D01*
X83256412Y-42588210D01*
X83226954Y-42597781D01*
X83218886Y-42599058D01*
X83039167Y-42657453D01*
X82870803Y-42743238D01*
X82717928Y-42854309D01*
X82584309Y-42987928D01*
X82473238Y-43140803D01*
X82387453Y-43309167D01*
X82329058Y-43488886D01*
X82299500Y-43675515D01*
X82299500Y-43864484D01*
X82329058Y-44051113D01*
X82387453Y-44230832D01*
X82393499Y-44242699D01*
X82473240Y-44399199D01*
X82584310Y-44552073D01*
X82717927Y-44685690D01*
X82870801Y-44796760D01*
X82870803Y-44796761D01*
X82955346Y-44839838D01*
X82998611Y-44883103D01*
X83008182Y-44943535D01*
X82980404Y-44998052D01*
X82955346Y-45016258D01*
X82766242Y-45112611D01*
X82587962Y-45242139D01*
X82432139Y-45397962D01*
X82302611Y-45576242D01*
X82202569Y-45772586D01*
X82134471Y-45982170D01*
X82122144Y-46059999D01*
X53300500Y-46059999D01*
X53300500Y-43100096D01*
X53305039Y-43086125D01*
X53304738Y-43071439D01*
X53314256Y-43057757D01*
X53319407Y-43041905D01*
X53339681Y-43021212D01*
X53416631Y-42962859D01*
X53442922Y-42942922D01*
X53534361Y-42822342D01*
X53589877Y-42681564D01*
X53600500Y-42593102D01*
X53600500Y-41897684D01*
X54700000Y-41897684D01*
X54700000Y-42102315D01*
X54732008Y-42304412D01*
X54795243Y-42499027D01*
X54888139Y-42681348D01*
X54888143Y-42681353D01*
X54920523Y-42725920D01*
X54920524Y-42725920D01*
X55600000Y-42046444D01*
X55600000Y-42052661D01*
X55627259Y-42154394D01*
X55679920Y-42245606D01*
X55754394Y-42320080D01*
X55845606Y-42372741D01*
X55947339Y-42400000D01*
X55953553Y-42400000D01*
X55274078Y-43079475D01*
X55318647Y-43111858D01*
X55500972Y-43204756D01*
X55695587Y-43267991D01*
X55897685Y-43300000D01*
X56102315Y-43300000D01*
X56304412Y-43267991D01*
X56499027Y-43204756D01*
X56681342Y-43111863D01*
X56681350Y-43111858D01*
X56725920Y-43079475D01*
X56046445Y-42400000D01*
X56052661Y-42400000D01*
X56154394Y-42372741D01*
X56245606Y-42320080D01*
X56320080Y-42245606D01*
X56372741Y-42154394D01*
X56400000Y-42052661D01*
X56400000Y-42046445D01*
X57079475Y-42725920D01*
X57111858Y-42681350D01*
X57111863Y-42681342D01*
X57204756Y-42499027D01*
X57267991Y-42304412D01*
X57300000Y-42102315D01*
X57300000Y-41897684D01*
X57267991Y-41695587D01*
X57204756Y-41500972D01*
X57111858Y-41318647D01*
X57079475Y-41274078D01*
X56400000Y-41953553D01*
X56400000Y-41947339D01*
X56372741Y-41845606D01*
X56320080Y-41754394D01*
X56245606Y-41679920D01*
X56154394Y-41627259D01*
X56052661Y-41600000D01*
X56046445Y-41600000D01*
X56725920Y-40920524D01*
X56725920Y-40920523D01*
X56681353Y-40888143D01*
X56681348Y-40888139D01*
X56499027Y-40795243D01*
X56304412Y-40732008D01*
X56102315Y-40700000D01*
X55897685Y-40700000D01*
X55695587Y-40732008D01*
X55500972Y-40795243D01*
X55318651Y-40888139D01*
X55318647Y-40888141D01*
X55274078Y-40920523D01*
X55953555Y-41600000D01*
X55947339Y-41600000D01*
X55845606Y-41627259D01*
X55754394Y-41679920D01*
X55679920Y-41754394D01*
X55627259Y-41845606D01*
X55600000Y-41947339D01*
X55600000Y-41953555D01*
X54920523Y-41274078D01*
X54888141Y-41318647D01*
X54888139Y-41318651D01*
X54795243Y-41500972D01*
X54732008Y-41695587D01*
X54700000Y-41897684D01*
X53600500Y-41897684D01*
X53600500Y-41406898D01*
X53589877Y-41318436D01*
X53534361Y-41177658D01*
X53442922Y-41057078D01*
X53322342Y-40965639D01*
X53322341Y-40965638D01*
X53322339Y-40965637D01*
X53181565Y-40910123D01*
X53093106Y-40899500D01*
X53093102Y-40899500D01*
X51906898Y-40899500D01*
X51906891Y-40899500D01*
X51905400Y-40899589D01*
X51905058Y-40899500D01*
X51903939Y-40899500D01*
X51903939Y-40899208D01*
X51846186Y-40884183D01*
X51807336Y-40836914D01*
X51800500Y-40800765D01*
X51800500Y-31572869D01*
X51819407Y-31514678D01*
X51868907Y-31478714D01*
X51930093Y-31478714D01*
X51978384Y-31513051D01*
X51982078Y-31517922D01*
X52102658Y-31609361D01*
X52102659Y-31609361D01*
X52102660Y-31609362D01*
X52173047Y-31637119D01*
X52243436Y-31664877D01*
X52331898Y-31675500D01*
X52331900Y-31675500D01*
X54668100Y-31675500D01*
X54668102Y-31675500D01*
X54756564Y-31664877D01*
X54897342Y-31609361D01*
X55017922Y-31517922D01*
X55109361Y-31397342D01*
X55164877Y-31256564D01*
X55175500Y-31168102D01*
X55175500Y-28831898D01*
X55164877Y-28743436D01*
X55109361Y-28602658D01*
X55017922Y-28482078D01*
X54897342Y-28390639D01*
X54897341Y-28390638D01*
X54897339Y-28390637D01*
X54756565Y-28335123D01*
X54668106Y-28324500D01*
X54668102Y-28324500D01*
X52331898Y-28324500D01*
X52331893Y-28324500D01*
X52243434Y-28335123D01*
X52102660Y-28390637D01*
X52102656Y-28390640D01*
X51982081Y-28482075D01*
X51982075Y-28482081D01*
X51890640Y-28602656D01*
X51890637Y-28602660D01*
X51835123Y-28743434D01*
X51824500Y-28831893D01*
X51824500Y-29100500D01*
X51805593Y-29158691D01*
X51756093Y-29194655D01*
X51725500Y-29199500D01*
X50921155Y-29199500D01*
X50766503Y-29230263D01*
X50766501Y-29230263D01*
X50620825Y-29290603D01*
X50620814Y-29290609D01*
X50489711Y-29378211D01*
X50489707Y-29378214D01*
X50378214Y-29489707D01*
X50378211Y-29489711D01*
X50290609Y-29620814D01*
X50290603Y-29620825D01*
X50230263Y-29766501D01*
X50230263Y-29766503D01*
X50199500Y-29921155D01*
X50199500Y-42078844D01*
X50230263Y-42233496D01*
X50230263Y-42233498D01*
X50290603Y-42379174D01*
X50290609Y-42379185D01*
X50341305Y-42455056D01*
X50378211Y-42510289D01*
X50489711Y-42621789D01*
X50543086Y-42657453D01*
X50620814Y-42709390D01*
X50620825Y-42709396D01*
X50674638Y-42731685D01*
X50766503Y-42769737D01*
X50921158Y-42800500D01*
X51399904Y-42800500D01*
X51458095Y-42819407D01*
X51478786Y-42839679D01*
X51557078Y-42942922D01*
X51616427Y-42987928D01*
X51660319Y-43021212D01*
X51695262Y-43071439D01*
X51699500Y-43100096D01*
X51699500Y-55100500D01*
X51680593Y-55158691D01*
X51631093Y-55194655D01*
X51600500Y-55199500D01*
X45541155Y-55199500D01*
X45386503Y-55230263D01*
X45386501Y-55230263D01*
X45240825Y-55290603D01*
X45240814Y-55290609D01*
X45109711Y-55378211D01*
X45109707Y-55378214D01*
X44998214Y-55489707D01*
X44998211Y-55489711D01*
X44910609Y-55620814D01*
X44910603Y-55620825D01*
X44850263Y-55766501D01*
X44850263Y-55766503D01*
X44819500Y-55921155D01*
X44819500Y-58040500D01*
X44800593Y-58098691D01*
X44751093Y-58134655D01*
X44720502Y-58139500D01*
X44675139Y-58139500D01*
X44675135Y-58139501D01*
X44650009Y-58142414D01*
X44547235Y-58187794D01*
X44467794Y-58267235D01*
X44422414Y-58370011D01*
X44419500Y-58395130D01*
X31121910Y-58395130D01*
X31009199Y-58313240D01*
X31009198Y-58313239D01*
X31009196Y-58313238D01*
X30840832Y-58227453D01*
X30661113Y-58169058D01*
X30474484Y-58139500D01*
X30474481Y-58139500D01*
X30285519Y-58139500D01*
X30285516Y-58139500D01*
X30098886Y-58169058D01*
X29919167Y-58227453D01*
X29750803Y-58313238D01*
X29657691Y-58380889D01*
X29599500Y-58399796D01*
X29541309Y-58380889D01*
X29505345Y-58331389D01*
X29500500Y-58300796D01*
X29500500Y-40599500D01*
X29519407Y-40541309D01*
X29568907Y-40505345D01*
X29599500Y-40500500D01*
X30639364Y-40500500D01*
X30688862Y-40513762D01*
X30768216Y-40559577D01*
X30920943Y-40600500D01*
X30920945Y-40600500D01*
X31079055Y-40600500D01*
X31079057Y-40600500D01*
X31231784Y-40559577D01*
X31368716Y-40480520D01*
X31480520Y-40368716D01*
X31559577Y-40231784D01*
X31600500Y-40079057D01*
X31600500Y-39920943D01*
X31559577Y-39768216D01*
X31480520Y-39631284D01*
X31368716Y-39519480D01*
X31231784Y-39440423D01*
X31079057Y-39399500D01*
X30920943Y-39399500D01*
X30768216Y-39440423D01*
X30688862Y-39486237D01*
X30639364Y-39499500D01*
X29599500Y-39499500D01*
X29541309Y-39480593D01*
X29505345Y-39431093D01*
X29500500Y-39400500D01*
X29500500Y-32154109D01*
X29500500Y-32154108D01*
X29466392Y-32026814D01*
X29466390Y-32026811D01*
X29466390Y-32026809D01*
X29400503Y-31912690D01*
X29400501Y-31912688D01*
X29400500Y-31912686D01*
X29307314Y-31819500D01*
X29307311Y-31819498D01*
X29307309Y-31819496D01*
X29193189Y-31753609D01*
X29193191Y-31753609D01*
X29143799Y-31740375D01*
X29065892Y-31719500D01*
X29065890Y-31719500D01*
X27696351Y-31719500D01*
X27638160Y-31700593D01*
X27614035Y-31675501D01*
X27525300Y-31542699D01*
X27525298Y-31542696D01*
X27377304Y-31394702D01*
X27203282Y-31278425D01*
X27203283Y-31278425D01*
X27203281Y-31278424D01*
X27009923Y-31198332D01*
X27009917Y-31198330D01*
X26804649Y-31157500D01*
X26804647Y-31157500D01*
X26595353Y-31157500D01*
X26595350Y-31157500D01*
X26390082Y-31198330D01*
X26390076Y-31198332D01*
X26196718Y-31278424D01*
X26022699Y-31394699D01*
X25874699Y-31542699D01*
X25758424Y-31716718D01*
X25678332Y-31910076D01*
X25678330Y-31910082D01*
X25637500Y-32115350D01*
X25637500Y-32324649D01*
X25678330Y-32529917D01*
X25678332Y-32529923D01*
X25758424Y-32723281D01*
X25769199Y-32739407D01*
X25874702Y-32897304D01*
X26022696Y-33045298D01*
X26196718Y-33161575D01*
X26390080Y-33241669D01*
X26595353Y-33282500D01*
X26595354Y-33282500D01*
X26804646Y-33282500D01*
X26804647Y-33282500D01*
X27009920Y-33241669D01*
X27203282Y-33161575D01*
X27377304Y-33045298D01*
X27525298Y-32897304D01*
X27614035Y-32764499D01*
X27662085Y-32726619D01*
X27696351Y-32720500D01*
X28400500Y-32720500D01*
X28458691Y-32739407D01*
X28494655Y-32788907D01*
X28499500Y-32819500D01*
X28499500Y-36775500D01*
X28480593Y-36833691D01*
X28431093Y-36869655D01*
X28400500Y-36874500D01*
X27739943Y-36874500D01*
X27681752Y-36855593D01*
X27648479Y-36813385D01*
X27641576Y-36796720D01*
X27627397Y-36775500D01*
X27525298Y-36622696D01*
X27377304Y-36474702D01*
X27203282Y-36358425D01*
X27203283Y-36358425D01*
X27203281Y-36358424D01*
X27009923Y-36278332D01*
X27009917Y-36278330D01*
X26804649Y-36237500D01*
X26804647Y-36237500D01*
X26595353Y-36237500D01*
X26595350Y-36237500D01*
X26390082Y-36278330D01*
X26390076Y-36278332D01*
X26196718Y-36358424D01*
X26022699Y-36474699D01*
X25874699Y-36622699D01*
X25758424Y-36796718D01*
X25678332Y-36990076D01*
X25678330Y-36990082D01*
X25637500Y-37195350D01*
X25637500Y-37404649D01*
X25678330Y-37609917D01*
X25678332Y-37609923D01*
X25758424Y-37803281D01*
X25758425Y-37803282D01*
X25874702Y-37977304D01*
X26022696Y-38125298D01*
X26196718Y-38241575D01*
X26390080Y-38321669D01*
X26595353Y-38362500D01*
X26595354Y-38362500D01*
X26804646Y-38362500D01*
X26804647Y-38362500D01*
X27009920Y-38321669D01*
X27203282Y-38241575D01*
X27377304Y-38125298D01*
X27525298Y-37977304D01*
X27641575Y-37803282D01*
X27648479Y-37786615D01*
X27688215Y-37740089D01*
X27739943Y-37725500D01*
X27875500Y-37725500D01*
X27933691Y-37744407D01*
X27969655Y-37793907D01*
X27974500Y-37824500D01*
X27974500Y-39317228D01*
X27955593Y-39375419D01*
X27906093Y-39411383D01*
X27862822Y-39412520D01*
X27862450Y-39415347D01*
X27856018Y-39414500D01*
X27856017Y-39414500D01*
X27739943Y-39414500D01*
X27681752Y-39395593D01*
X27648479Y-39353385D01*
X27641576Y-39336720D01*
X27525300Y-39162699D01*
X27525298Y-39162696D01*
X27377304Y-39014702D01*
X27203282Y-38898425D01*
X27203283Y-38898425D01*
X27203281Y-38898424D01*
X27009923Y-38818332D01*
X27009917Y-38818330D01*
X26804649Y-38777500D01*
X26804647Y-38777500D01*
X26595353Y-38777500D01*
X26595350Y-38777500D01*
X26390082Y-38818330D01*
X26390076Y-38818332D01*
X26196718Y-38898424D01*
X26022699Y-39014699D01*
X25874699Y-39162699D01*
X25758424Y-39336718D01*
X25678332Y-39530076D01*
X25678330Y-39530082D01*
X25637500Y-39735350D01*
X25637500Y-39944649D01*
X25678330Y-40149917D01*
X25678332Y-40149923D01*
X25758424Y-40343281D01*
X25850123Y-40480519D01*
X25874702Y-40517304D01*
X26022696Y-40665298D01*
X26196718Y-40781575D01*
X26390080Y-40861669D01*
X26595353Y-40902500D01*
X26595354Y-40902500D01*
X26804646Y-40902500D01*
X26804647Y-40902500D01*
X27009920Y-40861669D01*
X27203282Y-40781575D01*
X27220497Y-40770071D01*
X27279385Y-40753463D01*
X27336789Y-40774640D01*
X27370783Y-40825513D01*
X27374500Y-40852387D01*
X27374500Y-41367612D01*
X27355593Y-41425803D01*
X27306093Y-41461767D01*
X27244907Y-41461767D01*
X27220502Y-41449930D01*
X27203282Y-41438424D01*
X27009923Y-41358332D01*
X27009917Y-41358330D01*
X26804649Y-41317500D01*
X26804647Y-41317500D01*
X26595353Y-41317500D01*
X26595350Y-41317500D01*
X26390082Y-41358330D01*
X26390076Y-41358332D01*
X26196718Y-41438424D01*
X26022699Y-41554699D01*
X25874699Y-41702699D01*
X25758424Y-41876718D01*
X25678332Y-42070076D01*
X25678330Y-42070082D01*
X25637500Y-42275350D01*
X25637500Y-42484649D01*
X25678330Y-42689917D01*
X25678332Y-42689923D01*
X25758424Y-42883281D01*
X25865127Y-43042974D01*
X25874702Y-43057304D01*
X26022696Y-43205298D01*
X26196718Y-43321575D01*
X26390080Y-43401669D01*
X26595353Y-43442500D01*
X26595354Y-43442500D01*
X26804646Y-43442500D01*
X26804647Y-43442500D01*
X27009920Y-43401669D01*
X27203282Y-43321575D01*
X27220497Y-43310071D01*
X27279385Y-43293463D01*
X27336789Y-43314640D01*
X27370783Y-43365513D01*
X27374500Y-43392387D01*
X27374500Y-43907612D01*
X27355593Y-43965803D01*
X27306093Y-44001767D01*
X27244907Y-44001767D01*
X27220502Y-43989930D01*
X27203282Y-43978424D01*
X27009923Y-43898332D01*
X27009917Y-43898330D01*
X26804649Y-43857500D01*
X26804647Y-43857500D01*
X26595353Y-43857500D01*
X26595350Y-43857500D01*
X26390082Y-43898330D01*
X26390076Y-43898332D01*
X26196718Y-43978424D01*
X26022699Y-44094699D01*
X25874699Y-44242699D01*
X25758424Y-44416718D01*
X25678332Y-44610076D01*
X25678330Y-44610082D01*
X25637500Y-44815350D01*
X25637500Y-45024649D01*
X25678330Y-45229917D01*
X25678332Y-45229923D01*
X25758424Y-45423281D01*
X25758425Y-45423282D01*
X25874702Y-45597304D01*
X26022696Y-45745298D01*
X26196718Y-45861575D01*
X26390080Y-45941669D01*
X26595353Y-45982500D01*
X26595354Y-45982500D01*
X26804646Y-45982500D01*
X26804647Y-45982500D01*
X27009920Y-45941669D01*
X27203282Y-45861575D01*
X27220497Y-45850071D01*
X27279385Y-45833463D01*
X27336789Y-45854640D01*
X27370783Y-45905513D01*
X27374500Y-45932387D01*
X27374500Y-46225745D01*
X27355593Y-46283936D01*
X27306093Y-46319900D01*
X27244907Y-46319900D01*
X27230556Y-46313955D01*
X27184443Y-46290460D01*
X26995514Y-46229073D01*
X26799325Y-46198000D01*
X26600675Y-46198000D01*
X26404485Y-46229073D01*
X26215559Y-46290459D01*
X26038567Y-46380641D01*
X26001283Y-46407728D01*
X26672554Y-47079000D01*
X26649840Y-47079000D01*
X26552939Y-47104964D01*
X26466060Y-47155124D01*
X26395124Y-47226060D01*
X26344964Y-47312939D01*
X26319000Y-47409840D01*
X26319000Y-47432555D01*
X25647728Y-46761283D01*
X25620641Y-46798567D01*
X25530459Y-46975559D01*
X25469073Y-47164485D01*
X25438000Y-47360674D01*
X25438000Y-47559325D01*
X25469073Y-47755514D01*
X25530459Y-47944440D01*
X25620637Y-48121425D01*
X25647729Y-48158714D01*
X26319000Y-47487443D01*
X26319000Y-47510160D01*
X26344964Y-47607061D01*
X26395124Y-47693940D01*
X26466060Y-47764876D01*
X26552939Y-47815036D01*
X26649840Y-47841000D01*
X26672553Y-47841000D01*
X26001283Y-48512270D01*
X26038564Y-48539357D01*
X26038568Y-48539359D01*
X26215559Y-48629540D01*
X26404485Y-48690926D01*
X26600675Y-48722000D01*
X26799325Y-48722000D01*
X26995514Y-48690926D01*
X27184440Y-48629540D01*
X27230553Y-48606044D01*
X27290985Y-48596472D01*
X27345502Y-48624248D01*
X27373281Y-48678764D01*
X27374500Y-48694253D01*
X27374500Y-48987612D01*
X27355593Y-49045803D01*
X27306093Y-49081767D01*
X27244907Y-49081767D01*
X27220502Y-49069930D01*
X27203282Y-49058424D01*
X27009923Y-48978332D01*
X27009917Y-48978330D01*
X26804649Y-48937500D01*
X26804647Y-48937500D01*
X26595353Y-48937500D01*
X26595350Y-48937500D01*
X26390082Y-48978330D01*
X26390076Y-48978332D01*
X26196718Y-49058424D01*
X26022699Y-49174699D01*
X25874699Y-49322699D01*
X25758424Y-49496718D01*
X25678332Y-49690076D01*
X25678330Y-49690082D01*
X25637500Y-49895350D01*
X25637500Y-50104649D01*
X25678330Y-50309917D01*
X25678332Y-50309923D01*
X25758424Y-50503281D01*
X25758425Y-50503282D01*
X25874702Y-50677304D01*
X26022696Y-50825298D01*
X26196718Y-50941575D01*
X26390080Y-51021669D01*
X26595353Y-51062500D01*
X26595354Y-51062500D01*
X26804646Y-51062500D01*
X26804647Y-51062500D01*
X27009920Y-51021669D01*
X27203282Y-50941575D01*
X27220497Y-50930071D01*
X27279385Y-50913463D01*
X27336789Y-50934640D01*
X27370783Y-50985513D01*
X27374500Y-51012387D01*
X27374500Y-75926018D01*
X27400072Y-76021455D01*
X27403498Y-76034241D01*
X27459513Y-76131260D01*
X27459515Y-76131263D01*
X27538737Y-76210485D01*
X27538739Y-76210486D01*
X27635759Y-76266501D01*
X27635757Y-76266501D01*
X27635761Y-76266502D01*
X27635763Y-76266503D01*
X27743982Y-76295500D01*
X27856018Y-76295500D01*
X29300836Y-76295500D01*
X29359027Y-76314407D01*
X29394991Y-76363907D01*
X29394991Y-76425093D01*
X29380929Y-76452691D01*
X29353238Y-76490803D01*
X29267453Y-76659167D01*
X29209058Y-76838886D01*
X29179500Y-77025515D01*
X29179500Y-77214484D01*
X29209058Y-77401113D01*
X29267453Y-77580832D01*
X29340698Y-77724585D01*
X29353240Y-77749199D01*
X29464310Y-77902073D01*
X29597927Y-78035690D01*
X29750801Y-78146760D01*
X29919168Y-78232547D01*
X30098882Y-78290940D01*
X30098883Y-78290940D01*
X30098886Y-78290941D01*
X30106954Y-78292219D01*
X30161471Y-78319996D01*
X30189248Y-78374513D01*
X30179677Y-78434945D01*
X30136412Y-78478210D01*
X30106954Y-78487781D01*
X30098886Y-78489058D01*
X29919167Y-78547453D01*
X29750803Y-78633238D01*
X29597928Y-78744309D01*
X29464309Y-78877928D01*
X29353238Y-79030803D01*
X29267453Y-79199167D01*
X29209058Y-79378886D01*
X29179500Y-79565515D01*
X29179500Y-79754484D01*
X29209058Y-79941113D01*
X29267453Y-80120832D01*
X29295307Y-80175500D01*
X29353240Y-80289199D01*
X29464310Y-80442073D01*
X29597927Y-80575690D01*
X29750801Y-80686760D01*
X29919168Y-80772547D01*
X30098882Y-80830940D01*
X30098883Y-80830940D01*
X30098886Y-80830941D01*
X30285516Y-80860500D01*
X30285519Y-80860500D01*
X30474484Y-80860500D01*
X30661113Y-80830941D01*
X30661114Y-80830940D01*
X30661118Y-80830940D01*
X30840832Y-80772547D01*
X31009199Y-80686760D01*
X31162073Y-80575690D01*
X31295690Y-80442073D01*
X31320908Y-80407362D01*
X31370407Y-80371400D01*
X31431593Y-80371400D01*
X31481093Y-80407364D01*
X31500000Y-80465555D01*
X31500000Y-81400500D01*
X31481093Y-81458691D01*
X31431593Y-81494655D01*
X31401000Y-81499500D01*
X23002985Y-81499500D01*
X22997008Y-81499319D01*
X22973564Y-81497900D01*
X22704695Y-81481637D01*
X22692828Y-81480196D01*
X22407722Y-81427948D01*
X22396114Y-81425087D01*
X22119384Y-81338855D01*
X22108206Y-81334616D01*
X21843881Y-81215652D01*
X21833303Y-81210100D01*
X21585233Y-81060138D01*
X21575413Y-81053359D01*
X21347244Y-80874599D01*
X21338295Y-80866672D01*
X21133327Y-80661704D01*
X21125400Y-80652755D01*
X21065023Y-80575690D01*
X20946638Y-80424583D01*
X20939864Y-80414770D01*
X20789895Y-80166690D01*
X20784347Y-80156118D01*
X20752564Y-80085500D01*
X20665380Y-79891786D01*
X20661147Y-79880623D01*
X20574911Y-79603882D01*
X20572051Y-79592277D01*
X20519802Y-79307164D01*
X20518362Y-79295303D01*
X20514684Y-79234500D01*
X20500681Y-79002992D01*
X20500500Y-78997015D01*
X20500500Y-76878710D01*
X21649500Y-76878710D01*
X21649500Y-77121289D01*
X21681161Y-77361781D01*
X21681161Y-77361786D01*
X21743944Y-77596092D01*
X21743948Y-77596105D01*
X21836772Y-77820204D01*
X21836774Y-77820208D01*
X21836776Y-77820212D01*
X21958064Y-78030289D01*
X21958066Y-78030292D01*
X22105729Y-78222731D01*
X22105731Y-78222733D01*
X22105735Y-78222738D01*
X22277262Y-78394265D01*
X22277266Y-78394268D01*
X22277268Y-78394270D01*
X22469707Y-78541933D01*
X22469711Y-78541936D01*
X22679788Y-78663224D01*
X22903900Y-78756054D01*
X23138211Y-78818838D01*
X23378712Y-78850500D01*
X23378713Y-78850500D01*
X23621287Y-78850500D01*
X23621288Y-78850500D01*
X23861789Y-78818838D01*
X24096100Y-78756054D01*
X24320212Y-78663224D01*
X24530289Y-78541936D01*
X24722738Y-78394265D01*
X24894265Y-78222738D01*
X25041936Y-78030289D01*
X25163224Y-77820212D01*
X25256054Y-77596100D01*
X25318838Y-77361789D01*
X25350500Y-77121288D01*
X25350500Y-76878712D01*
X25318838Y-76638211D01*
X25256054Y-76403900D01*
X25178391Y-76216406D01*
X25163227Y-76179795D01*
X25163226Y-76179794D01*
X25163224Y-76179788D01*
X25041936Y-75969711D01*
X24961141Y-75864417D01*
X24894270Y-75777268D01*
X24894268Y-75777266D01*
X24894265Y-75777262D01*
X24722738Y-75605735D01*
X24722733Y-75605731D01*
X24722731Y-75605729D01*
X24530292Y-75458066D01*
X24506795Y-75444500D01*
X24320212Y-75336776D01*
X24320208Y-75336774D01*
X24320204Y-75336772D01*
X24096105Y-75243948D01*
X24096104Y-75243947D01*
X24096100Y-75243946D01*
X23861789Y-75181162D01*
X23861786Y-75181161D01*
X23861784Y-75181161D01*
X23621289Y-75149500D01*
X23621288Y-75149500D01*
X23378712Y-75149500D01*
X23378710Y-75149500D01*
X23138218Y-75181161D01*
X23138213Y-75181161D01*
X22903907Y-75243944D01*
X22903894Y-75243948D01*
X22679795Y-75336772D01*
X22469707Y-75458066D01*
X22277268Y-75605729D01*
X22105729Y-75777268D01*
X21958066Y-75969707D01*
X21836772Y-76179795D01*
X21743948Y-76403894D01*
X21743944Y-76403907D01*
X21681161Y-76638213D01*
X21681161Y-76638218D01*
X21649500Y-76878710D01*
X20500500Y-76878710D01*
X20500500Y-34660674D01*
X25438000Y-34660674D01*
X25438000Y-34859325D01*
X25469073Y-35055514D01*
X25530459Y-35244440D01*
X25620637Y-35421425D01*
X25647729Y-35458714D01*
X26319000Y-34787443D01*
X26319000Y-34810160D01*
X26344964Y-34907061D01*
X26395124Y-34993940D01*
X26466060Y-35064876D01*
X26552939Y-35115036D01*
X26649840Y-35141000D01*
X26672553Y-35141000D01*
X26001283Y-35812270D01*
X26038564Y-35839357D01*
X26038568Y-35839359D01*
X26215559Y-35929540D01*
X26404485Y-35990926D01*
X26600675Y-36022000D01*
X26799325Y-36022000D01*
X26995514Y-35990926D01*
X27184440Y-35929540D01*
X27361434Y-35839357D01*
X27398715Y-35812270D01*
X26727445Y-35141000D01*
X26750160Y-35141000D01*
X26847061Y-35115036D01*
X26933940Y-35064876D01*
X27004876Y-34993940D01*
X27055036Y-34907061D01*
X27081000Y-34810160D01*
X27081000Y-34787445D01*
X27752270Y-35458715D01*
X27779357Y-35421434D01*
X27869540Y-35244440D01*
X27930926Y-35055514D01*
X27962000Y-34859325D01*
X27962000Y-34660674D01*
X27930926Y-34464485D01*
X27869540Y-34275559D01*
X27779359Y-34098568D01*
X27779357Y-34098564D01*
X27752270Y-34061283D01*
X27081000Y-34732553D01*
X27081000Y-34709840D01*
X27055036Y-34612939D01*
X27004876Y-34526060D01*
X26933940Y-34455124D01*
X26847061Y-34404964D01*
X26750160Y-34379000D01*
X26727443Y-34379000D01*
X27398714Y-33707729D01*
X27361425Y-33680637D01*
X27184440Y-33590459D01*
X26995514Y-33529073D01*
X26799325Y-33498000D01*
X26600675Y-33498000D01*
X26404485Y-33529073D01*
X26215559Y-33590459D01*
X26038567Y-33680641D01*
X26001283Y-33707728D01*
X26672555Y-34379000D01*
X26649840Y-34379000D01*
X26552939Y-34404964D01*
X26466060Y-34455124D01*
X26395124Y-34526060D01*
X26344964Y-34612939D01*
X26319000Y-34709840D01*
X26319000Y-34732555D01*
X25647728Y-34061283D01*
X25620641Y-34098567D01*
X25530459Y-34275559D01*
X25469073Y-34464485D01*
X25438000Y-34660674D01*
X20500500Y-34660674D01*
X20500500Y-24878710D01*
X22149500Y-24878710D01*
X22149500Y-25121289D01*
X22181161Y-25361781D01*
X22181161Y-25361786D01*
X22243944Y-25596092D01*
X22243948Y-25596105D01*
X22336772Y-25820204D01*
X22336774Y-25820208D01*
X22336776Y-25820212D01*
X22458064Y-26030289D01*
X22458066Y-26030292D01*
X22605729Y-26222731D01*
X22605731Y-26222733D01*
X22605735Y-26222738D01*
X22777262Y-26394265D01*
X22777266Y-26394268D01*
X22777268Y-26394270D01*
X22840668Y-26442918D01*
X22969711Y-26541936D01*
X23179788Y-26663224D01*
X23403900Y-26756054D01*
X23638211Y-26818838D01*
X23878712Y-26850500D01*
X23878713Y-26850500D01*
X24121287Y-26850500D01*
X24121288Y-26850500D01*
X24361789Y-26818838D01*
X24596100Y-26756054D01*
X24820212Y-26663224D01*
X25030289Y-26541936D01*
X25222738Y-26394265D01*
X25394265Y-26222738D01*
X25541936Y-26030289D01*
X25663224Y-25820212D01*
X25756054Y-25596100D01*
X25818838Y-25361789D01*
X25850500Y-25121288D01*
X25850500Y-24878712D01*
X25818838Y-24638211D01*
X25775669Y-24477105D01*
X51625000Y-24477105D01*
X51625000Y-24722894D01*
X51657081Y-24966571D01*
X51657081Y-24966576D01*
X51720695Y-25203984D01*
X51720699Y-25203997D01*
X51814753Y-25431067D01*
X51814755Y-25431072D01*
X51937647Y-25643926D01*
X52009229Y-25737215D01*
X52727545Y-25018898D01*
X52820343Y-25157780D01*
X52942220Y-25279657D01*
X53081099Y-25372452D01*
X52362783Y-26090769D01*
X52456073Y-26162352D01*
X52668927Y-26285244D01*
X52668932Y-26285246D01*
X52896002Y-26379300D01*
X52896015Y-26379304D01*
X53133425Y-26442918D01*
X53377105Y-26474999D01*
X53377107Y-26475000D01*
X53622893Y-26475000D01*
X53622894Y-26474999D01*
X53866571Y-26442918D01*
X53866576Y-26442918D01*
X54103984Y-26379304D01*
X54103997Y-26379300D01*
X54331067Y-26285246D01*
X54331072Y-26285244D01*
X54543922Y-26162355D01*
X54637215Y-26090769D01*
X53918899Y-25372453D01*
X54057780Y-25279657D01*
X54179657Y-25157780D01*
X54272453Y-25018899D01*
X54990769Y-25737215D01*
X55062355Y-25643922D01*
X55185244Y-25431072D01*
X55185246Y-25431067D01*
X55279300Y-25203997D01*
X55279304Y-25203984D01*
X55342918Y-24966576D01*
X55342918Y-24966571D01*
X55354486Y-24878710D01*
X88149500Y-24878710D01*
X88149500Y-25121289D01*
X88181161Y-25361781D01*
X88181161Y-25361786D01*
X88243944Y-25596092D01*
X88243948Y-25596105D01*
X88336772Y-25820204D01*
X88336774Y-25820208D01*
X88336776Y-25820212D01*
X88458064Y-26030289D01*
X88458066Y-26030292D01*
X88605729Y-26222731D01*
X88605731Y-26222733D01*
X88605735Y-26222738D01*
X88777262Y-26394265D01*
X88777266Y-26394268D01*
X88777268Y-26394270D01*
X88840668Y-26442918D01*
X88969711Y-26541936D01*
X89179788Y-26663224D01*
X89403900Y-26756054D01*
X89638211Y-26818838D01*
X89878712Y-26850500D01*
X89878713Y-26850500D01*
X90121287Y-26850500D01*
X90121288Y-26850500D01*
X90361789Y-26818838D01*
X90596100Y-26756054D01*
X90820212Y-26663224D01*
X91030289Y-26541936D01*
X91222738Y-26394265D01*
X91394265Y-26222738D01*
X91541936Y-26030289D01*
X91663224Y-25820212D01*
X91756054Y-25596100D01*
X91818838Y-25361789D01*
X91850500Y-25121288D01*
X91850500Y-24878712D01*
X91818838Y-24638211D01*
X91756054Y-24403900D01*
X91663224Y-24179788D01*
X91541936Y-23969711D01*
X91394265Y-23777262D01*
X91222738Y-23605735D01*
X91222733Y-23605731D01*
X91222731Y-23605729D01*
X91030292Y-23458066D01*
X91030289Y-23458064D01*
X90820212Y-23336776D01*
X90820208Y-23336774D01*
X90820204Y-23336772D01*
X90596105Y-23243948D01*
X90596104Y-23243947D01*
X90596100Y-23243946D01*
X90361789Y-23181162D01*
X90361786Y-23181161D01*
X90361784Y-23181161D01*
X90121289Y-23149500D01*
X90121288Y-23149500D01*
X89878712Y-23149500D01*
X89878710Y-23149500D01*
X89638218Y-23181161D01*
X89638213Y-23181161D01*
X89403907Y-23243944D01*
X89403894Y-23243948D01*
X89179795Y-23336772D01*
X88969707Y-23458066D01*
X88777268Y-23605729D01*
X88605729Y-23777268D01*
X88458066Y-23969707D01*
X88336772Y-24179795D01*
X88243948Y-24403894D01*
X88243944Y-24403907D01*
X88181161Y-24638213D01*
X88181161Y-24638218D01*
X88149500Y-24878710D01*
X55354486Y-24878710D01*
X55356614Y-24862549D01*
X55374999Y-24722894D01*
X55375000Y-24722893D01*
X55375000Y-24477107D01*
X55374999Y-24477105D01*
X55342918Y-24233428D01*
X55342918Y-24233423D01*
X55279304Y-23996015D01*
X55279300Y-23996002D01*
X55185246Y-23768932D01*
X55185244Y-23768927D01*
X55062352Y-23556073D01*
X54990768Y-23462783D01*
X54272452Y-24181098D01*
X54179657Y-24042220D01*
X54057780Y-23920343D01*
X53918898Y-23827545D01*
X54637215Y-23109229D01*
X54543926Y-23037647D01*
X54331072Y-22914755D01*
X54331067Y-22914753D01*
X54103997Y-22820699D01*
X54103984Y-22820695D01*
X53866574Y-22757081D01*
X53622894Y-22725000D01*
X53377105Y-22725000D01*
X53133428Y-22757081D01*
X53133423Y-22757081D01*
X52896015Y-22820695D01*
X52896002Y-22820699D01*
X52668932Y-22914753D01*
X52668927Y-22914755D01*
X52456078Y-23037644D01*
X52362783Y-23109229D01*
X53081100Y-23827546D01*
X52942220Y-23920343D01*
X52820343Y-24042220D01*
X52727546Y-24181100D01*
X52009229Y-23462783D01*
X51937644Y-23556078D01*
X51814755Y-23768927D01*
X51814753Y-23768932D01*
X51720699Y-23996002D01*
X51720695Y-23996015D01*
X51657081Y-24233423D01*
X51657081Y-24233428D01*
X51625000Y-24477105D01*
X25775669Y-24477105D01*
X25756054Y-24403900D01*
X25663224Y-24179788D01*
X25541936Y-23969711D01*
X25394265Y-23777262D01*
X25222738Y-23605735D01*
X25222733Y-23605731D01*
X25222731Y-23605729D01*
X25030292Y-23458066D01*
X25030289Y-23458064D01*
X24820212Y-23336776D01*
X24820208Y-23336774D01*
X24820204Y-23336772D01*
X24596105Y-23243948D01*
X24596104Y-23243947D01*
X24596100Y-23243946D01*
X24596089Y-23243943D01*
X24593100Y-23243142D01*
X24593099Y-23243142D01*
X24361789Y-23181162D01*
X24361786Y-23181161D01*
X24361784Y-23181161D01*
X24121289Y-23149500D01*
X24121288Y-23149500D01*
X23878712Y-23149500D01*
X23878710Y-23149500D01*
X23638218Y-23181161D01*
X23638213Y-23181161D01*
X23403907Y-23243944D01*
X23403894Y-23243948D01*
X23179795Y-23336772D01*
X22969707Y-23458066D01*
X22777268Y-23605729D01*
X22605729Y-23777268D01*
X22458066Y-23969707D01*
X22336772Y-24179795D01*
X22243948Y-24403894D01*
X22243944Y-24403907D01*
X22181161Y-24638213D01*
X22181161Y-24638218D01*
X22149500Y-24878710D01*
X20500500Y-24878710D01*
X20500500Y-23002984D01*
X20500681Y-22997007D01*
X20510902Y-22828031D01*
X20518362Y-22704688D01*
X20519801Y-22692837D01*
X20572052Y-22407715D01*
X20574912Y-22396114D01*
X20661148Y-22119370D01*
X20665378Y-22108218D01*
X20784350Y-21843875D01*
X20789891Y-21833315D01*
X20939868Y-21585221D01*
X20946632Y-21575424D01*
X21125407Y-21347235D01*
X21133319Y-21338303D01*
X21338303Y-21133319D01*
X21347235Y-21125407D01*
X21575424Y-20946632D01*
X21585221Y-20939868D01*
X21833315Y-20789891D01*
X21843875Y-20784350D01*
X22108218Y-20665378D01*
X22119370Y-20661148D01*
X22396121Y-20574910D01*
X22407715Y-20572052D01*
X22692837Y-20519801D01*
X22704688Y-20518362D01*
X22997008Y-20500681D01*
X23002985Y-20500500D01*
X23065892Y-20500500D01*
X90934108Y-20500500D01*
X90997015Y-20500500D01*
X91002992Y-20500681D01*
G37*
%TD.AperFunction*%
%TD*%
M02*
