%TF.GenerationSoftware,KiCad,Pcbnew,10.0.5*%
%TF.CreationDate,2026-08-31T10:59:38+07:00*%
%TF.ProjectId,vsmart-module-esp32-s3-mini,76736d61-7274-42d6-9d6f-64756c652d65,rev?*%
%TF.SameCoordinates,Original*%
%TF.FileFunction,Copper,L2,Bot*%
%TF.FilePolarity,Positive*%
%FSLAX46Y46*%
G04 Gerber Fmt 4.6, Leading zero omitted, Abs format (unit mm)*
G04 Created by KiCad (PCBNEW 10.0.5) date 2026-08-31 10:59:38*
%MOMM*%
%LPD*%
G01*
G04 APERTURE LIST*
G04 Aperture macros list*
%AMRoundRect*
0 Rectangle with rounded corners*
0 $1 Rounding radius*
0 $2 $3 $4 $5 $6 $7 $8 $9 X,Y pos of 4 corners*
0 Add a 4 corners polygon primitive as box body*
4,1,4,$2,$3,$4,$5,$6,$7,$8,$9,$2,$3,0*
0 Add four circle primitives for the rounded corners*
1,1,$1+$1,$2,$3*
1,1,$1+$1,$4,$5*
1,1,$1+$1,$6,$7*
1,1,$1+$1,$8,$9*
0 Add four rect primitives between the rounded corners*
20,1,$1+$1,$2,$3,$4,$5,0*
20,1,$1+$1,$4,$5,$6,$7,0*
20,1,$1+$1,$6,$7,$8,$9,0*
20,1,$1+$1,$8,$9,$2,$3,0*%
G04 Aperture macros list end*
%TA.AperFunction,ComponentPad*%
%ADD10RoundRect,0.250000X-1.125000X-1.125000X1.125000X-1.125000X1.125000X1.125000X-1.125000X1.125000X0*%
%TD*%
%TA.AperFunction,ComponentPad*%
%ADD11C,2.750000*%
%TD*%
%TA.AperFunction,ComponentPad*%
%ADD12RoundRect,0.250000X-0.550000X-0.550000X0.550000X-0.550000X0.550000X0.550000X-0.550000X0.550000X0*%
%TD*%
%TA.AperFunction,ComponentPad*%
%ADD13C,1.600000*%
%TD*%
%TA.AperFunction,ComponentPad*%
%ADD14C,1.800000*%
%TD*%
%TA.AperFunction,ComponentPad*%
%ADD15R,1.800000X1.800000*%
%TD*%
%TA.AperFunction,ComponentPad*%
%ADD16RoundRect,0.250000X-0.750000X-0.750000X0.750000X-0.750000X0.750000X0.750000X-0.750000X0.750000X0*%
%TD*%
%TA.AperFunction,ComponentPad*%
%ADD17C,2.000000*%
%TD*%
%TA.AperFunction,ComponentPad*%
%ADD18C,1.524000*%
%TD*%
%TA.AperFunction,ComponentPad*%
%ADD19O,1.800000X1.800000*%
%TD*%
%TA.AperFunction,ComponentPad*%
%ADD20RoundRect,0.250000X1.125000X-1.125000X1.125000X1.125000X-1.125000X1.125000X-1.125000X-1.125000X0*%
%TD*%
%TA.AperFunction,ComponentPad*%
%ADD21R,1.700000X1.700000*%
%TD*%
%TA.AperFunction,ComponentPad*%
%ADD22O,1.700000X1.700000*%
%TD*%
%TA.AperFunction,ViaPad*%
%ADD23C,0.600000*%
%TD*%
%TA.AperFunction,Conductor*%
%ADD24C,0.200000*%
%TD*%
%TA.AperFunction,Conductor*%
%ADD25C,0.500000*%
%TD*%
%TA.AperFunction,Conductor*%
%ADD26C,0.250000*%
%TD*%
G04 APERTURE END LIST*
D10*
%TO.P,J2,1*%
%TO.N,+5V_SIM*%
X50500000Y-78500000D03*
D11*
%TO.P,J2,2*%
%TO.N,GND*%
X55900000Y-78500000D03*
%TD*%
D12*
%TO.P,C3,1*%
%TO.N,+5V*%
X52500000Y-42000000D03*
D13*
%TO.P,C3,2*%
%TO.N,GND*%
X56000000Y-42000000D03*
%TD*%
D14*
%TO.P,U1,1*%
%TO.N,N/C*%
X30380000Y-64420000D03*
%TO.P,U1,2*%
X30380000Y-66960000D03*
%TO.P,U1,3*%
X30380000Y-69500000D03*
%TO.P,U1,3V3*%
%TO.N,+3V3*%
X45620000Y-64420000D03*
%TO.P,U1,4*%
%TO.N,N/C*%
X30380000Y-72040000D03*
%TO.P,U1,5*%
X30380000Y-74580000D03*
D15*
%TO.P,U1,5V*%
%TO.N,+5V*%
X45620000Y-59340000D03*
D14*
%TO.P,U1,6*%
%TO.N,SIM_RX*%
X30380000Y-77120000D03*
%TO.P,U1,7*%
%TO.N,SIM_TX*%
X30380000Y-79660000D03*
%TO.P,U1,8*%
%TO.N,I2C_SDA*%
X45620000Y-79660000D03*
%TO.P,U1,9*%
%TO.N,I2C_SCL*%
X45620000Y-77120000D03*
%TO.P,U1,10*%
%TO.N,MPU_INT*%
X45620000Y-74580000D03*
%TO.P,U1,11*%
%TO.N,SIM_DTR*%
X45620000Y-72040000D03*
%TO.P,U1,12*%
%TO.N,SIM_RST*%
X45620000Y-69500000D03*
%TO.P,U1,13*%
%TO.N,SIM_RI*%
X45620000Y-66960000D03*
%TO.P,U1,GND*%
%TO.N,GND*%
X45620000Y-61880000D03*
%TO.P,U1,RX*%
%TO.N,GPS_RX*%
X30380000Y-61880000D03*
%TO.P,U1,TX*%
%TO.N,GPS_TX*%
X30380000Y-59340000D03*
%TD*%
D16*
%TO.P,C1,1*%
%TO.N,+5V_SIM*%
X51000000Y-66000000D03*
D17*
%TO.P,C1,2*%
%TO.N,GND*%
X56000000Y-66000000D03*
%TD*%
D18*
%TO.P,U2,1*%
%TO.N,+3V3*%
X26700000Y-32220000D03*
%TO.P,U2,2*%
%TO.N,GND*%
X26700000Y-34760000D03*
%TO.P,U2,3*%
%TO.N,I2C_SCL*%
X26700000Y-37300000D03*
%TO.P,U2,4*%
%TO.N,I2C_SDA*%
X26700000Y-39840000D03*
%TO.P,U2,5*%
%TO.N,N/C*%
X26700000Y-42380000D03*
%TO.P,U2,6*%
X26700000Y-44920000D03*
%TO.P,U2,7*%
%TO.N,GND*%
X26700000Y-47460000D03*
%TO.P,U2,8*%
%TO.N,MPU_INT*%
X26700000Y-50000000D03*
%TD*%
D15*
%TO.P,U3,1*%
%TO.N,+3V3*%
X83500000Y-38690000D03*
D19*
%TO.P,U3,2*%
%TO.N,GPS_TX*%
X83500000Y-41230000D03*
%TO.P,U3,3*%
%TO.N,GPS_RX*%
X83500000Y-43770000D03*
%TO.P,U3,4*%
%TO.N,GND*%
X83500000Y-46310000D03*
%TD*%
D20*
%TO.P,J1,1*%
%TO.N,+5V*%
X53500000Y-30000000D03*
D11*
%TO.P,J1,2*%
%TO.N,GND*%
X53500000Y-24600000D03*
%TD*%
D21*
%TO.P,U4,1*%
%TO.N,SIM_RI*%
X61126400Y-59666000D03*
D22*
%TO.P,U4,2*%
%TO.N,SIM_DTR*%
X61126400Y-62206000D03*
%TO.P,U4,3*%
%TO.N,N/C*%
X61126400Y-64746000D03*
%TO.P,U4,4*%
X61126400Y-67286000D03*
%TO.P,U4,5*%
X61126400Y-69826000D03*
%TO.P,U4,6*%
X61126400Y-72366000D03*
D21*
%TO.P,U4,7*%
X83200000Y-57142000D03*
D22*
%TO.P,U4,8*%
%TO.N,+5V_SIM*%
X83200000Y-59682000D03*
%TO.P,U4,9*%
%TO.N,SIM_RST*%
X83200000Y-62222000D03*
%TO.P,U4,10*%
%TO.N,SIM_TX*%
X83200000Y-64762000D03*
%TO.P,U4,11*%
%TO.N,SIM_RX*%
X83200000Y-67302000D03*
%TO.P,U4,12*%
%TO.N,GND*%
X83200000Y-69842000D03*
%TD*%
D23*
%TO.N,+3V3*%
X31000000Y-40000000D03*
%TO.N,SIM_RX*%
X49179500Y-71918100D03*
%TO.N,SIM_TX*%
X49040800Y-68796000D03*
%TO.N,I2C_SCL*%
X48400000Y-77120000D03*
%TO.N,MPU_INT*%
X44000000Y-74100000D03*
X44000000Y-72500000D03*
%TO.N,GPS_RX*%
X32200000Y-60610000D03*
X76000000Y-57800000D03*
X76000000Y-60000000D03*
X33800000Y-60610000D03*
%TD*%
%TO.N,+5V_SIM*%
D24*
X51000000Y-78000000D02*
X50500000Y-78500000D01*
X51000000Y-66000000D02*
X51000000Y-78000000D01*
%TO.N,+3V3*%
D25*
X80000000Y-38690000D02*
X83500000Y-38690000D01*
X80000000Y-40000000D02*
X80000000Y-38690000D01*
X31000000Y-40000000D02*
X80000000Y-40000000D01*
%TO.N,SIM_RX*%
D24*
X30380000Y-77120000D02*
X30380000Y-76932800D01*
X31531100Y-75781700D02*
X46117800Y-75781700D01*
X46117800Y-75781700D02*
X49179500Y-72720000D01*
X49179500Y-72720000D02*
X49179500Y-71918100D01*
X30380000Y-76932800D02*
X31531100Y-75781700D01*
%TO.N,SIM_TX*%
X29149200Y-78429200D02*
X29149200Y-74111300D01*
X29967400Y-73293100D02*
X46133100Y-73293100D01*
X29149200Y-74111300D02*
X29967400Y-73293100D01*
X49040800Y-70385400D02*
X49040800Y-68796000D01*
X30380000Y-79660000D02*
X29149200Y-78429200D01*
X46133100Y-73293100D02*
X49040800Y-70385400D01*
%TO.N,I2C_SCL*%
D26*
X45620000Y-77120000D02*
X48400000Y-77120000D01*
%TO.N,MPU_INT*%
X44000000Y-74580000D02*
X44000000Y-74100000D01*
X45620000Y-74580000D02*
X44000000Y-74580000D01*
X24000000Y-51000000D02*
X26700000Y-51000000D01*
X24000000Y-70770000D02*
X24000000Y-51000000D01*
X26700000Y-51000000D02*
X26700000Y-50000000D01*
X44000000Y-72500000D02*
X44000000Y-70770000D01*
X44000000Y-70770000D02*
X24000000Y-70770000D01*
%TO.N,SIM_DTR*%
D24*
X47156500Y-70503500D02*
X47156500Y-67540600D01*
X45620000Y-72040000D02*
X47156500Y-70503500D01*
X52491100Y-62206000D02*
X61126400Y-62206000D01*
X47156500Y-67540600D02*
X52491100Y-62206000D01*
%TO.N,GPS_RX*%
D26*
X70000000Y-60940000D02*
X70000000Y-60610000D01*
X30380000Y-61880000D02*
X30380000Y-60610000D01*
X52000000Y-60940000D02*
X70000000Y-60940000D01*
X76000000Y-57800000D02*
X76000000Y-43770000D01*
X70000000Y-60610000D02*
X76000000Y-60610000D01*
X30380000Y-60610000D02*
X32200000Y-60610000D01*
X76000000Y-60610000D02*
X76000000Y-60000000D01*
X76000000Y-43770000D02*
X83500000Y-43770000D01*
X52000000Y-60610000D02*
X52000000Y-60940000D01*
X33800000Y-60610000D02*
X52000000Y-60610000D01*
%TO.N,GPS_TX*%
X74000000Y-41230000D02*
X83500000Y-41230000D01*
X74000000Y-57000000D02*
X74000000Y-41230000D01*
X30380000Y-57000000D02*
X74000000Y-57000000D01*
X30380000Y-59340000D02*
X30380000Y-57000000D01*
%TD*%
%TA.AperFunction,Conductor*%
%TO.N,GND*%
G36*
X91002992Y-20500681D02*
G01*
X91295309Y-20518362D01*
X91307164Y-20519802D01*
X91592280Y-20572051D01*
X91603882Y-20574911D01*
X91880623Y-20661147D01*
X91891786Y-20665380D01*
X92152200Y-20782583D01*
X92156118Y-20784347D01*
X92166690Y-20789895D01*
X92414770Y-20939864D01*
X92424583Y-20946638D01*
X92652755Y-21125400D01*
X92661704Y-21133327D01*
X92866672Y-21338295D01*
X92874599Y-21347244D01*
X93053356Y-21575409D01*
X93060138Y-21585233D01*
X93210100Y-21833303D01*
X93215652Y-21843881D01*
X93334616Y-22108206D01*
X93338855Y-22119384D01*
X93425087Y-22396114D01*
X93427948Y-22407722D01*
X93480196Y-22692828D01*
X93481637Y-22704695D01*
X93499319Y-22997006D01*
X93499500Y-23002984D01*
X93499500Y-78997015D01*
X93499319Y-79002993D01*
X93481637Y-79295304D01*
X93480196Y-79307171D01*
X93427948Y-79592277D01*
X93425087Y-79603885D01*
X93338855Y-79880615D01*
X93334616Y-79891793D01*
X93215652Y-80156118D01*
X93210096Y-80166703D01*
X93060142Y-80414758D01*
X93053356Y-80424590D01*
X92874599Y-80652755D01*
X92866672Y-80661704D01*
X92661704Y-80866672D01*
X92652755Y-80874599D01*
X92424590Y-81053356D01*
X92414758Y-81060142D01*
X92177212Y-81203744D01*
X92166703Y-81210097D01*
X92156118Y-81215652D01*
X91891793Y-81334616D01*
X91880615Y-81338855D01*
X91603885Y-81425087D01*
X91592277Y-81427948D01*
X91307171Y-81480196D01*
X91295304Y-81481637D01*
X91023993Y-81498048D01*
X91002991Y-81499319D01*
X90997015Y-81499500D01*
X44599000Y-81499500D01*
X44540809Y-81480593D01*
X44504845Y-81431093D01*
X44500000Y-81400500D01*
X44500000Y-80465555D01*
X44518907Y-80407364D01*
X44568407Y-80371400D01*
X44629593Y-80371400D01*
X44679091Y-80407362D01*
X44704310Y-80442073D01*
X44837927Y-80575690D01*
X44990801Y-80686760D01*
X45159168Y-80772547D01*
X45338882Y-80830940D01*
X45338883Y-80830940D01*
X45338886Y-80830941D01*
X45525516Y-80860500D01*
X45525519Y-80860500D01*
X45714484Y-80860500D01*
X45901113Y-80830941D01*
X45901114Y-80830940D01*
X45901118Y-80830940D01*
X46080832Y-80772547D01*
X46249199Y-80686760D01*
X46402073Y-80575690D01*
X46535690Y-80442073D01*
X46646760Y-80289199D01*
X46732547Y-80120832D01*
X46790940Y-79941118D01*
X46797873Y-79897343D01*
X46820500Y-79754484D01*
X46820500Y-79565515D01*
X46790941Y-79378886D01*
X46790940Y-79378882D01*
X46732547Y-79199168D01*
X46646760Y-79030801D01*
X46535690Y-78877927D01*
X46402073Y-78744310D01*
X46249199Y-78633240D01*
X46249198Y-78633239D01*
X46249196Y-78633238D01*
X46080832Y-78547453D01*
X45901113Y-78489058D01*
X45893046Y-78487781D01*
X45838529Y-78460004D01*
X45810751Y-78405488D01*
X45820322Y-78345056D01*
X45863586Y-78301791D01*
X45893046Y-78292219D01*
X45901113Y-78290941D01*
X45901114Y-78290940D01*
X45901118Y-78290940D01*
X46080832Y-78232547D01*
X46249199Y-78146760D01*
X46402073Y-78035690D01*
X46535690Y-77902073D01*
X46646760Y-77749199D01*
X46723007Y-77599554D01*
X46766272Y-77556290D01*
X46811217Y-77545500D01*
X47935256Y-77545500D01*
X47993447Y-77564407D01*
X48005258Y-77574495D01*
X48026856Y-77596092D01*
X48031284Y-77600520D01*
X48168216Y-77679577D01*
X48320943Y-77720500D01*
X48320945Y-77720500D01*
X48479055Y-77720500D01*
X48479057Y-77720500D01*
X48631784Y-77679577D01*
X48676000Y-77654048D01*
X48735848Y-77641327D01*
X48791744Y-77666213D01*
X48822337Y-77719201D01*
X48824500Y-77739785D01*
X48824500Y-79668106D01*
X48835123Y-79756565D01*
X48890637Y-79897339D01*
X48890638Y-79897341D01*
X48890639Y-79897342D01*
X48982078Y-80017922D01*
X49102658Y-80109361D01*
X49102659Y-80109361D01*
X49102660Y-80109362D01*
X49131746Y-80120832D01*
X49243436Y-80164877D01*
X49331898Y-80175500D01*
X49331900Y-80175500D01*
X51668100Y-80175500D01*
X51668102Y-80175500D01*
X51756564Y-80164877D01*
X51897342Y-80109361D01*
X52017922Y-80017922D01*
X52109361Y-79897342D01*
X52164877Y-79756564D01*
X52175500Y-79668102D01*
X52175500Y-78377105D01*
X54025000Y-78377105D01*
X54025000Y-78622894D01*
X54057081Y-78866571D01*
X54057081Y-78866576D01*
X54120695Y-79103984D01*
X54120699Y-79103997D01*
X54214753Y-79331067D01*
X54214755Y-79331072D01*
X54337647Y-79543926D01*
X54409229Y-79637215D01*
X55127545Y-78918898D01*
X55220343Y-79057780D01*
X55342220Y-79179657D01*
X55481099Y-79272452D01*
X54762783Y-79990769D01*
X54856073Y-80062352D01*
X55068927Y-80185244D01*
X55068932Y-80185246D01*
X55296002Y-80279300D01*
X55296015Y-80279304D01*
X55533425Y-80342918D01*
X55777105Y-80374999D01*
X55777107Y-80375000D01*
X56022893Y-80375000D01*
X56022894Y-80374999D01*
X56266571Y-80342918D01*
X56266576Y-80342918D01*
X56503984Y-80279304D01*
X56503997Y-80279300D01*
X56731067Y-80185246D01*
X56731072Y-80185244D01*
X56943922Y-80062355D01*
X57037215Y-79990769D01*
X56318899Y-79272453D01*
X56457780Y-79179657D01*
X56579657Y-79057780D01*
X56672453Y-78918899D01*
X57390769Y-79637215D01*
X57462355Y-79543922D01*
X57585244Y-79331072D01*
X57585246Y-79331067D01*
X57679300Y-79103997D01*
X57679304Y-79103984D01*
X57742918Y-78866576D01*
X57742918Y-78866571D01*
X57774999Y-78622894D01*
X57775000Y-78622893D01*
X57775000Y-78377107D01*
X57774999Y-78377105D01*
X57742918Y-78133428D01*
X57742918Y-78133423D01*
X57679304Y-77896015D01*
X57679300Y-77896002D01*
X57585246Y-77668932D01*
X57585244Y-77668927D01*
X57462352Y-77456073D01*
X57390768Y-77362783D01*
X56672452Y-78081098D01*
X56579657Y-77942220D01*
X56457780Y-77820343D01*
X56318898Y-77727545D01*
X57037215Y-77009229D01*
X56943926Y-76937647D01*
X56731072Y-76814755D01*
X56731067Y-76814753D01*
X56503997Y-76720699D01*
X56503984Y-76720695D01*
X56266574Y-76657081D01*
X56022894Y-76625000D01*
X55777105Y-76625000D01*
X55533428Y-76657081D01*
X55533423Y-76657081D01*
X55296015Y-76720695D01*
X55296002Y-76720699D01*
X55068932Y-76814753D01*
X55068927Y-76814755D01*
X54856078Y-76937644D01*
X54762783Y-77009229D01*
X55481100Y-77727546D01*
X55342220Y-77820343D01*
X55220343Y-77942220D01*
X55127546Y-78081100D01*
X54409229Y-77362783D01*
X54337644Y-77456078D01*
X54214755Y-77668927D01*
X54214753Y-77668932D01*
X54120699Y-77896002D01*
X54120695Y-77896015D01*
X54057081Y-78133423D01*
X54057081Y-78133428D01*
X54025000Y-78377105D01*
X52175500Y-78377105D01*
X52175500Y-77331898D01*
X52164877Y-77243436D01*
X52116708Y-77121288D01*
X52109362Y-77102660D01*
X52109361Y-77102659D01*
X52109361Y-77102658D01*
X52017922Y-76982078D01*
X51897342Y-76890639D01*
X51897341Y-76890638D01*
X51897339Y-76890637D01*
X51756565Y-76835123D01*
X51668106Y-76824500D01*
X51668102Y-76824500D01*
X51499500Y-76824500D01*
X51441309Y-76805593D01*
X51405345Y-76756093D01*
X51400500Y-76725500D01*
X51400500Y-75667579D01*
X81599500Y-75667579D01*
X81599500Y-75864420D01*
X81630289Y-76058821D01*
X81691116Y-76246025D01*
X81771556Y-76403900D01*
X81780476Y-76421405D01*
X81896172Y-76580646D01*
X82035354Y-76719828D01*
X82194595Y-76835524D01*
X82369975Y-76924884D01*
X82557174Y-76985709D01*
X82557175Y-76985709D01*
X82557178Y-76985710D01*
X82751580Y-77016500D01*
X82751583Y-77016500D01*
X82948420Y-77016500D01*
X83142821Y-76985710D01*
X83142822Y-76985709D01*
X83142826Y-76985709D01*
X83330025Y-76924884D01*
X83420647Y-76878710D01*
X88149500Y-76878710D01*
X88149500Y-77121289D01*
X88181161Y-77361781D01*
X88181161Y-77361786D01*
X88243944Y-77596092D01*
X88243948Y-77596105D01*
X88336772Y-77820204D01*
X88336774Y-77820208D01*
X88336776Y-77820212D01*
X88458064Y-78030289D01*
X88458066Y-78030292D01*
X88605729Y-78222731D01*
X88605731Y-78222733D01*
X88605735Y-78222738D01*
X88777262Y-78394265D01*
X88777266Y-78394268D01*
X88777268Y-78394270D01*
X88948510Y-78525668D01*
X88969711Y-78541936D01*
X89179788Y-78663224D01*
X89403900Y-78756054D01*
X89638211Y-78818838D01*
X89878712Y-78850500D01*
X89878713Y-78850500D01*
X90121287Y-78850500D01*
X90121288Y-78850500D01*
X90361789Y-78818838D01*
X90596100Y-78756054D01*
X90820212Y-78663224D01*
X91030289Y-78541936D01*
X91222738Y-78394265D01*
X91394265Y-78222738D01*
X91541936Y-78030289D01*
X91663224Y-77820212D01*
X91756054Y-77596100D01*
X91818838Y-77361789D01*
X91850500Y-77121288D01*
X91850500Y-76878712D01*
X91818838Y-76638211D01*
X91756054Y-76403900D01*
X91663224Y-76179788D01*
X91541936Y-75969711D01*
X91526090Y-75949060D01*
X91394270Y-75777268D01*
X91394268Y-75777266D01*
X91394265Y-75777262D01*
X91222738Y-75605735D01*
X91222733Y-75605731D01*
X91222731Y-75605729D01*
X91030292Y-75458066D01*
X91030289Y-75458064D01*
X90820212Y-75336776D01*
X90820208Y-75336774D01*
X90820204Y-75336772D01*
X90596105Y-75243948D01*
X90596104Y-75243947D01*
X90596100Y-75243946D01*
X90361789Y-75181162D01*
X90361786Y-75181161D01*
X90361784Y-75181161D01*
X90121289Y-75149500D01*
X90121288Y-75149500D01*
X89878712Y-75149500D01*
X89878710Y-75149500D01*
X89638218Y-75181161D01*
X89638213Y-75181161D01*
X89403907Y-75243944D01*
X89403894Y-75243948D01*
X89179795Y-75336772D01*
X88969707Y-75458066D01*
X88777268Y-75605729D01*
X88605729Y-75777268D01*
X88458066Y-75969707D01*
X88336772Y-76179795D01*
X88243948Y-76403894D01*
X88243944Y-76403907D01*
X88181161Y-76638213D01*
X88181161Y-76638218D01*
X88149500Y-76878710D01*
X83420647Y-76878710D01*
X83505405Y-76835524D01*
X83664646Y-76719828D01*
X83803828Y-76580646D01*
X83919524Y-76421405D01*
X84008884Y-76246025D01*
X84069709Y-76058826D01*
X84081803Y-75982468D01*
X84100500Y-75864420D01*
X84100500Y-75667579D01*
X84069710Y-75473178D01*
X84061355Y-75447463D01*
X84008884Y-75285975D01*
X83919524Y-75110595D01*
X83803828Y-74951354D01*
X83664646Y-74812172D01*
X83505405Y-74696476D01*
X83505404Y-74696475D01*
X83505402Y-74696474D01*
X83330025Y-74607116D01*
X83142821Y-74546289D01*
X82948420Y-74515500D01*
X82948417Y-74515500D01*
X82751583Y-74515500D01*
X82751580Y-74515500D01*
X82557178Y-74546289D01*
X82369974Y-74607116D01*
X82194597Y-74696474D01*
X82035355Y-74812171D01*
X81896171Y-74951355D01*
X81780474Y-75110597D01*
X81691116Y-75285974D01*
X81630289Y-75473178D01*
X81599500Y-75667579D01*
X51400500Y-75667579D01*
X51400500Y-72275450D01*
X59975900Y-72275450D01*
X59975900Y-72456549D01*
X60004228Y-72635406D01*
X60060188Y-72807637D01*
X60140832Y-72965910D01*
X60142404Y-72968994D01*
X60248847Y-73115501D01*
X60376899Y-73243553D01*
X60523406Y-73349996D01*
X60684761Y-73432211D01*
X60856991Y-73488171D01*
X60928536Y-73499502D01*
X61035851Y-73516500D01*
X61035854Y-73516500D01*
X61216949Y-73516500D01*
X61306377Y-73502335D01*
X61395809Y-73488171D01*
X61568039Y-73432211D01*
X61729394Y-73349996D01*
X61875901Y-73243553D01*
X62003953Y-73115501D01*
X62110396Y-72968994D01*
X62192611Y-72807639D01*
X62248571Y-72635409D01*
X62276900Y-72456546D01*
X62276900Y-72275454D01*
X62276900Y-72275450D01*
X62254065Y-72131281D01*
X62248571Y-72096591D01*
X62192611Y-71924361D01*
X62110396Y-71763006D01*
X62003953Y-71616499D01*
X61875901Y-71488447D01*
X61729394Y-71382004D01*
X61729393Y-71382003D01*
X61729391Y-71382002D01*
X61568037Y-71299788D01*
X61395806Y-71243828D01*
X61216949Y-71215500D01*
X61216946Y-71215500D01*
X61035854Y-71215500D01*
X61035851Y-71215500D01*
X60856993Y-71243828D01*
X60684762Y-71299788D01*
X60523408Y-71382002D01*
X60455778Y-71431138D01*
X60376899Y-71488447D01*
X60248847Y-71616499D01*
X60198124Y-71686314D01*
X60142402Y-71763008D01*
X60060188Y-71924362D01*
X60004228Y-72096593D01*
X59975900Y-72275450D01*
X51400500Y-72275450D01*
X51400500Y-69735450D01*
X59975900Y-69735450D01*
X59975900Y-69916549D01*
X60004228Y-70095406D01*
X60060188Y-70267637D01*
X60138938Y-70422193D01*
X60142404Y-70428994D01*
X60248847Y-70575501D01*
X60376899Y-70703553D01*
X60523406Y-70809996D01*
X60684761Y-70892211D01*
X60856991Y-70948171D01*
X60908013Y-70956252D01*
X61035851Y-70976500D01*
X61035854Y-70976500D01*
X61216949Y-70976500D01*
X61306377Y-70962335D01*
X61395809Y-70948171D01*
X61568039Y-70892211D01*
X61729394Y-70809996D01*
X61875901Y-70703553D01*
X62003953Y-70575501D01*
X62110396Y-70428994D01*
X62192611Y-70267639D01*
X62248571Y-70095409D01*
X62276900Y-69916546D01*
X62276900Y-69735454D01*
X62276900Y-69735450D01*
X62261319Y-69637078D01*
X62254179Y-69591999D01*
X81872768Y-69591999D01*
X81872769Y-69592000D01*
X82766988Y-69592000D01*
X82734075Y-69649007D01*
X82700000Y-69776174D01*
X82700000Y-69907826D01*
X82734075Y-70034993D01*
X82766988Y-70092000D01*
X81872769Y-70092000D01*
X81883241Y-70158122D01*
X81948904Y-70360215D01*
X82045375Y-70549552D01*
X82170277Y-70721464D01*
X82320535Y-70871722D01*
X82492447Y-70996624D01*
X82681784Y-71093095D01*
X82883877Y-71158758D01*
X82949999Y-71169231D01*
X82950000Y-71169230D01*
X82950000Y-70275012D01*
X83007007Y-70307925D01*
X83134174Y-70342000D01*
X83265826Y-70342000D01*
X83392993Y-70307925D01*
X83450000Y-70275012D01*
X83450000Y-71169231D01*
X83516122Y-71158758D01*
X83718215Y-71093095D01*
X83907552Y-70996624D01*
X84079464Y-70871722D01*
X84229722Y-70721464D01*
X84354624Y-70549552D01*
X84451095Y-70360215D01*
X84516758Y-70158122D01*
X84527231Y-70092000D01*
X83633012Y-70092000D01*
X83665925Y-70034993D01*
X83700000Y-69907826D01*
X83700000Y-69776174D01*
X83665925Y-69649007D01*
X83633012Y-69592000D01*
X84527231Y-69592000D01*
X84527231Y-69591999D01*
X84516758Y-69525877D01*
X84451095Y-69323784D01*
X84354624Y-69134447D01*
X84229722Y-68962535D01*
X84079464Y-68812277D01*
X83907552Y-68687375D01*
X83718215Y-68590904D01*
X83627015Y-68561272D01*
X83577515Y-68525308D01*
X83558608Y-68467117D01*
X83577515Y-68408926D01*
X83627013Y-68372962D01*
X83627017Y-68372962D01*
X83627018Y-68372962D01*
X83641633Y-68368213D01*
X83641633Y-68368212D01*
X83641639Y-68368211D01*
X83802994Y-68285996D01*
X83949501Y-68179553D01*
X84077553Y-68051501D01*
X84183996Y-67904994D01*
X84266211Y-67743639D01*
X84322171Y-67571409D01*
X84350500Y-67392546D01*
X84350500Y-67211454D01*
X84350500Y-67211450D01*
X84322171Y-67032593D01*
X84322171Y-67032591D01*
X84266211Y-66860361D01*
X84183996Y-66699006D01*
X84077553Y-66552499D01*
X83949501Y-66424447D01*
X83802994Y-66318004D01*
X83802993Y-66318003D01*
X83802991Y-66318002D01*
X83641637Y-66235788D01*
X83469406Y-66179828D01*
X83290549Y-66151500D01*
X83290546Y-66151500D01*
X83109454Y-66151500D01*
X83109451Y-66151500D01*
X82930593Y-66179828D01*
X82758362Y-66235788D01*
X82597008Y-66318002D01*
X82523752Y-66371225D01*
X82450499Y-66424447D01*
X82322447Y-66552499D01*
X82305523Y-66575793D01*
X82216002Y-66699008D01*
X82133788Y-66860362D01*
X82077828Y-67032593D01*
X82049500Y-67211450D01*
X82049500Y-67392549D01*
X82077828Y-67571406D01*
X82133788Y-67743637D01*
X82207851Y-67888994D01*
X82216004Y-67904994D01*
X82322447Y-68051501D01*
X82450499Y-68179553D01*
X82597006Y-68285996D01*
X82758361Y-68368211D01*
X82769483Y-68371824D01*
X82772983Y-68372962D01*
X82822483Y-68408926D01*
X82841391Y-68467116D01*
X82822484Y-68525307D01*
X82772985Y-68561271D01*
X82772984Y-68561272D01*
X82681784Y-68590904D01*
X82492447Y-68687375D01*
X82320535Y-68812277D01*
X82170277Y-68962535D01*
X82045375Y-69134447D01*
X81948904Y-69323784D01*
X81883241Y-69525877D01*
X81872768Y-69591999D01*
X62254179Y-69591999D01*
X62248571Y-69556593D01*
X62248571Y-69556591D01*
X62192611Y-69384361D01*
X62110396Y-69223006D01*
X62003953Y-69076499D01*
X61875901Y-68948447D01*
X61729394Y-68842004D01*
X61729393Y-68842003D01*
X61729391Y-68842002D01*
X61568037Y-68759788D01*
X61395806Y-68703828D01*
X61216949Y-68675500D01*
X61216946Y-68675500D01*
X61035854Y-68675500D01*
X61035851Y-68675500D01*
X60856993Y-68703828D01*
X60684762Y-68759788D01*
X60523408Y-68842002D01*
X60483770Y-68870801D01*
X60376899Y-68948447D01*
X60248847Y-69076499D01*
X60223528Y-69111348D01*
X60142402Y-69223008D01*
X60060188Y-69384362D01*
X60004228Y-69556593D01*
X59975900Y-69735450D01*
X51400500Y-69735450D01*
X51400500Y-67399500D01*
X51419407Y-67341309D01*
X51468907Y-67305345D01*
X51499500Y-67300500D01*
X51793100Y-67300500D01*
X51793102Y-67300500D01*
X51881564Y-67289877D01*
X52022342Y-67234361D01*
X52142922Y-67142922D01*
X52234361Y-67022342D01*
X52289877Y-66881564D01*
X52300500Y-66793102D01*
X52300500Y-65881943D01*
X54500000Y-65881943D01*
X54500000Y-66118056D01*
X54536934Y-66351252D01*
X54536935Y-66351256D01*
X54609892Y-66575793D01*
X54609894Y-66575796D01*
X54717084Y-66786169D01*
X54777339Y-66869105D01*
X55517036Y-66129407D01*
X55534075Y-66192993D01*
X55599901Y-66307007D01*
X55692993Y-66400099D01*
X55807007Y-66465925D01*
X55870590Y-66482962D01*
X55130893Y-67222659D01*
X55213825Y-67282913D01*
X55213829Y-67282915D01*
X55424203Y-67390105D01*
X55424206Y-67390107D01*
X55648743Y-67463064D01*
X55648747Y-67463065D01*
X55881944Y-67500000D01*
X56118056Y-67500000D01*
X56351252Y-67463065D01*
X56351256Y-67463064D01*
X56575793Y-67390107D01*
X56575796Y-67390105D01*
X56786170Y-67282915D01*
X56786176Y-67282911D01*
X56869106Y-67222659D01*
X56841897Y-67195450D01*
X59975900Y-67195450D01*
X59975900Y-67376549D01*
X60004228Y-67555406D01*
X60060188Y-67727637D01*
X60067542Y-67742071D01*
X60142404Y-67888994D01*
X60248847Y-68035501D01*
X60376899Y-68163553D01*
X60523406Y-68269996D01*
X60684761Y-68352211D01*
X60856991Y-68408171D01*
X60928536Y-68419502D01*
X61035851Y-68436500D01*
X61035854Y-68436500D01*
X61216949Y-68436500D01*
X61306377Y-68422335D01*
X61395809Y-68408171D01*
X61568039Y-68352211D01*
X61729394Y-68269996D01*
X61875901Y-68163553D01*
X62003953Y-68035501D01*
X62110396Y-67888994D01*
X62192611Y-67727639D01*
X62248571Y-67555409D01*
X62269886Y-67420832D01*
X62276900Y-67376549D01*
X62276900Y-67195450D01*
X62248571Y-67016593D01*
X62248571Y-67016591D01*
X62192611Y-66844361D01*
X62110396Y-66683006D01*
X62003953Y-66536499D01*
X61875901Y-66408447D01*
X61729394Y-66302004D01*
X61729393Y-66302003D01*
X61729391Y-66302002D01*
X61568037Y-66219788D01*
X61395806Y-66163828D01*
X61216949Y-66135500D01*
X61216946Y-66135500D01*
X61035854Y-66135500D01*
X61035851Y-66135500D01*
X60856993Y-66163828D01*
X60684762Y-66219788D01*
X60523408Y-66302002D01*
X60450152Y-66355225D01*
X60376899Y-66408447D01*
X60248847Y-66536499D01*
X60220296Y-66575796D01*
X60142402Y-66683008D01*
X60060188Y-66844362D01*
X60004228Y-67016593D01*
X59975900Y-67195450D01*
X56841897Y-67195450D01*
X56129409Y-66482962D01*
X56192993Y-66465925D01*
X56307007Y-66400099D01*
X56400099Y-66307007D01*
X56465925Y-66192993D01*
X56482962Y-66129409D01*
X57222658Y-66869105D01*
X57222659Y-66869105D01*
X57282911Y-66786176D01*
X57282915Y-66786170D01*
X57390105Y-66575796D01*
X57390107Y-66575793D01*
X57463064Y-66351256D01*
X57463065Y-66351252D01*
X57500000Y-66118056D01*
X57500000Y-65881943D01*
X57463065Y-65648747D01*
X57463064Y-65648743D01*
X57390107Y-65424206D01*
X57390105Y-65424203D01*
X57282915Y-65213829D01*
X57282913Y-65213825D01*
X57222659Y-65130893D01*
X56482962Y-65870590D01*
X56465925Y-65807007D01*
X56400099Y-65692993D01*
X56307007Y-65599901D01*
X56192993Y-65534075D01*
X56129407Y-65517036D01*
X56869105Y-64777339D01*
X56806228Y-64731657D01*
X56786168Y-64717083D01*
X56665205Y-64655450D01*
X59975900Y-64655450D01*
X59975900Y-64836549D01*
X60004228Y-65015406D01*
X60060188Y-65187637D01*
X60073533Y-65213829D01*
X60142404Y-65348994D01*
X60248847Y-65495501D01*
X60376899Y-65623553D01*
X60523406Y-65729996D01*
X60684761Y-65812211D01*
X60856991Y-65868171D01*
X60928536Y-65879502D01*
X61035851Y-65896500D01*
X61035854Y-65896500D01*
X61216949Y-65896500D01*
X61308856Y-65881943D01*
X61395809Y-65868171D01*
X61568039Y-65812211D01*
X61729394Y-65729996D01*
X61875901Y-65623553D01*
X62003953Y-65495501D01*
X62110396Y-65348994D01*
X62192611Y-65187639D01*
X62248571Y-65015409D01*
X62273649Y-64857075D01*
X62276900Y-64836549D01*
X62276900Y-64671450D01*
X82049500Y-64671450D01*
X82049500Y-64852549D01*
X82077828Y-65031406D01*
X82133788Y-65203637D01*
X82207851Y-65348994D01*
X82216004Y-65364994D01*
X82322447Y-65511501D01*
X82450499Y-65639553D01*
X82597006Y-65745996D01*
X82758361Y-65828211D01*
X82930591Y-65884171D01*
X83002136Y-65895502D01*
X83109451Y-65912500D01*
X83109454Y-65912500D01*
X83290549Y-65912500D01*
X83391566Y-65896500D01*
X83469409Y-65884171D01*
X83641639Y-65828211D01*
X83802994Y-65745996D01*
X83949501Y-65639553D01*
X84077553Y-65511501D01*
X84183996Y-65364994D01*
X84266211Y-65203639D01*
X84322171Y-65031409D01*
X84346961Y-64874891D01*
X84350500Y-64852549D01*
X84350500Y-64671450D01*
X84329194Y-64536934D01*
X84322171Y-64492591D01*
X84266211Y-64320361D01*
X84183996Y-64159006D01*
X84077553Y-64012499D01*
X83949501Y-63884447D01*
X83802994Y-63778004D01*
X83802993Y-63778003D01*
X83802991Y-63778002D01*
X83641637Y-63695788D01*
X83469406Y-63639828D01*
X83290549Y-63611500D01*
X83290546Y-63611500D01*
X83109454Y-63611500D01*
X83109451Y-63611500D01*
X82930593Y-63639828D01*
X82758362Y-63695788D01*
X82597008Y-63778002D01*
X82523752Y-63831225D01*
X82450499Y-63884447D01*
X82322447Y-64012499D01*
X82269225Y-64085752D01*
X82216002Y-64159008D01*
X82133788Y-64320362D01*
X82077828Y-64492593D01*
X82049500Y-64671450D01*
X62276900Y-64671450D01*
X62276900Y-64655450D01*
X62254572Y-64514481D01*
X62248571Y-64476591D01*
X62192611Y-64304361D01*
X62110396Y-64143006D01*
X62003953Y-63996499D01*
X61875901Y-63868447D01*
X61729394Y-63762004D01*
X61729393Y-63762003D01*
X61729391Y-63762002D01*
X61568037Y-63679788D01*
X61395806Y-63623828D01*
X61216949Y-63595500D01*
X61216946Y-63595500D01*
X61035854Y-63595500D01*
X61035851Y-63595500D01*
X60856993Y-63623828D01*
X60684762Y-63679788D01*
X60523408Y-63762002D01*
X60483770Y-63790801D01*
X60376899Y-63868447D01*
X60248847Y-63996499D01*
X60195625Y-64069752D01*
X60142402Y-64143008D01*
X60060188Y-64304362D01*
X60004228Y-64476593D01*
X59975900Y-64655450D01*
X56665205Y-64655450D01*
X56575796Y-64609894D01*
X56575793Y-64609892D01*
X56351256Y-64536935D01*
X56351252Y-64536934D01*
X56118056Y-64500000D01*
X55881944Y-64500000D01*
X55648747Y-64536934D01*
X55648743Y-64536935D01*
X55424206Y-64609892D01*
X55424203Y-64609894D01*
X55213823Y-64717088D01*
X55130893Y-64777339D01*
X55870591Y-65517037D01*
X55807007Y-65534075D01*
X55692993Y-65599901D01*
X55599901Y-65692993D01*
X55534075Y-65807007D01*
X55517037Y-65870591D01*
X54777339Y-65130893D01*
X54717088Y-65213823D01*
X54609894Y-65424203D01*
X54609892Y-65424206D01*
X54536935Y-65648743D01*
X54536934Y-65648747D01*
X54500000Y-65881943D01*
X52300500Y-65881943D01*
X52300500Y-65206898D01*
X52289877Y-65118436D01*
X52234361Y-64977658D01*
X52142922Y-64857078D01*
X52022342Y-64765639D01*
X52022341Y-64765638D01*
X52022339Y-64765637D01*
X51881565Y-64710123D01*
X51793106Y-64699500D01*
X51793102Y-64699500D01*
X50803000Y-64699500D01*
X50744809Y-64680593D01*
X50708845Y-64631093D01*
X50708845Y-64569907D01*
X50732996Y-64530496D01*
X52627996Y-62635496D01*
X52682513Y-62607719D01*
X52698000Y-62606500D01*
X59978561Y-62606500D01*
X60036752Y-62625407D01*
X60066768Y-62660552D01*
X60142404Y-62808994D01*
X60248847Y-62955501D01*
X60376899Y-63083553D01*
X60523406Y-63189996D01*
X60684761Y-63272211D01*
X60856991Y-63328171D01*
X60928536Y-63339502D01*
X61035851Y-63356500D01*
X61035854Y-63356500D01*
X61216949Y-63356500D01*
X61306377Y-63342335D01*
X61395809Y-63328171D01*
X61568039Y-63272211D01*
X61729394Y-63189996D01*
X61875901Y-63083553D01*
X62003953Y-62955501D01*
X62110396Y-62808994D01*
X62192611Y-62647639D01*
X62248571Y-62475409D01*
X62269886Y-62340832D01*
X62276900Y-62296549D01*
X62276900Y-62131450D01*
X82049500Y-62131450D01*
X82049500Y-62312549D01*
X82077828Y-62491406D01*
X82133788Y-62663637D01*
X82207851Y-62808994D01*
X82216004Y-62824994D01*
X82322447Y-62971501D01*
X82450499Y-63099553D01*
X82597006Y-63205996D01*
X82758361Y-63288211D01*
X82930591Y-63344171D01*
X83002136Y-63355502D01*
X83109451Y-63372500D01*
X83109454Y-63372500D01*
X83290549Y-63372500D01*
X83391566Y-63356500D01*
X83469409Y-63344171D01*
X83641639Y-63288211D01*
X83802994Y-63205996D01*
X83949501Y-63099553D01*
X84077553Y-62971501D01*
X84183996Y-62824994D01*
X84266211Y-62663639D01*
X84322171Y-62491409D01*
X84350500Y-62312546D01*
X84350500Y-62131454D01*
X84350500Y-62131450D01*
X84325638Y-61974481D01*
X84322171Y-61952591D01*
X84266211Y-61780361D01*
X84183996Y-61619006D01*
X84077553Y-61472499D01*
X83949501Y-61344447D01*
X83802994Y-61238004D01*
X83802993Y-61238003D01*
X83802991Y-61238002D01*
X83641637Y-61155788D01*
X83469406Y-61099828D01*
X83290549Y-61071500D01*
X83290546Y-61071500D01*
X83109454Y-61071500D01*
X83109451Y-61071500D01*
X82930593Y-61099828D01*
X82758362Y-61155788D01*
X82597008Y-61238002D01*
X82538534Y-61280486D01*
X82450499Y-61344447D01*
X82322447Y-61472499D01*
X82306032Y-61495093D01*
X82216002Y-61619008D01*
X82133788Y-61780362D01*
X82077828Y-61952593D01*
X82049500Y-62131450D01*
X62276900Y-62131450D01*
X62276900Y-62115450D01*
X62248571Y-61936593D01*
X62248571Y-61936591D01*
X62192611Y-61764361D01*
X62110396Y-61603006D01*
X62052042Y-61522688D01*
X62033136Y-61464500D01*
X62052043Y-61406309D01*
X62101543Y-61370345D01*
X62132136Y-61365500D01*
X70056016Y-61365500D01*
X70056018Y-61365500D01*
X70164237Y-61336503D01*
X70164239Y-61336501D01*
X70164241Y-61336501D01*
X70193064Y-61319859D01*
X70261263Y-61280485D01*
X70340485Y-61201263D01*
X70396503Y-61104237D01*
X70396504Y-61104231D01*
X70398985Y-61098245D01*
X70401492Y-61099283D01*
X70428574Y-61057570D01*
X70485692Y-61035636D01*
X70490886Y-61035500D01*
X76056016Y-61035500D01*
X76056018Y-61035500D01*
X76164237Y-61006503D01*
X76164239Y-61006501D01*
X76164241Y-61006501D01*
X76237317Y-60964310D01*
X76261263Y-60950485D01*
X76340485Y-60871263D01*
X76396503Y-60774237D01*
X76425500Y-60666018D01*
X76425500Y-60464743D01*
X76444407Y-60406552D01*
X76454490Y-60394745D01*
X76480520Y-60368716D01*
X76559577Y-60231784D01*
X76600500Y-60079057D01*
X76600500Y-59920943D01*
X76559577Y-59768216D01*
X76480520Y-59631284D01*
X76440686Y-59591450D01*
X82049500Y-59591450D01*
X82049500Y-59772549D01*
X82077828Y-59951406D01*
X82133788Y-60123637D01*
X82201072Y-60255690D01*
X82216004Y-60284994D01*
X82322447Y-60431501D01*
X82450499Y-60559553D01*
X82597006Y-60665996D01*
X82758361Y-60748211D01*
X82930591Y-60804171D01*
X83002136Y-60815502D01*
X83109451Y-60832500D01*
X83109454Y-60832500D01*
X83290549Y-60832500D01*
X83379977Y-60818335D01*
X83469409Y-60804171D01*
X83641639Y-60748211D01*
X83802994Y-60665996D01*
X83949501Y-60559553D01*
X84077553Y-60431501D01*
X84183996Y-60284994D01*
X84266211Y-60123639D01*
X84322171Y-59951409D01*
X84350500Y-59772546D01*
X84350500Y-59591454D01*
X84350500Y-59591450D01*
X84322171Y-59412593D01*
X84322171Y-59412591D01*
X84266211Y-59240361D01*
X84183996Y-59079006D01*
X84077553Y-58932499D01*
X83949501Y-58804447D01*
X83802994Y-58698004D01*
X83802993Y-58698003D01*
X83802991Y-58698002D01*
X83641637Y-58615788D01*
X83469406Y-58559828D01*
X83290549Y-58531500D01*
X83290546Y-58531500D01*
X83109454Y-58531500D01*
X83109451Y-58531500D01*
X82930593Y-58559828D01*
X82758362Y-58615788D01*
X82597008Y-58698002D01*
X82530932Y-58746009D01*
X82450499Y-58804447D01*
X82322447Y-58932499D01*
X82269225Y-59005752D01*
X82216002Y-59079008D01*
X82133788Y-59240362D01*
X82077828Y-59412593D01*
X82049500Y-59591450D01*
X76440686Y-59591450D01*
X76368716Y-59519480D01*
X76231784Y-59440423D01*
X76079057Y-59399500D01*
X75920943Y-59399500D01*
X75790392Y-59434481D01*
X75768216Y-59440423D01*
X75631284Y-59519480D01*
X75519480Y-59631284D01*
X75440423Y-59768216D01*
X75399500Y-59920944D01*
X75399500Y-60085500D01*
X75380593Y-60143691D01*
X75331093Y-60179655D01*
X75300500Y-60184500D01*
X70056018Y-60184500D01*
X69943982Y-60184500D01*
X69877748Y-60202247D01*
X69835758Y-60213498D01*
X69738739Y-60269513D01*
X69659513Y-60348739D01*
X69603498Y-60445759D01*
X69601015Y-60451755D01*
X69598507Y-60450716D01*
X69571426Y-60492430D01*
X69514308Y-60514364D01*
X69509114Y-60514500D01*
X62375900Y-60514500D01*
X62317709Y-60495593D01*
X62281745Y-60446093D01*
X62276900Y-60415500D01*
X62276899Y-58771139D01*
X62276899Y-58771136D01*
X62273985Y-58746009D01*
X62228606Y-58643235D01*
X62149165Y-58563794D01*
X62046391Y-58518415D01*
X62046390Y-58518414D01*
X62046388Y-58518414D01*
X62021268Y-58515500D01*
X60231539Y-58515500D01*
X60231536Y-58515501D01*
X60206409Y-58518414D01*
X60103635Y-58563794D01*
X60024194Y-58643235D01*
X59978814Y-58746011D01*
X59975900Y-58771130D01*
X59975900Y-58771132D01*
X59975900Y-58771135D01*
X59975900Y-59637064D01*
X59975901Y-60415500D01*
X59956994Y-60473691D01*
X59907494Y-60509655D01*
X59876901Y-60514500D01*
X52490886Y-60514500D01*
X52432695Y-60495593D01*
X52400414Y-60451162D01*
X52398985Y-60451755D01*
X52396501Y-60445759D01*
X52340486Y-60348739D01*
X52340485Y-60348737D01*
X52261263Y-60269515D01*
X52261260Y-60269513D01*
X52164240Y-60213498D01*
X52164242Y-60213498D01*
X52122251Y-60202247D01*
X52056018Y-60184500D01*
X52056016Y-60184500D01*
X46919500Y-60184500D01*
X46861309Y-60165593D01*
X46825345Y-60116093D01*
X46820500Y-60085500D01*
X46820499Y-58395139D01*
X46820499Y-58395136D01*
X46817585Y-58370009D01*
X46772206Y-58267235D01*
X46692765Y-58187794D01*
X46589991Y-58142415D01*
X46589990Y-58142414D01*
X46589988Y-58142414D01*
X46564868Y-58139500D01*
X44675139Y-58139500D01*
X44675136Y-58139501D01*
X44650009Y-58142414D01*
X44547235Y-58187794D01*
X44467794Y-58267235D01*
X44422414Y-58370011D01*
X44419500Y-58395130D01*
X44419500Y-58395132D01*
X44419500Y-58395135D01*
X44419500Y-59245519D01*
X44419501Y-60085500D01*
X44400594Y-60143691D01*
X44351094Y-60179655D01*
X44320501Y-60184500D01*
X34264744Y-60184500D01*
X34206553Y-60165593D01*
X34194742Y-60155505D01*
X34168718Y-60129482D01*
X34168716Y-60129480D01*
X34031784Y-60050423D01*
X33879057Y-60009500D01*
X33720943Y-60009500D01*
X33568216Y-60050423D01*
X33431284Y-60129480D01*
X33319480Y-60241284D01*
X33240423Y-60378216D01*
X33199500Y-60530943D01*
X33199500Y-60689057D01*
X33240423Y-60841784D01*
X33319480Y-60978716D01*
X33431284Y-61090520D01*
X33568216Y-61169577D01*
X33720943Y-61210500D01*
X33720945Y-61210500D01*
X33879055Y-61210500D01*
X33879057Y-61210500D01*
X34031784Y-61169577D01*
X34168716Y-61090520D01*
X34187736Y-61071500D01*
X34194742Y-61064495D01*
X34249259Y-61036719D01*
X34264744Y-61035500D01*
X51509114Y-61035500D01*
X51567305Y-61054407D01*
X51599585Y-61098837D01*
X51601015Y-61098245D01*
X51603498Y-61104240D01*
X51641220Y-61169576D01*
X51659515Y-61201263D01*
X51738737Y-61280485D01*
X51738739Y-61280486D01*
X51835759Y-61336501D01*
X51835757Y-61336501D01*
X51835761Y-61336502D01*
X51835763Y-61336503D01*
X51943982Y-61365500D01*
X52056018Y-61365500D01*
X60120664Y-61365500D01*
X60178855Y-61384407D01*
X60214819Y-61433907D01*
X60214819Y-61495093D01*
X60200759Y-61522686D01*
X60162422Y-61575452D01*
X60142402Y-61603008D01*
X60103529Y-61679301D01*
X60066769Y-61751446D01*
X60023506Y-61794710D01*
X59978561Y-61805500D01*
X52549906Y-61805500D01*
X52549890Y-61805499D01*
X52543827Y-61805499D01*
X52438373Y-61805499D01*
X52438370Y-61805499D01*
X52336513Y-61832792D01*
X52336509Y-61832794D01*
X52245187Y-61885519D01*
X52170619Y-61960086D01*
X52170620Y-61960087D01*
X46987824Y-67142883D01*
X46933307Y-67170660D01*
X46872875Y-67161089D01*
X46829610Y-67117824D01*
X46820039Y-67057392D01*
X46820040Y-67057386D01*
X46820500Y-67054482D01*
X46820500Y-66865515D01*
X46790941Y-66678886D01*
X46749875Y-66552499D01*
X46732547Y-66499168D01*
X46646760Y-66330801D01*
X46535690Y-66177927D01*
X46402073Y-66044310D01*
X46249199Y-65933240D01*
X46249198Y-65933239D01*
X46249196Y-65933238D01*
X46080832Y-65847453D01*
X45901113Y-65789058D01*
X45893046Y-65787781D01*
X45838529Y-65760004D01*
X45810751Y-65705488D01*
X45820322Y-65645056D01*
X45863586Y-65601791D01*
X45893046Y-65592219D01*
X45901113Y-65590941D01*
X45901114Y-65590940D01*
X45901118Y-65590940D01*
X46080832Y-65532547D01*
X46249199Y-65446760D01*
X46402073Y-65335690D01*
X46535690Y-65202073D01*
X46646760Y-65049199D01*
X46732547Y-64880832D01*
X46790940Y-64701118D01*
X46794191Y-64680593D01*
X46820500Y-64514484D01*
X46820500Y-64325515D01*
X46790941Y-64138886D01*
X46749875Y-64012499D01*
X46732547Y-63959168D01*
X46646760Y-63790801D01*
X46535690Y-63637927D01*
X46402073Y-63504310D01*
X46249199Y-63393240D01*
X46249198Y-63393239D01*
X46249196Y-63393238D01*
X46080832Y-63307453D01*
X45901113Y-63249058D01*
X45714484Y-63219500D01*
X45714481Y-63219500D01*
X45525519Y-63219500D01*
X45525516Y-63219500D01*
X45338886Y-63249058D01*
X45159167Y-63307453D01*
X44990803Y-63393238D01*
X44837928Y-63504309D01*
X44704309Y-63637928D01*
X44593238Y-63790803D01*
X44507453Y-63959167D01*
X44449058Y-64138886D01*
X44419500Y-64325515D01*
X44419500Y-64514484D01*
X44449058Y-64701113D01*
X44507453Y-64880832D01*
X44584175Y-65031409D01*
X44593240Y-65049199D01*
X44704310Y-65202073D01*
X44837927Y-65335690D01*
X44990801Y-65446760D01*
X45159168Y-65532547D01*
X45338882Y-65590940D01*
X45338883Y-65590940D01*
X45338886Y-65590941D01*
X45346954Y-65592219D01*
X45401471Y-65619996D01*
X45429248Y-65674513D01*
X45419677Y-65734945D01*
X45376412Y-65778210D01*
X45346954Y-65787781D01*
X45338886Y-65789058D01*
X45159167Y-65847453D01*
X44990803Y-65933238D01*
X44837928Y-66044309D01*
X44704309Y-66177928D01*
X44593238Y-66330803D01*
X44507453Y-66499167D01*
X44449058Y-66678886D01*
X44419500Y-66865515D01*
X44419500Y-67054484D01*
X44449058Y-67241113D01*
X44507453Y-67420832D01*
X44584175Y-67571409D01*
X44593240Y-67589199D01*
X44704310Y-67742073D01*
X44837927Y-67875690D01*
X44990801Y-67986760D01*
X45159168Y-68072547D01*
X45338882Y-68130940D01*
X45338883Y-68130940D01*
X45338886Y-68130941D01*
X45346954Y-68132219D01*
X45401471Y-68159996D01*
X45429248Y-68214513D01*
X45419677Y-68274945D01*
X45376412Y-68318210D01*
X45346954Y-68327781D01*
X45338886Y-68329058D01*
X45159167Y-68387453D01*
X44990803Y-68473238D01*
X44837928Y-68584309D01*
X44704309Y-68717928D01*
X44593238Y-68870803D01*
X44507453Y-69039167D01*
X44449058Y-69218886D01*
X44419500Y-69405515D01*
X44419500Y-69594484D01*
X44449058Y-69781113D01*
X44507453Y-69960832D01*
X44576021Y-70095406D01*
X44593240Y-70129199D01*
X44704310Y-70282073D01*
X44837927Y-70415690D01*
X44990801Y-70526760D01*
X45159168Y-70612547D01*
X45338882Y-70670940D01*
X45338883Y-70670940D01*
X45338886Y-70670941D01*
X45346954Y-70672219D01*
X45401471Y-70699996D01*
X45429248Y-70754513D01*
X45419677Y-70814945D01*
X45376412Y-70858210D01*
X45346954Y-70867781D01*
X45338886Y-70869058D01*
X45159167Y-70927453D01*
X44990803Y-71013238D01*
X44837928Y-71124309D01*
X44704305Y-71257932D01*
X44604592Y-71395175D01*
X44555092Y-71431139D01*
X44493907Y-71431138D01*
X44444407Y-71395174D01*
X44425500Y-71336984D01*
X44425500Y-70713983D01*
X44423329Y-70705880D01*
X44396503Y-70605763D01*
X44396501Y-70605760D01*
X44396501Y-70605758D01*
X44340486Y-70508739D01*
X44340485Y-70508737D01*
X44261263Y-70429515D01*
X44260361Y-70428994D01*
X44164240Y-70373498D01*
X44164242Y-70373498D01*
X44122251Y-70362247D01*
X44056018Y-70344500D01*
X44056016Y-70344500D01*
X31444633Y-70344500D01*
X31386442Y-70325593D01*
X31350478Y-70276093D01*
X31350478Y-70214907D01*
X31364540Y-70187309D01*
X31370941Y-70178499D01*
X31406760Y-70129199D01*
X31492547Y-69960832D01*
X31550940Y-69781118D01*
X31551723Y-69776174D01*
X31580500Y-69594484D01*
X31580500Y-69405515D01*
X31550941Y-69218886D01*
X31550940Y-69218882D01*
X31492547Y-69039168D01*
X31406760Y-68870801D01*
X31295690Y-68717927D01*
X31162073Y-68584310D01*
X31009199Y-68473240D01*
X31009198Y-68473239D01*
X31009196Y-68473238D01*
X30840832Y-68387453D01*
X30661113Y-68329058D01*
X30653046Y-68327781D01*
X30598529Y-68300004D01*
X30570751Y-68245488D01*
X30580322Y-68185056D01*
X30623586Y-68141791D01*
X30653046Y-68132219D01*
X30661113Y-68130941D01*
X30661114Y-68130940D01*
X30661118Y-68130940D01*
X30840832Y-68072547D01*
X31009199Y-67986760D01*
X31162073Y-67875690D01*
X31295690Y-67742073D01*
X31406760Y-67589199D01*
X31492547Y-67420832D01*
X31550940Y-67241118D01*
X31553864Y-67222659D01*
X31580500Y-67054484D01*
X31580500Y-66865515D01*
X31550941Y-66678886D01*
X31509875Y-66552499D01*
X31492547Y-66499168D01*
X31406760Y-66330801D01*
X31295690Y-66177927D01*
X31162073Y-66044310D01*
X31009199Y-65933240D01*
X31009198Y-65933239D01*
X31009196Y-65933238D01*
X30840832Y-65847453D01*
X30661113Y-65789058D01*
X30653046Y-65787781D01*
X30598529Y-65760004D01*
X30570751Y-65705488D01*
X30580322Y-65645056D01*
X30623586Y-65601791D01*
X30653046Y-65592219D01*
X30661113Y-65590941D01*
X30661114Y-65590940D01*
X30661118Y-65590940D01*
X30840832Y-65532547D01*
X31009199Y-65446760D01*
X31162073Y-65335690D01*
X31295690Y-65202073D01*
X31406760Y-65049199D01*
X31492547Y-64880832D01*
X31550940Y-64701118D01*
X31554191Y-64680593D01*
X31580500Y-64514484D01*
X31580500Y-64325515D01*
X31550941Y-64138886D01*
X31509875Y-64012499D01*
X31492547Y-63959168D01*
X31406760Y-63790801D01*
X31295690Y-63637927D01*
X31162073Y-63504310D01*
X31009199Y-63393240D01*
X31009198Y-63393239D01*
X31009196Y-63393238D01*
X30840832Y-63307453D01*
X30661113Y-63249058D01*
X30653046Y-63247781D01*
X30598529Y-63220004D01*
X30570751Y-63165488D01*
X30580322Y-63105056D01*
X30623586Y-63061791D01*
X30653046Y-63052219D01*
X30661113Y-63050941D01*
X30661114Y-63050940D01*
X30661118Y-63050940D01*
X30840832Y-62992547D01*
X31009199Y-62906760D01*
X31162073Y-62795690D01*
X31295690Y-62662073D01*
X31406760Y-62509199D01*
X31492547Y-62340832D01*
X31550940Y-62161118D01*
X31550941Y-62161113D01*
X31580500Y-61974484D01*
X31580500Y-61785515D01*
X31550941Y-61598886D01*
X31550940Y-61598882D01*
X31492547Y-61419168D01*
X31406760Y-61250801D01*
X31364539Y-61192689D01*
X31345633Y-61134500D01*
X31364540Y-61076309D01*
X31414040Y-61040345D01*
X31444633Y-61035500D01*
X31735256Y-61035500D01*
X31793447Y-61054407D01*
X31805258Y-61064495D01*
X31831281Y-61090517D01*
X31831284Y-61090520D01*
X31968216Y-61169577D01*
X32120943Y-61210500D01*
X32120945Y-61210500D01*
X32279055Y-61210500D01*
X32279057Y-61210500D01*
X32431784Y-61169577D01*
X32568716Y-61090520D01*
X32680520Y-60978716D01*
X32759577Y-60841784D01*
X32800500Y-60689057D01*
X32800500Y-60530943D01*
X32759577Y-60378216D01*
X32680520Y-60241284D01*
X32568716Y-60129480D01*
X32431784Y-60050423D01*
X32279057Y-60009500D01*
X32120943Y-60009500D01*
X31968216Y-60050423D01*
X31841405Y-60123637D01*
X31831281Y-60129482D01*
X31805258Y-60155505D01*
X31750741Y-60183281D01*
X31735256Y-60184500D01*
X31444633Y-60184500D01*
X31386442Y-60165593D01*
X31350478Y-60116093D01*
X31350478Y-60054907D01*
X31364540Y-60027309D01*
X31377479Y-60009500D01*
X31406760Y-59969199D01*
X31492547Y-59800832D01*
X31550940Y-59621118D01*
X31550941Y-59621113D01*
X31580500Y-59434484D01*
X31580500Y-59245515D01*
X31550941Y-59058886D01*
X31509875Y-58932499D01*
X31492547Y-58879168D01*
X31406760Y-58710801D01*
X31295690Y-58557927D01*
X31162073Y-58424310D01*
X31009199Y-58313240D01*
X31009198Y-58313239D01*
X31009196Y-58313238D01*
X30901758Y-58258496D01*
X30859554Y-58236992D01*
X30816290Y-58193728D01*
X30805500Y-58148783D01*
X30805500Y-57524500D01*
X30824407Y-57466309D01*
X30873907Y-57430345D01*
X30904500Y-57425500D01*
X74056016Y-57425500D01*
X74056018Y-57425500D01*
X74164237Y-57396503D01*
X74164239Y-57396501D01*
X74164241Y-57396501D01*
X74199292Y-57376264D01*
X74261263Y-57340485D01*
X74340485Y-57261263D01*
X74396503Y-57164237D01*
X74425500Y-57056018D01*
X74425500Y-41754500D01*
X74444407Y-41696309D01*
X74493907Y-41660345D01*
X74524500Y-41655500D01*
X82308783Y-41655500D01*
X82366974Y-41674407D01*
X82396992Y-41709554D01*
X82473240Y-41859199D01*
X82584310Y-42012073D01*
X82717927Y-42145690D01*
X82870801Y-42256760D01*
X83039168Y-42342547D01*
X83218882Y-42400940D01*
X83218883Y-42400940D01*
X83218886Y-42400941D01*
X83226954Y-42402219D01*
X83281471Y-42429996D01*
X83309248Y-42484513D01*
X83299677Y-42544945D01*
X83256412Y-42588210D01*
X83226954Y-42597781D01*
X83218886Y-42599058D01*
X83039167Y-42657453D01*
X82870803Y-42743238D01*
X82717928Y-42854309D01*
X82584309Y-42987928D01*
X82473238Y-43140803D01*
X82396993Y-43290445D01*
X82353728Y-43333710D01*
X82308783Y-43344500D01*
X76056018Y-43344500D01*
X75943982Y-43344500D01*
X75877748Y-43362247D01*
X75835758Y-43373498D01*
X75738739Y-43429513D01*
X75659513Y-43508739D01*
X75603498Y-43605758D01*
X75574500Y-43713983D01*
X75574500Y-57335256D01*
X75555593Y-57393447D01*
X75545505Y-57405258D01*
X75519482Y-57431281D01*
X75519480Y-57431283D01*
X75519480Y-57431284D01*
X75440423Y-57568216D01*
X75399500Y-57720943D01*
X75399500Y-57879057D01*
X75440423Y-58031784D01*
X75519480Y-58168716D01*
X75631284Y-58280520D01*
X75768216Y-58359577D01*
X75920943Y-58400500D01*
X75920945Y-58400500D01*
X76079055Y-58400500D01*
X76079057Y-58400500D01*
X76231784Y-58359577D01*
X76368716Y-58280520D01*
X76480520Y-58168716D01*
X76559577Y-58031784D01*
X76600500Y-57879057D01*
X76600500Y-57720943D01*
X76559577Y-57568216D01*
X76480520Y-57431284D01*
X76474736Y-57425500D01*
X76454495Y-57405258D01*
X76426719Y-57350741D01*
X76425500Y-57335256D01*
X76425500Y-56247130D01*
X82049500Y-56247130D01*
X82049500Y-58036860D01*
X82049501Y-58036863D01*
X82052414Y-58061990D01*
X82077756Y-58119385D01*
X82097794Y-58164765D01*
X82177235Y-58244206D01*
X82280009Y-58289585D01*
X82305135Y-58292500D01*
X84094864Y-58292499D01*
X84119991Y-58289585D01*
X84222765Y-58244206D01*
X84302206Y-58164765D01*
X84347585Y-58061991D01*
X84350500Y-58036865D01*
X84350499Y-56247136D01*
X84347585Y-56222009D01*
X84302206Y-56119235D01*
X84222765Y-56039794D01*
X84119991Y-55994415D01*
X84119990Y-55994414D01*
X84119988Y-55994414D01*
X84094868Y-55991500D01*
X82305139Y-55991500D01*
X82305136Y-55991501D01*
X82280009Y-55994414D01*
X82177235Y-56039794D01*
X82097794Y-56119235D01*
X82052414Y-56222011D01*
X82049500Y-56247130D01*
X76425500Y-56247130D01*
X76425500Y-44294500D01*
X76444407Y-44236309D01*
X76493907Y-44200345D01*
X76524500Y-44195500D01*
X82308783Y-44195500D01*
X82366974Y-44214407D01*
X82396992Y-44249554D01*
X82473240Y-44399199D01*
X82584310Y-44552073D01*
X82717927Y-44685690D01*
X82870801Y-44796760D01*
X82870803Y-44796761D01*
X82955346Y-44839838D01*
X82998611Y-44883103D01*
X83008182Y-44943535D01*
X82980404Y-44998052D01*
X82955346Y-45016258D01*
X82766242Y-45112611D01*
X82587962Y-45242139D01*
X82432139Y-45397962D01*
X82302611Y-45576242D01*
X82202569Y-45772586D01*
X82134471Y-45982170D01*
X82122144Y-46059999D01*
X82122145Y-46060000D01*
X83066988Y-46060000D01*
X83034075Y-46117007D01*
X83000000Y-46244174D01*
X83000000Y-46375826D01*
X83034075Y-46502993D01*
X83066988Y-46560000D01*
X82122144Y-46560000D01*
X82134471Y-46637829D01*
X82202569Y-46847413D01*
X82302611Y-47043757D01*
X82432139Y-47222037D01*
X82587962Y-47377860D01*
X82766242Y-47507388D01*
X82962586Y-47607430D01*
X83172169Y-47675528D01*
X83249999Y-47687854D01*
X83250000Y-47687853D01*
X83250000Y-46743012D01*
X83307007Y-46775925D01*
X83434174Y-46810000D01*
X83565826Y-46810000D01*
X83692993Y-46775925D01*
X83750000Y-46743012D01*
X83750000Y-47687854D01*
X83827830Y-47675528D01*
X84037413Y-47607430D01*
X84233757Y-47507388D01*
X84412037Y-47377860D01*
X84567860Y-47222037D01*
X84697388Y-47043757D01*
X84797430Y-46847413D01*
X84865528Y-46637829D01*
X84877855Y-46560000D01*
X83933012Y-46560000D01*
X83965925Y-46502993D01*
X84000000Y-46375826D01*
X84000000Y-46244174D01*
X83965925Y-46117007D01*
X83933012Y-46060000D01*
X84877855Y-46060000D01*
X84877855Y-46059999D01*
X84865528Y-45982170D01*
X84797430Y-45772586D01*
X84697388Y-45576242D01*
X84567860Y-45397962D01*
X84412037Y-45242139D01*
X84233757Y-45112611D01*
X84044653Y-45016258D01*
X84001388Y-44972993D01*
X83991817Y-44912561D01*
X84019594Y-44858044D01*
X84044653Y-44839838D01*
X84129199Y-44796760D01*
X84282073Y-44685690D01*
X84415690Y-44552073D01*
X84526760Y-44399199D01*
X84612547Y-44230832D01*
X84670940Y-44051118D01*
X84670941Y-44051113D01*
X84700500Y-43864484D01*
X84700500Y-43675515D01*
X84670941Y-43488886D01*
X84651650Y-43429515D01*
X84612547Y-43309168D01*
X84526760Y-43140801D01*
X84415690Y-42987927D01*
X84282073Y-42854310D01*
X84129199Y-42743240D01*
X84129198Y-42743239D01*
X84129196Y-42743238D01*
X83960832Y-42657453D01*
X83781113Y-42599058D01*
X83773046Y-42597781D01*
X83718529Y-42570004D01*
X83690751Y-42515488D01*
X83700322Y-42455056D01*
X83743586Y-42411791D01*
X83773046Y-42402219D01*
X83781113Y-42400941D01*
X83781114Y-42400940D01*
X83781118Y-42400940D01*
X83960832Y-42342547D01*
X84129199Y-42256760D01*
X84282073Y-42145690D01*
X84415690Y-42012073D01*
X84526760Y-41859199D01*
X84612547Y-41690832D01*
X84670940Y-41511118D01*
X84674878Y-41486255D01*
X84700500Y-41324484D01*
X84700500Y-41135515D01*
X84670941Y-40948886D01*
X84661726Y-40920524D01*
X84612547Y-40769168D01*
X84526760Y-40600801D01*
X84415690Y-40447927D01*
X84282073Y-40314310D01*
X84129199Y-40203240D01*
X84129198Y-40203239D01*
X84129196Y-40203238D01*
X83960832Y-40117453D01*
X83856810Y-40083654D01*
X83807310Y-40047690D01*
X83788403Y-39989499D01*
X83807310Y-39931308D01*
X83856811Y-39895344D01*
X83887401Y-39890499D01*
X84444864Y-39890499D01*
X84469991Y-39887585D01*
X84572765Y-39842206D01*
X84652206Y-39762765D01*
X84697585Y-39659991D01*
X84700500Y-39634865D01*
X84700499Y-37745136D01*
X84697585Y-37720009D01*
X84652206Y-37617235D01*
X84572765Y-37537794D01*
X84469991Y-37492415D01*
X84469990Y-37492414D01*
X84469988Y-37492414D01*
X84444868Y-37489500D01*
X82555139Y-37489500D01*
X82555136Y-37489501D01*
X82530009Y-37492414D01*
X82427235Y-37537794D01*
X82347794Y-37617235D01*
X82302414Y-37720011D01*
X82299500Y-37745130D01*
X82299500Y-38040500D01*
X82280593Y-38098691D01*
X82231093Y-38134655D01*
X82200500Y-38139500D01*
X80072475Y-38139500D01*
X79927525Y-38139500D01*
X79865790Y-38156041D01*
X79787510Y-38177017D01*
X79661989Y-38249487D01*
X79559487Y-38351989D01*
X79487017Y-38477510D01*
X79449500Y-38617525D01*
X79449500Y-39350500D01*
X79430593Y-39408691D01*
X79381093Y-39444655D01*
X79350500Y-39449500D01*
X31273390Y-39449500D01*
X31235505Y-39441964D01*
X31231789Y-39440424D01*
X31172529Y-39424545D01*
X31079057Y-39399500D01*
X30920943Y-39399500D01*
X30768216Y-39440423D01*
X30631284Y-39519480D01*
X30519480Y-39631284D01*
X30440423Y-39768216D01*
X30399500Y-39920943D01*
X30399500Y-40079057D01*
X30440423Y-40231784D01*
X30519480Y-40368716D01*
X30631284Y-40480520D01*
X30768216Y-40559577D01*
X30920943Y-40600500D01*
X30920945Y-40600500D01*
X31079055Y-40600500D01*
X31079057Y-40600500D01*
X31231784Y-40559577D01*
X31231786Y-40559575D01*
X31231789Y-40559575D01*
X31235505Y-40558036D01*
X31273390Y-40550500D01*
X55629151Y-40550500D01*
X55687342Y-40569407D01*
X55723306Y-40618907D01*
X55723306Y-40680093D01*
X55687342Y-40729593D01*
X55659744Y-40743655D01*
X55500972Y-40795243D01*
X55318651Y-40888139D01*
X55318647Y-40888141D01*
X55274078Y-40920523D01*
X55953555Y-41600000D01*
X55947339Y-41600000D01*
X55845606Y-41627259D01*
X55754394Y-41679920D01*
X55679920Y-41754394D01*
X55627259Y-41845606D01*
X55600000Y-41947339D01*
X55600000Y-41953555D01*
X54920523Y-41274078D01*
X54888141Y-41318647D01*
X54888139Y-41318651D01*
X54795243Y-41500972D01*
X54732008Y-41695587D01*
X54700000Y-41897684D01*
X54700000Y-42102315D01*
X54732008Y-42304412D01*
X54795243Y-42499027D01*
X54888139Y-42681348D01*
X54888143Y-42681353D01*
X54920523Y-42725920D01*
X54920524Y-42725920D01*
X55600000Y-42046444D01*
X55600000Y-42052661D01*
X55627259Y-42154394D01*
X55679920Y-42245606D01*
X55754394Y-42320080D01*
X55845606Y-42372741D01*
X55947339Y-42400000D01*
X55953553Y-42400000D01*
X55274078Y-43079475D01*
X55318647Y-43111858D01*
X55500972Y-43204756D01*
X55695587Y-43267991D01*
X55897685Y-43300000D01*
X56102315Y-43300000D01*
X56304412Y-43267991D01*
X56499027Y-43204756D01*
X56681342Y-43111863D01*
X56681350Y-43111858D01*
X56725920Y-43079475D01*
X56046445Y-42400000D01*
X56052661Y-42400000D01*
X56154394Y-42372741D01*
X56245606Y-42320080D01*
X56320080Y-42245606D01*
X56372741Y-42154394D01*
X56400000Y-42052661D01*
X56400000Y-42046445D01*
X57079475Y-42725920D01*
X57111858Y-42681350D01*
X57111863Y-42681342D01*
X57204756Y-42499027D01*
X57267991Y-42304412D01*
X57300000Y-42102315D01*
X57300000Y-41897684D01*
X57267991Y-41695587D01*
X57204756Y-41500972D01*
X57111858Y-41318647D01*
X57079475Y-41274078D01*
X56400000Y-41953553D01*
X56400000Y-41947339D01*
X56372741Y-41845606D01*
X56320080Y-41754394D01*
X56245606Y-41679920D01*
X56154394Y-41627259D01*
X56052661Y-41600000D01*
X56046445Y-41600000D01*
X56725920Y-40920524D01*
X56725920Y-40920523D01*
X56681353Y-40888143D01*
X56681348Y-40888139D01*
X56499027Y-40795243D01*
X56340256Y-40743655D01*
X56290756Y-40707691D01*
X56271849Y-40649500D01*
X56290756Y-40591309D01*
X56340256Y-40555345D01*
X56370849Y-40550500D01*
X80072474Y-40550500D01*
X80072475Y-40550500D01*
X80212485Y-40512984D01*
X80212487Y-40512982D01*
X80212489Y-40512982D01*
X80338010Y-40440512D01*
X80338010Y-40440511D01*
X80338015Y-40440509D01*
X80440509Y-40338015D01*
X80501842Y-40231784D01*
X80512982Y-40212489D01*
X80512982Y-40212487D01*
X80512984Y-40212485D01*
X80550500Y-40072475D01*
X80550500Y-39339500D01*
X80569407Y-39281309D01*
X80618907Y-39245345D01*
X80649500Y-39240500D01*
X82200501Y-39240500D01*
X82258692Y-39259407D01*
X82294656Y-39308907D01*
X82299501Y-39339500D01*
X82299501Y-39634863D01*
X82302414Y-39659990D01*
X82327756Y-39717385D01*
X82347794Y-39762765D01*
X82427235Y-39842206D01*
X82530009Y-39887585D01*
X82555135Y-39890500D01*
X83112597Y-39890499D01*
X83170786Y-39909406D01*
X83206750Y-39958906D01*
X83206750Y-40020092D01*
X83170786Y-40069592D01*
X83143188Y-40083653D01*
X83039174Y-40117449D01*
X83039171Y-40117451D01*
X82870803Y-40203238D01*
X82717928Y-40314309D01*
X82584309Y-40447928D01*
X82473238Y-40600803D01*
X82418777Y-40707691D01*
X82400453Y-40743655D01*
X82396993Y-40750445D01*
X82353728Y-40793710D01*
X82308783Y-40804500D01*
X74056018Y-40804500D01*
X73943982Y-40804500D01*
X73877748Y-40822247D01*
X73835758Y-40833498D01*
X73738739Y-40889513D01*
X73659513Y-40968739D01*
X73603498Y-41065758D01*
X73574500Y-41173983D01*
X73574500Y-56475500D01*
X73555593Y-56533691D01*
X73506093Y-56569655D01*
X73475500Y-56574500D01*
X30436018Y-56574500D01*
X30323982Y-56574500D01*
X30257748Y-56592247D01*
X30215758Y-56603498D01*
X30118739Y-56659513D01*
X30039513Y-56738739D01*
X29983498Y-56835758D01*
X29954500Y-56943983D01*
X29954500Y-58148783D01*
X29935593Y-58206974D01*
X29900445Y-58236993D01*
X29750803Y-58313238D01*
X29597928Y-58424309D01*
X29464309Y-58557928D01*
X29353238Y-58710803D01*
X29267453Y-58879167D01*
X29209058Y-59058886D01*
X29179500Y-59245515D01*
X29179500Y-59434484D01*
X29209058Y-59621113D01*
X29267453Y-59800832D01*
X29344175Y-59951409D01*
X29353240Y-59969199D01*
X29464310Y-60122073D01*
X29597927Y-60255690D01*
X29750801Y-60366760D01*
X29750803Y-60366761D01*
X29902739Y-60444176D01*
X29946004Y-60487441D01*
X29955575Y-60547873D01*
X29954863Y-60551223D01*
X29954500Y-60553983D01*
X29954500Y-60688783D01*
X29935593Y-60746974D01*
X29900445Y-60776993D01*
X29750803Y-60853238D01*
X29597928Y-60964309D01*
X29464309Y-61097928D01*
X29353238Y-61250803D01*
X29267453Y-61419167D01*
X29209058Y-61598886D01*
X29179500Y-61785515D01*
X29179500Y-61974484D01*
X29209058Y-62161113D01*
X29267453Y-62340832D01*
X29344175Y-62491409D01*
X29353240Y-62509199D01*
X29464310Y-62662073D01*
X29597927Y-62795690D01*
X29750801Y-62906760D01*
X29919168Y-62992547D01*
X30098882Y-63050940D01*
X30098883Y-63050940D01*
X30098886Y-63050941D01*
X30106954Y-63052219D01*
X30161471Y-63079996D01*
X30189248Y-63134513D01*
X30179677Y-63194945D01*
X30136412Y-63238210D01*
X30106954Y-63247781D01*
X30098886Y-63249058D01*
X29919167Y-63307453D01*
X29750803Y-63393238D01*
X29597928Y-63504309D01*
X29464309Y-63637928D01*
X29353238Y-63790803D01*
X29267453Y-63959167D01*
X29209058Y-64138886D01*
X29179500Y-64325515D01*
X29179500Y-64514484D01*
X29209058Y-64701113D01*
X29267453Y-64880832D01*
X29344175Y-65031409D01*
X29353240Y-65049199D01*
X29464310Y-65202073D01*
X29597927Y-65335690D01*
X29750801Y-65446760D01*
X29919168Y-65532547D01*
X30098882Y-65590940D01*
X30098883Y-65590940D01*
X30098886Y-65590941D01*
X30106954Y-65592219D01*
X30161471Y-65619996D01*
X30189248Y-65674513D01*
X30179677Y-65734945D01*
X30136412Y-65778210D01*
X30106954Y-65787781D01*
X30098886Y-65789058D01*
X29919167Y-65847453D01*
X29750803Y-65933238D01*
X29597928Y-66044309D01*
X29464309Y-66177928D01*
X29353238Y-66330803D01*
X29267453Y-66499167D01*
X29209058Y-66678886D01*
X29179500Y-66865515D01*
X29179500Y-67054484D01*
X29209058Y-67241113D01*
X29267453Y-67420832D01*
X29344175Y-67571409D01*
X29353240Y-67589199D01*
X29464310Y-67742073D01*
X29597927Y-67875690D01*
X29750801Y-67986760D01*
X29919168Y-68072547D01*
X30098882Y-68130940D01*
X30098883Y-68130940D01*
X30098886Y-68130941D01*
X30106954Y-68132219D01*
X30161471Y-68159996D01*
X30189248Y-68214513D01*
X30179677Y-68274945D01*
X30136412Y-68318210D01*
X30106954Y-68327781D01*
X30098886Y-68329058D01*
X29919167Y-68387453D01*
X29750803Y-68473238D01*
X29597928Y-68584309D01*
X29464309Y-68717928D01*
X29353238Y-68870803D01*
X29267453Y-69039167D01*
X29209058Y-69218886D01*
X29179500Y-69405515D01*
X29179500Y-69594484D01*
X29209058Y-69781113D01*
X29267453Y-69960832D01*
X29336021Y-70095406D01*
X29353240Y-70129199D01*
X29367631Y-70149007D01*
X29395460Y-70187309D01*
X29414367Y-70245500D01*
X29395460Y-70303691D01*
X29345960Y-70339655D01*
X29315367Y-70344500D01*
X24524500Y-70344500D01*
X24466309Y-70325593D01*
X24430345Y-70276093D01*
X24425500Y-70245500D01*
X24425500Y-51524500D01*
X24444407Y-51466309D01*
X24493907Y-51430345D01*
X24524500Y-51425500D01*
X26756016Y-51425500D01*
X26756018Y-51425500D01*
X26864237Y-51396503D01*
X26864239Y-51396501D01*
X26864241Y-51396501D01*
X26893064Y-51379859D01*
X26961263Y-51340485D01*
X27040485Y-51261263D01*
X27096503Y-51164237D01*
X27125500Y-51056018D01*
X27125500Y-51039942D01*
X27144407Y-50981751D01*
X27186616Y-50948478D01*
X27203282Y-50941575D01*
X27377304Y-50825298D01*
X27525298Y-50677304D01*
X27641575Y-50503282D01*
X27721669Y-50309920D01*
X27762500Y-50104647D01*
X27762500Y-49895353D01*
X27721669Y-49690080D01*
X27641575Y-49496718D01*
X27525298Y-49322696D01*
X27377304Y-49174702D01*
X27203282Y-49058425D01*
X27203283Y-49058425D01*
X27203281Y-49058424D01*
X27009923Y-48978332D01*
X27009917Y-48978330D01*
X26804649Y-48937500D01*
X26804647Y-48937500D01*
X26595353Y-48937500D01*
X26595350Y-48937500D01*
X26390082Y-48978330D01*
X26390076Y-48978332D01*
X26196718Y-49058424D01*
X26022699Y-49174699D01*
X25874699Y-49322699D01*
X25758424Y-49496718D01*
X25678332Y-49690076D01*
X25678330Y-49690082D01*
X25637500Y-49895350D01*
X25637500Y-50104649D01*
X25678330Y-50309917D01*
X25678332Y-50309923D01*
X25731224Y-50437614D01*
X25736025Y-50498611D01*
X25704056Y-50550780D01*
X25647528Y-50574195D01*
X25639760Y-50574500D01*
X24056018Y-50574500D01*
X23943982Y-50574500D01*
X23877748Y-50592247D01*
X23835758Y-50603498D01*
X23738739Y-50659513D01*
X23659513Y-50738739D01*
X23603498Y-50835758D01*
X23603497Y-50835763D01*
X23574500Y-50943982D01*
X23574500Y-70713982D01*
X23574500Y-70826018D01*
X23592236Y-70892211D01*
X23603498Y-70934241D01*
X23639516Y-70996624D01*
X23659515Y-71031263D01*
X23738737Y-71110485D01*
X23738739Y-71110486D01*
X23835759Y-71166501D01*
X23835757Y-71166501D01*
X23835761Y-71166502D01*
X23835763Y-71166503D01*
X23943982Y-71195500D01*
X29315367Y-71195500D01*
X29373558Y-71214407D01*
X29409522Y-71263907D01*
X29409522Y-71325093D01*
X29395460Y-71352689D01*
X29377385Y-71377567D01*
X29353238Y-71410803D01*
X29267453Y-71579167D01*
X29209058Y-71758886D01*
X29179500Y-71945515D01*
X29179500Y-72134484D01*
X29209058Y-72321113D01*
X29267453Y-72500832D01*
X29352258Y-72667273D01*
X29353240Y-72669199D01*
X29464310Y-72822073D01*
X29597927Y-72955690D01*
X29597930Y-72955692D01*
X29598168Y-72955930D01*
X29625945Y-73010447D01*
X29616374Y-73070879D01*
X29598168Y-73095937D01*
X28828720Y-73865386D01*
X28828716Y-73865391D01*
X28775995Y-73956706D01*
X28775993Y-73956710D01*
X28775993Y-73956712D01*
X28758783Y-74020943D01*
X28748700Y-74058573D01*
X28748700Y-78376473D01*
X28748700Y-78481927D01*
X28760420Y-78525668D01*
X28775994Y-78583792D01*
X28828716Y-78675108D01*
X28828720Y-78675113D01*
X29245668Y-79092062D01*
X29273445Y-79146578D01*
X29267697Y-79195157D01*
X29268655Y-79195469D01*
X29209058Y-79378886D01*
X29179500Y-79565515D01*
X29179500Y-79754484D01*
X29209058Y-79941113D01*
X29267453Y-80120832D01*
X29295307Y-80175500D01*
X29353240Y-80289199D01*
X29464310Y-80442073D01*
X29597927Y-80575690D01*
X29750801Y-80686760D01*
X29919168Y-80772547D01*
X30098882Y-80830940D01*
X30098883Y-80830940D01*
X30098886Y-80830941D01*
X30285516Y-80860500D01*
X30285519Y-80860500D01*
X30474484Y-80860500D01*
X30661113Y-80830941D01*
X30661114Y-80830940D01*
X30661118Y-80830940D01*
X30840832Y-80772547D01*
X31009199Y-80686760D01*
X31162073Y-80575690D01*
X31295690Y-80442073D01*
X31320908Y-80407362D01*
X31370407Y-80371400D01*
X31431593Y-80371400D01*
X31481093Y-80407364D01*
X31500000Y-80465555D01*
X31500000Y-81400500D01*
X31481093Y-81458691D01*
X31431593Y-81494655D01*
X31401000Y-81499500D01*
X23002985Y-81499500D01*
X22997008Y-81499319D01*
X22973564Y-81497900D01*
X22704695Y-81481637D01*
X22692828Y-81480196D01*
X22407722Y-81427948D01*
X22396114Y-81425087D01*
X22119384Y-81338855D01*
X22108206Y-81334616D01*
X21843881Y-81215652D01*
X21833303Y-81210100D01*
X21585233Y-81060138D01*
X21575413Y-81053359D01*
X21347244Y-80874599D01*
X21338295Y-80866672D01*
X21133327Y-80661704D01*
X21125400Y-80652755D01*
X21065023Y-80575690D01*
X20946638Y-80424583D01*
X20939864Y-80414770D01*
X20789895Y-80166690D01*
X20784347Y-80156118D01*
X20758142Y-80097894D01*
X20665380Y-79891786D01*
X20661147Y-79880623D01*
X20574911Y-79603882D01*
X20572051Y-79592277D01*
X20519802Y-79307164D01*
X20518362Y-79295303D01*
X20513934Y-79222105D01*
X20500681Y-79002992D01*
X20500500Y-78997015D01*
X20500500Y-76878710D01*
X21649500Y-76878710D01*
X21649500Y-77121289D01*
X21681161Y-77361781D01*
X21681161Y-77361786D01*
X21743944Y-77596092D01*
X21743948Y-77596105D01*
X21836772Y-77820204D01*
X21836774Y-77820208D01*
X21836776Y-77820212D01*
X21958064Y-78030289D01*
X21958066Y-78030292D01*
X22105729Y-78222731D01*
X22105731Y-78222733D01*
X22105735Y-78222738D01*
X22277262Y-78394265D01*
X22277266Y-78394268D01*
X22277268Y-78394270D01*
X22448510Y-78525668D01*
X22469711Y-78541936D01*
X22679788Y-78663224D01*
X22903900Y-78756054D01*
X23138211Y-78818838D01*
X23378712Y-78850500D01*
X23378713Y-78850500D01*
X23621287Y-78850500D01*
X23621288Y-78850500D01*
X23861789Y-78818838D01*
X24096100Y-78756054D01*
X24320212Y-78663224D01*
X24530289Y-78541936D01*
X24722738Y-78394265D01*
X24894265Y-78222738D01*
X25041936Y-78030289D01*
X25163224Y-77820212D01*
X25256054Y-77596100D01*
X25318838Y-77361789D01*
X25350500Y-77121288D01*
X25350500Y-76878712D01*
X25318838Y-76638211D01*
X25256054Y-76403900D01*
X25163224Y-76179788D01*
X25041936Y-75969711D01*
X25026090Y-75949060D01*
X24894270Y-75777268D01*
X24894268Y-75777266D01*
X24894265Y-75777262D01*
X24722738Y-75605735D01*
X24722733Y-75605731D01*
X24722731Y-75605729D01*
X24530292Y-75458066D01*
X24530289Y-75458064D01*
X24320212Y-75336776D01*
X24320208Y-75336774D01*
X24320204Y-75336772D01*
X24096105Y-75243948D01*
X24096104Y-75243947D01*
X24096100Y-75243946D01*
X23861789Y-75181162D01*
X23861786Y-75181161D01*
X23861784Y-75181161D01*
X23621289Y-75149500D01*
X23621288Y-75149500D01*
X23378712Y-75149500D01*
X23378710Y-75149500D01*
X23138218Y-75181161D01*
X23138213Y-75181161D01*
X22903907Y-75243944D01*
X22903894Y-75243948D01*
X22679795Y-75336772D01*
X22469707Y-75458066D01*
X22277268Y-75605729D01*
X22105729Y-75777268D01*
X21958066Y-75969707D01*
X21836772Y-76179795D01*
X21743948Y-76403894D01*
X21743944Y-76403907D01*
X21681161Y-76638213D01*
X21681161Y-76638218D01*
X21649500Y-76878710D01*
X20500500Y-76878710D01*
X20500500Y-47360674D01*
X25438000Y-47360674D01*
X25438000Y-47559325D01*
X25469073Y-47755514D01*
X25530459Y-47944440D01*
X25620637Y-48121425D01*
X25647729Y-48158714D01*
X26319000Y-47487443D01*
X26319000Y-47510160D01*
X26344964Y-47607061D01*
X26395124Y-47693940D01*
X26466060Y-47764876D01*
X26552939Y-47815036D01*
X26649840Y-47841000D01*
X26672553Y-47841000D01*
X26001283Y-48512270D01*
X26038564Y-48539357D01*
X26038568Y-48539359D01*
X26215559Y-48629540D01*
X26404485Y-48690926D01*
X26600675Y-48722000D01*
X26799325Y-48722000D01*
X26995514Y-48690926D01*
X27184440Y-48629540D01*
X27361434Y-48539357D01*
X27398715Y-48512270D01*
X26727445Y-47841000D01*
X26750160Y-47841000D01*
X26847061Y-47815036D01*
X26933940Y-47764876D01*
X27004876Y-47693940D01*
X27055036Y-47607061D01*
X27081000Y-47510160D01*
X27081000Y-47487445D01*
X27752270Y-48158715D01*
X27779357Y-48121434D01*
X27869540Y-47944440D01*
X27930926Y-47755514D01*
X27962000Y-47559325D01*
X27962000Y-47360674D01*
X27930926Y-47164485D01*
X27869540Y-46975559D01*
X27779359Y-46798568D01*
X27779357Y-46798564D01*
X27752270Y-46761283D01*
X27081000Y-47432553D01*
X27081000Y-47409840D01*
X27055036Y-47312939D01*
X27004876Y-47226060D01*
X26933940Y-47155124D01*
X26847061Y-47104964D01*
X26750160Y-47079000D01*
X26727443Y-47079000D01*
X27398714Y-46407729D01*
X27361425Y-46380637D01*
X27184440Y-46290459D01*
X26995514Y-46229073D01*
X26799325Y-46198000D01*
X26600675Y-46198000D01*
X26404485Y-46229073D01*
X26215559Y-46290459D01*
X26038567Y-46380641D01*
X26001283Y-46407728D01*
X26672555Y-47079000D01*
X26649840Y-47079000D01*
X26552939Y-47104964D01*
X26466060Y-47155124D01*
X26395124Y-47226060D01*
X26344964Y-47312939D01*
X26319000Y-47409840D01*
X26319000Y-47432555D01*
X25647728Y-46761283D01*
X25620641Y-46798567D01*
X25530459Y-46975559D01*
X25469073Y-47164485D01*
X25438000Y-47360674D01*
X20500500Y-47360674D01*
X20500500Y-44815350D01*
X25637500Y-44815350D01*
X25637500Y-45024649D01*
X25678330Y-45229917D01*
X25678332Y-45229923D01*
X25758424Y-45423281D01*
X25758425Y-45423282D01*
X25874702Y-45597304D01*
X26022696Y-45745298D01*
X26196718Y-45861575D01*
X26390080Y-45941669D01*
X26595353Y-45982500D01*
X26595354Y-45982500D01*
X26804646Y-45982500D01*
X26804647Y-45982500D01*
X27009920Y-45941669D01*
X27203282Y-45861575D01*
X27377304Y-45745298D01*
X27525298Y-45597304D01*
X27641575Y-45423282D01*
X27721669Y-45229920D01*
X27762500Y-45024647D01*
X27762500Y-44815353D01*
X27721669Y-44610080D01*
X27641575Y-44416718D01*
X27525298Y-44242696D01*
X27377304Y-44094702D01*
X27377300Y-44094699D01*
X27203281Y-43978424D01*
X27009923Y-43898332D01*
X27009917Y-43898330D01*
X26804649Y-43857500D01*
X26804647Y-43857500D01*
X26595353Y-43857500D01*
X26595350Y-43857500D01*
X26390082Y-43898330D01*
X26390076Y-43898332D01*
X26196718Y-43978424D01*
X26022699Y-44094699D01*
X25874699Y-44242699D01*
X25758424Y-44416718D01*
X25678332Y-44610076D01*
X25678330Y-44610082D01*
X25637500Y-44815350D01*
X20500500Y-44815350D01*
X20500500Y-42275350D01*
X25637500Y-42275350D01*
X25637500Y-42484649D01*
X25678330Y-42689917D01*
X25678332Y-42689923D01*
X25758424Y-42883281D01*
X25874699Y-43057300D01*
X25874702Y-43057304D01*
X26022696Y-43205298D01*
X26196718Y-43321575D01*
X26390080Y-43401669D01*
X26595353Y-43442500D01*
X26595354Y-43442500D01*
X26804646Y-43442500D01*
X26804647Y-43442500D01*
X27009920Y-43401669D01*
X27203282Y-43321575D01*
X27377304Y-43205298D01*
X27525298Y-43057304D01*
X27641575Y-42883282D01*
X27721669Y-42689920D01*
X27762500Y-42484647D01*
X27762500Y-42275353D01*
X27721669Y-42070080D01*
X27641575Y-41876718D01*
X27525298Y-41702696D01*
X27377304Y-41554702D01*
X27312075Y-41511118D01*
X27274865Y-41486255D01*
X27203281Y-41438424D01*
X27127159Y-41406893D01*
X51399500Y-41406893D01*
X51399500Y-42593106D01*
X51410123Y-42681565D01*
X51465637Y-42822339D01*
X51465638Y-42822341D01*
X51465639Y-42822342D01*
X51557078Y-42942922D01*
X51677658Y-43034361D01*
X51677659Y-43034361D01*
X51677660Y-43034362D01*
X51735827Y-43057300D01*
X51818436Y-43089877D01*
X51906898Y-43100500D01*
X51906900Y-43100500D01*
X53093100Y-43100500D01*
X53093102Y-43100500D01*
X53181564Y-43089877D01*
X53322342Y-43034361D01*
X53442922Y-42942922D01*
X53534361Y-42822342D01*
X53589877Y-42681564D01*
X53600500Y-42593102D01*
X53600500Y-41406898D01*
X53589877Y-41318436D01*
X53534361Y-41177658D01*
X53442922Y-41057078D01*
X53322342Y-40965639D01*
X53322341Y-40965638D01*
X53322339Y-40965637D01*
X53181565Y-40910123D01*
X53093106Y-40899500D01*
X53093102Y-40899500D01*
X51906898Y-40899500D01*
X51906893Y-40899500D01*
X51818434Y-40910123D01*
X51677660Y-40965637D01*
X51677656Y-40965640D01*
X51557081Y-41057075D01*
X51557075Y-41057081D01*
X51465640Y-41177656D01*
X51465637Y-41177660D01*
X51410123Y-41318434D01*
X51399500Y-41406893D01*
X27127159Y-41406893D01*
X27009923Y-41358332D01*
X27009917Y-41358330D01*
X26804649Y-41317500D01*
X26804647Y-41317500D01*
X26595353Y-41317500D01*
X26595350Y-41317500D01*
X26390082Y-41358330D01*
X26390076Y-41358332D01*
X26196718Y-41438424D01*
X26022699Y-41554699D01*
X25874699Y-41702699D01*
X25758424Y-41876718D01*
X25678332Y-42070076D01*
X25678330Y-42070082D01*
X25637500Y-42275350D01*
X20500500Y-42275350D01*
X20500500Y-39735350D01*
X25637500Y-39735350D01*
X25637500Y-39944649D01*
X25678330Y-40149917D01*
X25678332Y-40149923D01*
X25758424Y-40343281D01*
X25850123Y-40480519D01*
X25874702Y-40517304D01*
X26022696Y-40665298D01*
X26196718Y-40781575D01*
X26390080Y-40861669D01*
X26595353Y-40902500D01*
X26595354Y-40902500D01*
X26804646Y-40902500D01*
X26804647Y-40902500D01*
X27009920Y-40861669D01*
X27203282Y-40781575D01*
X27377304Y-40665298D01*
X27525298Y-40517304D01*
X27641575Y-40343282D01*
X27721669Y-40149920D01*
X27762500Y-39944647D01*
X27762500Y-39735353D01*
X27721669Y-39530080D01*
X27641575Y-39336718D01*
X27525298Y-39162696D01*
X27377304Y-39014702D01*
X27203282Y-38898425D01*
X27203283Y-38898425D01*
X27203281Y-38898424D01*
X27009923Y-38818332D01*
X27009917Y-38818330D01*
X26804649Y-38777500D01*
X26804647Y-38777500D01*
X26595353Y-38777500D01*
X26595350Y-38777500D01*
X26390082Y-38818330D01*
X26390076Y-38818332D01*
X26196718Y-38898424D01*
X26022699Y-39014699D01*
X25874699Y-39162699D01*
X25758424Y-39336718D01*
X25678332Y-39530076D01*
X25678330Y-39530082D01*
X25637500Y-39735350D01*
X20500500Y-39735350D01*
X20500500Y-37195350D01*
X25637500Y-37195350D01*
X25637500Y-37404649D01*
X25678330Y-37609917D01*
X25678332Y-37609923D01*
X25758424Y-37803281D01*
X25758425Y-37803282D01*
X25874702Y-37977304D01*
X26022696Y-38125298D01*
X26196718Y-38241575D01*
X26390080Y-38321669D01*
X26595353Y-38362500D01*
X26595354Y-38362500D01*
X26804646Y-38362500D01*
X26804647Y-38362500D01*
X27009920Y-38321669D01*
X27203282Y-38241575D01*
X27377304Y-38125298D01*
X27525298Y-37977304D01*
X27641575Y-37803282D01*
X27721669Y-37609920D01*
X27762500Y-37404647D01*
X27762500Y-37195353D01*
X27721669Y-36990080D01*
X27641575Y-36796718D01*
X27525298Y-36622696D01*
X27377304Y-36474702D01*
X27203282Y-36358425D01*
X27203283Y-36358425D01*
X27203281Y-36358424D01*
X27009923Y-36278332D01*
X27009917Y-36278330D01*
X26804649Y-36237500D01*
X26804647Y-36237500D01*
X26595353Y-36237500D01*
X26595350Y-36237500D01*
X26390082Y-36278330D01*
X26390076Y-36278332D01*
X26196718Y-36358424D01*
X26022699Y-36474699D01*
X25874699Y-36622699D01*
X25758424Y-36796718D01*
X25678332Y-36990076D01*
X25678330Y-36990082D01*
X25637500Y-37195350D01*
X20500500Y-37195350D01*
X20500500Y-34660674D01*
X25438000Y-34660674D01*
X25438000Y-34859325D01*
X25469073Y-35055514D01*
X25530459Y-35244440D01*
X25620637Y-35421425D01*
X25647729Y-35458714D01*
X26319000Y-34787443D01*
X26319000Y-34810160D01*
X26344964Y-34907061D01*
X26395124Y-34993940D01*
X26466060Y-35064876D01*
X26552939Y-35115036D01*
X26649840Y-35141000D01*
X26672553Y-35141000D01*
X26001283Y-35812270D01*
X26038564Y-35839357D01*
X26038568Y-35839359D01*
X26215559Y-35929540D01*
X26404485Y-35990926D01*
X26600675Y-36022000D01*
X26799325Y-36022000D01*
X26995514Y-35990926D01*
X27184440Y-35929540D01*
X27361434Y-35839357D01*
X27398715Y-35812270D01*
X26727445Y-35141000D01*
X26750160Y-35141000D01*
X26847061Y-35115036D01*
X26933940Y-35064876D01*
X27004876Y-34993940D01*
X27055036Y-34907061D01*
X27081000Y-34810160D01*
X27081000Y-34787445D01*
X27752270Y-35458715D01*
X27779357Y-35421434D01*
X27869540Y-35244440D01*
X27930926Y-35055514D01*
X27962000Y-34859325D01*
X27962000Y-34660674D01*
X27930926Y-34464485D01*
X27869540Y-34275559D01*
X27779359Y-34098568D01*
X27779357Y-34098564D01*
X27752270Y-34061283D01*
X27081000Y-34732553D01*
X27081000Y-34709840D01*
X27055036Y-34612939D01*
X27004876Y-34526060D01*
X26933940Y-34455124D01*
X26847061Y-34404964D01*
X26750160Y-34379000D01*
X26727443Y-34379000D01*
X27398714Y-33707729D01*
X27361425Y-33680637D01*
X27184440Y-33590459D01*
X26995514Y-33529073D01*
X26799325Y-33498000D01*
X26600675Y-33498000D01*
X26404485Y-33529073D01*
X26215559Y-33590459D01*
X26038567Y-33680641D01*
X26001283Y-33707728D01*
X26672555Y-34379000D01*
X26649840Y-34379000D01*
X26552939Y-34404964D01*
X26466060Y-34455124D01*
X26395124Y-34526060D01*
X26344964Y-34612939D01*
X26319000Y-34709840D01*
X26319000Y-34732555D01*
X25647728Y-34061283D01*
X25620641Y-34098567D01*
X25530459Y-34275559D01*
X25469073Y-34464485D01*
X25438000Y-34660674D01*
X20500500Y-34660674D01*
X20500500Y-32115350D01*
X25637500Y-32115350D01*
X25637500Y-32324649D01*
X25678330Y-32529917D01*
X25678332Y-32529923D01*
X25758424Y-32723281D01*
X25758425Y-32723282D01*
X25874702Y-32897304D01*
X26022696Y-33045298D01*
X26196718Y-33161575D01*
X26390080Y-33241669D01*
X26595353Y-33282500D01*
X26595354Y-33282500D01*
X26804646Y-33282500D01*
X26804647Y-33282500D01*
X27009920Y-33241669D01*
X27203282Y-33161575D01*
X27377304Y-33045298D01*
X27525298Y-32897304D01*
X27641575Y-32723282D01*
X27721669Y-32529920D01*
X27762500Y-32324647D01*
X27762500Y-32115353D01*
X27721669Y-31910080D01*
X27641575Y-31716718D01*
X27525298Y-31542696D01*
X27377304Y-31394702D01*
X27203282Y-31278425D01*
X27203283Y-31278425D01*
X27203281Y-31278424D01*
X27009923Y-31198332D01*
X27009917Y-31198330D01*
X26804649Y-31157500D01*
X26804647Y-31157500D01*
X26595353Y-31157500D01*
X26595350Y-31157500D01*
X26390082Y-31198330D01*
X26390076Y-31198332D01*
X26196718Y-31278424D01*
X26022699Y-31394699D01*
X25874699Y-31542699D01*
X25758424Y-31716718D01*
X25678332Y-31910076D01*
X25678330Y-31910082D01*
X25637500Y-32115350D01*
X20500500Y-32115350D01*
X20500500Y-28831893D01*
X51824500Y-28831893D01*
X51824500Y-31168106D01*
X51835123Y-31256565D01*
X51890637Y-31397339D01*
X51890638Y-31397341D01*
X51890639Y-31397342D01*
X51982078Y-31517922D01*
X52102658Y-31609361D01*
X52102659Y-31609361D01*
X52102660Y-31609362D01*
X52173047Y-31637119D01*
X52243436Y-31664877D01*
X52331898Y-31675500D01*
X52331900Y-31675500D01*
X54668100Y-31675500D01*
X54668102Y-31675500D01*
X54756564Y-31664877D01*
X54897342Y-31609361D01*
X55017922Y-31517922D01*
X55109361Y-31397342D01*
X55164877Y-31256564D01*
X55175500Y-31168102D01*
X55175500Y-28831898D01*
X55164877Y-28743436D01*
X55109361Y-28602658D01*
X55017922Y-28482078D01*
X54897342Y-28390639D01*
X54897341Y-28390638D01*
X54897339Y-28390637D01*
X54756565Y-28335123D01*
X54668106Y-28324500D01*
X54668102Y-28324500D01*
X52331898Y-28324500D01*
X52331893Y-28324500D01*
X52243434Y-28335123D01*
X52102660Y-28390637D01*
X52102656Y-28390640D01*
X51982081Y-28482075D01*
X51982075Y-28482081D01*
X51890640Y-28602656D01*
X51890637Y-28602660D01*
X51835123Y-28743434D01*
X51824500Y-28831893D01*
X20500500Y-28831893D01*
X20500500Y-24878710D01*
X22149500Y-24878710D01*
X22149500Y-25121289D01*
X22181161Y-25361781D01*
X22181161Y-25361786D01*
X22243944Y-25596092D01*
X22243948Y-25596105D01*
X22336772Y-25820204D01*
X22336774Y-25820208D01*
X22336776Y-25820212D01*
X22458064Y-26030289D01*
X22458066Y-26030292D01*
X22605729Y-26222731D01*
X22605731Y-26222733D01*
X22605735Y-26222738D01*
X22777262Y-26394265D01*
X22777266Y-26394268D01*
X22777268Y-26394270D01*
X22840668Y-26442918D01*
X22969711Y-26541936D01*
X23179788Y-26663224D01*
X23403900Y-26756054D01*
X23638211Y-26818838D01*
X23878712Y-26850500D01*
X23878713Y-26850500D01*
X24121287Y-26850500D01*
X24121288Y-26850500D01*
X24361789Y-26818838D01*
X24596100Y-26756054D01*
X24820212Y-26663224D01*
X25030289Y-26541936D01*
X25222738Y-26394265D01*
X25394265Y-26222738D01*
X25541936Y-26030289D01*
X25663224Y-25820212D01*
X25756054Y-25596100D01*
X25818838Y-25361789D01*
X25850500Y-25121288D01*
X25850500Y-24878712D01*
X25818838Y-24638211D01*
X25775669Y-24477105D01*
X51625000Y-24477105D01*
X51625000Y-24722894D01*
X51657081Y-24966571D01*
X51657081Y-24966576D01*
X51720695Y-25203984D01*
X51720699Y-25203997D01*
X51814753Y-25431067D01*
X51814755Y-25431072D01*
X51937647Y-25643926D01*
X52009229Y-25737215D01*
X52727545Y-25018898D01*
X52820343Y-25157780D01*
X52942220Y-25279657D01*
X53081099Y-25372452D01*
X52362783Y-26090769D01*
X52456073Y-26162352D01*
X52668927Y-26285244D01*
X52668932Y-26285246D01*
X52896002Y-26379300D01*
X52896015Y-26379304D01*
X53133425Y-26442918D01*
X53377105Y-26474999D01*
X53377107Y-26475000D01*
X53622893Y-26475000D01*
X53622894Y-26474999D01*
X53866571Y-26442918D01*
X53866576Y-26442918D01*
X54103984Y-26379304D01*
X54103997Y-26379300D01*
X54331067Y-26285246D01*
X54331072Y-26285244D01*
X54543922Y-26162355D01*
X54637215Y-26090769D01*
X53918899Y-25372453D01*
X54057780Y-25279657D01*
X54179657Y-25157780D01*
X54272453Y-25018899D01*
X54990769Y-25737215D01*
X55062355Y-25643922D01*
X55185244Y-25431072D01*
X55185246Y-25431067D01*
X55279300Y-25203997D01*
X55279304Y-25203984D01*
X55342918Y-24966576D01*
X55342918Y-24966571D01*
X55354486Y-24878710D01*
X88149500Y-24878710D01*
X88149500Y-25121289D01*
X88181161Y-25361781D01*
X88181161Y-25361786D01*
X88243944Y-25596092D01*
X88243948Y-25596105D01*
X88336772Y-25820204D01*
X88336774Y-25820208D01*
X88336776Y-25820212D01*
X88458064Y-26030289D01*
X88458066Y-26030292D01*
X88605729Y-26222731D01*
X88605731Y-26222733D01*
X88605735Y-26222738D01*
X88777262Y-26394265D01*
X88777266Y-26394268D01*
X88777268Y-26394270D01*
X88840668Y-26442918D01*
X88969711Y-26541936D01*
X89179788Y-26663224D01*
X89403900Y-26756054D01*
X89638211Y-26818838D01*
X89878712Y-26850500D01*
X89878713Y-26850500D01*
X90121287Y-26850500D01*
X90121288Y-26850500D01*
X90361789Y-26818838D01*
X90596100Y-26756054D01*
X90820212Y-26663224D01*
X91030289Y-26541936D01*
X91222738Y-26394265D01*
X91394265Y-26222738D01*
X91541936Y-26030289D01*
X91663224Y-25820212D01*
X91756054Y-25596100D01*
X91818838Y-25361789D01*
X91850500Y-25121288D01*
X91850500Y-24878712D01*
X91818838Y-24638211D01*
X91756054Y-24403900D01*
X91663224Y-24179788D01*
X91541936Y-23969711D01*
X91394265Y-23777262D01*
X91222738Y-23605735D01*
X91222733Y-23605731D01*
X91222731Y-23605729D01*
X91030292Y-23458066D01*
X91030289Y-23458064D01*
X90820212Y-23336776D01*
X90820208Y-23336774D01*
X90820204Y-23336772D01*
X90596105Y-23243948D01*
X90596104Y-23243947D01*
X90596100Y-23243946D01*
X90361789Y-23181162D01*
X90361786Y-23181161D01*
X90361784Y-23181161D01*
X90121289Y-23149500D01*
X90121288Y-23149500D01*
X89878712Y-23149500D01*
X89878710Y-23149500D01*
X89638218Y-23181161D01*
X89638213Y-23181161D01*
X89403907Y-23243944D01*
X89403894Y-23243948D01*
X89179795Y-23336772D01*
X88969707Y-23458066D01*
X88777268Y-23605729D01*
X88605729Y-23777268D01*
X88458066Y-23969707D01*
X88336772Y-24179795D01*
X88243948Y-24403894D01*
X88243944Y-24403907D01*
X88181161Y-24638213D01*
X88181161Y-24638218D01*
X88149500Y-24878710D01*
X55354486Y-24878710D01*
X55356614Y-24862549D01*
X55374999Y-24722894D01*
X55375000Y-24722893D01*
X55375000Y-24477107D01*
X55374999Y-24477105D01*
X55342918Y-24233428D01*
X55342918Y-24233423D01*
X55279304Y-23996015D01*
X55279300Y-23996002D01*
X55185246Y-23768932D01*
X55185244Y-23768927D01*
X55062352Y-23556073D01*
X54990768Y-23462783D01*
X54272452Y-24181098D01*
X54179657Y-24042220D01*
X54057780Y-23920343D01*
X53918898Y-23827545D01*
X54637215Y-23109229D01*
X54543926Y-23037647D01*
X54331072Y-22914755D01*
X54331067Y-22914753D01*
X54103997Y-22820699D01*
X54103984Y-22820695D01*
X53866574Y-22757081D01*
X53622894Y-22725000D01*
X53377105Y-22725000D01*
X53133428Y-22757081D01*
X53133423Y-22757081D01*
X52896015Y-22820695D01*
X52896002Y-22820699D01*
X52668932Y-22914753D01*
X52668927Y-22914755D01*
X52456078Y-23037644D01*
X52362783Y-23109229D01*
X53081100Y-23827546D01*
X52942220Y-23920343D01*
X52820343Y-24042220D01*
X52727546Y-24181100D01*
X52009229Y-23462783D01*
X51937644Y-23556078D01*
X51814755Y-23768927D01*
X51814753Y-23768932D01*
X51720699Y-23996002D01*
X51720695Y-23996015D01*
X51657081Y-24233423D01*
X51657081Y-24233428D01*
X51625000Y-24477105D01*
X25775669Y-24477105D01*
X25756054Y-24403900D01*
X25663224Y-24179788D01*
X25541936Y-23969711D01*
X25394265Y-23777262D01*
X25222738Y-23605735D01*
X25222733Y-23605731D01*
X25222731Y-23605729D01*
X25030292Y-23458066D01*
X25030289Y-23458064D01*
X24820212Y-23336776D01*
X24820208Y-23336774D01*
X24820204Y-23336772D01*
X24596105Y-23243948D01*
X24596104Y-23243947D01*
X24596100Y-23243946D01*
X24596089Y-23243943D01*
X24593100Y-23243142D01*
X24593099Y-23243142D01*
X24361789Y-23181162D01*
X24361786Y-23181161D01*
X24361784Y-23181161D01*
X24121289Y-23149500D01*
X24121288Y-23149500D01*
X23878712Y-23149500D01*
X23878710Y-23149500D01*
X23638218Y-23181161D01*
X23638213Y-23181161D01*
X23403907Y-23243944D01*
X23403894Y-23243948D01*
X23179795Y-23336772D01*
X22969707Y-23458066D01*
X22777268Y-23605729D01*
X22605729Y-23777268D01*
X22458066Y-23969707D01*
X22336772Y-24179795D01*
X22243948Y-24403894D01*
X22243944Y-24403907D01*
X22181161Y-24638213D01*
X22181161Y-24638218D01*
X22149500Y-24878710D01*
X20500500Y-24878710D01*
X20500500Y-23002984D01*
X20500681Y-22997007D01*
X20510902Y-22828031D01*
X20518362Y-22704688D01*
X20519801Y-22692837D01*
X20572052Y-22407715D01*
X20574912Y-22396114D01*
X20661148Y-22119370D01*
X20665378Y-22108218D01*
X20784350Y-21843875D01*
X20789891Y-21833315D01*
X20939868Y-21585221D01*
X20946632Y-21575424D01*
X21125407Y-21347235D01*
X21133319Y-21338303D01*
X21338303Y-21133319D01*
X21347235Y-21125407D01*
X21575424Y-20946632D01*
X21585221Y-20939868D01*
X21833315Y-20789891D01*
X21843875Y-20784350D01*
X22108218Y-20665378D01*
X22119370Y-20661148D01*
X22396121Y-20574910D01*
X22407715Y-20572052D01*
X22692837Y-20519801D01*
X22704688Y-20518362D01*
X22997008Y-20500681D01*
X23002985Y-20500500D01*
X23065892Y-20500500D01*
X90934108Y-20500500D01*
X90997015Y-20500500D01*
X91002992Y-20500681D01*
G37*
%TD.AperFunction*%
%TD*%
M02*
