M48
; DRILL file KiCad 10.0.5 date 2026-08-31T10:20:11
; FORMAT={-:-/ absolute / metric / decimal}
; #@! TF.CreationDate,2026-08-31T10:20:11+07:00
; #@! TF.GenerationSoftware,Kicad,Pcbnew,10.0.5
; #@! TF.FileFunction,Plated,1,2,PTH
FMAT,2
METRIC
; #@! TA.AperFunction,Plated,PTH,ViaDrill
T1C0.400
; #@! TA.AperFunction,Plated,PTH,ComponentDrill
T2C0.762
; #@! TA.AperFunction,Plated,PTH,ComponentDrill
T3C0.800
; #@! TA.AperFunction,Plated,PTH,ComponentDrill
T4C1.000
; #@! TA.AperFunction,Plated,PTH,ComponentDrill
T5C1.750
%
G90
G05
T1
X43.0Y-49.0
X43.0Y-55.0
X43.0Y-67.0
X54.0Y-74.0
X54.0Y-80.0
X55.0Y-67.0
X60.0Y-74.0
X60.0Y-80.0
X61.0Y-49.0
X61.0Y-61.0
X61.0Y-67.0
X67.0Y-49.0
X67.0Y-55.0
X67.0Y-61.0
X72.0Y-80.0
X77.237Y-65.166
X78.0Y-86.0
T2
X55.0Y-43.22
X55.0Y-45.76
X55.0Y-48.3
X55.0Y-50.84
X55.0Y-53.38
X55.0Y-55.92
X55.0Y-58.46
X55.0Y-61.0
T3
X23.0Y-34.0
X23.0Y-36.54
X23.0Y-39.08
X23.0Y-41.62
X23.0Y-44.16
X23.0Y-46.7
X23.0Y-49.24
X23.0Y-51.78
X23.0Y-54.32
X23.0Y-56.86
X23.0Y-59.4
X23.0Y-61.94
X23.0Y-64.48
X23.0Y-67.02
X23.0Y-69.56
X23.0Y-72.1
X23.0Y-74.64
X23.0Y-77.18
X23.0Y-79.72
X48.396Y-77.177
X48.396Y-79.717
X48.4Y-34.0
X48.4Y-36.54
X48.4Y-39.08
X48.4Y-41.62
X48.4Y-44.16
X48.4Y-46.7
X48.4Y-49.24
X48.4Y-51.78
X48.4Y-54.32
X48.4Y-56.86
X48.4Y-59.4
X48.4Y-61.94
X48.4Y-64.48
X48.4Y-67.02
X48.4Y-69.56
X48.4Y-72.1
X48.4Y-74.64
X55.0Y-27.0
X58.5Y-27.0
T4
X66.0Y-74.0
X71.0Y-74.0
X79.0Y-63.3
X79.0Y-65.84
X79.0Y-68.38
X79.0Y-70.92
X79.0Y-73.46
X79.0Y-76.0
X100.0Y-38.19
X100.0Y-40.73
X100.0Y-43.27
X100.0Y-45.81
X101.074Y-60.776
X101.074Y-63.316
X101.074Y-65.856
X101.074Y-68.396
X101.074Y-70.936
X101.074Y-73.476
T5
X53.0Y-86.0
X58.4Y-86.0
X67.0Y-86.0
X72.4Y-86.0
M30
